<svg xmlns="http://www.w3.org/2000/svg" xmlns:xlink="http://www.w3.org/1999/xlink" width="451.814" height="350.45" viewBox="0 0 451.814 350.45">
  <defs>
    <clipPath id="clip-path">
      <path id="Trazado_114818" data-name="Trazado 114818" d="M514.53,1115.268s116.85,281.34,98.2,307.51-99,6.46-99,6.46Z" fill="none"/>
    </clipPath>
  </defs>
  <g id="Grupo_53042" data-name="Grupo 53042" transform="translate(-209.3 -1093.668)">
    <g id="freepik--background-complete--inject-51">
      <path id="Trazado_114811" data-name="Trazado 114811" d="M575.38,1166.438s100,240.69,84,263.08-84.73,5.53-84.73,5.53Z" fill="#f5f5f5"/>
      <rect id="Rectángulo_28701" data-name="Rectángulo 28701" width="6.41" height="275.53" transform="translate(570.21 1163.358)" fill="#fafafa"/>
      <ellipse id="Elipse_5308" data-name="Elipse 5308" cx="9.04" cy="9.24" rx="9.04" ry="9.24" transform="translate(564.38 1147.948)" fill="#fafafa"/>
      <path id="Trazado_114812" data-name="Trazado 114812" d="M580.38,1169.618H566.46a2.08,2.08,0,0,1-2.08-2.08h0a2.079,2.079,0,0,1,2.07-2.09h13.93a2.09,2.09,0,0,1,2.09,2.09h0A2.091,2.091,0,0,1,580.38,1169.618Z" fill="#fafafa"/>
      <path id="Trazado_114813" data-name="Trazado 114813" d="M619.25,1278.158l3.31,9.18-9.3-2.96-7.7,5.98-.06-9.75-8.07-5.48,9.26-3.07,2.71-9.37,5.79,7.86,1.28.27Z" fill="#fafafa"/>
      <path id="Trazado_114814" data-name="Trazado 114814" d="M640.31,1336.248l3.31,9.18-9.29-2.96-7.71,5.98-.06-9.75-8.07-5.48,9.26-3.07,2.72-9.37,5.78,7.85,1.28.28Z" fill="#fafafa"/>
      <path id="Trazado_114815" data-name="Trazado 114815" d="M515.671,1119.738s116.85,281.34,98.2,307.51-99,6.46-99,6.46Z" fill="#ffe000"/>
      <g id="Grupo_53033" data-name="Grupo 53033">
        <g id="Grupo_53032" data-name="Grupo 53032" clip-path="url(#clip-path)">
          <path id="Trazado_114816" data-name="Trazado 114816" d="M503.72,1347.978s16.216-29.1,46.475-26.493,52.824,24.1,52.824,24.1l32.471,93.235L550.2,1458.585,508.1,1397.214Z" fill="#1e1ee0"/>
          <path id="Trazado_114817" data-name="Trazado 114817" d="M503.72,1422.423s28.112-29.1,80.567-26.492,91.574,24.1,91.574,24.1l56.29,93.235L584.287,1533.03l-72.973-61.37Z" fill="red"/>
        </g>
      </g>
      <rect id="Rectángulo_28702" data-name="Rectángulo 28702" width="7.49" height="322.05" transform="translate(508.46 1111.678)" fill="#f5f5f5"/>
      <ellipse id="Elipse_5309" data-name="Elipse 5309" cx="10.57" cy="10.8" rx="10.57" ry="10.8" transform="translate(501.64 1093.668)" fill="#f5f5f5"/>
      <rect id="Rectángulo_28703" data-name="Rectángulo 28703" width="21.13" height="4.88" rx="2.17" transform="translate(501.64 1114.118)" fill="#f5f5f5"/>
      <rect id="Rectángulo_28704" data-name="Rectángulo 28704" width="121.83" height="126.99" transform="translate(242.02 1109.948)" fill="#e0e0e0"/>
      <rect id="Rectángulo_28705" data-name="Rectángulo 28705" width="121.83" height="126.99" transform="translate(233.77 1109.948)" fill="#fcebd5"/>
      <rect id="Rectángulo_28706" data-name="Rectángulo 28706" width="89.07" height="92.85" transform="translate(250.15 1127.018)" fill="#fafafa"/>
      <path id="Trazado_114819" data-name="Trazado 114819" d="M250.15,1220.488a17.493,17.493,0,0,1-2.23,2.51c-1.43,1.49-3.43,3.52-5.67,5.72s-4.3,4.18-5.81,5.59a15.961,15.961,0,0,1-2.55,2.17,17.418,17.418,0,0,1,2.22-2.48c1.43-1.5,3.44-3.53,5.69-5.74s4.3-4.19,5.81-5.59A15.957,15.957,0,0,1,250.15,1220.488Z" fill="#e0e0e0"/>
      <path id="Trazado_114820" data-name="Trazado 114820" d="M339.22,1220.258a17.105,17.105,0,0,1,2.52,2.23c1.5,1.43,3.52,3.43,5.73,5.67s4.18,4.3,5.59,5.81a15.917,15.917,0,0,1,2.17,2.55,17.48,17.48,0,0,1-2.51-2.22c-1.5-1.43-3.53-3.44-5.74-5.68s-4.19-4.31-5.59-5.82A15.979,15.979,0,0,1,339.22,1220.258Z" fill="#e0e0e0"/>
      <path id="Trazado_114821" data-name="Trazado 114821" d="M338.98,1127.268a16.568,16.568,0,0,1,2.22-2.52c1.43-1.5,3.44-3.52,5.68-5.73s4.29-4.18,5.81-5.58a17.134,17.134,0,0,1,2.54-2.18,16.11,16.11,0,0,1-2.21,2.52c-1.43,1.49-3.44,3.52-5.69,5.73s-4.31,4.19-5.82,5.6A16.549,16.549,0,0,1,338.98,1127.268Z" fill="#e0e0e0"/>
      <path id="Trazado_114822" data-name="Trazado 114822" d="M249.9,1127.5a17.069,17.069,0,0,1-2.52-2.23c-1.49-1.43-3.52-3.43-5.73-5.67s-4.18-4.3-5.58-5.81a17.187,17.187,0,0,1-2.18-2.54,15.473,15.473,0,0,1,2.49,2.21c1.49,1.43,3.52,3.44,5.74,5.69s4.26,4.3,5.62,5.85A16.76,16.76,0,0,1,249.9,1127.5Z" fill="#e0e0e0"/>
      <path id="Trazado_114823" data-name="Trazado 114823" d="M338.98,1219.868v-6.74c0-4.39,0-10.79-.08-18.92,0-16.26-.08-39.44-.14-67.19l.29.3H250.23l.25-.32v92.85l-.28-.28,64.33.14,18.06.08h6.44a2.955,2.955,0,0,1-.4,0h-5.92l-18,.08-64.52.14h-.29v-93.47h89.46v.46c-.06,27.83-.11,51.07-.15,67.38,0,8.1-.06,14.47-.08,18.85v6.21A.7.7,0,0,1,338.98,1219.868Z" fill="#e0e0e0"/>
      <rect id="Rectángulo_28707" data-name="Rectángulo 28707" width="3.65" height="16.3" transform="translate(294.05 1154.508)" fill="#fcebd5"/>
      <path id="Trazado_114824" data-name="Trazado 114824" d="M321.65,1151.818h-52.4a1.12,1.12,0,0,1-1.12-1.12h0a1.119,1.119,0,0,1,1.12-1.12h52.4a1.12,1.12,0,0,1,1.12,1.12h0A1.121,1.121,0,0,1,321.65,1151.818Z" fill="#fcebd5"/>
      <path id="Trazado_114825" data-name="Trazado 114825" d="M313.21,1179.678a4.092,4.092,0,0,1,.15-.51c.12-.4.29-.91.5-1.54.46-1.41,1.11-3.37,1.92-5.81,1.69-5,4-12,6.75-20.08l.24-.71.24.71c1,2.86,2,5.9,3.11,9,2.36,6.9,4.56,13.36,6.43,18.83l.1.3h-.27l-14-.12-3.85-.06h-1a1.709,1.709,0,0,1-.32,0h1.38l3.91-.06,13.79-.12-.22.29c-1.88-5.46-4.11-11.91-6.49-18.8-1.07-3.14-2.12-6.19-3.1-9h.48c-2.78,7.93-5.19,14.83-6.93,19.8-.87,2.45-1.57,4.42-2.08,5.84-.23.65-.42,1.17-.57,1.58C313.329,1179.373,313.273,1179.527,313.21,1179.678Z" fill="#e0e0e0"/>
      <path id="Trazado_114826" data-name="Trazado 114826" d="M259.38,1179.678a2,2,0,0,1,.14-.51c.13-.4.3-.91.5-1.54.47-1.41,1.12-3.37,1.92-5.81l6.76-20.08.24-.71.24.71c1,2.86,2,5.9,3.11,9,2.35,6.9,4.56,13.36,6.42,18.83l.11.3h-.32l-14-.12-3.85-.06h-1a1.709,1.709,0,0,1-.32,0h1.37l3.92-.06,13.78-.12-.21.29c-1.88-5.46-4.11-11.91-6.49-18.8-1.08-3.14-2.12-6.19-3.1-9h.48c-2.78,7.93-5.19,14.83-6.94,19.8l-2.07,5.84c-.24.65-.43,1.17-.57,1.58S259.38,1179.668,259.38,1179.678Z" fill="#e0e0e0"/>
      <path id="Trazado_114827" data-name="Trazado 114827" d="M309.26,1196.568v.26a1.4,1.4,0,0,1-1.4,1.4H284.15a1.409,1.409,0,0,1-1.41-1.4h0a1.419,1.419,0,0,1,1.41-1.41h24a1.129,1.129,0,0,1,1.11,1.149Z" fill="#e0e0e0"/>
      <path id="Trazado_114828" data-name="Trazado 114828" d="M299.04,1194.678a4.217,4.217,0,0,1-.5.74h-5.07c-4-4.71,0-23.67,0-23.67h5.07S302.22,1189,299.04,1194.678Z" fill="#fcebd5"/>
      <path id="Trazado_114829" data-name="Trazado 114829" d="M304.06,1194h0a1.4,1.4,0,0,1-1.4,1.4H289.38a1.4,1.4,0,0,1-1.4-1.4h0a1.409,1.409,0,0,1,1.4-1.41h13.31A1.409,1.409,0,0,1,304.06,1194Z" fill="#e0e0e0"/>
      <path id="Trazado_114830" data-name="Trazado 114830" d="M278.72,1179.268a.331.331,0,0,1,.26.53,13.72,13.72,0,0,1-19.394.606c-.208-.2-.411-.4-.606-.606a.331.331,0,0,1,.044-.465.326.326,0,0,1,.216-.075Z" fill="#e0e0e0"/>
      <path id="Trazado_114831" data-name="Trazado 114831" d="M332.79,1179.8a12.792,12.792,0,0,1-10,4.34,14.5,14.5,0,0,1-4.58-.72h0a11.424,11.424,0,0,1-5.41-3.61.329.329,0,0,1,.25-.54h19.5a.33.33,0,0,1,.24.53Z" fill="#e0e0e0"/>
      <path id="Trazado_114832" data-name="Trazado 114832" d="M300.12,1170.808a4.1,4.1,0,1,1-4.11-4.09h.02A4.09,4.09,0,0,1,300.12,1170.808Z" fill="#e0e0e0"/>
      <path id="Trazado_114833" data-name="Trazado 114833" d="M302.38,1151.238a6.34,6.34,0,1,1-6.35-6.33h.02a6.33,6.33,0,0,1,6.33,6.33Z" fill="#e0e0e0"/>
      <rect id="Rectángulo_28708" data-name="Rectángulo 28708" width="30.76" height="5.57" transform="translate(280.45 1198.348)" fill="#e0e0e0"/>
    </g>
    <g id="freepik--Character--inject-51">
      <path id="Trazado_114834" data-name="Trazado 114834" d="M468.2,1164c-8-2.44-16.34,4.72-24.55,3.11-5-1-8.74-5-13.18-7.44-6.63-3.7-16-4.3-22.78-.86s-11.13,7.11-12.05,14.65c-6.17-3.54-16.45,4.22-19.95,11.71s-2.63,15.22-.64,23.24a108.88,108.88,0,0,0,18,38.39c.75,1,1.94,2.14,3.08,1.61a2.784,2.784,0,0,0,1.19-2.22c1.17-7.33.24-14.82-.39-22.22s-1-15,1.39-22.09,7.86-13.49,15.15-14.93c5.38-1.06,11,.69,15.76,3.38s9,6.28,13.55,9.34,9.68,5.63,15.16,5.87,11.37-2.35,13.7-7.31-.28-12-5.65-13.17A10.79,10.79,0,0,0,468.2,1164Z" fill="#0a4b6e"/>
      <path id="Trazado_114835" data-name="Trazado 114835" d="M443.53,1292.628l-.78-15.88s20.93-4,20.45-25.05c-.23-10.16-2.41-31-4.6-49.93a39.22,39.22,0,0,0-40.34-34.68l-2,.07c-21.84,2-32.3,21.74-29.65,43.51l5,84.77a26,26,0,0,0,27.33,24.42h0A26,26,0,0,0,443.53,1292.628Z" fill="#ffbe9d"/>
      <path id="Trazado_114836" data-name="Trazado 114836" d="M442.78,1276.738s-13.26,1.55-27.7-6.83c0,0,7,14.91,27.94,12.28Z" fill="#eb996e"/>
      <path id="Trazado_114837" data-name="Trazado 114837" d="M449.78,1218.368a3,3,0,0,1-2.8,3.13,2.881,2.881,0,0,1-3.184-2.54l-.006-.06a3,3,0,0,1,2.79-3.13,2.889,2.889,0,0,1,3.194,2.549Z" fill="#0a4b6e"/>
      <path id="Trazado_114838" data-name="Trazado 114838" d="M453.06,1212.238c-.36.41-2.7-1.2-5.93-1.08s-5.54,1.83-5.91,1.44c-.18-.17.18-.89,1.18-1.68a8.3,8.3,0,0,1,4.72-1.63,7.869,7.869,0,0,1,4.73,1.35C452.87,1211.358,453.23,1212.058,453.06,1212.238Z" fill="#0a4b6e"/>
      <path id="Trazado_114839" data-name="Trazado 114839" d="M418.94,1220.328a3,3,0,0,1-2.79,3.13,2.89,2.89,0,0,1-3.2-2.549l0-.051a3,3,0,0,1,2.79-3.13,2.879,2.879,0,0,1,3.192,2.529C418.935,1220.28,418.937,1220.3,418.94,1220.328Z" fill="#0a4b6e"/>
      <path id="Trazado_114840" data-name="Trazado 114840" d="M422.68,1213.928c-.36.4-2.69-1.2-5.92-1.08s-5.55,1.82-5.91,1.44c-.18-.17.17-.89,1.18-1.68a8.248,8.248,0,0,1,4.71-1.63,8,8,0,0,1,4.74,1.34C422.5,1213.048,422.86,1213.748,422.68,1213.928Z" fill="#0a4b6e"/>
      <path id="Trazado_114841" data-name="Trazado 114841" d="M435.26,1237.488c0-.18,2-.6,5.21-1.13.83-.11,1.6-.31,1.72-.87a4.182,4.182,0,0,0-.64-2.43q-1.26-3-2.66-6.2c-3.7-8.83-6.41-16.1-6.06-16.25s3.65,6.89,7.36,15.72q1.329,3.27,2.56,6.24a4.825,4.825,0,0,1,.54,3.23,2.071,2.071,0,0,1-1.32,1.25,5.663,5.663,0,0,1-1.39.25C437.31,1237.588,435.28,1237.668,435.26,1237.488Z" fill="#0a4b6e"/>
      <path id="Trazado_114842" data-name="Trazado 114842" d="M422.95,1207.2c-.31.88-3.54.5-7.33,1s-6.85,1.57-7.36.79c-.23-.38.3-1.21,1.52-2.08a12.888,12.888,0,0,1,11.2-1.36C422.38,1206.1,423.09,1206.778,422.95,1207.2Z" fill="#0a4b6e"/>
      <path id="Trazado_114843" data-name="Trazado 114843" d="M453.64,1207.4c-.65.66-2.77-.36-5.43-.72s-5-.09-5.4-.92c-.18-.4.26-1.08,1.33-1.66a8,8,0,0,1,8.72,1.32C453.71,1206.278,453.93,1207.068,453.64,1207.4Z" fill="#0a4b6e"/>
      <path id="Trazado_114844" data-name="Trazado 114844" d="M388.84,1226.188c-.36-.14-14.6-3.77-13.64,10.6s15.19,10.43,15.19,10S388.84,1226.188,388.84,1226.188Z" fill="#ffbe9d"/>
      <path id="Trazado_114845" data-name="Trazado 114845" d="M385.63,1241.658c-.06,0-.24.19-.65.41a2.47,2.47,0,0,1-1.86.17c-1.56-.46-3-2.78-3.24-5.37a8.256,8.256,0,0,1,.46-3.63,2.877,2.877,0,0,1,1.75-2,1.289,1.289,0,0,1,1.53.58c.22.39.14.68.22.7s.29-.26.14-.84a1.645,1.645,0,0,0-.63-.87,1.939,1.939,0,0,0-1.41-.27,3.519,3.519,0,0,0-2.46,2.4,8.58,8.58,0,0,0-.6,4.07c.29,2.89,1.95,5.49,4.07,6a2.7,2.7,0,0,0,2.26-.54C385.63,1242,385.69,1241.678,385.63,1241.658Z" fill="#eb996e"/>
      <path id="Trazado_114846" data-name="Trazado 114846" d="M462.9,1197.2a30.374,30.374,0,0,1-27.21-5.13c-5.27-4.16-9.43-10.26-15.92-12a17.136,17.136,0,0,0-13,2.25,32.9,32.9,0,0,0-9.58,9.45c4.43,10.55,2.12,22.58-.26,33.77a5.749,5.749,0,0,1-1.55,3.38c-1.66,1.37-4.24.43-5.78-1.07-2.46-2.4-3.5-5.87-4.23-9.24a59.152,59.152,0,0,1-.68-23.33,40.335,40.335,0,0,1,10.36-20.72,38.189,38.189,0,0,1,26.41-11,46.894,46.894,0,0,1,27.51,8.77c3.72,2.6,7.17,5.79,9.19,9.86" fill="#0a4b6e"/>
      <path id="Trazado_114847" data-name="Trazado 114847" d="M474.38,1168.858a3.157,3.157,0,0,1-.08,1.25,5.884,5.884,0,0,1-1.91,3,9.175,9.175,0,0,1-5.31,2,15.054,15.054,0,0,1-3.58-.1,7.551,7.551,0,0,1-3.72-1.57,5.081,5.081,0,0,1-1.94-4,4.458,4.458,0,0,1,2.93-3.78,5.417,5.417,0,0,1,2.57-.42,4.625,4.625,0,0,1,2.51,1,6.581,6.581,0,0,1,2.32,4.95,7.594,7.594,0,0,1-2.08,5.36,11.564,11.564,0,0,1-5.11,3.14c-3.95,1.24-8.37.63-12.34-.91a54.2,54.2,0,0,1-10.86-6,68.962,68.962,0,0,0-9.86-5.82,21.384,21.384,0,0,0-10-2.06,20.378,20.378,0,0,0-8.52,2.51,25.519,25.519,0,0,0-9.24,9,33.675,33.675,0,0,0-1.72,3.12,11.525,11.525,0,0,1-.56,1.11.839.839,0,0,1,.09-.3c.09-.2.17-.49.34-.87a26.965,26.965,0,0,1,1.61-3.2,25.2,25.2,0,0,1,9.23-9.31,20.913,20.913,0,0,1,8.74-2.66,21.872,21.872,0,0,1,10.27,2,68.871,68.871,0,0,1,10,5.84,54.423,54.423,0,0,0,10.73,5.95c3.88,1.5,8.12,2.07,11.87.9a10.847,10.847,0,0,0,4.81-2.93,6.934,6.934,0,0,0,1.93-4.88,5.921,5.921,0,0,0-2.05-4.48,4.319,4.319,0,0,0-4.47-.54,3.868,3.868,0,0,0-2.6,3.25,4.587,4.587,0,0,0,1.72,3.59,7.237,7.237,0,0,0,3.47,1.51,15.2,15.2,0,0,0,3.47.14,8.914,8.914,0,0,0,5.16-1.79,6,6,0,0,0,1.95-2.86A10.326,10.326,0,0,0,474.38,1168.858Z" fill="#455a64"/>
      <path id="Trazado_114848" data-name="Trazado 114848" d="M373.56,1197.638a23.086,23.086,0,0,0,4.43,1,12.391,12.391,0,0,0,4.8-.67,21.011,21.011,0,0,0,5.3-2.78,16.84,16.84,0,0,0,6.11-8.8,35.417,35.417,0,0,0,.8-4.49,3.816,3.816,0,0,1,.12,1.25,14.509,14.509,0,0,1-.43,3.37,16.445,16.445,0,0,1-6.18,9.24,19.7,19.7,0,0,1-5.52,2.83,12.093,12.093,0,0,1-5,.55,11.263,11.263,0,0,1-3.3-.88A3.412,3.412,0,0,1,373.56,1197.638Z" fill="#455a64"/>
      <path id="Trazado_114849" data-name="Trazado 114849" d="M374.55,1208c0-.13,1.71.18,4.42-.07a19.742,19.742,0,0,0,16.41-11.65c1.12-2.48,1.37-4.18,1.5-4.15a3.763,3.763,0,0,1-.11,1.2,16.555,16.555,0,0,1-.93,3.15,19,19,0,0,1-16.82,12,16.14,16.14,0,0,1-3.28-.16A3.726,3.726,0,0,1,374.55,1208Z" fill="#455a64"/>
      <path id="Trazado_114850" data-name="Trazado 114850" d="M412.43,1228.048a.38.38,0,0,1-.44-.3.36.36,0,1,1,.66-.286.341.341,0,0,1,.03.126.37.37,0,0,1-.25.46Z" fill="#eb996e"/>
      <path id="Trazado_114851" data-name="Trazado 114851" d="M418.55,1226.428a.46.46,0,1,1,.217-.613.49.49,0,0,1,.033.093A.421.421,0,0,1,418.55,1226.428Z" fill="#eb996e"/>
      <path id="Trazado_114852" data-name="Trazado 114852" d="M422.71,1226.178c-.2,0-.4-.2-.45-.52s.07-.6.26-.63.39.2.45.52S422.9,1226.148,422.71,1226.178Z" fill="#eb996e"/>
      <path id="Trazado_114853" data-name="Trazado 114853" d="M415.6,1231.818c-.2,0-.36-.09-.37-.22s.15-.23.35-.24.36.09.37.22S415.79,1231.808,415.6,1231.818Z" fill="#eb996e"/>
      <path id="Trazado_114854" data-name="Trazado 114854" d="M421.22,1230.308a.41.41,0,1,1,.289-.5.489.489,0,0,1,.011.053A.391.391,0,0,1,421.22,1230.308Z" fill="#eb996e"/>
      <path id="Trazado_114855" data-name="Trazado 114855" d="M450.57,1225.748a1.147,1.147,0,1,1-.01.03h0Z" fill="#eb996e"/>
      <path id="Trazado_114856" data-name="Trazado 114856" d="M454.77,1225.218a.438.438,0,0,1-.42-.4.419.419,0,0,1,.3-.49.429.429,0,0,1,.41.4A.421.421,0,0,1,454.77,1225.218Z" fill="#eb996e"/>
      <path id="Trazado_114857" data-name="Trazado 114857" d="M446.86,1226a.34.34,0,0,1-.42-.22.36.36,0,0,1,.69-.17A.342.342,0,0,1,446.86,1226Z" fill="#eb996e"/>
      <path id="Trazado_114858" data-name="Trazado 114858" d="M450.12,1230.088a.39.39,0,0,1-.5-.22.381.381,0,0,1,.145-.518l0,0a.41.41,0,0,1,.35.74Z" fill="#eb996e"/>
      <path id="Trazado_114859" data-name="Trazado 114859" d="M453.69,1229.238a.3.3,0,0,1,.078-.6.337.337,0,0,1,.062.015.3.3,0,0,1-.079.6A.327.327,0,0,1,453.69,1229.238Z" fill="#eb996e"/>
      <path id="Trazado_114860" data-name="Trazado 114860" d="M435.67,1248.718a14.727,14.727,0,0,1-1.14,4.05,5,5,0,0,1-3.06,2.71,4.431,4.431,0,0,1-4.11-1.27,7.1,7.1,0,0,1-1.88-4c-.21-1.34.08-3,1.37-3.46a3.26,3.26,0,0,1,1.67,0l7.51,1.42" fill="#eb996e"/>
      <path id="Trazado_114861" data-name="Trazado 114861" d="M434.05,1255c-.08-.21-1.48.71-3.8.28a5.333,5.333,0,0,1-3.31-2,5.687,5.687,0,0,1-1-4.52,5.139,5.139,0,0,1,.4-1.15c.21-.35.17-.32.48-.34a6.659,6.659,0,0,1,1.19.21l1.24.24c1.6.3,3,.55,4.27.75,2.45.39,4,.55,4,.38s-1.43-.64-3.82-1.25c-1.2-.31-2.63-.66-4.23-1l-1.22-.28c-.44-.08-.78-.2-1.37-.27a1.721,1.721,0,0,0-1,.24,2,2,0,0,0-.64.76,5.8,5.8,0,0,0-.51,1.47,6.626,6.626,0,0,0,1.32,5.51,6.072,6.072,0,0,0,4.1,2.14,5.805,5.805,0,0,0,3-.49C433.81,1255.348,434.09,1255.048,434.05,1255Z" fill="#0a4b6e"/>
      <path id="Trazado_114862" data-name="Trazado 114862" d="M387.61,1291l3-8.06,25.86,27.88,26.91-29.49,7.21,9.93s7.94,38.78,7.22,39.51-38.45,24-38.45,24l-31.32-1.1-21.12-40.24Z" fill="#fcebd5"/>
      <path id="Trazado_114863" data-name="Trazado 114863" d="M272.02,1432.418l-.29-54s31.43-47.19,37.3-53.06c8.3-8.3,13.9-14.06,17.64-17a6.149,6.149,0,0,1,7.56,0h0l53.88-18.74s-8.24,13.55,4.21,30.41a282.484,282.484,0,0,1,21.42,34.37s12.74-20.84,17.67-25,21.93-32.07,18-40.36l44.68,19.39s2.15-3.23,4.85-1.89,22.9,9.72,30.72,24.54,47,71.83,47,71.83l-42.72,37.48Z" fill="#12263f"/>
      <path id="Trazado_114864" data-name="Trazado 114864" d="M355.38,1357.618a3.423,3.423,0,0,1-.39-.36l-1-1.1a21.325,21.325,0,0,1-1.55-1.79c-.55-.73-1.28-1.51-1.95-2.46s-1.47-2-2.21-3.1-1.54-2.38-2.34-3.71a71.88,71.88,0,0,1-4.39-9,68.611,68.611,0,0,1-3-9.58c-.32-1.51-.63-2.94-.81-4.3s-.36-2.63-.48-3.79-.15-2.21-.21-3.13-.06-1.72-.05-2.37,0-1.1,0-1.5a2.658,2.658,0,0,1,0-.52,1.819,1.819,0,0,1,.06.52c0,.4.05.89.08,1.49a22.42,22.42,0,0,0,.13,2.36c.13.92.12,2,.29,3.12s.28,2.41.54,3.75.52,2.76.85,4.26a73.5,73.5,0,0,0,3,9.49,76.394,76.394,0,0,0,4.33,9c.78,1.32,1.51,2.58,2.28,3.71s1.47,2.18,2.14,3.12,1.33,1.76,1.89,2.5,1.06,1.35,1.48,1.84l.94,1.16A2.782,2.782,0,0,1,355.38,1357.618Z" fill="#0a4b6e"/>
      <path id="Trazado_114865" data-name="Trazado 114865" d="M332.05,1343.768a9.852,9.852,0,0,1,.12-2.78,25.906,25.906,0,0,1,1.74-6.47,26.237,26.237,0,0,1,3.35-5.82,9.8,9.8,0,0,1,1.88-2c.06.06-.62.86-1.58,2.26a30.857,30.857,0,0,0-5,12.13A24.387,24.387,0,0,1,332.05,1343.768Z" fill="#0a4b6e"/>
      <path id="Trazado_114866" data-name="Trazado 114866" d="M325,1390.908a4.457,4.457,0,0,1-.27-.8c-.15-.53-.39-1.32-.65-2.33-.53-2-1.24-5-1.94-8.69a139.831,139.831,0,0,1-2.35-29.23,75.947,75.947,0,0,1,1.78-16.08,32.915,32.915,0,0,1,5.45-12,23.118,23.118,0,0,1,6.54-6,16.489,16.489,0,0,1,2.15-1.11,6.318,6.318,0,0,1,.79-.3,5.04,5.04,0,0,1-.75.4,19.95,19.95,0,0,0-2.09,1.19,23.751,23.751,0,0,0-6.34,6.07,32.8,32.8,0,0,0-5.28,11.9,77.4,77.4,0,0,0-1.73,16A148.112,148.112,0,0,0,322.5,1379c.65,3.69,1.31,6.65,1.78,8.7.23,1,.42,1.77.55,2.35A6.4,6.4,0,0,1,325,1390.908Z" fill="#0a4b6e"/>
      <path id="Trazado_114867" data-name="Trazado 114867" d="M336.38,1372.858a5.209,5.209,0,0,1-.25-1.19,26.626,26.626,0,0,1-.29-3.3,34.256,34.256,0,0,1,.18-4.92,35.439,35.439,0,0,1,3.27-11.58,32.945,32.945,0,0,1,2.42-4.28,24.875,24.875,0,0,1,2-2.66,5.228,5.228,0,0,1,.83-.89c.08.06-1,1.39-2.5,3.74a39.237,39.237,0,0,0-2.3,4.3,41.424,41.424,0,0,0-2.05,5.58,42.069,42.069,0,0,0-1.18,5.84,38.3,38.3,0,0,0-.28,4.86C336.19,1371.138,336.45,1372.848,336.38,1372.858Z" fill="#0a4b6e"/>
      <path id="Trazado_114868" data-name="Trazado 114868" d="M342.07,1385.888a6.265,6.265,0,0,1-.17-1.37c-.08-.88-.15-2.16-.2-3.74a102.153,102.153,0,0,1,2.33-24.57c.34-1.54.65-2.78.89-3.63a7.245,7.245,0,0,1,.42-1.31,7.015,7.015,0,0,1-.22,1.35c-.2,1-.44,2.2-.73,3.67-.6,3.09-1.3,7.4-1.75,12.19s-.57,9.14-.57,12.29v3.74A8.594,8.594,0,0,1,342.07,1385.888Z" fill="#0a4b6e"/>
      <path id="Trazado_114869" data-name="Trazado 114869" d="M411.6,1350.888c0,.14-13.71.26-30.63.26s-30.59-.15-30.59-.26,13.71-.26,30.62-.26S411.6,1350.748,411.6,1350.888Z" fill="#0a4b6e"/>
      <path id="Trazado_114870" data-name="Trazado 114870" d="M361,1435.128c-.14,0-.13-18.08,0-40.39s.41-40.39.55-40.39.13,18.08,0,40.39S361.15,1435.128,361,1435.128Z" fill="#0a4b6e"/>
      <path id="Trazado_114871" data-name="Trazado 114871" d="M379.62,1436.728v-.86c0-.56.06-1.43.1-2.46.11-2.19.26-5.27.45-9.06.44-7.68,1-18.21,1.69-29.84s1.37-22.17,1.85-29.85c.26-3.78.47-6.85.62-9,.08-1,.14-1.85.19-2.46a5.163,5.163,0,0,1,.1-.85,4.75,4.75,0,0,1,0,.86q0,.909-.09,2.46c-.11,2.19-.27,5.27-.46,9.05-.43,7.68-1,18.22-1.69,29.86s-1.37,22.16-1.84,29.84c-.26,3.78-.47,6.85-.62,9-.08,1-.14,1.85-.19,2.46A4.429,4.429,0,0,1,379.62,1436.728Z" fill="#0a4b6e"/>
      <path id="Trazado_114872" data-name="Trazado 114872" d="M405.84,1432.688c-.14,0,1.23-18.1,3.06-40.4s3.43-40.37,3.57-40.36-1.23,18.1-3.06,40.4S405.98,1432.7,405.84,1432.688Z" fill="#0a4b6e"/>
      <path id="Trazado_114873" data-name="Trazado 114873" d="M482,1351.3c0,.14-14.57.26-32.55.26s-32.56-.12-32.56-.26,14.57-.26,32.56-.26S482,1351.148,482,1351.3Z" fill="#0a4b6e"/>
      <path id="Trazado_114874" data-name="Trazado 114874" d="M432.67,1433.708a5.127,5.127,0,0,1-.09-.8c0-.57-.09-1.34-.16-2.3-.14-2-.28-4.91-.38-8.5-.21-7.17-.16-17.11.57-28s2-20.79,3.21-27.87c.59-3.54,1.11-6.4,1.52-8.37.19-.94.35-1.7.47-2.26a3.559,3.559,0,0,1,.2-.78,4.8,4.8,0,0,1-.1.8c-.09.57-.22,1.33-.37,2.28-.35,2-.82,4.84-1.35,8.39-1.08,7.09-2.32,16.92-3.06,27.84s-.84,20.83-.72,28c.05,3.59.13,6.49.21,8.5a21.149,21.149,0,0,0,.07,2.31A5.08,5.08,0,0,1,432.67,1433.708Z" fill="#0a4b6e"/>
      <path id="Trazado_114875" data-name="Trazado 114875" d="M457.06,1444.118a.885.885,0,0,1,0-.23,3.5,3.5,0,0,0-.05-.68c0-.64-.08-1.5-.14-2.6-.11-2.26-.23-5.52-.32-9.57-.18-8.08-.18-19.25.34-31.58s1.49-23.46,2.31-31.46c.43-4,.82-7.26,1.13-9.5q.23-1.631.36-2.58a3.454,3.454,0,0,1,.11-.67c.03-.18,0-.22.05-.22a.684.684,0,0,1,0,.23,2.893,2.893,0,0,1-.06.67c-.06.64-.15,1.5-.26,2.59-.24,2.25-.58,5.5-1,9.52-.77,8-1.66,19.17-2.19,31.49s-.55,23.47-.46,31.47c.05,4,.1,7.31.16,9.57v3.27A1.142,1.142,0,0,1,457.06,1444.118Z" fill="#0a4b6e"/>
      <path id="Trazado_114876" data-name="Trazado 114876" d="M481.18,1351.3a9.615,9.615,0,0,1,.59-1.61c.45-1.1,1-2.55,1.75-4.31,1.46-3.65,3.38-8.74,5.35-14.4s3.72-10.73,5-14.53c.66-1.85,1.21-3.35,1.6-4.37a12.539,12.539,0,0,1,.66-1.58,9.624,9.624,0,0,1-.46,1.64l-1.45,4.43c-1.23,3.74-2.91,8.91-4.89,14.58s-4,10.75-5.5,14.37c-.78,1.81-1.43,3.26-1.9,4.25A11.461,11.461,0,0,1,481.18,1351.3Z" fill="#0a4b6e"/>
      <path id="Trazado_114877" data-name="Trazado 114877" d="M483.93,1384.628a5.377,5.377,0,0,1-.6-1.21c-.35-.78-.82-1.95-1.35-3.4a65.471,65.471,0,0,1-3-11.69,57.754,57.754,0,0,1-.64-12.06c.09-1.55.22-2.8.35-3.65a5.915,5.915,0,0,1,.24-1.32,6.252,6.252,0,0,1,0,1.34c-.07.86-.14,2.1-.18,3.64a65.592,65.592,0,0,0,.79,12,76.338,76.338,0,0,0,2.84,11.62c.48,1.46.9,2.64,1.19,3.45A7.743,7.743,0,0,1,483.93,1384.628Z" fill="#0a4b6e"/>
      <path id="Trazado_114878" data-name="Trazado 114878" d="M493.78,1408.5a3.785,3.785,0,0,1-.22-.56c-.15-.42-.33-.95-.56-1.61-.45-1.41-1.07-3.46-1.79-6-1.43-5.1-3.22-12.2-4.95-20.1s-3-15.11-3.68-20.37c-.33-2.63-.51-4.77-.58-6.25v-1.71a3.634,3.634,0,0,1,0-.59,2.137,2.137,0,0,1,.08.59c0,.44.07,1,.12,1.7.13,1.47.36,3.6.74,6.21.75,5.24,2.12,12.42,3.83,20.31s3.46,15,4.8,20.11c.67,2.5,1.23,4.56,1.63,6,.18.67.34,1.21.46,1.64A2.143,2.143,0,0,1,493.78,1408.5Z" fill="#0a4b6e"/>
      <path id="Trazado_114879" data-name="Trazado 114879" d="M502.31,1332.8c-.09,0-.37-.72-1.06-1.81a18.035,18.035,0,0,0-3.24-3.8,18.459,18.459,0,0,0-4.12-2.83,20.251,20.251,0,0,1-1.91-.88,5.617,5.617,0,0,1,2.06.54,15.212,15.212,0,0,1,4.34,2.78,14.894,14.894,0,0,1,3.21,4A5.058,5.058,0,0,1,502.31,1332.8Z" fill="#0a4b6e"/>
      <path id="Trazado_114880" data-name="Trazado 114880" d="M504.8,1325.448c-.08,0-.43-.67-1.2-1.66a16.555,16.555,0,0,0-3.58-3.32,24.727,24.727,0,0,0-6.29-2.94,5.355,5.355,0,0,1,2.06.32,15.873,15.873,0,0,1,4.52,2.19,14.009,14.009,0,0,1,3.59,3.53A4.94,4.94,0,0,1,504.8,1325.448Z" fill="#0a4b6e"/>
      <path id="Trazado_114881" data-name="Trazado 114881" d="M277.71,1375.638a25.51,25.51,0,0,0-9.15,6.11c-5.36,6.05-15.46,23.88-15.46,23.88s-3,35.21-1.88,34.93,53.62,0,53.62,0h63.64s-13.75-30.68-37.41-36.33l-16.77-3.3s-1.43-7.25-3.33-7.53S277.71,1375.638,277.71,1375.638Z" fill="#12263f"/>
      <path id="Trazado_114882" data-name="Trazado 114882" d="M499.95,1406.568a7,7,0,0,1,5.57-2.86c3.66,0,17.22-1.3,17.22-1.3s10-7.85,14.94-9.42a9.6,9.6,0,0,1,5.5-7.84c4.11-1.86,15.43-3.38,20.06-3.95a4.7,4.7,0,0,1,3.6,1.07c4.52,3.81,17.7,15.35,25,26.15,7.67,11.38,1,30.05-5,32.15H496.38Z" fill="#12263f"/>
      <g id="Grupo_53034" data-name="Grupo 53034" opacity="0.3">
        <path id="Trazado_114883" data-name="Trazado 114883" d="M284.44,1379.378c8.14.46,15.51,1.22,22.27,5.77,2.16,1.45,4.08,3.29,6.46,4.33s5,1.24,7.49,2.09c4.35,1.51,7.7,5,10.87,8.29,1,1,8,6.84,7.43,7.29s-8-3.21-8.66-3.31l-10.13-1.54c-2.53-.38-5.34-.93-6.83-3-.79-1.1-1.09-2.5-1.82-3.64-1-1.63-2.85-2.58-4.57-3.45-8.19-4.17-14.32-8.66-22.51-12.82"/>
      </g>
      <g id="Grupo_53035" data-name="Grupo 53035" opacity="0.3">
        <path id="Trazado_114884" data-name="Trazado 114884" d="M504.79,1403.748c1.3-2.24,6.37-4.17,9-4.31s5.31.09,7.65-1c3.41-1.61,5-5.47,7.35-8.42,3.18-4,8-6.36,12.9-7.57s14.39-4.1,21.53.25c0,0-9.51-.79-11.62-.56a42.812,42.812,0,0,0-6.28,1.57c-3.74,1-8.3,5.23-8.78,10.26v.27c-5.25,2.33-13.76,8.18-13.76,8.18-.2.08-11.91,1.24-17.95,1.34"/>
      </g>
      <g id="Grupo_53036" data-name="Grupo 53036" opacity="0.3">
        <path id="Trazado_114885" data-name="Trazado 114885" d="M330.76,1317.528a38.177,38.177,0,0,0-6.13,30.07c.88,4,2.41,7.82,3.23,11.83s.85,8.37-1.12,12a4.817,4.817,0,0,1-1.76,2,2.25,2.25,0,0,1-2.51-.11,3.485,3.485,0,0,1-.9-2.2c-1.48-9.42-3-19-2-28.44s4.59-19.07,11.83-25.27"/>
      </g>
      <g id="Grupo_53037" data-name="Grupo 53037" opacity="0.3">
        <path id="Trazado_114886" data-name="Trazado 114886" d="M492.22,1323.548c2.53,2.17,5.81,8.3,6.35,11.6s.65,6.69,1.77,9.83c.56,1.54,1.76,3.23,3.38,3s2.37-2.17,2.46-3.81a18.406,18.406,0,0,0-3.3-11,29.993,29.993,0,0,0-7.8-8.65"/>
      </g>
      <g id="Grupo_53038" data-name="Grupo 53038" opacity="0.3">
        <path id="Trazado_114887" data-name="Trazado 114887" d="M367.71,1438.868a4.286,4.286,0,0,1,.46,1.7l-39.87-.1c-1.87-.13-3.88-.33-5.33-1.52-1.78-1.46-2.21-4-2.22-6.29a27.65,27.65,0,0,1,16.16-24.9s1.34-2,5,1S367.71,1438.868,367.71,1438.868Z"/>
      </g>
      <path id="Trazado_114888" data-name="Trazado 114888" d="M338.22,1407.128a4.375,4.375,0,0,1-.59-.26l-1.65-.81a30.754,30.754,0,0,0-6.31-2.35c-2.77-.68-6.16-.92-9.93-1.45a22.924,22.924,0,0,1-2.84-.74,17.084,17.084,0,0,1-2.86-1.14,6.152,6.152,0,0,1-1.91-2.63,14.475,14.475,0,0,0-1.48-2.78h0l.06.05-19.25-11.3-5.81-3.47-1.57-1a.322.322,0,1,1,.06-.09l1.61.88,5.89,3.33,19.34,11.18h0a13.929,13.929,0,0,1,1.56,2.9,5.625,5.625,0,0,0,1.7,2.41,17.233,17.233,0,0,0,2.75,1.11,25.889,25.889,0,0,0,2.78.74c3.71.55,7.14.83,9.93,1.56a28.963,28.963,0,0,1,6.31,2.52c.71.38,1.25.69,1.61.91A2.543,2.543,0,0,1,338.22,1407.128Z" fill="#0a4b6e"/>
      <path id="Trazado_114889" data-name="Trazado 114889" d="M311.8,1363a8.821,8.821,0,0,1,0,1.49v4.06c0,3.42.18,8.15.66,13.34s1.22,9.87,1.83,13.24c.31,1.61.56,3,.75,4a6.829,6.829,0,0,1,.23,1.47,8.94,8.94,0,0,1-.42-1.43c-.25-.92-.57-2.27-.92-3.95a122.56,122.56,0,0,1-2.5-26.65c0-1.72.1-3.11.17-4.06A7.921,7.921,0,0,1,311.8,1363Z" fill="#0a4b6e"/>
      <g id="Grupo_53039" data-name="Grupo 53039" opacity="0.3">
        <path id="Trazado_114890" data-name="Trazado 114890" d="M509.25,1440.848a17.04,17.04,0,0,0,2.05-3.46c1.17-2.82.93-6,.45-9.05a31.269,31.269,0,0,0-12.06-19.86l-3.31,32.09Z"/>
      </g>
      <path id="Trazado_114891" data-name="Trazado 114891" d="M303.21,1390.418a4.753,4.753,0,0,1-.25-1.14c-.13-.84-.3-1.88-.5-3.12a39.526,39.526,0,0,0-2.91-9.93,21.418,21.418,0,0,0-6.22-8.11,25.5,25.5,0,0,0-3.68-2.22,4.213,4.213,0,0,1,1.12.36,14.427,14.427,0,0,1,2.78,1.56,20.52,20.52,0,0,1,6.47,8.2,35.126,35.126,0,0,1,2.8,10.09c.18,1.33.28,2.4.35,3.15A5.421,5.421,0,0,1,303.21,1390.418Z" fill="#0a4b6e"/>
      <path id="Trazado_114892" data-name="Trazado 114892" d="M549.78,1392h-2.29a31.131,31.131,0,0,0-6.16.85,29.2,29.2,0,0,0-8.47,3.51c-1.49.89-2.94,2-4.51,3.09a20.366,20.366,0,0,1-5.25,2.77c-3.91,1.3-7.84,1.23-11.31,1.36a31.746,31.746,0,0,0-9.11,1.24,13.8,13.8,0,0,0-5.35,3c-1.06,1-1.48,1.74-1.53,1.7a2.923,2.923,0,0,1,.3-.52,8.456,8.456,0,0,1,1.09-1.32,13.309,13.309,0,0,1,5.38-3.21,30.91,30.91,0,0,1,9.2-1.37c3.48-.16,7.38-.11,11.17-1.37s6.64-4,9.67-5.78a29.157,29.157,0,0,1,8.64-3.46,28.476,28.476,0,0,1,6.24-.69,16.378,16.378,0,0,1,1.7.08A1.987,1.987,0,0,1,549.78,1392Z" fill="#0a4b6e"/>
      <path id="Trazado_114893" data-name="Trazado 114893" d="M563.89,1382.788a7.068,7.068,0,0,1-1.3-.09c-.83-.08-2-.21-3.51-.33a32.981,32.981,0,0,0-11.47.77,16.615,16.615,0,0,0-9.22,6.45,15.538,15.538,0,0,0-1.89,4.37v-.34a6.37,6.37,0,0,1,.17-.95,11.089,11.089,0,0,1,1.4-3.28,16.454,16.454,0,0,1,9.39-6.75,30.687,30.687,0,0,1,11.65-.63c1.48.16,2.68.35,3.5.49A5.8,5.8,0,0,1,563.89,1382.788Z" fill="#0a4b6e"/>
      <path id="Trazado_114894" data-name="Trazado 114894" d="M532.07,1396.428a7.84,7.84,0,0,1-.55-1.32l-1.34-3.64c-1.14-3.07-2.77-7.3-4.71-11.9s-3.84-8.72-5.25-11.68l-1.67-3.51a7.644,7.644,0,0,1-.56-1.31,7.883,7.883,0,0,1,.74,1.22c.45.8,1.08,2,1.82,3.44,1.5,2.92,3.45,7,5.4,11.63s3.52,8.88,4.57,12c.53,1.55.94,2.82,1.19,3.7A7.452,7.452,0,0,1,532.07,1396.428Z" fill="#0a4b6e"/>
      <path id="Trazado_114895" data-name="Trazado 114895" d="M390.62,1282.928a3.333,3.333,0,0,1,.48.44l1.3,1.31,4.71,4.91,15.41,16.33,3.73,4,.41.44h-.6a20.687,20.687,0,0,0-16.19,7.64,21.947,21.947,0,0,0-2.89,4.67c-.53,1.17-.75,1.85-.79,1.84a2.559,2.559,0,0,1,.13-.51,12.59,12.59,0,0,1,.5-1.4,20.014,20.014,0,0,1,2.78-4.81,20.534,20.534,0,0,1,6.37-5.41,20.838,20.838,0,0,1,10.09-2.58l-.18.43-3.74-4-15.3-16.44-4.59-5-1.23-1.38A3.657,3.657,0,0,1,390.62,1282.928Z" fill="#0a4b6e"/>
      <path id="Trazado_114896" data-name="Trazado 114896" d="M401.04,1316.428l6.89,13.5h12.73l7.35-10s-5-7.47-7.19-8.67l-9.22-.67C411.27,1310.108,402.87,1313.4,401.04,1316.428Z" fill="#12263f"/>
      <path id="Trazado_114897" data-name="Trazado 114897" d="M407.93,1329.928l-3.22,8.07s8.82,17.28,9.29,16.5,11-17.16,11-17.16l-4.36-7.39Z" fill="#12263f"/>
      <g id="Grupo_53040" data-name="Grupo 53040" opacity="0.3">
        <path id="Trazado_114898" data-name="Trazado 114898" d="M401.04,1316.428l6.89,13.5h12.73l7.35-10s-5-7.47-7.19-8.67l-9.22-.67C411.27,1310.108,402.87,1313.4,401.04,1316.428Z"/>
      </g>
      <g id="Grupo_53041" data-name="Grupo 53041" opacity="0.3">
        <path id="Trazado_114899" data-name="Trazado 114899" d="M407.93,1329.928l-3.22,8.07s8.82,17.28,9.29,16.5,11-17.16,11-17.16l-4.36-7.39Z"/>
      </g>
      <path id="Trazado_114900" data-name="Trazado 114900" d="M420.25,1330.588a61.19,61.19,0,0,0-6.16-.87,59.6,59.6,0,0,0-6.21.33,5.309,5.309,0,0,1,1.78-.53,19.671,19.671,0,0,1,4.46-.32,19.385,19.385,0,0,1,4.41.71A5.328,5.328,0,0,1,420.25,1330.588Z" fill="#0a4b6e"/>
      <path id="Trazado_114901" data-name="Trazado 114901" d="M423.38,1314.088a5.2,5.2,0,0,1-.45.71,18.756,18.756,0,0,1-1.45,1.77,28,28,0,0,1-12.69,7.94,18.622,18.622,0,0,1-2.22.53,2.976,2.976,0,0,1-.84.09c0-.09,1.14-.35,2.95-1a32.624,32.624,0,0,0,12.54-7.84C422.58,1315,423.38,1314,423.38,1314.088Z" fill="#0a4b6e"/>
      <path id="Trazado_114902" data-name="Trazado 114902" d="M414.89,1340.288a31.35,31.35,0,0,1,0-10.93,49.735,49.735,0,0,1,0,5.46A49.917,49.917,0,0,1,414.89,1340.288Z" fill="#0a4b6e"/>
      <path id="Trazado_114903" data-name="Trazado 114903" d="M417.09,1342.728c-.15,0-.26-2.86-.55-6.36s-.62-6.35-.48-6.37a27.16,27.16,0,0,1,1,6.32A27.6,27.6,0,0,1,417.09,1342.728Z" fill="#0a4b6e"/>
      <path id="Trazado_114904" data-name="Trazado 114904" d="M443.38,1281.328s0,.06-.11.16l-.38.44-1.47,1.67-5.57,6.21L416.67,1311l-.26-.41a6,6,0,0,1,3.36-.14,7.136,7.136,0,0,1,2.82,2,26.91,26.91,0,0,1,4.43,5.41,25.677,25.677,0,0,1,3.56,10.05l-.42-.15A81.894,81.894,0,0,0,441.38,1315a58.011,58.011,0,0,0,3.81-6.19,50.22,50.22,0,0,0,2.55-5.72,49.183,49.183,0,0,0,2.37-8.65c.2-1,.27-1.84.37-2.38a2.97,2.97,0,0,1,.1-.62,1.479,1.479,0,0,1,0-.21v.21a3.237,3.237,0,0,1-.05.63c-.07.54-.11,1.36-.28,2.4a46.641,46.641,0,0,1-2.23,8.74,51.935,51.935,0,0,1-2.52,5.79,60.261,60.261,0,0,1-3.79,6.26,81.569,81.569,0,0,1-11.25,12.79l-.36.34-.07-.49a25.5,25.5,0,0,0-3.5-9.85,26.714,26.714,0,0,0-4.35-5.31,6.684,6.684,0,0,0-2.61-1.85,5.54,5.54,0,0,0-3.07.13l-.86.25.6-.66,19.37-21,5.67-6.1,1.54-1.62.4-.41C443.38,1281.368,443.38,1281.318,443.38,1281.328Z" fill="#0a4b6e"/>
      <path id="Trazado_114905" data-name="Trazado 114905" d="M441.38,1316.658a.431.431,0,0,1-.1.21l-.35.59c-.31.51-.79,1.27-1.44,2.22a87.316,87.316,0,0,1-6.05,7.77c-.68.79-1.41,1.61-2.2,2.45a29.332,29.332,0,0,0-2.33,2.7c-1.52,2-3,4.15-4.65,6.47-3.19,4.65-6.65,9.88-10.28,15.5l-.24.36-.2-.38c-1.83-3.42-3.72-7-5.75-10.54s-4-6.94-6.18-10.11-4.42-6.08-6.48-8.95a76.854,76.854,0,0,1-5.44-8.42,33.276,33.276,0,0,1-3.21-8.13,29.547,29.547,0,0,1-.38-12.57,23.3,23.3,0,0,1,1.25-4.46,1.184,1.184,0,0,1-.06.3l-.25.86a32.925,32.925,0,0,0-.74,3.33,30.2,30.2,0,0,0,.54,12.46,33.351,33.351,0,0,0,3.23,8,78.3,78.3,0,0,0,5.45,8.34c2.07,2.85,4.33,5.77,6.51,8.95s4.2,6.59,6.21,10.13,3.92,7.14,5.75,10.56h-.44c3.64-5.61,7.12-10.83,10.35-15.47,1.62-2.32,3.16-4.5,4.7-6.46a28.633,28.633,0,0,1,2.38-2.7c.79-.83,1.52-1.65,2.22-2.43,2.76-3.13,4.8-5.79,6.14-7.66.68-.93,1.18-1.66,1.52-2.16l.38-.57Z" fill="#0a4b6e"/>
      <path id="Trazado_114906" data-name="Trazado 114906" d="M364.56,1404l-1.34-33.75,1-7.57s10.55,2.87,40.49,2.87a353.485,353.485,0,0,0,67.67-7.1l3.16,6.25h0l-10.55,79.42H368.81Z" fill="#fff"/>
      <path id="Trazado_114907" data-name="Trazado 114907" d="M337.82,1407.188l13.85,1.57,5.25-7.29,7.19-4.4.45,6.95a80.349,80.349,0,0,0,9.28,3.11c3.49.72,7.69,1.06,9.75,2.63,1.51,1.16,1.49,4.76-.58,5.4l-5.09,1.11s17.53.87,19,1c3.57.22,5.27,2.42,4.21,5-.64,1.6-3.16,2.13-4,2.45l-.8.32s3.71.71,3.82,3c.14,2.58-1.38,3.31-3,3.64-1,.21-1.45.22-5.11.7s-9.07.63-9.07.63a2.07,2.07,0,0,1,.274,2.914c-.024.029-.049.058-.074.086-1.3,1.57-11.16,2.13-11.16,2.13l-8.33,1.71a32.152,32.152,0,0,1-15.07-.5h0l-6.82-3.29-21.08-1.51s-.13-7.13,2.13-12.19C328.16,1410.488,337.82,1407.188,337.82,1407.188Z" fill="#ffbe9d"/>
      <path id="Trazado_114908" data-name="Trazado 114908" d="M381.08,1415.488a23.87,23.87,0,0,1-5.55.86,21.485,21.485,0,0,1-5.63,0,52.129,52.129,0,0,1,5.58-.52A42.622,42.622,0,0,1,381.08,1415.488Z" fill="#eb996e"/>
      <path id="Trazado_114909" data-name="Trazado 114909" d="M396.38,1425a22.581,22.581,0,0,1-3.38.07c-2.08,0-5-.09-8.14-.2s-6.06-.23-8.15-.35a19.715,19.715,0,0,1-3.36-.31,21.789,21.789,0,0,1,3.38-.06c2.08,0,5,.09,8.14.2s6.06.23,8.15.35A21.88,21.88,0,0,1,396.38,1425Z" fill="#eb996e"/>
      <path id="Trazado_114910" data-name="Trazado 114910" d="M385.88,1432.868a12.6,12.6,0,0,1-2.77.13c-1.71,0-4.08-.08-6.68-.23l-6.67-.38a18.07,18.07,0,0,1-2.76-.23,12.9,12.9,0,0,1,2.77-.14c1.71,0,4.08.09,6.69.23l6.66.39A15.3,15.3,0,0,1,385.88,1432.868Z" fill="#eb996e"/>
      <path id="Trazado_114911" data-name="Trazado 114911" d="M453.02,1415.178s-1.59-4.11,1.83-5.3l15.53-5.47.23-3.13,7.12.74a20.506,20.506,0,0,1,5.13-2.27c2.22-.47,3.59-.3,5.64,2.61a69.066,69.066,0,0,0,7,7.52l6.65.68s7.31,6.49,8.95,14.9a60.371,60.371,0,0,1,.86,8.56c-1,2.06-4.79,2.84-9.63,3l-5.64.15a3.481,3.481,0,0,1-3.13,3.28c-2.27.34-8.52-.38-10.29.09a34.152,34.152,0,0,1-5.54,0c-4.67-.8-17.83-2-18.13-6.93l-14.21.29a4.761,4.761,0,0,1-4.4-2.56,2.246,2.246,0,0,1-.23-1.77,3.866,3.866,0,0,1,.61-1.08,4.275,4.275,0,0,1,3.01-1.49l19-2.12h0a1.08,1.08,0,0,0-.77-1.94c-6.69.87-19.17,2.4-20.42,1.94-1.71-.64-2.42-3-2.42-4.16,0-1.81,3.1-3.3,6.27-3.92C450.03,1416,453.02,1415.178,453.02,1415.178Z" fill="#ffbe9d"/>
      <path id="Trazado_114912" data-name="Trazado 114912" d="M472.53,1410.618a22.64,22.64,0,0,1-3.34.93l-8.12,1.94-8.12,1.93a25.14,25.14,0,0,1-3.39.71,3.578,3.578,0,0,1,.87-.34c.56-.19,1.39-.44,2.42-.73,2.06-.58,4.92-1.32,8.1-2.07s6.06-1.38,8.16-1.8A22.475,22.475,0,0,1,472.53,1410.618Z" fill="#eb996e"/>
      <path id="Trazado_114913" data-name="Trazado 114913" d="M478.38,1433a85.856,85.856,0,0,1-9.4.57,85.75,85.75,0,0,1-9.43.06,167.51,167.51,0,0,1,18.83-.63Z" fill="#eb996e"/>
      <path id="Trazado_114914" data-name="Trazado 114914" d="M479.84,1401.308a63.776,63.776,0,0,1-11,3.72A65.944,65.944,0,0,1,479.84,1401.308Z" fill="#eb996e"/>
      <path id="Trazado_114915" data-name="Trazado 114915" d="M509.25,1440.848a8.028,8.028,0,0,1,.72-1.27c.24-.4.54-.88.84-1.46a8.266,8.266,0,0,0,.68-2.1c.72-3.23.37-7.95-1.31-12.73a32.241,32.241,0,0,0-6.61-11.06c-2.24-2.46-3.95-3.65-3.89-3.73a7.214,7.214,0,0,1,1.21.81,28.054,28.054,0,0,1,2.95,2.67,30.669,30.669,0,0,1,6.83,11.14c1.71,4.86,2,9.68,1.18,13a8.367,8.367,0,0,1-.78,2.15c-.34.59-.67,1.06-.93,1.45A8.223,8.223,0,0,1,509.25,1440.848Z" fill="#0a4b6e"/>
      <path id="Trazado_114916" data-name="Trazado 114916" d="M470.38,1404.408a6.6,6.6,0,0,1,.06-.73c.06-.48.14-1.2.24-2.1.23-1.87.55-4.58,1-8,.87-6.95,2.11-16.87,3.61-28.88l.26.23c-7.38,1.55-15.62,3.12-24.48,4.62-4.44.75-9,1.46-13.75,2.1s-9.59,1.2-14.57,1.47c-5.7.29-11.28.16-16.68,0s-10.63-.45-15.65-.74c-10-.62-19.2-1.33-27.14-2l.22-.21c.35,10.41.64,18.89.84,24.79.08,2.92.15,5.2.2,6.78v2.37a4.557,4.557,0,0,0-.06-.6c-.06-.4-.05-1-.09-1.77-.07-1.58-.17-3.86-.31-6.77-.24-5.9-.58-14.38-1-24.78v-.23h.23c7.93.68,17.1,1.37,27.13,2,5,.29,10.24.55,15.64.72s11,.29,16.63,0c5-.27,9.81-.83,14.53-1.46s9.3-1.34,13.73-2.08c8.86-1.48,17.1-3,24.48-4.54l.3-.06v.29c-1.58,12-2.88,21.92-3.8,28.86-.46,3.44-.83,6.15-1.08,8l-.3,2.1C470.45,1404.168,470.38,1404.408,470.38,1404.408Z" fill="#0a4b6e"/>
      <path id="Trazado_114917" data-name="Trazado 114917" d="M475.25,1363.428l-.28.08-.83.19-3.2.69c-2.78.61-6.83,1.38-11.84,2.25-2.51.41-5.26.88-8.22,1.29s-6.13.83-9.47,1.23c-6.69.75-14.06,1.39-21.82,1.73s-15.16.33-21.89.15c-3.36-.12-6.56-.23-9.54-.44s-5.77-.4-8.3-.61-4.82-.47-6.83-.67-3.74-.42-5.15-.61l-3.24-.44-.85-.13a1.029,1.029,0,0,1-.28-.06h.29l.85.08,3.25.34c1.42.15,3.14.35,5.16.52s4.29.43,6.83.6,5.31.41,8.29.54,6.18.28,9.54.39c6.71.15,14.1.13,21.85-.19s15.11-1,21.79-1.69c3.33-.38,6.5-.75,9.46-1.18s5.71-.84,8.22-1.23c5-.81,9.07-1.53,11.86-2.07l3.22-.6.84-.14A1.044,1.044,0,0,1,475.25,1363.428Z" fill="#0a4b6e"/>
      <path id="Trazado_114918" data-name="Trazado 114918" d="M475.28,1360.358a2.541,2.541,0,0,1-.26.13l-.78.33c-.69.3-1.72.69-3.07,1.16a73.666,73.666,0,0,1-11.69,2.87,166.3,166.3,0,0,1-17.76,1.79c-6.71.38-14.08.78-21.82,1.08a346.185,346.185,0,0,1-39.7-.47c-5.07-.37-9.15-.84-12-1.19l-3.24-.45-.84-.13-.29-.06a.883.883,0,0,1,.29,0l.85.07,3.25.36c2.82.28,6.91.7,12,1a372.732,372.732,0,0,0,39.65.32c7.74-.3,15.11-.68,21.81-1a173.545,173.545,0,0,0,17.7-1.68,80.195,80.195,0,0,0,11.69-2.7c1.35-.44,2.39-.8,3.09-1.07l.8-.28A.751.751,0,0,1,475.28,1360.358Z" fill="#0a4b6e"/>
      <path id="Trazado_114919" data-name="Trazado 114919" d="M323.08,1440.568a1.685,1.685,0,0,1-.27-.32,9.267,9.267,0,0,1-.65-1,12.449,12.449,0,0,1-1.51-4.14,18.44,18.44,0,0,1,.08-6.53,33.284,33.284,0,0,1,2.46-7.6,27.234,27.234,0,0,1,9.37-10.92,28.751,28.751,0,0,1,3.78-2.24c.46-.24.84-.39,1.09-.5s.38-.15.39-.13a14.229,14.229,0,0,1-1.38.81,38.667,38.667,0,0,0-3.67,2.36,28.07,28.07,0,0,0-9.11,10.83,34.3,34.3,0,0,0-2.45,7.48,18.834,18.834,0,0,0-.2,6.38,13.627,13.627,0,0,0,1.32,4.1C322.8,1440.058,323.12,1440.538,323.08,1440.568Z" fill="#0a4b6e"/>
    </g>
    <g id="freepik--Gavel--inject-51">
      <rect id="Rectángulo_28709" data-name="Rectángulo 28709" width="61.14" height="4.82" transform="translate(583.68 1435.738)" fill="#0a4b6e"/>
      <path id="Trazado_114920" data-name="Trazado 114920" d="M642.52,1435.738H586.26a5.279,5.279,0,0,1,5.27-5.29h45.7a5.29,5.29,0,0,1,5.29,5.29Z" fill="#455a64"/>
      <path id="Trazado_114921" data-name="Trazado 114921" d="M600,1436.278a12.462,12.462,0,0,0-2.41.11,21.589,21.589,0,0,0-5.52,1.87,23.684,23.684,0,0,1-5.55,2,9.322,9.322,0,0,1-1.78.15h-.65a5.446,5.446,0,0,1,.65,0,10.223,10.223,0,0,0,1.76-.21,25.661,25.661,0,0,0,5.48-2,20.432,20.432,0,0,1,5.59-1.83A6.914,6.914,0,0,1,600,1436.278Z" fill="#455a64"/>
      <path id="Trazado_114922" data-name="Trazado 114922" d="M593.95,1440.588a9.8,9.8,0,0,1,1.09-.89,15.466,15.466,0,0,1,3.36-1.86,16.779,16.779,0,0,1,5.56-1.21,16.383,16.383,0,0,1,5.12.57,5.4,5.4,0,0,1,.88.3,1.07,1.07,0,0,1,.64.74.792.792,0,0,1-.58.78,6.461,6.461,0,0,1-.88.27q-.881.24-1.74.42a32.331,32.331,0,0,1-3.33.52,30.385,30.385,0,0,1-5.69,0,1.081,1.081,0,0,1-1-.56.558.558,0,0,1,.08-.56,1.38,1.38,0,0,1,.39-.34,4.993,4.993,0,0,1,1.55-.6,3.816,3.816,0,0,1,1.4-.09h-.36a5.608,5.608,0,0,0-1,.14,5.453,5.453,0,0,0-1.5.63c-.26.15-.55.43-.41.75a1,1,0,0,0,.91.47,33.227,33.227,0,0,0,5.66-.1,32.2,32.2,0,0,0,3.31-.53c.57-.12,1.14-.26,1.72-.42a7.882,7.882,0,0,0,.86-.26c.26-.1.49-.31.45-.57a.892.892,0,0,0-.53-.58,5.1,5.1,0,0,0-.84-.28,15.119,15.119,0,0,0-1.72-.38,15.8,15.8,0,0,0-3.33-.2,17.087,17.087,0,0,0-5.51,1.15,16.179,16.179,0,0,0-3.37,1.79c-.38.24-.65.48-.84.62Z" fill="#455a64"/>
      <path id="Trazado_114923" data-name="Trazado 114923" d="M623.17,1435.7c0,.05-.75,0-2,.18a11.092,11.092,0,0,0-4.34,1.71,23.022,23.022,0,0,1-4,2.56,5.146,5.146,0,0,1-1.4.37,2.038,2.038,0,0,1-.53,0,7.7,7.7,0,0,0,1.87-.53,26.109,26.109,0,0,0,3.95-2.59,10.527,10.527,0,0,1,4.44-1.68,9.123,9.123,0,0,1,1.45-.08A2.515,2.515,0,0,1,623.17,1435.7Z" fill="#455a64"/>
      <path id="Trazado_114924" data-name="Trazado 114924" d="M644.69,1437.558a2.582,2.582,0,0,1-1,.36,6.131,6.131,0,0,1-2.78-.22,21.012,21.012,0,0,0-4-.83c-1.54-.15-3.25-.16-5-.21a30.078,30.078,0,0,0-5,.25,13.967,13.967,0,0,0-3.93,1.14,10.375,10.375,0,0,0-2.33,1.47c-.5.43-.74.7-.76.69a5.727,5.727,0,0,1,.71-.75,9.457,9.457,0,0,1,2.32-1.54,13.661,13.661,0,0,1,4-1.2,29.112,29.112,0,0,1,5.06-.27c1.8.05,3.51.07,5.06.23a19.706,19.706,0,0,1,4.05.88,6.21,6.21,0,0,0,2.72.28A6.661,6.661,0,0,0,644.69,1437.558Z" fill="#455a64"/>
      <path id="Trazado_114925" data-name="Trazado 114925" d="M644.62,1439.788a4.687,4.687,0,0,1-.71.17,9.434,9.434,0,0,1-2,.1,36.782,36.782,0,0,1-6.42-1.24,15.278,15.278,0,0,0-3.55-.44,8.748,8.748,0,0,0-2.85.48,6.98,6.98,0,0,0-2.29,1.38,3.3,3.3,0,0,1,.51-.52,6.1,6.1,0,0,1,1.73-1,8.6,8.6,0,0,1,2.9-.54,15.964,15.964,0,0,1,3.59.43,41.635,41.635,0,0,0,6.39,1.31,11.716,11.716,0,0,0,2,0A5.918,5.918,0,0,1,644.62,1439.788Z" fill="#455a64"/>
      <path id="Trazado_114926" data-name="Trazado 114926" d="M536.55,1437.708h0a4.581,4.581,0,0,0,5.86,2.66l77.17-28.58-3.87-7.63-76.44,27.61a4.58,4.58,0,0,0-2.748,5.865Z" fill="#455a64"/>
      <path id="Trazado_114927" data-name="Trazado 114927" d="M609.71,1391.638l2.91,9.48L642.28,1391l-2.6-9.53a5.58,5.58,0,0,0-3.31-3.71c-3.14-1.26-7.85-2-15,.19a19.186,19.186,0,0,0-11.25,9.3A5.488,5.488,0,0,0,609.71,1391.638Z" fill="#455a64"/>
      <path id="Trazado_114928" data-name="Trazado 114928" d="M642.24,1390.538c1.06,3-4.72,7.73-12.9,10.65s-15.67,2.89-16.72-.07,4.71-7.73,12.89-10.65S641.18,1387.578,642.24,1390.538Z" fill="#0a4b6e"/>
      <path id="Trazado_114929" data-name="Trazado 114929" d="M642.82,1394.9s-3.38-6.3-16-2c-10.26,3.53-11.19,8.75-11.18,10.56a3.559,3.559,0,0,0,.05.66l2.4,6.76a5.179,5.179,0,0,0,1.62,2.29l.48.39a5.22,5.22,0,0,0,5.34.75l16.85-7.19a5.212,5.212,0,0,0,3.16-4.78h0a5.211,5.211,0,0,0-.43-2.06Z" fill="#455a64"/>
      <path id="Trazado_114930" data-name="Trazado 114930" d="M622.22,1427.088l-3.63-10.4s-1.58-8.13,13-12.68,17.79,5.19,17.79,5.19l3,8.73Z" fill="#455a64"/>
      <path id="Trazado_114931" data-name="Trazado 114931" d="M652.2,1417.558c1.18,3.72-4.57,8.86-12.85,11.5s-16,1.75-17.13-2,4.57-8.86,12.85-11.49S651.02,1413.848,652.2,1417.558Z" fill="#0a4b6e"/>
      <path id="Trazado_114932" data-name="Trazado 114932" d="M645.75,1404.768a14.862,14.862,0,0,0-4.62-1.55c-3-.48-7.23.09-11.62,1.53a20.533,20.533,0,0,0-5.74,2.95,13.463,13.463,0,0,0-3.51,3.9,12.229,12.229,0,0,0-1.53,4.6v-.35a8.567,8.567,0,0,1,.07-1,10.176,10.176,0,0,1,1.18-3.46,13.282,13.282,0,0,1,3.54-4.09,20,20,0,0,1,5.87-3.06c4.45-1.47,8.78-2,11.84-1.4a11.156,11.156,0,0,1,3.45,1.16,5.965,5.965,0,0,1,.84.53C645.67,1404.678,645.76,1404.748,645.75,1404.768Z" fill="#0a4b6e"/>
      <path id="Trazado_114933" data-name="Trazado 114933" d="M618.76,1412a17.907,17.907,0,0,1-1.82-3.88,18.1,18.1,0,0,1-1.35-4.07,17.905,17.905,0,0,1,1.79,3.85A17.044,17.044,0,0,1,618.76,1412Z" fill="#0a4b6e"/>
      <path id="Trazado_114934" data-name="Trazado 114934" d="M557.05,1425.518l-.83.44a14.777,14.777,0,0,0-2.16,1.37,56.1,56.1,0,0,0-6.08,5.85,19.418,19.418,0,0,1-6.88,4.89,9.365,9.365,0,0,1-2.51.56,6.711,6.711,0,0,1-.94,0,6.856,6.856,0,0,0,.93-.09,10.117,10.117,0,0,0,2.47-.62,20.021,20.021,0,0,0,6.79-4.89,49.131,49.131,0,0,1,6.14-5.83A11.853,11.853,0,0,1,557.05,1425.518Z" fill="#0a4b6e"/>
      <path id="Trazado_114935" data-name="Trazado 114935" d="M575.46,1424.328s-.27.08-.78.2-1.26.32-2.21.59a63.973,63.973,0,0,0-7.95,2.77,1.638,1.638,0,0,0-.9.91.811.811,0,0,0,.434,1.06l.026.01a2.8,2.8,0,0,0,1.42-.1l1.5-.35c2-.5,4.18-1.13,6.4-1.9a69.323,69.323,0,0,0,6.82-2.8q1.74-.831,3.48-1.77a5.859,5.859,0,0,0,1.56-1.18,1.772,1.772,0,0,0,.5-1.75,2,2,0,0,0-1.4-1.21,4.194,4.194,0,0,0-1.93,0c-1.28.3-2.55.64-3.78,1-2.48.66-4.85,1.36-7.07,2.14a41.929,41.929,0,0,0-11.1,5.62,27.5,27.5,0,0,0-6,5.87c-.59.8-1,1.45-1.27,1.9s-.41.69-.41.69a18.355,18.355,0,0,1,1.58-2.63,27.133,27.133,0,0,1,6-5.94,41.962,41.962,0,0,1,11.13-5.68c2.22-.79,4.6-1.49,7.07-2.16,1.24-.33,2.5-.67,3.79-1a4.332,4.332,0,0,1,2,0,2.22,2.22,0,0,1,1.55,1.34,2,2,0,0,1-.54,2,6.134,6.134,0,0,1-1.62,1.22c-1.17.63-2.33,1.22-3.49,1.77a67.433,67.433,0,0,1-6.85,2.8,65.809,65.809,0,0,1-6.42,1.88l-1.5.35a3.012,3.012,0,0,1-1.51.09.89.89,0,0,1-.56-.53,1.105,1.105,0,0,1,0-.74,1.744,1.744,0,0,1,1-1,61.467,61.467,0,0,1,8-2.72C574.38,1424.528,575.46,1424.328,575.46,1424.328Z" fill="#0a4b6e"/>
      <path id="Trazado_114936" data-name="Trazado 114936" d="M598.29,1410.3a11.217,11.217,0,0,0-1.65,1.61,23.315,23.315,0,0,0-2.78,4.85,15.945,15.945,0,0,1-3.07,4.7,5.858,5.858,0,0,1-1.92,1.32,10.641,10.641,0,0,0,1.82-1.42,17.275,17.275,0,0,0,3-4.7,21.975,21.975,0,0,1,2.85-4.84A6.4,6.4,0,0,1,598.29,1410.3Z" fill="#0a4b6e"/>
      <path id="Trazado_114937" data-name="Trazado 114937" d="M596.38,1420.268a16.618,16.618,0,0,0,1.66-1.26,14.187,14.187,0,0,0,4.77-8.57c.19-1.27.15-2.07.2-2.07a4.373,4.373,0,0,1,0,.56,9.329,9.329,0,0,1-.09,1.53,13.416,13.416,0,0,1-4.82,8.66,8.909,8.909,0,0,1-1.25.88A2.956,2.956,0,0,1,596.38,1420.268Z" fill="#0a4b6e"/>
      <path id="Trazado_114938" data-name="Trazado 114938" d="M616.06,1408.678a3.83,3.83,0,0,1-.69.1,15.86,15.86,0,0,0-1.85.32,17.3,17.3,0,0,0-10.14,6.67,15.819,15.819,0,0,0-1,1.58q-.165.3-.36.59a12.158,12.158,0,0,1,1.27-2.25,16.625,16.625,0,0,1,10.2-6.69A12.7,12.7,0,0,1,616.06,1408.678Z" fill="#0a4b6e"/>
      <path id="Trazado_114939" data-name="Trazado 114939" d="M633.83,1399.528s-.17.05-.49.11l-1.43.28-2.25.43-1.4.26a7.981,7.981,0,0,0-1.55.36c-.5.17-1.05.61-.9,1.2a1.4,1.4,0,0,0,1.44.87,26.453,26.453,0,0,0,4.17-.47,29.558,29.558,0,0,0,4.49-1.21c.73-.26,1.61-.52,1.92-1.27a1.892,1.892,0,0,0-.77-2.1,4,4,0,0,0-2.36-.56c-.83,0-1.65.1-2.46.18a30.7,30.7,0,0,0-4.58.76,16.239,16.239,0,0,0-6.95,3.49,11.68,11.68,0,0,0-3.08,4.25,11.122,11.122,0,0,0-.44,1.38c-.07.32-.12.49-.12.49a7.838,7.838,0,0,1,.48-1.9,11.481,11.481,0,0,1,3.06-4.33,16.213,16.213,0,0,1,7-3.56,29.873,29.873,0,0,1,4.61-.79c.81-.07,1.63-.15,2.47-.17a4.13,4.13,0,0,1,2.5.6,2.1,2.1,0,0,1,.84,2.34,1.948,1.948,0,0,1-.91.92,8.521,8.521,0,0,1-1.14.47,30.444,30.444,0,0,1-4.52,1.2,26.812,26.812,0,0,1-4.21.45,1.55,1.55,0,0,1-1.59-1,1,1,0,0,1,.24-.91,1.989,1.989,0,0,1,.76-.47,8.029,8.029,0,0,1,1.57-.35l1.41-.25,2.26-.39,1.43-.24Z" fill="#0a4b6e"/>
      <path id="Trazado_114940" data-name="Trazado 114940" d="M643.43,1396.228a7.209,7.209,0,0,1-.66-.41,15.345,15.345,0,0,0-1.86-1,19.21,19.21,0,0,0-6.73-1.5,40.982,40.982,0,0,0-6.94.36l-2.1.25-.57.07h0l.57-.11,2.09-.32a37.521,37.521,0,0,1,7-.42,18.236,18.236,0,0,1,6.78,1.58A10.46,10.46,0,0,1,643.43,1396.228Z" fill="#0a4b6e"/>
      <path id="Trazado_114941" data-name="Trazado 114941" d="M640.47,1385.878a7.238,7.238,0,0,0-.95-.86,8.336,8.336,0,0,0-3.14-1.49,11.381,11.381,0,0,0-5.14,0,26.952,26.952,0,0,0-6,2.21,57.408,57.408,0,0,1-5.86,2.58,14.418,14.418,0,0,1-5.16.89,9.4,9.4,0,0,1-3.45-.69,5.6,5.6,0,0,1-1.14-.6l.3.14a8.085,8.085,0,0,0,.87.39,9.766,9.766,0,0,0,3.43.61,14.52,14.52,0,0,0,5.08-.92,58.476,58.476,0,0,0,5.84-2.59,26.9,26.9,0,0,1,6-2.21,11.337,11.337,0,0,1,5.21.05,8.113,8.113,0,0,1,3.16,1.56A5.128,5.128,0,0,1,640.47,1385.878Z" fill="#0a4b6e"/>
      <path id="Trazado_114942" data-name="Trazado 114942" d="M630.66,1377.278a17.229,17.229,0,0,1-2.13,2.2,23.188,23.188,0,0,1-13.39,5.69,17.57,17.57,0,0,1-3.06,0,.543.543,0,0,1,.22,0h.6a21.3,21.3,0,0,0,2.23-.12,24.225,24.225,0,0,0,13.31-5.65c.71-.61,1.27-1.14,1.63-1.52l.43-.43C630.6,1377.318,630.65,1377.268,630.66,1377.278Z" fill="#0a4b6e"/>
      <path id="Trazado_114943" data-name="Trazado 114943" d="M639.99,1387.9s-.37-.24-1.07-.6a12.877,12.877,0,0,0-3.14-1.1,16.751,16.751,0,0,0-4.92-.24,27.406,27.406,0,0,0-5.9,1.31c-2.05.67-3.95,1.44-5.7,2.1s-3.35,1.21-4.72,1.59a26.265,26.265,0,0,1-3.27.71,10.153,10.153,0,0,1-1.23.11h.31l.9-.14a28.1,28.1,0,0,0,3.25-.77c1.36-.39,2.94-1,4.69-1.63s3.65-1.44,5.71-2.12a26.214,26.214,0,0,1,6-1.3,16.216,16.216,0,0,1,5,.29,11.758,11.758,0,0,1,3.15,1.17A6.738,6.738,0,0,1,639.99,1387.9Z" fill="#0a4b6e"/>
      <path id="Trazado_114944" data-name="Trazado 114944" d="M649.7,1410.3l-.5-.37a10.483,10.483,0,0,0-1.53-.94,10.67,10.67,0,0,0-6.39-.86,19.842,19.842,0,0,0-8.75,4.07,56,56,0,0,0-4.36,3.77l-2.22,2.1a7.963,7.963,0,0,1-2.61,1.79,3.622,3.622,0,0,1-3.13-.19,3,3,0,0,1-1.29-2.73,6.441,6.441,0,0,1,.81-2.85,10.854,10.854,0,0,1,6-5.16,2.8,2.8,0,0,1,2.37.12,1.331,1.331,0,0,1,.55,1,2.262,2.262,0,0,1-.25,1.07,9.1,9.1,0,0,1-5.11,4,1.734,1.734,0,0,1-1,.08.618.618,0,0,1-.44-.59.487.487,0,0,1,.18-.43.318.318,0,0,1,.15-.05.419.419,0,0,0-.29.48.57.57,0,0,0,.42.53,1.673,1.673,0,0,0,1-.1,9.253,9.253,0,0,0,2.51-1.27,8.376,8.376,0,0,0,2.49-2.72,1.945,1.945,0,0,0,.23-1,1.114,1.114,0,0,0-.49-.88,2.64,2.64,0,0,0-2.21-.09,10.743,10.743,0,0,0-4.3,2.82,8.188,8.188,0,0,0-2.41,5,2.809,2.809,0,0,0,1.2,2.54,3.362,3.362,0,0,0,2.94.17,7.838,7.838,0,0,0,2.55-1.74l2.22-2.1a52.858,52.858,0,0,1,4.39-3.77,19.978,19.978,0,0,1,8.83-4.07,10.7,10.7,0,0,1,6.46.94,10.518,10.518,0,0,1,1.51,1C649.54,1410.148,649.7,1410.3,649.7,1410.3Z" fill="#0a4b6e"/>
      <path id="Trazado_114945" data-name="Trazado 114945" d="M650,1412.848h-.19l-.54-.18a13.434,13.434,0,0,0-2-.52,16.247,16.247,0,0,0-3-.3,18.906,18.906,0,0,0-3.69.39,18.3,18.3,0,0,0-3.52,1.21,16.557,16.557,0,0,0-2.62,1.55,14.766,14.766,0,0,0-1.58,1.31l-.41.39-.15.12a11.7,11.7,0,0,1,2-1.94,15.421,15.421,0,0,1,2.62-1.6,16.127,16.127,0,0,1,7.31-1.62,14.763,14.763,0,0,1,3.05.35A12.12,12.12,0,0,1,650,1412.848Z" fill="#0a4b6e"/>
      <path id="Trazado_114946" data-name="Trazado 114946" d="M629.05,1404.938a3.8,3.8,0,0,1,.66.11c.41.08,1,.19,1.77.31a34.013,34.013,0,0,0,11.85-.12c.75-.13,1.35-.25,1.77-.35a4.475,4.475,0,0,1,.65-.12,6.074,6.074,0,0,1-.63.2q-.615.18-1.77.42a31.249,31.249,0,0,1-5.97.61,31.83,31.83,0,0,1-5.95-.51c-.75-.14-1.36-.27-1.77-.38A4.923,4.923,0,0,1,629.05,1404.938Z" fill="#0a4b6e"/>
    </g>
    <g id="freepik--Table--inject-51">
      <path id="Trazado_114947" data-name="Trazado 114947" d="M653.46,1440.568c0,.14-99.44.26-222.07.26s-222.09-.12-222.09-.26,99.42-.26,222.09-.26S653.46,1440.418,653.46,1440.568Z" fill="#0a4b6e"/>
    </g>
  </g>
</svg>
