<svg xmlns="http://www.w3.org/2000/svg" width="120" height="120" viewBox="0 0 120 120">
  <g id="Grupo_55222" data-name="Grupo 55222" transform="translate(-203 -1455)">
    <g id="Icon" transform="translate(211 1463)">
      <rect id="Rectángulo_29022" data-name="Rectángulo 29022" width="120" height="120" transform="translate(-8 -8)" fill="none"/>
      <circle id="Base" cx="51.652" cy="51.652" r="51.652" transform="translate(0 0)" fill="#ea3065"/>
    </g>
    <g id="Grupo_53076" data-name="Grupo 53076" transform="translate(114.697 1646)">
      <g id="Grupo_53075" data-name="Grupo 53075" transform="translate(119.304 -160)">
        <g id="Grupo_53048" data-name="Grupo 53048" transform="translate(6.305 18.915)">
          <g id="Grupo_53047" data-name="Grupo 53047">
            <path id="Trazado_114950" data-name="Trazado 114950" d="M75.864,168.338H56.948a.844.844,0,0,0,0,1.689H75.864a.844.844,0,0,0,0-1.689Z" transform="translate(-56.104 -168.338)" fill="#fff"/>
          </g>
        </g>
        <g id="Grupo_53050" data-name="Grupo 53050" transform="translate(6.305 26.121)">
          <g id="Grupo_53049" data-name="Grupo 53049">
            <path id="Trazado_114951" data-name="Trazado 114951" d="M66.856,232.456H56.948a.844.844,0,1,0,0,1.689h9.908a.844.844,0,1,0,0-1.689Z" transform="translate(-56.104 -232.456)" fill="#fff"/>
          </g>
        </g>
        <g id="Grupo_53052" data-name="Grupo 53052" transform="translate(6.305 33.327)">
          <g id="Grupo_53051" data-name="Grupo 53051">
            <path id="Trazado_114952" data-name="Trazado 114952" d="M63.254,296.575H56.948a.844.844,0,1,0,0,1.689h6.305a.844.844,0,1,0,0-1.689Z" transform="translate(-56.104 -296.575)" fill="#fff"/>
          </g>
        </g>
        <g id="Grupo_53054" data-name="Grupo 53054" transform="translate(15.312 33.327)">
          <g id="Grupo_53053" data-name="Grupo 53053">
            <path id="Trazado_114953" data-name="Trazado 114953" d="M139.573,296.575H137.1a.844.844,0,1,0,0,1.689h2.477a.844.844,0,1,0,0-1.689Z" transform="translate(-136.252 -296.575)" fill="#fff"/>
          </g>
        </g>
        <g id="Grupo_53056" data-name="Grupo 53056" transform="translate(12.61 8.107)">
          <g id="Grupo_53055" data-name="Grupo 53055">
            <path id="Trazado_114954" data-name="Trazado 114954" d="M127.464,72.159H113.052a.844.844,0,1,0,0,1.689h14.412a.844.844,0,1,0,0-1.689Z" transform="translate(-112.208 -72.159)" fill="#fff"/>
          </g>
        </g>
        <g id="Grupo_53058" data-name="Grupo 53058" transform="translate(11.71 44.136)">
          <g id="Grupo_53057" data-name="Grupo 53057">
            <path id="Trazado_114955" data-name="Trazado 114955" d="M112.243,392.754h-7.206a.844.844,0,1,0,0,1.689h7.206a.844.844,0,1,0,0-1.689Z" transform="translate(-104.193 -392.754)" fill="#fff"/>
          </g>
        </g>
        <g id="Grupo_53060" data-name="Grupo 53060" transform="translate(21.618 44.136)">
          <g id="Grupo_53059" data-name="Grupo 53059">
            <path id="Trazado_114956" data-name="Trazado 114956" d="M198.6,392.754h-5.4a.844.844,0,1,0,0,1.689h5.4a.844.844,0,0,0,0-1.689Z" transform="translate(-192.356 -392.754)" fill="#fff"/>
          </g>
        </g>
        <g id="Grupo_53062" data-name="Grupo 53062" transform="translate(6.305 13.511)">
          <g id="Grupo_53061" data-name="Grupo 53061">
            <path id="Trazado_114957" data-name="Trazado 114957" d="M60.551,120.248h-3.6a.844.844,0,1,0,0,1.689h3.6a.844.844,0,0,0,0-1.689Z" transform="translate(-56.104 -120.248)" fill="#fff"/>
          </g>
        </g>
        <g id="Grupo_53064" data-name="Grupo 53064" transform="translate(13.511 13.511)">
          <g id="Grupo_53063" data-name="Grupo 53063">
            <path id="Trazado_114958" data-name="Trazado 114958" d="M130.074,120.248h-9.007a.844.844,0,0,0,0,1.689h9.007a.844.844,0,0,0,0-1.689Z" transform="translate(-120.222 -120.248)" fill="#fff"/>
          </g>
        </g>
        <g id="Grupo_53066" data-name="Grupo 53066" transform="translate(27.923 18.915)">
          <g id="Grupo_53065" data-name="Grupo 53065">
            <path id="Trazado_114959" data-name="Trazado 114959" d="M253.021,168.338h-3.715a.844.844,0,1,0,0,1.689h3.715a.844.844,0,0,0,0-1.689Z" transform="translate(-248.461 -168.338)" fill="#fff"/>
          </g>
        </g>
        <g id="Grupo_53068" data-name="Grupo 53068">
          <g id="Grupo_53067" data-name="Grupo 53067">
            <path id="Trazado_114960" data-name="Trazado 114960" d="M57.13,5.631a4.444,4.444,0,0,0-7.177-1.262L48.639,5.682,46.689,3.732a.845.845,0,0,0-1.194,0L41.321,7.905V.87a.844.844,0,0,0-.844-.844H.844A.844.844,0,0,0,0,.87V46.808a.852.852,0,0,0,.247.6l9.908,9.908a.852.852,0,0,0,.6.247H40.477a.844.844,0,0,0,.844-.844V43.655a.844.844,0,0,0-1.689,0V55.871H11.6V46.808a.844.844,0,0,0-.844-.844H1.689V1.715H39.632V9.594L35.3,13.922A.844.844,0,0,0,36.5,15.117l3.134-3.134v2.286a.84.84,0,0,0,.075.346L28.174,26.147H19.76a.844.844,0,1,0,0,1.689h6.726L20.018,34.3a.851.851,0,0,0-.191.294l-2.293,5.961H15.256a.844.844,0,1,0,0,1.689h1.629l-.222.577a.87.87,0,0,0,.171.953.852.852,0,0,0,.9.191l8.28-3.184a.852.852,0,0,0,.294-.191L39.632,27.269v12.39a.844.844,0,1,0,1.689,0V25.753a.854.854,0,0,0-.015-.158L56.243,10.658A4.488,4.488,0,0,0,57.13,5.631ZM9.908,47.652v7.025L2.883,47.652ZM41.321,10.294l4.771-4.771,1.353,1.353L41.321,13ZM18.9,41.71l2.036-5.294,3.258,3.258Zm6.81-2.909-3.9-3.9L38.449,18.261l3.9,3.9ZM55.049,9.464l-11.5,11.5-3.9-3.9,11.5-11.5a2.758,2.758,0,0,1,3.9,3.9Z" transform="translate(0 -0.026)" fill="#fff"/>
          </g>
        </g>
        <g id="Grupo_53070" data-name="Grupo 53070" transform="translate(49.706 8.554)">
          <g id="Grupo_53069" data-name="Grupo 53069">
            <path id="Trazado_114961" data-name="Trazado 114961" d="M444.368,76.385a.845.845,0,0,0-1.194,0l-.637.637a.844.844,0,0,0,1.194,1.194l.637-.637A.844.844,0,0,0,444.368,76.385Z" transform="translate(-442.289 -76.138)" fill="#fff"/>
          </g>
        </g>
        <g id="Grupo_53072" data-name="Grupo 53072" transform="translate(47.158 11.101)">
          <g id="Grupo_53071" data-name="Grupo 53071">
            <path id="Trazado_114962" data-name="Trazado 114962" d="M421.7,99.054a.845.845,0,0,0-1.194,0l-.637.637a.844.844,0,1,0,1.194,1.194l.637-.637A.845.845,0,0,0,421.7,99.054Z" transform="translate(-419.621 -98.807)" fill="#fff"/>
          </g>
        </g>
        <g id="Grupo_53074" data-name="Grupo 53074" transform="translate(44.613 13.649)">
          <g id="Grupo_53073" data-name="Grupo 53073">
            <path id="Trazado_114963" data-name="Trazado 114963" d="M399.051,121.724a.844.844,0,0,0-1.194,0l-.637.637a.844.844,0,1,0,1.194,1.194l.637-.637A.844.844,0,0,0,399.051,121.724Z" transform="translate(-396.975 -121.477)" fill="#fff"/>
          </g>
        </g>
      </g>
    </g>
  </g>
</svg>
