<svg xmlns="http://www.w3.org/2000/svg" width="120" height="120" viewBox="0 0 120 120">
  <g id="Grupo_55105" data-name="Grupo 55105" transform="translate(-203 -1729)">
    <g id="Icon" transform="translate(211 1737)">
      <rect id="Rectángulo_29022" data-name="Rectángulo 29022" width="120" height="120" transform="translate(-8 -8)" fill="none"/>
      <circle id="Base" cx="51.652" cy="51.652" r="51.652" transform="translate(0 0)" fill="#ea3065"/>
    </g>
    <g id="Grupo_53089" data-name="Grupo 53089" transform="translate(237 1763)">
      <g id="Grupo_53088" data-name="Grupo 53088">
        <path id="Trazado_114966" data-name="Trazado 114966" d="M51.085,16.751,45.96,11.626V1a1,1,0,0,0-1-1H30.173a1,1,0,0,0,0,2.007h13.78V22.464L25.644,40.773,7.426,22.554V2.007H21.141a1,1,0,0,0,0-2.007H6.422a1,1,0,0,0-1,1V11.626L.294,16.751a1,1,0,0,0-.294.71v28.9a5.023,5.023,0,0,0,5.017,5.017H46.361a5.023,5.023,0,0,0,5.017-5.017v-28.9A1,1,0,0,0,51.085,16.751Zm-1.713,29.61a2.992,2.992,0,0,1-.294,1.3l-13.74-13.74L49.372,19.884Zm-3.412-31.9,3,3-3,3ZM2.3,47.659a2.992,2.992,0,0,1-.294-1.3V19.974L16,33.963ZM5.419,20.547,2.377,17.506l3.041-3.041Zm-.4,28.825a2.992,2.992,0,0,1-1.3-.294l13.7-13.7L24.935,42.9a1,1,0,0,0,1.419,0l7.564-7.564,13.74,13.74a2.992,2.992,0,0,1-1.3.294H5.017Z" fill="#fff"/>
        <path id="Trazado_114967" data-name="Trazado 114967" d="M246.684,2.007a1,1,0,0,0,1-1,1,1,0,1,0-1,1Z" transform="translate(-221.026)" fill="#fff"/>
        <path id="Trazado_114968" data-name="Trazado 114968" d="M149.162,70.326A10.9,10.9,0,0,0,152,84.2a11.015,11.015,0,0,0,6.419,2.31h.028a1,1,0,0,0,.027-2.007,8.921,8.921,0,0,1-2.461-17.417,8.92,8.92,0,0,1,11.243,5.905,7.814,7.814,0,0,1-.481,5.2,2.74,2.74,0,0,1-2.524,1.863,1.039,1.039,0,0,1-.725-.332,1.577,1.577,0,0,1-.447-1.118v-8.3a1,1,0,1,0-2.007,0v.32a4.382,4.382,0,0,0-2.846-1.026c-2.534,0-5.156,2.2-5.156,5.874a6.722,6.722,0,0,0,1.446,4.274,4.712,4.712,0,0,0,3.6,1.811,4.432,4.432,0,0,0,3.261-1.485,3.519,3.519,0,0,0,.722,1.063,3.027,3.027,0,0,0,2.148.924,4.745,4.745,0,0,0,4.389-3.129,9.788,9.788,0,0,0,.551-6.476l-.009-.031a10.912,10.912,0,0,0-20.022-2.1Zm8.959,9.231c-1.678,0-3.043-1.829-3.043-4.078,0-2.421,1.6-3.867,3.149-3.867,1.668,0,2.832,1.578,2.832,3.837s-1.318,4.108-2.938,4.108Z" transform="translate(-132.965 -58.166)" fill="#fff"/>
      </g>
    </g>
  </g>
</svg>
