<svg xmlns="http://www.w3.org/2000/svg" width="120" height="120" viewBox="0 0 120 120">
  <g id="Grupo_55258" data-name="Grupo 55258" transform="translate(8319 -2307)">
    <g id="Icon" transform="translate(-8311 2315)">
      <rect id="Rectángulo_29022" data-name="Rectángulo 29022" width="120" height="120" transform="translate(-8 -8)" fill="none"/>
      <circle id="Base" cx="51.652" cy="51.652" r="51.652" transform="translate(0 0)" fill="#ea3065"/>
    </g>
    <g id="gdpr" transform="translate(-8286 2336)">
      <path id="Trazado_119861" data-name="Trazado 119861" d="M49.135,5.174A5.124,5.124,0,0,0,43.961,0H5.674A5.124,5.124,0,0,0,.5,5.174v8.278H8.778V56.913a5.124,5.124,0,0,0,5.174,5.174H49.135a5.124,5.124,0,0,0,5.174-5.174V51.739H49.135ZM8.778,11.383H2.57V5.174a3.049,3.049,0,0,1,3.1-3.1,3.049,3.049,0,0,1,3.1,3.1Zm2.07,45.53V5.174a5.575,5.575,0,0,0-1.035-3.1H43.961a3.049,3.049,0,0,1,3.1,3.1V51.739H17.056v5.174a3.1,3.1,0,0,1-6.209,0Zm41.391-3.1v3.1a3.049,3.049,0,0,1-3.1,3.1H18.091a4.882,4.882,0,0,0,1.035-3.1v-3.1Zm0,0" transform="translate(-0.5)" fill="#fff"/>
      <path id="Trazado_119862" data-name="Trazado 119862" d="M280.5,256h8.278v2.07H280.5Zm0,0" transform="translate(-244.283 -222.887)" fill="#fff"/>
      <path id="Trazado_119863" data-name="Trazado 119863" d="M96.5,256h21.73v2.07H96.5Zm0,0" transform="translate(-84.083 -222.887)" fill="#fff"/>
      <path id="Trazado_119864" data-name="Trazado 119864" d="M184.5,288h20.7v2.07H184.5Zm0,0" transform="translate(-160.7 -250.748)" fill="#fff"/>
      <path id="Trazado_119865" data-name="Trazado 119865" d="M96.5,288h9.313v2.07H96.5Zm0,0" transform="translate(-84.083 -250.748)" fill="#fff"/>
      <path id="Trazado_119866" data-name="Trazado 119866" d="M240.5,352h13.452v2.07H240.5Zm0,0" transform="translate(-209.457 -306.47)" fill="#fff"/>
      <path id="Trazado_119867" data-name="Trazado 119867" d="M96.5,352h16.556v2.07H96.5Zm0,0" transform="translate(-84.083 -306.47)" fill="#fff"/>
      <path id="Trazado_119868" data-name="Trazado 119868" d="M166.5,48.97l1.242.828,1.242-.828a13.525,13.525,0,0,0,6-11.175V34.38L167.743,32,160.5,34.38v3.415A13.525,13.525,0,0,0,166.5,48.97Zm-3.932-13.141,5.174-1.759,5.174,1.759v1.966a11.419,11.419,0,0,1-5.07,9.52h-.1l-.1-.1a11.286,11.286,0,0,1-5.07-9.52Zm0,0" transform="translate(-139.804 -27.861)" fill="#fff"/>
      <path id="Trazado_119869" data-name="Trazado 119869" d="M209.157,79.406l-2.07-.207a6.413,6.413,0,0,1-2.587,4.45l1.138,1.759a8.486,8.486,0,0,0,3.518-6Zm0,0" transform="translate(-178.113 -68.955)" fill="#fff"/>
      <path id="Trazado_119870" data-name="Trazado 119870" d="M144.5,320h25.87v2.07H144.5Zm0,0" transform="translate(-125.874 -278.609)" fill="#fff"/>
      <path id="Trazado_119871" data-name="Trazado 119871" d="M96.5,320h4.139v2.07H96.5Zm0,0" transform="translate(-84.083 -278.609)" fill="#fff"/>
      <path id="Trazado_119872" data-name="Trazado 119872" d="M184.5,224h20.7v2.07H184.5Zm0,0" transform="translate(-160.7 -195.026)" fill="#fff"/>
      <path id="Trazado_119873" data-name="Trazado 119873" d="M96.5,224h9.313v2.07H96.5Zm0,0" transform="translate(-84.083 -195.026)" fill="#fff"/>
      <path id="Trazado_119874" data-name="Trazado 119874" d="M160.5,184h14.487v2.07H160.5Zm0,0" transform="translate(-139.804 -160.2)" fill="#fff"/>
    </g>
  </g>
</svg>
