<svg xmlns="http://www.w3.org/2000/svg" width="120" height="120" viewBox="0 0 120 120">
  <g id="Grupo_55256" data-name="Grupo 55256" transform="translate(8016 -2307)">
    <g id="Icon" transform="translate(-8008 2315)">
      <rect id="Rectángulo_29022" data-name="Rectángulo 29022" width="120" height="120" transform="translate(-8 -8)" fill="none"/>
      <circle id="Base" cx="51.652" cy="51.652" r="51.652" transform="translate(0 0)" fill="#ea3065"/>
    </g>
    <g id="documento-legal_1_" data-name="documento-legal (1)" transform="translate(-7989 2334)">
      <path id="Trazado_119851" data-name="Trazado 119851" d="M171.844,359.816h20.7v2.07h-20.7Zm0,0" transform="translate(-149.616 -313.319)" fill="#fff"/>
      <path id="Trazado_119852" data-name="Trazado 119852" d="M171.844,391.816h20.7v2.07h-20.7Zm0,0" transform="translate(-149.616 -341.18)" fill="#fff"/>
      <path id="Trazado_119853" data-name="Trazado 119853" d="M203.844,423.816h12.417v2.07H203.844Zm0,0" transform="translate(-177.477 -369.041)" fill="#fff"/>
      <path id="Trazado_119854" data-name="Trazado 119854" d="M183.644,152.4a4.017,4.017,0,0,0-1.871-1.978,3.915,3.915,0,0,1-.931-.724,3.971,3.971,0,0,1-.414-1.129,3.136,3.136,0,0,0-3.925-2.876,4.022,4.022,0,0,1-1.216-.045,3.914,3.914,0,0,1-.952-.65,3.2,3.2,0,0,0-4.959,0,3.937,3.937,0,0,1-.954.651,4.1,4.1,0,0,1-1.213.044,3.135,3.135,0,0,0-3.925,2.87,4.011,4.011,0,0,1-.414,1.13,3.94,3.94,0,0,1-.931.725,4.013,4.013,0,0,0-1.871,1.979,3.913,3.913,0,0,0,.345,2.635,2.289,2.289,0,0,1,.007,2.4,3.916,3.916,0,0,0-.345,2.636,4.017,4.017,0,0,0,1.871,1.978,3.9,3.9,0,0,1,.931.724,3.972,3.972,0,0,1,.414,1.129,3.136,3.136,0,0,0,3.925,2.876,4.021,4.021,0,0,1,1.216.045,3.964,3.964,0,0,1,.952.65,3.2,3.2,0,0,0,4.959,0,3.959,3.959,0,0,1,.954-.651,4.034,4.034,0,0,1,1.213-.044,3.135,3.135,0,0,0,3.925-2.87,4.03,4.03,0,0,1,.414-1.13,3.938,3.938,0,0,1,.931-.724,4.013,4.013,0,0,0,1.871-1.979,3.913,3.913,0,0,0-.345-2.635,2.289,2.289,0,0,1-.007-2.4A3.916,3.916,0,0,0,183.644,152.4Zm-2.277,5.776a2.837,2.837,0,0,1,.31,1.261c-.088.271-.587.594-1.027.88a5.308,5.308,0,0,0-1.48,1.242,5.4,5.4,0,0,0-.735,1.811,1.269,1.269,0,0,1-1.821,1.345,5.356,5.356,0,0,0-1.959.145,5.133,5.133,0,0,0-1.621,1.015c-.414.335-.876.714-1.172.714s-.76-.379-1.171-.714a5.127,5.127,0,0,0-1.619-1.014,4.008,4.008,0,0,0-1.254-.17c-.244,0-.48.013-.707.023a1.269,1.269,0,0,1-1.821-1.345,5.351,5.351,0,0,0-.736-1.811,5.287,5.287,0,0,0-1.478-1.242c-.441-.285-.94-.608-1.028-.879a2.841,2.841,0,0,1,.31-1.262,4.222,4.222,0,0,0,0-3.875,2.839,2.839,0,0,1-.31-1.262c.088-.271.587-.594,1.027-.879a5.318,5.318,0,0,0,1.48-1.242,5.388,5.388,0,0,0,.735-1.811,1.269,1.269,0,0,1,1.821-1.345,5.4,5.4,0,0,0,1.958-.145,5.15,5.15,0,0,0,1.622-1.015c.414-.335.875-.714,1.171-.714s.76.378,1.171.714a5.141,5.141,0,0,0,1.619,1.014,5.424,5.424,0,0,0,1.961.147,1.269,1.269,0,0,1,1.821,1.345,5.384,5.384,0,0,0,.735,1.811,5.318,5.318,0,0,0,1.48,1.242c.441.285.939.608,1.027.878a2.842,2.842,0,0,1-.31,1.263,4.214,4.214,0,0,0,0,3.875Zm0,0" transform="translate(-139.285 -125.259)" fill="#fff"/>
      <path id="Trazado_119855" data-name="Trazado 119855" d="M203.087,183.816a7.243,7.243,0,1,0,7.243,7.243A7.243,7.243,0,0,0,203.087,183.816Zm0,12.417a5.174,5.174,0,1,1,5.174-5.174A5.174,5.174,0,0,1,203.087,196.233Zm0,0" transform="translate(-170.512 -160.084)" fill="#fff"/>
      <path id="Trazado_119856" data-name="Trazado 119856" d="M55.272,40.623c.028,0,.154.008.357.008,1.138,0,4.707-.2,7.017-2.5,2.719-2.72,2.506-7.186,2.5-7.374l-.051-.925-.926-.051a11.622,11.622,0,0,0-6.045,1.464,25.986,25.986,0,0,0,.31-3.5l.524-.265c.169-.086,4.139-2.133,5.139-5.849s-1.421-7.476-1.525-7.635l-.506-.776-.828.414a11.674,11.674,0,0,0-4.512,4.306,25.854,25.854,0,0,0-1.486-3.184l.33-.5c.1-.157,2.521-3.918,1.524-7.635S52.124.848,51.954.763L51.126.348l-.507.776A11.657,11.657,0,0,0,48.86,7.1q-.587-.475-1.2-.919l-1.2,1.676a23.81,23.81,0,0,1,8.56,27.258l-.02.052a23.64,23.64,0,0,1-5.867,9.089V13.727H16.018V44.261A23.666,23.666,0,0,1,10.15,35.17l-.018-.047A23.811,23.811,0,0,1,18.691,7.862L17.484,6.181c-.414.3-.81.6-1.2.918a11.656,11.656,0,0,0-1.759-5.979L14.018.343,13.19.763c-.169.085-4.139,2.132-5.138,5.848s1.427,7.477,1.53,7.634l.329.5a26.082,26.082,0,0,0-1.484,3.188,11.676,11.676,0,0,0-4.51-4.3l-.828-.414-.507.776c-.1.158-2.521,3.918-1.525,7.635s4.967,5.763,5.138,5.849l.525.266a26.121,26.121,0,0,0,.31,3.5A11.619,11.619,0,0,0,.983,29.777l-.925.051-.051.925c-.01.188-.223,4.657,2.5,7.374,2.309,2.31,5.875,2.5,7.016,2.5.207,0,.329-.006.358-.008l.574-.031a25.581,25.581,0,0,0,2.03,2.875A11.452,11.452,0,0,0,6.5,45.276l-.752.506.4.812c.086.173,2.133,4.235,5.852,5.261a7.135,7.135,0,0,0,1.872.241,9.211,9.211,0,0,0,2.147-.272v8.468a5.18,5.18,0,0,0,5.174,5.174H52.235a5.18,5.18,0,0,0,5.174-5.174V55.118H49.131V51.728a9.5,9.5,0,0,0,2.518.368,7.148,7.148,0,0,0,1.876-.241c3.715-1.025,5.761-5.087,5.846-5.26l.4-.812-.751-.506a11.251,11.251,0,0,0-6.372-1.789,25.58,25.58,0,0,0,2.047-2.9ZM51.1,8.218a7.766,7.766,0,0,1,.783-5.085A7.735,7.735,0,0,1,55.1,7.147a7.78,7.78,0,0,1-.78,5.082A7.779,7.779,0,0,1,51.1,8.218Zm7,11.8A7.774,7.774,0,0,1,61.313,16a7.734,7.734,0,0,1,.778,5.084A7.778,7.778,0,0,1,58.874,25.1a7.774,7.774,0,0,1-.781-5.081Zm.161,13.719a7.772,7.772,0,0,1,4.8-1.862,7.738,7.738,0,0,1-1.869,4.793,7.778,7.778,0,0,1-4.792,1.862,7.779,7.779,0,0,1,1.861-4.789ZM10.057,7.147a7.769,7.769,0,0,1,3.22-4.013,7.738,7.738,0,0,1,.775,5.083,7.779,7.779,0,0,1-3.221,4.014,7.736,7.736,0,0,1-.775-5.085ZM6.274,25.1A7.767,7.767,0,0,1,3.057,21.09,7.78,7.78,0,0,1,3.837,16a7.776,7.776,0,0,1,3.218,4.012A7.767,7.767,0,0,1,6.274,25.1ZM3.967,36.664A7.778,7.778,0,0,1,2.1,31.871,7.781,7.781,0,0,1,6.9,33.734,7.767,7.767,0,0,1,8.76,38.529a7.741,7.741,0,0,1-4.793-1.864ZM16.018,49.688a6.454,6.454,0,0,1-3.471.172,7.89,7.89,0,0,1-4.042-3.343,7.542,7.542,0,0,1,5.1-.815,5.939,5.939,0,0,1,2.414,1.431ZM21.192,63.4a3.1,3.1,0,0,1-3.1-3.1V15.8H47.061v44.5A5.147,5.147,0,0,0,48.1,63.4Zm34.148-6.209v3.1a3.1,3.1,0,1,1-6.209,0v-3.1Zm1.674-10.671a7.881,7.881,0,0,1-4.036,3.341,6.719,6.719,0,0,1-3.848-.29V47.331l.073.073a6.164,6.164,0,0,1,2.721-1.7,7.6,7.6,0,0,1,5.089.815Zm0,0" transform="translate(0.001 -0.343)" fill="#fff"/>
    </g>
  </g>
</svg>
