<svg xmlns="http://www.w3.org/2000/svg" width="487.406" height="406.563" viewBox="0 0 487.406 406.563">
  <g id="Grupo_55030" data-name="Grupo 55030" transform="translate(-834.234 -2128.898)">
    <g id="freepik--background-complete--inject-349" transform="translate(834.234 2473.382)">
      <rect id="Rectángulo_28941" data-name="Rectángulo 28941" width="39.731" height="0.3" transform="translate(437.046 27.207)" fill="#ebebeb"/>
      <rect id="Rectángulo_28942" data-name="Rectángulo 28942" width="10.425" height="0.3" transform="translate(323.982 30.47)" fill="#ebebeb"/>
      <rect id="Rectángulo_28943" data-name="Rectángulo 28943" width="51.812" height="0.3" transform="translate(0 18.09)" fill="#ebebeb"/>
      <rect id="Rectángulo_28944" data-name="Rectángulo 28944" width="7.594" height="0.3" transform="translate(62.5 18.09)" fill="#ebebeb"/>
      <rect id="Rectángulo_28945" data-name="Rectángulo 28945" width="112.381" height="0.3" transform="translate(94.782 23.153)" fill="#ebebeb"/>
      <rect id="Rectángulo_28946" data-name="Rectángulo 28946" width="78.347" height="15.235" transform="translate(37.56 7.822)" fill="#f0f0f0"/>
      <rect id="Rectángulo_28947" data-name="Rectángulo 28947" width="66.987" height="7.822" transform="translate(43.246)" fill="#e0e0e0"/>
    </g>
    <g id="freepik--Shadow--inject-349" transform="translate(838.612 2508.302)">
      <ellipse id="freepik--path--inject-349" cx="232.595" cy="13.58" rx="232.595" ry="13.58" fill="#f5f5f5"/>
    </g>
    <g id="freepik--character-2--inject-349" transform="translate(1088.65 2153.35)">
      <path id="Trazado_118552" data-name="Trazado 118552" d="M1075.98,2165.881s-6.862-1.932-25.276.732c0,0,.516,29.823,3.6,44.794a71.758,71.758,0,0,0,20.874-1.128S1071.649,2176.665,1075.98,2165.881Z" transform="translate(-1045.438 -2146.103)" fill="#fff"/>
      <path id="Trazado_118553" data-name="Trazado 118553" d="M1075.98,2165.881s-6.862-1.932-25.276.732c0,0,.516,29.823,3.6,44.794a71.758,71.758,0,0,0,20.874-1.128S1071.649,2176.665,1075.98,2165.881Z" transform="translate(-1045.438 -2146.103)" opacity="0.1" style="isolation: isolate"/>
      <path id="Trazado_118554" data-name="Trazado 118554" d="M1056.331,2228.606l-4.558-18.294s-5.014-3.011-5.434-6.358,4.906-12.668,5.938-12.656,7.761,5.039,7.749,6.526-1.344,9.429-1.344,9.429l9.153,17.742Z" transform="translate(-1046.314 -2140.894)" fill="#e2877b"/>
      <path id="Trazado_118555" data-name="Trazado 118555" d="M1052.731,2218.994l-2.627-6.154,12.944-7.521,4.031,6.838Z" transform="translate(-1045.558 -2138.095)" fill="#407bff"/>
      <path id="Trazado_118556" data-name="Trazado 118556" d="M1052.731,2218.994l-2.627-6.154,12.944-7.521,4.031,6.838Z" transform="translate(-1045.558 -2138.095)" fill="#fff" opacity="0.8" style="isolation: isolate"/>
      <path id="Trazado_118557" data-name="Trazado 118557" d="M1111.669,2198.936c-7.774,5.158-25.036,30.278-29.307,29.906-5.518-.467-14.671-18.978-14.671-18.978L1050.7,2220.1s19.89,40.163,30.986,37.632,32.126-33.337,33.589-37.872S1121.314,2192.529,1111.669,2198.936Z" transform="translate(-1045.438 -2139.594)" fill="#0a4b6e"/>
      <path id="Trazado_118558" data-name="Trazado 118558" d="M1111.669,2198.936c-7.774,5.158-25.036,30.278-29.307,29.906-5.518-.467-14.671-18.978-14.671-18.978L1050.7,2220.1s19.89,40.163,30.986,37.632,32.126-33.337,33.589-37.872S1121.314,2192.529,1111.669,2198.936Z" transform="translate(-1045.438 -2139.594)" opacity="0.3" style="isolation: isolate"/>
      <path id="Trazado_118559" data-name="Trazado 118559" d="M1101.226,2451.352l-9.729,1.031-1.823-20.993,9.729-1.031Z" transform="translate(-1037.659 -2093.172)" fill="#e2877b"/>
      <path id="Trazado_118560" data-name="Trazado 118560" d="M1141.482,2450.9h-9.429l-.78-21.845h9.441Z" transform="translate(-1029.355 -2093.432)" fill="#e2877b"/>
      <path id="Trazado_118561" data-name="Trazado 118561" d="M1133.748,2446.358H1145.2a.817.817,0,0,1,.8.648l1.859,8.4a1.417,1.417,0,0,1-1.128,1.656,1.387,1.387,0,0,1-.252.024c-3.707-.06-6.406-.288-11.06-.288-2.867,0-11.516.3-15.475.3s-4.474-3.911-2.855-4.271c7.27-1.583,12.74-3.779,15.067-5.866A2.266,2.266,0,0,1,1133.748,2446.358Z" transform="translate(-1032.356 -2089.979)" fill="#0a4b6e"/>
      <path id="Trazado_118562" data-name="Trazado 118562" d="M1128.615,2448.137a2.845,2.845,0,0,1-1.811-.48,1.341,1.341,0,0,1-.468-1.2.683.683,0,0,1,.384-.624c1.044-.54,4.091,1.331,4.427,1.547a.194.194,0,0,1,.108.216.229.229,0,0,1-.168.192A11.309,11.309,0,0,1,1128.615,2448.137Zm-1.4-1.956a.479.479,0,0,0-.288.06c-.06,0-.132.084-.144.264a.92.92,0,0,0,.3.8,4.583,4.583,0,0,0,3.359.168,9.017,9.017,0,0,0-3.227-1.3Z" transform="translate(-1030.342 -2090.103)" fill="#407bff"/>
      <path id="Trazado_118563" data-name="Trazado 118563" d="M1130.708,2448.156h-.108c-.972-.528-2.855-2.6-2.663-3.6a.731.731,0,0,1,.72-.588,1.2,1.2,0,0,1,.948.288c1.092.888,1.32,3.6,1.332,3.731a.238.238,0,0,1-.108.2A.22.22,0,0,1,1130.708,2448.156Zm-1.9-3.851h-.108c-.288,0-.312.168-.324.228-.12.612,1.08,2.184,2.052,2.915a5.266,5.266,0,0,0-1.116-2.951A.786.786,0,0,0,1128.812,2444.306Z" transform="translate(-1030.024 -2090.458)" fill="#407bff"/>
      <path id="Trazado_118564" data-name="Trazado 118564" d="M1093.248,2446.108H1104.7a.817.817,0,0,1,.8.648l1.859,8.4a1.417,1.417,0,0,1-1.128,1.656,1.384,1.384,0,0,1-.252.024c-3.707-.06-6.406-.288-11.06-.288-2.867,0-11.516.3-15.475.3s-4.475-3.911-2.855-4.271c7.27-1.583,12.74-3.779,15.067-5.866A2.267,2.267,0,0,1,1093.248,2446.108Z" transform="translate(-1040.441 -2090.029)" fill="#0a4b6e"/>
      <path id="Trazado_118565" data-name="Trazado 118565" d="M1088.155,2447.887a2.842,2.842,0,0,1-1.811-.48,1.34,1.34,0,0,1-.468-1.2.683.683,0,0,1,.384-.624c1.044-.54,4.091,1.331,4.427,1.547a.194.194,0,0,1,.108.216.227.227,0,0,1-.168.192A11.28,11.28,0,0,1,1088.155,2447.887Zm-1.4-1.955a.48.48,0,0,0-.288.06c-.06,0-.132.084-.144.264a.92.92,0,0,0,.3.8,4.581,4.581,0,0,0,3.359.168,9.013,9.013,0,0,0-3.275-1.3Z" transform="translate(-1038.419 -2090.153)" fill="#407bff"/>
      <path id="Trazado_118566" data-name="Trazado 118566" d="M1090.238,2447.946h-.108c-.972-.528-2.855-2.6-2.663-3.6a.732.732,0,0,1,.72-.588,1.2,1.2,0,0,1,.948.288c1.092.888,1.32,3.6,1.332,3.731a.239.239,0,0,1-.108.2A.218.218,0,0,1,1090.238,2447.946Zm-1.9-3.827h-.108c-.288,0-.312.168-.324.228-.12.612,1.08,2.183,2.051,2.915a5.264,5.264,0,0,0-1.115-2.951.779.779,0,0,0-.54-.24Z" transform="translate(-1038.102 -2090.499)" fill="#407bff"/>
      <path id="Trazado_118567" data-name="Trazado 118567" d="M1140.715,2429.068h-9.441l.408,11.264h9.441Z" transform="translate(-1029.355 -2093.43)" opacity="0.2" style="isolation: isolate"/>
      <path id="Trazado_118568" data-name="Trazado 118568" d="M1146.265,2269.328h-50.06c-4.8,25.984-19,125.865-8.313,207.8l16.951-2.1s-2.231-116.687,12.728-156.9c1.727,21.521,3.767,44.386,5.542,56.6,4.355,29.991,14.084,101.032,14.084,101.032h17.311s-3.935-68.234-5.566-97.709C1147.093,2346.008,1146.325,2275.9,1146.265,2269.328Z" transform="translate(-1038.792 -2125.318)" fill="#0a4b6e"/>
      <g id="Grupo_55022" data-name="Grupo 55022" transform="translate(45.208 144.01)" opacity="0.3">
        <path id="Trazado_118569" data-name="Trazado 118569" d="M1146.265,2269.328h-50.06c-4.8,25.984-19,125.865-8.313,207.8l16.951-2.1s-2.231-116.687,12.728-156.9c1.727,21.521,3.767,44.386,5.542,56.6,4.355,29.991,14.084,101.032,14.084,101.032h17.311s-3.935-68.234-5.566-97.709C1147.093,2346.008,1146.325,2275.9,1146.265,2269.328Z" transform="translate(-1084 -2269.328)"/>
      </g>
      <path id="Trazado_118570" data-name="Trazado 118570" d="M1092.494,2280.74s14.755,3.407,25.036,0l-.924-8h-23.932Z" transform="translate(-1037.096 -2124.637)" opacity="0.4" style="isolation: isolate"/>
      <path id="Trazado_118571" data-name="Trazado 118571" d="M1098.684,2281.9a59.225,59.225,0,0,0,9.5.264v-9.417h-9.5Z" transform="translate(-1035.86 -2124.635)" fill="#fff" opacity="0.1" style="isolation: isolate"/>
      <path id="Trazado_118572" data-name="Trazado 118572" d="M1112.952,2312.973a134.016,134.016,0,0,0-5.59,21.653c-1.4-19.194,4.2-39.468,4.2-39.468Z" transform="translate(-1034.173 -2120.161)" opacity="0.2" style="isolation: isolate"/>
      <path id="Trazado_118573" data-name="Trazado 118573" d="M1132.115,2174.374s-.372,9.189-7.534,7.03S1125.793,2171.123,1132.115,2174.374Z" transform="translate(-1031.24 -2144.423)" fill="#0f2771"/>
      <path id="Trazado_118574" data-name="Trazado 118574" d="M1112.65,2196.825a9.6,9.6,0,0,0,3.3-10.089l12.956-10.448s-1.68,12.824,1.451,19.614c0,0-7.822,7.93-13.784,6.118S1112.65,2196.825,1112.65,2196.825Z" transform="translate(-1033.139 -2143.89)" fill="#e2877b"/>
      <path id="Trazado_118575" data-name="Trazado 118575" d="M1125.395,2181.508l-5.122.216-4.918,3.971a10.339,10.339,0,0,1-.06,5.314C1123.14,2189.749,1125.395,2181.508,1125.395,2181.508Z" transform="translate(-1032.545 -2142.848)" opacity="0.2" style="isolation: isolate"/>
      <path id="Trazado_118576" data-name="Trazado 118576" d="M1129.488,2201.8l-10.724-4.067-9.009.672s-9.525,21.713-13.052,44.133a357.117,357.117,0,0,0-3.6,47.1c.324-.072,13.2,2.747,25.132-1.307,0,0-7.954-33.59-3.6-48.981s14.8-37.548,14.8-37.548" transform="translate(-1036.974 -2139.608)" fill="#407bff"/>
      <path id="Trazado_118577" data-name="Trazado 118577" d="M1129.488,2201.8l-10.724-4.067-9.009.672s-9.525,21.713-13.052,44.133a357.117,357.117,0,0,0-3.6,47.1c.324-.072,13.2,2.747,25.132-1.307,0,0-7.954-33.59-3.6-48.981s14.8-37.548,14.8-37.548" transform="translate(-1036.974 -2139.608)" fill="#fff" opacity="0.8" style="isolation: isolate"/>
      <path id="Trazado_118578" data-name="Trazado 118578" d="M1113.539,2198.05l.648,5.9s-7.977,15.511-10.8,25.888-5.146,41.842-5.146,41.842l4.99,8.578,4.583-8.578s-1.2-25.192,2.471-42.178,5.7-24.616,5.7-24.616l5.518-4-3.743-3.155Z" transform="translate(-1035.948 -2139.608)" opacity="0.4" style="isolation: isolate"/>
      <path id="Trazado_118579" data-name="Trazado 118579" d="M1113.648,2193.562l3.695,3.671,14-4.595-10.437,15.451-5.17-8.3-8.421,2.387Z" transform="translate(-1034.138 -2140.626)" fill="#fff"/>
      <path id="Trazado_118580" data-name="Trazado 118580" d="M1117.678,2193.408s-19.278,4.211-23.393,21.593-6.538,93.294-7.138,99.413,11.48,6.874,11.48,6.874-.648-39.264.336-49.688c.36-3.767.912-16.483,2.615-26.392C1104.59,2227.669,1109.82,2205.116,1117.678,2193.408Z" transform="translate(-1038.167 -2140.473)" fill="#0a4b6e"/>
      <path id="Trazado_118581" data-name="Trazado 118581" d="M1111.558,2194.812c-2.615,2.3-8.865,7.2-12,12.368l4.87,2.579-6.658,4.235s.552,18.7,2.183,28.5c3.071-17.058,8.158-37.968,15.6-49.088C1115.552,2193.408,1113.969,2193.852,1111.558,2194.812Z" transform="translate(-1036.042 -2140.473)" fill="#0a4b6e"/>
      <path id="Trazado_118582" data-name="Trazado 118582" d="M1111.558,2194.812c-2.615,2.3-8.865,7.2-12,12.368l4.87,2.579-6.658,4.235s.552,18.7,2.183,28.5c3.071-17.058,8.158-37.968,15.6-49.088C1115.552,2193.408,1113.969,2193.852,1111.558,2194.812Z" transform="translate(-1036.042 -2140.473)" fill="#fff" opacity="0.1" style="isolation: isolate"/>
      <path id="Trazado_118583" data-name="Trazado 118583" d="M1100.288,2159.9s-.672,7.054,4.8,8.625c0,0,3.131-7.882-.672-8.625S1100.288,2159.9,1100.288,2159.9Z" transform="translate(-1035.545 -2147.227)" fill="#0f2771"/>
      <path id="Trazado_118584" data-name="Trazado 118584" d="M1104.426,2180.609c.876,4.991,4.619,15.451,15.211,12.26s11.036-11.552,11.217-13.963-2.075-21.125-8.841-22.913-15,.42-17.587,4.294S1104.426,2180.609,1104.426,2180.609Z" transform="translate(-1034.944 -2148.067)" fill="#e2877b"/>
      <path id="Trazado_118585" data-name="Trazado 118585" d="M1131.245,2174.085c.168.216-7.006,4.51-6.778-10.329,0,0-5.194,2.207-6.394-3.683,0,0-21.713,7.486-19.554-.96,2.891-11.276,20.453-12.128,28.023-6.226,0,0,3.755-4.211,7.294.324,4.235,5.422,4.163,20.117,4.163,20.117Z" transform="translate(-1035.923 -2149.281)" fill="#0f2771"/>
      <path id="Trazado_118586" data-name="Trazado 118586" d="M1135.76,2168.65c-2.543-3.994-13.9.192-16.111,1.056l-.072-.564a1.568,1.568,0,0,0-.624-1.032,1.514,1.514,0,0,0-1.2-.228l-4.666,1.008a1.5,1.5,0,0,0-1.2,1.7,3.678,3.678,0,0,0,.084.48,2.4,2.4,0,0,0-2.267.324v-.384a1.531,1.531,0,0,0-.6-1,1.468,1.468,0,0,0-1.115-.276l-3.923.588a1.5,1.5,0,0,0-1.271,1.607c.072.852.156,1.607.24,2.219a1.492,1.492,0,0,0,.6.984,1.44,1.44,0,0,0,.888.288h.216l3.995-.588a1.5,1.5,0,0,0,1.272-1.7v-.008l-.144-1.031a1.848,1.848,0,0,1,2.279-.288c.06.324.12.66.18.972a1.507,1.507,0,0,0,.636.96,1.485,1.485,0,0,0,.828.252,1.235,1.235,0,0,0,.312,0l4.583-.936a1.514,1.514,0,0,0,1.2-1.68l-.144-1.019c1.7-.66,13.2-4.99,15.523-1.344a.3.3,0,0,0,.415.088l0,0a.288.288,0,0,0,.132-.385A.312.312,0,0,0,1135.76,2168.65Zm-27.1,5.591-3.995.576a.932.932,0,0,1-.672-.156.88.88,0,0,1-.348-.588c-.084-.6-.168-1.343-.24-2.2a.9.9,0,0,1,.768-.96l3.923-.588h.132a1,1,0,0,1,.54.168.916.916,0,0,1,.348.6l.312,2.124A.912.912,0,0,1,1108.661,2174.241Zm9.909-1.811-4.583.936a.906.906,0,0,1-.684-.132.882.882,0,0,1-.384-.564c-.132-.732-.276-1.536-.372-2.172a.888.888,0,0,1,.7-1.02l4.655-1.008a.563.563,0,0,1,.192,0,.884.884,0,0,1,.516.156.918.918,0,0,1,.384.624l.288,2.2A.9.9,0,0,1,1118.57,2172.43Z" transform="translate(-1035.041 -2145.754)"/>
      <path id="Trazado_118587" data-name="Trazado 118587" d="M1114.724,2170.231c.18.731-.156,1.415-.66,1.5s-.984-.456-1.116-1.2.168-1.428.66-1.511S1114.592,2169.475,1114.724,2170.231Z" transform="translate(-1033.019 -2145.343)" fill="#0a4b6e"/>
      <path id="Trazado_118588" data-name="Trazado 118588" d="M1106.964,2171.447c.18.744-.168,1.427-.66,1.512s-.984-.468-1.116-1.2.168-1.416.66-1.5S1106.844,2170.715,1106.964,2171.447Z" transform="translate(-1034.568 -2145.095)" fill="#0a4b6e"/>
      <path id="Trazado_118589" data-name="Trazado 118589" d="M1110.067,2171.158a26.751,26.751,0,0,1-2.483,7.03,4.375,4.375,0,0,0,3.719,0Z" transform="translate(-1034.084 -2144.914)" fill="#dc5753"/>
      <path id="Trazado_118590" data-name="Trazado 118590" d="M1116.5,2166.44a.433.433,0,0,1-.432.168,3.6,3.6,0,0,0-3.107.864.456.456,0,0,1-.761-.5.485.485,0,0,1,.1-.108h0a4.466,4.466,0,0,1,3.911-1.128.47.47,0,0,1,.384.5h0A.554.554,0,0,1,1116.5,2166.44Z" transform="translate(-1033.177 -2146.014)" fill="#0a4b6e"/>
      <path id="Trazado_118591" data-name="Trazado 118591" d="M1112.294,2180.7h0a6.884,6.884,0,0,0,5.554-3.023.241.241,0,0,0-.084-.324.229.229,0,0,0-.312,0h0a6.553,6.553,0,0,1-5.17,2.783.215.215,0,0,0-.228.2.079.079,0,0,0,0,.024h0a.228.228,0,0,0,.228.228h0Z" transform="translate(-1033.191 -2143.691)" fill="#0a4b6e"/>
      <path id="Trazado_118592" data-name="Trazado 118592" d="M1104.042,2167.61a.383.383,0,0,1,0-.743h0a4.442,4.442,0,0,1,4.067.312.443.443,0,0,1,.112.618l0,.006h0a.467.467,0,0,1-.624.108h0a3.6,3.6,0,0,0-3.227-.2A.437.437,0,0,1,1104.042,2167.61Z" transform="translate(-1034.848 -2145.841)" fill="#0a4b6e"/>
      <path id="Trazado_118593" data-name="Trazado 118593" d="M1131.5,2192.638s12.824,7.486,19.446,10.293-3.419,48.5-3.671,56.382,6.91,62.02,6.91,62.02-20.394,5.314-37.1,1.344c0,0-11.8-45.034-10.353-68.63C1108.128,2231.326,1114.942,2208.965,1131.5,2192.638Z" transform="translate(-1034.28 -2140.627)" fill="#0a4b6e"/>
      <path id="Trazado_118594" data-name="Trazado 118594" d="M1136.739,2195.661c-3.035-1.715-5.242-3.023-5.242-3.023-16.015,15.787-22.889,37.188-24.592,59.153,6.934-16.927,23.093-32.39,23.093-32.39l-4.99-7.306,9.153-.719A61.694,61.694,0,0,1,1136.739,2195.661Z" transform="translate(-1034.219 -2140.627)" fill="#0a4b6e"/>
      <path id="Trazado_118595" data-name="Trazado 118595" d="M1136.739,2195.661c-3.035-1.715-5.242-3.023-5.242-3.023-16.015,15.787-22.889,37.188-24.592,59.153,6.934-16.927,23.093-32.39,23.093-32.39l-4.99-7.306,9.153-.719A61.694,61.694,0,0,1,1136.739,2195.661Z" transform="translate(-1034.219 -2140.627)" fill="#fff" opacity="0.1" style="isolation: isolate"/>
      <path id="Trazado_118596" data-name="Trazado 118596" d="M1132.522,2217.618a.408.408,0,0,0-.432-.36l-28.791,2.4v2.015h-3.035l3.863,46.582c0,.216.156.216.168.372h.312l.252-.36.96-.084.312.312,30.05-2.531a.4.4,0,0,0,.372-.418h0Z" transform="translate(-1035.545 -2135.712)" fill="#407bff"/>
      <path id="Trazado_118597" data-name="Trazado 118597" d="M1101.785,2264.657a3.9,3.9,0,0,0,2.867,3.6c-.2-2.459-.492-4.8-.492-4.8s-2.627-35.737-3.311-43.93a3.275,3.275,0,0,0-2.615,3.059c.1,1.116.288,3.383.288,3.383S1101.029,2255.756,1101.785,2264.657Z" transform="translate(-1035.95 -2135.259)" fill="#407bff"/>
      <path id="Trazado_118598" data-name="Trazado 118598" d="M1101.785,2264.657a3.9,3.9,0,0,0,2.867,3.6c-.2-2.459-.492-4.8-.492-4.8s-2.627-35.737-3.311-43.93a3.275,3.275,0,0,0-2.615,3.059c.1,1.116.288,3.383.288,3.383S1101.029,2255.756,1101.785,2264.657Z" transform="translate(-1035.95 -2135.259)" opacity="0.2" style="isolation: isolate"/>
      <path id="Trazado_118599" data-name="Trazado 118599" d="M1103.894,2260.553l31.046-2.519-1.8-5.326-29.691,2.507a2.517,2.517,0,0,0-1.3,2.795A3.008,3.008,0,0,0,1103.894,2260.553Z" transform="translate(-1035.18 -2128.635)" fill="#407bff"/>
      <path id="Trazado_118600" data-name="Trazado 118600" d="M1103.894,2260.553l31.046-2.519-1.8-5.326-29.691,2.507a2.517,2.517,0,0,0-1.3,2.795A3.008,3.008,0,0,0,1103.894,2260.553Z" transform="translate(-1035.18 -2128.635)" fill="#fff" opacity="0.6" style="isolation: isolate"/>
      <path id="Trazado_118601" data-name="Trazado 118601" d="M1134.791,2259.843l-29.319,2.471-.228-.156-.912.084-.192.18h-.384a.082.082,0,0,1-.084-.072l-3.6-42.359s0-.084.072-.084h.444l.18.324.912-.072.216-.36,29.295-2.471a.112.112,0,0,1,.084.072l3.6,42.359A.085.085,0,0,1,1134.791,2259.843Z" transform="translate(-1035.583 -2135.698)" fill="#407bff"/>
      <path id="Trazado_118602" data-name="Trazado 118602" d="M1127.085,2240.267l-20.6,1.728-1.464-17.347,20.6-1.74Zm-19.626.432,18.45-1.547-1.259-14.947-18.45,1.512Z" transform="translate(-1034.595 -2134.584)" opacity="0.3" style="isolation: isolate"/>
      <path id="Trazado_118603" data-name="Trazado 118603" d="M1098.684,2227.809a3.912,3.912,0,0,1,2.255-2.711,8.729,8.729,0,0,0,.108,1.344,5.361,5.361,0,0,0-2.219,3.119Z" transform="translate(-1035.86 -2134.146)" opacity="0.3" style="isolation: isolate"/>
      <path id="Trazado_118604" data-name="Trazado 118604" d="M1100.534,2249.841a3.934,3.934,0,0,1,2.255-2.723c0,.324.06.468.12,1.356a5.288,5.288,0,0,0-2.219,3.119Z" transform="translate(-1035.491 -2129.751)" opacity="0.3" style="isolation: isolate"/>
      <rect id="Rectángulo_28948" data-name="Rectángulo 28948" width="0.912" height="42.155" transform="translate(65.205 84.574) rotate(-4.81)" opacity="0.3" style="isolation: isolate"/>
      <rect id="Rectángulo_28949" data-name="Rectángulo 28949" width="14.503" height="2.003" transform="translate(75.433 112.124) rotate(-4.81)" fill="#407bff"/>
      <rect id="Rectángulo_28950" data-name="Rectángulo 28950" width="8.109" height="2.003" transform="translate(78.977 116.212) rotate(-4.81)" fill="#407bff"/>
      <path id="Trazado_118605" data-name="Trazado 118605" d="M1103.554,2257.137l27.759-2.4s-8.457.552-18.918,1.44C1107.957,2256.609,1103.554,2257.137,1103.554,2257.137Z" transform="translate(-1034.888 -2128.23)" opacity="0.3" style="isolation: isolate"/>
      <path id="Trazado_118606" data-name="Trazado 118606" d="M1103.624,2258.069l27.831-2.591-18.99,1.6C1108.026,2257.445,1103.624,2258.069,1103.624,2258.069Z" transform="translate(-1034.874 -2128.083)" opacity="0.3" style="isolation: isolate"/>
      <path id="Trazado_118607" data-name="Trazado 118607" d="M1103.694,2258.887l27.963-2.639-19.122,1.619C1108.1,2258.263,1103.694,2258.887,1103.694,2258.887Z" transform="translate(-1034.86 -2127.929)" opacity="0.3" style="isolation: isolate"/>
      <path id="Trazado_118608" data-name="Trazado 118608" d="M1108.891,2255.468l.456,5.458-1.955-1.835-1.632,2.111s-.108-1.344-.456-5.518C1106.384,2255.588,1108.015,2255.54,1108.891,2255.468Z" transform="translate(-1034.538 -2128.084)" fill="#407bff"/>
      <path id="Trazado_118609" data-name="Trazado 118609" d="M1108.891,2255.468l.456,5.458-1.955-1.835-1.632,2.111s-.108-1.344-.456-5.518C1106.384,2255.588,1108.015,2255.54,1108.891,2255.468Z" transform="translate(-1034.538 -2128.084)" opacity="0.3" style="isolation: isolate"/>
      <path id="Trazado_118610" data-name="Trazado 118610" d="M1103.484,2256.245l28.083-2.207s-8.781.407-19.194,1.3C1107.887,2255.705,1103.484,2256.245,1103.484,2256.245Z" transform="translate(-1034.902 -2128.37)" opacity="0.3" style="isolation: isolate"/>
      <path id="Trazado_118611" data-name="Trazado 118611" d="M1129.408,2252.758l-1.644.144a3.478,3.478,0,0,0-.1,2.615,3.068,3.068,0,0,0,2.171,2.4Z" transform="translate(-1030.116 -2128.625)" fill="#407bff"/>
      <path id="Trazado_118612" data-name="Trazado 118612" d="M1127.518,2258.776l-17.131-7.918s-5.494,2.027-8.4.264-6.814-11.757-6.154-12.56,8.793-2.891,9.933-1.955,6.514,6.958,6.514,6.958l19.566,3.983Z" transform="translate(-1036.443 -2131.896)" fill="#e2877b"/>
      <path id="Trazado_118613" data-name="Trazado 118613" d="M1119.385,2241.226l-6.862-.408.732,15.439,7.294,1.224Z" transform="translate(-1033.098 -2131.009)" fill="#fff"/>
      <path id="Trazado_118614" data-name="Trazado 118614" d="M1119.385,2241.226l-6.862-.408.732,15.439,7.294,1.224Z" transform="translate(-1033.098 -2131.009)" fill="#407bff"/>
      <path id="Trazado_118615" data-name="Trazado 118615" d="M1119.385,2241.226l-6.862-.408.732,15.439,7.294,1.224Z" transform="translate(-1033.098 -2131.009)" fill="#fff" opacity="0.8" style="isolation: isolate"/>
      <path id="Trazado_118616" data-name="Trazado 118616" d="M1144.329,2199.931c11.456,1.2,16.063,18.486,17.658,27.124,1.559,8.4,5.806,34.657-3.851,41.747s-40.271-.684-40.271-.684l-1.632-21.017s16.447,3.707,23.549.948c6-2.316,3.2-23.7,2.579-27.591C1141.474,2215,1138.943,2199.355,1144.329,2199.931Z" transform="translate(-1032.357 -2139.174)" fill="#0a4b6e"/>
      <path id="Trazado_118617" data-name="Trazado 118617" d="M1144.329,2199.931c11.456,1.2,16.063,18.486,17.658,27.124,1.559,8.4,5.806,34.657-3.851,41.747s-40.271-.684-40.271-.684l-1.632-21.017s16.447,3.707,23.549.948c6-2.316,3.2-23.7,2.579-27.591C1141.474,2215,1138.943,2199.355,1144.329,2199.931Z" transform="translate(-1032.357 -2139.174)" opacity="0.3" style="isolation: isolate"/>
      <path id="Trazado_118618" data-name="Trazado 118618" d="M1123.994,2171.794s1.9-5.243,6.742-5.267c3.887,0,4.45,4.858,2.675,8.217-1.356,2.58-5.806,5.806-8.637,2.4S1123.994,2171.794,1123.994,2171.794Z" transform="translate(-1030.951 -2145.838)" fill="#e2877b"/>
    </g>
    <g id="freepik--character-1--inject-349" transform="translate(896.074 2208.066)">
      <path id="Trazado_118619" data-name="Trazado 118619" d="M929.03,2369.308l-.432,18.678-1.967,84.489h-6.49l-1.955-84.489-.432-18.678Z" transform="translate(-879.402 -2160.075)" fill="#457bfb"/>
      <path id="Trazado_118620" data-name="Trazado 118620" d="M929.03,2369.308l-.432,18.678-1.967,84.489h-6.49l-1.955-84.489-.432-18.678Z" transform="translate(-879.402 -2160.075)" fill="#fff" opacity="0.4" style="isolation: isolate"/>
      <path id="Trazado_118621" data-name="Trazado 118621" d="M929.03,2369.308,928.6,2388.5H918.185l-.432-19.194Z" transform="translate(-879.402 -2160.075)" opacity="0.2" style="isolation: isolate"/>
      <path id="Trazado_118622" data-name="Trazado 118622" d="M959.163,2471.956l-6-101.548h-9.8l8.4,101.548Z" transform="translate(-874.289 -2159.856)" fill="#457bfb"/>
      <path id="Trazado_118623" data-name="Trazado 118623" d="M951.737,2471.976h7.414l-5.446-92.431-.54-9.237h-9.8l.756,9.237Z" transform="translate(-874.289 -2159.876)" fill="#fff" opacity="0.5" style="isolation: isolate"/>
      <path id="Trazado_118624" data-name="Trazado 118624" d="M943.364,2370.308l.756,9.6H953.7l-.54-9.6Z" transform="translate(-874.289 -2159.876)" opacity="0.2" style="isolation: isolate"/>
      <path id="Trazado_118625" data-name="Trazado 118625" d="M895.775,2471.956l8.385-101.548h-9.8l-5.986,101.548Z" transform="translate(-885.266 -2159.856)" fill="#457bfb"/>
      <path id="Trazado_118626" data-name="Trazado 118626" d="M895.787,2471.976l7.618-92.431.756-9.237h-9.8l-.54,9.237-5.446,92.431Z" transform="translate(-885.266 -2159.876)" fill="#fff" opacity="0.5" style="isolation: isolate"/>
      <path id="Trazado_118627" data-name="Trazado 118627" d="M903.254,2370.308l-.756,9.6h-9.585l.54-9.6Z" transform="translate(-884.36 -2159.876)" opacity="0.2" style="isolation: isolate"/>
      <path id="Trazado_118628" data-name="Trazado 118628" d="M894.992,2361.638h68.282a6,6,0,0,1,6,6v8.025H888.994v-8.025A6,6,0,0,1,894.992,2361.638Z" transform="translate(-885.143 -2161.606)"/>
      <rect id="Rectángulo_28951" data-name="Rectángulo 28951" width="87.968" height="7.006" rx="2.01" transform="translate(0 207.05)" fill="#457bfb"/>
      <rect id="Rectángulo_28952" data-name="Rectángulo 28952" width="87.968" height="7.006" rx="2.01" transform="translate(0 207.05)" fill="#fff" opacity="0.6" style="isolation: isolate"/>
      <g id="freepik--group--inject-349" transform="translate(14.192)">
        <path id="Trazado_118629" data-name="Trazado 118629" d="M959.983,2285.908s24.16,25.072,25.624,26.392,10.473,4.223,11.8,5.374-.912,9.6-1.8,11.217-13.628-5.338-14.4-6.478a25.359,25.359,0,0,1-1.8-4.415l-27.423-23.032Z" transform="translate(-886.759 -2176.723)" fill="#e9b076"/>
        <path id="Trazado_118630" data-name="Trazado 118630" d="M941.684,2269.074s.072.972.264,2.579.48,4.031.912,6.718c1.044,6.538,2.867,14.947,5.794,20.034a11.155,11.155,0,0,0,2.891,3.491c3.839,2.855,20.789,21.509,20.789,21.509l9.009-11.456-11.96-15.139s-7.894-44.59-19.926-48.069C944.251,2247.229,941.684,2269.074,941.684,2269.074Z" transform="translate(-888.817 -2184.158)" fill="#407bff"/>
        <path id="Trazado_118631" data-name="Trazado 118631" d="M941.684,2269.074s.072.972.264,2.579.48,4.031.912,6.718c1.044,6.538,2.867,14.947,5.794,20.034a11.155,11.155,0,0,0,2.891,3.491c3.839,2.855,20.789,21.509,20.789,21.509l9.009-11.456-11.96-15.139s-7.894-44.59-19.926-48.069C944.251,2247.229,941.684,2269.074,941.684,2269.074Z" transform="translate(-888.817 -2184.158)" opacity="0.6" style="isolation: isolate"/>
        <path id="Trazado_118632" data-name="Trazado 118632" d="M950.794,2452.087l9.561-1.32,1.32-22.709-9.537,1.32Z" transform="translate(-886.998 -2148.347)" fill="#e9b076"/>
        <path id="Trazado_118633" data-name="Trazado 118633" d="M952.039,2429.376l9.537-1.307-.756,12.98-9.537.84Z" transform="translate(-886.9 -2148.345)" opacity="0.2" style="isolation: isolate"/>
        <path id="Trazado_118634" data-name="Trazado 118634" d="M960.91,2339.733l-2.327-14.612-53.575-3.2s-5.686,30.386-1.32,38.5c7.81,14.456,49.928,7.2,62.248,8.577-7.366,30.1-6.634,88.988-6.634,88.988l17.6,1.344s13.544-63.424,16.279-93.57C995.016,2345.419,978.161,2345.922,960.91,2339.733Z" transform="translate(-896.731 -2169.535)" fill="#407bff"/>
        <path id="Trazado_118635" data-name="Trazado 118635" d="M948.089,2437.483l21.149,1.392,1.811-9.057-23.237-1.08Z" transform="translate(-887.593 -2148.212)" fill="#457bfb"/>
        <path id="Trazado_118636" data-name="Trazado 118636" d="M969.174,2444.667l9.621.708,6.022-21.953-9.609-.684Z" transform="translate(-883.329 -2149.409)" fill="#e9b076"/>
        <path id="Trazado_118637" data-name="Trazado 118637" d="M978.307,2442.59v.084a.1.1,0,0,0,.084,0,11.986,11.986,0,0,0,2.4,1.02,2.571,2.571,0,0,0,1.871,0,1.2,1.2,0,0,0,.612-1.128.865.865,0,0,0-.324-.755,3.89,3.89,0,0,0-2.7-.072,3.5,3.5,0,0,0,1.416-1.956.854.854,0,0,0-.576-.876,1.106,1.106,0,0,0-.972,0c-1.2.636-1.62,3.323-1.656,3.467h-.168A.686.686,0,0,0,978.307,2442.59Zm.72-.528-.216.06c.228-.888.708-2.34,1.415-2.711a.639.639,0,0,1,.516-.072h.1c.3.132.336.3.324.432C981.078,2440.454,979.974,2441.534,979.026,2442.062Zm0,.492c1.272-.384,3.035-.731,3.6-.324a.438.438,0,0,1,.156.372.852.852,0,0,1-.372.732c-.54.3-1.776.012-3.347-.78Z" transform="translate(-881.509 -2146.204)" fill="#407bff"/>
        <path id="Trazado_118638" data-name="Trazado 118638" d="M974.759,2422.738l9.609.7-3.443,12.548-9.5-1.163Z" transform="translate(-882.88 -2149.409)" opacity="0.2" style="isolation: isolate"/>
        <path id="Trazado_118639" data-name="Trazado 118639" d="M998.74,2453.5l-16.987-4.979s10.113-57.078,20.394-76.872c-.768-.252-1.787-.576-3.047-.948-2.267-.684-5.278-1.535-8.817-2.519-24.592-6.826-74.508-19.626-74.508-19.626l22.793-21.3s90.787,13.844,92.671,37.764C1032.137,2376.552,998.74,2453.5,998.74,2453.5Z" transform="translate(-893.989 -2168.471)" fill="#407bff"/>
        <path id="Trazado_118640" data-name="Trazado 118640" d="M968.994,2430.081l20.394,5.77,3.659-8.481-22.5-5.9Z" transform="translate(-883.365 -2149.663)" fill="#457bfb"/>
        <path id="Trazado_118641" data-name="Trazado 118641" d="M996.656,2369.224c-2.267-.684-5.278-1.536-8.817-2.519.708-5.806.72-12.464-2.075-15.859-5.554-6.765-19.842-10.737-27.975-12.176-6.8-1.2-29.655-3.6-29.655-3.6s29.655-2.843,59.981,6C1003.086,2345.459,1000.171,2360.106,996.656,2369.224Z" transform="translate(-891.521 -2166.997)" opacity="0.2" style="isolation: isolate"/>
        <path id="Trazado_118642" data-name="Trazado 118642" d="M902.484,2352.433c-3.6-2.747-.144-28.3-1.979-53.443-2.8-38.256,3.215-50.72,6-51.919a68.85,68.85,0,0,1,12.536-1.38,199.254,199.254,0,0,1,23.165.491,103.445,103.445,0,0,1,15.595,3.179s12.632,40.187,4.559,98.069Z" transform="translate(-897.181 -2184.779)" fill="#407bff"/>
        <g id="Grupo_55023" data-name="Grupo 55023" transform="translate(2.599 60.776)" opacity="0.5">
          <path id="Trazado_118643" data-name="Trazado 118643" d="M902.484,2352.433c-3.6-2.747-.144-28.3-1.979-53.443-2.8-38.256,3.215-50.72,6-51.919a68.85,68.85,0,0,1,12.536-1.38,199.254,199.254,0,0,1,23.165.491,103.445,103.445,0,0,1,15.595,3.179s12.632,40.187,4.559,98.069Z" transform="translate(-899.781 -2245.554)"/>
        </g>
        <path id="Trazado_118644" data-name="Trazado 118644" d="M918.719,2224.018c1.3,7.474,2.459,21.161-2.855,26.032a23.893,23.893,0,0,0,16.795,7.618c9.6.419,6.358-7.126,6.358-7.126-8.265-2.16-7.917-8.325-6.346-14.083Z" transform="translate(-893.971 -2189.078)" fill="#e2877b"/>
        <path id="Trazado_118645" data-name="Trazado 118645" d="M923.04,2228.248l8.265,7.377a23.412,23.412,0,0,0-.8,4.091c-3.167-.528-7.45-4.1-7.714-7.438A10.838,10.838,0,0,1,923.04,2228.248Z" transform="translate(-892.605 -2188.234)" opacity="0.2" style="isolation: isolate"/>
        <path id="Trazado_118646" data-name="Trazado 118646" d="M946.707,2219.863s7.594,1.607,8.637-3.131-.84-5.554,1.416-7.833.8-10.065-5.014-8.529-8.865-6.466-13.688-5.375-5.566,4.451-8.6,5.242-9.057-3.131-12.92-.8-.888,7.318-2.2,9.225-4.5,6.766,0,13.892c4.127,6.526-1.008,9.8-3.671,9.189a.6.6,0,0,0-.737.421.577.577,0,0,0-.019.2c.072.756.516,1.823,2.327,2.5,3.023,1.128,3.6-.516,4.295.348s2.207,3.707,7.2.792S931.16,2214.645,946.707,2219.863Z" transform="translate(-895.159 -2194.892)" fill="#0a4b6e"/>
        <path id="Trazado_118647" data-name="Trazado 118647" d="M945.071,2228.892c-.864,4.99-4.607,15.451-15.2,12.26s-11.073-11.588-11.216-13.988,2.063-21.137,8.841-22.913,15,.42,17.575,4.282S945.071,2228.892,945.071,2228.892Z" transform="translate(-893.415 -2193.149)" fill="#e2877b"/>
        <path id="Trazado_118648" data-name="Trazado 118648" d="M930.492,2218.507c-.18.732.168,1.427.66,1.511s1-.468,1.128-1.2-.18-1.428-.66-1.5S930.624,2217.751,930.492,2218.507Z" transform="translate(-891.06 -2190.417)" fill="#0a4b6e"/>
        <path id="Trazado_118649" data-name="Trazado 118649" d="M937.472,2219.721c-.18.731.168,1.427.66,1.5s.984-.456,1.116-1.2-.168-1.428-.66-1.511S937.592,2219.013,937.472,2219.721Z" transform="translate(-889.667 -2190.179)" fill="#0a4b6e"/>
        <path id="Trazado_118650" data-name="Trazado 118650" d="M935.46,2219.438a27.543,27.543,0,0,0,2.483,7.03,4.429,4.429,0,0,1-3.719,0Z" transform="translate(-890.306 -2189.992)" fill="#dc5753"/>
        <path id="Trazado_118651" data-name="Trazado 118651" d="M933.9,2214.408a.5.5,0,0,0-.468,0,3.6,3.6,0,0,1-3.191.48.445.445,0,0,0-.587.224v0a.442.442,0,0,0,.23.584l.01,0h0a4.424,4.424,0,0,0,4.031-.552.456.456,0,0,0,.144-.612h0A1.12,1.12,0,0,0,933.9,2214.408Z" transform="translate(-891.226 -2191.009)" fill="#0a4b6e"/>
        <path id="Trazado_118652" data-name="Trazado 118652" d="M929.707,2228.089h0a6.874,6.874,0,0,1,6.25.936.229.229,0,0,1,.013.323l-.013.013a.24.24,0,0,1-.324,0h0a6.505,6.505,0,0,0-5.806-.84.251.251,0,0,1-.3-.144h0a.215.215,0,0,1,.116-.282l.016-.006Z" transform="translate(-891.247 -2188.339)" fill="#0a4b6e"/>
        <path id="Trazado_118653" data-name="Trazado 118653" d="M938.485,2214.841a.5.5,0,0,0-.264,0,.444.444,0,0,0-.253.575h0a4.447,4.447,0,0,0,3.023,2.735.456.456,0,0,0,.528-.348h0a.457.457,0,0,0-.348-.528h0a3.594,3.594,0,0,1-2.4-2.207A.5.5,0,0,0,938.485,2214.841Z" transform="translate(-889.564 -2190.914)" fill="#0a4b6e"/>
        <path id="Trazado_118654" data-name="Trazado 118654" d="M950.326,2208.51c2.207,2.6-4.966,6.274-7.762,4.283-2.4-1.727-5.014-3.719-8.181-1.823s-3.467.24-5.65.24.864,4.678-2.147,6.742c-1.727,1.2-4.211,1.788-3.431,3.887s-.384,5.026-3.383,4.486c0,0,2.807-.792,1.056-3.659s-3.263-1.2-3.263-1.2.84-15.8,8.4-18.7S946.679,2204.216,950.326,2208.51Z" transform="translate(-893.631 -2193.509)" fill="#0a4b6e"/>
        <path id="Trazado_118655" data-name="Trazado 118655" d="M922.76,2220.122s-1.9-5.242-6.73-5.255c-3.9,0-4.451,4.8-2.687,8.218,1.368,2.579,5.578,5.59,8.637,2.4C923.792,2223.577,922.76,2220.122,922.76,2220.122Z" transform="translate(-894.665 -2190.905)" fill="#e2877b"/>
        <path id="Trazado_118656" data-name="Trazado 118656" d="M932.933,2296.538s33.206,10.473,35.113,10.916,11.216-1.307,12.932-.924,3.8,8.865,3.791,10.713-14.527,1.811-15.739,1.2a25.123,25.123,0,0,1-3.707-3.023l-35.089-7.126Z" transform="translate(-891.102 -2174.601)" fill="#e9b076"/>
        <path id="Trazado_118657" data-name="Trazado 118657" d="M906.971,2246.818c-18.69,1.715-4.87,56.01,2.711,63.832s33.589,10.628,33.589,10.628l3.3-14.6s-19.566-5.218-23.033-7.473-5.9-24.772-7.965-35.725A31.085,31.085,0,0,0,906.971,2246.818Z" transform="translate(-897.614 -2184.527)" fill="#407bff"/>
        <path id="Trazado_118658" data-name="Trazado 118658" d="M906.971,2246.818c-18.69,1.715-4.87,56.01,2.711,63.832s33.589,10.628,33.589,10.628l3.3-14.6s-19.566-5.218-23.033-7.473-5.9-24.772-7.965-35.725A31.085,31.085,0,0,0,906.971,2246.818Z" transform="translate(-897.614 -2184.527)" opacity="0.6" style="isolation: isolate"/>
        <path id="Trazado_118659" data-name="Trazado 118659" d="M948.089,2437.483l21.149,1.392,1.811-9.057-23.237-1.08Z" transform="translate(-887.593 -2148.212)" fill="#fff" opacity="0.2" style="isolation: isolate"/>
        <path id="Trazado_118660" data-name="Trazado 118660" d="M968.994,2430.081l20.394,5.77,3.659-8.481-22.5-5.9Z" transform="translate(-883.365 -2149.663)" fill="#fff" opacity="0.2" style="isolation: isolate"/>
        <path id="Trazado_118661" data-name="Trazado 118661" d="M980.34,2441.277l-10.425-2.9a.683.683,0,0,0-.864.432h0l-2.807,8.109a1.7,1.7,0,0,0,1.188,2.1l.012,0c3.6.948,5.434,1.2,10.029,2.471,2.819.78,8.313,2.579,12.332,3.035s4.355-3.527,2.7-4.067c-3.935-1.32-8.637-5.422-10.689-8.205A2.685,2.685,0,0,0,980.34,2441.277Z" transform="translate(-883.926 -2146.295)" fill="#0a4b6e"/>
        <path id="Trazado_118662" data-name="Trazado 118662" d="M959.568,2447.689a1.138,1.138,0,0,1,.2,0s.216,0,.24.083,0,.06,0,.072h.072a12.963,12.963,0,0,0,2.519.5,2.659,2.659,0,0,0,1.835-.36,1.2,1.2,0,0,0,.348-1.2.866.866,0,0,0-.492-.672,3.9,3.9,0,0,0-2.663.492,3.5,3.5,0,0,0,.948-2.207.913.913,0,0,0-.816-.72,1.428,1.428,0,0,0-1.08.24c-1,.876-1.2,3.6-1.2,3.767h.084Zm1.032-.564-.192.108a4.793,4.793,0,0,1,.816-2.951.676.676,0,0,1,.492-.168h.108c.312.06.4.228.4.348A4.466,4.466,0,0,1,960.6,2447.125Zm.144.48c1.2-.648,2.807-1.344,3.431-1.068a.434.434,0,0,1,.228.336.852.852,0,0,1-.216.792c-.48.407-1.74.384-3.443-.06Z" transform="translate(-885.263 -2145.233)" fill="#407bff"/>
        <path id="Trazado_118663" data-name="Trazado 118663" d="M961.462,2446.14l-10.8-.672a.708.708,0,0,0-.756.612h0l-1.056,8.517a1.7,1.7,0,0,0,1.571,1.8c3.767.18,5.578.072,10.329.336,2.915.168,8.661.792,12.692.4s3.527-4.354,1.787-4.546c-4.115-.468-9.6-3.491-12.152-5.794A2.706,2.706,0,0,0,961.462,2446.14Z" transform="translate(-887.386 -2144.872)" fill="#0a4b6e"/>
      </g>
      <path id="Trazado_118664" data-name="Trazado 118664" d="M936.834,2262.21l14.911-1.391.756,3.875-14.755,2.063Z" transform="translate(-875.593 -2181.732)" fill="#fff" opacity="0.3" style="isolation: isolate"/>
    </g>
    <g id="freepik--Table--inject-349" transform="translate(863.865 2328.071)">
      <path id="Trazado_118665" data-name="Trazado 118665" d="M864.894,2298.248h157.258v6.61a2.591,2.591,0,0,1-2.591,2.591H867.5a2.591,2.591,0,0,1-2.591-2.591h0v-6.61Z" transform="translate(-857.744 -2294.265)" fill="#0a4b6e"/>
      <path id="Trazado_118666" data-name="Trazado 118666" d="M864.894,2298.248h157.258v6.61a2.591,2.591,0,0,1-2.591,2.591H867.5a2.591,2.591,0,0,1-2.591-2.591h0v-6.61Z" transform="translate(-857.744 -2294.265)" fill="#fff" opacity="0.3" style="isolation: isolate"/>
      <rect id="Rectángulo_28953" data-name="Rectángulo 28953" width="157.246" height="4.607" transform="translate(7.149 3.947)" opacity="0.2" style="isolation: isolate"/>
      <path id="Trazado_118667" data-name="Trazado 118667" d="M1027.889,2300.11H861.537a2.591,2.591,0,0,1-2.6-2.579v-.012h0a2.6,2.6,0,0,1,2.6-2.591h166.352a2.591,2.591,0,0,1,2.591,2.591h0a2.579,2.579,0,0,1-2.567,2.591Z" transform="translate(-858.934 -2294.928)" fill="#0a4b6e"/>
      <path id="Trazado_118668" data-name="Trazado 118668" d="M1027.889,2300.11H861.537a2.591,2.591,0,0,1-2.6-2.579v-.012h0a2.6,2.6,0,0,1,2.6-2.591h166.352a2.591,2.591,0,0,1,2.591,2.591h0a2.579,2.579,0,0,1-2.567,2.591Z" transform="translate(-858.934 -2294.928)" fill="#fff" opacity="0.3" style="isolation: isolate"/>
      <rect id="Rectángulo_28954" data-name="Rectángulo 28954" width="68.007" height="179.235" transform="translate(11.024 13.16)" fill="#0a4b6e"/>
      <rect id="Rectángulo_28955" data-name="Rectángulo 28955" width="68.007" height="179.235" transform="translate(11.024 13.16)" fill="#fff" opacity="0.2" style="isolation: isolate"/>
      <rect id="Rectángulo_28956" data-name="Rectángulo 28956" width="139.804" height="179.235" transform="translate(79.031 13.16)" fill="#0a4b6e"/>
      <rect id="Rectángulo_28957" data-name="Rectángulo 28957" width="139.804" height="179.235" transform="translate(79.031 13.16)" fill="#fff" opacity="0.39" style="isolation: isolate"/>
      <path id="Trazado_118669" data-name="Trazado 118669" d="M922.434,2298.248h145.25v6.61a2.591,2.591,0,0,1-2.591,2.591H925.025a2.591,2.591,0,0,1-2.591-2.591h0v-6.61Z" transform="translate(-846.258 -2294.265)" fill="#0a4b6e"/>
      <path id="Trazado_118670" data-name="Trazado 118670" d="M922.434,2298.248h145.25v6.61a2.591,2.591,0,0,1-2.591,2.591H925.025a2.591,2.591,0,0,1-2.591-2.591h0v-6.61Z" transform="translate(-846.258 -2294.265)" fill="#fff" opacity="0.6" style="isolation: isolate"/>
      <rect id="Rectángulo_28958" data-name="Rectángulo 28958" width="145.25" height="4.607" transform="translate(76.175 3.947)" opacity="0.2" style="isolation: isolate"/>
      <path id="Trazado_118671" data-name="Trazado 118671" d="M1073.432,2300.11H919.065a2.591,2.591,0,0,1-2.591-2.591h0a2.591,2.591,0,0,1,2.591-2.591h154.367a2.591,2.591,0,0,1,2.591,2.591h0a2.591,2.591,0,0,1-2.591,2.591Z" transform="translate(-847.448 -2294.928)" fill="#0a4b6e"/>
      <path id="Trazado_118672" data-name="Trazado 118672" d="M1073.432,2300.11H919.065a2.591,2.591,0,0,1-2.591-2.591h0a2.591,2.591,0,0,1,2.591-2.591h154.367a2.591,2.591,0,0,1,2.591,2.591h0a2.591,2.591,0,0,1-2.591,2.591Z" transform="translate(-847.448 -2294.928)" fill="#fff" opacity="0.6" style="isolation: isolate"/>
      <g id="Grupo_55024" data-name="Grupo 55024" transform="translate(104.967 27.663)" opacity="0.3">
        <path id="Trazado_118673" data-name="Trazado 118673" d="M1034.1,2462.71H946.434V2317.988H1034.1Zm-79.931-7.738h72.193V2325.726H954.172Z" transform="translate(-946.434 -2317.988)" fill="#fff"/>
        <rect id="Rectángulo_28959" data-name="Rectángulo 28959" width="45.13" height="96.306" transform="translate(21.269 24.209)" fill="#fff"/>
      </g>
    </g>
    <g id="freepik--police-badges--inject-349" transform="translate(1015.904 2267.179)">
      <rect id="Rectángulo_28960" data-name="Rectángulo 28960" width="61.517" height="45.898" rx="3.84" fill="#407bff"/>
      <path id="Trazado_118674" data-name="Trazado 118674" d="M1031.3,2260.139s17.131,12.32,38.28-4.271c0,0-19.194,27.387-44.7,14.252Z" transform="translate(-977.846 -2241.833)" fill="#407bff" fill-rule="evenodd"/>
      <rect id="Rectángulo_28961" data-name="Rectángulo 28961" width="51.92" height="36.301" transform="translate(4.81 4.786)" fill="#e36099" style="isolation: isolate"/>
      <path id="Trazado_118675" data-name="Trazado 118675" d="M1012.622,2280.859a15.192,15.192,0,0,0-4.391-2.7,11.394,11.394,0,0,1-7.63-9.861,9.328,9.328,0,0,1,.924-5.051c.372-.743.864-1.391,1.284-2.1a4.282,4.282,0,0,0,0-4.354c-.144-.228-.324-.456-.456-.7a1.651,1.651,0,0,1,0-1.739,2.251,2.251,0,0,1,.348-.408l1.4-1.368a2.289,2.289,0,0,1,.492-.4,1.756,1.756,0,0,1,1.464-.131c.168,0,.324.156.5.216a6.106,6.106,0,0,0,6.286-1.512.827.827,0,0,1,1.17-.029l.03.029a6,6,0,0,0,6.31,1.536c.18-.072.336-.156.5-.216a1.755,1.755,0,0,1,1.464.132,2.325,2.325,0,0,1,.492.4l1.4,1.367a2.348,2.348,0,0,1,.348.408,1.657,1.657,0,0,1,0,1.739c-.132.24-.312.468-.456.7a4.278,4.278,0,0,0,0,4.354c.408.708.912,1.356,1.272,2.1a9.338,9.338,0,0,1,.924,5.05,11.4,11.4,0,0,1-7.63,9.861,15.459,15.459,0,0,0-4.355,2.663,1.2,1.2,0,0,1-1.7.019l-.018-.019Z" transform="translate(-982.703 -2242.904)" fill="#407bff" fill-rule="evenodd"/>
      <path id="Trazado_118676" data-name="Trazado 118676" d="M1012.622,2280.859a15.192,15.192,0,0,0-4.391-2.7,11.394,11.394,0,0,1-7.63-9.861,9.328,9.328,0,0,1,.924-5.051c.372-.743.864-1.391,1.284-2.1a4.282,4.282,0,0,0,0-4.354c-.144-.228-.324-.456-.456-.7a1.651,1.651,0,0,1,0-1.739,2.251,2.251,0,0,1,.348-.408l1.4-1.368a2.289,2.289,0,0,1,.492-.4,1.756,1.756,0,0,1,1.464-.131c.168,0,.324.156.5.216a6.106,6.106,0,0,0,6.286-1.512.827.827,0,0,1,1.17-.029l.03.029a6,6,0,0,0,6.31,1.536c.18-.072.336-.156.5-.216a1.755,1.755,0,0,1,1.464.132,2.325,2.325,0,0,1,.492.4l1.4,1.367a2.348,2.348,0,0,1,.348.408,1.657,1.657,0,0,1,0,1.739c-.132.24-.312.468-.456.7a4.278,4.278,0,0,0,0,4.354c.408.708.912,1.356,1.272,2.1a9.338,9.338,0,0,1,.924,5.05,11.4,11.4,0,0,1-7.63,9.861,15.459,15.459,0,0,0-4.355,2.663,1.2,1.2,0,0,1-1.7.019l-.018-.019Z" transform="translate(-982.703 -2242.904)" fill-rule="evenodd" opacity="0.3" style="isolation: isolate"/>
      <path id="Trazado_118677" data-name="Trazado 118677" d="M1012.808,2275.839a19.112,19.112,0,0,1,1.751-1.008c.972-.5,2-.888,2.975-1.391a8.056,8.056,0,0,0,2.939-2.471,7.042,7.042,0,0,0,1-1.991,7.2,7.2,0,0,0,.276-3.419,7.853,7.853,0,0,0-1.2-2.579,9.472,9.472,0,0,1-1.476-3.6,8.07,8.07,0,0,1,.408-3.959,9.6,9.6,0,0,1-1.2.144,10.216,10.216,0,0,1-5.506-1.308,10.539,10.539,0,0,1-1.775.78,10.264,10.264,0,0,1-4.834.408,8.043,8.043,0,0,1,.276,4.606,10.022,10.022,0,0,1-1.308,2.831,7.4,7.4,0,0,0-1.271,3.2,7.311,7.311,0,0,0,.852,4.139,7.578,7.578,0,0,0,2.051,2.4,11.936,11.936,0,0,0,2.147,1.2c.72.323,1.452.671,2.207,1.055a14.179,14.179,0,0,1,1.727,1Z" transform="translate(-982.049 -2242.154)" fill-rule="evenodd" opacity="0.3" style="isolation: isolate"/>
      <path id="Trazado_118678" data-name="Trazado 118678" d="M1015.453,2276.269c-.288.144-.564.3-.84.468a3.067,3.067,0,0,1-3.143,0c-.276-.156-.54-.312-.828-.456-.672-.348-1.416-.7-2.147-1.032a12.587,12.587,0,0,1-2.4-1.332,8.855,8.855,0,0,1-2.4-2.855,5.535,5.535,0,0,1-.324-.672,7.951,7.951,0,0,1,.78-8,9.1,9.1,0,0,0,1.2-2.4,6.367,6.367,0,0,0-.648-4.679h0l-.252-.456.852-.828.408.132a8.533,8.533,0,0,0,5.194-.1,8.98,8.98,0,0,0,1-.408,3.015,3.015,0,0,1,2.567,0,8.6,8.6,0,0,0,4.1.828,9.327,9.327,0,0,0,2.4-.492l.84.828a10.1,10.1,0,0,0-.78,1.68,6.731,6.731,0,0,0-.228,2.975,7.933,7.933,0,0,0,1.3,3.095,8.97,8.97,0,0,1,1.344,3.047,8.52,8.52,0,0,1-.312,4.067,8.928,8.928,0,0,1-1.2,2.4,9.679,9.679,0,0,1-3.455,2.915c-.972.492-2,.876-2.975,1.38Z" transform="translate(-982.283 -2242.332)" fill-rule="evenodd" opacity="0.5" style="isolation: isolate"/>
      <path id="Trazado_118679" data-name="Trazado 118679" d="M1012.176,2259.778a5.182,5.182,0,1,1-5.182,5.182,5.183,5.183,0,0,1,5.182-5.182Z" transform="translate(-981.418 -2241.052)" fill="#407bff" fill-rule="evenodd"/>
      <path id="Trazado_118680" data-name="Trazado 118680" d="M1012.176,2259.778a5.182,5.182,0,1,1-5.182,5.182,5.183,5.183,0,0,1,5.182-5.182Z" transform="translate(-981.418 -2241.052)" fill-rule="evenodd" opacity="0.5" style="isolation: isolate"/>
    </g>
    <g id="freepik--hammer-of-law--inject-349" transform="translate(1223.619 2245.322)">
      <rect id="Rectángulo_28962" data-name="Rectángulo 28962" width="70.166" height="52.351" rx="4.38" transform="translate(27.855)" fill="#407bff"/>
      <path id="Trazado_118681" data-name="Trazado 118681" d="M1196.2,2241.838s-11.768,17.514-37.38,9.321c0,0,27.531,18.99,46.869-2.2Z" transform="translate(-1158.824 -2222.776)" fill="#407bff" fill-rule="evenodd"/>
      <rect id="Rectángulo_28963" data-name="Rectángulo 28963" width="60.581" height="42.755" rx="0.38" transform="translate(32.653 4.786)" fill="#e36099" style="isolation: isolate"/>
      <path id="Trazado_118682" data-name="Trazado 118682" d="M1195.509,2264.257h0a4.1,4.1,0,0,1-2.975-2.843v-.18l18.186-18.186,3.023,3.023Z" transform="translate(-1152.094 -2222.535)" fill="#407bff"/>
      <path id="Trazado_118683" data-name="Trazado 118683" d="M1195.509,2264.257h0a4.1,4.1,0,0,1-2.975-2.843v-.18l18.186-18.186,3.023,3.023Z" transform="translate(-1152.094 -2222.535)" opacity="0.5" style="isolation: isolate"/>
      <rect id="Rectángulo_28964" data-name="Rectángulo 28964" width="5.194" height="5.398" transform="translate(56.279 22.016) rotate(-45)" fill="#407bff"/>
      <rect id="Rectángulo_28965" data-name="Rectángulo 28965" width="5.194" height="5.398" transform="translate(56.279 22.016) rotate(-45)" opacity="0.7" style="isolation: isolate"/>
      <rect id="Rectángulo_28966" data-name="Rectángulo 28966" width="8.577" height="16.243" transform="translate(54.578 16.043) rotate(-45)" fill="#407bff"/>
      <rect id="Rectángulo_28967" data-name="Rectángulo 28967" width="8.577" height="16.243" transform="translate(54.578 16.043) rotate(-45)" opacity="0.3" style="isolation: isolate"/>
      <rect id="Rectángulo_28968" data-name="Rectángulo 28968" width="10.605" height="4.942" rx="1" transform="translate(52.075 14.964) rotate(-45)" fill="#407bff"/>
      <rect id="Rectángulo_28969" data-name="Rectángulo 28969" width="10.605" height="4.942" rx="1" transform="translate(63.643 26.545) rotate(-45)" fill="#407bff"/>
      <g id="Grupo_55025" data-name="Grupo 55025" transform="translate(52.075 7.465)" opacity="0.5">
        <rect id="Rectángulo_28970" data-name="Rectángulo 28970" width="10.605" height="4.942" rx="1" transform="translate(0 7.499) rotate(-45)"/>
        <rect id="Rectángulo_28971" data-name="Rectángulo 28971" width="10.605" height="4.942" rx="1" transform="translate(11.568 19.08) rotate(-45)"/>
      </g>
      <path id="Trazado_118684" data-name="Trazado 118684" d="M1212.2,2253.368h15.379a1.488,1.488,0,0,1,1.488,1.488v4.367h-18.354v-4.391A1.487,1.487,0,0,1,1212.2,2253.368Z" transform="translate(-1148.466 -2220.475)" fill="#407bff"/>
      <path id="Trazado_118685" data-name="Trazado 118685" d="M1212.2,2253.368h15.379a1.488,1.488,0,0,1,1.488,1.488v4.367h-18.354v-4.391A1.487,1.487,0,0,1,1212.2,2253.368Z" transform="translate(-1148.466 -2220.475)" opacity="0.3" style="isolation: isolate"/>
      <path id="Trazado_118686" data-name="Trazado 118686" d="M1229.755,2258.048h-19.1a1.583,1.583,0,0,0-1.584,1.571h0a1.583,1.583,0,0,0,1.584,1.583h19.1a1.583,1.583,0,0,0,1.584-1.583h0A1.584,1.584,0,0,0,1229.755,2258.048Z" transform="translate(-1148.793 -2219.54)" fill="#407bff"/>
      <path id="Trazado_118687" data-name="Trazado 118687" d="M1229.755,2258.048h-19.1a1.583,1.583,0,0,0-1.584,1.571h0a1.583,1.583,0,0,0,1.584,1.583h19.1a1.583,1.583,0,0,0,1.584-1.583h0A1.584,1.584,0,0,0,1229.755,2258.048Z" transform="translate(-1148.793 -2219.54)" opacity="0.5" style="isolation: isolate"/>
    </g>
    <g id="freepik--legal-balance--inject-349" transform="translate(967.644 2128.898)">
      <rect id="Rectángulo_28972" data-name="Rectángulo 28972" width="94.83" height="70.742" rx="5.92" fill="#407bff"/>
      <path id="Trazado_118688" data-name="Trazado 118688" d="M1014.538,2176.848s-1.967,20.969,23.045,30.866c0,0-33.337-2.711-34.909-31.347Z" transform="translate(-934.019 -2119.422)" fill="#407bff" fill-rule="evenodd"/>
      <rect id="Rectángulo_28973" data-name="Rectángulo 28973" width="85.233" height="61.145" rx="1.92" transform="translate(4.798 4.798)" fill="#e36099" style="isolation: isolate"/>
      <path id="Trazado_118689" data-name="Trazado 118689" d="M978.74,2159.528a7.293,7.293,0,0,1-13.615,0Z" transform="translate(-941.515 -2122.783)" fill="#407bff"/>
      <path id="Trazado_118690" data-name="Trazado 118690" d="M978.74,2159.528a7.293,7.293,0,0,1-13.615,0Z" transform="translate(-941.515 -2122.783)" opacity="0.5" style="isolation: isolate"/>
      <path id="Trazado_118691" data-name="Trazado 118691" d="M978.788,2160.97a.247.247,0,0,1-.216-.132l-6.622-12.584-6.6,12.584a.249.249,0,0,1-.444-.228l6.814-12.992a.265.265,0,0,1,.365-.079.281.281,0,0,1,.079.079l6.814,12.992a.252.252,0,0,1-.108.336Z" transform="translate(-941.563 -2125.185)" fill="#407bff"/>
      <g id="Grupo_55026" data-name="Grupo 55026" transform="translate(23.318 22.312)" opacity="0.7">
        <path id="Trazado_118692" data-name="Trazado 118692" d="M978.788,2160.97a.247.247,0,0,1-.216-.132l-6.622-12.584-6.6,12.584a.249.249,0,0,1-.444-.228l6.814-12.992a.265.265,0,0,1,.365-.079.281.281,0,0,1,.079.079l6.814,12.992a.252.252,0,0,1-.108.336Z" transform="translate(-964.881 -2147.497)"/>
      </g>
      <path id="Trazado_118693" data-name="Trazado 118693" d="M970.816,2161.6a.239.239,0,0,1-.252-.227v-13.641a.238.238,0,0,1,.239-.24h.013a.241.241,0,0,1,.24.24v13.6a.241.241,0,0,1-.215.263Z" transform="translate(-940.429 -2125.187)" fill="#407bff"/>
      <g id="Grupo_55027" data-name="Grupo 55027" transform="translate(30.135 22.301)" opacity="0.7">
        <path id="Trazado_118694" data-name="Trazado 118694" d="M970.816,2161.6a.239.239,0,0,1-.252-.227v-13.641a.238.238,0,0,1,.239-.24h.013a.241.241,0,0,1,.24.24v13.6a.241.241,0,0,1-.215.263Z" transform="translate(-970.564 -2147.488)"/>
      </g>
      <rect id="Rectángulo_28974" data-name="Rectángulo 28974" width="15.571" height="1.212" transform="translate(22.637 35.533)" fill="#407bff"/>
      <rect id="Rectángulo_28975" data-name="Rectángulo 28975" width="15.571" height="1.212" transform="translate(22.637 35.533)" opacity="0.3" style="isolation: isolate"/>
      <path id="Trazado_118695" data-name="Trazado 118695" d="M1006.842,2159.528a7.305,7.305,0,0,1-13.628,0Z" transform="translate(-935.908 -2122.783)" fill="#407bff"/>
      <path id="Trazado_118696" data-name="Trazado 118696" d="M1006.842,2159.528a7.305,7.305,0,0,1-13.628,0Z" transform="translate(-935.908 -2122.783)" opacity="0.5" style="isolation: isolate"/>
      <path id="Trazado_118697" data-name="Trazado 118697" d="M1006.882,2160.97a.227.227,0,0,1-.216-.132l-6.6-12.584-6.6,12.584a.244.244,0,0,1-.432-.228h0l6.814-12.992a.253.253,0,0,1,.345-.086.272.272,0,0,1,.086.086l6.838,12.992a.252.252,0,0,1-.108.336Z" transform="translate(-935.948 -2125.186)" fill="#407bff"/>
      <g id="Grupo_55028" data-name="Grupo 55028" transform="translate(57.062 22.311)" opacity="0.7">
        <path id="Trazado_118698" data-name="Trazado 118698" d="M1006.882,2160.97a.227.227,0,0,1-.216-.132l-6.6-12.584-6.6,12.584a.244.244,0,0,1-.432-.228h0l6.814-12.992a.253.253,0,0,1,.345-.086.272.272,0,0,1,.086.086l6.838,12.992a.252.252,0,0,1-.108.336Z" transform="translate(-993.01 -2147.497)"/>
      </g>
      <path id="Trazado_118699" data-name="Trazado 118699" d="M998.936,2161.6a.251.251,0,0,1-.252-.24v-13.628a.251.251,0,0,1,.252-.24.24.24,0,0,1,.24.24v13.6a.24.24,0,0,1-.215.263Z" transform="translate(-934.816 -2125.187)" fill="#407bff"/>
      <g id="Grupo_55029" data-name="Grupo 55029" transform="translate(63.868 22.301)" opacity="0.7">
        <path id="Trazado_118700" data-name="Trazado 118700" d="M998.936,2161.6a.251.251,0,0,1-.252-.24v-13.628a.251.251,0,0,1,.252-.24.24.24,0,0,1,.24.24v13.6a.24.24,0,0,1-.215.263Z" transform="translate(-998.684 -2147.488)"/>
      </g>
      <rect id="Rectángulo_28976" data-name="Rectángulo 28976" width="15.571" height="1.212" transform="translate(56.334 35.533)" fill="#407bff"/>
      <rect id="Rectángulo_28977" data-name="Rectángulo 28977" width="15.571" height="1.212" transform="translate(56.334 35.533)" opacity="0.3" style="isolation: isolate"/>
      <path id="Trazado_118701" data-name="Trazado 118701" d="M987.814,2144.248v2.507c-2.543,0-5.422,1.44-7.714,2.711a9.012,9.012,0,0,1-4.895,1.08,13.379,13.379,0,0,1-5.662-2.292v-1.4a10.529,10.529,0,0,0,5.554,1.944,8.976,8.976,0,0,0,5-1.848A16.681,16.681,0,0,1,987.814,2144.248Z" transform="translate(-940.633 -2125.834)" fill="#407bff"/>
      <path id="Trazado_118702" data-name="Trazado 118702" d="M987.814,2144.248v2.507c-2.543,0-5.422,1.44-7.714,2.711a9.012,9.012,0,0,1-4.895,1.08,13.379,13.379,0,0,1-5.662-2.292v-1.4a10.529,10.529,0,0,0,5.554,1.944,8.976,8.976,0,0,0,5-1.848A16.681,16.681,0,0,1,987.814,2144.248Z" transform="translate(-940.633 -2125.834)" opacity="0.3" style="isolation: isolate"/>
      <path id="Trazado_118703" data-name="Trazado 118703" d="M971.253,2147.117a1.44,1.44,0,1,1-1.439-1.439h0a1.429,1.429,0,0,1,1.439,1.416Z" transform="translate(-940.866 -2125.549)" fill="#407bff"/>
      <path id="Trazado_118704" data-name="Trazado 118704" d="M971.253,2147.117a1.44,1.44,0,1,1-1.439-1.439h0a1.429,1.429,0,0,1,1.439,1.416Z" transform="translate(-940.866 -2125.549)" opacity="0.5" style="isolation: isolate"/>
      <path id="Trazado_118705" data-name="Trazado 118705" d="M984.774,2144.248v2.507c2.543,0,5.422,1.44,7.726,2.711a8.983,8.983,0,0,0,4.894,1.08,13.494,13.494,0,0,0,5.662-2.292v-1.4a10.6,10.6,0,0,1-5.566,1.944,8.935,8.935,0,0,1-4.99-1.848A16.812,16.812,0,0,0,984.774,2144.248Z" transform="translate(-937.592 -2125.834)" fill="#407bff"/>
      <path id="Trazado_118706" data-name="Trazado 118706" d="M984.774,2144.248v2.507c2.543,0,5.422,1.44,7.726,2.711a8.983,8.983,0,0,0,4.894,1.08,13.494,13.494,0,0,0,5.662-2.292v-1.4a10.6,10.6,0,0,1-5.566,1.944,8.935,8.935,0,0,1-4.99-1.848A16.812,16.812,0,0,0,984.774,2144.248Z" transform="translate(-937.592 -2125.834)" opacity="0.3" style="isolation: isolate"/>
      <path id="Trazado_118707" data-name="Trazado 118707" d="M998.894,2147.117a1.433,1.433,0,1,0,0-.012Z" transform="translate(-934.774 -2125.549)" fill="#407bff"/>
      <path id="Trazado_118708" data-name="Trazado 118708" d="M998.894,2147.117a1.433,1.433,0,1,0,0-.012Z" transform="translate(-934.774 -2125.549)" opacity="0.5" style="isolation: isolate"/>
      <rect id="Rectángulo_28978" data-name="Rectángulo 28978" width="3.635" height="37.188" transform="translate(45.382 14.048)" fill="#407bff"/>
      <rect id="Rectángulo_28979" data-name="Rectángulo 28979" width="3.635" height="37.188" transform="translate(45.382 14.048)" opacity="0.7" style="isolation: isolate"/>
      <path id="Trazado_118709" data-name="Trazado 118709" d="M988.38,2146.181a3.071,3.071,0,1,1,0-.024Z" transform="translate(-938.103 -2126.064)" fill="#407bff"/>
      <path id="Trazado_118710" data-name="Trazado 118710" d="M988.38,2146.181a3.071,3.071,0,1,1,0-.024Z" transform="translate(-938.103 -2126.064)" opacity="0.5" style="isolation: isolate"/>
      <path id="Trazado_118711" data-name="Trazado 118711" d="M987.572,2139.2a2.4,2.4,0,1,1-2.4-2.4A2.4,2.4,0,0,1,987.572,2139.2Z" transform="translate(-937.992 -2127.321)" fill="#407bff"/>
      <path id="Trazado_118712" data-name="Trazado 118712" d="M987.572,2139.2a2.4,2.4,0,1,1-2.4-2.4A2.4,2.4,0,0,1,987.572,2139.2Z" transform="translate(-937.992 -2127.321)" opacity="0.5" style="isolation: isolate"/>
      <path id="Trazado_118713" data-name="Trazado 118713" d="M996.412,2177.172H976.474v-4.355a1.2,1.2,0,0,1,1.2-1.2h17.538a1.2,1.2,0,0,1,1.2,1.2Z" transform="translate(-939.249 -2120.37)" fill="#407bff"/>
      <path id="Trazado_118714" data-name="Trazado 118714" d="M996.412,2177.172H976.474v-4.355a1.2,1.2,0,0,1,1.2-1.2h17.538a1.2,1.2,0,0,1,1.2,1.2Z" transform="translate(-939.249 -2120.37)" opacity="0.3" style="isolation: isolate"/>
      <path id="Trazado_118715" data-name="Trazado 118715" d="M1003.819,2180.365H971.777a2.063,2.063,0,0,1-2.063-2.063h0a2.063,2.063,0,0,1,2.063-2.063h32.042a2.063,2.063,0,0,1,2.063,2.063h0a2.063,2.063,0,0,1-2.063,2.063Z" transform="translate(-940.599 -2119.448)" fill="#407bff"/>
      <path id="Trazado_118716" data-name="Trazado 118716" d="M1003.819,2180.365H971.777a2.063,2.063,0,0,1-2.063-2.063h0a2.063,2.063,0,0,1,2.063-2.063h32.042a2.063,2.063,0,0,1,2.063,2.063h0a2.063,2.063,0,0,1-2.063,2.063Z" transform="translate(-940.599 -2119.448)" opacity="0.5" style="isolation: isolate"/>
      <rect id="Rectángulo_28980" data-name="Rectángulo 28980" width="19.938" height="1.356" transform="translate(37.224 52.664)" fill="#407bff"/>
      <rect id="Rectángulo_28981" data-name="Rectángulo 28981" width="19.938" height="1.356" transform="translate(37.224 52.664)" opacity="0.5" style="isolation: isolate"/>
      <path id="Trazado_118717" data-name="Trazado 118717" d="M987.974,2140.924a1.007,1.007,0,0,1-1,1.008h-3.467a1.018,1.018,0,0,1-1.008-1.008h0a1.007,1.007,0,0,1,1.008-1h3.467a1,1,0,0,1,1,1Z" transform="translate(-938.046 -2126.696)" fill="#407bff"/>
      <path id="Trazado_118718" data-name="Trazado 118718" d="M987.974,2140.924a1.007,1.007,0,0,1-1,1.008h-3.467a1.018,1.018,0,0,1-1.008-1.008h0a1.007,1.007,0,0,1,1.008-1h3.467a1,1,0,0,1,1,1Z" transform="translate(-938.046 -2126.696)" opacity="0.3" style="isolation: isolate"/>
    </g>
    <g id="freepik--Paper--inject-349" transform="translate(1216.565 2128.898)">
      <rect id="Rectángulo_28982" data-name="Rectángulo 28982" width="81.706" height="60.953" rx="5.1" transform="translate(6.705)" fill="#407bff"/>
      <path id="Trazado_118719" data-name="Trazado 118719" d="M1175.989,2172.328s1.979,21.017-23.045,30.866c0,0,33.337-2.711,34.909-31.346Z" transform="translate(-1152.944 -2120.324)" fill="#407bff" fill-rule="evenodd"/>
      <rect id="Rectángulo_28983" data-name="Rectángulo 28983" width="72.109" height="51.356" rx="1.1" transform="translate(11.504 4.81)" fill="#e36099" style="isolation: isolate"/>
      <path id="Trazado_118720" data-name="Trazado 118720" d="M1205.036,2137.248h0a2.987,2.987,0,0,1,2.987,2.987v1.451h-8.169Z" transform="translate(-1143.58 -2127.231)" fill="#407bff"/>
      <path id="Trazado_118721" data-name="Trazado 118721" d="M1205.036,2137.248h0a2.987,2.987,0,0,1,2.987,2.987v1.451h-8.169Z" transform="translate(-1143.58 -2127.231)" opacity="0.7" style="isolation: isolate"/>
      <path id="Trazado_118722" data-name="Trazado 118722" d="M1210.419,2176.835c5.89-11.684-5.9-28.875-1.308-39.587h-25.036a4.582,4.582,0,0,0-4.558,4.2c-.972,10.881,7.941,25.852,1.9,36.132h27.675A1.475,1.475,0,0,0,1210.419,2176.835Z" transform="translate(-1147.655 -2127.231)" fill="#407bff"/>
      <path id="Trazado_118723" data-name="Trazado 118723" d="M1210.419,2176.835c5.89-11.684-5.9-28.875-1.308-39.587h-25.036a4.582,4.582,0,0,0-4.558,4.2c-.972,10.881,7.941,25.852,1.9,36.132h27.675A1.475,1.475,0,0,0,1210.419,2176.835Z" transform="translate(-1147.655 -2127.231)" opacity="0.3" style="isolation: isolate"/>
      <path id="Trazado_118724" data-name="Trazado 118724" d="M1181.521,2171.479h0a2.627,2.627,0,0,1-2.627-2.627h0v-.984h27.819v.984a2.627,2.627,0,0,0,2.627,2.627h-27.819Z" transform="translate(-1147.764 -2121.119)" fill="#407bff"/>
      <path id="Trazado_118725" data-name="Trazado 118725" d="M1181.521,2171.479h0a2.627,2.627,0,0,1-2.627-2.627h0v-.984h27.819v.984a2.627,2.627,0,0,0,2.627,2.627h-27.819Z" transform="translate(-1147.764 -2121.119)" opacity="0.5" style="isolation: isolate"/>
      <rect id="Rectángulo_28984" data-name="Rectángulo 28984" width="19.71" height="1.643" transform="translate(35.712 15.595)" opacity="0.3" style="isolation: isolate"/>
      <rect id="Rectángulo_28985" data-name="Rectángulo 28985" width="19.71" height="1.643" transform="translate(36.636 21.401)" opacity="0.3" style="isolation: isolate"/>
      <rect id="Rectángulo_28986" data-name="Rectángulo 28986" width="19.71" height="1.643" transform="translate(37.704 25.792)" opacity="0.3" style="isolation: isolate"/>
      <rect id="Rectángulo_28987" data-name="Rectángulo 28987" width="19.71" height="1.643" transform="translate(38.759 30.195)" opacity="0.3" style="isolation: isolate"/>
      <circle id="Elipse_5399" data-name="Elipse 5399" cx="3.035" cy="3.035" r="3.035" transform="translate(53.239 37.236)" opacity="0.3" style="isolation: isolate"/>
    </g>
  </g>
</svg>
