<svg xmlns="http://www.w3.org/2000/svg" width="120" height="120" viewBox="0 0 120 120">
  <g id="Grupo_55221" data-name="Grupo 55221" transform="translate(-203 -1318)">
    <g id="Icon" transform="translate(211 1326)">
      <rect id="Rectángulo_29022" data-name="Rectángulo 29022" width="120" height="120" transform="translate(-8 -8)" fill="none"/>
      <circle id="Base" cx="51.652" cy="51.652" r="51.652" transform="translate(0 0)" fill="#ea3065"/>
    </g>
    <g id="Grupo_55101" data-name="Grupo 55101" transform="translate(229.116 1318.678)">
      <g id="Grupo_53045" data-name="Grupo 53045" transform="translate(0 27.127)">
        <path id="Trazado_114948" data-name="Trazado 114948" d="M56.554,52.687c0-.014,0-.916,0-9.286a2.3,2.3,0,0,0,.739-1.689V38.97a2.3,2.3,0,0,0-.757-1.7,10.654,10.654,0,0,0-21.283,0,2.3,2.3,0,0,0-.757,1.7v2.742a2.3,2.3,0,0,0,.74,1.69V46.31a.924.924,0,0,0,.924.924h0a.924.924,0,0,0,.924-.924V44.022h1.241a7.847,7.847,0,0,0,2.848,4.146c-.021,1.961.05,2.026-.07,2.341-.306.805-.889.6-4.021,1.479V50.63a.924.924,0,0,0-.924-.924h0a.924.924,0,0,0-.924.924v2.057A11.5,11.5,0,0,0,28.715,63.04V64.5a13.154,13.154,0,0,0-1.98-.547l-2.2-.423A1.153,1.153,0,0,1,23.6,62.4v-.752a10.258,10.258,0,0,0,1.265-.951,8.45,8.45,0,0,0,2.772-5.4,4.029,4.029,0,0,1,.469-1.429c.88-1.626.725-3.416,1.145-4.56.68-1.468.762-3.732-.3-4.882A3.353,3.353,0,0,0,26.755,41.4a2.935,2.935,0,0,0-2.516-2.03A3.05,3.05,0,0,0,21.1,38.319a3.123,3.123,0,0,0-2.388-.821,3.119,3.119,0,0,0-2.388.821,3.048,3.048,0,0,0-3.139,1.049,2.931,2.931,0,0,0-2.516,2.03,3.353,3.353,0,0,0-2.193,3.021c-1.085,1.169-.982,3.441-.293,4.909.124.329.406,1.982.478,2.421.359,2.195.981,2.25,1.151,3.617a8.448,8.448,0,0,0,2.817,5.379,10.3,10.3,0,0,0,1.193.889V62.4a1.145,1.145,0,0,1-.894,1.12h0l-2.239.434a13.111,13.111,0,0,0-4.694,1.891A.924.924,0,1,0,7,67.39a11.265,11.265,0,0,1,4.035-1.625l1.813-.349a9.1,9.1,0,0,0,6.063,2.3h0A9.106,9.106,0,0,0,24.91,65.48l1.477.284a11.347,11.347,0,0,1,9.19,11.127v2.7a2.082,2.082,0,0,1-2.08,2.08H30.723V78.4a.924.924,0,1,0-1.848,0v3.273H8.528V78.4a.924.924,0,1,0-1.848,0v3.273H3.928a2.082,2.082,0,0,1-2.08-2.08v-2.7a11.248,11.248,0,0,1,2.243-6.767.924.924,0,0,0-1.482-1.1A13.083,13.083,0,0,0,0,76.891v2.7a3.932,3.932,0,0,0,3.928,3.928H59.653a3.424,3.424,0,0,0,3.42-3.42V63.04a11.505,11.505,0,0,0-6.519-10.353Zm-45.2-9.574a1.765,1.765,0,0,0,1.075-1.167,1.085,1.085,0,0,1,.993-.744,1.633,1.633,0,0,0,1.193-.667,1.2,1.2,0,0,1,1.268-.42,1.77,1.77,0,0,0,1.691-.438,1.356,1.356,0,0,1,1.134-.331,1.388,1.388,0,0,1,1.134.331,1.769,1.769,0,0,0,1.691.438l.011,0a1.352,1.352,0,0,1,1.437.63,1.6,1.6,0,0,0,.846.438c.149.026.953.033,1.158.765a1.766,1.766,0,0,0,1.075,1.167,1.52,1.52,0,0,1,1.037,1.4,1.6,1.6,0,0,0,.47,1.138,3.209,3.209,0,0,1,0,2.878c-.5,1.065-.4,3.17-1.1,4.46-.573,1.059-.527,1.83-1.606,2.638l-.018.014a10.29,10.29,0,0,1-12.207.046l-.062-.046c-1.059-.792-1.114-1.651-1.617-2.591-.657-1.231-.622-3.471-1.11-4.5a3.189,3.189,0,0,1-.006-2.9,1.6,1.6,0,0,0,.47-1.137,1.52,1.52,0,0,1,1.037-1.4Zm1.221,14.74a12.113,12.113,0,0,0,6.177,1.667h.018a12.1,12.1,0,0,0,6.084-1.665,6.267,6.267,0,0,1-1.212,1.451,7.261,7.261,0,0,1-9.81.042A6.273,6.273,0,0,1,12.58,57.853Zm2.167,6.707a2.978,2.978,0,0,0,.916-2.016,8.9,8.9,0,0,0,6.1.005,3,3,0,0,0,1.1,2.167A7.271,7.271,0,0,1,14.747,64.559ZM61.225,63.04v4.7H57.916V65.88a.924.924,0,1,0-1.848,0v1.859H50.986A43.007,43.007,0,0,0,51.137,53c2.192.562,2.228.573,2.272.581A9.65,9.65,0,0,1,61.225,63.04Zm-18.542,4.7a41.059,41.059,0,0,1-.639-10.775,11.248,11.248,0,0,0,7.7,0A41.063,41.063,0,0,1,49.1,67.739Zm12.3-29.23a.463.463,0,0,1,.462.462v2.742a.463.463,0,0,1-.462.462H53.754c.013-.341,0,.1.006-3.666Zm-2.11,7.147c-.011-.029-.02-.059-.032-.087a7.851,7.851,0,0,0,.621-1.546H54.7v.532a1.123,1.123,0,0,1-1.122,1.1Zm-1.7.814A.532.532,0,0,1,50.64,47H48.534a.531.531,0,0,1,0-1.062H50.64A.532.532,0,0,1,51.171,46.469Zm.3,4.707.012,0a1.082,1.082,0,0,1-.87-1.043V48.848h.025A2.38,2.38,0,0,0,52.78,47.5h.8a2.954,2.954,0,0,0,1.122-.221v4.706l-3.233-.812Zm-5.579-22.2a8.828,8.828,0,0,1,8.734,7.686H53.071a5.573,5.573,0,0,1-2.627-3.232,1.293,1.293,0,0,0-2.36-.231c-2.193,3.947-7,3.463-10.922,3.463A8.827,8.827,0,0,1,45.894,28.975Zm-9.088,13.2a.463.463,0,0,1-.462-.462V38.97a.463.463,0,0,1,.462-.462h1.222c.006,4.145-.008,3.259.007,3.666Zm3.07-.2V38.508c.441-.072,6.125.615,9.221-3.489a7.394,7.394,0,0,0,2.815,3.108v3.847a6.015,6.015,0,0,1-.479,2.256,2.363,2.363,0,0,0-.793-.139H48.534A2.375,2.375,0,0,0,46.6,47.851a6,6,0,0,1-6.725-5.878ZM48.767,49.2c.037,1.1.634,4.532.792,5.85a9.366,9.366,0,0,1-7.33,0c.158-1.315.756-4.748.792-5.847A7.869,7.869,0,0,0,48.767,49.2Zm-18.2,16.129V63.04a9.649,9.649,0,0,1,7.815-9.463c.044-.009.08-.019,2.272-.581A43.008,43.008,0,0,0,40.8,67.739H35.72V65.88a.924.924,0,1,0-1.848,0v1.859h-.154a13.193,13.193,0,0,0-3.155-2.411ZM61.225,80.1a1.572,1.572,0,0,1-1.572,1.572H36.826a3.9,3.9,0,0,0,.6-2.08v-2.7A13.128,13.128,0,0,0,35.5,70.049l-.2-.315a.1.1,0,0,1,.081-.148H61.225Z" transform="translate(0 -27.127)" fill="#fff" stroke="rgba(0,0,0,0)" stroke-width="1"/>
        <path id="Trazado_114949" data-name="Trazado 114949" d="M427.433,282.522v1.443a1.912,1.912,0,0,0,1.91,1.91H432.3a1.912,1.912,0,0,0,1.91-1.91v-1.443a1.912,1.912,0,0,0-1.91-1.91h-2.957A1.912,1.912,0,0,0,427.433,282.522Zm1.848,0a.062.062,0,0,1,.062-.062H432.3a.062.062,0,0,1,.062.062v1.443a.062.062,0,0,1-.062.062h-2.957a.062.062,0,0,1-.062-.062Z" transform="translate(-374.778 -249.385)" fill="#fff" stroke="rgba(0,0,0,0)" stroke-width="1"/>
      </g>
    </g>
  </g>
</svg>
