<svg xmlns="http://www.w3.org/2000/svg" width="165.304" height="165.304" viewBox="0 0 165.304 165.304">
  <g id="Grupo_55340" data-name="Grupo 55340" transform="translate(9198 6123)">
    <circle id="Base" cx="82.652" cy="82.652" r="82.652" transform="translate(-9198 -6123)" fill="#ea3065"/>
    <g id="file" transform="translate(-9153 -6084)">
      <g id="Grupo_55308" data-name="Grupo 55308" transform="translate(8.56 45.997)">
        <g id="Grupo_55294" data-name="Grupo 55294">
          <g id="Grupo_55293" data-name="Grupo 55293">
            <g id="Grupo_55292" data-name="Grupo 55292">
              <g id="Grupo_55291" data-name="Grupo 55291">
                <g id="Grupo_55290" data-name="Grupo 55290">
                  <g id="Grupo_55289" data-name="Grupo 55289">
                    <g id="Grupo_55288" data-name="Grupo 55288">
                      <path id="Trazado_119928" data-name="Trazado 119928" d="M89.664,284.86a7.541,7.541,0,1,1,7.541-7.541A7.55,7.55,0,0,1,89.664,284.86Zm0-11.672a4.131,4.131,0,1,0,4.131,4.131A4.136,4.136,0,0,0,89.664,273.188Z" transform="translate(-82.123 -269.778)" fill="#fff"/>
                    </g>
                  </g>
                </g>
              </g>
            </g>
          </g>
        </g>
        <g id="Grupo_55307" data-name="Grupo 55307" transform="translate(19.334 2.5)">
          <g id="Grupo_55300" data-name="Grupo 55300" transform="translate(0)">
            <g id="Grupo_55299" data-name="Grupo 55299">
              <g id="Grupo_55298" data-name="Grupo 55298">
                <g id="Grupo_55297" data-name="Grupo 55297">
                  <g id="Grupo_55296" data-name="Grupo 55296">
                    <g id="Grupo_55295" data-name="Grupo 55295">
                      <path id="Trazado_119929" data-name="Trazado 119929" d="M212.721,287.851h-15.5a1.7,1.7,0,0,1,0-3.41h15.5a1.7,1.7,0,1,1,0,3.41Z" transform="translate(-195.52 -284.441)" fill="#fff"/>
                    </g>
                  </g>
                </g>
              </g>
            </g>
          </g>
          <g id="Grupo_55306" data-name="Grupo 55306" transform="translate(0 6.672)">
            <g id="Grupo_55305" data-name="Grupo 55305">
              <g id="Grupo_55304" data-name="Grupo 55304">
                <g id="Grupo_55303" data-name="Grupo 55303">
                  <g id="Grupo_55302" data-name="Grupo 55302">
                    <g id="Grupo_55301" data-name="Grupo 55301">
                      <path id="Trazado_119930" data-name="Trazado 119930" d="M220.581,326.982H197.225a1.7,1.7,0,0,1,0-3.41h23.356a1.7,1.7,0,1,1,0,3.41Z" transform="translate(-195.52 -323.572)" fill="#fff"/>
                    </g>
                  </g>
                </g>
              </g>
            </g>
          </g>
        </g>
      </g>
      <g id="Grupo_55329" data-name="Grupo 55329" transform="translate(8.56 65.301)">
        <g id="Grupo_55315" data-name="Grupo 55315">
          <g id="Grupo_55314" data-name="Grupo 55314">
            <g id="Grupo_55313" data-name="Grupo 55313">
              <g id="Grupo_55312" data-name="Grupo 55312">
                <g id="Grupo_55311" data-name="Grupo 55311">
                  <g id="Grupo_55310" data-name="Grupo 55310">
                    <g id="Grupo_55309" data-name="Grupo 55309">
                      <path id="Trazado_119931" data-name="Trazado 119931" d="M89.664,398.085a7.541,7.541,0,1,1,7.541-7.541A7.549,7.549,0,0,1,89.664,398.085Zm0-11.672a4.131,4.131,0,1,0,4.131,4.131A4.136,4.136,0,0,0,89.664,386.413Z" transform="translate(-82.123 -383.003)" fill="#fff"/>
                    </g>
                  </g>
                </g>
              </g>
            </g>
          </g>
        </g>
        <g id="Grupo_55328" data-name="Grupo 55328" transform="translate(19.334 2.5)">
          <g id="Grupo_55321" data-name="Grupo 55321" transform="translate(0)">
            <g id="Grupo_55320" data-name="Grupo 55320">
              <g id="Grupo_55319" data-name="Grupo 55319">
                <g id="Grupo_55318" data-name="Grupo 55318">
                  <g id="Grupo_55317" data-name="Grupo 55317">
                    <g id="Grupo_55316" data-name="Grupo 55316">
                      <path id="Trazado_119932" data-name="Trazado 119932" d="M212.721,401.077h-15.5a1.7,1.7,0,1,1,0-3.41h15.5a1.7,1.7,0,1,1,0,3.41Z" transform="translate(-195.52 -397.667)" fill="#fff"/>
                    </g>
                  </g>
                </g>
              </g>
            </g>
          </g>
          <g id="Grupo_55327" data-name="Grupo 55327" transform="translate(0 6.672)">
            <g id="Grupo_55326" data-name="Grupo 55326">
              <g id="Grupo_55325" data-name="Grupo 55325">
                <g id="Grupo_55324" data-name="Grupo 55324">
                  <g id="Grupo_55323" data-name="Grupo 55323">
                    <g id="Grupo_55322" data-name="Grupo 55322">
                      <path id="Trazado_119933" data-name="Trazado 119933" d="M220.581,440.207H197.225a1.705,1.705,0,0,1,0-3.41h23.356a1.705,1.705,0,1,1,0,3.41Z" transform="translate(-195.52 -436.797)" fill="#fff"/>
                    </g>
                  </g>
                </g>
              </g>
            </g>
          </g>
        </g>
      </g>
      <g id="Grupo_55331" data-name="Grupo 55331" transform="translate(0)">
        <g id="Grupo_55330" data-name="Grupo 55330">
          <path id="Trazado_119934" data-name="Trazado 119934" d="M141.832,41.061a19.234,19.234,0,0,0-9.859,35.751l.005,0a19.248,19.248,0,0,0,19.706,0,1.7,1.7,0,0,0,.83-1.463V66.6a4.572,4.572,0,0,0-3.7-4.484,8.99,8.99,0,1,0-13.958,0,4.572,4.572,0,0,0-3.7,4.484v5.363a15.815,15.815,0,1,1,25.521-6.154,1.7,1.7,0,1,0,3.2,1.188,19.245,19.245,0,0,0-18.033-25.935Zm0,9.815a5.58,5.58,0,0,1,.039,11.159h-.079a5.58,5.58,0,0,1,.039-11.159ZM134.559,66.6a1.155,1.155,0,0,1,1.153-1.155h12.24a1.155,1.155,0,0,1,1.153,1.155v7.752a15.849,15.849,0,0,1-14.546,0Z" transform="translate(-107.137 -34.06)" fill="#fff"/>
          <path id="Trazado_119935" data-name="Trazado 119935" d="M108.1,23.559,101.308,11.75V1.7A1.7,1.7,0,0,0,99.6,0H33.623a1.7,1.7,0,0,0-1.7,1.7V85.59a1.7,1.7,0,0,0,1.7,1.7h70.509a4.2,4.2,0,0,0,4.2-4.2V24.41A1.7,1.7,0,0,0,108.1,23.559ZM94.286,27.7V24.865l.863-1.5h8.907l.863,1.5V27.7Zm2.825-7.748,2.492-4.33,2.491,4.33ZM35.328,3.41H97.9v8.34L91.1,23.559a1.7,1.7,0,0,0-.227.85V59.374a1.7,1.7,0,1,0,3.41,0V31.113h10.633v43.74h-3.612V39.84a1.7,1.7,0,1,0-3.41,0V74.853H92.581a1.7,1.7,0,0,0-1.7,1.7V83.1a4.2,4.2,0,0,0,.074.787H35.328ZM104.919,83.1a.788.788,0,0,1-.787.787h-9.06a.788.788,0,0,1-.787-.787V78.263h10.633Z" transform="translate(-31.918 0)" fill="#fff"/>
        </g>
      </g>
      <g id="Grupo_55337" data-name="Grupo 55337" transform="translate(58.959 65.302)">
        <g id="Grupo_55336" data-name="Grupo 55336">
          <g id="Grupo_55335" data-name="Grupo 55335">
            <g id="Grupo_55334" data-name="Grupo 55334">
              <g id="Grupo_55333" data-name="Grupo 55333">
                <g id="Grupo_55332" data-name="Grupo 55332">
                  <path id="Trazado_119936" data-name="Trazado 119936" d="M379.425,386.414a1.7,1.7,0,0,1-.334-.032,1.718,1.718,0,0,1-.319-.1,1.812,1.812,0,0,1-.295-.157,1.932,1.932,0,0,1-.259-.213,1.73,1.73,0,0,1-.368-.552,1.806,1.806,0,0,1-.1-.319,1.706,1.706,0,0,1-.032-.334,1.676,1.676,0,0,1,.032-.332,1.722,1.722,0,0,1,.1-.319,1.684,1.684,0,0,1,.157-.295,1.729,1.729,0,0,1,.211-.259,1.712,1.712,0,0,1,.554-.368,1.72,1.72,0,0,1,.319-.1,1.687,1.687,0,0,1,.667,0,1.721,1.721,0,0,1,.319.1,1.812,1.812,0,0,1,.295.157,1.714,1.714,0,0,1,.259.211,1.633,1.633,0,0,1,.211.259,1.682,1.682,0,0,1,.157.295,1.719,1.719,0,0,1,.1.319,1.678,1.678,0,0,1,.032.332,1.708,1.708,0,0,1-.032.334,1.8,1.8,0,0,1-.1.319,1.729,1.729,0,0,1-.157.293,1.636,1.636,0,0,1-.211.259,1.834,1.834,0,0,1-.259.213,1.813,1.813,0,0,1-.295.157,1.718,1.718,0,0,1-.319.1A1.679,1.679,0,0,1,379.425,386.414Z" transform="translate(-377.72 -383.005)" fill="#fff"/>
                </g>
              </g>
            </g>
          </g>
        </g>
      </g>
    </g>
  </g>
</svg>
