<svg xmlns="http://www.w3.org/2000/svg" width="120" height="120" viewBox="0 0 120 120">
  <g id="Grupo_55103" data-name="Grupo 55103" transform="translate(-203 -2038)">
    <g id="Icon" transform="translate(211 2046)">
      <rect id="Rectángulo_29022" data-name="Rectángulo 29022" width="120" height="120" transform="translate(-8 -8)" fill="none"/>
      <circle id="Base" cx="51.652" cy="51.652" r="51.652" transform="translate(0 0)" fill="#ea3065"/>
    </g>
    <g id="Grupo_53098" data-name="Grupo 53098" transform="translate(232 2042)">
      <path id="Trazado_114972" data-name="Trazado 114972" d="M232.782,196a10.778,10.778,0,1,0,10.778,10.778A10.79,10.79,0,0,0,232.782,196Zm0,19.106a8.328,8.328,0,1,1,8.328-8.328A8.337,8.337,0,0,1,232.782,215.106Z" transform="translate(-194.815 -147.425)" fill="#fff"/>
      <path id="Trazado_114973" data-name="Trazado 114973" d="M301.229,239a1.225,1.225,0,0,0,0,2.449,3.065,3.065,0,0,1,3.061,3.061,1.225,1.225,0,1,0,2.449,0A5.517,5.517,0,0,0,301.229,239Z" transform="translate(-263.262 -185.162)" fill="#fff"/>
      <path id="Trazado_114974" data-name="Trazado 114974" d="M45.074,98.659A1.225,1.225,0,1,0,42.9,99.785l3.3,6.369a1.224,1.224,0,0,0,2.192-.033l2-4.155,2.168,4.189a1.226,1.226,0,0,0,1.088.662h.018a1.226,1.226,0,0,0,1.086-.695L57.8,99.752a1.225,1.225,0,1,0-2.208-1.06l-2,4.155-2.168-4.189a1.224,1.224,0,0,0-2.192.033l-2,4.155Z" transform="translate(-37.525 -61.424)" fill="#fff"/>
      <path id="Trazado_114975" data-name="Trazado 114975" d="M117.213,30.449a1.226,1.226,0,1,0-.865-.359A1.234,1.234,0,0,0,117.213,30.449Z" transform="translate(-101.783)" fill="#fff"/>
      <path id="Trazado_114976" data-name="Trazado 114976" d="M62.706,49.065V32.9a4.9,4.9,0,0,0-4.9-4.9H20.574a1.225,1.225,0,1,0,0,2.449H57.807A2.452,2.452,0,0,1,60.256,32.9V49.065a2.452,2.452,0,0,1-2.449,2.449H51.928c-.035,0-.07,0-.1.005a16.006,16.006,0,0,0-8.609-7.2l1.816-3.78L47.2,44.729a1.224,1.224,0,0,0,1.087.662H48.3A1.225,1.225,0,0,0,49.39,44.7l3.058-6.369a1.225,1.225,0,0,0-2.208-1.06l-2,4.155-2.168-4.189a1.225,1.225,0,0,0-2.192.033l-2,4.155-2.168-4.189a1.225,1.225,0,0,0-2.176,1.126L40.257,43.6a15.944,15.944,0,0,0-6.635.437l2.741-5.706a1.225,1.225,0,0,0-2.208-1.06l-2,4.155-2.168-4.189a1.225,1.225,0,0,0-2.192.033l-2,4.155-2.168-4.189a1.225,1.225,0,0,0-2.175,1.126l3.3,6.369a1.225,1.225,0,0,0,2.192-.033l2-4.155,2.168,4.188a1.2,1.2,0,0,0,.129.195,16.027,16.027,0,0,0-7.129,6.59H4.9a2.452,2.452,0,0,1-2.449-2.449V32.9A2.452,2.452,0,0,1,4.9,30.449h5.02a1.225,1.225,0,0,0,0-2.449H4.9A4.9,4.9,0,0,0,0,32.9V49.065a4.9,4.9,0,0,0,4.9,4.9H22.985A15.918,15.918,0,0,0,45.9,73.156l9.72,9.72A4.153,4.153,0,1,0,61.489,77L57.67,73.184a1.225,1.225,0,0,0-1.732,1.732l3.819,3.82a1.7,1.7,0,0,1-2.409,2.409l-9.4-9.4a15.907,15.907,0,0,0,5-17.782h4.858A4.9,4.9,0,0,0,62.706,49.065ZM37.967,72.825A13.472,13.472,0,1,1,51.439,59.353,13.488,13.488,0,0,1,37.967,72.825Z" fill="#fff"/>
      <path id="Trazado_114977" data-name="Trazado 114977" d="M430.449,370.64a1.224,1.224,0,1,0,.866-.359A1.233,1.233,0,0,0,430.449,370.64Z" transform="translate(-377.416 -300.361)" fill="#fff"/>
    </g>
  </g>
</svg>
