<svg xmlns="http://www.w3.org/2000/svg" width="120" height="120" viewBox="0 0 120 120">
  <g id="Grupo_55104" data-name="Grupo 55104" transform="translate(-203 -1866)">
    <g id="Icon" transform="translate(211 1874)">
      <rect id="Rectángulo_29022" data-name="Rectángulo 29022" width="120" height="120" transform="translate(-8 -8)" fill="none"/>
      <circle id="Base" cx="51.652" cy="51.652" r="51.652" transform="translate(0 0)" fill="#ea3065"/>
    </g>
    <g id="Grupo_53096" data-name="Grupo 53096" transform="translate(209 1895)">
      <g id="Grupo_53091" data-name="Grupo 53091" transform="translate(66.31 48.372)">
        <g id="Grupo_53090" data-name="Grupo 53090">
          <path id="Trazado_114969" data-name="Trazado 114969" d="M357.222,396a1.221,1.221,0,1,0,1.221,1.221A1.222,1.222,0,0,0,357.222,396Z" transform="translate(-356 -396)" fill="#fff"/>
        </g>
      </g>
      <g id="Grupo_53093" data-name="Grupo 53093" transform="translate(26)">
        <g id="Grupo_53092" data-name="Grupo 53092">
          <path id="Trazado_114970" data-name="Trazado 114970" d="M70.539,44.422l-5.806-1.935-2.084-4.169a13.379,13.379,0,0,0,3.621-7.078l.26-1.558h2.223a3.669,3.669,0,0,0,3.665-3.665v-7.7a18.323,18.323,0,0,0-36.645,0v7.7a3.67,3.67,0,0,0,2.443,3.454V30.9a3.669,3.669,0,0,0,3.665,3.665h1.073A13.252,13.252,0,0,0,45,37.741c.173.2.353.392.538.579l-2.083,4.166L37.65,44.422C30.9,46.673,26,53.779,26,61.32a1.221,1.221,0,0,0,1.222,1.222H80.968a1.222,1.222,0,0,0,1.222-1.222C82.189,53.779,77.29,46.673,70.539,44.422Zm-.565-18.4a1.223,1.223,0,0,1-1.222,1.222H66.888c.311-2.405.517-4.965.6-7.485,0-.071,0-.14.007-.21h2.479ZM39.437,27.24a1.223,1.223,0,0,1-1.222-1.222V19.544h2.479q.006.191.013.384s0,.009,0,.013h0c.086,2.452.29,4.945.593,7.3H39.437Zm2.443,4.886A1.223,1.223,0,0,1,40.658,30.9V29.683h1l.26,1.559c.05.3.111.591.181.884ZM40.66,17.1h-2.4a15.88,15.88,0,0,1,31.666,0h-2.4A12.372,12.372,0,0,0,55.188,4.886H53A12.372,12.372,0,0,0,40.66,17.1ZM53,7.329h2.186a9.933,9.933,0,0,1,9.9,9.944c0,.384,0,.719-.01,1.024,0,0,0,.008,0,.012l-1.528-.218a19.628,19.628,0,0,1-11.035-5.518,1.222,1.222,0,0,0-.864-.358,11.051,11.051,0,0,0-8.5,4.02A9.929,9.929,0,0,1,53,7.329Zm-8.369,24.8A69.82,69.82,0,0,1,43.167,20.27l1.644-2.192a8.6,8.6,0,0,1,6.358-3.407,22.094,22.094,0,0,0,12.036,5.837l1.8.257c-.12,2.551-.366,5.111-.718,7.466v0c-.112.757-.2,1.244-.425,2.6A10.375,10.375,0,0,1,56.5,39.183a9.611,9.611,0,0,1-10.789-4.615H48.2a3.67,3.67,0,0,0,3.454,2.443h2.443a3.665,3.665,0,0,0,0-7.329H51.652A3.666,3.666,0,0,0,48.2,32.126Zm6.916,9.53a12.252,12.252,0,0,0,4.543.1L53.934,44.04Zm.706,4.161-3.874,4.1a46.54,46.54,0,0,1-2.735-6.342l1.455-2.91Zm8.628-5.568,1.662,3.324a46.528,46.528,0,0,1-2.735,6.344l-4.147-4.147Zm-10.452-6.9a1.222,1.222,0,0,1,1.222-1.222h2.443a1.222,1.222,0,0,1,0,2.443H51.652A1.223,1.223,0,0,1,50.43,33.347ZM28.492,60.1c.484-6.051,4.511-11.551,9.931-13.359l5.142-1.714a48.966,48.966,0,0,0,3.477,7.542l.007.012h0a48.979,48.979,0,0,0,3.344,5.106l1.5,2.412Zm25.6-1.089-1.657-2.66q-.028-.045-.059-.087a46.574,46.574,0,0,1-2.752-4.112l4.356-4.607,4.59,4.59a46.523,46.523,0,0,1-2.762,4.128C55.751,56.342,55.836,56.217,54.095,59.009Zm2.2,1.089,1.5-2.412a48.96,48.96,0,0,0,3.367-5.146l.018-.032,0,0a48.926,48.926,0,0,0,3.44-7.477l5.142,1.714c5.42,1.807,9.447,7.308,9.931,13.359Z" transform="translate(-26)" fill="#fff"/>
        </g>
      </g>
      <g id="Grupo_53095" data-name="Grupo 53095" transform="translate(70.602 50.703)">
        <g id="Grupo_53094" data-name="Grupo 53094">
          <path id="Trazado_114971" data-name="Trazado 114971" d="M396.563,419.54a12.212,12.212,0,0,0-3.458-4.2,1.222,1.222,0,0,0-1.49,1.936,9.755,9.755,0,0,1,2.762,3.353,1.222,1.222,0,0,0,2.186-1.092Z" transform="translate(-391.139 -415.088)" fill="#fff"/>
        </g>
      </g>
    </g>
  </g>
</svg>
