<svg xmlns="http://www.w3.org/2000/svg" width="165.304" height="165.304" viewBox="0 0 165.304 165.304">
  <g id="Grupo_55342" data-name="Grupo 55342" transform="translate(8730 6123)">
    <circle id="Base" cx="82.652" cy="82.652" r="82.652" transform="translate(-8730 -6123)" fill="#ea3065"/>
    <g id="call-center_1_" data-name="call-center (1)" transform="translate(-8691.896 -6084.896)">
      <path id="Trazado_119881" data-name="Trazado 119881" d="M81.722,139.266l-10.941-2.525V133.9a11.631,11.631,0,0,0,2.771-3.228h1.563a7.231,7.231,0,0,0,7.223-7.223,7.152,7.152,0,0,0-1.445-4.289v-5.822a17.334,17.334,0,1,0-34.668,0v5.822a7.156,7.156,0,0,0-1.444,4.289A7.231,7.231,0,0,0,52,130.668h1.563a11.608,11.608,0,0,0,2.771,3.228v2.845l-10.941,2.525a10.061,10.061,0,0,0-2.06.735v-7.888A4.339,4.339,0,0,0,39,127.779H4.334A4.339,4.339,0,0,0,0,132.112v26a4.339,4.339,0,0,0,4.333,4.333H15.89v2.889H13v2.889H89.559V149.118a10.064,10.064,0,0,0-7.838-9.853Zm-24.269.183,3.522,2.641-3.56,2.136-.766-4.592ZM62,150.891H65.12l1.2,14.445H60.795ZM65.405,148h-3.7l-.829-2.488,2.678-1.606,2.677,1.606Zm.738-5.912,3.522-2.641,1.018.236-.916,4.579Zm8.97-14.311h-.38a11.488,11.488,0,0,0,.38-2.889v-5.778a4.333,4.333,0,1,1,0,8.667ZM63.558,98.889A14.461,14.461,0,0,1,78,113.334v3.5a7.149,7.149,0,0,0-2.889-.612v-2.889H72.225v.806a8.468,8.468,0,0,1-3.487,1.817c.056-.055.118-.1.175-.157l-2.043-2.043a8.452,8.452,0,0,1-3.91,2.2c.056-.055.118-.1.175-.157l-2.043-2.043a8.477,8.477,0,0,1-5.953,2.466h-.248v-2.889H52v2.889a7.149,7.149,0,0,0-2.889.612v-3.5A14.461,14.461,0,0,1,63.558,98.889ZM52,127.779a4.333,4.333,0,1,1,0-8.667v5.778a11.488,11.488,0,0,0,.38,2.889Zm2.889-2.889v-5.778h.248a11.29,11.29,0,0,0,4.085-.782v.782h1.693A11.29,11.29,0,0,0,65,118.33v.782H66.7a11.368,11.368,0,0,0,5.53-1.461v7.239a8.625,8.625,0,0,1-.506,2.889H63.558v2.889H70a8.655,8.655,0,0,1-15.109-5.778Zm8.667,11.556a11.477,11.477,0,0,0,4.333-.851v1.573l-4.333,3.25-4.333-3.25V135.6A11.477,11.477,0,0,0,63.558,136.446Zm-17.515,5.635,7.783-1.8,1.433,8.6,3.084-1.85.862,2.586L57.9,165.336H50.558v-15.89H47.669v15.89H40.446v-3.155a4.328,4.328,0,0,0,2.889-4.068V143.357a7.222,7.222,0,0,1,2.708-1.276Zm-18.6,20.366H37.557v2.889H27.446ZM4.334,159.558a1.445,1.445,0,0,1-1.444-1.444v-26a1.445,1.445,0,0,1,1.444-1.445H39a1.445,1.445,0,0,1,1.444,1.445v26A1.445,1.445,0,0,1,39,159.558H27.446v-2.889a5.778,5.778,0,0,0-11.556,0v2.889Zm14.445-2.889a2.889,2.889,0,0,1,5.778,0v8.667H18.779Zm67.891,8.667H79.448v-15.89H76.559v15.89H69.221l-1.308-15.713.861-2.586,3.022,1.814,1.7-8.517,7.575,1.748a7.189,7.189,0,0,1,5.6,7.036Zm0,0" transform="translate(0 -78.666)" fill="#fff"/>
      <path id="Trazado_119882" data-name="Trazado 119882" d="M82,55.749a4.327,4.327,0,0,0-2.962-4.111l-5.7-1.9V47.852a7.193,7.193,0,0,0,2.889-5.741V39.222a7.222,7.222,0,1,0-14.445,0v2.889a7.189,7.189,0,0,0,2.889,5.741v1.885l-5.7,1.9A4.329,4.329,0,0,0,56,55.749v8.03H82ZM64.667,39.222a4.334,4.334,0,0,1,8.667,0v2.889a4.334,4.334,0,0,1-8.667,0ZM79.112,60.89H58.889V55.749a1.441,1.441,0,0,1,.988-1.37l7.679-2.558V49.188a7.219,7.219,0,0,0,2.889,0V51.82l7.679,2.558a1.443,1.443,0,0,1,.988,1.37Zm0,0" transform="translate(-45.888 -26.222)" fill="#fff"/>
      <path id="Trazado_119883" data-name="Trazado 119883" d="M23.112,46.224A23.112,23.112,0,1,0,0,23.112,23.139,23.139,0,0,0,23.112,46.224Zm0-43.335A20.223,20.223,0,1,1,2.889,23.112,20.245,20.245,0,0,1,23.112,2.889Zm0,0" fill="#fff"/>
      <path id="Trazado_119884" data-name="Trazado 119884" d="M296,48h2.889v2.889H296Zm0,0" transform="translate(-242.553 -39.333)" fill="#fff"/>
      <path id="Trazado_119885" data-name="Trazado 119885" d="M344,48h2.889v2.889H344Zm0,0" transform="translate(-281.887 -39.333)" fill="#fff"/>
      <path id="Trazado_119886" data-name="Trazado 119886" d="M392,48h2.889v2.889H392Zm0,0" transform="translate(-321.219 -39.333)" fill="#fff"/>
    </g>
  </g>
</svg>
