<svg xmlns="http://www.w3.org/2000/svg" width="120" height="120" viewBox="0 0 120 120">
  <g id="Grupo_55223" data-name="Grupo 55223" transform="translate(-203 -1592)">
    <g id="Grupo_55102" data-name="Grupo 55102">
      <g id="Icon" transform="translate(211 1600)">
        <rect id="Rectángulo_29022" data-name="Rectángulo 29022" width="120" height="120" transform="translate(-8 -8)" fill="none"/>
        <circle id="Base" cx="51.652" cy="51.652" r="51.652" transform="translate(0 0)" fill="#ea3065"/>
      </g>
      <g id="Grupo_53087" data-name="Grupo 53087" transform="translate(237 1626)">
        <g id="Grupo_53078" data-name="Grupo 53078" transform="translate(0 14.614)">
          <g id="Grupo_53077" data-name="Grupo 53077" transform="translate(0)">
            <path id="Trazado_114964" data-name="Trazado 114964" d="M37.01,169.489,32.12,164.6a3.622,3.622,0,0,0-5.116,0l-2.148,2.148A27.328,27.328,0,0,1,13.35,155.242l2.148-2.148a3.622,3.622,0,0,0,0-5.116l-4.889-4.889a3.622,3.622,0,0,0-5.116,0L1.581,147c-2.044,2.044-2.108,5.646-.18,10.144a42.39,42.39,0,0,0,8.98,12.573,42.389,42.389,0,0,0,12.573,8.98,15.17,15.17,0,0,0,5.833,1.4,5.873,5.873,0,0,0,4.311-1.581l3.911-3.911a3.618,3.618,0,0,0,0-5.116Zm-2.183,2.933-3.911,3.911c-1.059,1.059-3.58.882-6.745-.475a39.279,39.279,0,0,1-11.606-8.326,39.281,39.281,0,0,1-8.326-11.606c-1.356-3.164-1.534-5.686-.475-6.745l3.911-3.911a.531.531,0,0,1,.751,0l4.889,4.889a.531.531,0,0,1,0,.75l-3.7,3.7.466.983A30.4,30.4,0,0,0,24.5,170.02l.983.466,3.7-3.7a.531.531,0,0,1,.75,0l4.889,4.889a.531.531,0,0,1,0,.751Z" transform="translate(0 -142.03)" fill="#fff"/>
          </g>
        </g>
        <g id="Grupo_53080" data-name="Grupo 53080" transform="translate(20.781 0)">
          <g id="Grupo_53079" data-name="Grupo 53079" transform="translate(0 0)">
            <path id="Trazado_114965" data-name="Trazado 114965" d="M229.109,3.988a17.7,17.7,0,0,0-22.383,0,12.974,12.974,0,0,0-4.759,9.9,12.974,12.974,0,0,0,4.759,9.9,15.759,15.759,0,0,0,1.744,1.3,26.309,26.309,0,0,1-3.93,4.651,26,26,0,0,0,9.1-2.462,18.287,18.287,0,0,0,4.281.5A17.147,17.147,0,0,0,229.109,23.8a12.973,12.973,0,0,0,4.759-9.9A12.974,12.974,0,0,0,229.109,3.988ZM217.917,24.7c-7.093,0-12.863-4.847-12.863-10.8s5.77-10.8,12.863-10.8,12.863,4.847,12.863,10.8S225.01,24.7,217.917,24.7Z" transform="translate(-201.967 0)" fill="#fff"/>
          </g>
        </g>
        <g id="Grupo_53082" data-name="Grupo 53082" transform="translate(34.674 11.834)">
          <g id="Grupo_53081" data-name="Grupo 53081">
            <circle id="Elipse_5310" data-name="Elipse 5310" cx="2.058" cy="2.058" r="2.058" fill="#fff"/>
          </g>
        </g>
        <g id="Grupo_53084" data-name="Grupo 53084" transform="translate(27.471 11.834)">
          <g id="Grupo_53083" data-name="Grupo 53083">
            <circle id="Elipse_5311" data-name="Elipse 5311" cx="2.058" cy="2.058" r="2.058" fill="#fff"/>
          </g>
        </g>
        <g id="Grupo_53086" data-name="Grupo 53086" transform="translate(41.877 11.834)">
          <g id="Grupo_53085" data-name="Grupo 53085">
            <circle id="Elipse_5312" data-name="Elipse 5312" cx="2.058" cy="2.058" r="2.058" fill="#fff"/>
          </g>
        </g>
      </g>
    </g>
  </g>
</svg>
