<svg xmlns="http://www.w3.org/2000/svg" width="426.68" height="393.998" viewBox="0 0 426.68 393.998">
  <g id="Grupo_53103" data-name="Grupo 53103" transform="translate(-282.159 -1579.757)">
    <g id="freepik--background-simple--inject-49" transform="translate(282.159 1586.701)">
      <path id="Trazado_114980" data-name="Trazado 114980" d="M442.283,1957.227s73.7,21.477,139.7-21.183,93.483-122.563,117.531-186.664.266-127.072-56.011-153.691-88.286,17.933-162.928,23.488-95.889-3.994-153.9,40.245-59.528,142.424-3.315,212.484S442.283,1957.227,442.283,1957.227Z" transform="translate(-282.159 -1587.276)" fill="#36c"/>
      <path id="Trazado_114981" data-name="Trazado 114981" d="M442.283,1957.227s73.7,21.477,139.7-21.183,93.483-122.563,117.531-186.664.266-127.072-56.011-153.691-88.286,17.933-162.928,23.488-95.889-3.994-153.9,40.245-59.528,142.424-3.315,212.484S442.283,1957.227,442.283,1957.227Z" transform="translate(-282.159 -1587.276)" fill="#fff" opacity="0.7" style="isolation: isolate"/>
    </g>
    <g id="freepik--Symbol--inject-49" transform="translate(449.245 1580.257)">
      <circle id="Elipse_5313" data-name="Elipse 5313" cx="55.781" cy="55.781" r="55.781" fill="none" stroke="#263238" stroke-linecap="round" stroke-linejoin="round" stroke-width="1"/>
      <path id="Trazado_114982" data-name="Trazado 114982" d="M577.015,1643.447l.1-1.937c1.286,1.2,2.58,2.488,3.857,3.884a6.666,6.666,0,0,1-.055,1.047l-.156,1.037A42.248,42.248,0,0,0,577.015,1643.447Z" transform="translate(-473.36 -1585.267)" fill="none" stroke="#263238" stroke-linecap="round" stroke-linejoin="round" stroke-width="1"/>
      <path id="Trazado_114983" data-name="Trazado 114983" d="M576.245,1650.388l.294-1.919c.578.679,1.157,1.387,1.726,2.121a25.2,25.2,0,0,1,1.653,2.277l-.523,2.029c-.5-.79-1-1.561-1.506-2.3l-.762-1.1Z" transform="translate(-473.297 -1585.836)" fill="none" stroke="#263238" stroke-linecap="round" stroke-linejoin="round" stroke-width="1"/>
      <path id="Trazado_114984" data-name="Trazado 114984" d="M574.515,1657.156a13.163,13.163,0,0,0,.551-1.836,38.05,38.05,0,0,1,2.709,4.765l-.725,1.965Q575.837,1659.46,574.515,1657.156Z" transform="translate(-473.156 -1586.396)" fill="none" stroke="#263238" stroke-linecap="round" stroke-linejoin="round" stroke-width="1"/>
      <path id="Trazado_114985" data-name="Trazado 114985" d="M571.875,1663.614l.836-1.745q1.083,2.416,2.057,5.1a19.917,19.917,0,0,1-1.038,1.836A39.514,39.514,0,0,0,571.875,1663.614Z" transform="translate(-472.94 -1586.932)" fill="none" stroke="#263238" stroke-linecap="round" stroke-linejoin="round" stroke-width="1"/>
      <path id="Trazado_114986" data-name="Trazado 114986" d="M568.455,1669.711l1-1.662a40.658,40.658,0,0,1,1.368,5.326l-1.258,1.68C569.245,1673.191,568.932,1671.447,568.455,1669.711Z" transform="translate(-472.66 -1587.437)" fill="none" stroke="#263238" stroke-linecap="round" stroke-linejoin="round" stroke-width="1"/>
      <path id="Trazado_114987" data-name="Trazado 114987" d="M564.185,1675.249a17.451,17.451,0,0,0,1.267-1.46,49.183,49.183,0,0,1,.615,5.427c-.487.505-.918,1.056-1.442,1.533A54.891,54.891,0,0,0,564.185,1675.249Z" transform="translate(-472.311 -1587.907)" fill="none" stroke="#263238" stroke-linecap="round" stroke-linejoin="round" stroke-width="1"/>
      <path id="Trazado_114988" data-name="Trazado 114988" d="M559.217,1680.2l1.432-1.3c.046,1.772.046,3.673-.073,5.509l-1.671,1.249c.11-.918.193-1.836.266-2.755S559.217,1681.066,559.217,1680.2Z" transform="translate(-471.879 -1588.325)" fill="none" stroke="#263238" stroke-linecap="round" stroke-linejoin="round" stroke-width="1"/>
      <path id="Trazado_114989" data-name="Trazado 114989" d="M553.628,1684.479a18.945,18.945,0,0,0,1.57-1.129c-.083.918-.156,1.836-.3,2.755s-.321,1.772-.514,2.681l-1.836,1.093C553.022,1688.013,553.362,1686.223,553.628,1684.479Z" transform="translate(-471.359 -1588.689)" fill="none" stroke="#263238" stroke-linecap="round" stroke-linejoin="round" stroke-width="1"/>
      <path id="Trazado_114990" data-name="Trazado 114990" d="M547.492,1687.925l1.745-.836q-.633,2.562-1.552,5.252c-.312.147-.624.312-.918.441l-.992.358A39.242,39.242,0,0,0,547.492,1687.925Z" transform="translate(-470.805 -1588.994)" fill="none" stroke="#263238" stroke-linecap="round" stroke-linejoin="round" stroke-width="1"/>
      <path id="Trazado_114991" data-name="Trazado 114991" d="M540.97,1690.589l1.836-.67c-.312.845-.652,1.69-1.019,2.543l-.569,1.286-.624,1.212-2.039.523c.459-.817.918-1.625,1.3-2.433A22.326,22.326,0,0,0,540.97,1690.589Z" transform="translate(-470.215 -1589.226)" fill="none" stroke="#263238" stroke-linecap="round" stroke-linejoin="round" stroke-width="1"/>
      <path id="Trazado_114992" data-name="Trazado 114992" d="M534.15,1692.334l.964-.147.918-.248a39.86,39.86,0,0,1-2.883,4.646l-2.084.321Q532.781,1694.593,534.15,1692.334Z" transform="translate(-469.602 -1589.391)" fill="none" stroke="#263238" stroke-linecap="round" stroke-linejoin="round" stroke-width="1"/>
      <path id="Trazado_114993" data-name="Trazado 114993" d="M527.17,1693.14l1.937-.1c-1.065,1.4-2.222,2.828-3.48,4.242a16.072,16.072,0,0,1-2.1,0A39.644,39.644,0,0,0,527.17,1693.14Z" transform="translate(-468.985 -1589.481)" fill="none" stroke="#263238" stroke-linecap="round" stroke-linejoin="round" stroke-width="1"/>
      <path id="Trazado_114994" data-name="Trazado 114994" d="M520.145,1693.059l1.937.1c-.624.643-1.267,1.286-1.937,1.928a25.764,25.764,0,0,1-2.075,1.836l-2.075-.322c.744-.569,1.451-1.148,2.139-1.726l1.019-.918Z" transform="translate(-468.37 -1589.483)" fill="none" stroke="#263238" stroke-linecap="round" stroke-linejoin="round" stroke-width="1"/>
      <path id="Trazado_114995" data-name="Trazado 114995" d="M513.205,1692.029a12.981,12.981,0,0,0,1.9.367,39.3,39.3,0,0,1-4.472,3.168l-2.029-.523C510.23,1694.077,511.764,1693.057,513.205,1692.029Z" transform="translate(-467.765 -1589.398)" fill="none" stroke="#263238" stroke-linecap="round" stroke-linejoin="round" stroke-width="1"/>
      <path id="Trazado_114996" data-name="Trazado 114996" d="M506.485,1690.049l1.836.67q-2.286,1.322-4.857,2.543a15.375,15.375,0,0,1-1.919-.845A38.83,38.83,0,0,0,506.485,1690.049Z" transform="translate(-467.188 -1589.236)" fill="none" stroke="#263238" stroke-linecap="round" stroke-linejoin="round" stroke-width="1"/>
      <path id="Trazado_114997" data-name="Trazado 114997" d="M500.067,1687.259l1.745.845a41.618,41.618,0,0,1-5.16,1.892l-1.836-1.093c.918-.239,1.791-.487,2.654-.753S499.2,1687.617,500.067,1687.259Z" transform="translate(-466.637 -1589.008)" fill="none" stroke="#263238" stroke-linecap="round" stroke-linejoin="round" stroke-width="1"/>
      <path id="Trazado_114998" data-name="Trazado 114998" d="M494.122,1683.569a12.535,12.535,0,0,0,1.589,1.1,23.488,23.488,0,0,1-2.635.652c-.918.184-1.79.358-2.709.505-.56-.422-1.129-.826-1.671-1.267C490.568,1684.313,492.4,1683.964,494.122,1683.569Z" transform="translate(-466.137 -1588.706)" fill="none" stroke="#263238" stroke-linecap="round" stroke-linejoin="round" stroke-width="1"/>
      <path id="Trazado_114999" data-name="Trazado 114999" d="M488.754,1679.149l1.432,1.3q-2.627.35-5.509.478l-1.432-1.552H486A25.366,25.366,0,0,0,488.754,1679.149Z" transform="translate(-465.691 -1588.345)" fill="none" stroke="#263238" stroke-linecap="round" stroke-linejoin="round" stroke-width="1"/>
      <path id="Trazado_115000" data-name="Trazado 115000" d="M483.918,1674.036c.4.505.863.964,1.285,1.451h-2.755a25.379,25.379,0,0,1-2.755-.248l-1.249-1.68Q481.282,1673.9,483.918,1674.036Z" transform="translate(-465.299 -1587.888)" fill="none" stroke="#263238" stroke-linecap="round" stroke-linejoin="round" stroke-width="1"/>
      <path id="Trazado_115001" data-name="Trazado 115001" d="M479.917,1668.262l1,1.653c-1.735-.257-3.526-.588-5.362-1.019l-.542-.918-.468-.918,1.313.376,1.368.312C478.135,1667.941,479.035,1668.161,479.917,1668.262Z" transform="translate(-464.98 -1587.356)" fill="none" stroke="#263238" stroke-linecap="round" stroke-linejoin="round" stroke-width="1"/>
      <path id="Trazado_115002" data-name="Trazado 115002" d="M476.659,1662.089l.845,1.745c-.863-.239-1.735-.487-2.626-.771a25.652,25.652,0,0,1-2.608-.918l-.725-1.965c.854.367,1.708.725,2.543,1.047l1.249.477Z" transform="translate(-464.734 -1586.794)" fill="none" stroke="#263238" stroke-linecap="round" stroke-linejoin="round" stroke-width="1"/>
      <path id="Trazado_115003" data-name="Trazado 115003" d="M474.283,1655.428c.092.312.147.624.257.918l.331.918a39.159,39.159,0,0,1-4.922-2.406l-.514-2.029C471.1,1653.793,472.695,1654.656,474.283,1655.428Z" transform="translate(-464.562 -1586.192)" fill="none" stroke="#263238" stroke-linecap="round" stroke-linejoin="round" stroke-width="1"/>
      <path id="Trazado_115004" data-name="Trazado 115004" d="M472.846,1648.553l.294,1.91q-2.259-1.358-4.591-3.039a14.268,14.268,0,0,1-.184-2.084A39.032,39.032,0,0,0,472.846,1648.553Z" transform="translate(-464.474 -1585.58)" fill="none" stroke="#263238" stroke-linecap="round" stroke-linejoin="round" stroke-width="1"/>
      <path id="Trazado_115005" data-name="Trazado 115005" d="M472.284,1641.556l.092,1.928c-.7-.551-1.4-1.129-2.112-1.726l-1.065-.918c-.34-.312-.652-.634-.973-.918l.1-2.1c.643.679,1.286,1.341,1.937,1.965l.964.918C471.567,1640.978,471.916,1641.262,472.284,1641.556Z" transform="translate(-464.463 -1584.965)" fill="none" stroke="#263238" stroke-linecap="round" stroke-linejoin="round" stroke-width="1"/>
      <path id="Trazado_115006" data-name="Trazado 115006" d="M472.649,1634.529a12.347,12.347,0,0,0-.165,1.928,37.474,37.474,0,0,1-3.609-4.123l.34-2.075C470.326,1631.783,471.483,1633.207,472.649,1634.529Z" transform="translate(-464.516 -1584.346)" fill="none" stroke="#263238" stroke-linecap="round" stroke-linejoin="round" stroke-width="1"/>
      <path id="Trazado_115007" data-name="Trazado 115007" d="M473.933,1627.635l-.487,1.836c-1.028-1.423-2.038-2.948-3.012-4.591.092-.34.165-.679.275-1.01l.358-.992A39.221,39.221,0,0,0,473.933,1627.635Z" transform="translate(-464.643 -1583.743)" fill="none" stroke="#263238" stroke-linecap="round" stroke-linejoin="round" stroke-width="1"/>
      <path id="Trazado_115008" data-name="Trazado 115008" d="M476.151,1620.973l-.661,1.836c-.432-.781-.863-1.589-1.276-2.424l-.615-1.258-.523-1.267.918-1.892c.321.918.661,1.735,1.01,2.562A26.9,26.9,0,0,0,476.151,1620.973Z" transform="translate(-464.859 -1583.178)" fill="none" stroke="#263238" stroke-linecap="round" stroke-linejoin="round" stroke-width="1"/>
      <path id="Trazado_115009" data-name="Trazado 115009" d="M479.252,1614.677l-.505.826-.422.872-.514-1.286-.413-1.23c-.266-.863-.523-1.745-.762-2.645l1.093-1.836C478.178,1611.225,478.692,1613,479.252,1614.677Z" transform="translate(-465.15 -1582.639)" fill="none" stroke="#263238" stroke-linecap="round" stroke-linejoin="round" stroke-width="1"/>
      <path id="Trazado_115010" data-name="Trazado 115010" d="M483.161,1608.856,482,1610.407q-.6-2.589-1.01-5.417c.432-.542.918-1.038,1.4-1.561.073.918.156,1.836.275,2.755S482.978,1607.974,483.161,1608.856Z" transform="translate(-465.506 -1582.152)" fill="none" stroke="#263238" stroke-linecap="round" stroke-linejoin="round" stroke-width="1"/>
      <path id="Trazado_115011" data-name="Trazado 115011" d="M487.764,1603.56l-1.3,1.432q-.152-1.377-.248-2.755c-.064-.918,0-1.836,0-2.755l1.552-1.414Q487.644,1600.934,487.764,1603.56Z" transform="translate(-465.931 -1581.714)" fill="none" stroke="#263238" stroke-linecap="round" stroke-linejoin="round" stroke-width="1"/>
      <path id="Trazado_115012" data-name="Trazado 115012" d="M493.108,1599c-.514.395-1.038.762-1.543,1.175.064-1.772.239-3.572.477-5.445a17.623,17.623,0,0,1,1.726-1.194,26.328,26.328,0,0,0-.413,2.755A17.177,17.177,0,0,0,493.108,1599Z" transform="translate(-466.372 -1581.343)" fill="none" stroke="#263238" stroke-linecap="round" stroke-linejoin="round" stroke-width="1"/>
      <path id="Trazado_115013" data-name="Trazado 115013" d="M498.858,1595.148l-1.653,1.01c.147-.918.312-1.772.5-2.681a25.751,25.751,0,0,1,.67-2.7l1.892-.918A40.024,40.024,0,0,0,498.858,1595.148Z" transform="translate(-466.833 -1581.042)" fill="none" stroke="#263238" stroke-linecap="round" stroke-linejoin="round" stroke-width="1"/>
      <path id="Trazado_115014" data-name="Trazado 115014" d="M505.087,1592.116a12.692,12.692,0,0,0-1.772.771,38.718,38.718,0,0,1,1.892-5.133l1.974-.725C506.409,1588.755,505.721,1590.454,505.087,1592.116Z" transform="translate(-467.333 -1580.811)" fill="none" stroke="#263238" stroke-linecap="round" stroke-linejoin="round" stroke-width="1"/>
      <path id="Trazado_115015" data-name="Trazado 115015" d="M511.751,1590l-1.836.478q1.138-2.377,2.571-4.839a15.634,15.634,0,0,1,2.057-.395A38.848,38.848,0,0,0,511.751,1590Z" transform="translate(-467.872 -1580.664)" fill="none" stroke="#263238" stroke-linecap="round" stroke-linejoin="round" stroke-width="1"/>
      <path id="Trazado_115016" data-name="Trazado 115016" d="M518.595,1588.735l-1.91.294c.478-.762.983-1.515,1.506-2.286l.817-1.148.854-1.056,2.1-.11c-.615.707-1.2,1.423-1.763,2.121A26.449,26.449,0,0,0,518.595,1588.735Z" transform="translate(-468.426 -1580.598)" fill="none" stroke="#263238" stroke-linecap="round" stroke-linejoin="round" stroke-width="1"/>
      <path id="Trazado_115017" data-name="Trazado 115017" d="M525.563,1588.423a11.252,11.252,0,0,0-1.928,0,38.409,38.409,0,0,1,3.746-3.994l2.094.11Q527.381,1586.487,525.563,1588.423Z" transform="translate(-468.994 -1580.598)" fill="none" stroke="#263238" stroke-linecap="round" stroke-linejoin="round" stroke-width="1"/>
      <path id="Trazado_115018" data-name="Trazado 115018" d="M532.524,1589.045l-1.919-.294c1.322-1.157,2.755-2.314,4.251-3.452l1.038.165,1.019.266A39,39,0,0,0,532.524,1589.045Z" transform="translate(-469.564 -1580.669)" fill="none" stroke="#263238" stroke-linecap="round" stroke-linejoin="round" stroke-width="1"/>
      <path id="Trazado_115019" data-name="Trazado 115019" d="M539.351,1590.548l-1.836-.477c.735-.514,1.5-1.01,2.277-1.515a24.492,24.492,0,0,1,2.4-1.386l1.974.716c-.836.413-1.653.836-2.442,1.267l-1.175.652Z" transform="translate(-470.13 -1580.822)" fill="none" stroke="#263238" stroke-linecap="round" stroke-linejoin="round" stroke-width="1"/>
      <path id="Trazado_115020" data-name="Trazado 115020" d="M545.906,1593c-.294-.138-.578-.294-.872-.413l-.918-.331a39.434,39.434,0,0,1,5-2.2l1.892.918Q548.339,1591.9,545.906,1593Z" transform="translate(-470.669 -1581.058)" fill="none" stroke="#263238" stroke-linecap="round" stroke-linejoin="round" stroke-width="1"/>
      <path id="Trazado_115021" data-name="Trazado 115021" d="M552.1,1596.292l-1.653-1q2.507-.854,5.28-1.543c.606.358,1.129.817,1.7,1.221-.918.175-1.781.331-2.681.56S552.943,1596.054,552.1,1596.292Z" transform="translate(-471.187 -1581.36)" fill="none" stroke="#263238" stroke-linecap="round" stroke-linejoin="round" stroke-width="1"/>
      <path id="Trazado_115022" data-name="Trazado 115022" d="M557.8,1600.352l-1.552-1.166c.918-.184,1.781-.358,2.709-.514s1.791-.22,2.755-.312l1.552,1.414C561.35,1599.911,559.56,1600.1,557.8,1600.352Z" transform="translate(-471.661 -1581.738)" fill="none" stroke="#263238" stroke-linecap="round" stroke-linejoin="round" stroke-width="1"/>
      <path id="Trazado_115023" data-name="Trazado 115023" d="M562.887,1605.194c-.441-.459-.845-.973-1.322-1.4a53.977,53.977,0,0,1,5.463-.073,19.061,19.061,0,0,1,1.368,1.6A50.809,50.809,0,0,0,562.887,1605.194Z" transform="translate(-472.097 -1582.172)" fill="none" stroke="#263238" stroke-linecap="round" stroke-linejoin="round" stroke-width="1"/>
      <path id="Trazado_115024" data-name="Trazado 115024" d="M567.331,1610.591l-1.166-1.552a52.652,52.652,0,0,1,5.509.624l1.093,1.837A40.471,40.471,0,0,0,567.331,1610.591Z" transform="translate(-472.473 -1582.611)" fill="none" stroke="#263238" stroke-linecap="round" stroke-linejoin="round" stroke-width="1"/>
      <path id="Trazado_115025" data-name="Trazado 115025" d="M571.029,1616.51a15.43,15.43,0,0,0-.964-1.68,39.269,39.269,0,0,1,5.307,1.359l.918,1.9Q573.591,1617.152,571.029,1616.51Z" transform="translate(-472.792 -1583.085)" fill="none" stroke="#263238" stroke-linecap="round" stroke-linejoin="round" stroke-width="1"/>
      <path id="Trazado_115026" data-name="Trazado 115026" d="M573.855,1622.885l-.67-1.837q2.487.919,5.078,2.066a14.078,14.078,0,0,1,.6,2.011A39.552,39.552,0,0,0,573.855,1622.885Z" transform="translate(-473.047 -1583.593)" fill="none" stroke="#263238" stroke-linecap="round" stroke-linejoin="round" stroke-width="1"/>
      <path id="Trazado_115027" data-name="Trazado 115027" d="M575.852,1629.575l-.487-1.836c.808.395,1.616.826,2.424,1.276l1.221.689,1.139.753.321,2.075q-1.139-.817-2.286-1.543A25.4,25.4,0,0,0,575.852,1629.575Z" transform="translate(-473.225 -1584.14)" fill="none" stroke="#263238" stroke-linecap="round" stroke-linejoin="round" stroke-width="1"/>
      <path id="Trazado_115028" data-name="Trazado 115028" d="M576.907,1636.475a4.887,4.887,0,0,0-.055-.918l-.147-.918a38.659,38.659,0,0,1,4.334,3.333l.1,2.094A50.728,50.728,0,0,0,576.907,1636.475Z" transform="translate(-473.335 -1584.705)" fill="none" stroke="#263238" stroke-linecap="round" stroke-linejoin="round" stroke-width="1"/>
      <line id="Línea_247" data-name="Línea 247" x1="8.319" y2="43.027" transform="translate(47.047 40.716)" fill="none" stroke="#263238" stroke-miterlimit="10" stroke-width="1"/>
      <line id="Línea_248" data-name="Línea 248" x1="8.31" y1="43.027" transform="translate(56.192 40.716)" fill="none" stroke="#263238" stroke-miterlimit="10" stroke-width="1"/>
      <line id="Línea_249" data-name="Línea 249" x1="8.778" y1="45.433" transform="translate(60.462 38.31)" fill="none" stroke="#263238" stroke-miterlimit="10" stroke-width="1"/>
      <line id="Línea_250" data-name="Línea 250" y1="11.827" x2="2.277" transform="translate(52.666 18.348)" fill="none" stroke="#263238" stroke-miterlimit="10" stroke-width="1"/>
      <line id="Línea_251" data-name="Línea 251" x2="2.286" y2="11.827" transform="translate(56.605 18.348)" fill="none" stroke="#263238" stroke-miterlimit="10" stroke-width="1"/>
      <line id="Línea_252" data-name="Línea 252" y1="45.433" x2="8.778" transform="translate(42.309 38.31)" fill="none" stroke="#263238" stroke-miterlimit="10" stroke-width="1"/>
      <path id="Trazado_115029" data-name="Trazado 115029" d="M492.016,1619.369h-.3a1.046,1.046,0,0,1-1.038-1.038v-.165a1.047,1.047,0,0,1,1.038-1.038H516.44" transform="translate(-466.299 -1583.273)" fill="none" stroke="#263238" stroke-miterlimit="10" stroke-width="1"/>
      <line id="Línea_253" data-name="Línea 253" x2="24.424" transform="translate(25.716 36.097)" fill="none" stroke="#263238" stroke-miterlimit="10" stroke-width="1"/>
      <line id="Línea_254" data-name="Línea 254" transform="translate(25.716 36.097)" fill="none" stroke="#263238" stroke-miterlimit="10" stroke-width="1"/>
      <line id="Línea_255" data-name="Línea 255" x1="23.8" transform="translate(61.407 36.097)" fill="none" stroke="#263238" stroke-miterlimit="10" stroke-width="1"/>
      <line id="Línea_256" data-name="Línea 256" transform="translate(85.208 36.097)" fill="none" stroke="#263238" stroke-miterlimit="10" stroke-width="1"/>
      <path id="Trazado_115030" data-name="Trazado 115030" d="M554.805,1619.369h.918a1.047,1.047,0,0,0,1.038-1.038v-.165a1.048,1.048,0,0,0-1.038-1.038H531.005" transform="translate(-469.597 -1583.273)" fill="none" stroke="#263238" stroke-miterlimit="10" stroke-width="1"/>
      <line id="Línea_257" data-name="Línea 257" x1="4.738" transform="translate(64.502 83.743)" fill="none" stroke="#263238" stroke-miterlimit="10" stroke-width="1"/>
      <line id="Línea_258" data-name="Línea 258" x2="4.738" transform="translate(42.309 83.743)" fill="none" stroke="#263238" stroke-miterlimit="10" stroke-width="1"/>
      <path id="Trazado_115031" data-name="Trazado 115031" d="M509.176,1671.459H497.625v6.887h50.043v-6.887h-11.56" transform="translate(-466.867 -1587.716)" fill="none" stroke="#263238" stroke-miterlimit="10" stroke-width="1"/>
      <line id="Línea_259" data-name="Línea 259" x2="17.455" transform="translate(47.047 83.743)" fill="none" stroke="#263238" stroke-miterlimit="10" stroke-width="1"/>
      <path id="Trazado_115032" data-name="Trazado 115032" d="M531.005,1619.373a5.565,5.565,0,0,0,0-2.2" transform="translate(-469.597 -1583.276)" fill="none" stroke="#263238" stroke-miterlimit="10" stroke-width="1"/>
      <path id="Trazado_115033" data-name="Trazado 115033" d="M524.425,1624.6h.826" transform="translate(-469.059 -1583.884)" fill="none" stroke="#263238" stroke-miterlimit="10" stroke-width="1"/>
      <path id="Trazado_115034" data-name="Trazado 115034" d="M521.26,1613.119a5.732,5.732,0,0,0-2.525,3.673" transform="translate(-468.594 -1582.945)" fill="none" stroke="#263238" stroke-miterlimit="10" stroke-width="1"/>
      <path id="Trazado_115035" data-name="Trazado 115035" d="M521.485,1613.036a5.687,5.687,0,0,1,6.226,0" transform="translate(-468.819 -1582.862)" fill="none" stroke="#263238" stroke-miterlimit="10" stroke-width="1"/>
      <path id="Trazado_115036" data-name="Trazado 115036" d="M530.781,1616.842a5.716,5.716,0,0,0-2.516-3.673" transform="translate(-469.373 -1582.949)" fill="none" stroke="#263238" stroke-miterlimit="10" stroke-width="1"/>
      <path id="Trazado_115037" data-name="Trazado 115037" d="M519.683,1621.782a5.724,5.724,0,0,1-.918-2.213" transform="translate(-468.596 -1583.472)" fill="none" stroke="#263238" stroke-miterlimit="10" stroke-width="1"/>
      <path id="Trazado_115038" data-name="Trazado 115038" d="M525.325,1624.385a5.738,5.738,0,0,0,4.27-2.406" transform="translate(-469.133 -1583.669)" fill="none" stroke="#263238" stroke-miterlimit="10" stroke-width="1"/>
      <path id="Trazado_115039" data-name="Trazado 115039" d="M518.725,1619.373a5.567,5.567,0,0,1,0-2.2" transform="translate(-468.584 -1583.276)" fill="none" stroke="#263238" stroke-miterlimit="10" stroke-width="1"/>
      <path id="Trazado_115040" data-name="Trazado 115040" d="M529.975,1621.782a5.738,5.738,0,0,0,.918-2.213" transform="translate(-469.513 -1583.472)" fill="none" stroke="#263238" stroke-miterlimit="10" stroke-width="1"/>
      <path id="Trazado_115041" data-name="Trazado 115041" d="M524.044,1624.385a5.755,5.755,0,0,1-4.279-2.406" transform="translate(-468.678 -1583.669)" fill="none" stroke="#263238" stroke-miterlimit="10" stroke-width="1"/>
      <path id="Trazado_115042" data-name="Trazado 115042" d="M525.627,1600.259a2.958,2.958,0,0,1-1.662,0" transform="translate(-469.021 -1581.893)" fill="none" stroke="#263238" stroke-miterlimit="10" stroke-width="1"/>
      <path id="Trazado_115043" data-name="Trazado 115043" d="M525.406,1599.68a3.306,3.306,0,1,0-1.662,0" transform="translate(-468.801 -1581.313)" fill="none" stroke="#263238" stroke-miterlimit="10" stroke-width="1"/>
      <line id="Línea_260" data-name="Línea 260" x1="7.438" y1="21.202" transform="translate(25.716 36.097)" fill="none" stroke="#263238" stroke-miterlimit="10" stroke-width="1"/>
      <line id="Línea_261" data-name="Línea 261" x1="7.438" y2="21.202" transform="translate(18.279 36.097)" fill="none" stroke="#263238" stroke-miterlimit="10" stroke-width="1"/>
      <path id="Trazado_115044" data-name="Trazado 115044" d="M482.125,1642.959a9.228,9.228,0,0,0,18.107,0Z" transform="translate(-465.599 -1585.385)" fill="none" stroke="#263238" stroke-miterlimit="10" stroke-width="1"/>
      <line id="Línea_262" data-name="Línea 262" x2="7.438" y2="21.202" transform="translate(85.208 36.097)" fill="none" stroke="#263238" stroke-miterlimit="10" stroke-width="1"/>
      <line id="Línea_263" data-name="Línea 263" x1="7.438" y2="21.202" transform="translate(77.77 36.097)" fill="none" stroke="#263238" stroke-miterlimit="10" stroke-width="1"/>
      <path id="Trazado_115045" data-name="Trazado 115045" d="M555.969,1650.4a9.182,9.182,0,0,0,9.044-7.437h-18.1A9.227,9.227,0,0,0,555.969,1650.4Z" transform="translate(-470.898 -1585.385)" fill="none" stroke="#263238" stroke-miterlimit="10" stroke-width="1"/>
    </g>
    <g id="freepik--Flags--inject-49" transform="translate(629.148 1648.483)">
      <rect id="Rectángulo_28713" data-name="Rectángulo 28713" width="3.104" height="237.661" transform="translate(20.439 18.328)" fill="#263238" stroke="#12263f" stroke-linecap="round" stroke-linejoin="round" stroke-width="1"/>
      <path id="Trazado_115046" data-name="Trazado 115046" d="M710.712,1912.817,681.89,1682.3l-21.835,230.518Z" transform="translate(-660.055 -1656.828)" fill="red"/>
      <path id="Trazado_115047" data-name="Trazado 115047" d="M711.207,1927.121l-8.53-69.931-33.542,54.064,22.441,15.867Z" transform="translate(-660.797 -1671.132)" fill="#36c" stroke="#263238" stroke-linecap="round" stroke-linejoin="round" stroke-width="1"/>
      <path id="Trazado_115048" data-name="Trazado 115048" d="M711.969,1871.81l-42.835,25.141,13.5-214.651Z" transform="translate(-660.797 -1656.828)" fill="#2e62b7" stroke="#263238" stroke-linecap="round" stroke-linejoin="round" stroke-width="1"/>
      <path id="Trazado_115049" data-name="Trazado 115049" d="M683.835,1682.3l29.337,189.51-22.818-15.362Z" transform="translate(-662 -1656.828)" fill="#ffe000" stroke="#12263f" stroke-miterlimit="10" stroke-width="1"/>
      <path id="Trazado_115050" data-name="Trazado 115050" d="M690.769,1868.309l10.716-18.162-12.57-22.818Z" transform="translate(-662.415 -1668.69)" fill="#fa0" stroke="#12263f" stroke-miterlimit="10" stroke-width="1"/>
      <path id="Trazado_115051" data-name="Trazado 115051" d="M682.218,1682.3l-18.153,134.564,35.388,21.422Z" transform="translate(-660.383 -1656.828)" fill="#ffe000" stroke="#12263f" stroke-miterlimit="10" stroke-width="1"/>
      <path id="Trazado_115052" data-name="Trazado 115052" d="M681.959,1672.887l-3.994-7.043,5.757-11.285,5.757,11.753-4.417,6.574Z" transform="translate(-661.519 -1654.56)" fill="#fff" stroke="#263238" stroke-linecap="round" stroke-linejoin="round" stroke-width="1"/>
    </g>
    <g id="freepik--Flags--inject-49-2" data-name="freepik--Flags--inject-49" transform="translate(314.36 1648.483)">
      <rect id="Rectángulo_28714" data-name="Rectángulo 28714" width="3.104" height="237.661" transform="translate(20.439 18.328)" fill="#263238" stroke="#12263f" stroke-linecap="round" stroke-linejoin="round" stroke-width="1"/>
      <path id="Trazado_115053" data-name="Trazado 115053" d="M367.886,1912.817,339.063,1682.3l-21.835,230.518Z" transform="translate(-317.228 -1656.828)" fill="red"/>
      <path id="Trazado_115054" data-name="Trazado 115054" d="M368.38,1927.121l-8.53-69.931-33.542,54.064,22.441,15.867Z" transform="translate(-317.97 -1671.132)" fill="#36c" stroke="#263238" stroke-linecap="round" stroke-linejoin="round" stroke-width="1"/>
      <path id="Trazado_115055" data-name="Trazado 115055" d="M369.142,1871.81l-42.835,25.141,13.5-214.651Z" transform="translate(-317.97 -1656.828)" fill="#2e62b7" stroke="#263238" stroke-linecap="round" stroke-linejoin="round" stroke-width="1"/>
      <path id="Trazado_115056" data-name="Trazado 115056" d="M341.008,1682.3l29.337,189.51-22.818-15.362Z" transform="translate(-319.173 -1656.828)" fill="#ffe000" stroke="#12263f" stroke-miterlimit="10" stroke-width="1"/>
      <path id="Trazado_115057" data-name="Trazado 115057" d="M347.943,1868.309l10.716-18.162-12.57-22.818Z" transform="translate(-319.588 -1668.69)" fill="#fa0" stroke="#12263f" stroke-miterlimit="10" stroke-width="1"/>
      <path id="Trazado_115058" data-name="Trazado 115058" d="M339.391,1682.3l-18.153,134.564,35.388,21.422Z" transform="translate(-317.556 -1656.828)" fill="#ffe000" stroke="#12263f" stroke-miterlimit="10" stroke-width="1"/>
      <path id="Trazado_115059" data-name="Trazado 115059" d="M339.132,1672.887l-3.994-7.043,5.757-11.285,5.757,11.753-4.417,6.574Z" transform="translate(-318.693 -1654.56)" fill="#fff" stroke="#263238" stroke-linecap="round" stroke-linejoin="round" stroke-width="1"/>
    </g>
    <g id="freepik--Character--inject-49" transform="translate(392.51 1704.386)">
      <path id="Trazado_115060" data-name="Trazado 115060" d="M463.83,1740.619s-13.773-6.776-20.788,5.216-2.323,109.02-2.323,109.02h19.09Z" transform="translate(-405.352 -1717.345)" fill="#a22f5f" stroke="#263238" stroke-linecap="round" stroke-linejoin="round" stroke-width="1"/>
      <path id="Trazado_115061" data-name="Trazado 115061" d="M587.775,1740.619s13.773-6.776,20.788,5.216,2.323,109.02,2.323,109.02H591.8Z" transform="translate(-417.505 -1717.345)" fill="#a22f5f" stroke="#263238" stroke-linecap="round" stroke-linejoin="round" stroke-width="1"/>
      <path id="Trazado_115062" data-name="Trazado 115062" d="M465.086,1740.789h113.96c3.544,0,6.427,3.14,6.6,7.107l3.93,108.165H454.545l3.93-108.165C458.622,1743.975,461.533,1740.789,465.086,1740.789Z" transform="translate(-406.609 -1717.515)" fill="#a22f5f" stroke="#263238" stroke-linecap="round" stroke-linejoin="round" stroke-width="1"/>
      <path id="Trazado_115063" data-name="Trazado 115063" d="M505.361,1788.383s-32.826,19.071-42.137,24.213-15.839,7.713-15.839,11.386v94.98H595.456s-3.021-93.8-3.957-96.348-50.979-34.231-54.009-35.158S505.361,1788.383,505.361,1788.383Z" transform="translate(-406.023 -1721.311)" fill="#12263f"/>
      <path id="Trazado_115064" data-name="Trazado 115064" d="M597.628,1826.465s2.562-2.332,4.894,1.4,24.213,49.354,24.682,53.78-1.836,4.426-.918,7.217,9.549,18.364,8.154,22.818-7.043,10.192-9.366,10.422-49.584,0-49.584,0a16.968,16.968,0,0,1-9.026-5.509c-3.5-4.426-12.809-16.757-12.809-18.86s10.247-9.54,12.341-11.873,8.613-2.094,9.549-2.755,12.543-27.5,15.38-34.525a114.205,114.205,0,0,0,4.426-13.773" transform="translate(-414.714 -1724.464)" fill="#12263f"/>
      <path id="Trazado_115065" data-name="Trazado 115065" d="M566.388,1917.877s-16.262-17.18-12.855-21.6,19.126-11.276,19.126-11.276l19.126-43.156" transform="translate(-414.666 -1725.781)" fill="none" stroke="gray" stroke-linecap="round" stroke-linejoin="round" stroke-width="1"/>
      <path id="Trazado_115066" data-name="Trazado 115066" d="M577.465,1888.139s6.051,2.562,9.081,5.124,23.745,9.779,36.086,10.009" transform="translate(-416.662 -1729.567)" fill="none" stroke="gray" stroke-linecap="round" stroke-linejoin="round" stroke-width="1"/>
      <path id="Trazado_115067" data-name="Trazado 115067" d="M587.6,1886.943s18.621,3.957,35.388-4.894" transform="translate(-417.491 -1729.068)" fill="none" stroke="gray" stroke-linecap="round" stroke-linejoin="round" stroke-width="1"/>
      <path id="Trazado_115068" data-name="Trazado 115068" d="M601.172,1836.669s-2.323,20.017-4.187,26.775" transform="translate(-418.258 -1725.357)" fill="none" stroke="gray" stroke-linecap="round" stroke-linejoin="round" stroke-width="1"/>
      <path id="Trazado_115069" data-name="Trazado 115069" d="M607.125,1839.2c.468.7,5.592,20.954,5.592,28.869" transform="translate(-419.087 -1725.564)" fill="none" stroke="gray" stroke-linecap="round" stroke-linejoin="round" stroke-width="1"/>
      <path id="Trazado_115070" data-name="Trazado 115070" d="M451.157,1819.929s-9.779,2.8-11.872,5.822-21.89,28.639-23.515,32.6,4.417,17.446,4.417,19.787-19.769,29.567-17.694,35.388,9.32,7.915,9.32,7.915H480.3s5.353-10.936,10.945-14.893,8.383-3.03,9.779-5.124-.468-5.821-5.124-8.154-17.694-7.217-17.694-7.217,3.26-2.094.918-3.719-11.4-6.06-12.332-7.456-9.779-24.672-12.58-35.856" transform="translate(-402.339 -1723.988)" fill="#12263f"/>
      <path id="Trazado_115071" data-name="Trazado 115071" d="M503.526,1903.111s6.152-4.169,1.478-6.372-20.6-8.337-20.6-8.337,3.425-4.417.973-5.39-14.159-6.868-14.159-6.868l-14.278-40.7" transform="translate(-406.805 -1725.256)" fill="none" stroke="gray" stroke-linecap="round" stroke-linejoin="round" stroke-width="1"/>
      <path id="Trazado_115072" data-name="Trazado 115072" d="M423.555,1867.6s32.826,8.852,27.7,9.549-20.715,0-22.579.459" transform="translate(-404.074 -1727.887)" fill="none" stroke="gray" stroke-linecap="round" stroke-linejoin="round" stroke-width="1"/>
      <path id="Trazado_115073" data-name="Trazado 115073" d="M479.249,1888.139s-34.892,6.29-32.137,6.988,30.962-2.8,30.962-2.8" transform="translate(-405.988 -1729.567)" fill="none" stroke="gray" stroke-linecap="round" stroke-linejoin="round" stroke-width="1"/>
      <path id="Trazado_115074" data-name="Trazado 115074" d="M449.906,1833.369s-3.021,24.682-3.021,30.733" transform="translate(-405.982 -1725.087)" fill="none" stroke="gray" stroke-linecap="round" stroke-linejoin="round" stroke-width="1"/>
      <path id="Trazado_115075" data-name="Trazado 115075" d="M445.712,1832.609s-6.749,15.132-7.447,21.422" transform="translate(-405.277 -1725.025)" fill="none" stroke="gray" stroke-linecap="round" stroke-linejoin="round" stroke-width="1"/>
      <line id="Línea_264" data-name="Línea 264" x2="45.396" transform="translate(59.294 108.053)" fill="none" stroke="gray" stroke-linecap="round" stroke-linejoin="round" stroke-width="1"/>
      <line id="Línea_265" data-name="Línea 265" x2="37.711" transform="translate(135.892 108.282)" fill="none" stroke="gray" stroke-linecap="round" stroke-linejoin="round" stroke-width="1"/>
      <line id="Línea_266" data-name="Línea 266" x1="5.362" y2="41.907" transform="translate(108.878 121.789)" fill="none" stroke="gray" stroke-linecap="round" stroke-linejoin="round" stroke-width="1"/>
      <line id="Línea_267" data-name="Línea 267" y2="35.388" transform="translate(116.563 128.309)" fill="none" stroke="gray" stroke-linecap="round" stroke-linejoin="round" stroke-width="1"/>
      <line id="Línea_268" data-name="Línea 268" x2="4.426" y2="44.469" transform="translate(120.989 121.789)" fill="none" stroke="gray" stroke-linecap="round" stroke-linejoin="round" stroke-width="1"/>
      <path id="Trazado_115076" data-name="Trazado 115076" d="M508.367,1781s-.918,19.7,1.2,29.062,16.115,33.616,19.934,30.5,17.051-29.3,17.529-36.021.248-23.543.248-23.543-13.213,8.163-22.1,6.005A94.928,94.928,0,0,1,508.367,1781Z" transform="translate(-410.994 -1720.804)" fill="#ffbea7" stroke="#263238" stroke-linecap="round" stroke-linejoin="round" stroke-width="1"/>
      <path id="Trazado_115077" data-name="Trazado 115077" d="M508.175,1788.023c4.435,3.958,10.367,7.75,12.552,8.19,3.306.661,11.57.578,14.214-.734a97.772,97.772,0,0,0,12.4-7.529c0-3.957-.055-6.951-.055-6.951s-13.213,8.163-22.1,6.005A94.926,94.926,0,0,1,508.368,1781S508.239,1783.91,508.175,1788.023Z" transform="translate(-410.995 -1720.804)" fill="#ff9a79"/>
      <path id="Trazado_115078" data-name="Trazado 115078" d="M547.339,1792.449c-2.6,5.785-10.541,21.5-19.76,20.715-8.126-.7-15.61-11.11-19.383-17.152A81.429,81.429,0,0,0,509.572,1811c2.158,9.366,16.087,33.625,19.934,30.5s17.051-29.3,17.529-36.021C547.256,1802.375,547.329,1797.178,547.339,1792.449Z" transform="translate(-410.996 -1721.74)" fill="#fff" stroke="#263238" stroke-linecap="round" stroke-linejoin="round" stroke-width="1"/>
      <path id="Trazado_115079" data-name="Trazado 115079" d="M529.431,1815.6c-.551.064-.165-.542-.725-.588s-.147.569-.634.468l-5.849,6.73,4.8,6.005-4.077,6.253s-.477.615-.973,1.313c3.59,5.289,7.024,8.9,8.659,7.566,1.423-1.157,4.132-5.509,7.006-10.807l-5.087-4.077,3.361-5.509Z" transform="translate(-412.123 -1723.585)" fill="#36c" stroke="#263238" stroke-linecap="round" stroke-linejoin="round" stroke-width="1"/>
      <path id="Trazado_115080" data-name="Trazado 115080" d="M517.275,1827.258l11.046-12.249,11.772,12.249" transform="translate(-411.739 -1723.585)" fill="none" stroke="#263238" stroke-linecap="round" stroke-linejoin="round" stroke-width="1"/>
      <path id="Trazado_115081" data-name="Trazado 115081" d="M502.092,1757.207s-2.341-4.472-4.481-4.279-4.674,3.673-1.754,9.54,5.84,5.647,6.033,3.315S502.092,1757.207,502.092,1757.207Z" transform="translate(-409.879 -1718.508)" fill="#ffbea7" stroke="#263238" stroke-linecap="round" stroke-linejoin="round" stroke-width="1"/>
      <path id="Trazado_115082" data-name="Trazado 115082" d="M496.818,1761.057s-1.221-5.1,1.23-4.591,4.389,4.389,4.389,4.389S497.259,1756.007,496.818,1761.057Z" transform="translate(-410.041 -1718.795)" fill="#263238" stroke="#12263f" stroke-miterlimit="10" stroke-width="1"/>
      <path id="Trazado_115083" data-name="Trazado 115083" d="M554.345,1757.207s2.332-4.472,4.481-4.279,4.664,3.673,1.745,9.54-5.84,5.647-6.033,3.315S554.345,1757.207,554.345,1757.207Z" transform="translate(-414.771 -1718.508)" fill="#ffbea7" stroke="#263238" stroke-linecap="round" stroke-linejoin="round" stroke-width="1"/>
      <path id="Trazado_115084" data-name="Trazado 115084" d="M554.795,1761.049s4.591-6.85,5.271-4.04a5.714,5.714,0,0,1-.349,4.389S559.441,1755.7,554.795,1761.049Z" transform="translate(-414.808 -1718.787)" fill="#263238" stroke="#12263f" stroke-miterlimit="10" stroke-width="1"/>
      <path id="Trazado_115085" data-name="Trazado 115085" d="M504.394,1727.038s-3.957,40.594-1.644,45.553,14.177,13.277,17.446,13.938,11.569.578,14.214-.735,15.509-8.264,16.831-12.212-2.635-41.926-4.288-46.829-12.543-8.264-22.45-8.264S505.386,1724.063,504.394,1727.038Z" transform="translate(-410.492 -1715.691)" fill="#ffbea7" stroke="#263238" stroke-linecap="round" stroke-linejoin="round" stroke-width="1"/>
      <path id="Trazado_115086" data-name="Trazado 115086" d="M509.115,1730.259s7.906,9.375,17.317,11.432,19.282-1.579,19.282-1.579Z" transform="translate(-411.072 -1716.654)" fill="#0a1521" stroke="#12263f" stroke-linecap="round" stroke-linejoin="round" stroke-width="1"/>
      <path id="Trazado_115087" data-name="Trazado 115087" d="M532.736,1748.049s-1.561,4.481-1.561,5.059.781,8.962.781,8.962" transform="translate(-412.876 -1718.109)" fill="none" stroke="#263238" stroke-linecap="round" stroke-linejoin="round" stroke-width="1"/>
      <path id="Trazado_115088" data-name="Trazado 115088" d="M514.845,1767.923c.2-1.166,7.988-4.288,7.988-4.288s-2.534,1.754-.973,2.341,5.647,3.508,7.006,2.92,6.822-3.306,7.015-4.086-.78-2.341-.78-2.341,6.042,4.288,6.62,5.84" transform="translate(-411.54 -1719.288)" fill="none" stroke="#263238" stroke-linecap="round" stroke-linejoin="round" stroke-width="1"/>
      <path id="Trazado_115089" data-name="Trazado 115089" d="M521.8,1744.513s-5.252-2.92-7.979-.973-2.149,3.113-1.368,3.113,2.139-1.754,3.893-1.754S521.226,1746.652,521.8,1744.513Z" transform="translate(-411.292 -1717.686)" fill="#12263f" stroke="#263238" stroke-linecap="round" stroke-linejoin="round" stroke-width="1"/>
      <path id="Trazado_115090" data-name="Trazado 115090" d="M533.655,1744.513s5.252-2.92,7.979-.973,2.149,3.113,1.368,3.113-2.149-1.754-3.893-1.754S534.2,1746.652,533.655,1744.513Z" transform="translate(-413.079 -1717.686)" fill="#12263f" stroke="#263238" stroke-linecap="round" stroke-linejoin="round" stroke-width="1"/>
      <ellipse id="Elipse_5314" data-name="Elipse 5314" cx="1.46" cy="2.139" rx="1.46" ry="2.139" transform="translate(104.48 33.641)" fill="#263238" stroke="#12263f" stroke-miterlimit="10" stroke-width="1"/>
      <ellipse id="Elipse_5315" data-name="Elipse 5315" cx="1.46" cy="2.139" rx="1.46" ry="2.139" transform="translate(123.367 33.641)" fill="#263238" stroke="#12263f" stroke-miterlimit="10" stroke-width="1"/>
      <path id="Trazado_115091" data-name="Trazado 115091" d="M516.335,1770.057s2.332,2.755,3.673,3.306,12.855.973,16.353.193a4.967,4.967,0,0,0,3.893-4.086" transform="translate(-411.662 -1719.861)" fill="none" stroke="#263238" stroke-linecap="round" stroke-linejoin="round" stroke-width="1"/>
      <path id="Trazado_115092" data-name="Trazado 115092" d="M520.637,1756.529s-.2,3.507-6.822,5.068" transform="translate(-411.456 -1718.803)" fill="none" stroke="#263238" stroke-linecap="round" stroke-linejoin="round" stroke-width="1"/>
      <path id="Trazado_115093" data-name="Trazado 115093" d="M535.635,1756.959s2.24,3.186,7.887,3.581" transform="translate(-413.241 -1718.838)" fill="none" stroke="#263238" stroke-linecap="round" stroke-linejoin="round" stroke-width="1"/>
      <path id="Trazado_115094" data-name="Trazado 115094" d="M547.719,1741.2s-.992,3.673.661,5.61,2.975,3.3,2.975,3.3-.331,6.271,1.644,6.271,1.322-2.966,1.322-2.966l-.992-15.151Z" transform="translate(-414.205 -1717.308)" fill="#12263f" stroke="#263238" stroke-linecap="round" stroke-linejoin="round" stroke-width="1"/>
      <path id="Trazado_115095" data-name="Trazado 115095" d="M507.319,1728.441s11.551,9.237,23.1,10.89,20.467.992,21.789-2.645,3.021-12.974-8.861-17.593-26.288-5.261-34.378.432a10.347,10.347,0,0,0-4.591,7.263s-2.966.992-2.966,3.673V1753.2h2.314s-.661-7.924,2.3-9.577,5.28-5.28,5.28-7.924S507.319,1728.441,507.319,1728.441Z" transform="translate(-410.442 -1715.442)" fill="#12263f" stroke="#263238" stroke-linecap="round" stroke-linejoin="round" stroke-width="1"/>
      <path id="Trazado_115096" data-name="Trazado 115096" d="M508.637,1914.139s20.008,6.749,23.258,7.906,10.936,5.583,10.936,6.978-.23,1.635-1.625,1.635H522.364c-1.166,0-21.119.239-22.083-.349a16.792,16.792,0,0,0-3.976-1.047S500.024,1914.837,508.637,1914.139Z" transform="translate(-410.024 -1731.693)" fill="#fff" stroke="#263238" stroke-linecap="round" stroke-linejoin="round" stroke-width="1"/>
      <path id="Trazado_115097" data-name="Trazado 115097" d="M516.325,1927.819s9.072,1.836,12.561,3.958" transform="translate(-411.661 -1732.812)" fill="#fff" stroke="#263238" stroke-linecap="round" stroke-linejoin="round" stroke-width="1"/>
      <path id="Trazado_115098" data-name="Trazado 115098" d="M521.385,1923.769s10.706,4.187,13.5,7.676" transform="translate(-412.075 -1732.481)" fill="#fff" stroke="#263238" stroke-linecap="round" stroke-linejoin="round" stroke-width="1"/>
      <path id="Trazado_115099" data-name="Trazado 115099" d="M527.975,1922.5s10.468,4.655,13.489,8.374" transform="translate(-412.614 -1732.377)" fill="#fff" stroke="#263238" stroke-linecap="round" stroke-linejoin="round" stroke-width="1"/>
      <path id="Trazado_115100" data-name="Trazado 115100" d="M502.8,1908.929l8.145,4.655s-8.145,4.2-10.477,8.383-3.957,7.447-3.957,7.447h-9.265S487.9,1916.578,502.8,1908.929Z" transform="translate(-409.283 -1731.267)" fill="#fff" stroke="#263238" stroke-linecap="round" stroke-linejoin="round" stroke-width="1"/>
      <path id="Trazado_115101" data-name="Trazado 115101" d="M551.137,1915.317s-.817-1.91.174-3.021,9.485-2.755,13.085-.413,7.034,11.588,6.877,14.379-10.266,4.077-13.452,2.755S551.137,1915.317,551.137,1915.317Z" transform="translate(-414.483 -1731.411)" fill="#fff" stroke="#263238" stroke-linecap="round" stroke-linejoin="round" stroke-width="1"/>
      <path id="Trazado_115102" data-name="Trazado 115102" d="M549.158,1913.762l-4.94.652s-28.079-2.3-29.778-1.24-14.756,17.584-14.756,17.584l16.032.918s13.388-5.766,14.554-5.7,6.611,2.709,10.762,3.416,14.315-1.469,14.315-1.469,1.093-2.755-.918-7.989S549.158,1913.762,549.158,1913.762Z" transform="translate(-410.3 -1731.591)" fill="#fff" stroke="#263238" stroke-linecap="round" stroke-linejoin="round" stroke-width="1"/>
      <path id="Trazado_115103" data-name="Trazado 115103" d="M512.845,1932.109s11.781-10.284,13.461-11.12" transform="translate(-411.377 -1732.253)" fill="#fff" stroke="#263238" stroke-linecap="round" stroke-linejoin="round" stroke-width="1"/>
      <line id="Línea_269" data-name="Línea 269" x1="12.157" y2="12.827" transform="translate(97.079 186.312)" fill="none" stroke="#263238" stroke-linecap="round" stroke-linejoin="round" stroke-width="1"/>
      <line id="Línea_270" data-name="Línea 270" x1="12.047" y2="14.93" transform="translate(92.635 184.421)" fill="none" stroke="#263238" stroke-linecap="round" stroke-linejoin="round" stroke-width="1"/>
    </g>
    <g id="freepik--Hammer--inject-49" transform="translate(338.708 1872.251)">
      <path id="Trazado_115104" data-name="Trazado 115104" d="M376.464,1910.849,414,1926a2.048,2.048,0,0,1,1.194,2.488h0a2.038,2.038,0,0,1-2.543,1.36,1.948,1.948,0,0,1-.286-.111l-36.251-17.125Z" transform="translate(-346.392 -1899.289)" fill="#fff" stroke="#263238" stroke-linecap="round" stroke-linejoin="round" stroke-width="1"/>
      <path id="Trazado_115105" data-name="Trazado 115105" d="M359.387,1898.259h5.289v24.149h-5.289c-2.654,0-4.8-5.408-4.8-12.074S356.734,1898.259,359.387,1898.259Z" transform="translate(-344.632 -1898.259)" fill="#fff" stroke="#263238" stroke-linecap="round" stroke-linejoin="round" stroke-width="1"/>
      <ellipse id="Elipse_5316" data-name="Elipse 5316" cx="4.793" cy="12.075" rx="4.793" ry="12.075" transform="translate(15.251 0)" fill="#fff" stroke="#263238" stroke-linecap="round" stroke-linejoin="round" stroke-width="1"/>
      <path id="Trazado_115106" data-name="Trazado 115106" d="M365.851,1899.259h21.881v22.276H365.851c-2.442,0-4.426-4.986-4.426-11.138S363.427,1899.259,365.851,1899.259Z" transform="translate(-345.191 -1898.341)" fill="#fff" stroke="#263238" stroke-linecap="round" stroke-linejoin="round" stroke-width="1"/>
      <path id="Trazado_115107" data-name="Trazado 115107" d="M385.245,1910.415c0,6.152,1.983,11.138,4.426,11.138s4.426-4.986,4.426-11.138-1.956-11.156-4.4-11.156S385.245,1904.263,385.245,1910.415Z" transform="translate(-347.139 -1898.341)" fill="#fff" stroke="#263238" stroke-linecap="round" stroke-linejoin="round" stroke-width="1"/>
      <path id="Trazado_115108" data-name="Trazado 115108" d="M391.03,1898.259h5.316v24.149h-5.3c-2.644,0-4.793-5.408-4.793-12.074S388.385,1898.259,391.03,1898.259Z" transform="translate(-347.222 -1898.259)" fill="#fff" stroke="#263238" stroke-linecap="round" stroke-linejoin="round" stroke-width="1"/>
      <ellipse id="Elipse_5317" data-name="Elipse 5317" cx="4.793" cy="12.075" rx="4.793" ry="12.075" transform="translate(44.313 0)" fill="#fff" stroke="#263238" stroke-linecap="round" stroke-linejoin="round" stroke-width="1"/>
      <path id="Trazado_115109" data-name="Trazado 115109" d="M401.073,1927.581H351.765v-.441a2.911,2.911,0,0,1,2.911-2.911h43.487a2.912,2.912,0,0,1,2.911,2.911h0v.441Z" transform="translate(-344.401 -1900.383)" fill="#fff" stroke="#263238" stroke-linecap="round" stroke-linejoin="round" stroke-width="1"/>
      <path id="Trazado_115110" data-name="Trazado 115110" d="M408.516,1931.216H343.745v-.459a3.058,3.058,0,0,1,3.058-3.058h58.655a3.058,3.058,0,0,1,3.058,3.058v.459Z" transform="translate(-343.745 -1900.667)" fill="#fff" stroke="#263238" stroke-linecap="round" stroke-linejoin="round" stroke-width="1"/>
    </g>
    <g id="freepik--Table--inject-49" transform="translate(296.277 1902.378)">
      <rect id="Rectángulo_28715" data-name="Rectángulo 28715" width="394.409" height="61.796" transform="translate(5.381 6.198)" fill="#fff"/>
      <rect id="Rectángulo_28716" data-name="Rectángulo 28716" width="362.41" height="5.638" transform="translate(24.112 8.796)" opacity="0.3" style="isolation: isolate"/>
      <rect id="Rectángulo_28717" data-name="Rectángulo 28717" width="408.513" height="10.55" fill="#0a4b6e" stroke="#12263f" stroke-linecap="round" stroke-linejoin="round" stroke-width="1"/>
      <rect id="Rectángulo_28718" data-name="Rectángulo 28718" width="95.825" height="10.33" transform="translate(23.956 10.624)" fill="none" stroke="#263238" stroke-linecap="round" stroke-linejoin="round" stroke-width="1"/>
      <path id="Trazado_115111" data-name="Trazado 115111" d="M403.607,1964.219H341.049l-7.814-10.33h78.186Z" transform="translate(-300.454 -1932.936)" fill="none" stroke="#263238" stroke-linecap="round" stroke-linejoin="round" stroke-width="1"/>
      <line id="Línea_271" data-name="Línea 271" y2="39.364" transform="translate(40.594 31.283)" fill="none" stroke="#263238" stroke-linecap="round" stroke-linejoin="round" stroke-width="1"/>
      <line id="Línea_272" data-name="Línea 272" y1="39.364" transform="translate(102.987 31.283)" fill="none" stroke="#263238" stroke-linecap="round" stroke-linejoin="round" stroke-width="1"/>
      <path id="Trazado_115112" data-name="Trazado 115112" d="M349.215,2005.3v-33.193h21.651v32.964" transform="translate(-301.761 -1934.426)" fill="none" stroke="#263238" stroke-linecap="round" stroke-linejoin="round" stroke-width="1"/>
      <path id="Trazado_115113" data-name="Trazado 115113" d="M378.125,2005.3v-33.193h21.651v32.964" transform="translate(-304.126 -1934.426)" fill="none" stroke="#263238" stroke-linecap="round" stroke-linejoin="round" stroke-width="1"/>
      <rect id="Rectángulo_28719" data-name="Rectángulo 28719" width="95.825" height="10.33" transform="translate(290.762 10.624)" fill="none" stroke="#263238" stroke-linecap="round" stroke-linejoin="round" stroke-width="1"/>
      <path id="Trazado_115114" data-name="Trazado 115114" d="M694.177,1964.219H631.619l-7.814-10.33H701.99Z" transform="translate(-324.219 -1932.936)" fill="none" stroke="#263238" stroke-linecap="round" stroke-linejoin="round" stroke-width="1"/>
      <line id="Línea_273" data-name="Línea 273" y1="39.364" transform="translate(307.4 31.283)" fill="none" stroke="#263238" stroke-linecap="round" stroke-linejoin="round" stroke-width="1"/>
      <line id="Línea_274" data-name="Línea 274" y2="39.364" transform="translate(369.801 31.283)" fill="none" stroke="#263238" stroke-linecap="round" stroke-linejoin="round" stroke-width="1"/>
      <path id="Trazado_115115" data-name="Trazado 115115" d="M639.795,2005.3v-33.193h21.651v32.964" transform="translate(-325.527 -1934.426)" fill="none" stroke="#263238" stroke-linecap="round" stroke-linejoin="round" stroke-width="1"/>
      <path id="Trazado_115116" data-name="Trazado 115116" d="M668.695,2005.3v-33.193h21.651v32.964" transform="translate(-327.891 -1934.426)" fill="none" stroke="#263238" stroke-linecap="round" stroke-linejoin="round" stroke-width="1"/>
      <line id="Línea_275" data-name="Línea 275" x2="203.485" transform="translate(103.455 44.331)" fill="none" stroke="#263238" stroke-linecap="round" stroke-linejoin="round" stroke-width="1"/>
      <path id="Trazado_115117" data-name="Trazado 115117" d="M557.346,1950.44v18.814h-77.92V1950.44h77.92m2.755-2.755H476.635v24.4h83.5v-24.434Z" transform="translate(-312.183 -1932.426)" fill="#263238" stroke="#12263f" stroke-miterlimit="10" stroke-width="1"/>
    </g>
  </g>
</svg>
