<svg xmlns="http://www.w3.org/2000/svg" xmlns:xlink="http://www.w3.org/1999/xlink" width="120" height="120" viewBox="0 0 120 120">
  <defs>
    <linearGradient id="linear-gradient" x1="2.076" y1="155.072" x2="3.056" y2="155.072" gradientUnits="objectBoundingBox">
      <stop offset="0" stop-color="#ced5d5"/>
      <stop offset="1" stop-color="#ededed"/>
    </linearGradient>
    <linearGradient id="linear-gradient-2" x1="6.449" y1="209.107" x2="6.449" y2="210.088" gradientUnits="objectBoundingBox">
      <stop offset="0" stop-color="#fddacc"/>
      <stop offset="0.979" stop-color="#fdc8bb"/>
    </linearGradient>
    <linearGradient id="linear-gradient-3" x1="6.527" y1="209.107" x2="6.527" y2="210.088" xlink:href="#linear-gradient-2"/>
    <linearGradient id="linear-gradient-4" x1="2.002" y1="58.637" x2="2.002" y2="59.618" gradientUnits="objectBoundingBox">
      <stop offset="0.021" stop-color="#fdc8bb"/>
      <stop offset="1" stop-color="#fddacc"/>
    </linearGradient>
    <linearGradient id="linear-gradient-5" x1="4.493" y1="133.187" x2="4.493" y2="134.168" gradientUnits="objectBoundingBox">
      <stop offset="0" stop-color="#d66743"/>
      <stop offset="0.979" stop-color="#e79580"/>
    </linearGradient>
    <linearGradient id="linear-gradient-6" x1="8.166" y1="308.151" x2="8.166" y2="309.131" xlink:href="#linear-gradient-4"/>
    <linearGradient id="linear-gradient-7" x1="8.649" y1="481.551" x2="8.649" y2="482.531" gradientUnits="objectBoundingBox">
      <stop offset="0" stop-color="#8d889d"/>
      <stop offset="0.978" stop-color="#c1bfc5"/>
    </linearGradient>
  </defs>
  <g id="Grupo_55109" data-name="Grupo 55109" transform="translate(-235 -10335)">
    <rect id="Rectángulo_29026" data-name="Rectángulo 29026" width="120" height="120" transform="translate(235 10335)" fill="none"/>
    <g id="Grupo_53487" data-name="Grupo 53487" transform="translate(249 10349)">
      <circle id="Elipse_5362" data-name="Elipse 5362" cx="46.241" cy="46.241" r="46.241" fill="#ea3065"/>
      <g id="Grupo_53486" data-name="Grupo 53486" transform="translate(11.34 7.853)">
        <path id="Trazado_116482" data-name="Trazado 116482" d="M369.114,5316.8l33.719,5.425v12.3a19.379,19.379,0,0,1-19.379,19.379h-28.68a19.379,19.379,0,0,1-19.379-19.379v-12.3Z" transform="translate(-334.213 -5288.508)" fill="#69f"/>
        <path id="Trazado_116483" data-name="Trazado 116483" d="M393.629,5367.81c-2.21-7.618-7.124-10.7-7.124-10.7H361.057s-4.638,2.91-6.928,10.061l4.323,8.453,8.795-1.847,6.019,1.847h21.422a27.851,27.851,0,0,0-1.058-7.814Z" transform="translate(-338.88 -5298.551)" fill="url(#linear-gradient)"/>
        <path id="Trazado_116484" data-name="Trazado 116484" d="M402.833,5312.838a33.719,33.719,0,0,0-67.438,0Z" transform="translate(-334.213 -5279.119)" fill="#69f"/>
        <circle id="Elipse_5363" data-name="Elipse 5363" cx="6.997" cy="6.997" r="6.997" transform="translate(55.808 28.294)" fill="url(#linear-gradient-2)"/>
        <circle id="Elipse_5364" data-name="Elipse 5364" cx="6.997" cy="6.997" r="6.997" transform="translate(0 28.294)" fill="url(#linear-gradient-3)"/>
        <path id="Trazado_116485" data-name="Trazado 116485" d="M344.543,5307.978a6.734,6.734,0,0,1,6.39-4.631h8.512a6.894,6.894,0,0,0,5.591-2.859l3.017-4.179a3.687,3.687,0,0,1,5.98,0l3.018,4.179a6.893,6.893,0,0,0,5.59,2.859h8.514a6.7,6.7,0,0,1,6.36,4.547,27.9,27.9,0,1,1-52.972.084Z" transform="translate(-336.142 -5283.021)" fill="url(#linear-gradient-4)"/>
        <g id="Grupo_53481" data-name="Grupo 53481" transform="translate(49.556 7.987)">
          <path id="Trazado_116486" data-name="Trazado 116486" d="M404.137,5295.4a31.608,31.608,0,0,0-3.639-2.835,1.535,1.535,0,1,1,1.713-2.548,34.62,34.62,0,0,1,3.995,3.115,1.535,1.535,0,1,1-2.069,2.268Z" transform="translate(-399.82 -5289.755)" fill="#918ca1"/>
        </g>
        <g id="Grupo_53482" data-name="Grupo 53482" transform="translate(41.376 4.18)">
          <path id="Trazado_116487" data-name="Trazado 116487" d="M392.67,5288.6a27.244,27.244,0,0,0-2.629-.9,1.535,1.535,0,0,1,.84-2.954,29.962,29.962,0,0,1,2.928,1,1.535,1.535,0,1,1-1.139,2.851Z" transform="translate(-388.925 -5284.686)" fill="#918ca1"/>
        </g>
        <g id="Grupo_53485" data-name="Grupo 53485" transform="translate(12.765 28.272)">
          <ellipse id="Elipse_5365" data-name="Elipse 5365" cx="3.216" cy="2.584" rx="3.216" ry="2.584" transform="translate(37.841 10.168)" fill="#fb99ac"/>
          <ellipse id="Elipse_5366" data-name="Elipse 5366" cx="3.216" cy="2.584" rx="3.216" ry="2.584" transform="translate(0 10.168)" fill="#fb99ac"/>
          <circle id="Elipse_5367" data-name="Elipse 5367" cx="6.376" cy="6.376" r="6.376" transform="translate(29.167)" fill="#fff"/>
          <circle id="Elipse_5368" data-name="Elipse 5368" cx="6.376" cy="6.376" r="6.376" transform="translate(2.352)" fill="#fff"/>
          <g id="Grupo_53484" data-name="Grupo 53484" transform="translate(4.928 2.576)">
            <g id="Grupo_53483" data-name="Grupo 53483">
              <circle id="Elipse_5369" data-name="Elipse 5369" cx="3.8" cy="3.8" r="3.8" transform="translate(26.815)" fill="#383842"/>
              <circle id="Elipse_5370" data-name="Elipse 5370" cx="3.8" cy="3.8" r="3.8" fill="#383842"/>
            </g>
            <path id="Trazado_116488" data-name="Trazado 116488" d="M379.235,5332.773a4.361,4.361,0,0,1-2.971-1.2.768.768,0,0,1,1.044-1.126,2.747,2.747,0,0,0,3.855,0,.768.768,0,0,1,1.044,1.126,4.355,4.355,0,0,1-2.971,1.2Z" transform="translate(-362.027 -5322.705)" fill="#383842"/>
          </g>
        </g>
        <path id="Trazado_116489" data-name="Trazado 116489" d="M395.6,5372.167a1.151,1.151,0,0,1,1.152,1.151v6.058h-2.3v-6.058A1.151,1.151,0,0,1,395.6,5372.167Z" transform="translate(-348.926 -5302.302)" fill="#d1cfd6"/>
        <path id="Trazado_116490" data-name="Trazado 116490" d="M357.6,5365.373v-7.762a4.491,4.491,0,0,1,4.492-4.491H374.13a4.491,4.491,0,0,1,4.492,4.491v12.528a4.491,4.491,0,0,1-4.492,4.491H359.317Z" transform="translate(-339.745 -5297.557)" fill="url(#linear-gradient-5)"/>
        <path id="Trazado_116491" data-name="Trazado 116491" d="M371.78,5355.568l4.646-2.448h.87a4.473,4.473,0,0,1,2.888,1.052,6.846,6.846,0,0,1-6.754,5.783h-.86a2.264,2.264,0,0,1-.788-4.387Z" transform="translate(-342.91 -5297.557)" fill="#d86743"/>
        <path id="Trazado_116492" data-name="Trazado 116492" d="M356.065,5369.439h1.716a4.629,4.629,0,0,1,0,9.257h-1.716a4.629,4.629,0,0,1,0-9.257Z" transform="translate(-338.209 -5301.622)" fill="url(#linear-gradient-6)"/>
        <path id="Trazado_116493" data-name="Trazado 116493" d="M367.738,5349.129h4.305a3,3,0,1,1,0,5.993h-4.305a3,3,0,1,1,0-5.993Z" transform="translate(-341.524 -5296.562)" fill="url(#linear-gradient-7)"/>
      </g>
    </g>
  </g>
</svg>
