<svg xmlns="http://www.w3.org/2000/svg" width="391.841" height="389.823" viewBox="0 0 391.841 389.823">
  <g id="Grupo_53400" data-name="Grupo 53400" transform="translate(-801.489 -2727.645)">
    <g id="freepik--Flag--inject-50" transform="translate(853.186 2844.159)">
      <g id="freepik--flag--inject-50-2" data-name="freepik--flag--inject-50">
        <path id="Trazado_115740" data-name="Trazado 115740" d="M863.12,2866.549" transform="translate(-863.12 -2866.549)" fill="#3f528d"/>
      </g>
    </g>
    <g id="freepik--Floor--inject-50" transform="translate(804.763 2894.048)">
      <path id="freepik--floor--inject-50-2" data-name="freepik--floor--inject-50" d="M1137.056,2958.738c-75.87-43.618-198.89-43.618-274.761,0s-75.87,114.364,0,157.99,198.89,43.618,274.761,0S1212.926,3002.365,1137.056,2958.738Z" transform="translate(-805.393 -2926.025)" fill="#fcebd5"/>
    </g>
    <g id="freepik--Plants--inject-50" transform="translate(801.489 2923.015)">
      <g id="freepik--plants--inject-50-2" data-name="freepik--plants--inject-50" transform="translate(0 20.002)">
        <path id="Trazado_115741" data-name="Trazado 115741" d="M829,3041.394l6.367-3.674s1.56-13.622.52-24.175c-1.46-14.83-11.03-32.713-22.455-28.52s5.234,19.293,8.942,31.875S829,3041.394,829,3041.394Z" transform="translate(-802.778 -2984.405)" fill="#36c"/>
        <path id="Trazado_115742" data-name="Trazado 115742" d="M829,3041.394l6.367-3.674s1.56-13.622.52-24.175c-1.46-14.83-11.03-32.713-22.455-28.52s5.234,19.293,8.942,31.875S829,3041.394,829,3041.394Z" transform="translate(-802.778 -2984.405)" opacity="0.15" style="isolation: isolate"/>
        <path id="Trazado_115743" data-name="Trazado 115743" d="M833.679,3040.756h0a.387.387,0,0,1-.378-.394v-.009c1.116-32.948-15.283-49.49-15.451-49.683a.386.386,0,0,1,.545-.545c.168.168,16.776,16.978,15.677,50.261A.387.387,0,0,1,833.679,3040.756Z" transform="translate(-804.11 -2985.31)" fill="#fff"/>
        <path id="Trazado_115744" data-name="Trazado 115744" d="M823.71,3047.4l4.53-2.609a49.908,49.908,0,0,0-3.817-20.71c-3.984-9.889-13.891-18.093-18.873-16.365s-4.857,5.251-2.424,8.959S820.321,3029.211,823.71,3047.4Z" transform="translate(-801.489 -2988.125)" fill="#36c"/>
        <path id="Trazado_115745" data-name="Trazado 115745" d="M826.945,3046.949h0a.386.386,0,0,1-.386-.386c.092-20.836-19.469-34.911-19.67-35.054a.394.394,0,0,1-.092-.537.377.377,0,0,1,.523-.1l.013.009c.2.143,20.089,14.453,20,35.683A.4.4,0,0,1,826.945,3046.949Z" transform="translate(-802.333 -2988.66)" fill="#fff"/>
      </g>
      <g id="freepik--plants--inject-50-3" data-name="freepik--plants--inject-50" transform="translate(358.156)">
        <path id="Trazado_115746" data-name="Trazado 115746" d="M1233.5,3008.829l-5.033-2.609s.075-17.179,4.094-27.521c5.578-14.335,15.644-20.97,21.457-17.011,3.4,2.307,3.3,6.962-5.318,14.2C1243.627,2980.159,1236.414,2994.829,1233.5,3008.829Z" transform="translate(-1228.47 -2960.559)" fill="#36c"/>
        <g id="Grupo_53392" data-name="Grupo 53392" opacity="0.15">
          <path id="Trazado_115747" data-name="Trazado 115747" d="M1233.5,3008.829l-5.033-2.609s.075-17.179,4.094-27.521c5.578-14.335,15.644-20.97,21.457-17.011,3.4,2.307,3.3,6.962-5.318,14.2C1243.627,2980.159,1236.414,2994.829,1233.5,3008.829Z" transform="translate(-1228.47 -2960.559)"/>
        </g>
        <path id="Trazado_115748" data-name="Trazado 115748" d="M1233.637,2998.024h.042a.353.353,0,0,0,.369-.319c1.124-14.52,10.15-28.729,17.875-33.552a.336.336,0,0,0,.112-.461l-.011-.017a.336.336,0,0,0-.463-.105l-.007,0c-7.868,4.924-17.053,19.36-18.194,34.1A.361.361,0,0,0,1233.637,2998.024Z" transform="translate(-1229.258 -2961.036)" fill="#fff"/>
        <path id="Trazado_115749" data-name="Trazado 115749" d="M1244.112,3017.72c.612.553,2.953-.554,3.59-.839a6.881,6.881,0,0,0,2.785-2.072,6.367,6.367,0,0,0,1.376-3.657,14.709,14.709,0,0,0,0-2.105c-.05-.7-.092-1.384-.143-2.072a5.152,5.152,0,0,1,.143-2.03c.461-1.292,1.845-1.971,3.1-2.516,1.384-.629,2.877-1.535,3.221-3.146a5.771,5.771,0,0,0-.679-3.666,32.9,32.9,0,0,1-1.678-3.12,3.991,3.991,0,0,1,.587-3.112c.562-.973,1.325-1.812,1.929-2.76s1.3-2.609.629-3.825c-1.51-2.717-4.53-2.625-7.1-1.594a33.85,33.85,0,0,1-5.133,2.072c-2.441.537-5.175,0-7.314,1.258a4.907,4.907,0,0,0-2.34,4.287c.05,1.594.889,3.221.344,4.722s-2,2.105-3.146,3.062a9.224,9.224,0,0,0-2.818,8.7,20.729,20.729,0,0,0,2.516,6.71S1243.542,3017.208,1244.112,3017.72Z" transform="translate(-1228.921 -2963.779)" fill="#36c"/>
        <path id="Trazado_115750" data-name="Trazado 115750" d="M1239.449,3012.708h0a.344.344,0,0,0,.386-.268c2.214-12.7,11.165-25.307,16.357-28.411a.319.319,0,0,0,.123-.434l-.006-.011a.327.327,0,0,0-.445-.109c-5.3,3.162-14.427,15.938-16.676,28.855A.327.327,0,0,0,1239.449,3012.708Z" transform="translate(-1230.197 -2964.245)" fill="#fff"/>
        <path id="Trazado_115751" data-name="Trazado 115751" d="M1245.86,3000.378a.174.174,0,0,0,.092,0,42.951,42.951,0,0,1,9.462.52.328.328,0,0,0,.369-.268.31.31,0,0,0-.232-.372l-.028-.005a44.391,44.391,0,0,0-9.621-.52.334.334,0,0,0-.3.352A.327.327,0,0,0,1245.86,3000.378Z" transform="translate(-1231.231 -2966.863)" fill="#fff"/>
      </g>
    </g>
    <g id="freepik--Stage--inject-50" transform="translate(822.359 2881.046)">
      <g id="freepik--Pallet--inject-50">
        <path id="Trazado_115752" data-name="Trazado 115752" d="M826.37,3022.766,987.681,3115.9l194.411-112.241-161.32-93.133Z" transform="translate(-826.37 -2910.525)" fill="#455a64"/>
        <path id="Trazado_115753" data-name="Trazado 115753" d="M826.37,3044.335v9.546l161.312,93.141v-9.554Z" transform="translate(-826.37 -2932.094)" fill="#263238"/>
        <path id="Trazado_115754" data-name="Trazado 115754" d="M1213.091,3021.555v9.554L1018.68,3143.35V3133.8Z" transform="translate(-857.368 -2928.422)" fill="#12263f"/>
      </g>
    </g>
    <g id="freepik--Character--inject-50" transform="translate(899.471 2785.431)">
      <g id="freepik--character--inject-50-2" data-name="freepik--character--inject-50">
        <g id="freepik--Chair--inject-50" transform="translate(6.668 32.114)">
          <path id="Trazado_115755" data-name="Trazado 115755" d="M964.7,3029.921a3.8,3.8,0,0,0,.1.914,2.078,2.078,0,0,0,.839,1.283h0a2.392,2.392,0,0,0,2.516-.193,7.721,7.721,0,0,0,3.5-6.056,2.519,2.519,0,0,0-.99-2.214h0l-.168-.093h0a2.111,2.111,0,0,0-1.485-.059,3.663,3.663,0,0,0-.839.369A7.706,7.706,0,0,0,964.7,3029.921Z" transform="translate(-932.448 -2865.217)" fill="#12263f"/>
          <path id="Trazado_115756" data-name="Trazado 115756" d="M965.182,3022.085a3.211,3.211,0,0,1,1.552-.47,1.859,1.859,0,0,1,.981.277l.092.05,2.248,1.3a2.111,2.111,0,0,0-1.485-.059,3.683,3.683,0,0,0-.839.369,7.706,7.706,0,0,0-3.489,6.04,3.769,3.769,0,0,0,.1.914,2.081,2.081,0,0,0,.839,1.283l-2.315-1.342h0l-.2-.117-.059-.042a2.574,2.574,0,0,1-.839-2.139A7.716,7.716,0,0,1,965.182,3022.085Z" transform="translate(-931.973 -2864.93)" fill="#263238"/>
          <path id="Trazado_115757" data-name="Trazado 115757" d="M1009.75,3005.65a4.347,4.347,0,0,0,.092.914,2.144,2.144,0,0,0,.839,1.283h0a2.425,2.425,0,0,0,2.516-.2,7.7,7.7,0,0,0,3.49-6.048,2.518,2.518,0,0,0-.981-2.214h0l-.168-.1h0a2.164,2.164,0,0,0-1.485-.059,4.188,4.188,0,0,0-.839.377A7.691,7.691,0,0,0,1009.75,3005.65Z" transform="translate(-939.709 -2861.304)" fill="#12263f"/>
          <path id="Trazado_115758" data-name="Trazado 115758" d="M1010.222,2997.865a3.138,3.138,0,0,1,1.56-.47,1.781,1.781,0,0,1,.981.277l.092.042,2.248,1.3a2.159,2.159,0,0,0-1.485-.059,4.186,4.186,0,0,0-.839.377,7.69,7.69,0,0,0-3.489,6.04,4.355,4.355,0,0,0,.092.914,2.144,2.144,0,0,0,.839,1.283l-2.315-1.342h0l-.2-.117h-.059a2.583,2.583,0,0,1-.839-2.147A7.707,7.707,0,0,1,1010.222,2997.865Z" transform="translate(-939.233 -2861.026)" fill="#263238"/>
          <path id="Trazado_115759" data-name="Trazado 115759" d="M1000.372,3039.331a4.41,4.41,0,0,1-.1.914,2.112,2.112,0,0,1-.839,1.283h0a2.409,2.409,0,0,1-2.516-.193,7.734,7.734,0,0,1-3.5-6.056,2.515,2.515,0,0,1,.99-2.214h0l.168-.1h0a2.237,2.237,0,0,1,1.493-.059,4.62,4.62,0,0,1,.839.377A7.693,7.693,0,0,1,1000.372,3039.331Z" transform="translate(-937.075 -2866.734)" fill="#12263f"/>
          <path id="Trazado_115760" data-name="Trazado 115760" d="M999.632,3031.545a3.219,3.219,0,0,0-1.552-.47,1.857,1.857,0,0,0-.981.277l-.092.05-2.256,1.292a2.235,2.235,0,0,1,1.493-.059,4.605,4.605,0,0,1,.839.377,7.694,7.694,0,0,1,3.489,6.039,4.406,4.406,0,0,1-.1.914,2.112,2.112,0,0,1-.839,1.283l2.307-1.342h.042l.2-.117h.059a2.585,2.585,0,0,0,.839-2.147A7.717,7.717,0,0,0,999.632,3031.545Z" transform="translate(-937.292 -2866.455)" fill="#263238"/>
          <path id="Trazado_115761" data-name="Trazado 115761" d="M1029.614,3025.009a4.447,4.447,0,0,1-.092.914,2.109,2.109,0,0,1-.839,1.275h0a2.418,2.418,0,0,1-2.516-.2,7.709,7.709,0,0,1-3.5-6.048,2.515,2.515,0,0,1,.99-2.214h0l.159-.1h0a2.155,2.155,0,0,1,1.485-.059,3.746,3.746,0,0,1,.839.377A7.7,7.7,0,0,1,1029.614,3025.009Z" transform="translate(-941.79 -2864.423)" fill="#12263f"/>
          <path id="Trazado_115762" data-name="Trazado 115762" d="M1028.874,3017.223a3.144,3.144,0,0,0-1.552-.478,1.854,1.854,0,0,0-.981.277l-.092.05-2.248,1.3a2.157,2.157,0,0,1,1.485-.059,3.729,3.729,0,0,1,.839.377,7.7,7.7,0,0,1,3.49,6.04,4.469,4.469,0,0,1-.092.914,2.109,2.109,0,0,1-.839,1.275l2.315-1.334h0l.2-.126h.059a2.585,2.585,0,0,0,.839-2.147A7.7,7.7,0,0,0,1028.874,3017.223Z" transform="translate(-942.006 -2864.145)" fill="#263238"/>
          <path id="Trazado_115763" data-name="Trazado 115763" d="M973.094,3007.44a4.406,4.406,0,0,1-.1.914,2.152,2.152,0,0,1-.839,1.283h0a2.424,2.424,0,0,1-2.516-.193,7.723,7.723,0,0,1-3.489-6.056,2.516,2.516,0,0,1,.981-2.214h0l.168-.1h0a2.159,2.159,0,0,1,1.485-.059,4.243,4.243,0,0,1,.839.378A7.7,7.7,0,0,1,973.094,3007.44Z" transform="translate(-932.68 -2861.593)" fill="#12263f"/>
          <path id="Trazado_115764" data-name="Trazado 115764" d="M972.352,2999.655a3.147,3.147,0,0,0-1.552-.47,1.784,1.784,0,0,0-.99.277l-.084.042-2.256,1.3a2.159,2.159,0,0,1,1.485-.059,4.228,4.228,0,0,1,.839.377,7.7,7.7,0,0,1,3.5,6.04,4.406,4.406,0,0,1-.1.914,2.152,2.152,0,0,1-.839,1.283l2.315-1.342h.042l.193-.117a.154.154,0,0,0,.059-.042,2.564,2.564,0,0,0,.839-2.147A7.711,7.711,0,0,0,972.352,2999.655Z" transform="translate(-932.894 -2861.315)" fill="#263238"/>
          <path id="Trazado_115765" data-name="Trazado 115765" d="M999.29,2999.208l12.465-3.573v2.659l-12.465,7.2Z" transform="translate(-938.023 -2860.742)" fill="#f0f0f0"/>
          <path id="Trazado_115766" data-name="Trazado 115766" d="M999.053,2999.094l-1.233-.755,12.507-3.414,1.191.6Z" transform="translate(-937.786 -2860.628)" fill="#fafafa"/>
          <path id="Trazado_115767" data-name="Trazado 115767" d="M989.453,3007.574l-17.674-6.618v-2.7l17.674,1.585Z" transform="translate(-933.589 -2861.165)" fill="#f0f0f0"/>
          <path id="Trazado_115768" data-name="Trazado 115768" d="M971.78,2998.189l1.292-.344,17.439,1.132-1.057.8Z" transform="translate(-933.589 -2861.099)" fill="#fafafa"/>
          <path id="Trazado_115769" data-name="Trazado 115769" d="M992.29,3005c0,2,6.148,2,6.148,0v-17.481H992.29Z" transform="translate(-936.895 -2859.434)" fill="#fafafa"/>
          <path id="Trazado_115770" data-name="Trazado 115770" d="M997.385,3002.935l3.355,21.952h-2.248l-3.162-21.952A3.918,3.918,0,0,0,997.385,3002.935Z" transform="translate(-937.385 -2861.919)" fill="#fafafa"/>
          <path id="Trazado_115771" data-name="Trazado 115771" d="M995.29,3002.925v6.031l3.162,19.645v-3.716Z" transform="translate(-937.378 -2861.917)" fill="#f0f0f0"/>
          <rect id="Rect치ngulo_28739" data-name="Rect치ngulo 28739" width="2.315" height="3.716" transform="translate(61.073 162.967)" fill="#e0e0e0"/>
          <path id="Trazado_115772" data-name="Trazado 115772" d="M989.657,3008.784l-22.807,11.953v-3.682l22.807-14.1Z" transform="translate(-932.794 -2861.922)" fill="#f0f0f0"/>
          <path id="Trazado_115773" data-name="Trazado 115773" d="M989.376,3002.828a2.628,2.628,0,0,1-1.46-.663l-22.757,13.8,1.418.965Z" transform="translate(-932.522 -2861.795)" fill="#fafafa"/>
          <path id="Trazado_115774" data-name="Trazado 115774" d="M966.577,3023.262v-3.682l-1.418-.965v3.573Z" transform="translate(-932.522 -2864.447)" fill="#e0e0e0"/>
          <path id="Trazado_115775" data-name="Trazado 115775" d="M1023.619,3016.461l-24.359-8.338v-5.469l24.359,10.133Z" transform="translate(-938.018 -2861.874)" fill="#f0f0f0"/>
          <path id="Trazado_115776" data-name="Trazado 115776" d="M999.26,3002.473c.2-.051.285-.411.3-.948l24.779,10.779-.721.3Z" transform="translate(-938.018 -2861.692)" fill="#fafafa"/>
          <path id="Trazado_115777" data-name="Trazado 115777" d="M1029.021,3014.375v3.565l-.721.411v-3.674Z" transform="translate(-942.699 -2863.763)" fill="#e0e0e0"/>
          <rect id="Rect치ngulo_28740" data-name="Rect치ngulo 28740" width="2.315" height="3.716" transform="translate(61.073 162.967)" fill="#f0f0f0" opacity="0.1" style="isolation: isolate"/>
          <path id="Trazado_115778" data-name="Trazado 115778" d="M966.577,3023.262v-3.682l-1.418-.965v3.573Z" transform="translate(-932.522 -2864.447)" fill="#f0f0f0" opacity="0.1" style="isolation: isolate"/>
          <path id="Trazado_115779" data-name="Trazado 115779" d="M1029.021,3014.375v3.565l-.721.411v-3.674Z" transform="translate(-942.699 -2863.763)" opacity="0.1" style="isolation: isolate"/>
          <path id="Trazado_115780" data-name="Trazado 115780" d="M1000.16,2951.175H989.75v36.069c0,2.995,10.41,2.995,10.41,0Z" transform="translate(-936.486 -2853.576)" fill="#f0f0f0"/>
          <g id="freepik--chair--inject-50-2" data-name="freepik--chair--inject-50">
            <path id="Trazado_115781" data-name="Trazado 115781" d="M947.8,2927.846,987.7,2907s2.8-13.647-6.652-28.52c0,0,2.818-26.515-1.9-35.331-3.456-6.71-7.549-5.8-7.549-5.8l-45.3,20.459Z" transform="translate(-926.258 -2835.221)" fill="#36c"/>
            <path id="Trazado_115782" data-name="Trazado 115782" d="M947.8,2927.846,987.7,2907s2.8-13.647-6.652-28.52c0,0,2.818-26.515-1.9-35.331-3.456-6.71-7.549-5.8-7.549-5.8l-45.3,20.459Z" transform="translate(-926.258 -2835.221)" fill="#ea3065" opacity="0.3" style="isolation: isolate"/>
            <path id="Trazado_115783" data-name="Trazado 115783" d="M971.546,2837.337l-45.3,20.459,1.485,4.84,49.557-22.379C974.356,2836.716,971.546,2837.337,971.546,2837.337Z" transform="translate(-926.25 -2835.22)" fill="#36c"/>
            <path id="Trazado_115784" data-name="Trazado 115784" d="M971.546,2837.337l-45.3,20.459,1.485,4.84,49.557-22.379C974.356,2836.716,971.546,2837.337,971.546,2837.337Z" transform="translate(-926.25 -2835.22)" fill="#e36099" opacity="0.15" style="isolation: isolate"/>
            <path id="Trazado_115785" data-name="Trazado 115785" d="M1037.445,2936.621v2.2a7.953,7.953,0,0,1-3.884,6.425L989.1,2968.6a8.834,8.834,0,0,1-7.675-.16l-25.659-14.813a8.387,8.387,0,0,1-3.8-6.577v-2.2a7.923,7.923,0,0,1,3.884-6.417l42.108-21.994a9.592,9.592,0,0,1,7.809-.067l27.79,13.9A7.769,7.769,0,0,1,1037.445,2936.621Z" transform="translate(-930.396 -2847.837)" fill="#36c"/>
            <path id="Trazado_115786" data-name="Trazado 115786" d="M1037.445,2936.621v2.2a7.953,7.953,0,0,1-3.884,6.425L989.1,2968.6a8.834,8.834,0,0,1-7.675-.16l-25.659-14.813a8.387,8.387,0,0,1-3.8-6.577v-2.2a7.923,7.923,0,0,1,3.884-6.417l42.108-21.994a9.592,9.592,0,0,1,7.809-.067l27.79,13.9A7.769,7.769,0,0,1,1037.445,2936.621Z" transform="translate(-930.396 -2847.837)" opacity="0.1" style="isolation: isolate"/>
            <path id="Trazado_115787" data-name="Trazado 115787" d="M1037.445,2936.621v2.2a7.953,7.953,0,0,1-3.884,6.425L989.1,2968.6a8.834,8.834,0,0,1-7.675-.16l-25.659-14.813a8.387,8.387,0,0,1-3.8-6.577v-2.2a7.923,7.923,0,0,1,3.884-6.417l42.108-21.994a9.592,9.592,0,0,1,7.809-.067l27.79,13.9A7.769,7.769,0,0,1,1037.445,2936.621Z" transform="translate(-930.396 -2847.837)" opacity="0.25" style="isolation: isolate"/>
            <path id="Trazado_115788" data-name="Trazado 115788" d="M989.5,2957.625l44.457-23.353c2.147-1.124,2.13-2.919,0-4l-27.765-13.9a9.592,9.592,0,0,0-7.809.067l-42.108,21.994c-2.147,1.115-2.181,3.011-.084,4.194l25.676,14.838A8.832,8.832,0,0,0,989.5,2957.625Z" transform="translate(-930.827 -2847.837)" fill="#36c"/>
            <path id="Trazado_115789" data-name="Trazado 115789" d="M989.5,2957.625l44.457-23.353c2.147-1.124,2.13-2.919,0-4l-27.765-13.9a9.592,9.592,0,0,0-7.809.067l-42.108,21.994c-2.147,1.115-2.181,3.011-.084,4.194l25.676,14.838A8.832,8.832,0,0,0,989.5,2957.625Z" transform="translate(-930.827 -2847.837)" opacity="0.15" style="isolation: isolate"/>
            <path id="Trazado_115790" data-name="Trazado 115790" d="M986.212,2973.817a8.619,8.619,0,0,1-4.832-.923l-25.651-14.8a8.386,8.386,0,0,1-3.8-6.585V2949.3a8.024,8.024,0,0,1,3.355-6.073c-1.577,1.132-1.426,2.793.47,3.884l25.651,14.822a8.386,8.386,0,0,0,3.926.948Z" transform="translate(-930.389 -2852.294)" opacity="0.2" style="isolation: isolate"/>
            <path id="Trazado_115791" data-name="Trazado 115791" d="M980.25,2836.938s6.551-4.446,13.471-.453,4.63,17.422,3.892,26.079-.981,23.738,5.075,29.224,25.911-1.8,34.567-1.8l-7.641,28.176c-8.388-4.58-21.885-9.286-33.217-11.533,0,0,.369-17.556-7.675-27.58,0,0,2.969-7.021,1.023-21.087C987.95,2844.915,985.518,2839.983,980.25,2836.938Z" transform="translate(-934.954 -2834.821)" fill="#36c"/>
            <path id="Trazado_115792" data-name="Trazado 115792" d="M980.25,2836.938s6.551-4.446,13.471-.453,4.63,17.422,3.892,26.079-.981,23.738,5.075,29.224,25.911-1.8,34.567-1.8l-7.641,28.176c-8.388-4.58-21.885-9.286-33.217-11.533,0,0,.369-17.556-7.675-27.58,0,0,2.969-7.021,1.023-21.087C987.95,2844.915,985.518,2839.983,980.25,2836.938Z" transform="translate(-934.954 -2834.821)" fill="#a22f5f" opacity="0.45" style="isolation: isolate"/>
            <path id="Trazado_115793" data-name="Trazado 115793" d="M1038.942,2928.765c-.386-2.516-1.988-17,.721-23.311,2.349-5.486,8.514-5.8,10.452-3.456s.21,5.2-2.877,9.227c-2.6,3.4-3.54,6.576-3.54,14.8Z" transform="translate(-944.282 -2845.426)" fill="#36c"/>
            <path id="Trazado_115794" data-name="Trazado 115794" d="M1038.942,2928.765c-.386-2.516-1.988-17,.721-23.311,2.349-5.486,8.514-5.8,10.452-3.456s.21,5.2-2.877,9.227c-2.6,3.4-3.54,6.576-3.54,14.8Z" transform="translate(-944.282 -2845.426)" opacity="0.1" style="isolation: isolate"/>
            <path id="Trazado_115795" data-name="Trazado 115795" d="M1038.942,2928.765c-.386-2.516-1.988-17,.721-23.311,2.349-5.486,8.514-5.8,10.452-3.456s.21,5.2-2.877,9.227c-2.6,3.4-3.54,6.576-3.54,14.8Z" transform="translate(-944.282 -2845.426)" fill="#e36099" opacity="0.25" style="isolation: isolate"/>
          </g>
        </g>
        <g id="freepik--character--inject-50-3" data-name="freepik--character--inject-50" transform="translate(36.767)">
          <path id="Trazado_115796" data-name="Trazado 115796" d="M1043.4,2871.052c2.021-2.03,5.477,1.1,7.826,4.664,2,3.028,3.188,6.283,1.107,8s-5.788-1.871-7.549-4.194S1041.93,2872.486,1043.4,2871.052Z" transform="translate(-975.121 -2808.444)" fill="#263238"/>
          <path id="Trazado_115797" data-name="Trazado 115797" d="M1040.74,2879.943c-2.1,2.651-6.065,7.063-6.9,7.868-2.927,2.81-5.352,4.639-10.9.52s-22.648-20.131-22.648-20.131l-5.234-17.355c4.421.352,8.43-.126,12.372,3.875,3.271,3.355,20.232,21.255,20.232,21.255l3.3-3.053" transform="translate(-967.438 -2805.29)" fill="#ffa8a7"/>
          <path id="Trazado_115798" data-name="Trazado 115798" d="M1061.76,2852.268c2.432-.512,5.989-1.594,8.128-.5s2.34,1.862,2.34,1.862l-2.81,3.221Z" transform="translate(-978.191 -2805.363)" fill="#f28f8f"/>
          <path id="Trazado_115799" data-name="Trazado 115799" d="M1052.887,2856.792c-1.5,1.82-11.626,13.32-15.417,16.877l8.69,8.732c3.28-4.421,7.684-11.894,10.586-13.916,3.951.6,5.133-1.4,7.423-1.4l-3.12-13.329S1055.018,2854.233,1052.887,2856.792Z" transform="translate(-974.276 -2805.759)" fill="#ffa8a7"/>
          <path id="Trazado_115800" data-name="Trazado 115800" d="M1059.008,2868.685h0a1.568,1.568,0,0,1-.666-2.116l0-.006,16.894-32.278,2.793,1.46-16.9,32.277a1.57,1.57,0,0,1-2.116.666Z" transform="translate(-977.611 -2802.62)"/>
          <path id="Trazado_115801" data-name="Trazado 115801" d="M1075.886,2817.7c-1.158-.662-2.743-.562-4.5.453a14.148,14.148,0,0,0-6.392,11.072c0,2.03.721,3.464,1.879,4.127l2.29,1.325c1.158.671,2.751.579,4.521-.444a14.127,14.127,0,0,0,6.392-11.064c0-2.038-.721-3.472-1.879-4.135Z" transform="translate(-978.712 -2799.88)" fill="#12263f"/>
          <path id="Trazado_115802" data-name="Trazado 115802" d="M1074.122,2819.737c3.523-2.038,6.392-.386,6.392,3.691a14.154,14.154,0,0,1-6.392,11.064c-3.531,2.038-6.392.386-6.392-3.691A14.106,14.106,0,0,1,1074.122,2819.737Z" transform="translate(-979.153 -2800.135)" fill="#263238"/>
          <path id="Trazado_115803" data-name="Trazado 115803" d="M1078.4,2820.464c-1.023-.587-2.424-.495-3.976.4a12.479,12.479,0,0,0-5.654,9.781c0,1.8.637,3.062,1.678,3.649l14.763,8.514c1.023.6,2.432.511,3.993-.386a12.493,12.493,0,0,0,5.645-9.789c0-1.8-.629-3.062-1.678-3.649Z" transform="translate(-979.321 -2800.333)" fill="#36c"/>
          <path id="Trazado_115804" data-name="Trazado 115804" d="M1078.4,2820.464c-1.023-.587-2.424-.495-3.976.4a12.479,12.479,0,0,0-5.654,9.781c0,1.8.637,3.062,1.678,3.649l14.763,8.514c1.023.6,2.432.511,3.993-.386a12.493,12.493,0,0,0,5.645-9.789c0-1.8-.629-3.062-1.678-3.649Z" transform="translate(-979.321 -2800.333)" opacity="0.3" style="isolation: isolate"/>
          <path id="Trazado_115805" data-name="Trazado 115805" d="M1091.988,2841.321l-22.48-12.976a10.215,10.215,0,0,0-.738,3.632c0,1.8.637,3.062,1.678,3.649l14.763,8.514c1.023.6,2.432.511,3.993-.386A10.345,10.345,0,0,0,1091.988,2841.321Z" transform="translate(-979.321 -2801.663)" opacity="0.15" style="isolation: isolate"/>
          <path id="Trazado_115806" data-name="Trazado 115806" d="M1093.668,2827.974c-1.149-.663-2.743-.57-4.5.445a14.123,14.123,0,0,0-6.392,11.072c0,2.038.713,3.464,1.87,4.135l2.3,1.325c1.149.663,2.743.571,4.513-.445a14.128,14.128,0,0,0,6.392-11.072c0-2.038-.721-3.464-1.879-4.127Z" transform="translate(-981.579 -2801.535)" fill="#12263f"/>
          <path id="Trazado_115807" data-name="Trazado 115807" d="M1091.872,2830.007c3.531-2.038,6.392-.386,6.392,3.691a14.129,14.129,0,0,1-6.392,11.072c-3.531,2.038-6.392.386-6.392-3.691A14.122,14.122,0,0,1,1091.872,2830.007Z" transform="translate(-982.015 -2801.791)" fill="#455a64"/>
          <path id="Trazado_115808" data-name="Trazado 115808" d="M1070.1,2857.254a3.06,3.06,0,0,0,.78-1.149l1.678-3.28a3.266,3.266,0,0,1,1.107,1.309,7.176,7.176,0,0,1,.445,2.617c.092,2.718-.134,7.508-1.854,8.958" transform="translate(-979.535 -2805.609)" fill="#f28f8f"/>
          <path id="Trazado_115809" data-name="Trazado 115809" d="M1050.86,2861.38c2.516-3.2,4.437-6.282,6.417-7.843s4.463-1.309,7.39-.453a13.541,13.541,0,0,0,5.243.679c.252.168-.168,1.963-1.208,2.466a10.019,10.019,0,0,1-4.286.562c-3.355,0-.637,4.093-5.134,7.424C1057.881,2866.623,1050.86,2861.38,1050.86,2861.38Z" transform="translate(-976.434 -2805.541)" fill="#ffa8a7"/>
          <path id="Trazado_115810" data-name="Trazado 115810" d="M1070.986,2866.549c-1.72,1.451-5.234,1.677-6.517.9a3.238,3.238,0,0,1-1.242-1.317c-.277-.537-.218-1.158-.5-1.677-.134-.277-.319-.537-.445-.839a1.2,1.2,0,0,1-.067-.915c.126-.319.453-.545.528-.889a1.027,1.027,0,0,0-.092-.587c-.134-.31-.352-.579-.478-.889a.931.931,0,0,1,.059-.948,1.21,1.21,0,0,1,.78-.319,25.318,25.318,0,0,1,3.179-.142,4.615,4.615,0,0,0,2.6-.839" transform="translate(-978.241 -2806.457)" fill="#f28f8f"/>
          <path id="Trazado_115811" data-name="Trazado 115811" d="M1062.446,2863.095c-1.418,2.575-4.647,2.416-6.476,1.946a5.3,5.3,0,0,0,4.135.9l-2.114,5.268Z" transform="translate(-977.258 -2807.265)" fill="#f28f8f"/>
          <path id="Trazado_115812" data-name="Trazado 115812" d="M994.989,2850.618c4.613.268,7.088-1.845,10.561,0,2.818,1.493,3.523,4.035,6.274,7.424,1.493,1.845,2.114,2.575,4.932,5.754,5.947,6.71,10.494,11.19,10.494,11.19l8.162-7.289c-1.2,4.706,3.523,11.551,8.933,12.666,0,0-1.921,1.677-7.667,6.056-4.412,3.355-6.9,5.091-7.927,5.251s-3.355-.747-10.569-6.543-25.022-22.3-25.022-22.3Z" transform="translate(-967.133 -2805.13)" fill="#7cc5ff"/>
          <path id="Trazado_115813" data-name="Trazado 115813" d="M1033.171,2879.573c-2.625,2.516-3.07,6.786-3.07,6.786s-1.107-2.869,1.845-8.044Z" transform="translate(-973.055 -2809.718)" fill="#12263f"/>
          <path id="Trazado_115814" data-name="Trazado 115814" d="M989.228,2799.907l-.1.059c-4.572,2.953-9.512,4.5-13.614,8.388s-6.492,9.126-5.872,14.067c1.107,8.74,5.914,11.835,8.791,15.1.134.151,4.664,3.3,4.857,3.3l2.978.134c.721,0,1.678.411,2.323.193.906-.285,1.585-1.493,2.122-2.206a28.691,28.691,0,0,1,7.256-6.543,8.971,8.971,0,0,0,2.575-3.783,13.894,13.894,0,0,0,1.116-4.5,1.8,1.8,0,0,1,2.021-2.215,9.284,9.284,0,0,0,4.454-1.543,6.339,6.339,0,0,0,2.625-3.842,4.95,4.95,0,0,0-1.9-4.949,5.4,5.4,0,0,0-5.6-8.455,4.717,4.717,0,0,0-2.047-5.637,7.758,7.758,0,0,0-6.325-.495A23.147,23.147,0,0,0,989.228,2799.907Z" transform="translate(-963.327 -2796.536)" fill="#263238"/>
          <path id="Trazado_115815" data-name="Trazado 115815" d="M977.859,2849.825a7.687,7.687,0,1,1-9.923-11.743h0c3.238-2.735,5.83-.428,8.573,2.81S981.1,2847.082,977.859,2849.825Z" transform="translate(-962.628 -2803.037)" fill="#263238"/>
          <path id="Trazado_115816" data-name="Trazado 115816" d="M1015.727,2977.159c-3.489-.6-6.585,2.105-6.9,2.986-.428,1.2-.386,3.657.94,6.71a21.1,21.1,0,0,1,1.208,9.6c-.352,2.76-1.912,9.613.763,13.186s8.766,6.811,11.139,2.131c.772-1.527-.487-6.962-1-10.9-1.015-7.876-1.736-15.686-1.736-15.686Z" transform="translate(-969.619 -2825.637)" fill="#263238"/>
          <path id="Trazado_115817" data-name="Trazado 115817" d="M1015.53,2984.525a77.007,77.007,0,0,1,.486,11.525c-.218,4.194.57,6.987,1.954,8.917,1.535,2.122,5.494,3.422,5.167-.923-.218-3.028-1.879-17.724-1.879-17.724Z" transform="translate(-970.739 -2826.838)" fill="#ffa8a7"/>
          <path id="Trazado_115818" data-name="Trazado 115818" d="M1010.314,2978.762c-.252,2.584.9,9.5,4.194,15.384s8.036,12.582,8.849,16.633c.159-1.845-.495-5.259-.965-8.3a1.607,1.607,0,0,1,0-.2l-.076-.528a.467.467,0,0,0-.042-.235,5.706,5.706,0,0,0-.084-.663v-.051c-.319-2.458-.6-4.915-.839-7.13-.193-1.77-.369-3.355-.5-4.722-.067-.671-.134-1.267-.185-1.787a5.746,5.746,0,0,0-.067-.7c-.084-.839-.126-1.342-.126-1.342l-4.471-7.96a6.64,6.64,0,0,0-.679-.075A7.7,7.7,0,0,0,1010.314,2978.762Z" transform="translate(-969.893 -2825.638)" opacity="0.15" style="isolation: isolate"/>
          <path id="Trazado_115819" data-name="Trazado 115819" d="M1029.1,2924.839c-11.064-7.029-24.762-11.114-24.762-11.114l-12.029,8.808,11.567,11.022,14.83,10.745s2.9-.126.981,4.336c-.6,1.418-1.552,4.261-2.516,7.491l6.425,19.62s4.01-6.627,9.915-18.714c5.477-11.231,6.945-18.739,6.518-21.272C1039.434,2932.439,1038.059,2930.526,1029.1,2924.839Z" transform="translate(-966.996 -2815.426)" fill="#36c"/>
          <path id="Trazado_115820" data-name="Trazado 115820" d="M1029.1,2924.839c-11.064-7.029-24.762-11.114-24.762-11.114l-12.029,8.808,11.567,11.022,14.83,10.745s2.9-.126.981,4.336c-.6,1.418-1.552,4.261-2.516,7.491l6.425,19.62s4.01-6.627,9.915-18.714c5.477-11.231,6.945-18.739,6.518-21.272C1039.434,2932.439,1038.059,2930.526,1029.1,2924.839Z" transform="translate(-966.996 -2815.426)" opacity="0.2" style="isolation: isolate"/>
          <path id="Trazado_115821" data-name="Trazado 115821" d="M1003.669,2929.319l-1.426-1.074c4.035-1.937,5.419-6.66,5.419-6.66a12,12,0,0,1-3.02,7.189c1.023.646,15.719,9.906,18.412,13.177s4.513,4.4,4.613,11.97c.084,6.392.344,17.565.344,17.565l-19.2-25.777-8.271-14.4Z" transform="translate(-968.323 -2816.693)" opacity="0.2" style="isolation: isolate"/>
          <path id="Trazado_115822" data-name="Trazado 115822" d="M1024.387,3017.174c-.839-.084-.948,1.367-1.527,3.2a9.4,9.4,0,0,0-.453,5.528c.621,2.357,4.295,2.953,6.014,6.123s4.127,8.816,10.6,10.9,11.743.411,13.161-1.434.52-3.825-3.464-6.71c-4.194-3.02-5.427-3.909-5.427-3.909Z" transform="translate(-971.812 -2832.1)" fill="#263238"/>
          <path id="Trazado_115823" data-name="Trazado 115823" d="M1033.746,3004.4a100.436,100.436,0,0,0,2.936,11.634,46.517,46.517,0,0,0,7.247,12.339c.663.839,2.189,2.466,2.726,3.154a1.275,1.275,0,0,1-.039,1.8,1.224,1.224,0,0,1-.2.16c-1.518,1.3-7.658,1.292-10.946-1.468s-6.107-8.388-8.036-10.586a32.407,32.407,0,0,1-2.047-2.516,4.248,4.248,0,0,1-.9-2.793,12.458,12.458,0,0,0-.042-3.959,45.95,45.95,0,0,0-1.334-5.175Z" transform="translate(-971.961 -2830.041)" fill="#ffa8a7"/>
          <path id="Trazado_115824" data-name="Trazado 115824" d="M967.972,2905.415c-4.941,7.7-5.7,17.5-4.026,22.447,2.273,6.761,4.949,9.856,13.958,15.795,7.457,4.924,17.934,8.086,20.131,9.227s2.919,3.708,3.842,8.271a76.53,76.53,0,0,0,6.3,20.584c4.63,9.789,5.872,12.683,5.872,12.683s6.123,2.659,11.089-1.677c0,0-5.209-40.741-6.845-46.6s-25.039-22.648-25.039-22.648,3.489-9.344,5.561-15.87Z" transform="translate(-962.295 -2814.086)" fill="#36c"/>
          <path id="Trazado_115825" data-name="Trazado 115825" d="M963.489,2905.129a43.548,43.548,0,0,1,2.374-6.056,21.7,21.7,0,0,0,1.887-4.261c1.376-5.746-1.9-12.414-3.07-18.211a42.063,42.063,0,0,1-.746-10.711c.159-2.743,0-7.381,2.583-8.95a16.119,16.119,0,0,1,2.919-1.25l7.893-2.936s7.851-1.367,12.029-1.921c2.3-.31,3.708.445,6.375,3.1s7.784,8.766,9.663,13.857c1.1,2.978.931,8.388-2.76,11.6-.528,3.506-1.392,12.993-.981,15.937.386,2.793.512,7.3,5.033,9.764,7.549,3.255,26.758,8.388,29.585,14.26s-5.033,26.884-5.033,26.884-3.062,6.316-14.436,10.326-15.711.084-15.711.084-1.317-10.846-3.649-11.743c-4.328-1.677-18.831-9.462-23.428-12C958.012,2924.086,962.441,2908.341,963.489,2905.129Z" transform="translate(-962.132 -2805.277)" fill="#12263f"/>
          <path id="Trazado_115826" data-name="Trazado 115826" d="M996.171,2885.78a10.807,10.807,0,0,1-9.386,3.406,8.646,8.646,0,0,1-7.885-5.93s-.117,7.046,7.65,7.751A9.362,9.362,0,0,0,996.171,2885.78Z" transform="translate(-964.835 -2810.514)" fill="#263238"/>
          <path id="Trazado_115827" data-name="Trazado 115827" d="M1000.207,2811.875c2.105,1.241,5.268,6.207,5.033,17.288-.2,9.395-3.238,11.743-4.765,12.4s-5.519.084-8.388-.386l-.47,6.71,2.307,9.126-15.292-9.319.906-14.117s-1.459.889-3.431-.629c-2.659-2.039-3.07-5.7-.939-7.65,1.367-1.258,5.083-1.619,6.232,1.611,0,0,4.9.294,10.686-3.548C998.5,2819.114,999.385,2814.853,1000.207,2811.875Z" transform="translate(-964.014 -2799.008)" fill="#ffa8a7"/>
          <path id="Trazado_115828" data-name="Trazado 115828" d="M983.519,2833.365h0l-.839-4.857,3.1-.553.31,1.761a3.154,3.154,0,0,1-2.568,3.647Z" transform="translate(-965.444 -2801.6)" fill="#263238"/>
          <path id="Trazado_115829" data-name="Trazado 115829" d="M997.234,2828.543a1.25,1.25,0,0,1-1.122,1.366l-.019,0a1.292,1.292,0,1,1,1.135-1.432C997.231,2828.5,997.232,2828.521,997.234,2828.543Z" transform="translate(-967.374 -2801.5)" fill="#263238"/>
          <path id="Trazado_115830" data-name="Trazado 115830" d="M997.814,2838l4.244,1.258a2.173,2.173,0,0,1-2.63,1.59l-.08-.021A2.323,2.323,0,0,1,997.814,2838Z" transform="translate(-967.87 -2803.22)" fill="#b16668"/>
          <path id="Trazado_115831" data-name="Trazado 115831" d="M1000.084,2841.072a2.047,2.047,0,0,0-2.047-2.039,1.542,1.542,0,0,0-.277,0,2.281,2.281,0,0,0,1.594,1.929A2,2,0,0,0,1000.084,2841.072Z" transform="translate(-967.875 -2803.385)" fill="#f28f8f"/>
          <path id="Trazado_115832" data-name="Trazado 115832" d="M1008.89,2823.759l-2.81-.747a1.392,1.392,0,0,1,1.649-1.076c.026.006.053.012.079.019A1.518,1.518,0,0,1,1008.89,2823.759Z" transform="translate(-969.216 -2800.625)" fill="#263238"/>
          <path id="Trazado_115833" data-name="Trazado 115833" d="M1008.293,2827.813a1.242,1.242,0,1,1-1.325-1.208,1.265,1.265,0,0,1,1.324,1.205Z" transform="translate(-969.172 -2801.383)" fill="#263238"/>
          <path id="Trazado_115834" data-name="Trazado 115834" d="M1001.59,2826.084l.4,8.615,3.951-1.434Z" transform="translate(-968.492 -2801.299)" fill="#f28f8f"/>
          <path id="Trazado_115835" data-name="Trazado 115835" d="M993.878,2845.789c-3.515-.746-7.985-2.827-8.958-5.284a6.065,6.065,0,0,0,1.971,3.976c1.862,1.594,6.87,3.036,6.87,3.036Z" transform="translate(-965.805 -2803.623)" fill="#f28f8f"/>
          <path id="Trazado_115836" data-name="Trazado 115836" d="M994.852,2863.13a50.621,50.621,0,0,0-3.884-5.343c-1.1-1.049-10.946-4.513-11.165-7.742l-.243,3.8Z" transform="translate(-964.941 -2805.161)" fill="#e0e0e0"/>
          <path id="Trazado_115837" data-name="Trazado 115837" d="M991,2858.333c-2.265-2.785-4.706,4.412-5.117,5.352s-2.156.294-5.477-2.34-4.9-5.033-5.15-7.1c-.092-.763,1.2-1.854,1.929-3.875s1.325-2.164,2.013-2.063l-.092,1.459a16.716,16.716,0,0,0,3.07,2.97C987.405,2856.3,989.6,2855.548,991,2858.333Z" transform="translate(-964.247 -2804.876)" fill="#f5f5f5"/>
          <path id="Trazado_115838" data-name="Trazado 115838" d="M1000.326,2857.887a13.514,13.514,0,0,1,.906,5.226c-.117.671-3.582-3.355-3.582-3.355S999.1,2856.184,1000.326,2857.887Z" transform="translate(-967.857 -2806.351)" fill="#e0e0e0"/>
          <path id="Trazado_115839" data-name="Trazado 115839" d="M997.347,2863.056c.621-4.052,1.149-5.519,1.426-6.048.537-1.074,1.132-.386,1.132-.386s-.839-1.56-2.1-3.682c-1.434-2.365-1.569-3.146-2.458-3.355l-.31,4.37Z" transform="translate(-967.437 -2805.087)" fill="#f5f5f5"/>
        </g>
        <path id="Trazado_115840" data-name="Trazado 115840" d="M944.857,2943.772l30.809,15.476-.654-11.349,4.748-2.743c-.336-8.8-2.751-17.833-8.975-19.829-7.793-2.466-17.9-3.263-23.965-8.749s-5.813-20.568-5.033-29.224,3.02-22.086-3.892-26.079-13.471.453-13.471.453c-2.961,1.912-6.392,3.3-6.107,5.628a2.516,2.516,0,0,0,2.105,2.374l17.2,65.075A14.034,14.034,0,0,0,944.857,2943.772Z" transform="translate(-918.3 -2806.703)" fill="#36c"/>
        <g id="Grupo_53393" data-name="Grupo 53393" transform="translate(0 52.908)" opacity="0.55">
          <path id="Trazado_115841" data-name="Trazado 115841" d="M944.857,2943.772l30.809,15.476-.654-11.349,4.748-2.743c-.336-8.8-2.751-17.833-8.975-19.829-7.793-2.466-17.9-3.263-23.965-8.749s-5.813-20.568-5.033-29.224,3.02-22.086-3.892-26.079-13.471.453-13.471.453c-2.961,1.912-6.392,3.3-6.107,5.628a2.516,2.516,0,0,0,2.105,2.374l17.2,65.075A14.034,14.034,0,0,0,944.857,2943.772Z" transform="translate(-918.3 -2859.611)" fill="#ea3065"/>
        </g>
        <path id="Trazado_115842" data-name="Trazado 115842" d="M933.323,2869.313c2.768,3.313,4.194,8.573,3.682,21.49s-.3,23.344,4.756,29.677c5.989,7.507,26.548,13.488,26.548,13.488l8.027-3.665a10.066,10.066,0,0,0-5.553-4.966c-7.793-2.466-17.9-3.263-23.965-8.749s-5.813-20.568-5.033-29.224,3.02-22.086-3.892-26.079-13.471.453-13.471.453c-2.961,1.913-6.392,3.3-6.107,5.628a2.517,2.517,0,0,0,2.105,2.374C924.23,2868.474,930.555,2865.957,933.323,2869.313Z" transform="translate(-918.3 -2806.705)" fill="#36c"/>
        <g id="Grupo_53394" data-name="Grupo 53394" transform="translate(0 52.916)" opacity="0.45">
          <path id="Trazado_115843" data-name="Trazado 115843" d="M933.323,2869.313c2.768,3.313,4.194,8.573,3.682,21.49s-.3,23.344,4.756,29.677c5.989,7.507,26.548,13.488,26.548,13.488l8.027-3.665a10.066,10.066,0,0,0-5.553-4.966c-7.793-2.466-17.9-3.263-23.965-8.749s-5.813-20.568-5.033-29.224,3.02-22.086-3.892-26.079-13.471.453-13.471.453c-2.961,1.913-6.392,3.3-6.107,5.628a2.517,2.517,0,0,0,2.105,2.374C924.23,2868.474,930.555,2865.957,933.323,2869.313Z" transform="translate(-918.3 -2859.621)" fill="#a22f5f"/>
        </g>
        <path id="Trazado_115844" data-name="Trazado 115844" d="M983.784,2960.453l4.748-2.743c0-5.268-1.351-16.718-8.019-19.486-5.293-2.189-7.843,1.04-7.793,3.028.067,2.24,1.678,3.724,4.362,5.259C980.63,2948.559,983.784,2952.224,983.784,2960.453Z" transform="translate(-927.072 -2819.256)" fill="#36c"/>
        <path id="Trazado_115845" data-name="Trazado 115845" d="M983.784,2960.453l4.748-2.743c0-5.268-1.351-16.718-8.019-19.486-5.293-2.189-7.843,1.04-7.793,3.028.067,2.24,1.678,3.724,4.362,5.259C980.63,2948.559,983.784,2952.224,983.784,2960.453Z" transform="translate(-927.072 -2819.256)" opacity="0.1" style="isolation: isolate"/>
        <path id="Trazado_115846" data-name="Trazado 115846" d="M983.784,2960.453l4.748-2.743c0-5.268-1.351-16.718-8.019-19.486-5.293-2.189-7.843,1.04-7.793,3.028.067,2.24,1.678,3.724,4.362,5.259C980.63,2948.559,983.784,2952.224,983.784,2960.453Z" transform="translate(-927.072 -2819.256)" opacity="0.25" style="isolation: isolate"/>
        <g id="freepik--Arm--inject-50" transform="translate(23.377 51.343)">
          <path id="Trazado_115847" data-name="Trazado 115847" d="M965.531,2931.14c1.015,1.049,3.355,1.678,6.887-3.816,2.86-4.454,1.283-6.946,1.283-6.946s-2.751-1.241-6.652,2.617A6.877,6.877,0,0,0,965.531,2931.14Z" transform="translate(-949.174 -2867.81)" fill="#263238"/>
          <path id="Trazado_115848" data-name="Trazado 115848" d="M947.357,2897.817c1.367-5.52,4.672-20.542,7.608-31.782.981-3.733,4.941-5.872,8.388-7.6,7.851,6.09,2.793,19.4,2.793,19.4l-5.746,23.344L978.124,2917h0a49.063,49.063,0,0,1,4.194,3.607,20.132,20.132,0,0,1,3.2,4.119c1.72,2.768,2.189,5.872,2.516,8.975a9.071,9.071,0,0,1-.277,4.194,6.585,6.585,0,0,1-2.433,2.81c-.889.637-2.206,1.719-3.355,1.459-2.114-.478-2.072-2.676-2.793-5.385s-2.105-4.555-4.295-7.038-1.166-6.023-4.622-8.187c0,0-12.934-7.549-19.133-11.743C944.463,2905.232,946.426,2901.55,947.357,2897.817Z" transform="translate(-946.198 -2857.856)" fill="#ffa8a7"/>
          <path id="Trazado_115849" data-name="Trazado 115849" d="M964.355,2857.745c-2.416.579-7.323-.092-9.395,2.952s-2.072,9.37-2.936,14.025c-.788,4.261-4.462,21.247-5.217,23.713s-1.753,6.073,3.011,10.745c5.36,5.259,12.708,11.894,12.708,11.894-1.678-3.942,3.1-11.081,8.17-10.762l-9.94-9.378,5.486-21.708s3.968-6.442,1.829-13.605S964.355,2857.745,964.355,2857.745Z" transform="translate(-946.169 -2857.745)" fill="#7cc5ff"/>
          <path id="Trazado_115850" data-name="Trazado 115850" d="M961.921,2908.75c-2.1-1.678-6.3-1.393-8.531-.579,0,0,1.971-3.246,9.017-1.35Z" transform="translate(-947.333 -2865.56)" fill="#12263f"/>
        </g>
      </g>
    </g>
    <g id="freepik--Dais--inject-50" transform="translate(921.632 2854.775)">
      <path id="freepik--Shadow--inject-50" d="M998.487,3107.805l-53.768-31.044,169.582-97.906,53.776,31.044-45.5,26.272,16.541,9.545-78.588,45.371-16.55-9.545Z" transform="translate(-944.72 -2895.267)" fill="#12263f"/>
      <g id="freepik--dais-podium--inject-50" transform="translate(4.135)">
        <path id="Trazado_115851" data-name="Trazado 115851" d="M1151.49,3024.761l43.727-25.248,2.055-77.6-45.782,26.431Z" transform="translate(-982.184 -2886.089)" fill="#36c"/>
        <path id="Trazado_115852" data-name="Trazado 115852" d="M1151.49,3024.761l43.727-25.248,2.055-77.6-45.782,26.431Z" transform="translate(-982.184 -2886.089)" opacity="0.35" style="isolation: isolate"/>
        <path id="Trazado_115853" data-name="Trazado 115853" d="M1157.848,2969.04l31.413-18.135-.377,47.98L1157.84,3016.8Z" transform="translate(-983.208 -2890.762)" opacity="0.15" style="isolation: isolate"/>
        <path id="Trazado_115854" data-name="Trazado 115854" d="M1185.767,2958.983l-.361,38.585-22.9,13.22V2972.4l23.252-13.421m1.032-1.778-25.29,14.612v40.724l24.929-14.4.377-40.925Z" transform="translate(-983.798 -2891.778)" fill="#36c"/>
        <path id="Trazado_115855" data-name="Trazado 115855" d="M1196.66,2933.072l.31-5.268-45.48,26.263v5.083Z" transform="translate(-982.184 -2887.039)" opacity="0.2" style="isolation: isolate"/>
        <path id="Trazado_115856" data-name="Trazado 115856" d="M1151.49,2951.74v-9.554l49.918-28.822v9.554Z" transform="translate(-982.184 -2884.711)" fill="#36c"/>
        <path id="Trazado_115857" data-name="Trazado 115857" d="M1151.49,2951.74v-9.554l49.918-28.822v9.554Z" transform="translate(-982.184 -2884.711)" opacity="0.35" style="isolation: isolate"/>
        <path id="Trazado_115858" data-name="Trazado 115858" d="M1141.95,2936.68l-49.641-28.654,49.918-28.821,49.641,28.654Z" transform="translate(-972.645 -2879.205)" fill="#36c"/>
        <path id="Trazado_115859" data-name="Trazado 115859" d="M1141.95,2936.68l-49.641-28.654,49.918-28.821,49.641,28.654Z" transform="translate(-972.645 -2879.205)" opacity="0.2" style="isolation: isolate"/>
        <path id="Trazado_115860" data-name="Trazado 115860" d="M1054.317,3071.253l16.55,9.554v-100.3l-62.047-35.825v100.3Z" transform="translate(-959.187 -2889.76)" fill="#36c"/>
        <path id="Trazado_115861" data-name="Trazado 115861" d="M1054.317,3071.253l16.55,9.554v-100.3l-62.047-35.825v100.3Z" transform="translate(-959.187 -2889.76)" opacity="0.3" style="isolation: isolate"/>
        <path id="Trazado_115862" data-name="Trazado 115862" d="M1082.79,2979.593l70.318-40.6v100.3l-70.318,40.6Z" transform="translate(-971.11 -2888.842)" fill="#36c"/>
        <path id="Trazado_115863" data-name="Trazado 115863" d="M1082.79,2979.593l70.318-40.6v100.3l-70.318,40.6Z" transform="translate(-971.11 -2888.842)" opacity="0.2" style="isolation: isolate"/>
        <path id="Trazado_115864" data-name="Trazado 115864" d="M1079.137,2896.285l-70.317,40.6,62.047,35.825,70.318-40.6Z" transform="translate(-959.187 -2881.958)" fill="#36c"/>
        <path id="Trazado_115865" data-name="Trazado 115865" d="M1079.137,2896.285l-70.317,40.6,62.047,35.825,70.318-40.6Z" transform="translate(-959.187 -2881.958)" opacity="0.1" style="isolation: isolate"/>
        <path id="Trazado_115866" data-name="Trazado 115866" d="M1087.72,3001.494v71.643l1.183-.679v-71.643Z" transform="translate(-971.905 -2898.807)" opacity="0.2" style="isolation: isolate"/>
        <path id="Trazado_115867" data-name="Trazado 115867" d="M1091.24,2999.462V3071.1l1.183-.68v-71.643Z" transform="translate(-972.472 -2898.478)" opacity="0.2" style="isolation: isolate"/>
        <path id="Trazado_115868" data-name="Trazado 115868" d="M1094.76,2997.422v71.643l1.183-.688v-71.643Z" transform="translate(-973.04 -2898.149)" opacity="0.2" style="isolation: isolate"/>
        <path id="Trazado_115869" data-name="Trazado 115869" d="M1153.23,2963.674v71.643l1.183-.679.008-71.643Z" transform="translate(-982.465 -2892.711)" opacity="0.2" style="isolation: isolate"/>
        <path id="Trazado_115870" data-name="Trazado 115870" d="M1156.76,2961.643v71.643l1.174-.688.008-71.643Z" transform="translate(-983.034 -2892.382)" opacity="0.2" style="isolation: isolate"/>
        <path id="Trazado_115871" data-name="Trazado 115871" d="M1160.28,2959.6v71.643l1.174-.679.008-71.643Z" transform="translate(-983.601 -2892.055)" opacity="0.2" style="isolation: isolate"/>
        <path id="Trazado_115872" data-name="Trazado 115872" d="M1102.17,2994.645l37.512-21.49v62.089l-37.226,21.5Z" transform="translate(-974.234 -2894.349)" opacity="0.15" style="isolation: isolate"/>
        <path id="Trazado_115873" data-name="Trazado 115873" d="M1121.918,3002.667c7.994-4.613,14.478-.839,14.478,8.388s-6.484,20.459-14.478,25.072-14.478.839-14.478-8.388S1113.924,3007.288,1121.918,3002.667Z" transform="translate(-975.084 -2898.788)" fill="#36c"/>
        <path id="Trazado_115874" data-name="Trazado 115874" d="M1121.918,3002.667c7.994-4.613,14.478-.839,14.478,8.388s-6.484,20.459-14.478,25.072-14.478.839-14.478-8.388S1113.924,3007.288,1121.918,3002.667Z" transform="translate(-975.084 -2898.788)" opacity="0.2" style="isolation: isolate"/>
        <path id="Trazado_115875" data-name="Trazado 115875" d="M1063.06,3010.165l2.651,73.169-2.651-1.526Z" transform="translate(-967.93 -2900.314)" opacity="0.2" style="isolation: isolate"/>
        <path id="Trazado_115876" data-name="Trazado 115876" d="M1131.7,3013.806h0l-2.642-4.127v-.319c0-.193-.126-.285-.277-.2l-5.4,3.12V3010.6c0-.361-.168-.553-.377-.436a1.086,1.086,0,0,0-.369.839v1.72l-5.385,3.154a.636.636,0,0,0-.269.511v.059l-2.651,7.189h0a.151.151,0,0,0,0,.067,3.292,3.292,0,0,0,1.241,2.978,1.565,1.565,0,0,0,.839.218,2.289,2.289,0,0,0,1.107-.319c1.585-.923,2.877-3.624,2.877-6.039a.319.319,0,0,0-.042-.151h0l-2.516-3.926,4.865-2.8v14.545l-1.762,1.015a1.987,1.987,0,0,0-.839,1.577v.562l-.4.235a3.872,3.872,0,0,0-1.61,3.087v.159l9.957-5.746v-.159c0-1.191-.73-1.736-1.619-1.225l-.4.235v-.562c0-.612-.369-.889-.839-.629l-1.753,1.023v-14.553l4.722-2.734-2.407,6.526h0a.309.309,0,0,0,0,.067,3.318,3.318,0,0,0,1.242,2.986,1.564,1.564,0,0,0,.839.218,2.29,2.29,0,0,0,1.107-.319c1.585-.923,2.877-3.632,2.877-6.039A.308.308,0,0,0,1131.7,3013.806Zm-14.3,3.078,2.273,3.548-4.546,2.625Zm-.21,9.227a1.317,1.317,0,0,1-1.359.1,2.691,2.691,0,0,1-.948-2.332l4.89-2.827c-.159,2.072-1.25,4.261-2.583,5.033Zm13.882-12.23-4.555,2.626,2.273-6.174Zm-2.516,5.645a1.344,1.344,0,0,1-1.367.109,2.69,2.69,0,0,1-.948-2.332l4.89-2.827c-.117,2.072-1.216,4.261-2.542,5.025Z" transform="translate(-976.194 -2900.147)" fill="#36c"/>
        <path id="Trazado_115877" data-name="Trazado 115877" d="M1082.818,2981.373l-.008-12.5,75.7-43.66.008,12.5Z" transform="translate(-971.114 -2886.621)" fill="#36c"/>
        <path id="Trazado_115878" data-name="Trazado 115878" d="M1082.818,2981.373l-.008-12.5,75.7-43.66.008,12.5Z" transform="translate(-971.114 -2886.621)" opacity="0.35" style="isolation: isolate"/>
        <path id="Trazado_115879" data-name="Trazado 115879" d="M1070.342,2970.061l-64.932-37.487v12.5l64.932,37.486Z" transform="translate(-958.638 -2887.808)" fill="#36c"/>
        <path id="Trazado_115880" data-name="Trazado 115880" d="M1070.342,2970.061l-64.932-37.487v12.5l64.932,37.486Z" transform="translate(-958.638 -2887.808)" opacity="0.45" style="isolation: isolate"/>
        <path id="Trazado_115881" data-name="Trazado 115881" d="M1141.175,2948.163v-4.328l-70.284,40.54-62.072-35.834v4.32l62.072,35.842Z" transform="translate(-959.187 -2889.623)" opacity="0.1" style="isolation: isolate"/>
        <path id="Trazado_115882" data-name="Trazado 115882" d="M1070.333,2961.671l-64.924-37.487,75.7-43.66,64.924,37.486Z" transform="translate(-958.638 -2879.418)" fill="#36c"/>
        <path id="Trazado_115883" data-name="Trazado 115883" d="M1070.333,2961.671l-64.924-37.487,75.7-43.66,64.924,37.486Z" transform="translate(-958.638 -2879.418)" opacity="0.1" style="isolation: isolate"/>
        <path id="Trazado_115884" data-name="Trazado 115884" d="M1008.82,3108.079l45.5-26.271v-71.643l-45.5,26.272Z" transform="translate(-959.187 -2900.314)" fill="#36c"/>
        <path id="Trazado_115885" data-name="Trazado 115885" d="M1008.82,3108.079l45.5-26.271v-71.643l-45.5,26.272Z" transform="translate(-959.187 -2900.314)" opacity="0.35" style="isolation: isolate"/>
        <path id="Trazado_115886" data-name="Trazado 115886" d="M1000.077,3108.079,958.715,3084.2l-4.135-74.034,45.5,26.272Z" transform="translate(-950.444 -2900.314)" fill="#36c"/>
        <path id="Trazado_115887" data-name="Trazado 115887" d="M1000.077,3108.079,958.715,3084.2l-4.135-74.034,45.5,26.272Z" transform="translate(-950.444 -2900.314)" opacity="0.45" style="isolation: isolate"/>
        <path id="Trazado_115888" data-name="Trazado 115888" d="M1008.82,3034.143v-9.554l49.632-28.654v9.554Z" transform="translate(-959.187 -2898.021)" fill="#36c"/>
        <path id="Trazado_115889" data-name="Trazado 115889" d="M1008.82,3034.143v-9.554l49.632-28.654v9.554Z" transform="translate(-959.187 -2898.021)" opacity="0.35" style="isolation: isolate"/>
        <path id="Trazado_115890" data-name="Trazado 115890" d="M999.282,3024.588l-49.632-28.654v9.545l49.632,28.662Z" transform="translate(-949.65 -2898.021)" fill="#36c"/>
        <path id="Trazado_115891" data-name="Trazado 115891" d="M999.282,3024.588l-49.632-28.654v9.545l49.632,28.662Z" transform="translate(-949.65 -2898.021)" opacity="0.45" style="isolation: isolate"/>
        <path id="Trazado_115892" data-name="Trazado 115892" d="M1045.574,3015.256v-5.092l-45.5,26.272-45.5-26.272.336,5.285,45.162,26.07Z" transform="translate(-950.444 -2900.314)" opacity="0.2" style="isolation: isolate"/>
        <path id="Trazado_115893" data-name="Trazado 115893" d="M999.282,3019.081l-49.632-28.654,49.632-28.662,49.632,28.662Z" transform="translate(-949.65 -2892.513)" fill="#36c"/>
        <path id="Trazado_115894" data-name="Trazado 115894" d="M999.282,3019.081l-49.632-28.654,49.632-28.662,49.632,28.662Z" transform="translate(-949.65 -2892.513)" opacity="0.2" style="isolation: isolate"/>
        <path id="Trazado_115895" data-name="Trazado 115895" d="M1018.68,3049.662l28.956-16.718v47.762l-28.956,16.717Z" transform="translate(-960.777 -2903.986)" opacity="0.15" style="isolation: isolate"/>
        <path id="Trazado_115896" data-name="Trazado 115896" d="M1044.146,3041.017v38.35l-20.8,12.02v-38.359l20.8-12.012m1.023-1.762-22.849,13.186v40.707l22.841-13.194v-40.7Z" transform="translate(-961.363 -2905.003)" fill="#36c"/>
      </g>
      <g id="freepik--Base--inject-50" transform="translate(146.565 28.654)">
        <path id="Trazado_115897" data-name="Trazado 115897" d="M1137.62,2917.2c-4.152-2.4-10.9-2.4-15.015,0-2.072,1.191-3.1,2.76-3.1,4.328v1.627c0,1.568,1.023,3.137,3.1,4.328a16.562,16.562,0,0,0,15.015,0c2.072-1.191,3.1-2.76,3.1-4.328v-1.627C1140.682,2919.959,1139.65,2918.391,1137.62,2917.2Z" transform="translate(-1119.459 -2913.693)" fill="#263238"/>
        <ellipse id="Elipse_5321" data-name="Elipse 5321" cx="10.611" cy="6.132" rx="10.611" ry="6.132" transform="translate(0 1.703)" fill="#455a64"/>
        <path id="Trazado_115898" data-name="Trazado 115898" d="M1136.623,2914.89a13.713,13.713,0,0,0-12.415,0c-1.677.99-2.567,2.29-2.558,3.582v2.39c0,1.3.839,2.592,2.558,3.582a13.717,13.717,0,0,0,12.415,0c1.677-.99,2.558-2.281,2.558-3.582v-2.39C1139.181,2917.146,1138.334,2915.846,1136.623,2914.89Z" transform="translate(-1119.804 -2913.371)" fill="#12263f"/>
        <ellipse id="Elipse_5322" data-name="Elipse 5322" cx="8.774" cy="5.066" rx="8.774" ry="5.066" transform="translate(1.837)" fill="#455a64"/>
      </g>
      <g id="freepik--Sheets--inject-50" transform="translate(82.145 21.211)">
        <g id="Grupo_53395" data-name="Grupo 53395" transform="translate(0 4.98)" opacity="0.2">
          <path id="Trazado_115899" data-name="Trazado 115899" d="M1043.027,2925.382l32.21,18.6a1.975,1.975,0,0,0,1.812,0l23.713-13.689a.554.554,0,0,0,0-1.04l-32.219-18.6a2.021,2.021,0,0,0-1.812,0l-23.7,13.689C1042.524,2924.618,1042.524,2925.088,1043.027,2925.382Z" transform="translate(-1042.65 -2910.429)"/>
        </g>
        <path id="Trazado_115900" data-name="Trazado 115900" d="M1043.027,2923.382l32.21,18.6a1.975,1.975,0,0,0,1.812,0l23.713-13.689a.553.553,0,0,0,0-1.048l-32.219-18.6a2.02,2.02,0,0,0-1.812,0l-23.7,13.689C1042.524,2922.618,1042.524,2923.088,1043.027,2923.382Z" transform="translate(-1042.65 -2905.126)" fill="#ebebeb"/>
        <path id="Trazado_115901" data-name="Trazado 115901" d="M1067.034,2908.643l-22.514,12.993,31.036,17.908a2.02,2.02,0,0,0,1.812,0l22.514-13-31.036-17.909A2.02,2.02,0,0,0,1067.034,2908.643Z" transform="translate(-1042.951 -2905.125)" fill="#e0e0e0"/>
        <path id="Trazado_115902" data-name="Trazado 115902" d="M1043.027,2919.467l32.21,18.6a2.02,2.02,0,0,0,1.812,0l23.713-13.714a.553.553,0,0,0,0-1.048l-32.219-18.6a1.969,1.969,0,0,0-1.812,0l-23.7,13.706C1042.524,2918.712,1042.524,2919.182,1043.027,2919.467Z" transform="translate(-1042.65 -2904.492)" fill="#fafafa"/>
      </g>
      <g id="freepik--Pen--inject-50" transform="translate(70.987 42.687)">
        <path id="Trazado_115903" data-name="Trazado 115903" d="M1029.425,2933.892l19.989,11.559,3.422.688a.1.1,0,0,0,.121-.074.1.1,0,0,0-.012-.076l-1.065-1.963-20-11.55C1031.212,2932.123,1028.9,2933.624,1029.425,2933.892Z" transform="translate(-1029.347 -2930.47)" opacity="0.2" style="isolation: isolate"/>
        <g id="freepik--pen--inject-50-2" data-name="freepik--pen--inject-50" transform="translate(0.666)">
          <path id="Trazado_115904" data-name="Trazado 115904" d="M1031.784,2930.2h.092l-.193-.109h-.21a.835.835,0,0,0-.4.126,2.021,2.021,0,0,0-.923,1.585,1,1,0,0,0,0,.235h0l.075.142h.042l.227.126a.329.329,0,0,1-.1-.075.733.733,0,0,0,.529-.118,2.015,2.015,0,0,0,.914-1.585A.752.752,0,0,0,1031.784,2930.2Zm-1.359,2.181" transform="translate(-1030.142 -2930.095)" fill="#36c"/>
          <path id="Trazado_115905" data-name="Trazado 115905" d="M1050.984,2941.274l-1.292,2.248-.218-.126-18.856-10.9a.318.318,0,0,1-.1-.075.724.724,0,0,1-.168-.52,2.036,2.036,0,0,1,.914-1.585.827.827,0,0,1,.411-.126h.21Z" transform="translate(-1030.175 -2930.109)" fill="#f0f0f0"/>
          <path id="Trazado_115906" data-name="Trazado 115906" d="M1054,2943.461c.5-.294.914-.059.914.528a2.021,2.021,0,0,1-.914,1.585c-.512.294-.923.059-.923-.528A2.01,2.01,0,0,1,1054,2943.461Z" transform="translate(-1033.839 -2932.229)" fill="#36c"/>
          <path id="Trazado_115907" data-name="Trazado 115907" d="M1055.976,2944.834h0l-1.174-1.283h0a.588.588,0,0,0-.73,0,2.011,2.011,0,0,0-.923,1.585.6.6,0,0,0,.361.629h.092l1.678.369a.433.433,0,0,0,.3-.067,1.161,1.161,0,0,0,.52-.906A.4.4,0,0,0,1055.976,2944.834Z" transform="translate(-1033.85 -2932.243)" fill="#e0e0e0"/>
          <path id="Trazado_115908" data-name="Trazado 115908" d="M1038.577,2935.17h0a.226.226,0,0,0-.21,0,.709.709,0,0,0-.327.562.248.248,0,0,0,.076.2h.042l13.916,8.036.914-.529Z" transform="translate(-1031.415 -2930.909)" fill="#455a64"/>
          <path id="Trazado_115909" data-name="Trazado 115909" d="M1053.18,2944.652l1.292.738.914-.529-1.745-1.006A2.213,2.213,0,0,0,1053.18,2944.652Z" transform="translate(-1033.855 -2932.313)" fill="#12263f"/>
          <path id="Trazado_115910" data-name="Trazado 115910" d="M1056.67,2945.593h0l-1.057-1.166h0a.419.419,0,0,0-.529,0,1.424,1.424,0,0,0-.646,1.115.419.419,0,0,0,.252.445h.05l1.552.336h0a.25.25,0,0,0,.168,0,.647.647,0,0,0,.294-.512A.2.2,0,0,0,1056.67,2945.593Z" transform="translate(-1034.058 -2932.39)" fill="#36c"/>
          <path id="Trazado_115911" data-name="Trazado 115911" d="M1056.67,2945.593h0l-1.057-1.166h0a.419.419,0,0,0-.529,0,1.424,1.424,0,0,0-.646,1.115.419.419,0,0,0,.252.445h.05l1.552.336h0a.25.25,0,0,0,.168,0,.647.647,0,0,0,.294-.512A.2.2,0,0,0,1056.67,2945.593Z" transform="translate(-1034.058 -2932.39)" opacity="0.1" style="isolation: isolate"/>
          <path id="Trazado_115912" data-name="Trazado 115912" d="M1056.821,2945.864a.646.646,0,0,1-.293.512.25.25,0,0,1-.168,0h0l-.78-.168c-.126,0-.21-.143-.21-.327a1.044,1.044,0,0,1,.47-.839.3.3,0,0,1,.377,0h0l.52.579h0A.2.2,0,0,1,1056.821,2945.864Z" transform="translate(-1034.208 -2932.493)" fill="#36c"/>
          <path id="Trazado_115913" data-name="Trazado 115913" d="M1056.734,2945.828a.181.181,0,0,1,.293.168.646.646,0,0,1-.293.512.182.182,0,0,1-.294-.168A.653.653,0,0,1,1056.734,2945.828Z" transform="translate(-1034.381 -2932.625)" opacity="0.1" style="isolation: isolate"/>
          <path id="Trazado_115914" data-name="Trazado 115914" d="M1034.433,2932.769a.228.228,0,0,0-.226,0,.7.7,0,0,0-.327.562.234.234,0,0,0,.1.21h0l3.422,1.979a.249.249,0,0,1-.075-.2.709.709,0,0,1,.327-.562.226.226,0,0,1,.21,0Z" transform="translate(-1030.744 -2930.521)" fill="#fafafa"/>
          <path id="Trazado_115915" data-name="Trazado 115915" d="M1034.534,2932.979a.724.724,0,0,1-.327.562.227.227,0,0,1-.226,0,.234.234,0,0,1-.1-.21.7.7,0,0,1,.327-.562.228.228,0,0,1,.226,0A.235.235,0,0,1,1034.534,2932.979Z" transform="translate(-1030.744 -2930.521)" fill="#f5f5f5"/>
          <path id="Trazado_115916" data-name="Trazado 115916" d="M1033.262,2931.218h0l-1.35-.78h0a.593.593,0,0,0-.554.075,1.81,1.81,0,0,0-.839,1.426.577.577,0,0,0,.243.537h0l1.367.788h0a.581.581,0,0,0,.57-.067,1.815,1.815,0,0,0,.839-1.426A.581.581,0,0,0,1033.262,2931.218Z" transform="translate(-1030.202 -2930.144)" fill="#36c"/>
          <path id="Trazado_115917" data-name="Trazado 115917" d="M1033.262,2931.218h0l-1.35-.78h0a.593.593,0,0,0-.554.075,1.81,1.81,0,0,0-.839,1.426.577.577,0,0,0,.243.537h0l1.367.788h0a.581.581,0,0,0,.57-.067,1.815,1.815,0,0,0,.839-1.426A.581.581,0,0,0,1033.262,2931.218Z" transform="translate(-1030.202 -2930.144)" opacity="0.05" style="isolation: isolate"/>
          <path id="Trazado_115918" data-name="Trazado 115918" d="M1032.939,2931.4c.453-.26.839-.05.839.478a1.814,1.814,0,0,1-.839,1.426c-.461.268-.839.05-.839-.47A1.828,1.828,0,0,1,1032.939,2931.4Z" transform="translate(-1030.458 -2930.288)" opacity="0.1" style="isolation: isolate"/>
          <path id="Trazado_115919" data-name="Trazado 115919" d="M1057.432,2946.351h0l-.562-.336h-.109a.308.308,0,0,0-.151.26c0,.042,0,.084.042.092h0l.562.344h0a.217.217,0,0,0,.294-.093.232.232,0,0,0,.025-.1A.226.226,0,0,0,1057.432,2946.351Z" transform="translate(-1034.408 -2932.661)" fill="#455a64"/>
          <path id="Trazado_115920" data-name="Trazado 115920" d="M1057.582,2946.454h0a.154.154,0,0,0-.1,0,.343.343,0,0,0-.151.268.107.107,0,0,0,.042.092h.067a.219.219,0,0,0,.218-.218h0A.2.2,0,0,0,1057.582,2946.454Z" transform="translate(-1034.524 -2932.73)" fill="#263238"/>
        </g>
      </g>
      <g id="freepik--Books--inject-50" transform="translate(17.66 71.209)">
        <path id="freepik--shadow--inject-50-2" data-name="freepik--shadow--inject-50" d="M996.63,3009.554l4.11-2.374,4.253,2.458-.7-2.047,4.253.839-4.966-2.86,15.862-9.16c.252-.151.252-.377,0-.528l-29.811-17.137a1.031,1.031,0,0,0-.914,0l-22.757,13.127a.277.277,0,0,0,0,.52l29.769,17.187A1.016,1.016,0,0,0,996.63,3009.554Z" transform="translate(-965.773 -2966.441)" opacity="0.1" style="isolation: isolate"/>
        <path id="Trazado_115921" data-name="Trazado 115921" d="M1004.876,3012.144l-.7-.411a1.143,1.143,0,0,1,.587-.042C1004.952,3011.783,1004.876,3012.144,1004.876,3012.144Z" transform="translate(-971.963 -2971.766)"/>
        <path id="Trazado_115922" data-name="Trazado 115922" d="M1005.1,3010.975a.838.838,0,0,0-1.184-.066.566.566,0,0,0-.065.066c-.688.629-.721,1.25-1.007,1.233s-.277-5.033-.277-5.033l2.693,2.517Z" transform="translate(-971.704 -2971.041)"/>
        <path id="Trazado_115923" data-name="Trazado 115923" d="M971.95,2987.927h-.05l.436-.251,18.58-10.72,27.068,17.514c.445.26.528.629.176.839l-.638.369-17.363,10.066-.117-.092Z" transform="translate(-966.76 -2966.17)" fill="#455a64"/>
        <path id="Trazado_115924" data-name="Trazado 115924" d="M1002.817,3004.332l1.342-.277v5.386c-.839.344-1.325.671-1.409,1.35Z" transform="translate(-971.733 -2970.538)" fill="#36c"/>
        <path id="Trazado_115925" data-name="Trazado 115925" d="M1004.95,3007.456l17.2-9.931a1.192,1.192,0,0,0,.537-.939v-5.31l-17.363,10.116a1.6,1.6,0,0,1-.839.99c-.621.235-.151.478-.151.478v4.521C1004.95,3007.322,1004.95,3007.456,1004.95,3007.456Z" transform="translate(-971.961 -2968.478)" fill="#ebebeb"/>
        <path id="Trazado_115926" data-name="Trazado 115926" d="M997.871,3000.864c.176-.1.319-.109.319,0v.168c0,.185.285.176.638,0s.637-.52.637-.7v-.168c0-.1.235-.31.537-.487l-27.991-16.038-.436.252a.435.435,0,0,0-.1.235v.168c0,.185-.285.5-.637.7s-.638.218-.638,0v-.168c0-.092-.134-.092-.319,0Z" transform="translate(-966.435 -2967.247)" fill="#12263f"/>
        <path id="Trazado_115927" data-name="Trazado 115927" d="M971.95,2981.807h-.05l.436-.243,18.58-10.729,27.068,15.636c.445.251.528.629.176.838l-.638.361-17.363,10.46Z" transform="translate(-966.76 -2965.183)" fill="#455a64"/>
        <path id="Trazado_115928" data-name="Trazado 115928" d="M970.089,2984.845l27.966,16.139-.981.771-27.874-16.1a1.079,1.079,0,0,1,.369-.52Z" transform="translate(-966.325 -2967.441)" fill="#455a64"/>
        <path id="Trazado_115929" data-name="Trazado 115929" d="M969.284,2993.059h-.05l-.059-.067v-.042a.852.852,0,0,1-.067-.159,1.348,1.348,0,0,1-.059-.176,1.915,1.915,0,0,1,0-.218v-.226a2.381,2.381,0,0,1,0-.243V2987.3a3.75,3.75,0,0,1,.26-1.409l27.874,16.1.117,7.239-27.874-16.1Z" transform="translate(-966.3 -2967.611)" fill="#455a64"/>
        <path id="Trazado_115930" data-name="Trazado 115930" d="M997.047,3001.926h0L973.1,2990.711c-1.325-.621-1.971.68-1.678,2.03a6.421,6.421,0,0,0,1.443,2.4h0l-3.59-2.072h-.05l-.059-.067v-.042a.856.856,0,0,1-.067-.159,1.347,1.347,0,0,1-.059-.176,1.883,1.883,0,0,1,0-.218v-.227a2.342,2.342,0,0,1,0-.243v-4.622a3.749,3.749,0,0,1,.26-1.409Z" transform="translate(-966.299 -2967.612)" opacity="0.1" style="isolation: isolate"/>
        <path id="Trazado_115931" data-name="Trazado 115931" d="M1002.1,3004h.629a2.8,2.8,0,0,1,.3-1.367.834.834,0,0,0,.512.168,1.56,1.56,0,0,0,.772-.243,2.336,2.336,0,0,0,.721-.629v-.059a1.068,1.068,0,0,0,.185-.529l16.533-9.512.562-.327.713-.411a.386.386,0,0,0,.218-.327v-.73a.389.389,0,0,1-.218.336h0l-1.9,1.082-15.937,9.227c-.294.176-.537.386-.537.487v.168a.526.526,0,0,1-.151.293,1.733,1.733,0,0,1-.486.411c-.352.2-.637.21-.637,0v-.143c0-.1-.134-.092-.319,0l-.31.185A2.515,2.515,0,0,0,1002.1,3004Z" transform="translate(-971.626 -2968.278)" fill="#12263f"/>
        <path id="Trazado_115932" data-name="Trazado 115932" d="M1002.765,3005.349v4.966h0a1.776,1.776,0,0,1,.939-1.174,1.563,1.563,0,0,1,.763-.235.837.837,0,0,1,.554.209h.059l.109-.067,15.937-9.227.914-.528.269-.151.772-.445a.381.381,0,0,0,.168-.3v.73a.355.355,0,0,1-.159.285h0l-.285.159-.176.109-.3.176-.193.109-.134.075-.235.134-12.658,7.306-4.035,2.332c-.293.168-.52.226-.537.143h0v-.159c0-.2-.285-.2-.629,0a.835.835,0,0,0-.5.637v.2a.294.294,0,0,1-.092.235l-.092.05-.2.117-.243.143a.259.259,0,0,1-.319,0h0a.284.284,0,0,1-.05-.075h0a.86.86,0,0,1-.067-.159,1.1,1.1,0,0,1-.059-.185.393.393,0,0,0-.042-.21c-.042-.075,0-.084,0-.126a.513.513,0,0,0,0-.1v-4.865Z" transform="translate(-971.647 -2969.626)" fill="#12263f"/>
        <path id="Trazado_115933" data-name="Trazado 115933" d="M969.2,2983.5l26.49,15.292,20.031-11.559a.327.327,0,0,0,0-.621l-26.221-15.14-17.615,10.158h0l-.436.26a.394.394,0,0,0-.1.226v.168c0,.193-.285.5-.637.7h-.059l-.579-.344-.277.159h-.042l-.21.117A1.073,1.073,0,0,0,969.2,2983.5Z" transform="translate(-966.325 -2965.286)" opacity="0.1" style="isolation: isolate"/>
        <path id="Trazado_115934" data-name="Trazado 115934" d="M1022.727,2990.289l-.8-.428.73-.176A.581.581,0,0,1,1022.727,2990.289Z" transform="translate(-974.825 -2968.222)" fill="#36c"/>
        <path id="Trazado_115935" data-name="Trazado 115935" d="M1022.727,2990.289l-.8-.428.73-.176A.581.581,0,0,1,1022.727,2990.289Z" transform="translate(-974.825 -2968.222)" opacity="0.5" style="isolation: isolate"/>
        <path id="Trazado_115936" data-name="Trazado 115936" d="M992.6,2998.021a1.777,1.777,0,0,0,1.619,0l18.194-10.51-27.236-15.476-.638-.369-18.2,10.259a.495.495,0,0,0,0,.931Z" transform="translate(-965.811 -2965.317)" fill="#36c"/>
        <path id="Trazado_115937" data-name="Trazado 115937" d="M1005.424,2979.725l6.35,3.649,4.11-2.365,4.773,2.76v3.188c0,.419-.461,1.015-.638.914a4.566,4.566,0,0,0-.914.327,6.727,6.727,0,0,0-1.317.973l-14.579-8.162Z" transform="translate(-971.807 -2966.616)" fill="#36c"/>
        <path id="Trazado_115938" data-name="Trazado 115938" d="M1005.424,2979.725l6.35,3.649,4.11-2.365,4.773,2.76v3.188c0,.419-.461,1.015-.638.914a4.566,4.566,0,0,0-.914.327,6.727,6.727,0,0,0-1.317.973l-14.579-8.162Z" transform="translate(-971.807 -2966.616)" opacity="0.15" style="isolation: isolate"/>
        <path id="Trazado_115939" data-name="Trazado 115939" d="M1020.89,2984.847v3.506h.05a1.665,1.665,0,0,1,.78-.243.837.837,0,0,1,.512.117v-4.152Z" transform="translate(-974.657 -2967.317)" fill="#12263f"/>
        <path id="Trazado_115940" data-name="Trazado 115940" d="M1019.82,2989.654a1.049,1.049,0,0,1,.235-.587,1.251,1.251,0,0,1,.218-.26l.076-.075.1-.084.084-.059c.059-.05.126-.084.185-.126v-3.448l-.889.52v4.118Z" transform="translate(-974.485 -2967.469)" fill="#e0e0e0"/>
        <path id="Trazado_115941" data-name="Trazado 115941" d="M1023.765,2987.7c0,.419-.461,1.015-.638.914h0l-.638-.419v-2.625l.638-1.1.352-.126.285.168Z" transform="translate(-974.915 -2967.361)" opacity="0.4" style="isolation: isolate"/>
        <path id="Trazado_115942" data-name="Trazado 115942" d="M998.67,2995.857v3.951a1.139,1.139,0,0,0,.545-.126l2-1.158,15.2-8.774v-4.135Z" transform="translate(-971.075 -2967.566)" fill="#ebebeb"/>
        <path id="Trazado_115943" data-name="Trazado 115943" d="M1017.633,2988.765l-4.253,2.458a10.791,10.791,0,0,1,2.131-1.417A9.691,9.691,0,0,1,1017.633,2988.765Z" transform="translate(-973.446 -2968.073)" opacity="0.15" style="isolation: isolate"/>
        <path id="Trazado_115944" data-name="Trazado 115944" d="M966.95,2980.175v2.986a1.189,1.189,0,0,0,.537.931l23.537,13.589,2,1.158a1.107,1.107,0,0,0,.537.126v-3.506Z" transform="translate(-965.962 -2966.689)" fill="#f5f5f5"/>
        <path id="Trazado_115945" data-name="Trazado 115945" d="M988.86,2965.78l27.236,15.736v.361c0,.2.285.277.638.075s.637-.453.637-.839v-.344l-27.723-16-.117-.059a.376.376,0,0,0-.042.168v.168C989.489,2965.252,989.2,2965.579,988.86,2965.78Z" transform="translate(-969.494 -2964.197)" fill="#36c"/>
        <path id="Trazado_115946" data-name="Trazado 115946" d="M988.86,2965.78l27.236,15.736v.361c0,.2.285.277.638.075s.637-.453.637-.839v-.344l-27.723-16-.117-.059a.376.376,0,0,0-.042.168v.168C989.489,2965.252,989.2,2965.579,988.86,2965.78Z" transform="translate(-969.494 -2964.197)" opacity="0.1" style="isolation: isolate"/>
        <path id="Trazado_115947" data-name="Trazado 115947" d="M994.23,2992.18l17.791-10.275c.227-.117.436-.21.52-.168l-.117-.059-27.236-15.736-.319-.185a1.029,1.029,0,0,0-.839.134l-17.615,10.191a.495.495,0,0,0,0,.94l26.263,15.157A1.779,1.779,0,0,0,994.23,2992.18Z" transform="translate(-965.821 -2964.359)" fill="#36c"/>
        <path id="Trazado_115948" data-name="Trazado 115948" d="M986,2971.194l-9.839,5.679c-.419.234-.419.629,0,.839l1.325.763a1.681,1.681,0,0,0,1.51,0l9.839-5.646a.462.462,0,0,0,0-.838l-1.325-.764A1.675,1.675,0,0,0,986,2971.194Z" transform="translate(-967.396 -2965.215)" fill="#fff"/>
        <path id="Trazado_115949" data-name="Trazado 115949" d="M995.469,2990.726a2.81,2.81,0,0,0-2.793,0,.221.221,0,0,1-.176,0l-22.3-12.876a.175.175,0,0,1-.06-.241.165.165,0,0,1,.06-.061.809.809,0,0,0,0-1.409.184.184,0,0,1-.084-.151.167.167,0,0,1,.084-.151l13.32-7.667a.166.166,0,0,1,.176,0,2.81,2.81,0,0,0,2.793,0,.166.166,0,0,1,.176,0l22.321,12.884a.176.176,0,0,1,.06.242.179.179,0,0,1-.06.061.839.839,0,0,0,0,1.409.177.177,0,0,1,0,.31l-13.362,7.692a.191.191,0,0,1-.092,0A.161.161,0,0,1,995.469,2990.726Zm12.783-8.707a1.188,1.188,0,0,1,.352-.839l-22-12.7a3.137,3.137,0,0,1-2.961,0l-13.035,7.549a1.175,1.175,0,0,1,0,1.678l21.985,12.691a3.138,3.138,0,0,1,2.961,0l13.052-7.549a1.149,1.149,0,0,1-.352-.83Z" transform="translate(-966.473 -2964.75)" fill="#fff"/>
        <path id="Trazado_115950" data-name="Trazado 115950" d="M989.66,2964.615l.117.059,27.756,16.03a.209.209,0,0,1,.059-.076l.092-.05.2-.118.243-.143a.25.25,0,0,1,.319,0h0l.084.117a.943.943,0,0,1,.067.159,1.173,1.173,0,0,1,.059.176.421.421,0,0,0,.042.218c.042.075,0,.084,0,.126a.408.408,0,0,0,0,.1v-.537a1.679,1.679,0,0,0-.839-1.25l-26.154-15.107a1.678,1.678,0,0,0-1.451-.109l-.327.2h0l-.134.084h0A.344.344,0,0,0,989.66,2964.615Z" transform="translate(-969.623 -2964.097)" fill="#36c"/>
        <path id="Trazado_115951" data-name="Trazado 115951" d="M999.477,3000.622l1.1-.637,16.474-9.512a1.087,1.087,0,0,1,.226-.6,2.308,2.308,0,0,1,.721-.629,1.675,1.675,0,0,1,.772-.243.838.838,0,0,1,.512.168,2.81,2.81,0,0,0,.3-1.367h.629a2.519,2.519,0,0,1-.638,1.929l-.31.184c-.176.1-.319.109-.319,0v-.126c0-.184-.285-.176-.637,0s-.638.52-.638.7v.168c0,.1-.243.319-.537.486l-15.937,9.227-1.728,1h0a1.692,1.692,0,0,1-.839.193v-.721A1.683,1.683,0,0,0,999.477,3000.622Z" transform="translate(-971.069 -2967.919)" fill="#36c"/>
        <path id="Trazado_115952" data-name="Trazado 115952" d="M999.477,3000.622l1.1-.637,16.474-9.512a1.087,1.087,0,0,1,.226-.6,2.308,2.308,0,0,1,.721-.629,1.675,1.675,0,0,1,.772-.243.838.838,0,0,1,.512.168,2.81,2.81,0,0,0,.3-1.367h.629a2.519,2.519,0,0,1-.638,1.929l-.31.184c-.176.1-.319.109-.319,0v-.126c0-.184-.285-.176-.637,0s-.638.52-.638.7v.168c0,.1-.243.319-.537.486l-15.937,9.227-1.728,1h0a1.692,1.692,0,0,1-.839.193v-.721A1.683,1.683,0,0,0,999.477,3000.622Z" transform="translate(-971.069 -2967.919)" opacity="0.3" style="isolation: isolate"/>
        <path id="Trazado_115953" data-name="Trazado 115953" d="M999.47,2995.033h0l1.1-.638,12.658-7.3,4.035-2.34c.294-.168.528-.227.537-.134h0v.185c0,.2.285.2.629,0a.841.841,0,0,0,.5-.638v-.2a.292.292,0,0,1,.092-.235l.092-.05.2-.118.243-.143a.251.251,0,0,1,.319,0h0l.05.076h0a.959.959,0,0,1,.067.159,1.173,1.173,0,0,1,.059.176.423.423,0,0,0,.042.218c.042.075,0,.083,0,.125a.406.406,0,0,0,0,.1V2987h-.629v-2.827h0a1.747,1.747,0,0,1-.939,1.166,1.585,1.585,0,0,1-.763.243.842.842,0,0,1-.554-.209h-.059l-.109.067-15.937,9.227-1.627,1.124h0a1.686,1.686,0,0,1-.839.185v-.722A1.683,1.683,0,0,0,999.47,2995.033Z" transform="translate(-971.071 -2967.203)" fill="#36c"/>
        <path id="Trazado_115954" data-name="Trazado 115954" d="M999.47,2995.033h0l1.1-.638,12.658-7.3,4.035-2.34c.294-.168.528-.227.537-.134h0v.185c0,.2.285.2.629,0a.841.841,0,0,0,.5-.638v-.2a.292.292,0,0,1,.092-.235l.092-.05.2-.118.243-.143a.251.251,0,0,1,.319,0h0l.05.076h0a.959.959,0,0,1,.067.159,1.173,1.173,0,0,1,.059.176.423.423,0,0,0,.042.218c.042.075,0,.083,0,.125a.406.406,0,0,0,0,.1V2987h-.629v-2.827h0a1.747,1.747,0,0,1-.939,1.166,1.585,1.585,0,0,1-.763.243.842.842,0,0,1-.554-.209h-.059l-.109.067-15.937,9.227-1.627,1.124h0a1.686,1.686,0,0,1-.839.185v-.722A1.683,1.683,0,0,0,999.47,2995.033Z" transform="translate(-971.071 -2967.203)" opacity="0.3" style="isolation: isolate"/>
        <path id="Trazado_115955" data-name="Trazado 115955" d="M966,2978.625v.73a.56.56,0,0,0,.327.461h0l24.535,14.167,1.728.99h0a1.78,1.78,0,0,0,.839.185v-.721a1.57,1.57,0,0,1-.839-.193l-1.1-.629h0l-25.156-14.528A.586.586,0,0,1,966,2978.625Z" transform="translate(-965.809 -2966.439)" fill="#36c"/>
        <path id="Trazado_115956" data-name="Trazado 115956" d="M966,2978.625v.73a.56.56,0,0,0,.327.461h0l24.535,14.167,1.728.99h0a1.78,1.78,0,0,0,.839.185v-.721a1.57,1.57,0,0,1-.839-.193l-1.1-.629h0l-25.156-14.528A.586.586,0,0,1,966,2978.625Z" transform="translate(-965.809 -2966.439)" opacity="0.2" style="isolation: isolate"/>
        <path id="Trazado_115957" data-name="Trazado 115957" d="M966,2984.435v.738a.569.569,0,0,0,.327.461h0l24.535,14.167,1.728,1h0a1.684,1.684,0,0,0,.839.193v-.721a1.682,1.682,0,0,1-.839-.193l-1.1-.637h0l-25.164-14.528A.585.585,0,0,1,966,2984.435Z" transform="translate(-965.809 -2967.375)" fill="#36c"/>
        <path id="Trazado_115958" data-name="Trazado 115958" d="M966,2984.435v.738a.569.569,0,0,0,.327.461h0l24.535,14.167,1.728,1h0a1.684,1.684,0,0,0,.839.193v-.721a1.682,1.682,0,0,1-.839-.193l-1.1-.637h0l-25.164-14.528A.585.585,0,0,1,966,2984.435Z" transform="translate(-965.809 -2967.375)" opacity="0.2" style="isolation: isolate"/>
        <path id="Trazado_115959" data-name="Trazado 115959" d="M1017.063,2989.255v9.831l-1.417-1.636-1.426,3.271v-9.831Z" transform="translate(-973.582 -2968.152)" fill="#36c"/>
        <path id="Trazado_115960" data-name="Trazado 115960" d="M1017.063,2989.255v9.831l-1.417-1.636-1.426,3.271v-9.831Z" transform="translate(-973.582 -2968.152)" opacity="0.5" style="isolation: isolate"/>
        <path id="Trazado_115961" data-name="Trazado 115961" d="M1009.455,3004.485v2.667a2.517,2.517,0,0,0,1.233,2.147l3.733,2.147-3.548-.4.7,2.047-3.716-2.156a2.465,2.465,0,0,1-1.241-2.139v-2.667Z" transform="translate(-972.357 -2970.607)" fill="#36c"/>
        <path id="Trazado_115962" data-name="Trazado 115962" d="M1009.455,3004.485v2.667a2.517,2.517,0,0,0,1.233,2.147l3.733,2.147-3.548-.4.7,2.047-3.716-2.156a2.465,2.465,0,0,1-1.241-2.139v-2.667Z" transform="translate(-972.357 -2970.607)" opacity="0.5" style="isolation: isolate"/>
        <path id="Trazado_115963" data-name="Trazado 115963" d="M1010.163,3003.925l-4.253,2.458a10.545,10.545,0,0,1,2.122-1.426A9.9,9.9,0,0,1,1010.163,3003.925Z" transform="translate(-972.242 -2970.517)" opacity="0.15" style="isolation: isolate"/>
      </g>
    </g>
    <g id="freepik--Flag--inject-50-3" data-name="freepik--Flag--inject-50" transform="translate(844.93 2727.645)">
      <g id="freepik--flag--inject-50-4" data-name="freepik--flag--inject-50">
        <path id="Trazado_115964" data-name="Trazado 115964" d="M885.359,3032.953c-7.34-4.244-19.234-4.244-26.573,0-3.666,2.114-5.494,4.891-5.486,7.667v2.911c0,2.776,1.82,5.544,5.486,7.667,7.34,4.194,19.234,4.194,26.573,0,3.666-2.122,5.494-4.89,5.486-7.667v-2.877C890.879,3037.844,889.025,3035.067,885.359,3032.953Z" transform="translate(-853.281 -2776.344)" fill="#36c"/>
        <path id="Trazado_115965" data-name="Trazado 115965" d="M885.359,3032.953c-7.34-4.244-19.234-4.244-26.573,0-3.666,2.114-5.494,4.891-5.486,7.667v2.911c0,2.776,1.82,5.544,5.486,7.667,7.34,4.194,19.234,4.194,26.573,0,3.666-2.122,5.494-4.89,5.486-7.667v-2.877C890.879,3037.844,889.025,3035.067,885.359,3032.953Z" transform="translate(-853.281 -2776.344)" opacity="0.35" style="isolation: isolate"/>
        <path id="Trazado_115966" data-name="Trazado 115966" d="M858.782,3032.954c-7.34,4.236-7.34,11.1,0,15.333s19.234,4.244,26.573,0,7.34-11.1,0-15.333S866.122,3028.709,858.782,3032.954Z" transform="translate(-853.278 -2776.345)" fill="#36c"/>
        <path id="Trazado_115967" data-name="Trazado 115967" d="M858.782,3032.954c-7.34,4.236-7.34,11.1,0,15.333s19.234,4.244,26.573,0,7.34-11.1,0-15.333S866.122,3028.709,858.782,3032.954Z" transform="translate(-853.278 -2776.345)" opacity="0.1" style="isolation: isolate"/>
        <path id="Trazado_115968" data-name="Trazado 115968" d="M884.376,3029.747c-6.593-3.8-17.279-3.8-23.872,0-3.3,1.9-4.932,4.4-4.924,6.9v1.887c0,2.517,1.627,5.033,4.924,6.887,6.593,3.808,17.279,3.808,23.872,0,3.3-1.9,4.932-4.4,4.924-6.887v-1.887C889.309,3034.151,887.673,3031.651,884.376,3029.747Z" transform="translate(-853.649 -2775.882)" fill="#36c"/>
        <path id="Trazado_115969" data-name="Trazado 115969" d="M884.376,3029.747c-6.593-3.8-17.279-3.8-23.872,0-3.3,1.9-4.932,4.4-4.924,6.9v1.887c0,2.517,1.627,5.033,4.924,6.887,6.593,3.808,17.279,3.808,23.872,0,3.3-1.9,4.932-4.4,4.924-6.887v-1.887C889.309,3034.151,887.673,3031.651,884.376,3029.747Z" transform="translate(-853.649 -2775.882)" opacity="0.2" style="isolation: isolate"/>
        <ellipse id="Elipse_5323" data-name="Elipse 5323" cx="16.877" cy="9.747" rx="16.877" ry="9.747" transform="translate(1.914 251.014)" fill="#36c"/>
        <path id="Trazado_115970" data-name="Trazado 115970" d="M877.005,2754.742a1.678,1.678,0,0,0-1.678-1.677h0a1.677,1.677,0,0,0-1.678,1.677v237.8h0a.838.838,0,0,0,.486.679,2.6,2.6,0,0,0,2.332,0,.841.841,0,0,0,.487-.679h0Z" transform="translate(-856.561 -2731.742)" fill="#36c"/>
        <path id="Trazado_115971" data-name="Trazado 115971" d="M877.005,2754.742a1.678,1.678,0,0,0-1.678-1.677h0a1.677,1.677,0,0,0-1.678,1.677v237.8h0a.838.838,0,0,0,.486.679,2.6,2.6,0,0,0,2.332,0,.841.841,0,0,0,.487-.679h0Z" transform="translate(-856.561 -2731.742)" opacity="0.2" style="isolation: isolate"/>
        <path id="Trazado_115972" data-name="Trazado 115972" d="M875.358,2753.095h0a1.677,1.677,0,0,0-1.678,1.677v1.963a4.678,4.678,0,0,0,1.678.31,4.51,4.51,0,0,0,1.678-.319v-1.98A1.678,1.678,0,0,0,875.358,2753.095Z" transform="translate(-856.566 -2731.747)" opacity="0.2" style="isolation: isolate"/>
        <path id="Trazado_115973" data-name="Trazado 115973" d="M879.4,2750.22a4.605,4.605,0,1,1-4.605-4.605h0A4.605,4.605,0,0,1,879.4,2750.22Z" transform="translate(-856.004 -2730.542)" fill="#36c"/>
        <path id="Trazado_115974" data-name="Trazado 115974" d="M857.961,2928.678c-1.082,12.1,16.558,20.232,30.2,17.162l-3.942-58.306-22.145,2.995Z" transform="translate(-854.025 -2753.418)" fill="red"/>
        <path id="Trazado_115975" data-name="Trazado 115975" d="M858.691,2920.525a17.039,17.039,0,0,0-.721,3.011l7.138-64.781c12.129,3.767,21.868,13.581,23.646,27.8C890.684,2901.828,864.035,2904.059,858.691,2920.525Z" transform="translate(-854.034 -2748.779)" fill="#2e62b6" stroke="#263238" stroke-linecap="round" stroke-linejoin="round" stroke-width="1"/>
        <path id="Trazado_115976" data-name="Trazado 115976" d="M877.31,2746.127a4.385,4.385,0,0,0-4.11,0,2.9,2.9,0,0,0,4.093.018Z" transform="translate(-856.489 -2730.542)" opacity="0.2" style="isolation: isolate"/>
        <path id="Trazado_115977" data-name="Trazado 115977" d="M878.709,2738.893c0,2.072-1.678,4.538-3.75,4.538s-3.749-2.466-3.749-4.538,3.749-11.248,3.749-11.248S878.709,2736.822,878.709,2738.893Z" transform="translate(-856.168 -2727.645)" fill="#36c"/>
        <path id="Trazado_115978" data-name="Trazado 115978" d="M874.81,2762.075l-14.78,84.443s10.812,3.942,17.221,8.2c10.519,7,11.844,16.483,11.844,16.483Z" transform="translate(-854.366 -2733.195)" fill="#ffdf00" stroke="#12263f" stroke-miterlimit="10" stroke-width="1"/>
      </g>
    </g>
    <g id="freepik--speech-bubble--inject-50" transform="translate(1074.834 2767.061)">
      <g id="freepik--speech-bubble--inject-50-2" data-name="freepik--speech-bubble--inject-50">
        <g id="freepik--speech-bubble--inject-50-3" data-name="freepik--speech-bubble--inject-50">
          <path id="Trazado_115979" data-name="Trazado 115979" d="M1176.9,2774.97l-34.517,19.88a3.067,3.067,0,0,0-1.376,2.39v39.575a3.027,3.027,0,0,0,1.384,2.374l4.941,2.768a3.1,3.1,0,0,0,2.768,0l34.509-19.9a3.065,3.065,0,0,0,1.384-2.391v-39.55a3,3,0,0,0-1.392-2.374l-4.932-2.793A3.094,3.094,0,0,0,1176.9,2774.97Z" transform="translate(-1129.561 -2774.635)" fill="#36c"/>
          <path id="Trazado_115980" data-name="Trazado 115980" d="M1150.2,2842v-39.575a3.041,3.041,0,0,1,1.384-2.382l34.509-19.9c.763-.436,1.384-.084,1.384.839v39.575a3.065,3.065,0,0,1-1.384,2.391l-34.509,19.88C1150.821,2843.243,1150.2,2842.882,1150.2,2842Z" transform="translate(-1131.042 -2775.492)" fill="#ea3065"/>
          <path id="Trazado_115981" data-name="Trazado 115981" d="M1150.1,2846.014a3.146,3.146,0,0,1-2.768,0l-4.941-2.777a2.982,2.982,0,0,1-1.384-2.365v-39.558a2.811,2.811,0,0,1,.436-1.409l7.683,4.387a2.762,2.762,0,0,0-.411,1.351v39.575C1148.719,2846.023,1149.289,2846.484,1150.1,2846.014Z" transform="translate(-1129.561 -2778.708)" fill="#a22f5f" opacity="0.2" style="isolation: isolate"/>
          <path id="Trazado_115982" data-name="Trazado 115982" d="M1186.052,2779.844c-.1-.688-.671-.939-1.359-.545l-34.509,19.888a2.811,2.811,0,0,0-.973,1.032l-7.692-4.387a2.808,2.808,0,0,1,.956-.981l34.509-19.888a3.1,3.1,0,0,1,2.768,0l4.932,2.768A3.013,3.013,0,0,1,1186.052,2779.844Z" transform="translate(-1129.643 -2774.635)" fill="#e36099" opacity="0.4" style="isolation: isolate"/>
          <path id="Trazado_115983" data-name="Trazado 115983" d="M1138.81,2817.745l-11.1,11.265a1.223,1.223,0,0,0,.015,1.731,1.2,1.2,0,0,0,.195.156l7.684,4.412,10.9-13.144Z" transform="translate(-1127.361 -2781.584)" fill="#36c"/>
          <path id="Trazado_115984" data-name="Trazado 115984" d="M1138.81,2817.745l-11.1,11.265a1.223,1.223,0,0,0,.015,1.731,1.2,1.2,0,0,0,.195.156l7.684,4.412,10.9-13.144Z" transform="translate(-1127.361 -2781.584)" fill="#7cc5ff" opacity="0.1" style="isolation: isolate"/>
          <path id="Trazado_115985" data-name="Trazado 115985" d="M1148,2823.045l-11.089,11.282a1.216,1.216,0,0,0,1.04,2.063l10.066-1.451C1149.083,2834.939,1149.083,2823.045,1148,2823.045Z" transform="translate(-1128.843 -2782.438)" fill="#ea3065"/>
        </g>
        <path id="Trazado_115986" data-name="Trazado 115986" d="M1182.713,2805.755h0l-3.808-8.472a.913.913,0,0,0,0-.134v-.31c0-.294-.176-.419-.394-.3l-6.836,3.951a.839.839,0,0,0-.948-.553v-1.376c0-.52-.243-.839-.537-.629a1.574,1.574,0,0,0-.537,1.241v1.384a3.677,3.677,0,0,0-.948,1.678l-6.836,3.951a.938.938,0,0,0-.394.747v.084a.377.377,0,0,0,.193.285l-3.548,12.213h0a.342.342,0,0,0,0,.092c0,3.984,3.271,2.156,4.446,1.468s4.244-2.517,4.244-6.014a.362.362,0,0,0-.059-.21h0l-3.615-8.053,5.662-3.271a.839.839,0,0,0,.889.436v12.331l-.638.394v7.642l-1.9,1.091a2.857,2.857,0,0,0-1.191,2.273v.839l-.579.335a5.568,5.568,0,0,0-2.324,4.446v.227l14.335-8.3v-.235c0-1.677-1.049-2.516-2.332-1.761l-.579.344v-.839c0-.881-.537-1.283-1.191-.9l-1.9,1.09v-7.717l-.637.386v-12.272a3.809,3.809,0,0,0,.9-1.459l5.872-3.414-3.456,11.9h0a.4.4,0,0,0,0,.1c0,3.984,3.263,2.156,4.446,1.468s4.245-2.517,4.245-6.014A.452.452,0,0,0,1182.713,2805.755Zm-16.868,9.168-6.543,3.783,3.271-11.408Zm9.4-5.276,3.28-11.416,3.271,7.633Z" transform="translate(-1132.318 -2778.158)" fill="#fff"/>
      </g>
    </g>
  </g>
</svg>
