<svg xmlns="http://www.w3.org/2000/svg" width="165.304" height="165.304" viewBox="0 0 165.304 165.304">
  <g id="Grupo_55341" data-name="Grupo 55341" transform="translate(8959 6123)">
    <circle id="Base" cx="82.652" cy="82.652" r="82.652" transform="translate(-8959 -6123)" fill="#ea3065"/>
    <g id="headhunting" transform="translate(-8923.512 -6085)">
      <g id="Grupo_55261" data-name="Grupo 55261" transform="translate(2.512 0)">
        <path id="Trazado_119887" data-name="Trazado 119887" d="M340.559,194.709H317.822a1.319,1.319,0,1,0,0,2.637H340.56a1.319,1.319,0,1,0,0-2.637Z" transform="translate(-261.296 -160.474)" fill="#fff"/>
        <path id="Trazado_119888" data-name="Trazado 119888" d="M340.559,239.922H317.822a1.319,1.319,0,1,0,0,2.637H340.56a1.319,1.319,0,1,0,0-2.637Z" transform="translate(-261.296 -197.738)" fill="#fff"/>
        <path id="Trazado_119889" data-name="Trazado 119889" d="M341.878,286.454a1.319,1.319,0,0,0-1.319-1.319H317.822a1.319,1.319,0,1,0,0,2.637H340.56A1.318,1.318,0,0,0,341.878,286.454Z" transform="translate(-261.296 -235.001)" fill="#fff"/>
        <path id="Trazado_119890" data-name="Trazado 119890" d="M317.822,330.348a1.318,1.318,0,1,0,0,2.637H329.19a1.318,1.318,0,1,0,0-2.637Z" transform="translate(-261.296 -272.265)" fill="#fff"/>
        <path id="Trazado_119891" data-name="Trazado 119891" d="M89.74,15.506,76.145,1.911A6.524,6.524,0,0,0,71.531,0H26.795a6.531,6.531,0,0,0-6.524,6.524v13.5a1.319,1.319,0,1,0,2.637,0V6.524a3.891,3.891,0,0,1,3.887-3.887H71.531a3.881,3.881,0,0,1,.838.091V14.736a4.551,4.551,0,0,0,4.546,4.546H88.921a3.888,3.888,0,0,1,.092.838V83.5a3.891,3.891,0,0,1-3.887,3.887H67.412a5.944,5.944,0,0,0-.738-7.494L54.686,67.9a3.079,3.079,0,0,0-3.234-.71l-2.581-2.581A25.587,25.587,0,1,0,43,70.479l2.582,2.582a3.079,3.079,0,0,0,.71,3.234l11.09,11.09H26.795A3.891,3.891,0,0,1,22.908,83.5V79.272a1.319,1.319,0,1,0-2.637,0V83.5a6.531,6.531,0,0,0,6.524,6.524H85.126A6.532,6.532,0,0,0,91.65,83.5V20.119a6.535,6.535,0,0,0-1.911-4.613ZM11.858,65.918a22.946,22.946,0,1,1,34.236-2A23.284,23.284,0,0,1,42.3,67.7,22.956,22.956,0,0,1,11.858,65.918Zm33.22,2.9a25.948,25.948,0,0,0,2.134-2.134l2.171,2.171-2.139,2.139-2.171-2.171.005,0Zm15.069,17.6L48.158,74.431a.441.441,0,0,1,0-.623l.017-.017h0L52.2,69.767a.441.441,0,0,1,.623,0L64.81,81.755a3.3,3.3,0,0,1-4.664,4.664Zm14.86-71.683V4.5L87.149,16.645H76.915A1.911,1.911,0,0,1,75.006,14.736Z" transform="translate(-2.512 0)" fill="#fff"/>
        <path id="Trazado_119892" data-name="Trazado 119892" d="M179.451,48.663h-26.16a2.839,2.839,0,0,0-2.836,2.836v5.054a2.839,2.839,0,0,0,2.836,2.836h26.16a2.839,2.839,0,0,0,2.836-2.836V51.5A2.839,2.839,0,0,0,179.451,48.663Zm.2,7.89a.2.2,0,0,1-.2.2h-26.16a.2.2,0,0,1-.2-.2V51.5a.2.2,0,0,1,.2-.2h26.16a.2.2,0,0,1,.2.2v5.054Z" transform="translate(-124.443 -40.107)" fill="#fff"/>
        <path id="Trazado_119893" data-name="Trazado 119893" d="M68.077,201.769a20.325,20.325,0,1,0-34.462-17.461,1.319,1.319,0,0,0,2.607.4,17.688,17.688,0,1,1,30.793,14.338,5.7,5.7,0,0,0-2.853-2.705A25.688,25.688,0,0,0,58.251,195l-.007-1.665a7.736,7.736,0,0,0,3.063-5.015,2.341,2.341,0,0,0,1.439-2.173c-.012-1.748-.01-4.644-.01-6.331a3.238,3.238,0,0,0-2.685-3.186,3.237,3.237,0,0,0-3.171-2.606H50.515a5.958,5.958,0,0,0-5.951,5.951v6.2a2.33,2.33,0,0,0,1.422,2.143,7.756,7.756,0,0,0,2.923,4.908l.008,1.817a25.689,25.689,0,0,0-5.9,1.393,5.561,5.561,0,0,0-2.678,2.551,17.547,17.547,0,0,1-4.057-8.534,1.319,1.319,0,1,0-2.6.452,20.327,20.327,0,0,0,34.394,10.871ZM50.515,176.658H56.88a.6.6,0,0,1,.595.595,1.967,1.967,0,0,0,1.965,1.965H59.5a.6.6,0,0,1,.595.595v.708l-1.594-.149a7.352,7.352,0,0,0-4.5,1.043,4.664,4.664,0,0,1-2.437.687H47.2v-2.129a3.317,3.317,0,0,1,3.314-3.314ZM47.2,185.887v-1.149h4.372a7.3,7.3,0,0,0,3.814-1.075A4.694,4.694,0,0,1,58.259,183l1.841.173c0,.812,0,1.884.008,2.713a1.637,1.637,0,0,0-1.35,1.514,5.121,5.121,0,0,1-10.223,0A1.649,1.649,0,0,0,47.2,185.887Zm6.449,8.954a7.75,7.75,0,0,0,1.962-.253l0,.735a2.259,2.259,0,0,0,.218.959,4.028,4.028,0,0,1-2.247.689h-.012a4.028,4.028,0,0,1-2.231-.671,2.259,2.259,0,0,0,.211-.961l0-.788A7.729,7.729,0,0,0,53.65,194.841ZM42.4,201a2.987,2.987,0,0,1,1.7-2.169,21.03,21.03,0,0,1,4.8-1.131,6.648,6.648,0,0,0,4.674,1.906h.02a6.647,6.647,0,0,0,4.7-1.946,21.024,21.024,0,0,1,4.81,1.09,3.009,3.009,0,0,1,1.821,2.321A17.718,17.718,0,0,1,42.4,201Z" transform="translate(-28.134 -137.705)" fill="#fff"/>
      </g>
    </g>
  </g>
</svg>
