<svg xmlns="http://www.w3.org/2000/svg" width="395.826" height="394.532" viewBox="0 0 395.826 394.532">
  <g id="Grupo_55034" data-name="Grupo 55034" transform="translate(-240.154 -2015.06)">
    <g id="freepik--Floor--inject-12" transform="translate(240.154 2181.067)">
      <path id="freepik--floor--inject-12-2" data-name="freepik--floor--inject-12" d="M298.125,2404.4c-77.3-44.62-77.3-116.968,0-161.588s202.6-44.629,279.889,0,77.286,116.968,0,161.588S375.42,2449.027,298.125,2404.4Z" transform="translate(-240.154 -2209.341)" fill="#f5f5f5"/>
    </g>
    <g id="freepik--Shadows--inject-12" transform="translate(282.898 2298.077)">
      <ellipse id="freepik--Shadow--inject-12" cx="47.056" cy="27.172" rx="47.056" ry="27.172" transform="translate(111.952 2.393)" fill="#e0e0e0"/>
      <ellipse id="freepik--shadow--inject-12-2" data-name="freepik--shadow--inject-12" cx="56.583" cy="32.666" rx="56.583" ry="32.666" transform="translate(198.322 0)" fill="#e0e0e0"/>
      <ellipse id="freepik--shadow--inject-12-3" data-name="freepik--shadow--inject-12" cx="58.702" cy="33.897" rx="58.702" ry="33.897" transform="translate(0 1.359)" fill="#e0e0e0"/>
    </g>
    <g id="freepik--character-3--inject-12" transform="translate(485.241 2021.873)">
      <g id="freepik--Character--inject-12">
        <g id="freepik--Bottom--inject-12" transform="translate(4.555 118.016)">
          <path id="Trazado_118726" data-name="Trazado 118726" d="M616.628,2343.794a50.889,50.889,0,0,0-4.887-5.631,62.28,62.28,0,0,0-6.212-5.52c-7.041-5.46-17.089-10.749-29.266-10.151a80.457,80.457,0,0,0-8.314.812,52.6,52.6,0,0,0-13.774,3.828c-6.656,2.982-8.886,6.272-8.886,6.272l2.649-54.686,4.7-97.238,5.8,4.691,50.986,41.2.547.444c-1.837,17.611-4.443,36.571-4.751,38.767a.29.29,0,0,1,0,.077v.137a62.908,62.908,0,0,1,5.187,8.5c1.265,22.771,3.495,46.646,5.246,61.026C615.988,2339.232,616.355,2341.752,616.628,2343.794Z" transform="translate(-534.203 -2164.109)" fill="#36c"/>
          <path id="Trazado_118727" data-name="Trazado 118727" d="M616.628,2343.794a50.889,50.889,0,0,0-4.887-5.631,62.28,62.28,0,0,0-6.212-5.52c-7.041-5.46-17.089-10.749-29.266-10.151a80.457,80.457,0,0,0-8.314.812,52.6,52.6,0,0,0-13.774,3.828c-6.656,2.982-8.886,6.272-8.886,6.272l2.649-54.686,4.7-97.238,5.8,4.691,50.986,41.2.547.444c-1.837,17.611-4.443,36.571-4.751,38.767a.29.29,0,0,1,0,.077v.137a62.908,62.908,0,0,1,5.187,8.5c1.265,22.771,3.495,46.646,5.246,61.026C615.988,2339.232,616.355,2341.752,616.628,2343.794Z" transform="translate(-534.203 -2164.109)" opacity="0.45" style="isolation: isolate"/>
          <path id="Trazado_118728" data-name="Trazado 118728" d="M614.709,2181.034c2.111-2.119,6.067-1.871,8.9,1.2C621.81,2184.854,616.512,2186.238,614.709,2181.034Z" transform="translate(-544.306 -2163.842)" fill="#36c"/>
          <path id="Trazado_118729" data-name="Trazado 118729" d="M614.709,2181.034c2.111-2.119,6.067-1.871,8.9,1.2C621.81,2184.854,616.512,2186.238,614.709,2181.034Z" transform="translate(-544.306 -2163.842)" opacity="0.3" style="isolation: isolate"/>
          <path id="Trazado_118730" data-name="Trazado 118730" d="M614.339,2180.128c-.957-2.828,1.042-6.263,5.058-7.408C620.927,2175.5,619.8,2180.846,614.339,2180.128Z" transform="translate(-544.218 -2162.834)" fill="#36c"/>
          <path id="Trazado_118731" data-name="Trazado 118731" d="M614.339,2180.128c-.957-2.828,1.042-6.263,5.058-7.408C620.927,2175.5,619.8,2180.846,614.339,2180.128Z" transform="translate(-544.218 -2162.834)" opacity="0.2" style="isolation: isolate"/>
          <path id="Trazado_118732" data-name="Trazado 118732" d="M619.1,2327.942a8.755,8.755,0,0,1-3.085,5.417,8.544,8.544,0,0,1-3.888,1.846c-2.179.393-4.17-.257-4.811-2.068,0,0-.521-1.273-1.4-3.418-4.1-10.108-16.055-39.681-20.012-50.995a206.934,206.934,0,0,1-9.254-39.117l-5.076,28.2a51.683,51.683,0,0,1,1.265,17.842c-1.042,8.545-3.255,23.856-4.5,34.674-.265,2.3-.487,4.4-.641,6.195-.137,1.564-.342,3.307-.35,4.87,0,.461-1.162,1.965-5.469,2.683s-6.221-2.025-6.289-2.657c0-.333-.427-3.084-1.025-7.263-1.709-12.227-5.127-36.682-6.238-48.431-.171-1.811-.282-3.315-.325-4.426-.692-18.123,3.358-75.415,5.024-92.812a51.622,51.622,0,0,1,2.358-14.988l43.227-2.341s-1.034,1.76,1.3,5.734c2.239,3.8,4.888,7.126,5.306,10.04,1.393,9.647,7.169,18.8,4.759,45.671-.051.564-.1,1.153-.162,1.777-1.2,12.817-3.922,36.742-4.2,39.212a.232.232,0,0,0,0,.077v.137a62.886,62.886,0,0,1,5.187,8.5,44.023,44.023,0,0,1,4.717,14.056c1.222,9.681.8,29.052,3.23,39.758Z" transform="translate(-534.586 -2161.15)" fill="#b16668"/>
          <path id="Trazado_118733" data-name="Trazado 118733" d="M593.662,2297.955c-.7-12.817-1.786-34.64-1.786-47.209l-11.757-14.526,1.213,14.3h0a206.95,206.95,0,0,0,9.254,39.118C591.347,2291.812,592.415,2294.683,593.662,2297.955Z" transform="translate(-539.272 -2172.075)" fill="#9a4a4d"/>
          <path id="Trazado_118734" data-name="Trazado 118734" d="M628.5,2354.248c2.273-.384,1.957,7.511,3.3,12.3,1.435,5.127,4.016,8.613,5.246,12.817,1.41,4.8,1.572,7.793-.188,11.382-1.589,3.247-8.374,9.237-12.091,5.289s-5.127-8.963-5.563-13.928a78.086,78.086,0,0,0-1.991-12.373c-.957-4.084-3.119-11.236-1.444-11.783l.948,2.35c1.341,1.632,11.518-.521,12.159-4.272Z" transform="translate(-544.37 -2189.25)" fill="#37474f"/>
          <path id="Trazado_118735" data-name="Trazado 118735" d="M572.481,2360.85c.581,2.486-.128,9.279-.128,9.279s-1.1,2.333-4.947,3.854L565.8,2364.5Z" transform="translate(-537.188 -2190.213)" fill="#263238"/>
          <path id="Trazado_118736" data-name="Trazado 118736" d="M565.916,2374.412l-8.408-2.871-1.94-7.511,9.365,4.572Z" transform="translate(-535.699 -2190.676)"/>
          <path id="Trazado_118737" data-name="Trazado 118737" d="M552.176,2350.515l-.316-2.222c-1.145.547-1.094,9.707-7.22,16.167-4.512,4.768-9.656,7.562-11.689,10.057-2.717,3.332,3.649,8.946,12.031,7.254,4.161-.854,10.476-3.418,12.21-6.2s2.939-7.323,4.358-9.4,5.323-3.606,6.246-5.87c1.025-2.5.214-5.887-.47-8.22-.632-2.145-.308-4.426-1.282-4.477l-.2,1.709c-.573,1.136-3.9,2.64-8.117,2.811C555.722,2352.258,553.073,2352.361,552.176,2350.515Z" transform="translate(-532.315 -2188.286)" fill="#37474f"/>
          <path id="Trazado_118738" data-name="Trazado 118738" d="M578.717,2245.973l-2.392-28.2s-11.416-6.648-14.176-12.706c0,0,1.777,9.4,10.254,14.6l3.708,26.318-2.469,28.2Z" transform="translate(-536.657 -2167.542)" fill="#9a4a4d"/>
          <g id="freepik--Skirt--inject-12" transform="translate(4.745 15.808)">
            <path id="Trazado_118739" data-name="Trazado 118739" d="M611.224,2227.543c1.034-9.9,1.82-19.388,1.82-25.215,0-11.962-6.964-22.677-6.964-22.677a48.855,48.855,0,0,1-29.539,9.673c-7.989,0-13.355-1.649-16.85-3.418-4.358-2.213-5.8-4.691-5.8-4.691,3.9,18.8,17.807,41.014,30.342,58.018,16.551,13.441,22.216,27.343,22.216,27.343a62.9,62.9,0,0,1,5.187,8.5C610.608,2256.6,610.224,2238.907,611.224,2227.543Z" transform="translate(-540.2 -2179.65)" fill="#36c"/>
            <path id="Trazado_118740" data-name="Trazado 118740" d="M611.224,2227.543c1.034-9.9,1.82-19.388,1.82-25.215,0-11.962-6.964-22.677-6.964-22.677a48.855,48.855,0,0,1-29.539,9.673c-7.989,0-13.355-1.649-16.85-3.418-4.358-2.213-5.8-4.691-5.8-4.691,3.9,18.8,17.807,41.014,30.342,58.018,16.551,13.441,22.216,27.343,22.216,27.343a62.9,62.9,0,0,1,5.187,8.5C610.608,2256.6,610.224,2238.907,611.224,2227.543Z" transform="translate(-540.2 -2179.65)" opacity="0.3" style="isolation: isolate"/>
            <path id="Trazado_118741" data-name="Trazado 118741" d="M618.515,2207.557l-7.109-16.337-19.4,32.418,17.628,27.719,6.614-11.544c.085-3.922.248-7.494.521-10.587C617.617,2221.135,618.292,2213.325,618.515,2207.557Z" transform="translate(-545.748 -2181.334)" fill="#36c"/>
            <path id="Trazado_118742" data-name="Trazado 118742" d="M609.009,2269.238a55.174,55.174,0,0,1,5.46,9.4,62.88,62.88,0,0,1,5.187,8.5c-.214-3.888-.4-7.742-.555-11.518l-6.631-12.561S610.872,2265.957,609.009,2269.238Z" transform="translate(-548.222 -2191.789)" fill="#36c"/>
            <g id="Grupo_55031" data-name="Grupo 55031" transform="translate(46.261 9.886)" opacity="0.2">
              <path id="Trazado_118743" data-name="Trazado 118743" d="M618.515,2207.557l-7.109-16.337-19.4,32.418,17.628,27.719,6.614-11.544c.085-3.922.248-7.494.521-10.587C617.617,2221.135,618.292,2213.325,618.515,2207.557Z" transform="translate(-592.009 -2191.22)"/>
              <path id="Trazado_118744" data-name="Trazado 118744" d="M609.009,2269.238a55.174,55.174,0,0,1,5.46,9.4,62.88,62.88,0,0,1,5.187,8.5c-.214-3.888-.4-7.742-.555-11.518l-6.631-12.561S610.872,2265.957,609.009,2269.238Z" transform="translate(-594.483 -2201.675)"/>
            </g>
            <path id="Trazado_118745" data-name="Trazado 118745" d="M611.859,2183.42h0l-10.331,1.863a50.537,50.537,0,0,1-12.518,3.879l-7.8,40.767c2.333,3.418,4.691,6.742,7,9.877,1.35,1.094,2.623,2.2,3.828,3.29a263,263,0,0,1,1.623-29.821C595.65,2195.442,608.261,2188.5,611.859,2183.42Z" transform="translate(-544.176 -2180.198)" opacity="0.3" style="isolation: isolate"/>
            <path id="Trazado_118746" data-name="Trazado 118746" d="M605.551,2182.871c-7.861,8.545-14.312,8.545-19.713,26.326s3.6,148.8,3.6,148.8-36.477,1.248-51.567-15.021c0,0,.538-57.608,3.23-88.267s10.459-73.484,10.459-73.484,10.527,7.383,28.744,5.127,23.447-6.7,23.447-6.7Z" transform="translate(-537.869 -2179.65)" fill="#36c"/>
            <path id="Trazado_118747" data-name="Trazado 118747" d="M605.551,2182.871c-7.861,8.545-14.312,8.545-19.713,26.326s3.6,148.8,3.6,148.8-36.477,1.248-51.567-15.021c0,0,.538-57.608,3.23-88.267s10.459-73.484,10.459-73.484,10.527,7.383,28.744,5.127,23.447-6.7,23.447-6.7Z" transform="translate(-537.869 -2179.65)" opacity="0.2" style="isolation: isolate"/>
            <path id="Trazado_118748" data-name="Trazado 118748" d="M538,2360.85c10.39,9.758,33.734,17.7,50.892,14.953" transform="translate(-537.888 -2206.021)" fill="none" stroke="#455a64" stroke-linecap="round" stroke-miterlimit="10" stroke-width="1"/>
            <path id="Trazado_118749" data-name="Trazado 118749" d="M537.869,2369.946l5.3-4.956,3.29,11.467,7.391-5.409,1.777,9.305,7.212-6.195,4.059,8.989,6.99-6.724,4.281,8.194,5.178-7.724,6.092,8.075" transform="translate(-537.869 -2206.623)" fill="none" stroke="#455a64" stroke-linecap="round" stroke-linejoin="round" stroke-width="1"/>
            <path id="Trazado_118750" data-name="Trazado 118750" d="M585.534,2216.453l-4-7.69-18.8,27.984-12.424-31.726-2.264,3.2c-2.341,14.825-5.127,34.179-6.545,50.183-.3,3.461-.581,7.271-.854,11.3l21.866-28.881,15.765,37.9,6.673-11.963C584.329,2245.035,584.261,2225.6,585.534,2216.453Z" transform="translate(-538.273 -2183.342)" fill="#36c"/>
            <path id="Trazado_118751" data-name="Trazado 118751" d="M585.911,2312.167l-8.707-17.149-20.729,29.906-16.611-35.144c-1.042,20.02-1.564,43.27-1.794,57.1l17.944-19.807,17.012,34.085,14.372-20.807C586.9,2331.709,586.389,2322.113,585.911,2312.167Z" transform="translate(-537.898 -2195.677)" fill="#36c"/>
            <path id="Trazado_118752" data-name="Trazado 118752" d="M560.562,2184.733a29.79,29.79,0,0,1-7.109-3.273s-1.068,5.887-2.563,14.851l.9,3.6Z" transform="translate(-539.763 -2179.913)" fill="#36c"/>
            <path id="Trazado_118753" data-name="Trazado 118753" d="M586.822,2187.1c-1.436.179-2.82.291-4.153.35l4.665,16.7,12.159-19.371A95.579,95.579,0,0,1,586.822,2187.1Z" transform="translate(-544.389 -2180.396)" fill="#36c"/>
            <g id="Grupo_55032" data-name="Grupo 55032" transform="translate(0.171 1.547)" opacity="0.3">
              <path id="Trazado_118754" data-name="Trazado 118754" d="M585.534,2216.453l-4-7.69-18.8,27.984-12.424-31.726-2.264,3.2c-2.341,14.825-5.127,34.179-6.545,50.183-.3,3.461-.581,7.271-.854,11.3l21.866-28.881,15.765,37.9,6.673-11.963C584.329,2245.035,584.261,2225.6,585.534,2216.453Z" transform="translate(-538.444 -2184.889)"/>
              <path id="Trazado_118755" data-name="Trazado 118755" d="M585.911,2312.167l-8.707-17.149-20.729,29.906-16.611-35.144c-1.042,20.02-1.564,43.27-1.794,57.1l17.944-19.807,17.012,34.085,14.372-20.807C586.9,2331.709,586.389,2322.113,585.911,2312.167Z" transform="translate(-538.069 -2197.224)"/>
              <path id="Trazado_118756" data-name="Trazado 118756" d="M560.562,2184.733a29.79,29.79,0,0,1-7.109-3.273s-1.068,5.887-2.563,14.851l.9,3.6Z" transform="translate(-539.935 -2181.46)"/>
              <path id="Trazado_118757" data-name="Trazado 118757" d="M586.822,2187.1c-1.436.179-2.82.291-4.153.35l4.665,16.7,12.159-19.371A95.579,95.579,0,0,1,586.822,2187.1Z" transform="translate(-544.56 -2181.943)"/>
            </g>
          </g>
        </g>
        <g id="freepik--Top--inject-12">
          <path id="Trazado_118758" data-name="Trazado 118758" d="M567.926,2113.412c-9.6-.8-14.4.179-21.242,9.3-4.759,6.332-14.235,18.038-17,22.865-3.136,5.434-3.572,7.647-1.119,11.715,2.333,3.871,20.84,25.241,20.84,25.241s2.965-8.382,4.785-12.962l-9.707-16.739,17.944-18.491Z" transform="translate(-526.984 -2036.154)" fill="#b16668"/>
          <path id="Trazado_118759" data-name="Trazado 118759" d="M603.629,2115.507c-2.273-.76-10.519-1.452-10.519-1.452-3.136-.5-15.919-.854-15.919-.854l-5.8.179a64.267,64.267,0,0,0-11.74,9.3c-5.819,5.879-8.929,9.331-8.861,15.073.06,5.469,4.52,9.356,4.52,9.356a72.092,72.092,0,0,0,.453,9.707c8.63,6.349,35.307,7.8,43.467.094.273-8.545,4.11-15.449,6.494-23.4C608.166,2125.376,605.9,2116.268,603.629,2115.507Z" transform="translate(-530.448 -2036.156)" fill="#263238"/>
          <path id="Trazado_118760" data-name="Trazado 118760" d="M593.065,2152.29a12.074,12.074,0,0,1-11.963,5.443,12.74,12.74,0,0,1-10.254-7.613s-.385,8.878,10.074,9.732S593.065,2152.29,593.065,2152.29Z" transform="translate(-533.368 -2041.529)" opacity="0.2" style="isolation: isolate"/>
          <path id="Trazado_118761" data-name="Trazado 118761" d="M585.828,2052.469c-1.265-2.512.581-4.742,2.358-4.272a2.777,2.777,0,0,1,.914-3.495c1.709-1.2,3.862,0,3.862,0a3.419,3.419,0,0,1,2.418-2.888c2.2-.555,3.418,0,4.52,1.333,0,0,3.418-1.2,8.827,2.119,3.11,1.931,4.358,3.521,4.093,5.836-.188,1.589-2.153,1.812-2.153,1.812s2.606,1.171,1.982,3.717a2.007,2.007,0,0,1-2.786,1.658,2.676,2.676,0,0,1,.667,3.333,2.956,2.956,0,0,1-2.862,1.342c.419,0,.854,4.11-3.11,3.29C601.089,2066.456,585.828,2052.469,585.828,2052.469Z" transform="translate(-535.487 -2025.735)" fill="#37474f"/>
          <path id="Trazado_118762" data-name="Trazado 118762" d="M608.239,2068.821a1.641,1.641,0,0,0-.308-1.965,3.069,3.069,0,0,0-1.2-4.168l-.019-.01s-.854-3.922-4.05-3.144l2.23,6.665Z" transform="translate(-537.997 -2028.331)" fill="#263238"/>
          <path id="Trazado_118763" data-name="Trazado 118763" d="M602.369,2042.827a12.767,12.767,0,0,1,6.468-3c3.854-.538,4.623.718,4.084,1.512s-3.589.795-5.913,3.418S602.369,2042.827,602.369,2042.827Z" transform="translate(-537.955 -2025.459)" fill="#37474f"/>
          <path id="Trazado_118764" data-name="Trazado 118764" d="M601.768,2042.949a7.684,7.684,0,0,1,.854-5.127c1.461-2.563,3.1-1.307,2.768.436a13.269,13.269,0,0,0,.043,4Z" transform="translate(-537.849 -2024.974)" fill="#37474f"/>
          <path id="Trazado_118765" data-name="Trazado 118765" d="M613.349,2053.789s-4.682-5.127-9.51-5.879a12.106,12.106,0,0,1,6.528,2.17C613.025,2052.2,613.349,2053.789,613.349,2053.789Z" transform="translate(-538.169 -2026.654)" fill="#263238"/>
          <path id="Trazado_118766" data-name="Trazado 118766" d="M588.659,2049.28c1.119,3.418,7.391,7.81,11.715,8.22C600.374,2057.5,592.641,2054.176,588.659,2049.28Z" transform="translate(-535.96 -2026.853)" fill="#263238"/>
          <path id="Trazado_118767" data-name="Trazado 118767" d="M594.651,2043.69a4.009,4.009,0,0,0-.4,1.282c.743,2.29,4.606,5.8,7.186,6.9C601.435,2051.867,595.838,2047.663,594.651,2043.69Z" transform="translate(-536.773 -2026.04)" fill="#263238"/>
          <path id="Trazado_118768" data-name="Trazado 118768" d="M594.336,2081.943s5.332,1,7.058-.265c2.828-2.085,2.726-3.837,2.657-4.725a2.5,2.5,0,0,0-1.008-1.957,3,3,0,0,0,1.136-2.965c-.385-1.906-1.709-1.863-1.709-1.863s1.367-2.461-.854-3.418a3.343,3.343,0,0,0,.043-3.17,3.42,3.42,0,0,0-2.281-1.5,3.156,3.156,0,0,0-.8-2.717,2.633,2.633,0,0,0-3.418-.316,2.462,2.462,0,0,0-.983-2.914,3.077,3.077,0,0,0-3.307-.291,3.231,3.231,0,0,0-2.563-2.333,2.777,2.777,0,0,0-2.965,1.82,3.778,3.778,0,0,0-3.743-1.794,3.692,3.692,0,0,0-3.059,2.051,4.2,4.2,0,0,0-3.7-.59,3.272,3.272,0,0,0-2.393,2.512,3,3,0,0,0-3.059.5,5.944,5.944,0,0,1-2.982,4.332,3,3,0,0,0,.171,2.734s-2.316,2.273-.521,4.7c1.239,1.709,5.229,10.365,13.432,13.672A16.481,16.481,0,0,0,594.336,2081.943Z" transform="translate(-532.571 -2027.465)" fill="#37474f"/>
          <path id="Trazado_118769" data-name="Trazado 118769" d="M566.313,2064.619c-2.358-.154-3.717,3.324-4.272,7.323s-3.418,6.742-2.119,7.81,3.033-.854,4.17-2.9,2.008-7.69,3.341-8.545S566.313,2064.619,566.313,2064.619Z" transform="translate(-531.729 -2029.085)" fill="#37474f"/>
          <path id="Trazado_118770" data-name="Trazado 118770" d="M568.2,2067.428s-3.23,3.281-2.828,16.8c.342,11.3,2.375,13.919,5.494,15.192,1.854.76,4.828.624,8.305.222l.137,6.836s-9.826,7.314-1.965,8.724a17.365,17.365,0,0,0,12.3-3.093,20.019,20.019,0,0,0,5.058-4.879l.419-15.15s1.923,2.077,5.52-.752c2.965-2.341,4.136-6.469,2.042-8.827a5.126,5.126,0,0,0-8.126,1.119s-4.828.376-3.837-3.572l-.051-.325v-.214c-1.8-.615-2.017-3.862-.564-3.862a2.661,2.661,0,0,0-.094-.581c-1.957-.342-2.563-4.153-.854-3.956a9.4,9.4,0,0,0-3.213-4.341l-.59.265c-.444,2.128-3.606,2.375-4.272,1.5-.41.111-.214.06-.632.154-.667,1.991-3.99,2.033-4.93.854A9.747,9.747,0,0,1,568.2,2067.428Z" transform="translate(-532.566 -2029.399)" fill="#b16668"/>
          <path id="Trazado_118771" data-name="Trazado 118771" d="M582.289,2093.57l-3.7,1.094a1.888,1.888,0,0,0,2.281,1.388l.077-.021A2.016,2.016,0,0,0,582.289,2093.57Z" transform="translate(-534.494 -2033.299)" fill="#9a4a4d"/>
          <path id="Trazado_118772" data-name="Trazado 118772" d="M568.839,2076.44l3.341,1.026a1.71,1.71,0,0,0-1.069-2.168l-.033-.011A1.82,1.82,0,0,0,568.839,2076.44Z" transform="translate(-533.075 -2030.627)" fill="#263238"/>
          <path id="Trazado_118773" data-name="Trazado 118773" d="M582.453,2077.7l3.418-.854a1.709,1.709,0,0,0-2.029-1.314l-.031.007A1.846,1.846,0,0,0,582.453,2077.7Z" transform="translate(-535.051 -2030.669)" fill="#263238"/>
          <path id="Trazado_118774" data-name="Trazado 118774" d="M576.676,2079.56l-.735,10.407-5.093-1.3Z" transform="translate(-533.368 -2031.26)" fill="#9a4a4d"/>
          <path id="Trazado_118775" data-name="Trazado 118775" d="M581.529,2104.06c3.649-.282,11.219-4.042,12.535-6.93a7.519,7.519,0,0,1-3.58,5.366,43.366,43.366,0,0,1-8.912,3.794Z" transform="translate(-534.922 -2033.817)" fill="#9a4a4d"/>
          <path id="Trazado_118776" data-name="Trazado 118776" d="M571.5,2081.462a1.607,1.607,0,0,1-1.393,1.709,1.494,1.494,0,0,1-1.7-1.257c0-.022-.007-.044-.009-.068a1.606,1.606,0,0,1,1.384-1.709,1.512,1.512,0,0,1,1.711,1.283Z" transform="translate(-533.011 -2031.342)" fill="#263238"/>
          <path id="Trazado_118777" data-name="Trazado 118777" d="M585.68,2081.462a1.607,1.607,0,0,1-1.393,1.709,1.5,1.5,0,0,1-1.7-1.274l-.006-.051a1.606,1.606,0,0,1,1.384-1.709,1.513,1.513,0,0,1,1.712,1.283Z" transform="translate(-535.074 -2031.342)" fill="#263238"/>
          <path id="Trazado_118778" data-name="Trazado 118778" d="M588.428,2065.646c-.658-3.324-1.871-6.289-7.639-9.656,0,0,6.759,3.486,6.9,10.365Z" transform="translate(-534.814 -2027.83)" fill="#b16668"/>
          <path id="Trazado_118779" data-name="Trazado 118779" d="M573.659,2058.24c2.657.854,8.006,4.742,8.844,9.647l-.854.333C581.785,2066.682,580.264,2061.667,573.659,2058.24Z" transform="translate(-533.777 -2028.157)" fill="#b16668"/>
          <path id="Trazado_118780" data-name="Trazado 118780" d="M568.769,2061.99c1.222.427,6.272,2.495,7.331,7.109l-.778.094S574.8,2065.117,568.769,2061.99Z" transform="translate(-533.065 -2028.703)" fill="#b16668"/>
          <path id="Trazado_118781" data-name="Trazado 118781" d="M592.259,2070.829s6.955,1.358,12.27-1.3c0,0-3.247,2.666-12.159,1.94Z" transform="translate(-536.484 -2029.8)" fill="#b16668"/>
          <path id="Trazado_118782" data-name="Trazado 118782" d="M592.989,2075.993a21.7,21.7,0,0,0,12.313-2.153s-3.033,2.9-11.963,2.837Z" transform="translate(-536.59 -2030.428)" fill="#b16668"/>
          <path id="Trazado_118783" data-name="Trazado 118783" d="M593.339,2081.22s6.947.854,12.356-2.23c0,0-3.042,2.9-11.963,2.837Z" transform="translate(-536.641 -2031.177)" fill="#b16668"/>
          <path id="Trazado_118784" data-name="Trazado 118784" d="M602.493,2096.832c.222,3.127.316,13.091-1.136,20.183-1.376,6.682-5.8,18.328-6.409,21.362s-3.247,2.777-2.914-.854,2.845-11.3,4.631-16.807a40.924,40.924,0,0,0,1.957-9.135l.419-15.15A3.92,3.92,0,0,0,602.493,2096.832Z" transform="translate(-536.447 -2033.715)" fill="#37474f"/>
          <path id="Trazado_118785" data-name="Trazado 118785" d="M594.009,2135.285a2.557,2.557,0,0,1,3.469,1.017l.914-2.786s-.5-2.2-3.418-1.35Z" transform="translate(-536.738 -2038.887)" fill="#36c"/>
          <path id="Trazado_118786" data-name="Trazado 118786" d="M648.384,2048.861c0-1.812-.41-2.888.393-4.17a15.374,15.374,0,0,0,1.957-4.981c.624-2.563,1.042-4.717,1.042-4.717s.444-2.418-.487-3.418a1.616,1.616,0,0,0-2.162-.367,2.154,2.154,0,0,0-.521-2.64,2.12,2.12,0,0,0-2.692.188s.854-2.2-.948-3.144a2.017,2.017,0,0,0-2.777.581,2.419,2.419,0,0,0-1.581-3c-1.2-.5-2.563,0-4.17,3.879a5.394,5.394,0,0,0-2.751,1.5,35.927,35.927,0,0,0-2.2,7.485c-.265,1.367.667,3.794,2.3,5.648,1.487,1.709,2.427,3.657,2.828,8.305Z" transform="translate(-542.187 -2023.034)" fill="#b16668"/>
          <path id="Trazado_118787" data-name="Trazado 118787" d="M636.459,2033.639a17.422,17.422,0,0,1,4.477,3.161,19.072,19.072,0,0,1,3.845,5.776,11.97,11.97,0,0,0-2.5-5.605,1.7,1.7,0,0,0,.9-.291c-.068,1.248.068,2.444,1.641,2.563a2,2,0,0,0,1.88-.735,1.707,1.707,0,0,0,.854,1.709,1.589,1.589,0,0,0,2.068-.325,2.517,2.517,0,0,0,.248-.4.147.147,0,0,0,0-.077h-.043l-.188.154a1.836,1.836,0,0,1-1.606.453,1.5,1.5,0,0,1-.666-1.094,6.341,6.341,0,0,1,.154-2.042v-.077c0-.017-.137,0-.188,0-.291.282-.5.641-.76.948a1.659,1.659,0,0,1-1.435.59c-1.119-.077-1.316-1.47-1.23-2.367,0-.3.068-.6.085-.854,0-.042,0-.094-.051-.094h0a1.436,1.436,0,0,0-.393.427,2.866,2.866,0,0,1-.444.461,1.441,1.441,0,0,1-.726.35c-.6.06-.854-.5-.991-.965a4.651,4.651,0,0,1-.214-2.418v-.077h.214c2.153.41,3.025-1.666,2.367-2.256s-2.974-3.307-3.52-3.264a21.192,21.192,0,0,0-3.008.393l3.068-.154s3.324,3.324,3.136,3.777a1.64,1.64,0,0,1-1.709,1.06,13.983,13.983,0,0,1-3.136-.795C638.364,2032.425,636.459,2033.639,636.459,2033.639Zm1.367-.7a1.763,1.763,0,0,0,.786-.726s.5.154,2.153.487a8.988,8.988,0,0,0-.479,1.051,1.839,1.839,0,0,1-.359.521.545.545,0,0,1-.145.1,15.633,15.633,0,0,0-2-1.435Z" transform="translate(-542.916 -2023.653)" fill="#9a4a4d"/>
          <path id="Trazado_118788" data-name="Trazado 118788" d="M608.849,2105.9c.778-.786,4.161-1.709,7.135-4.272,7.323-6.152,17.038-15.38,17.038-15.38s-.239-12.894-.2-19.772c.043-8.758-.333-15.491-.333-15.491l12.091.077s3.11,23.677,3.9,33.179c.521,6.366.854,7.69-2.914,12.339s-32.829,30.949-32.829,30.949S600.322,2121.49,608.849,2105.9Z" transform="translate(-538.463 -2027.101)" fill="#b16668"/>
        </g>
      </g>
    </g>
    <g id="freepik--character-1--inject-12" transform="translate(262.526 2015.06)">
      <g id="freepik--character--inject-12-2" data-name="freepik--character--inject-12">
        <g id="freepik--Botom--inject-12" transform="translate(32.92 151.061)">
          <path id="Trazado_118789" data-name="Trazado 118789" d="M378.447,2346.514c.282-4.187,2.794-46.474,2.794-46.474L360,2315.258c3.418,24.2,4.794,30.684,4.922,34.717h0a3.4,3.4,0,0,0-.1,1.034c.085,4.793,5.8,7.331,10.254,10.484a84.36,84.36,0,0,0,12.091,7.357c3.247,1.512,9.8,1.6,10.578-.385-5.443-3.871-11.749-8.109-16.107-12.544C379.592,2353.76,378.105,2351.547,378.447,2346.514Z" transform="translate(-312.887 -2207.595)" fill="#9e6767"/>
          <path id="Trazado_118790" data-name="Trazado 118790" d="M407.455,2384.246c.273,0,.726,2.9-.76,4.144-1.709,1.436-6.784,3.811-13.526,3.042s-10.416-2.726-13.142-4.845-6.537-5.127-9.587-5.733c-2.837-.573-5.921-1.76-6.836-2.563s-.854-4.52-.854-4.52Z" transform="translate(-313.287 -2218.325)" fill="#263238"/>
          <path id="Trazado_118791" data-name="Trazado 118791" d="M365.259,2357.07a1.067,1.067,0,0,0-1.008.854c-.188,1.017-.376,3.982-.8,5.656a28.457,28.457,0,0,0-.547,8.989c.393,1.9,5.024,3.17,7.989,4.212a37.99,37.99,0,0,1,9.621,5.657,28.784,28.784,0,0,0,14.27,4.913c6.7.043,11.023-1.709,12.33-4.024,1.623-2.845.3-4.478-7.442-7.8-1.461-.632-6.622-3.469-8.382-4.5-4.751-2.786-9.476-6.682-11.715-11.664a2.876,2.876,0,0,0-1.128-1.521,2.606,2.606,0,0,0-1.5-.111,13.158,13.158,0,0,0-3.691,1.094c-1.025.47-2.487,1.034-2.452,2.29a4.116,4.116,0,0,0,.308,1.273c.094.256.171.6-.06.752s-.521,0-.726-.188a18.855,18.855,0,0,1-2.1-2.35,7.406,7.406,0,0,0-1.239-1.17,13.5,13.5,0,0,1-1.324-.795C365.191,2358.206,365.293,2357.66,365.259,2357.07Z" transform="translate(-313.285 -2215.895)" fill="#37474f"/>
          <path id="Trazado_118792" data-name="Trazado 118792" d="M405.238,2379.33c-9.69.709-12.672,6.434-13.039,9.955a23.741,23.741,0,0,0,6.9,1.324c6.7.043,11.3-1.709,12.6-4.025C413.2,2383.9,412.117,2381.757,405.238,2379.33Z" transform="translate(-317.573 -2219.135)" fill="#fafafa"/>
          <path id="Trazado_118793" data-name="Trazado 118793" d="M390.378,2378.881a.509.509,0,0,1-.308-.1.444.444,0,0,1-.075-.624l.007-.009a11.653,11.653,0,0,1,8.724-3.358.453.453,0,1,1-.085.9,10.81,10.81,0,0,0-7.9,3.025A.478.478,0,0,1,390.378,2378.881Z" transform="translate(-317.238 -2218.472)" fill="#f0f0f0"/>
          <path id="Trazado_118794" data-name="Trazado 118794" d="M385.378,2376.211a.5.5,0,0,1-.3-.1.435.435,0,0,1-.1-.609l.019-.024a11.665,11.665,0,0,1,8.733-3.358.453.453,0,0,1-.014.906.42.42,0,0,1-.08-.009,10.784,10.784,0,0,0-7.9,3.025A.488.488,0,0,1,385.378,2376.211Z" transform="translate(-316.511 -2218.083)" fill="#f0f0f0"/>
          <path id="Trazado_118795" data-name="Trazado 118795" d="M380.827,2373.151a.562.562,0,0,1-.3-.094.444.444,0,0,1-.092-.621l.015-.02a11.724,11.724,0,0,1,8.733-3.358.453.453,0,0,1-.014.906.42.42,0,0,1-.08-.009,10.836,10.836,0,0,0-7.9,3.025A.467.467,0,0,1,380.827,2373.151Z" transform="translate(-315.848 -2217.638)" fill="#f0f0f0"/>
          <path id="Trazado_118796" data-name="Trazado 118796" d="M376.377,2370.077a.432.432,0,0,1-.3-.094.443.443,0,0,1-.094-.621l.009-.011c1.829-2.239,5.981-3.742,9.536-3.418a.453.453,0,1,1-.085.854c-3.179-.3-7.075,1.077-8.7,3.068A.487.487,0,0,1,376.377,2370.077Z" transform="translate(-315.201 -2217.178)" fill="#f0f0f0"/>
          <path id="Trazado_118797" data-name="Trazado 118797" d="M333.672,2315.988l-22.464-1.657c-.649,13.261.649,28.095.12,40.536-.1,2.341-1.41,18.166-.769,23.071.966,7.314,10.766,6.9,11.6,2.606s1.658-22.678,1.837-24.583c.5-7.972,5.127-21.362,8.417-35.52C332.57,2319.713,333.519,2316.663,333.672,2315.988Z" transform="translate(-305.666 -2209.675)" fill="#9e6767"/>
          <path id="Trazado_118798" data-name="Trazado 118798" d="M324.8,2394.908c-.111,4.272-.743,7.1-2.358,9.647s-4.8,3.418-8.1,2.8-7.562-2.452-8.647-6.092-.991-6.161-.4-10.125Z" transform="translate(-304.863 -2220.853)" fill="#263238"/>
          <path id="Trazado_118799" data-name="Trazado 118799" d="M310.635,2359.99c-1.35.136-1.512,5.853-2.068,11.6-.59,6.152-2.563,8.75-3.1,13.8-.624,5.759-.179,8.314,2.239,11.715s10.621,6.554,14.4,1.461c3.085-4.153,3.042-8.647,2.563-14.372a127.471,127.471,0,0,1-.854-14.577c.094-4.272.854-8.305-.333-8.75-.06.632-.12,1.435-.188,2.059-.051.479-.094,2.811-.854,2.854a8.431,8.431,0,0,1-.077-1.615,1.714,1.714,0,0,0-.427-1.376,5.2,5.2,0,0,0-2.111-.709c-1.333-.2-2.674-.359-4.025-.427a19.841,19.841,0,0,0-2.017,0,5.714,5.714,0,0,0-1.709.265,1.152,1.152,0,0,0-.709.607,1.7,1.7,0,0,0,0,.658,4.246,4.246,0,0,1-.12,1.179c0,.171-.171.384-.359.35a.34.34,0,0,1-.239-.342c0-.692.051-1.2.051-2.008a10.264,10.264,0,0,0,0-1.256A6.22,6.22,0,0,1,310.635,2359.99Z" transform="translate(-304.913 -2216.32)" fill="#37474f"/>
          <path id="Trazado_118800" data-name="Trazado 118800" d="M305.227,2393.277c-.094,3.572.231,5.981,2.128,8.664,2.418,3.418,11.27,6.545,15.047,1.452,1.88-2.563,2.3-5.469,2.452-8.459C322.316,2391.175,308.841,2389.9,305.227,2393.277Z" transform="translate(-304.914 -2220.879)" fill="#fafafa"/>
          <path id="Trazado_118801" data-name="Trazado 118801" d="M321.749,2388.017h-.171a22.029,22.029,0,0,0-11.655-.7.5.5,0,0,1-.607-.316.435.435,0,0,1,.314-.531l.037-.008a22.841,22.841,0,0,1,12.313.743.418.418,0,0,1,.279.522.456.456,0,0,1-.022.059A.521.521,0,0,1,321.749,2388.017Z" transform="translate(-305.509 -2220.097)" fill="#f0f0f0"/>
          <path id="Trazado_118802" data-name="Trazado 118802" d="M310.139,2382.215a.485.485,0,0,1-.436-.282.427.427,0,0,1,.238-.555.545.545,0,0,1,.053-.017c5.981-1.982,12.031.538,12.287.649a.419.419,0,0,1,.259.532.3.3,0,0,1-.02.049.538.538,0,0,1-.667.205c-.06,0-5.981-2.461-11.51-.607A.421.421,0,0,1,310.139,2382.215Z" transform="translate(-305.563 -2219.32)" fill="#f0f0f0"/>
          <path id="Trazado_118803" data-name="Trazado 118803" d="M310.381,2377.463a.494.494,0,0,1-.427-.273.427.427,0,0,1,.235-.556.388.388,0,0,1,.047-.016,17.3,17.3,0,0,1,12.535.6.411.411,0,0,1,.22.537.406.406,0,0,1-.032.062.53.53,0,0,1-.675.171,16.55,16.55,0,0,0-11.681-.556A.65.65,0,0,1,310.381,2377.463Z" transform="translate(-305.599 -2218.609)" fill="#f0f0f0"/>
          <path id="Trazado_118804" data-name="Trazado 118804" d="M310.62,2372.149a.5.5,0,0,1-.427-.265.426.426,0,0,1,.22-.562.553.553,0,0,1,.053-.019c6.135-2.247,12.364.6,12.629.726a.411.411,0,0,1,.233.531.509.509,0,0,1-.028.058.538.538,0,0,1-.675.188c-.06,0-6.075-2.777-11.775-.692A.428.428,0,0,1,310.62,2372.149Z" transform="translate(-305.633 -2217.841)" fill="#ebebeb"/>
          <path id="Trazado_118805" data-name="Trazado 118805" d="M318,2191.85c-.658,24.13-2.726,78.055-2.726,78.055-.385,2.956-4.153,9.835-4.375,20.55-.35,16.816,0,32.47,0,32.47s9.4,3.777,16.295,1.247c0,0,10.108-34.546,12.689-45.688,3.085-13.27,6.357-36.682,6.357-36.682l5.127,31.085a102.721,102.721,0,0,0-.077,20.678c.786,7.092,4.631,27.394,4.631,27.394s8.639,1.794,16.149-.376c0,0,3.606-41.5,4.016-48.021.47-7.434-1.811-79-1.811-79Z" transform="translate(-305.719 -2191.85)" fill="#455a64"/>
          <path id="Trazado_118806" data-name="Trazado 118806" d="M352.289,2245.594l3.495-22.37s8.2-.273,13.851-5.494c0,0-.735,5.247-11.006,8.348l-4,18.858,2.666,31.085Z" transform="translate(-311.765 -2195.616)" fill="#36c" opacity="0.25" style="isolation: isolate"/>
          <path id="Trazado_118807" data-name="Trazado 118807" d="M352.289,2245.594l3.495-22.37s8.2-.273,13.851-5.494c0,0-.735,5.247-11.006,8.348l-4,18.858,2.666,31.085Z" transform="translate(-311.765 -2195.616)" fill="#37474f"/>
        </g>
        <g id="freepik--top--inject-12-2" data-name="freepik--top--inject-12">
          <path id="Trazado_118808" data-name="Trazado 118808" d="M395.711,2188.015l-12.381,10.561-4.571-12.219,10.057-11.057Z" transform="translate(-282.697 -2038.381)" fill="#9e6767"/>
          <path id="Trazado_118809" data-name="Trazado 118809" d="M374.459,2108.96c8.673.854,11.578,1.453,18.995,11.74,5.127,7.144,16.423,20.849,19.4,26.275,3.358,6.118,4.708,8.2.974,13.056-3.059,3.99-20.746,20.507-20.746,20.507-3.555-2.905-6.836-5.827-8.784-10.963l11.911-14.885-19.55-20.951Z" transform="translate(-282.071 -2028.726)" fill="#455a64"/>
          <path id="Trazado_118810" data-name="Trazado 118810" d="M319.027,2111.532a25.2,25.2,0,0,0-6.357,9.4c-.854,2.2-2.845,4.469-.624,17.089,2.119,12.073,3.879,18.474,4.512,27.9l.5,22.532c7.434,8.331,41.561,12.151,58.223.333,0,0,.914-45.287-.607-59.744-1.034-9.8-5.981-17.457-9.442-20.4-4.614-.692-9.1-1.179-9.1-1.179l-16.944-.607Z" transform="translate(-272.84 -2028.419)" fill="#36c"/>
          <path id="Trazado_118811" data-name="Trazado 118811" d="M271.727,2042.42c0-1.923.436-3.059-.419-4.426a16.412,16.412,0,0,1-2.059-5.281c-.675-2.726-1.119-5.016-1.119-5.016s-.47-2.563.521-3.614a1.709,1.709,0,0,1,2.307-.393,2.162,2.162,0,0,1,3.418-2.563s-.931-2.324,1.008-3.333a2.145,2.145,0,0,1,2.939.624,2.563,2.563,0,0,1,1.709-3.187c1.273-.53,2.743,0,4.426,4.11a5.686,5.686,0,0,1,2.914,1.589,38.372,38.372,0,0,1,2.333,7.938c.214,1.393-.8,3.956-2.512,5.956-1.572,1.794-2.563,3.879-3,8.81Z" transform="translate(-266.581 -2015.06)" fill="#9e6767"/>
          <path id="Trazado_118812" data-name="Trazado 118812" d="M283.482,2024.079a14.316,14.316,0,0,1-3.324.854,1.708,1.708,0,0,1-1.871-1.119c-.2-.487,3.324-4.016,3.324-4.016l3.256.162a22.013,22.013,0,0,0-3.162-.41c-.581-.043-3.025,2.837-3.725,3.418s.222,2.828,2.5,2.392l.231-.051v.085a4.862,4.862,0,0,1-.231,2.563c-.188.5-.419,1.085-1.051,1.025a1.481,1.481,0,0,1-.769-.376,2.54,2.54,0,0,1-.47-.487,1.467,1.467,0,0,0-.41-.444h0c-.043,0-.06.06-.06.1,0,.316.068.632.094.948.094.957-.111,2.427-1.3,2.512a1.758,1.758,0,0,1-1.521-.624,10.362,10.362,0,0,0-.854-1.017c-.06-.051-.162-.094-.2,0a.1.1,0,0,0,0,.085,6.694,6.694,0,0,1,.154,2.17,1.555,1.555,0,0,1-.7,1.154,1.931,1.931,0,0,1-1.709-.479l-.239-.171h-.043a.131.131,0,0,0,0,.077,2.655,2.655,0,0,0,.265.427,1.708,1.708,0,0,0,2.2.342,1.847,1.847,0,0,0,1-1.794,2.11,2.11,0,0,0,1.991.786c1.666-.111,1.811-1.376,1.709-2.7a1.869,1.869,0,0,0,.957.308,12.567,12.567,0,0,0-2.649,5.981,20.092,20.092,0,0,1,4.076-6.127,18.486,18.486,0,0,1,4.751-3.349S283.618,2024.984,283.482,2024.079Zm-1.316,2.965a.88.88,0,0,1-.162-.111,1.9,1.9,0,0,1-.376-.555,10.21,10.21,0,0,0-.513-1.111c1.709-.35,2.281-.521,2.281-.521a1.844,1.844,0,0,0,.854.769,16.377,16.377,0,0,0-2.085,1.538Z" transform="translate(-267.073 -2015.714)" fill="#874c4c"/>
          <path id="Trazado_118813" data-name="Trazado 118813" d="M311.3,2103.913c-.854-.854-6.118-2.871-9.271-5.511-7.767-6.52-17.4-16.842-17.4-16.842s-.419-13.167-.453-20.507c0-9.288.35-16.423.35-16.423l-12.817.085s-3.307,25.1-4.127,35.178c-.555,6.759-.931,8.169,3.085,13.091S306,2128.257,306,2128.257,317.559,2120.618,311.3,2103.913Z" transform="translate(-266.468 -2019.364)" fill="#9e6767"/>
          <path id="Trazado_118814" data-name="Trazado 118814" d="M312.522,2104.5c-3.623-2.76-3.623-2.5-9.852-6.3s-17.089-14.406-17.089-14.406l-1.538-23.481s-7.69,2.4-13.971-1.76c0,0-1.632,9.313-2.965,20.875s-1.239,11.2,2.709,16.235,33.273,32.564,36.135,35.768c2.606,2.931,5.264.068,6.9-7.357C314.539,2116.407,314.539,2110.973,312.522,2104.5Z" transform="translate(-266.336 -2021.391)" fill="#455a64"/>
          <g id="freepik--Head--inject-12" transform="translate(42.945 19.51)">
            <path id="Trazado_118815" data-name="Trazado 118815" d="M371.592,2060.4a5.641,5.641,0,0,0-3.273-4.46,3.332,3.332,0,0,0,.692-4.016,3.692,3.692,0,0,0-3.888-1.709,3.879,3.879,0,0,0,.548-5.458q-.046-.058-.095-.113a4.376,4.376,0,0,0-5.87-.171,4.777,4.777,0,0,0-3.281-4.648,5.177,5.177,0,0,0-5.605,1.709c.145-.188-.923-1.367-1.068-1.521a6.956,6.956,0,0,0-1.572-1.248,6.646,6.646,0,0,0-3.717-.854,6.365,6.365,0,0,0-5.921,4.076,7.591,7.591,0,0,0-4.324-1.154,7.25,7.25,0,0,0-5.366,2.435,6.356,6.356,0,0,0-1.213,5.272c-3.281-.359-5.981.231-7.622,3.367a6.237,6.237,0,0,0,.555,6.579c-2.931.248-4.11,3.751-3.965,5.263a4.792,4.792,0,0,0,3.606,4.272c-1.538.649-2.452,2.811-2.059,4.691a5.279,5.279,0,0,0,3.922,3.973,4.527,4.527,0,0,0-.128,5.366,5.126,5.126,0,0,0,5.563,1.546c0,2.342,1.709,4.033,4.272,4.486,1.709.316,4.529-1.3,5.3-3.042.581-1.307,2.837-1.342,4.418-1.171,1.1.094,1.786.487,2.563.461A36.463,36.463,0,0,0,362,2078.982a28.617,28.617,0,0,0,6.169-5.716c3.811-1.88,3.2-6.537,1.042-7.929A5.53,5.53,0,0,0,371.592,2060.4Z" transform="translate(-316.595 -2037.893)" fill="#263238"/>
            <path id="Trazado_118816" data-name="Trazado 118816" d="M331.094,2085.562a3.717,3.717,0,0,0,5.033-.854l.641,17.047a13.078,13.078,0,0,0,5.981,5.733c4.093,1.769,8.784,3.358,12.9,7.878,3.256-5.024,5.024-10.578.068-14.765l-.179-5.05a30.8,30.8,0,0,0,5.785-.068c3.657-.6,5.981-3.52,7.015-7.494,1.709-6.383.854-15.38-1.666-27.762-4.127-3.153-17.226-4.093-25.8,1.419.487,7.289-1.512,10.51-1.512,13.159a6.9,6.9,0,0,1-1.564,2.059c-1.333,1.171-2.444-1.828-3.58-3s-4.828-2.734-6.622,1.145S328.522,2083.947,331.094,2085.562Z" transform="translate(-318.111 -2040.774)" fill="#9e6767"/>
            <path id="Trazado_118817" data-name="Trazado 118817" d="M356.387,2121.679c-2.136-1.29-6.836-6.571-9.16-4.084s-3.563,3.17-5.127,2.726-4.956-3.785-7.195-6.221a14.126,14.126,0,0,1-2.956-5.981,39.667,39.667,0,0,0,3.093-4.375c1.042-1.88.854-2.4,2.162-2.5l.145,3.529s.854,1.914,4.7,4.494S353.6,2115.7,356.387,2121.679Z" transform="translate(-318.83 -2047.113)" fill="#455a64"/>
            <path id="Trazado_118818" data-name="Trazado 118818" d="M360.54,2122.078c1.256-1.162,3.273-6.554,3.819-6.4.812.231,2.29,3.931,2.982,3.059,1.1-1.376.718-7.613-1.136-9.869s-4.332-4.657-5.716-4.887l.12,3.332a13.433,13.433,0,0,1,1.4,5.358C362.01,2114.558,360.788,2120.266,360.54,2122.078Z" transform="translate(-322.983 -2047.511)" fill="#455a64"/>
            <path id="Trazado_118819" data-name="Trazado 118819" d="M356.84,2074.789a1.641,1.641,0,1,1-1.658-1.709A1.71,1.71,0,0,1,356.84,2074.789Z" transform="translate(-321.975 -2043.014)" fill="#263238"/>
            <path id="Trazado_118820" data-name="Trazado 118820" d="M356.461,2068.887l-3.862,1.034a2.093,2.093,0,0,1,1.461-2.512,1.949,1.949,0,0,1,2.38,1.388C356.447,2068.827,356.454,2068.857,356.461,2068.887Z" transform="translate(-321.826 -2042.18)" fill="#263238"/>
            <path id="Trazado_118821" data-name="Trazado 118821" d="M372.25,2068.933l-3.931-.914a1.93,1.93,0,0,1,2.24-1.56c.037.006.073.013.109.022A2.12,2.12,0,0,1,372.25,2068.933Z" transform="translate(-324.123 -2042.047)" fill="#263238"/>
            <path id="Trazado_118822" data-name="Trazado 118822" d="M371.33,2074.559a1.641,1.641,0,1,1-1.658-1.709A1.71,1.71,0,0,1,371.33,2074.559Z" transform="translate(-324.084 -2042.981)" fill="#263238"/>
            <path id="Trazado_118823" data-name="Trazado 118823" d="M361.779,2070.93l1.265,11.775,6.306-1.948Z" transform="translate(-323.171 -2042.701)" fill="#874c4c"/>
            <path id="Trazado_118824" data-name="Trazado 118824" d="M340.737,2075.926c.812,7.793,3.614,9.031,6.349,9.732,4.349,1.119,7.571-1.119,12.561-2.23,3.324-.735,4.708.581,7.938,1.008,1.034.145,2.145.154,2.563-1.188.59-2.153.444-5.981.068-9.083l.47-2.256s.914,10.818.718,14.526,0,6.742-2.871,9.075-9,3.589-16.449,2.384-10.3-3.486-11.339-6.032c-3.35-8.271-2.444-12.321-3.5-13.859S340.737,2075.926,340.737,2075.926Z" transform="translate(-319.577 -2042.844)" fill="#263238"/>
            <path id="Trazado_118825" data-name="Trazado 118825" d="M359.7,2090.08l3.563.769a1.8,1.8,0,0,1-2.067,1.473l-.061-.012A1.913,1.913,0,0,1,359.7,2090.08Z" transform="translate(-322.863 -2045.488)" fill="#874c4c"/>
          </g>
        </g>
      </g>
    </g>
    <g id="freepik--character-2--inject-12" transform="translate(380.453 2051.033)">
      <g id="freepik--Kid--inject-12" transform="translate(0 0)">
        <g id="freepik--bottom--inject-12-2" data-name="freepik--bottom--inject-12" transform="translate(38.652 169.996)">
          <path id="Trazado_118826" data-name="Trazado 118826" d="M463.241,2350.645c.624-4.272,5.187-27.2,7.066-35.1,2.162-9.126,1.777-12.185,3.7-20.054.914-3.743,1.905-7.69,2.9-11.681,1.324,6.135,3.29,16.987,3.717,19.388,0,.367-.068.812-.111,1.333-.854,3.708-.854,6.332-.778,11.287.051,3.128,2.068,16.235,3.2,24.181.248,1.752.53,3.521.7,5.281a9.805,9.805,0,0,1-1.222,4.879,6.659,6.659,0,0,0-.632,4.11,4.263,4.263,0,0,0,.419,1.248c.718,1.307,2.17,1.709,3.324,2.461,1.478.949,2.743,2.743,3.965,4a15.667,15.667,0,0,0,4.2,3.418,18.868,18.868,0,0,0,5.981,1.23,13.852,13.852,0,0,0,3.512-.256,9.383,9.383,0,0,0,3.17-.684,2.565,2.565,0,0,0,1.461-2.136,3.609,3.609,0,0,0-1.709-2.563c-4.614-3.879-11.356-8.741-12.578-14.962,0,0,.684-5.033.948-8.049.906-10.253,1.282-18.508,2.153-26.583,1.068-9.8,1.418-10.937,1.23-19.294-.068-2.837-.2-5.853-.376-8.955-.162-9.792-.795-19.277-.76-26.582,0,0-13.552.265-24.284.94-11.569,1.41-15.517,4.025-15.175,5.5a102.276,102.276,0,0,0-1.709,15.765c-.316,7.066-.521,27.146-.521,27.146-2.179,7.69-2.452,11.638-2.452,16.414,0,3.127.5,24.062.222,25.583-.205.931-.256,1.9-.436,2.837-.188,1.068-.53,2.136-.786,3.187a8.251,8.251,0,0,0-.35,2.982,5.522,5.522,0,0,0,1.333,2.846,11.3,11.3,0,0,0,1.188,1.222,56.509,56.509,0,0,1,5.127,5.9,14.574,14.574,0,0,0,5.981,4.648,9.05,9.05,0,0,0,6.938-.359,4.353,4.353,0,0,0,1.854-1.487,3.651,3.651,0,0,0,.154-3.35,7.113,7.113,0,0,0-2.187-2.666c-.906-.726-1.905-1.333-2.828-2.033-2.563-2-5.127-5.187-5.588-8.545a6.29,6.29,0,0,1,0-2.5" transform="translate(-449.822 -2256.176)" fill="#9e6767"/>
          <path id="Trazado_118827" data-name="Trazado 118827" d="M487.054,2372.85s-.359,0-.316.914a2.117,2.117,0,0,0,1.094,2c.778.564,3.529,1.709,5.246,3.948,1.222,1.6,1.709,3.35,5.785,5.477s9.843,1.273,11.86.265,2.452-1.436,2.563-3.247Z" transform="translate(-454.99 -2273.1)" fill="#263238"/>
          <path id="Trazado_118828" data-name="Trazado 118828" d="M498.714,2361.14c-.5.769-3.238,1.154-4.418,1.615s-1.034,3.17-1.034,3.17c-1.077,0-1.179-.812-1.547-2.2-.615-2.333-2.35-2.324-2.905-2.623v-.718s-.6-.171-.726.949a25.719,25.719,0,0,1-1,4.426c-.342,1-.854,4.64-.111,5.742a16.282,16.282,0,0,0,2.41,1.8,16.441,16.441,0,0,1,4.845,4.23c.991,1.487,4.016,4.93,10.672,5s8.545-2.333,8.545-2.333a3.623,3.623,0,0,0-1.128-4.785c-2.751-2.025-3.922-2.905-7.314-5.605C499.364,2365.37,500.825,2360.645,498.714,2361.14Z" transform="translate(-454.97 -2271.285)" fill="#37474f"/>
          <path id="Trazado_118829" data-name="Trazado 118829" d="M499.919,2383.065c1.316-3.264,3.068-5.554,6.6-6.887s5.127-.854,6.6,0,4,3.059,2.213,6.2c0,0-.991,2.563-7.4,2.709S499.919,2383.065,499.919,2383.065Z" transform="translate(-456.909 -2273.463)" fill="#36c"/>
          <path id="Trazado_118830" data-name="Trazado 118830" d="M499.919,2383.065c1.316-3.264,3.068-5.554,6.6-6.887s5.127-.854,6.6,0,4,3.059,2.213,6.2c0,0-.991,2.563-7.4,2.709S499.919,2383.065,499.919,2383.065Z" transform="translate(-456.909 -2273.463)" opacity="0.25" style="isolation: isolate"/>
          <path id="Trazado_118831" data-name="Trazado 118831" d="M449.972,2375.85c-.137,1.145-.325,2.085.854,3.161s2.623,1.615,3.657,2.452,1.709,2.914,2.521,4.648a11.613,11.613,0,0,0,5.836,5.691c2.974,1.119,5.272,1.5,8.365.461s4.674-2.264,5.076-5.127Z" transform="translate(-449.625 -2273.536)" fill="#263238"/>
          <path id="Trazado_118832" data-name="Trazado 118832" d="M463.841,2365.869c.308-1.393-2.683,1.077-6.477.718-.675-.06-.94.282-1,.974s-.1,1.444-.974,1.282a1.212,1.212,0,0,1-.786-.649,4.727,4.727,0,0,1-.359-.982c-.273-.914-.709-2.273-1.709-2.615v-1.128s-.966-.658-1.119,2.093-2.692,4.948-1.53,8.459a11.647,11.647,0,0,0,3.016,2.777,9.516,9.516,0,0,1,4.324,5.127c.983,2.632,4.11,6.4,7.955,6.938a12.62,12.62,0,0,0,11.219-3.777,3.525,3.525,0,0,0-1.709-4.776,28.8,28.8,0,0,1-6.571-4.948C466.173,2373.534,463.781,2368.954,463.841,2365.869Z" transform="translate(-449.584 -2271.724)" fill="#37474f"/>
          <path id="Trazado_118833" data-name="Trazado 118833" d="M463.009,2389.551c.367-3.563,2.991-6.05,6.887-7.5s5.793.085,7.3,1.034a3.193,3.193,0,0,1,1.2,4.605c-1.2,1.837-3.794,3.837-7.912,4.2A10.069,10.069,0,0,1,463.009,2389.551Z" transform="translate(-451.538 -2274.351)" fill="#36c"/>
          <path id="Trazado_118834" data-name="Trazado 118834" d="M463.009,2389.551c.367-3.563,2.991-6.05,6.887-7.5s5.793.085,7.3,1.034a3.193,3.193,0,0,1,1.2,4.605c-1.2,1.837-3.794,3.837-7.912,4.2A10.069,10.069,0,0,1,463.009,2389.551Z" transform="translate(-451.538 -2274.351)" opacity="0.25" style="isolation: isolate"/>
          <path id="Trazado_118835" data-name="Trazado 118835" d="M456.942,2256.11s-.854,10.51-1.222,16.679-1.624,32.162-1.624,32.162a55.576,55.576,0,0,0-1.837,16.918c.205,8.152.333,14.526.3,17.944a20.1,20.1,0,0,0,12.706,1.845c2.093-8.707,6.323-26.249,7.417-32.982,1.162-7.152,4.332-22.618,4.332-22.618s2.828,13.894,2.392,16.508c-1.709,10.544,2.222,28.3,3.008,35.588,0,0,.8,2.085,6.041,2.153,5.417.068,6.426-1.777,6.426-1.777s3.307-35.033,3.725-41.681-.854-31.718-1.709-40.339Z" transform="translate(-449.965 -2256.11)" fill="#455a64"/>
          <path id="Trazado_118836" data-name="Trazado 118836" d="M481.239,2289.179l1.128-6.588s8.792-.624,12.7-4.981c0,0-1.342,5.759-10.561,6.571l-1.23,6.357.316,12.817C482.956,2298.57,482.093,2294.392,481.239,2289.179Z" transform="translate(-454.191 -2259.239)" fill="#37474f"/>
        </g>
        <g id="freepik--top--inject-12-3" data-name="freepik--top--inject-12">
          <g id="freepik--Chest--inject-12" transform="translate(13.002 59.321)">
            <path id="Trazado_118837" data-name="Trazado 118837" d="M512.473,2148.729a78.113,78.113,0,0,1-.752,13.876,29.188,29.188,0,0,1-4.23,10.869c-1.658,2.709-10.7,13.193-14.321,17.235-4.494,7.622,3.418,19.14,7.69,17.3,2.017-5.075,6.4-10.031,9.493-14.227,4.418-5.981,7.759-10.629,9.732-13.535a15.34,15.34,0,0,0,2.435-6.22c1.051-6.887.8-14.466.068-33.521a29.531,29.531,0,0,0-.854-6.169,9.459,9.459,0,0,0-2.709-4.845,13.238,13.238,0,0,0-3.162-1.829,5.4,5.4,0,0,0-2.563-.735,7.6,7.6,0,0,1-1.854.179c-.7-.12-1.35-.692-2.017-.479a1.254,1.254,0,0,0-.786,1.145,3.639,3.639,0,0,0,.265,1.436c.76,2.307,1.4,4.708,2.3,6.964.171.444,1.923,3.666.2,3.187" transform="translate(-430.083 -2126.584)" fill="#9e6767"/>
            <path id="Trazado_118838" data-name="Trazado 118838" d="M490.417,2199.385c1.247-1.051,2.512-1.709,4.443-3.315s8.861-9.4,8.861-9.4,9.587,3.136,9.51,11.441l-12.689,18.619s-5.358,1.077-7.8-1.777A15.507,15.507,0,0,1,490.417,2199.385Z" transform="translate(-429.712 -2135.329)" fill="#37474f"/>
            <path id="Trazado_118839" data-name="Trazado 118839" d="M458.346,2203.8c-4.272.854-5.554,2.923-6.067,6.759-.231,1.777-.205,7.177.983,10.4l2.478,15.466-.111,19.969c9.177,5.187,29.906,7.152,42.518-1.854,0,0-1.606-32.179-2.478-38.451-1.521-10.954-6.024-14.842-11.279-14.526l-15.2,1.017A69.253,69.253,0,0,0,458.346,2203.8Z" transform="translate(-424.31 -2137.493)" fill="#36c"/>
            <path id="Trazado_118840" data-name="Trazado 118840" d="M465.772,2188.7c-1.2-3.358-5.127-5.981-7.152-11.271-2.717-7.212-1.521-14.2,3.871-19.157a17.419,17.419,0,0,1,8.7-3.956,27.88,27.88,0,0,1,5.469-.291,31.45,31.45,0,0,0,6.144-.649c1.965-.367,3.734-1.179,5.657-.607a3.292,3.292,0,0,1,2.2,1.923,3.419,3.419,0,0,1-.367,3.324,2.991,2.991,0,0,1,3.486,1.094,3.521,3.521,0,0,1,.068,3.743,2.326,2.326,0,0,1-.931.854h0c2.068.939,2.358,3.708,1.709,5.443a4.666,4.666,0,0,1-4.17,3.059,10.749,10.749,0,0,1-.8,1.034l-.923.931c-.743.76-1.5,1.521-2.273,2.247-1.145,1.085-2.563,2.657-4.11,3.136-1.384.427-2.777.795-4.161,1.23a10.719,10.719,0,0,0-2.119.735,7.2,7.2,0,0,0-1.2,1.145l-6.836,6.494C467.506,2189.653,466.353,2188.7,465.772,2188.7Z" transform="translate(-425.045 -2130.366)" fill="#263238"/>
            <path id="Trazado_118841" data-name="Trazado 118841" d="M465.726,2179.954a.788.788,0,0,1-.179.154c-.983.632-.957-1.077-1.923-2.222a2.567,2.567,0,0,0-2.093-.854,3.246,3.246,0,0,0-3.068,1.872,4.784,4.784,0,0,0,2.727,6.193c.039.015.079.031.119.044a3.855,3.855,0,0,0,4.178-.854l.854,12.672s.53,4.58,7.365,5.366,9.1-2.2,6.315-4.9l.043-3.606a16.228,16.228,0,0,0,5.041-.709,9.631,9.631,0,0,0,6.263-7.528c.461-2.461-.282-4.648-.265-7.135,0-1.487.12-3.82.085-4.785-.043-1.187-.555-5.879-1.846-7.485-2,3.256-11.108,4.084-17.73,1.359a10.364,10.364,0,0,1-1.247,5.127c-.94,1.709-2.469,2.632-4.153,3.7a5.882,5.882,0,0,1-.068,2.777A1.717,1.717,0,0,1,465.726,2179.954Z" transform="translate(-425.179 -2132.347)" fill="#9e6767"/>
            <path id="Trazado_118842" data-name="Trazado 118842" d="M479.7,2174.932l-2.854,1.034a1.6,1.6,0,0,1,.94-1.991,1.47,1.47,0,0,1,1.886.873C479.681,2174.876,479.691,2174.9,479.7,2174.932Z" transform="translate(-427.89 -2133.468)" fill="#263238"/>
            <path id="Trazado_118843" data-name="Trazado 118843" d="M490.609,2174.932l2.854,1.034a1.581,1.581,0,0,0-.94-1.991,1.479,1.479,0,0,0-1.892.89C490.623,2174.888,490.616,2174.91,490.609,2174.932Z" transform="translate(-429.905 -2133.469)" fill="#263238"/>
            <path id="Trazado_118844" data-name="Trazado 118844" d="M481.867,2188.46l4.691.948a2.513,2.513,0,0,1-2.9,1.914,2.341,2.341,0,0,1-1.817-2.769C481.851,2188.522,481.858,2188.492,481.867,2188.46Z" transform="translate(-428.622 -2135.589)" fill="#874c4c"/>
            <path id="Trazado_118845" data-name="Trazado 118845" d="M477.648,2179.768a1.543,1.543,0,1,0,0-.035Z" transform="translate(-428.018 -2134.075)" fill="#263238"/>
            <path id="Trazado_118846" data-name="Trazado 118846" d="M490.458,2179.008a1.541,1.541,0,1,0,0-.044Z" transform="translate(-429.882 -2133.965)" fill="#263238"/>
            <path id="Trazado_118847" data-name="Trazado 118847" d="M486.389,2178.95l.658,6.075,3.956-1.367Z" transform="translate(-429.291 -2134.205)" fill="#874c4c"/>
            <path id="Trazado_118848" data-name="Trazado 118848" d="M481.586,2197.346a25.546,25.546,0,0,1-9.4-2.863,9.391,9.391,0,0,1-3.418-4.443,11.812,11.812,0,0,0,2.068,4.605c3.785,4.161,10.7,4.52,10.7,4.52Z" transform="translate(-426.726 -2135.819)" fill="#874c4c"/>
            <path id="Trazado_118849" data-name="Trazado 118849" d="M479.639,2191.85" transform="translate(-428.308 -2136.083)" fill="#b16668"/>
            <path id="Trazado_118850" data-name="Trazado 118850" d="M431.685,2149.694c-.854,2.384-.3,4.665.154,7.058.5,2.606,1.051,5.2,1.649,7.784,1.017,4.384,2.017,9.151,2.017,9.151,3.085,3.99,14.466,16.389,20.593,19.029,3.52,10.536-1.034,18.132-7.3,19.388-.854-2.751-6.05-8.015-11.39-13.843-4.272-4.6-7.374-8.433-11.792-12.988-3.418-3.495-3.093-5.708-3.6-8.8-.59-3.615-1.008-7.254-1.316-10.912-.359-4.315-.555-8.647-.675-12.979-.077-2.8-.342-5.562-.427-8.331a39.565,39.565,0,0,1,.1-5.033,12.234,12.234,0,0,1,1.572-5.614,13.794,13.794,0,0,1,3.008-3.016,4.569,4.569,0,0,1,2.2-1.2,10.82,10.82,0,0,0,1.829-.06c.735-.222,1.324-.974,2.085-.854a1.438,1.438,0,0,1,1.128,1.128,4.206,4.206,0,0,1-.077,1.709c-.419,2.333-.854,4.657-1.273,6.99-.137.777-.675,4.417,1.077,3.187" transform="translate(-419.566 -2126.858)" fill="#9e6767"/>
            <path id="Trazado_118851" data-name="Trazado 118851" d="M459.133,2201.684c-1.128-1.162-3.179-1.444-6.528-4.229s-7.613-6.494-7.613-6.494-.743,8.707-10.493,10.724c0,0,5.537,6.682,8.041,9.519s7.383,7.99,8.545,10.732c0,0,.8.854,3.572-.735S462.936,2212.852,459.133,2201.684Z" transform="translate(-421.739 -2135.953)" fill="#37474f"/>
          </g>
          <g id="freepik--Banner--inject-12">
            <path id="Trazado_118852" data-name="Trazado 118852" d="M516.865,2057.16l.854,69.9L405.2,2130.807l-.854-69.9,112.542-3.743" transform="translate(-404.349 -2057.16)" fill="#e36099"/>
            <g id="Grupo_55033" data-name="Grupo 55033" transform="translate(11.6 13.713)">
              <path id="Trazado_118853" data-name="Trazado 118853" d="M429.736,2088.184l-.406-12.374,3.808-.125a5.781,5.781,0,0,1,2.944.64,5.124,5.124,0,0,1,2.078,2.024,6.453,6.453,0,0,1,.824,3.058l.019.569a6.476,6.476,0,0,1-.609,3.092,5.082,5.082,0,0,1-1.933,2.147,5.828,5.828,0,0,1-2.891.843Zm2.211-10.392.271,8.261,1.233-.041a2.77,2.77,0,0,0,2.254-1.052,4.424,4.424,0,0,0,.715-2.822l-.021-.655a4.487,4.487,0,0,0-.876-2.834,2.762,2.762,0,0,0-2.318-.9Z" transform="translate(-419.585 -2073.568)" fill="#fff"/>
              <path id="Trazado_118854" data-name="Trazado 118854" d="M447.008,2088.3a4.514,4.514,0,0,1-3.333-1.133,4.416,4.416,0,0,1-1.379-3.264l-.008-.238a5.55,5.55,0,0,1,.455-2.5,3.928,3.928,0,0,1,1.461-1.732,4.266,4.266,0,0,1,2.22-.664,3.822,3.822,0,0,1,3.01,1.092,4.841,4.841,0,0,1,1.193,3.338l.033,1-5.855.192a2.29,2.29,0,0,0,.765,1.421,2.173,2.173,0,0,0,1.535.494,2.653,2.653,0,0,0,2.184-1.1l1.251,1.312a3.675,3.675,0,0,1-1.455,1.268A4.912,4.912,0,0,1,447.008,2088.3Zm-.527-7.546a1.533,1.533,0,0,0-1.17.534,2.566,2.566,0,0,0-.536,1.436l3.417-.112-.007-.2a1.827,1.827,0,0,0-.484-1.252A1.583,1.583,0,0,0,446.481,2080.753Z" transform="translate(-421.47 -2074.017)" fill="#fff"/>
              <path id="Trazado_118855" data-name="Trazado 118855" d="M458.754,2080.843a6.686,6.686,0,0,0-.887-.039,1.8,1.8,0,0,0-1.8,1l.2,6.017-2.456.08-.3-9.195,2.319-.076.105,1.094a2.272,2.272,0,0,1,2.006-1.333,2.536,2.536,0,0,1,.768.085Z" transform="translate(-423.104 -2073.962)" fill="#fff"/>
              <path id="Trazado_118856" data-name="Trazado 118856" d="M465.259,2087.7a4.514,4.514,0,0,1-3.333-1.133,4.415,4.415,0,0,1-1.379-3.264l-.008-.238a5.549,5.549,0,0,1,.455-2.495,3.928,3.928,0,0,1,1.461-1.732,4.269,4.269,0,0,1,2.22-.665,3.822,3.822,0,0,1,3.01,1.093,4.841,4.841,0,0,1,1.193,3.339l.033,1-5.856.192a2.292,2.292,0,0,0,.766,1.421,2.176,2.176,0,0,0,1.536.495,2.653,2.653,0,0,0,2.184-1.1l1.251,1.312a3.677,3.677,0,0,1-1.455,1.268A4.908,4.908,0,0,1,465.259,2087.7Zm-.527-7.546a1.537,1.537,0,0,0-1.17.534,2.567,2.567,0,0,0-.536,1.437l3.417-.113-.007-.2a1.83,1.83,0,0,0-.484-1.253A1.584,1.584,0,0,0,464.732,2080.154Z" transform="translate(-424.126 -2073.93)" fill="#fff"/>
              <path id="Trazado_118857" data-name="Trazado 118857" d="M475.789,2085.372a1.611,1.611,0,0,0,1.093-.41,1.313,1.313,0,0,0,.408-1.009l2.3-.075a3.166,3.166,0,0,1-.455,1.729,3.367,3.367,0,0,1-1.332,1.252,4.3,4.3,0,0,1-1.911.492,4,4,0,0,1-3.152-1.152,4.962,4.962,0,0,1-1.253-3.426l-.005-.161a4.907,4.907,0,0,1,1.019-3.428,3.951,3.951,0,0,1,3.061-1.368,3.869,3.869,0,0,1,2.8.891,3.475,3.475,0,0,1,1.144,2.579l-2.3.075a1.691,1.691,0,0,0-.479-1.152,1.643,1.643,0,0,0-2.412.256,3.626,3.626,0,0,0-.371,2.045l.008.254a3.674,3.674,0,0,0,.5,2.029A1.5,1.5,0,0,0,475.789,2085.372Z" transform="translate(-425.719 -2073.878)" fill="#fff"/>
              <path id="Trazado_118858" data-name="Trazado 118858" d="M484.783,2078.069a3.067,3.067,0,0,1,2.416-1.253q2.993-.1,3.148,3.377l.194,5.889-2.457.08-.191-5.821a1.719,1.719,0,0,0-.378-1.158,1.463,1.463,0,0,0-1.143-.341,1.671,1.671,0,0,0-1.535.884l.214,6.535-2.456.08-.428-13.053,2.456-.081Z" transform="translate(-427.274 -2073.208)" fill="#fff"/>
              <path id="Trazado_118859" data-name="Trazado 118859" d="M493.507,2081.915a5.463,5.463,0,0,1,.447-2.456,3.864,3.864,0,0,1,1.463-1.707,4.424,4.424,0,0,1,2.28-.661,4.191,4.191,0,0,1,3.076,1.039,4.576,4.576,0,0,1,1.414,3.051l.038.628a4.814,4.814,0,0,1-1.07,3.434,4.582,4.582,0,0,1-6.344.212,4.895,4.895,0,0,1-1.3-3.428Zm2.462.094a3.436,3.436,0,0,0,.56,1.989,1.77,1.77,0,0,0,2.8-.084,3.755,3.755,0,0,0,.43-2.208,3.405,3.405,0,0,0-.566-1.975,1.63,1.63,0,0,0-1.434-.661,1.605,1.605,0,0,0-1.371.748A3.83,3.83,0,0,0,495.969,2082.009Z" transform="translate(-428.924 -2073.772)" fill="#fff"/>
              <path id="Trazado_118860" data-name="Trazado 118860" d="M510.453,2083.505a.792.792,0,0,0-.469-.695,5.083,5.083,0,0,0-1.447-.416q-3.3-.581-3.373-2.68a2.531,2.531,0,0,1,.949-2.077,4.1,4.1,0,0,1,2.628-.907,4.417,4.417,0,0,1,2.828.732,2.6,2.6,0,0,1,1.118,2.107l-2.456.081a1.187,1.187,0,0,0-.368-.86,1.437,1.437,0,0,0-1.074-.309,1.467,1.467,0,0,0-.95.312.886.886,0,0,0-.317.725.756.756,0,0,0,.408.646,3.974,3.974,0,0,0,1.319.391,10.64,10.64,0,0,1,1.559.361,2.542,2.542,0,0,1,2.027,2.409,2.4,2.4,0,0,1-1.012,2.071,4.665,4.665,0,0,1-2.763.869,4.867,4.867,0,0,1-2.065-.345,3.431,3.431,0,0,1-1.443-1.084,2.619,2.619,0,0,1-.561-1.534l2.329-.077a1.279,1.279,0,0,0,.516.987,1.924,1.924,0,0,0,1.218.309,1.773,1.773,0,0,0,1.058-.3A.831.831,0,0,0,510.453,2083.505Z" transform="translate(-430.596 -2073.72)" fill="#fff"/>
              <path id="Trazado_118861" data-name="Trazado 118861" d="M417.93,2108.231a5.54,5.54,0,0,1,.853-3.457,3.128,3.128,0,0,1,2.6-1.361,2.816,2.816,0,0,1,2.251.93l-.154-4.691,2.464-.081.428,13.053-2.217.073-.151-.973a2.891,2.891,0,0,1-2.325,1.225,3.122,3.122,0,0,1-2.646-1.193A5.722,5.722,0,0,1,417.93,2108.231Zm2.462.1a3.628,3.628,0,0,0,.516,1.968,1.467,1.467,0,0,0,1.331.647,1.643,1.643,0,0,0,1.574-1.014l-.119-3.635a1.62,1.62,0,0,0-1.62-.909Q420.3,2105.447,420.392,2108.333Z" transform="translate(-417.925 -2077.045)" fill="#fff"/>
              <path id="Trazado_118862" data-name="Trazado 118862" d="M434.19,2113.188a4.514,4.514,0,0,1-3.333-1.132,4.411,4.411,0,0,1-1.379-3.265l-.008-.238a5.549,5.549,0,0,1,.454-2.495,3.935,3.935,0,0,1,1.461-1.732,4.261,4.261,0,0,1,2.22-.664,3.818,3.818,0,0,1,3.009,1.092,4.838,4.838,0,0,1,1.195,3.338l.032,1-5.855.192a2.273,2.273,0,0,0,.766,1.421,2.167,2.167,0,0,0,1.535.495,2.654,2.654,0,0,0,2.185-1.1l1.251,1.312a3.692,3.692,0,0,1-1.457,1.269A4.9,4.9,0,0,1,434.19,2113.188Zm-.529-7.546a1.533,1.533,0,0,0-1.168.534,2.555,2.555,0,0,0-.536,1.436l3.415-.112-.006-.2a1.834,1.834,0,0,0-.484-1.253A1.584,1.584,0,0,0,433.661,2105.642Z" transform="translate(-419.605 -2077.64)" fill="#fff"/>
              <path id="Trazado_118863" data-name="Trazado 118863" d="M448.658,2111.925l-2.464.08-.429-13.053,2.465-.081Z" transform="translate(-421.977 -2076.943)" fill="#fff"/>
              <path id="Trazado_118864" data-name="Trazado 118864" d="M450.89,2107.782a5.454,5.454,0,0,1,.448-2.457,3.859,3.859,0,0,1,1.462-1.707,4.425,4.425,0,0,1,2.28-.661,4.189,4.189,0,0,1,3.076,1.039,4.576,4.576,0,0,1,1.414,3.05l.038.628a4.814,4.814,0,0,1-1.07,3.434,4.583,4.583,0,0,1-6.344.212,4.893,4.893,0,0,1-1.3-3.428Zm2.462.093a3.435,3.435,0,0,0,.56,1.988,1.771,1.771,0,0,0,2.8-.083,3.761,3.761,0,0,0,.43-2.209,3.4,3.4,0,0,0-.566-1.974,1.631,1.631,0,0,0-1.434-.661,1.606,1.606,0,0,0-1.371.748A3.826,3.826,0,0,0,453.352,2107.876Z" transform="translate(-422.722 -2077.537)" fill="#fff"/>
              <path id="Trazado_118865" data-name="Trazado 118865" d="M467.837,2109.373a.793.793,0,0,0-.47-.695,5.056,5.056,0,0,0-1.447-.416q-3.3-.581-3.371-2.68a2.525,2.525,0,0,1,.948-2.077,4.1,4.1,0,0,1,2.628-.907,4.416,4.416,0,0,1,2.827.732,2.6,2.6,0,0,1,1.12,2.107l-2.457.082a1.185,1.185,0,0,0-.369-.861,1.437,1.437,0,0,0-1.072-.309,1.477,1.477,0,0,0-.952.312.886.886,0,0,0-.316.726.758.758,0,0,0,.408.646,4,4,0,0,0,1.319.39,10.678,10.678,0,0,1,1.56.362,2.543,2.543,0,0,1,2.028,2.409,2.4,2.4,0,0,1-1.013,2.071,4.658,4.658,0,0,1-2.762.869,4.862,4.862,0,0,1-2.065-.345,3.431,3.431,0,0,1-1.444-1.084,2.63,2.63,0,0,1-.561-1.534l2.328-.076a1.282,1.282,0,0,0,.517.987,1.926,1.926,0,0,0,1.218.309,1.783,1.783,0,0,0,1.058-.3A.834.834,0,0,0,467.837,2109.373Z" transform="translate(-424.394 -2077.485)" fill="#fff"/>
              <path id="Trazado_118866" data-name="Trazado 118866" d="M480.48,2102.29l.111,1.06a3.211,3.211,0,0,1,2.6-1.319,2.67,2.67,0,0,1,2.2.787,4.011,4.011,0,0,1,.814,2.543l.195,5.939-2.456.081-.193-5.881a1.588,1.588,0,0,0-.378-1.123,1.519,1.519,0,0,0-1.142-.316,1.694,1.694,0,0,0-1.526.935l.213,6.484-2.457.081-.3-9.195Z" transform="translate(-426.692 -2077.402)" fill="#fff"/>
              <path id="Trazado_118867" data-name="Trazado 118867" d="M489.525,2099.039a1.212,1.212,0,0,1,.339-.922,1.595,1.595,0,0,1,2.01-.066,1.3,1.3,0,0,1,.056,1.828,1.575,1.575,0,0,1-2,.065A1.212,1.212,0,0,1,489.525,2099.039Zm2.989,11.489-2.465.08-.3-9.195,2.465-.081Z" transform="translate(-428.345 -2076.776)" fill="#fff"/>
              <path id="Trazado_118868" data-name="Trazado 118868" d="M497.289,2101.109l.111,1.06a3.216,3.216,0,0,1,2.6-1.319,2.672,2.672,0,0,1,2.2.787,4.015,4.015,0,0,1,.815,2.543l.195,5.94-2.456.081-.193-5.881a1.592,1.592,0,0,0-.378-1.124,1.525,1.525,0,0,0-1.142-.315,1.69,1.69,0,0,0-1.525.935l.213,6.485-2.457.08-.3-9.2Zm4.754-3.908a2.379,2.379,0,0,1-.508,1.629,1.744,1.744,0,0,1-1.348.695,2.046,2.046,0,0,1-.575-.054,3.764,3.764,0,0,1-.7-.287,3.792,3.792,0,0,0-.647-.273,1.582,1.582,0,0,0-.426-.041.684.684,0,0,0-.5.229.828.828,0,0,0-.188.61l-1.431-.037a2.413,2.413,0,0,1,.5-1.625,1.717,1.717,0,0,1,1.342-.708,1.743,1.743,0,0,1,.483.049,5.116,5.116,0,0,1,.745.285,4.925,4.925,0,0,0,.715.275,1.612,1.612,0,0,0,.41.037.714.714,0,0,0,.508-.225.794.794,0,0,0,.2-.606Z" transform="translate(-429.139 -2076.693)" fill="#fff"/>
              <path id="Trazado_118869" data-name="Trazado 118869" d="M506.169,2105.969a5.457,5.457,0,0,1,.448-2.457,3.861,3.861,0,0,1,1.462-1.707,4.432,4.432,0,0,1,2.28-.662,4.193,4.193,0,0,1,3.076,1.039,4.579,4.579,0,0,1,1.414,3.05l.038.629a4.813,4.813,0,0,1-1.07,3.433,4.581,4.581,0,0,1-6.344.213,4.9,4.9,0,0,1-1.3-3.429Zm2.463.094a3.432,3.432,0,0,0,.559,1.989,1.771,1.771,0,0,0,2.8-.084,3.77,3.77,0,0,0,.43-2.208,3.409,3.409,0,0,0-.567-1.976,1.629,1.629,0,0,0-1.434-.66,1.6,1.6,0,0,0-1.371.748A3.83,3.83,0,0,0,508.632,2106.063Z" transform="translate(-430.767 -2077.273)" fill="#fff"/>
              <path id="Trazado_118870" data-name="Trazado 118870" d="M523.116,2107.559a.792.792,0,0,0-.47-.695,5.06,5.06,0,0,0-1.447-.417q-3.3-.58-3.372-2.679a2.525,2.525,0,0,1,.948-2.077,4.1,4.1,0,0,1,2.629-.907,4.415,4.415,0,0,1,2.827.733,2.6,2.6,0,0,1,1.12,2.107l-2.457.08a1.187,1.187,0,0,0-.368-.86,1.436,1.436,0,0,0-1.073-.309,1.467,1.467,0,0,0-.952.312.884.884,0,0,0-.316.725.759.759,0,0,0,.408.646,3.966,3.966,0,0,0,1.318.391,10.617,10.617,0,0,1,1.56.362,2.542,2.542,0,0,1,2.028,2.409,2.4,2.4,0,0,1-1.013,2.07,4.661,4.661,0,0,1-2.762.869,4.858,4.858,0,0,1-2.066-.345,3.447,3.447,0,0,1-1.444-1.083,2.626,2.626,0,0,1-.56-1.535l2.328-.076a1.28,1.28,0,0,0,.518.987,1.918,1.918,0,0,0,1.218.309,1.786,1.786,0,0,0,1.059-.3A.833.833,0,0,0,523.116,2107.559Z" transform="translate(-432.439 -2077.22)" fill="#fff"/>
            </g>
          </g>
          <g id="freepik--Thumbs--inject-12" transform="translate(24.694 68.346)">
            <path id="Trazado_118871" data-name="Trazado 118871" d="M433.249,2143.042a4.287,4.287,0,0,0,.854-.983,7.16,7.16,0,0,1,2.179-2.29,1.394,1.394,0,0,1,1.564,0,1.446,1.446,0,0,1,.06,1.649,23.447,23.447,0,0,0-.735,2.5,28.841,28.841,0,0,1-1.367,3.05,36.668,36.668,0,0,0-2.119,4.366" transform="translate(-433.249 -2137.493)" fill="#9e6767"/>
            <path id="Trazado_118872" data-name="Trazado 118872" d="M513.788,2140.858a1.521,1.521,0,0,1-.718-.538c-.521-.607-.948-1.307-1.487-1.906a3.424,3.424,0,0,0-2.025-1.239,1.1,1.1,0,0,0-1.2.513,1.279,1.279,0,0,0,.273,1.162,11.14,11.14,0,0,1,.983,2.025,14.41,14.41,0,0,0,2.017,3.879c1.427,1.752,3.059,3.076,3.238,5.511" transform="translate(-444.174 -2137.147)" fill="#9e6767"/>
          </g>
        </g>
      </g>
    </g>
  </g>
</svg>
