<svg xmlns="http://www.w3.org/2000/svg" width="415.429" height="242.339" viewBox="0 0 415.429 242.339">
  <g id="Grupo_53017" data-name="Grupo 53017" transform="translate(-177 -2367)">
    <rect id="Rectángulo_28698" data-name="Rectángulo 28698" width="50.591" height="5.145" transform="translate(223.303 2490.475)" fill="#ea3065"/>
    <rect id="Rectángulo_28699" data-name="Rectángulo 28699" width="50.591" height="5.145" transform="translate(359.64 2420.163)" fill="#ea3065"/>
    <rect id="Rectángulo_28700" data-name="Rectángulo 28700" width="50.591" height="5.145" transform="translate(488.261 2367)" fill="#ea3065"/>
    <g id="Grupo_52964" data-name="Grupo 52964" transform="translate(331.156 2424.468)">
      <g id="Grupo_52963" data-name="Grupo 52963">
        <path id="Trazado_114628" data-name="Trazado 114628" d="M809.559,747.81c-1.8,8.043-4.635,14.446-11.283,17.746s.383,8.866,6.943,4.7c-22.365,13.552-21.19,31.856-.6,27.393-11.965,17.9,25.254,40.29,46.719,15.391-.716,11.774,22.179,18.775,18.943-17.131,3.407,8.558,10.644,5.9,6.725-6.8a15.088,15.088,0,0,1,3.958-15.947Z" transform="translate(-758.44 -706.536)" fill="#12263f"/>
        <path id="Trazado_114629" data-name="Trazado 114629" d="M878.128,836.04s21.81,8.332,23.945,9.641,4.181,2.535,4.878,1.43-3.31-3.959-3.31-3.959,6.961-6.183,6.038-7.358-5.9,2.417-5.9,2.417,3.577-3.862,2.237-4.706c-.974-.613-4.6,3.339-4.6,3.339s1.958-3.131.69-3.834-3.012,3.766-3.012,3.766.15-2.713-1.06-2.627c-.977.071-1.382,3.3-1.382,3.3s-13.868-5.571-15.917-6.958C879.438,833.266,878.128,836.04,878.128,836.04Z" transform="translate(-784.5 -730.659)" fill="#faccac"/>
        <path id="Trazado_114630" data-name="Trazado 114630" d="M803.623,796.316s-19.086-13.448-21.362-14.486-4.438-2.055-3.909-3.251,5.13.538,5.13.538,1.246-9.226,2.736-9.117,1.29,6.25,1.29,6.25,1.208-5.123,2.655-4.482c1.055.465-.2,5.679-.2,5.679s1.507-3.373,2.8-2.714-1.445,4.6-1.445,4.6,2.167-1.638,2.772-.586c.487.85-1.967,2.987-1.967,2.987s12.364,8.4,14.658,9.325C805.2,793.681,803.623,796.316,803.623,796.316Z" transform="translate(-755.366 -713.009)" fill="#faccac"/>
        <g id="Grupo_52937" data-name="Grupo 52937" transform="translate(63.678 78.837)">
          <g id="Grupo_52936" data-name="Grupo 52936">
            <g id="Grupo_52935" data-name="Grupo 52935">
              <g id="Grupo_52934" data-name="Grupo 52934">
                <path id="Trazado_114631" data-name="Trazado 114631" d="M852.618,811.449a45.084,45.084,0,0,1-4.405-3.159,24.771,24.771,0,0,1,2.474-5.069l-4.288-2.375s-2.069,3.851-2.7,5.479c-3.618-.552-6.535-1.29-6.535-1.29s-4.717,7.541,3.654,11.636C843.748,818.1,849.633,816.782,852.618,811.449Z" transform="translate(-835.84 -800.847)" fill="#faccac"/>
              </g>
            </g>
          </g>
          <path id="Trazado_114632" data-name="Trazado 114632" d="M849.514,808.285a2.42,2.42,0,0,0-2.063-.107l1.012-2.038,3.4,1.686-1.013,2.038A2.424,2.424,0,0,0,849.514,808.285Z" transform="translate(-839.228 -802.391)" fill="#f0b38a"/>
        </g>
        <g id="Grupo_52939" data-name="Grupo 52939" transform="translate(43.642 75.145)">
          <g id="Grupo_52938" data-name="Grupo 52938" transform="translate(1.552 2.036)">
            <path id="Trazado_114633" data-name="Trazado 114633" d="M829.847,804.467c-9.524,11,11.683,19.187,16.447,6.822,1.839.7,11.046,6.482,14.718,9.136-.637,1.931-6.284,9.049-7.7,8.842a30.04,30.04,0,0,1-5.393-3.551c-1.853,5.023-6.833,18.566-6.634,19.837,0,0-14.691-.543-31.542-9.568-.005,0,5.968-18.4,8.432-22.516-.251-.264-4.764-3.438-7.877-6.074-.71-3.675,5.1-7.732,6.8-8.886C820.327,799.986,828.734,804,829.847,804.467Z" transform="translate(-809.742 -798.509)" fill="#e36099"/>
            <path id="Trazado_114634" data-name="Trazado 114634" d="M837.716,806.338c-1.835,3.519-2.776,8.611,2.929,10.328,5.025,1.511,7.815-1.408,9.733-5.272a26.258,26.258,0,0,0,3.339,1.953s-3.985,10.508-14.685,6.6C828.864,816.231,834.1,805.3,834.1,805.3Z" transform="translate(-816.455 -800.491)" fill="#fff"/>
          </g>
          <path id="Trazado_114635" data-name="Trazado 114635" d="M873.691,840.115c5.527-5.67,5.521-5.661,7.6-9.945a15.731,15.731,0,0,0-2.645-1.992c-.8,2-3.388,5.773-7.759,9.614C872.031,838.858,873.691,840.115,873.691,840.115Z" transform="translate(-826.031 -805.129)" fill="#fff"/>
          <path id="Trazado_114636" data-name="Trazado 114636" d="M814.292,795.634c-5.032,6.116-5.026,6.1-6.742,10.548a15.779,15.779,0,0,0,2.8,1.764c.633-2.061,2.89-6.038,6.924-10.232C816.052,796.749,814.292,795.634,814.292,795.634Z" transform="translate(-807.55 -795.634)" fill="#fff"/>
        </g>
        <g id="Grupo_52942" data-name="Grupo 52942" transform="translate(62.512 162.226)">
          <path id="Trazado_114637" data-name="Trazado 114637" d="M839.418,919.208s.183,7.31.4,11.282a8.678,8.678,0,0,1-4.279.178l-1.349-12.08Z" transform="translate(-834.194 -918.588)" fill="#faccac"/>
          <g id="Grupo_52941" data-name="Grupo 52941" transform="translate(0.24 9.119)">
            <g id="Grupo_52940" data-name="Grupo 52940">
              <path id="Trazado_114638" data-name="Trazado 114638" d="M834.837,938.206c-.515,1.145-.674,3.2,1.987,5.473s5.3,4.2,9.3,2.81c3.29-1.142,1.907-5.013,1.907-5.013Z" transform="translate(-834.532 -933.43)" fill="#e6e5e5"/>
              <path id="Trazado_114639" data-name="Trazado 114639" d="M835.311,931.463c-.643,1.033-1.329,5.044.681,6.809s6.235,5.3,10.167,3.852c3.583-1.323,1.517-4.461-.479-5.736a61.361,61.361,0,0,1-5.8-4.827S839.338,933.773,835.311,931.463Z" transform="translate(-834.569 -931.463)" fill="#3d3a37"/>
            </g>
            <path id="Trazado_114640" data-name="Trazado 114640" d="M843.255,934.143a4.4,4.4,0,0,0-4.31,1.314,1.088,1.088,0,0,0,.773,1.826,42.632,42.632,0,0,1,4.486-1.162C846.251,935.873,844.452,934.5,843.255,934.143Z" transform="translate(-835.741 -932.205)" fill="#ffcf00"/>
            <path id="Trazado_114641" data-name="Trazado 114641" d="M847.617,937.674a4.4,4.4,0,0,0-4.31,1.313,1.088,1.088,0,0,0,.773,1.827,42.674,42.674,0,0,1,4.486-1.162C850.612,939.4,848.813,938.027,847.617,937.674Z" transform="translate(-837.013 -933.235)" fill="#ffcf00"/>
          </g>
        </g>
        <g id="Grupo_52945" data-name="Grupo 52945" transform="translate(0 135.491)">
          <path id="Trazado_114642" data-name="Trazado 114642" d="M772.807,880.84s-7.33,3.176-10.191,5.941a8.69,8.69,0,0,0,3.02,3.037l11.427-5.884Z" transform="translate(-750.798 -880.84)" fill="#faccac"/>
          <g id="Grupo_52944" data-name="Grupo 52944" transform="translate(0 3.364)">
            <g id="Grupo_52943" data-name="Grupo 52943" transform="translate(0 0.56)">
              <path id="Trazado_114643" data-name="Trazado 114643" d="M760.571,894.048c-.4,1.189-1.912,2.811-5.41,2.674s-6.789-1.056-8.812-4.777c-1.7-3.131,2.32-4.459,2.32-4.459Z" transform="translate(-745.929 -886.703)" fill="#e6e5e5"/>
              <path id="Trazado_114644" data-name="Trazado 114644" d="M764.214,889.924c-.23,1.195-2.451,4.6-5.125,4.534s-7.472-.147-10.121-4.4c-2.077-3.335,1.96-3.982,4.291-3.561a45.042,45.042,0,0,0,7.587.04S759.69,888.882,764.214,889.924Z" transform="translate(-746.647 -886.381)" fill="#3d3a37"/>
            </g>
            <path id="Trazado_114645" data-name="Trazado 114645" d="M761.679,886a4.394,4.394,0,0,1,2.268,3.89,1.087,1.087,0,0,1-1.805.815,42.978,42.978,0,0,0-2.5-3.9C758.3,885.234,760.56,885.445,761.679,886Z" transform="translate(-749.809 -885.589)" fill="#ffcf00"/>
            <path id="Trazado_114646" data-name="Trazado 114646" d="M756.485,886.208a4.4,4.4,0,0,1,2.269,3.891,1.087,1.087,0,0,1-1.806.815,42.927,42.927,0,0,0-2.5-3.9C753.111,885.441,755.368,885.652,756.485,886.208Z" transform="translate(-748.294 -885.65)" fill="#ffcf00"/>
          </g>
        </g>
        <g id="Grupo_52946" data-name="Grupo 52946" transform="translate(18.915 110.089)">
          <path id="Trazado_114647" data-name="Trazado 114647" d="M797.864,852.734c-4.729,6.891-16.017,13.969-22.906,19.372.358.82,3.8,5.212,9.321,7.971,4.728-1.215,12.976-4.443,24.458-8.9,1.526,8.806,3.858,23.03,4.831,29.219a68.228,68.228,0,0,0,11.722-.542,311.281,311.281,0,0,0,4.791-36.783C825.894,861.583,806.981,855.707,797.864,852.734Z" transform="translate(-773.314 -847.237)" fill="#ea3065"/>
          <path id="Trazado_114648" data-name="Trazado 114648" d="M805.547,858.084s-3.041,3.065-6.448,3.733c.07,1.069.343,2.915.343,2.915s6.547-1.38,8.8-4.837A7.7,7.7,0,0,1,805.547,858.084Z" transform="translate(-780.358 -848.798)" fill="#a22f5f"/>
          <path id="Trazado_114649" data-name="Trazado 114649" d="M842.958,872.431s1.612,4.009,4.5,5.941c-.484.965-1.453,2.557-1.453,2.557s-5.5-3.807-6.237-7.87A7.7,7.7,0,0,0,842.958,872.431Z" transform="translate(-792.222 -852.984)" fill="#a22f5f"/>
          <path id="Trazado_114650" data-name="Trazado 114650" d="M784.763,886.805s-5.126-5.285-7.064-10.922a27.968,27.968,0,0,0-5.062,3.412s.324,6.563,5.894,9.648C779.84,888.358,782.983,887.919,784.763,886.805Z" transform="translate(-772.637 -853.991)" fill="#a22f5f"/>
          <path id="Trazado_114651" data-name="Trazado 114651" d="M841.564,917.009s-7.351,2.186-12.8-.231c-.291,2.742.807,5.986.638,6.617,0,0,8.109,2,11.271-.195C841.134,921.843,841.171,919.071,841.564,917.009Z" transform="translate(-788.998 -865.923)" fill="#a22f5f"/>
          <path id="Trazado_114652" data-name="Trazado 114652" d="M810.035,844.973l-2.88,5.465s11.4,12.5,32.1,12c1.711-5.311,1.817-6.076,1.817-6.076S827.562,858.569,810.035,844.973Z" transform="translate(-782.708 -844.973)" fill="#a22f5f"/>
          <path id="Trazado_114653" data-name="Trazado 114653" d="M831.585,861.172a1.842,1.842,0,0,1-2.424.959h0a1.842,1.842,0,0,1-.96-2.424h0a1.843,1.843,0,0,1,2.424-.959h0a1.843,1.843,0,0,1,.959,2.424Z" transform="translate(-788.804 -848.948)" fill="#ffcf00"/>
        </g>
        <g id="Grupo_52962" data-name="Grupo 52962" transform="translate(46.57)">
          <g id="Grupo_52961" data-name="Grupo 52961">
            <g id="Grupo_52960" data-name="Grupo 52960">
              <g id="Grupo_52959" data-name="Grupo 52959">
                <path id="Trazado_114654" data-name="Trazado 114654" d="M899.541,723.818c-5.082-22.793-28.45-39.527-50.941-32.772-16.434,4.935-12.791,12.26-12.791,12.26s-10.1-5.659-17.226,6.732c-2.346,4.08-5,21.2,3.4,24.242,0,0,19.989,6.641,31.494,9.985,10.838,5.111,32.444,14.207,32.444,14.207C902.429,746.925,901.335,731.861,899.541,723.818Z" transform="translate(-813.015 -689.532)" fill="#12263f"/>
                <path id="Trazado_114655" data-name="Trazado 114655" d="M824.293,742.4c-6.585,17.417,2.62,34.15,19.391,40.491s34.746-.113,41.332-17.53-1.9-36.046-18.674-42.388S830.878,724.985,824.293,742.4Z" transform="translate(-814.738 -698.673)" fill="#faccac"/>
                <g id="Grupo_52949" data-name="Grupo 52949" transform="translate(0 37.806)">
                  <g id="Grupo_52947" data-name="Grupo 52947">
                    <path id="Trazado_114656" data-name="Trazado 114656" d="M822.4,749.423s.93-3.692-3.106-5.922c-4.257-2.348-8.437,2.788-7.47,7.269s5.92,6.572,8.589,4.467Z" transform="translate(-811.684 -742.913)" fill="#faccac"/>
                    <path id="Trazado_114657" data-name="Trazado 114657" d="M819.344,745.4c3.111.7,3.308,6.781-1.73,7.779,3.172-2.9,2.176-4.771-.625-3.929.518-1.164,1.551-1.6,3.241-.738A3.535,3.535,0,0,0,819.344,745.4Z" transform="translate(-813.231 -743.638)" fill="#d78561"/>
                  </g>
                  <g id="Grupo_52948" data-name="Grupo 52948" transform="translate(66.847 26.071)">
                    <path id="Trazado_114658" data-name="Trazado 114658" d="M908.425,782.293s1.745-3.384,6.246-2.385c4.747,1.057,4.48,7.674.794,10.394s-8.787,1.011-9.4-2.334Z" transform="translate(-906.069 -779.724)" fill="#faccac"/>
                    <path id="Trazado_114659" data-name="Trazado 114659" d="M916.666,782.5c-2.8-1.528-6.969,2.9-3.851,6.978-.459-4.274,1.526-5.018,3.068-2.533.383-1.214-.1-2.225-1.94-2.7A3.539,3.539,0,0,1,916.666,782.5Z" transform="translate(-907.714 -780.442)" fill="#d78561"/>
                  </g>
                </g>
                <path id="Trazado_114660" data-name="Trazado 114660" d="M865.5,764.62c-.393,1.935,3.542,5.825.952,7.377-1.6.961-3.956-.326-2.91-3.09C864.145,767.306,865.5,764.62,865.5,764.62Z" transform="translate(-826.738 -711.44)" fill="#ee7960"/>
                <g id="Grupo_52950" data-name="Grupo 52950" transform="translate(12.883 54.394)">
                  <path id="Trazado_114661" data-name="Trazado 114661" d="M842.109,772.6c-.678,1.791-3.938,2.216-7.281.952s-5.507-3.744-4.83-5.534,3.938-2.217,7.283-.951S842.787,770.8,842.109,772.6Z" transform="translate(-829.874 -766.334)" fill="#ee7960"/>
                  <path id="Trazado_114662" data-name="Trazado 114662" d="M890.676,790.969c-.678,1.791-3.938,2.218-7.284.951s-5.506-3.742-4.829-5.533,3.939-2.218,7.283-.952S891.353,789.18,890.676,790.969Z" transform="translate(-844.044 -771.695)" fill="#ee7960"/>
                </g>
                <g id="Grupo_52955" data-name="Grupo 52955" transform="translate(18.57 41.818)">
                  <g id="Grupo_52952" data-name="Grupo 52952">
                    <g id="Grupo_52951" data-name="Grupo 52951" transform="translate(0 0.584)">
                      <path id="Trazado_114663" data-name="Trazado 114663" d="M849.374,755.467a5.745,5.745,0,1,1-5.749-6.065A5.915,5.915,0,0,1,849.374,755.467Z" transform="translate(-837.903 -749.402)" fill="#fff"/>
                      <path id="Trazado_114664" data-name="Trazado 114664" d="M848.081,756.432a3.543,3.543,0,1,1-3.545-3.74A3.649,3.649,0,0,1,848.081,756.432Z" transform="translate(-838.809 -750.362)" fill="#2b2926"/>
                      <path id="Trazado_114665" data-name="Trazado 114665" d="M844.958,755.762a1.035,1.035,0,1,1-.553-1.405A1.064,1.064,0,0,1,844.958,755.762Z" transform="translate(-839.378 -750.828)" fill="#fff"/>
                      <path id="Trazado_114666" data-name="Trazado 114666" d="M847.983,760.906a.642.642,0,1,1-.341-.868A.659.659,0,0,1,847.983,760.906Z" transform="translate(-840.482 -752.492)" fill="#fff"/>
                    </g>
                    <path id="Trazado_114667" data-name="Trazado 114667" d="M839.173,750.642s6.184-3.346,10.717,2.446C846.5,744.649,839.173,750.642,839.173,750.642Z" transform="translate(-838.274 -748.578)" fill="#7c462f"/>
                  </g>
                  <g id="Grupo_52954" data-name="Grupo 52954" transform="translate(31.617 12.143)">
                    <g id="Grupo_52953" data-name="Grupo 52953" transform="translate(0 0.61)">
                      <path id="Trazado_114668" data-name="Trazado 114668" d="M884.141,768.707a5.745,5.745,0,1,0,8.324-.74A5.917,5.917,0,0,0,884.141,768.707Z" transform="translate(-882.544 -766.585)" fill="#fff"/>
                      <path id="Trazado_114669" data-name="Trazado 114669" d="M886.715,771.1a3.543,3.543,0,1,0,5.132-.456A3.648,3.648,0,0,0,886.715,771.1Z" transform="translate(-883.474 -767.521)" fill="#2b2926"/>
                      <path id="Trazado_114670" data-name="Trazado 114670" d="M892.063,773.583a1.035,1.035,0,1,0,1.344-.687A1.065,1.065,0,0,0,892.063,773.583Z" transform="translate(-885.302 -768.41)" fill="#fff"/>
                      <path id="Trazado_114671" data-name="Trazado 114671" d="M886.787,775.587a.642.642,0,1,0,.83-.425A.659.659,0,0,0,886.787,775.587Z" transform="translate(-883.77 -769.077)" fill="#fff"/>
                    </g>
                    <path id="Trazado_114672" data-name="Trazado 114672" d="M896.294,772.016s-2.419-6.6-9.65-5.259C894.769,762.672,896.294,772.016,896.294,772.016Z" transform="translate(-883.741 -765.723)" fill="#7c462f"/>
                  </g>
                </g>
                <g id="Grupo_52958" data-name="Grupo 52958" transform="translate(20.923 35.751)">
                  <g id="Grupo_52956" data-name="Grupo 52956" transform="translate(36.959 12.731)">
                    <path id="Trazado_114673" data-name="Trazado 114673" d="M893.411,759.058c2.018-2.663,7.514-.2,7.394,5.635C899.338,761.033,893.411,759.058,893.411,759.058Z" transform="translate(-893.411 -757.987)" fill="#12263f"/>
                  </g>
                  <g id="Grupo_52957" data-name="Grupo 52957">
                    <path id="Trazado_114674" data-name="Trazado 114674" d="M850.5,743.339c.251-3.332-5.5-5.126-9.271-.671C844.747,740.894,850.5,743.339,850.5,743.339Z" transform="translate(-841.226 -740.012)" fill="#12263f"/>
                  </g>
                </g>
                <path id="Trazado_114675" data-name="Trazado 114675" d="M859.9,785.752c-2.649-3.159-7.673,3.736-5.115,6.132S862.727,789.12,859.9,785.752Z" transform="translate(-824.053 -717.368)" fill="#5c2926"/>
              </g>
              <path id="Trazado_114676" data-name="Trazado 114676" d="M850.491,720.2c-8.65,4.2-5.832,7.677-2.588,7.4,4.163-.358,5.888-5.343,5.888-5.343s15.009,22.914,25.775,19.577c5.6-1.734,2.178-11.469,2.178-11.469s3.492,12.916,9.017,11.679c8.622-1.93-7.854-20.792-18.372-23.733S850.491,720.2,850.491,720.2Z" transform="translate(-821.327 -697.653)" fill="#12263f"/>
            </g>
          </g>
        </g>
      </g>
    </g>
    <g id="Grupo_52984" data-name="Grupo 52984" transform="translate(177 2490.785)">
      <g id="Grupo_52983" data-name="Grupo 52983">
        <g id="Grupo_52965" data-name="Grupo 52965" transform="translate(0 59.566)">
          <path id="Trazado_114677" data-name="Trazado 114677" d="M564.988,907.7s-14.1,5.246-16.394,1.312-7.541-3.279-9.18.984-11.148,3.279-11.148,5.9,8.852,5.575,16.721,4.263,20,3.934,26.23-2.623S564.988,907.7,564.988,907.7Z" transform="translate(-528.267 -878.69)" fill="#ea3065"/>
          <path id="Trazado_114678" data-name="Trazado 114678" d="M671.666,923.572c.818,2.761,5.829,3.887,5.419,4.806s-1.431,5.113.307,5.011,1.431-2.659,2.556-3.272,5.522,1.943,6.239,3.885,2.555.511,2.045-1.328-3.17-3.069-4.6-3.786c2.658.307,4.344,1.074,5.126,2.2a1.143,1.143,0,0,0,2.15-.669c-.306-1.841-3.171-3.552-6.035-3.654,3.579,0,5.067.91,6.058,1.642,1.411,1.04,2.382-.578,1.11-1.781a10.46,10.46,0,0,0-6.773-1.932c2.268-.445,3.016.159,3.929-.173,1.125-.408-.043-2.076-4.032-1.054s-6.851-.716-7.668-2.557S671.666,923.572,671.666,923.572Z" transform="translate(-570.106 -882.795)" fill="#faccac"/>
          <path id="Trazado_114679" data-name="Trazado 114679" d="M661.07,880.783c2.431-7.071,10.492-5.9,10.82.328s3.606,20.656,8.2,25.9c-2.3,5.9-9.181,6.558-11.8,5.9C662.053,906.029,657.464,891.275,661.07,880.783Z" transform="translate(-566.643 -869.804)" fill="#ea3065"/>
          <path id="Trazado_114680" data-name="Trazado 114680" d="M645.94,932.069c2.761,2.659,4.7,2.555,5.419,2.148,3.272-1.024,5.522-1.024,5.419.2s-3.067,1.431-3.067,1.431,8.488.306,8.385,2.965c-.13,3.373-5.215-1.125-5.931-.511,4.6,2.863,5.215,4.3,3.681,5.318s-3.885-3.477-5.112-3.477c3.067,3.067,2.249,4.5.613,4.806-1.271.239-2.659-3.783-3.681-3.886,2.045,2.557,1.432,3.989.921,4.091-1.12.224-4.192-3.784-5.521-4.6s-5.42-2.659-6.444-6.033C642.156,932.58,645.94,932.069,645.94,932.069Z" transform="translate(-561.048 -886.179)" fill="#faccac"/>
          <path id="Trazado_114681" data-name="Trazado 114681" d="M605.093,871.368c-3.606,5.575-11.148,8.526-22.951,7.541s-21.312,7.542-20.984,15.411,4.918,13.115,2.95,13.443-8.2,2.3-9.507-.328-6.558-3.279-10.165,1.312-9.508,3.606-10.163,5.9,9.179,6.229,16.721,2.295c6.885,1.968,19.671,6.23,25.9,3.279s6.23-6.886,6.23-6.886,14.754,6.886,33.115-4.917,23.607-25.246,12.786-36.065S605.093,871.368,605.093,871.368Z" transform="translate(-530.01 -867.274)" fill="#e36099"/>
          <path id="Trazado_114682" data-name="Trazado 114682" d="M625.766,892.8c1.307-7.682,11.8-8.2,11.8-.327s3.278,21.312,8.524,25.246c.328,4.591-6.557,6.557-9.836,6.557S623.143,908.214,625.766,892.8Z" transform="translate(-556.585 -872.973)" fill="#ea3065"/>
          <path id="Trazado_114683" data-name="Trazado 114683" d="M601.784,927.078a3.152,3.152,0,0,0,.087-.613A25.388,25.388,0,0,0,609,928.232c-1.4-5.32-4.761-15.272-10.507-15.958C598.493,912.274,602.24,920.611,601.784,927.078Z" transform="translate(-548.756 -880.404)" fill="#ea3065"/>
        </g>
        <g id="Grupo_52982" data-name="Grupo 52982" transform="translate(54.048)">
          <g id="Grupo_52981" data-name="Grupo 52981" transform="translate(0 10.767)">
            <g id="Grupo_52980" data-name="Grupo 52980">
              <path id="Trazado_114684" data-name="Trazado 114684" d="M614.194,831.539c0,17.926,16.874,33,34.136,33s28.818-14.859,28.815-32.787-14-33.381-31.257-33.378S614.19,813.614,614.194,831.539Z" transform="translate(-607.386 -798.373)" fill="#faccac"/>
              <g id="Grupo_52967" data-name="Grupo 52967" transform="translate(0 30.005)">
                <g id="Grupo_52966" data-name="Grupo 52966">
                  <path id="Trazado_114685" data-name="Trazado 114685" d="M614.661,845.063a5.247,5.247,0,0,0-4.815-4.274c-4.633-.664-6.646,5.385-4.25,9.091s7.57,3.9,9.256,1.1Z" transform="translate(-604.581 -840.739)" fill="#faccac"/>
                  <path id="Trazado_114686" data-name="Trazado 114686" d="M610.341,843.01c3.041-.426,5.29,4.979,1.094,7.593,1.868-3.693.333-5.038-1.9-3.324.069-1.225.851-1.97,2.667-1.771A3.4,3.4,0,0,0,610.341,843.01Z" transform="translate(-606.025 -841.395)" fill="#d78561"/>
                </g>
              </g>
              <g id="Grupo_52979" data-name="Grupo 52979" transform="translate(20.39 20.795)">
                <path id="Trazado_114687" data-name="Trazado 114687" d="M664.656,844.532c.314,1.812,5.045,3.857,3.323,6.081-1.066,1.377-3.545,1.055-3.572-1.7C664.39,847.322,664.656,844.532,664.656,844.532Z" transform="translate(-642.426 -832.636)" fill="#ee7960"/>
                <g id="Grupo_52968" data-name="Grupo 52968" transform="translate(0 21.662)">
                  <path id="Trazado_114688" data-name="Trazado 114688" d="M645.434,861.977c.017,1.785-2.668,3.257-6,3.291s-6.046-1.386-6.063-3.169,2.667-3.258,6-3.292S645.415,860.194,645.434,861.977Z" transform="translate(-633.371 -858.462)" fill="#ee7960"/>
                  <path id="Trazado_114689" data-name="Trazado 114689" d="M693.806,861.49c.018,1.784-2.667,3.257-6,3.29s-6.045-1.385-6.063-3.169,2.667-3.257,6-3.29S693.789,859.705,693.806,861.49Z" transform="translate(-647.484 -858.32)" fill="#ee7960"/>
                </g>
                <path id="Trazado_114690" data-name="Trazado 114690" d="M685.219,828.011c-3.089-1.258-4.146,2.173-2.032,2.418,2.268.259,4.075,1.3,4.382,1.113C688.249,831.13,686.957,828.717,685.219,828.011Z" transform="translate(-647.583 -827.735)" fill="#12263f"/>
                <path id="Trazado_114691" data-name="Trazado 114691" d="M642.97,829.948c3.229-.836,3.82,2.706,1.691,2.667-2.283-.047-4.211.745-4.491.518C639.55,832.635,641.154,830.416,642.97,829.948Z" transform="translate(-635.315 -828.343)" fill="#12263f"/>
                <g id="Grupo_52973" data-name="Grupo 52973" transform="translate(13.947 24.884)">
                  <g id="Grupo_52972" data-name="Grupo 52972">
                    <g id="Grupo_52971" data-name="Grupo 52971">
                      <g id="Grupo_52969" data-name="Grupo 52969">
                        <path id="Trazado_114692" data-name="Trazado 114692" d="M671.617,863.381c-2.458-1.577-3.325.992-8.762,1.078-5.552.086-6.372-2.57-9.007-.45-2.15,1.728-.106,11.271,8.989,11.014C672,874.756,673.956,864.883,671.617,863.381Z" transform="translate(-653.063 -862.87)" fill="#5c2926"/>
                      </g>
                      <g id="Grupo_52970" data-name="Grupo 52970" transform="translate(6.496 1.117)">
                        <path id="Trazado_114693" data-name="Trazado 114693" d="M667.875,866.307c-.156,1.135.257,1.652,2.271,1.5,1.981-.153,1.411-1.256.508-3.358a13.289,13.289,0,0,1-2.708.44A9.355,9.355,0,0,1,667.875,866.307Z" transform="translate(-663.872 -864.446)" fill="#fff"/>
                        <path id="Trazado_114694" data-name="Trazado 114694" d="M665.842,866.481a9.065,9.065,0,0,1-.065-1.449c-.082,0-.163.006-.247.008a14.571,14.571,0,0,1-2.572-.177c-.841,1.943-1.291,2.968.612,3.115C665.583,868.132,666,867.616,665.842,866.481Z" transform="translate(-662.235 -864.568)" fill="#fff"/>
                      </g>
                    </g>
                  </g>
                  <path id="Trazado_114695" data-name="Trazado 114695" d="M657.965,876.979a9.576,9.576,0,0,0,6.3,1.894,10.038,10.038,0,0,0,5.992-2.033,19.861,19.861,0,0,0-6.3-.771A19.47,19.47,0,0,0,657.965,876.979Z" transform="translate(-654.493 -866.72)" fill="#ea7169"/>
                </g>
                <g id="Grupo_52978" data-name="Grupo 52978" transform="translate(1.1 7.464)">
                  <g id="Grupo_52975" data-name="Grupo 52975" transform="translate(0 0.624)">
                    <g id="Grupo_52974" data-name="Grupo 52974" transform="translate(0.397 0.663)">
                      <path id="Trazado_114696" data-name="Trazado 114696" d="M646.177,843.834a5.531,5.531,0,1,1-7.308-3.365A5.7,5.7,0,0,1,646.177,843.834Z" transform="translate(-635.485 -840.09)" fill="#fff"/>
                      <path id="Trazado_114697" data-name="Trazado 114697" d="M647.2,845.5a3.411,3.411,0,1,1-4.507-2.076A3.513,3.513,0,0,1,647.2,845.5Z" transform="translate(-636.981 -840.995)" fill="#262320"/>
                      <path id="Trazado_114698" data-name="Trazado 114698" d="M643.866,846.446a1,1,0,1,1-1-1.057A1.025,1.025,0,0,1,643.866,846.446Z" transform="translate(-637.35 -841.636)" fill="#fff"/>
                      <path id="Trazado_114699" data-name="Trazado 114699" d="M648.36,850.035a.618.618,0,1,1-.615-.654A.635.635,0,0,1,648.36,850.035Z" transform="translate(-638.882 -842.801)" fill="#fff"/>
                    </g>
                    <path id="Trazado_114700" data-name="Trazado 114700" d="M634.924,843.243s4.33-5.2,10.453-1.645C639.332,835.264,634.924,843.243,634.924,843.243Z" transform="translate(-634.924 -839.154)" fill="#d78561"/>
                  </g>
                  <g id="Grupo_52977" data-name="Grupo 52977" transform="translate(33.101)">
                    <g id="Grupo_52976" data-name="Grupo 52976" transform="translate(0 0.661)">
                      <path id="Trazado_114701" data-name="Trazado 114701" d="M682.025,843.154a5.531,5.531,0,1,0,7.176-3.64A5.7,5.7,0,0,0,682.025,843.154Z" transform="translate(-681.661 -839.206)" fill="#fff"/>
                      <path id="Trazado_114702" data-name="Trazado 114702" d="M687.007,844.747a3.411,3.411,0,1,0,4.425-2.244A3.513,3.513,0,0,0,687.007,844.747Z" transform="translate(-683.155 -840.113)" fill="#262320"/>
                      <path id="Trazado_114703" data-name="Trazado 114703" d="M692.347,845.531a1,1,0,1,0,.956-1.094A1.024,1.024,0,0,0,692.347,845.531Z" transform="translate(-684.778 -840.732)" fill="#fff"/>
                      <path id="Trazado_114704" data-name="Trazado 114704" d="M688.3,849.28a.618.618,0,1,0,.59-.676A.635.635,0,0,0,688.3,849.28Z" transform="translate(-683.596 -841.948)" fill="#fff"/>
                    </g>
                    <path id="Trazado_114705" data-name="Trazado 114705" d="M693.475,842.146s-4.523-5.036-10.507-1.251C688.769,834.338,693.475,842.146,693.475,842.146Z" transform="translate(-682.042 -838.273)" fill="#d78561"/>
                  </g>
                </g>
              </g>
            </g>
          </g>
          <path id="Trazado_114706" data-name="Trazado 114706" d="M638.77,798.727c.193-3.225,4.962-8.842,16.6-7.414,9.832,1.205,8.714-3.711,7.3-8.143,4.206.669,7.143,5.9,4.254,9.233,1.632,1.022,5.248-1.813,4.379-4.784,5.244,3.378,2.439,12.706-14.355,13.937,2.331,2.428,8.272.691,8.272.691s-10.25,7.234-18.081-.148C642.935,798.129,638.77,798.727,638.77,798.727Z" transform="translate(-614.556 -783.17)" fill="#12263f"/>
        </g>
      </g>
    </g>
    <g id="Grupo_53014" data-name="Grupo 53014" transform="translate(479.361 2372.443)">
      <path id="Trazado_114707" data-name="Trazado 114707" d="M984,693.517c.055,8.968-1.394,16.45-7.64,21.569s2.567,9.31,8.509,3.3c-20.416,19.823-14.709,38.949,6.036,29.2-8.327,21.9,36.6,36.574,53.3,4.937,2.11,12.661,28.1,14.506,15.915-22.785,5.7,8.245,12.726,3.659,5.475-8.851A16.419,16.419,0,0,1,1065.9,703Z" transform="translate(-960.134 -638.67)" fill="#12263f"/>
      <g id="Grupo_52986" data-name="Grupo 52986" transform="translate(0 75.15)">
        <g id="Grupo_52985" data-name="Grupo 52985">
          <path id="Trazado_114708" data-name="Trazado 114708" d="M981.549,756.421s-10.945-.744-20.182-18.107c-2.438-.431-3.679-2.938-4.621-6.577-1.475-2.361-2.071-4.225-1.047-4.6,1.065-.388,2.481,2.371,2.929,3-.014-.126-1.386-3.693-1.629-4.5-.573-1.88,1.142-2.659,1.928-1.138.657,1.277,1.96,4.312,2.04,4.463-.017-.164-.9-4.052-1.069-4.767-.511-2.1,1.753-2.97,2.387-.565.432,1.63,1.085,4.524,1.208,4.756.067-.118.108-2.37.229-3.695.2-2.19,2.093-2.324,2.3.181.158,1.98.758,6.692.758,6.692s1.687-2.711,2.9-1.375-2.363,5.582-2.363,5.582,5.941,11.485,18.059,13.791A58.634,58.634,0,0,1,981.549,756.421Z" transform="translate(-955.187 -722.183)" fill="#faccac"/>
        </g>
      </g>
      <path id="Trazado_114709" data-name="Trazado 114709" d="M1054.454,753.334c6.486,1.273,4.258,17.729,9.381,37.234s.607,18.929-10.8,21.51-47.5,5.963-52.23-2.024,2.13-54.733,6.851-56.124S1040.446,750.583,1054.454,753.334Z" transform="translate(-968.033 -655.717)" fill="#009bbf"/>
      <g id="Grupo_52989" data-name="Grupo 52989" transform="translate(40.177 170.062)">
        <path id="Trazado_114710" data-name="Trazado 114710" d="M1028.721,857.513v52.223c3.32,1.023,5.606-2.812,5.606-2.812V857.707C1033.132,854.425,1028.721,857.513,1028.721,857.513Z" transform="translate(-1016.819 -856.196)" fill="#faccac"/>
        <g id="Grupo_52988" data-name="Grupo 52988" transform="translate(0 46.23)">
          <g id="Grupo_52987" data-name="Grupo 52987">
            <path id="Trazado_114711" data-name="Trazado 114711" d="M1029.934,935.745c.588,1.5.441,4.332-3.1,7.08s-7.527,4.559-12.58,2.577c-4.25-1.669-1.4-6.283-1.4-6.283Z" transform="translate(-1011.916 -925.636)" fill="#e7e7e8"/>
            <path id="Trazado_114712" data-name="Trazado 114712" d="M1029.938,926.906c1,1.1,1.332,6.643-1.349,8.779s-7.449,6.015-13.554,4.026c-4.788-1.559-1.361-5.521,1.273-7.03a78.56,78.56,0,0,0,7.721-5.821S1024.643,929.612,1029.938,926.906Z" transform="translate(-1012.127 -923.043)" fill="#3d3a37"/>
            <path id="Trazado_114713" data-name="Trazado 114713" d="M1031.651,926.267c.324-.224,1.266-2.684.82-3.5-.841-1.541-5.759-1.591-5.99-.746-.4,1.458.87,3.721.87,3.721A4.267,4.267,0,0,0,1031.651,926.267Z" transform="translate(-1016.143 -921.471)" fill="#3d3a37"/>
          </g>
          <path id="Trazado_114714" data-name="Trazado 114714" d="M1024.419,928.856a5.632,5.632,0,0,1,5.434,1.946,1.394,1.394,0,0,1-1.1,2.289c-.8-.1-3.065-1.313-5.671-1.764S1022.865,929.233,1024.419,928.856Z" transform="translate(-1014.836 -923.591)" fill="#ffcf00"/>
          <path id="Trazado_114715" data-name="Trazado 114715" d="M1019.317,932.871a5.633,5.633,0,0,1,5.434,1.946,1.394,1.394,0,0,1-1.1,2.29c-.8-.1-3.065-1.314-5.67-1.762S1017.764,933.249,1019.317,932.871Z" transform="translate(-1013.348 -924.762)" fill="#ffcf00"/>
        </g>
      </g>
      <g id="Grupo_52992" data-name="Grupo 52992" transform="translate(65.492 170.062)">
        <path id="Trazado_114716" data-name="Trazado 114716" d="M1054.728,857.513v52.223c-3.32,1.023-5.606-2.812-5.606-2.812V857.707C1050.317,854.425,1054.728,857.513,1054.728,857.513Z" transform="translate(-1048.086 -856.196)" fill="#faccac"/>
        <g id="Grupo_52991" data-name="Grupo 52991" transform="translate(0 46.23)">
          <g id="Grupo_52990" data-name="Grupo 52990">
            <path id="Trazado_114717" data-name="Trazado 114717" d="M1048.293,935.745c-.589,1.5-.442,4.332,3.1,7.08s7.526,4.559,12.58,2.577c4.249-1.669,1.4-6.283,1.4-6.283Z" transform="translate(-1047.767 -925.636)" fill="#e7e7e8"/>
            <path id="Trazado_114718" data-name="Trazado 114718" d="M1048.393,926.906c-1,1.1-1.333,6.643,1.348,8.779s7.448,6.015,13.554,4.026c4.788-1.559,1.361-5.521-1.273-7.03a78.5,78.5,0,0,1-7.722-5.821S1053.688,929.612,1048.393,926.906Z" transform="translate(-1047.659 -923.043)" fill="#3d3a37"/>
            <path id="Trazado_114719" data-name="Trazado 114719" d="M1051.561,926.267c-.324-.224-1.266-2.684-.82-3.5.841-1.541,5.76-1.591,5.989-.746.4,1.458-.869,3.721-.869,3.721A4.268,4.268,0,0,1,1051.561,926.267Z" transform="translate(-1048.523 -921.471)" fill="#3d3a37"/>
          </g>
          <path id="Trazado_114720" data-name="Trazado 114720" d="M1057.949,928.856a5.633,5.633,0,0,0-5.434,1.946,1.394,1.394,0,0,0,1.1,2.289c.8-.1,3.065-1.313,5.671-1.764S1059.5,929.233,1057.949,928.856Z" transform="translate(-1048.987 -923.591)" fill="#ffcf00"/>
          <path id="Trazado_114721" data-name="Trazado 114721" d="M1063.051,932.871a5.631,5.631,0,0,0-5.434,1.946,1.394,1.394,0,0,0,1.1,2.29c.8-.1,3.066-1.314,5.671-1.762S1064.605,933.249,1063.051,932.871Z" transform="translate(-1050.476 -924.762)" fill="#ffcf00"/>
        </g>
      </g>
      <g id="Grupo_52994" data-name="Grupo 52994" transform="translate(50.156 89.511)">
        <g id="Grupo_52993" data-name="Grupo 52993">
          <path id="Trazado_114722" data-name="Trazado 114722" d="M1047.581,752.319a57.529,57.529,0,0,1-6.709-1.776,31.663,31.663,0,0,1,.656-7.191l-6.215-.893s-.724,5.551-.738,7.787c-4.58.984-8.407,1.428-8.407,1.428s-2.213,11.172,9.669,12.264C1040,764.321,1046.435,760.059,1047.581,752.319Z" transform="translate(-1026.005 -742.46)" fill="#faccac"/>
        </g>
        <path id="Trazado_114723" data-name="Trazado 114723" d="M1039.428,744.477l4.836.41s-.268,5.734-.322,7.334c-1.447-1.8-3.819-2.23-4.68-.477C1039.355,748.559,1039.428,744.477,1039.428,744.477Z" transform="translate(-1029.873 -743.048)" fill="#f1bd97"/>
      </g>
      <g id="Grupo_52996" data-name="Grupo 52996" transform="translate(25.102 98.135)">
        <g id="Grupo_52995" data-name="Grupo 52995">
          <path id="Trazado_114724" data-name="Trazado 114724" d="M1014.915,756.114c2.964,15.174,15.691,14.256,22.778-.949,2.512-.182,19.5,4.412,22.768,18.491-1.281,1.848-6.509-1.619-9.594,3.277-.312.494-3.1-.767-3.5-.313-.223,8.538,1.6,18.508,1.938,26.525,0,0-14.821,5.565-39.256,4.171-.009,0-.96-27.576-2.484-34.934,1.285-.453-6.157,3.513-16.522-.026-1.545-.528,1.55-11.788,4.077-14.42C1004.371,759.429,1004.975,757.241,1014.915,756.114Z" transform="translate(-990.63 -754.79)" fill="#e36099"/>
          <path id="Trazado_114725" data-name="Trazado 114725" d="M1027.58,754.95c-.42,5.065,1.838,8.5,7.074,9.006,6.687.647,10.034-3.806,10.38-9.318a33.7,33.7,0,0,0,4.911.648s.159,12.949-14.412,13.644c-13.845.661-12.736-13.407-12.736-13.407Z" transform="translate(-1000.009 -754.638)" fill="#fff"/>
        </g>
      </g>
      <g id="Grupo_52997" data-name="Grupo 52997" transform="translate(37.391 138.597)">
        <path id="Trazado_114726" data-name="Trazado 114726" d="M1008.543,842.985a58.576,58.576,0,0,0,21.1,2.8c.758-2.227,1.059-5.419,2.654-8.725,1.117,2.122,1.914,5.812,2.941,9.152,4.629-.6,14.409-1.443,20.958-3.368-.379-12.044-1.3-20.651-2.181-29.543-9.329,3.019-30.119,5.276-39.872,4.239C1009.486,827.634,1009.4,838.085,1008.543,842.985Z" transform="translate(-1008.146 -812.215)" fill="#ea3065"/>
        <path id="Trazado_114727" data-name="Trazado 114727" d="M1035.777,820.654a121.931,121.931,0,0,0,20.5-2.441c-.03-2.2-.06-4.3-.094-6.3-9.547,2.241-30.2,3.564-40.267-.149.05,1.99-.87,4.871-.807,7.067A138.112,138.112,0,0,0,1035.777,820.654Z" transform="translate(-1010.06 -811.768)" fill="#a22f5f"/>
        <path id="Trazado_114728" data-name="Trazado 114728" d="M1060.74,826.16s2.567,4.785,6.433,6.813c-.468,1.263-1.46,3.389-1.46,3.389s-7.393-4.012-8.873-8.987A9.666,9.666,0,0,0,1060.74,826.16Z" transform="translate(-1022.237 -815.967)" fill="#a22f5f"/>
        <path id="Trazado_114729" data-name="Trazado 114729" d="M1018.689,825.371s-2.565,4.786-6.431,6.813c.465,1.262,1.458,3.388,1.458,3.388s7.394-4.011,8.873-8.986A9.673,9.673,0,0,1,1018.689,825.371Z" transform="translate(-1009.23 -815.737)" fill="#a22f5f"/>
        <path id="Trazado_114730" data-name="Trazado 114730" d="M1030.191,855.306a72.322,72.322,0,0,1-21.84-1.567c-.206,3.091-.5,7.664-.3,8.252,0,0,14.273,2.8,21.575.759C1029.669,861.423,1029.813,858.483,1030.191,855.306Z" transform="translate(-1007.982 -824.014)" fill="#a22f5f"/>
        <path id="Trazado_114731" data-name="Trazado 114731" d="M1045.073,855.306a72.326,72.326,0,0,0,21.841-1.567c.206,3.091.5,7.664.3,8.252,0,0-14.273,2.8-21.575.759C1045.594,861.423,1045.453,858.483,1045.073,855.306Z" transform="translate(-1018.804 -824.014)" fill="#a22f5f"/>
        <path id="Trazado_114732" data-name="Trazado 114732" d="M1040.859,818.885a2.317,2.317,0,0,1-2.542,2.069h0a2.316,2.316,0,0,1-2.07-2.539h0a2.316,2.316,0,0,1,2.543-2.071h0a2.317,2.317,0,0,1,2.069,2.541Z" transform="translate(-1016.225 -813.099)" fill="#ffcf00"/>
      </g>
      <g id="Grupo_52998" data-name="Grupo 52998" transform="translate(82.581 114.728)">
        <path id="Trazado_114733" data-name="Trazado 114733" d="M1081.548,778.066a42.435,42.435,0,0,1,1.783,32.808c1.812,1.5,2.227,4.531,1.3,7.989.105,2.648-.273,4.468-1.3,4.3-1.061-.178-.94-3.125-1.014-3.862-.044.113-.448,2.72-.623,3.506-.409,1.818-2.065.827-2.062-.074,0-1.365.194-3.395.207-3.561-.069.147-.858,2.932-1.046,3.6a1.232,1.232,0,0,1-2.446-.261c.394-1.557,1.118-3.8,1.124-4.048-.108.064-1.2,1.905-1.924,2.954-1.194,1.716-2.822.929-1.816-1.234.8-1.71,2.259-6.077,2.259-6.077s-3.805,1.647-4.186-.025,5.976-3.525,5.976-3.525,4.316-18.307-2.023-27.483A68.174,68.174,0,0,0,1081.548,778.066Z" transform="translate(-1071.788 -778.066)" fill="#faccac"/>
      </g>
      <path id="Trazado_114734" data-name="Trazado 114734" d="M1084.2,781.758c-9.913,2.132-9.9,2.132-15.96,1.473a20.094,20.094,0,0,1-.36-4.225c2.716.49,8.567.258,15.709-1.866C1083.97,779.1,1084.2,781.758,1084.2,781.758Z" transform="translate(-988.067 -663.068)" fill="#fff"/>
      <path id="Trazado_114735" data-name="Trazado 114735" d="M1067.436,756.835l-7.835-2.064s2.268,27.079,10.182,38.383C1068.555,773.837,1067.436,756.835,1067.436,756.835Z" transform="translate(-985.651 -656.541)" fill="#0a4b6e"/>
      <path id="Trazado_114736" data-name="Trazado 114736" d="M1020.805,755.169s-2.424,28-5.866,35.731c-2.3-27.577-1.953-33.416-1.953-33.416Z" transform="translate(-972.045 -656.658)" fill="#0a4b6e"/>
      <path id="Trazado_114737" data-name="Trazado 114737" d="M991.538,757.509c-3.3,9.59-3.295,9.574-3.362,15.673a20.263,20.263,0,0,0,4.152.86c-.163-2.755.763-8.537,3.721-15.377C994.148,758.058,991.538,757.509,991.538,757.509Z" transform="translate(-964.812 -657.34)" fill="#fff"/>
      <g id="Grupo_53013" data-name="Grupo 53013" transform="translate(19.371)">
        <g id="Grupo_53012" data-name="Grupo 53012">
          <g id="Grupo_53011" data-name="Grupo 53011">
            <g id="Grupo_53010" data-name="Grupo 53010">
              <path id="Trazado_114738" data-name="Trazado 114738" d="M1072.269,643.533c-10.944-22.934-39.805-34.985-62.011-22.341-16.226,9.239-10.577,16.119-10.577,16.119s-12.094-3.539-16.628,11.337c-1.494,4.9-.139,23.7,9.514,24.881,0,0,22.817,2.171,35.833,2.913,12.74,2.779,37.87,7.16,37.87,7.16C1080.963,667.334,1076.131,651.626,1072.269,643.533Z" transform="translate(-982.538 -616.075)" fill="#12263f"/>
              <path id="Trazado_114739" data-name="Trazado 114739" d="M997.083,682.623c-2.739,20.076,11.1,35.578,30.434,38.216s36.822-8.587,39.561-28.663-10.8-37.764-30.135-40.4S999.823,662.549,997.083,682.623Z" transform="translate(-986.681 -626.394)" fill="#faccac"/>
              <g id="Grupo_53001" data-name="Grupo 53001" transform="translate(0.226 50.839)">
                <g id="Grupo_52999" data-name="Grupo 52999">
                  <path id="Trazado_114740" data-name="Trazado 114740" d="M994.409,693.589s.086-4.142-4.737-5.523c-5.087-1.453-8.268,5.013-6.151,9.53s7.88,5.527,10.2,2.644Z" transform="translate(-982.857 -687.858)" fill="#faccac"/>
                  <path id="Trazado_114741" data-name="Trazado 114741" d="M990,690.42c3.471-.011,5.162,6.386.062,8.672,2.657-3.849,1.144-5.591-1.621-4.014.266-1.36,1.255-2.076,3.257-1.572C991.85,691.67,990,690.42,990,690.42Z" transform="translate(-984.485 -688.605)" fill="#d78561"/>
                </g>
                <g id="Grupo_53000" data-name="Grupo 53000" transform="translate(77.857 10.895)">
                  <path id="Trazado_114742" data-name="Trazado 114742" d="M1093.9,707.294s1.026-4.014,6.042-4.052c5.293-.035,6.621,7.047,3.376,10.83s-9.073,3.213-10.533-.185Z" transform="translate(-1092.787 -703.242)" fill="#faccac"/>
                  <path id="Trazado_114743" data-name="Trazado 114743" d="M1102.241,705.878c-3.342-.938-6.685,4.771-2.384,8.338-1.528-4.421.4-5.693,2.637-3.433.11-1.382-.652-2.336-2.715-2.39C1100.119,706.587,1102.241,705.878,1102.241,705.878Z" transform="translate(-1094.255 -703.981)" fill="#d78561"/>
                </g>
              </g>
              <path id="Trazado_114744" data-name="Trazado 114744" d="M1045.985,696.5c-.329,2.123,4.144,6.152,1.409,7.97-1.694,1.125-4.317-.154-3.32-3.211C1044.652,699.49,1045.985,696.5,1045.985,696.5Z" transform="translate(-1000.428 -639.541)" fill="#ee7960"/>
              <g id="Grupo_53002" data-name="Grupo 53002" transform="translate(17.933 62.465)">
                <path id="Trazado_114745" data-name="Trazado 114745" d="M1021.839,709.085c-.283,2.065-3.636,3.311-7.49,2.784s-6.753-2.628-6.471-4.692,3.637-3.31,7.492-2.783S1022.121,707.021,1021.839,709.085Z" transform="translate(-1007.858 -704.273)" fill="#ee7960"/>
                <path id="Trazado_114746" data-name="Trazado 114746" d="M1077.823,716.735c-.282,2.065-3.636,3.311-7.493,2.783s-6.751-2.626-6.469-4.691,3.637-3.311,7.492-2.785S1078.105,714.672,1077.823,716.735Z" transform="translate(-1024.192 -706.505)" fill="#ee7960"/>
              </g>
              <g id="Grupo_53005" data-name="Grupo 53005" transform="translate(21.162 43.566)">
                <g id="Grupo_53003" data-name="Grupo 53003" transform="translate(41.913 5.282)">
                  <path id="Trazado_114747" data-name="Trazado 114747" d="M1071.6,686.828c1.491-3.316,7.92-2.045,9.214,4.174C1078.364,687.478,1071.6,686.828,1071.6,686.828Z" transform="translate(-1071.597 -685.047)" fill="#12263f"/>
                </g>
                <g id="Grupo_53004" data-name="Grupo 53004">
                  <path id="Trazado_114748" data-name="Trazado 114748" d="M1022.414,680.29c-.546-3.594-7.08-4.1-10,1.548C1015.721,679.1,1022.414,680.29,1022.414,680.29Z" transform="translate(-1012.418 -677.589)" fill="#12263f"/>
                </g>
              </g>
              <path id="Trazado_114749" data-name="Trazado 114749" d="M1020.277,690.177c4.5.827,5.512,6.443,5.556,6.2a6.582,6.582,0,1,0-12.948-2.372C1012.839,694.247,1015.456,689.293,1020.277,690.177Z" transform="translate(-991.392 -637.217)" fill="#7c462f"/>
              <path id="Trazado_114750" data-name="Trazado 114750" d="M1069.748,697.511c4.505.824,5.513,6.443,5.555,6.2a6.581,6.581,0,1,0-12.946-2.373C1062.311,701.58,1064.927,696.626,1069.748,697.511Z" transform="translate(-1005.826 -639.357)" fill="#7c462f"/>
              <g id="Grupo_53009" data-name="Grupo 53009" transform="translate(33.18 66.97)">
                <g id="Grupo_53008" data-name="Grupo 53008">
                  <g id="Grupo_53007" data-name="Grupo 53007">
                    <g id="Grupo_53006" data-name="Grupo 53006">
                      <path id="Trazado_114751" data-name="Trazado 114751" d="M1050.089,713.705c-2.278-3.242-3.787,1.208-9.631.427-5.965-.8-6.247-5.684-9.548-2.345-2.693,2.724-2.651,20.144,7.15,21.24C1047.939,734.118,1052.256,716.793,1050.089,713.705Z" transform="translate(-1029.387 -710.633)" fill="#612a26"/>
                    </g>
                  </g>
                </g>
                <path id="Trazado_114752" data-name="Trazado 114752" d="M1032.7,735.637a8.039,8.039,0,0,0,13.2,1.854,13.952,13.952,0,0,0-6.575-2.455A13.327,13.327,0,0,0,1032.7,735.637Z" transform="translate(-1030.355 -717.708)" fill="#ea7169"/>
                <path id="Trazado_114753" data-name="Trazado 114753" d="M1050.353,712.805c-1.881-1.264-3.686,2.007-8.767,1.329-5.143-.684-6.063-4.409-8.332-3.287,1.186,3.957,3.585,7.338,7.73,7.8C1045.09,719.1,1048.234,716.37,1050.353,712.805Z" transform="translate(-1030.515 -710.634)" fill="#fff"/>
              </g>
            </g>
            <path id="Trazado_114754" data-name="Trazado 114754" d="M1017.3,653.975c-8.15,6.566-4.313,9.563-.942,8.478,4.328-1.394,4.942-7.1,4.942-7.1s21.5,20.643,32.106,14.481c5.514-3.2-.484-12.7-.484-12.7s6.851,12.847,12.409,10.188c8.674-4.147-13.4-20.136-25.267-20.692S1017.3,653.975,1017.3,653.975Z" transform="translate(-991.263 -624.982)" fill="#12263f"/>
          </g>
        </g>
      </g>
    </g>
  </g>
</svg>
