<svg xmlns="http://www.w3.org/2000/svg" xmlns:xlink="http://www.w3.org/1999/xlink" width="150" height="150" viewBox="0 0 150 150">
  <defs>
    <clipPath id="clip-path">
      <circle id="Elipse_5307" data-name="Elipse 5307" cx="65.172" cy="65.172" r="65.172" transform="translate(296.665 777.504)" fill="none"/>
    </clipPath>
    <linearGradient id="linear-gradient" x1="1.063" y1="0.521" x2="0.621" y2="0.487" gradientUnits="objectBoundingBox">
      <stop offset="0" stop-color="#f4eded"/>
      <stop offset="1" stop-color="#e8dddd"/>
    </linearGradient>
  </defs>
  <g id="Grupo_55106" data-name="Grupo 55106" transform="translate(-348 -4278)">
    <rect id="Rectángulo_29023" data-name="Rectángulo 29023" width="150" height="150" transform="translate(348 4278)" fill="none"/>
    <g id="Grupo_53027" data-name="Grupo 53027" transform="translate(61.335 3510.496)">
      <circle id="Elipse_5306" data-name="Elipse 5306" cx="65.172" cy="65.172" r="65.172" transform="translate(296.665 777.504)" fill="#ea3065"/>
      <g id="Grupo_53026" data-name="Grupo 53026">
        <g id="Grupo_53025" data-name="Grupo 53025" clip-path="url(#clip-path)">
          <g id="Grupo_53024" data-name="Grupo 53024">
            <path id="Trazado_114789" data-name="Trazado 114789" d="M331.274,864.215c.049-.393-4.928-11.262,6.466-12.441s35.1,14.537,35.1,14.537l-3.517,19.834Z" fill="#e8dddd"/>
            <path id="Trazado_114790" data-name="Trazado 114790" d="M332.614,840.888l2.638,7.121s.275,19.88,14.929,20.415,17.942-2.244,17.942-2.244l16.763-11.49a12.543,12.543,0,0,0,3.274-8.023c8.251,2.488,10.215-1.736,8.9-5.779s-4.321-3.342-4.321-3.342-12.737-30.823-31.644-28.465S331.547,832.752,332.614,840.888Z" fill="#ffb692"/>
            <path id="Trazado_114791" data-name="Trazado 114791" d="M299.859,933.992l1.507-.23a5.189,5.189,0,0,1-.754,2.538c-.654.688-4.485.982-6.007,1.571a20.89,20.89,0,0,1-7.465,1.67c-4.42.344-1.264-1.856,4.206-3.972S299.859,933.992,299.859,933.992Z" fill="#442c2c"/>
            <path id="Trazado_114792" data-name="Trazado 114792" d="M301.1,918.571s-4.06,13.1-5.108,14.144-7.727,4.321-6.679,4.321,10.608-2.357,12.049-3.274,8.381-11.131,8.381-11.131Z" fill="#ffb692"/>
            <path id="Trazado_114793" data-name="Trazado 114793" d="M339.966,865.373a16.624,16.624,0,0,0-13.554-4.895c-8.644.791-12.769,6.618-16.174,17.357s-11.328,43.25-11.328,43.25l12.114,4.84,21.59-20.85s6.108,16.632,12.558,24.1,15.617,6.81,19.022,3.733S339.966,865.373,339.966,865.373Z" fill="#12263f"/>
            <path id="Trazado_114794" data-name="Trazado 114794" d="M308.732,937.39l1.506-.229a5.179,5.179,0,0,1-.753,2.537c-.655.688-4.485.982-6.008,1.572a20.9,20.9,0,0,1-7.465,1.67c-4.42.343-1.263-1.856,4.206-3.973S308.732,937.39,308.732,937.39Z" fill="#442c2c"/>
            <path id="Trazado_114795" data-name="Trazado 114795" d="M309.976,921.969s-4.059,13.1-5.107,14.144-7.727,4.322-6.679,4.322,10.608-2.357,12.048-3.274,8.382-11.132,8.382-11.132Z" fill="#ffb692"/>
            <path id="Trazado_114796" data-name="Trazado 114796" d="M363.932,881.633s-6.087-13.751-14.568-17.811-17.19.655-22.068,11.394-19.995,47.67-19.995,47.67l13.283,6.81,21.74-31.038s7.334,22.395,14.929,31.038,23.311,11.394,33.134,3.209C393.529,910.314,363.932,881.633,363.932,881.633Z" fill="#0a4b6e"/>
            <path id="Trazado_114797" data-name="Trazado 114797" d="M333.189,835.315a42.523,42.523,0,0,0,2.063,12.694c-6.188-5.009-7.956-14.242-7.956-14.242Z" fill="#c9885d"/>
            <path id="Trazado_114798" data-name="Trazado 114798" d="M370.415,819.034s-9.268,16.987-28.747,18.512-27.632-10.654-27.632-10.654,4.911,1.571,8.054.294c-7.7.182-13.358-7.465-13.358-7.465s11.492-.589,16.7-7.759,13.358-24.85,42.824-27.207,36.538,27.562,24.49,52.791C383.707,840.642,373.23,834.88,370.415,819.034Z" fill="#12263f"/>
            <path id="Trazado_114799" data-name="Trazado 114799" d="M369.956,872.738c-.13.645-7.3-3.513-7.3-3.513s-.818-10.9,6.123-15.748,17.811-6.077,26.716,9.664,14.144,50.578-5.107,69.764c-2.62-11.067-4.584-18.662-8.382-23.9s-13.358-8.643-13.358-8.643Z" fill="#f4eded"/>
            <path id="Trazado_114800" data-name="Trazado 114800" d="M313.087,866.744a3.142,3.142,0,0,1,2.543-1.371c1.688.005,4.167.7,3.946,1.164s-4.16.247-4.16.247,3.507.784,2.966,1.078-4.181.055-4.181.055,3.664.077,3.457.788-4.043.127-4.043.127,2.561.515,2.212,1.152-3.1.784-3.736.374S312.261,867.57,313.087,866.744Z" fill="#ffb692"/>
            <path id="Trazado_114801" data-name="Trazado 114801" d="M344.926,876.2l.246-2.652s-3.045-4.059-4.911-4.608-6.384-.647-5.844-.353a26.567,26.567,0,0,0,3,.933s-4.568-.343-4.273.1,2.947,1.031,2.947,1.031-3.88-.589-3.438-.1,2.848.835,2.848.835-3.536.147-2.5.638a31.55,31.55,0,0,0,3.388.933c.442.2,5.01,4.42,6.041,4.076Z" fill="#ffb692"/>
            <path id="Trazado_114802" data-name="Trazado 114802" d="M345.172,873.547s13.111,12.277,14.757,10.9,2.726-15.224,2.726-15.224,8.447-2.161,17.877,5.4c-6.188,20.626-7.858,27.894-15.814,28.68s-20.072-8.84-23.05-26.814C343.994,874.529,345.172,873.547,345.172,873.547Z" fill="#ffb692"/>
            <path id="Trazado_114803" data-name="Trazado 114803" d="M345.357,849.156c.518,1.045.346,2.186-.383,2.547s-1.74-.193-2.257-1.239-.347-2.185.382-2.546S344.839,848.112,345.357,849.156Z" fill="#422e24"/>
            <path id="Trazado_114804" data-name="Trazado 114804" d="M363.56,843.329c.518,1.045.347,2.185-.382,2.546s-1.74-.193-2.258-1.238-.346-2.185.383-2.547S363.043,842.283,363.56,843.329Z" fill="#422e24"/>
            <path id="Trazado_114805" data-name="Trazado 114805" d="M355.584,838.391a12.973,12.973,0,0,0,5.352,1.375c3.193.147,2.706-1.326,1.3-1.964s-4.348-2.112-5.576-2.456S353.758,837.644,355.584,838.391Z" fill="#c9885d"/>
            <path id="Trazado_114806" data-name="Trazado 114806" d="M344.511,841.908a12.991,12.991,0,0,1-3.352,4.394c-2.416,2.093-2.946.634-2.24-.735s2.107-4.351,2.858-5.381S345.483,840.191,344.511,841.908Z" fill="#c9885d"/>
            <path id="Trazado_114807" data-name="Trazado 114807" d="M349.445,843.564a19.984,19.984,0,0,1,.982,6.557c-.2,3.094-1.621,3.585-.688,5.5s3.438.147,3.438-3.683-2.455-7.858-3-8.742S349.17,842.636,349.445,843.564Z" fill="#f2886b"/>
            <path id="Trazado_114808" data-name="Trazado 114808" d="M353.717,860.974s.639-1.473,3.143-1.719,3.684.393,2.75.86a18.158,18.158,0,0,1-4.076,1.547C354.454,861.809,353.423,861.907,353.717,860.974Z" fill="#b52b24"/>
            <path id="Trazado_114809" data-name="Trazado 114809" d="M390.68,845.2s-.5-4.026,1.394-5.591,3.536,1.679,3.536,1.679-1.326-1.381-2.416-.978-1.211,2.059-1.211,2.059,1.3-.687,2.22,1.113-.62-.166-1.428-.137S392.505,846.952,390.68,845.2Z" fill="#f2986b"/>
            <path id="Trazado_114810" data-name="Trazado 114810" d="M380.532,874.627l2.53-12.249a129.141,129.141,0,0,1,4.047,25.481c.973,15.026-2.919,24.792-2.919,24.792s-3.635-7.027-14.033-11.694C377.055,891.1,380.532,874.627,380.532,874.627Z" fill="url(#linear-gradient)"/>
          </g>
        </g>
      </g>
    </g>
  </g>
</svg>
