<svg xmlns="http://www.w3.org/2000/svg" width="165.304" height="165.304" viewBox="0 0 165.304 165.304">
  <g id="Grupo_55339" data-name="Grupo 55339" transform="translate(9407 6123)">
    <circle id="Base" cx="82.652" cy="82.652" r="82.652" transform="translate(-9407 -6123)" fill="#ea3065"/>
    <g id="phone-call" transform="translate(-9368 -6084)">
      <g id="Grupo_55263" data-name="Grupo 55263">
        <g id="Grupo_55262" data-name="Grupo 55262">
          <path id="Trazado_119894" data-name="Trazado 119894" d="M15.909,30.475l9.925-1.864A5.117,5.117,0,0,0,30,23.585V5.114A5.12,5.12,0,0,0,24.89,0,24.918,24.918,0,0,0,0,24.89V62.395a24.918,24.918,0,0,0,24.89,24.89A5.12,5.12,0,0,0,30,82.17V63.7a5.117,5.117,0,0,0-4.17-5.026l-9.925-1.864a1.706,1.706,0,0,1-1.39-1.675V32.151A1.706,1.706,0,0,1,15.909,30.475ZM15.28,60.16,25.2,62.024a1.706,1.706,0,0,1,1.39,1.675V82.17a1.707,1.707,0,0,1-1.7,1.7,21.44,21.44,0,0,1-5.455-.7V69.523a1.7,1.7,0,0,0-3.41,0V81.959A21.51,21.51,0,0,1,3.41,62.395V24.89A21.51,21.51,0,0,1,16.025,5.326V19.767a1.7,1.7,0,0,0,3.41,0V4.112a21.44,21.44,0,0,1,5.455-.7,1.707,1.707,0,0,1,1.7,1.7V23.585A1.706,1.706,0,0,1,25.2,25.26L15.28,27.124a5.117,5.117,0,0,0-4.17,5.026V55.134A5.117,5.117,0,0,0,15.28,60.16Z" fill="#fff"/>
        </g>
      </g>
      <g id="Grupo_55265" data-name="Grupo 55265" transform="translate(72.652 67.756)">
        <g id="Grupo_55264" data-name="Grupo 55264">
          <path id="Trazado_119895" data-name="Trazado 119895" d="M429.08,397.95a1.7,1.7,0,1,0,.5,1.205A1.718,1.718,0,0,0,429.08,397.95Z" transform="translate(-426.17 -397.45)" fill="#fff"/>
        </g>
      </g>
      <g id="Grupo_55267" data-name="Grupo 55267" transform="translate(37.215 16.11)">
        <g id="Grupo_55266" data-name="Grupo 55266">
          <path id="Trazado_119896" data-name="Trazado 119896" d="M260.552,133.737l-8.1-1.842c-1.954-.667-1.954-1.144-1.954-1.566V128.1a1.7,1.7,0,0,0-.023-.267,13.186,13.186,0,0,0,5.3-6.84h.573a4.887,4.887,0,0,0,4.881-4.881V112.92a4.886,4.886,0,0,0-4.773-4.878v-.415a13.127,13.127,0,1,0-26.254,0v.415a4.886,4.886,0,0,0-4.773,4.878v3.194A4.886,4.886,0,0,0,230.314,121h.573a13.186,13.186,0,0,0,5.284,6.829c0,.052-.008.105-.008.159v2.346c0,.422,0,.9-1.954,1.566l-8.1,1.842c-6.8,1.438-7.814,5.463-7.814,7.736v6.386a1.7,1.7,0,0,0,1.7,1.7h28.845a1.7,1.7,0,1,0,0-3.41H221.708v-4.681c0-.822,0-3.324,5.121-4.4l.027-.006,5.6-1.274a24.9,24.9,0,0,0,21.757,0l5.6,1.273.027.006c5.124,1.08,5.124,3.581,5.124,4.4v4.681h-3.622a1.7,1.7,0,1,0,0,3.41h5.326a1.7,1.7,0,0,0,1.7-1.7v-6.386C268.368,139.2,267.353,135.175,260.552,133.737Zm-4.092-16.9v-5.378a1.472,1.472,0,0,1,1.364,1.466v3.194a1.472,1.472,0,0,1-1.387,1.467C256.452,117.334,256.46,117.084,256.46,116.833Zm-27.617-.718v-3.194a1.472,1.472,0,0,1,1.364-1.466v5.378c0,.252.009.5.023.749A1.472,1.472,0,0,1,228.843,116.115Zm4.774-8.488a9.717,9.717,0,1,1,19.434,0v.882h-.939a6.042,6.042,0,0,1-3.082-.837q.5-.432.972-.9a1.7,1.7,0,0,0-2.411-2.411,14.391,14.391,0,0,1-10.243,4.243h-3.731Zm3.92,26.465a4.322,4.322,0,0,0,2.036-3.763v-.922a13.091,13.091,0,0,0,7.519,0v.921a4.322,4.322,0,0,0,2.037,3.763A21.264,21.264,0,0,1,237.537,134.092Zm5.8-7.542a9.728,9.728,0,0,1-9.717-9.717V112.01h3.731a17.8,17.8,0,0,0,8.723-2.262,9.416,9.416,0,0,0,6.04,2.171h.94v4.914A9.728,9.728,0,0,1,243.334,126.55Z" transform="translate(-218.299 -94.5)" fill="#fff"/>
        </g>
      </g>
      <g id="Grupo_55269" data-name="Grupo 55269" transform="translate(34.351 5.102)">
        <g id="Grupo_55268" data-name="Grupo 55268">
          <path id="Trazado_119897" data-name="Trazado 119897" d="M228.476,34.219a38.679,38.679,0,0,0-25.623-3.478,1.7,1.7,0,1,0,.7,3.337,35.262,35.262,0,0,1,23.358,3.169,1.7,1.7,0,1,0,1.567-3.028Z" transform="translate(-201.497 -29.925)" fill="#fff"/>
        </g>
      </g>
      <g id="Grupo_55271" data-name="Grupo 55271" transform="translate(33.59 74.669)">
        <g id="Grupo_55270" data-name="Grupo 55270">
          <path id="Trazado_119898" data-name="Trazado 119898" d="M225.45,438.925a1.705,1.705,0,0,0-2.3-.735,35.2,35.2,0,0,1-24.027,2.98,1.7,1.7,0,1,0-.768,3.322,38.637,38.637,0,0,0,26.357-3.271A1.7,1.7,0,0,0,225.45,438.925Z" transform="translate(-197.037 -438.001)" fill="#fff"/>
        </g>
      </g>
      <g id="Grupo_55273" data-name="Grupo 55273" transform="translate(23.952 37.629)">
        <g id="Grupo_55272" data-name="Grupo 55272">
          <path id="Trazado_119899" data-name="Trazado 119899" d="M156.083,225.534l-4.309-4.309a1.7,1.7,0,0,0-2.411,2.411l1.4,1.4H142.2a1.7,1.7,0,0,0,0,3.41h8.557l-1.4,1.4a1.7,1.7,0,1,0,2.411,2.411l4.309-4.309a1.7,1.7,0,0,0,0-2.411Z" transform="translate(-140.5 -220.726)" fill="#fff"/>
        </g>
      </g>
      <g id="Grupo_55275" data-name="Grupo 55275" transform="translate(18.241 41.937)">
        <g id="Grupo_55274" data-name="Grupo 55274">
          <path id="Trazado_119900" data-name="Trazado 119900" d="M109.91,246.5a1.7,1.7,0,1,0,.5,1.205A1.718,1.718,0,0,0,109.91,246.5Z" transform="translate(-107 -246)" fill="#fff"/>
        </g>
      </g>
    </g>
  </g>
</svg>
