<svg xmlns="http://www.w3.org/2000/svg" width="418.58" height="291.344" viewBox="0 0 418.58 291.344">
  <g id="Grupo_53585" data-name="Grupo 53585" transform="translate(-115.504 -166.27)">
    <g id="freepik--background-complete--inject-78" transform="translate(115.504 277.753)">
      <rect id="Rectángulo_28853" data-name="Rectángulo 28853" width="418.58" height="0.23" transform="translate(0 138.298)" fill="#ebebeb"/>
      <rect id="Rectángulo_28854" data-name="Rectángulo 28854" width="46.845" height="0.23" transform="translate(321.355 148.836)" fill="#ebebeb"/>
      <rect id="Rectángulo_28855" data-name="Rectángulo 28855" width="43.449" height="0.23" transform="translate(48.281 146.112)" fill="#ebebeb"/>
      <rect id="Rectángulo_28856" data-name="Rectángulo 28856" width="17.661" height="0.23" transform="translate(315.867 144.566)" fill="#ebebeb"/>
      <rect id="Rectángulo_28857" data-name="Rectángulo 28857" width="12.958" height="0.23" transform="translate(264.732 150.668)" fill="#ebebeb"/>
      <rect id="Rectángulo_28858" data-name="Rectángulo 28858" width="32.617" height="0.23" transform="translate(226.638 150.668)" fill="#ebebeb"/>
      <rect id="Rectángulo_28859" data-name="Rectángulo 28859" width="52.45" height="0.23" transform="translate(161.341 146.784)" fill="#ebebeb"/>
      <circle id="Elipse_5371" data-name="Elipse 5371" cx="19.493" cy="19.493" r="19.493" transform="translate(96.815 38.888) rotate(-85.935)" fill="#fafafa"/>
      <rect id="Rectángulo_28860" data-name="Rectángulo 28860" width="18.177" height="74.032" transform="translate(342.109 60.861)" fill="#f0f0f0"/>
      <rect id="Rectángulo_28861" data-name="Rectángulo 28861" width="149.924" height="3.405" transform="translate(205.566 134.893)" fill="#f0f0f0"/>
      <rect id="Rectángulo_28862" data-name="Rectángulo 28862" width="141.337" height="74.032" transform="translate(210.747 60.861)" fill="#f5f5f5"/>
      <rect id="Rectángulo_28863" data-name="Rectángulo 28863" width="121.688" height="17.615" transform="translate(221.196 87.615)" fill="#f0f0f0"/>
      <rect id="Rectángulo_28864" data-name="Rectángulo 28864" width="121.688" height="17.615" transform="translate(221.196 110.67)" fill="#f0f0f0"/>
      <rect id="Rectángulo_28865" data-name="Rectángulo 28865" width="73.885" height="2.411" rx="1.206" transform="translate(246.367 86.409)" fill="#f5f5f5"/>
      <rect id="Rectángulo_28866" data-name="Rectángulo 28866" width="73.885" height="2.411" rx="1.206" transform="translate(246.367 109.464)" fill="#f5f5f5"/>
      <rect id="Rectángulo_28867" data-name="Rectángulo 28867" width="121.688" height="17.615" transform="translate(221.196 64.56)" fill="#f0f0f0"/>
      <rect id="Rectángulo_28868" data-name="Rectángulo 28868" width="73.885" height="2.411" rx="1.206" transform="translate(246.367 63.364)" fill="#f5f5f5"/>
    </g>
    <g id="freepik--Shadow--inject-78" transform="translate(125.553 436.778)">
      <ellipse id="freepik--path--inject-78" cx="178.445" cy="10.418" rx="178.445" ry="10.418" fill="#f5f5f5"/>
    </g>
    <g id="freepik--Board--inject-78" transform="translate(299.673 166.27)">
      <rect id="Rectángulo_28869" data-name="Rectángulo 28869" width="177.424" height="129.244" transform="translate(7.648 1.307)" fill="#0a4b6e"/>
      <path id="Trazado_116501" data-name="Trazado 116501" d="M561.938,187.928a.185.185,0,0,1-.156-.083.2.2,0,0,1,0-.276,20.313,20.313,0,0,1,2.484-1.519,2.839,2.839,0,0,1,1.3-.4h0a2.878,2.878,0,0,1,1.261.368q.225.108.46.194c1.307.5,2.761.12,4.28-.285a9.373,9.373,0,0,1,4.132-.46c.311.077.619.169.92.276l.571.175a14.186,14.186,0,0,0,5.862-.1l1.233-.175a11.965,11.965,0,0,1,6.3.46c.258.111.516.239.764.368a5.122,5.122,0,0,0,1.905.663,5.583,5.583,0,0,0,2.246-.442l.736-.239a19.1,19.1,0,0,1,7.059-.194h.433a114.465,114.465,0,0,0,19.456.139.193.193,0,0,1,.212.173v0a.2.2,0,0,1-.175.221,115.256,115.256,0,0,1-19.529-.138h-.433a18.679,18.679,0,0,0-6.912.184c-.239.065-.478.147-.718.23a6.076,6.076,0,0,1-2.411.46,5.513,5.513,0,0,1-2.043-.708c-.249-.129-.488-.249-.746-.359a11.682,11.682,0,0,0-6.1-.432l-1.215.184a14.737,14.737,0,0,1-6.037.092l-.58-.184a6.845,6.845,0,0,0-.92-.257,8.935,8.935,0,0,0-3.958.451c-1.519.4-3.092.81-4.528.276l-.478-.211a3,3,0,0,0-1.1-.331,2.472,2.472,0,0,0-1.114.35,19.208,19.208,0,0,0-2.429,1.491A.374.374,0,0,1,561.938,187.928Z" transform="translate(-456.172 -172.411)" fill="#fff"/>
      <path id="Trazado_116502" data-name="Trazado 116502" d="M596.816,196.056a7.445,7.445,0,0,1-2.374-.552,7.239,7.239,0,0,0-2.439-.562,7.369,7.369,0,0,0-1.712.3,10.574,10.574,0,0,1-1.123.267,12.339,12.339,0,0,1-3.028,0h-.129c-4.491-.433-9.093-.6-13.547-.764-1.537-.055-3.258.194-3.47,1.049a.184.184,0,0,1-.166.147.2.2,0,0,1-.2-.1c-.46-.837-1.887-1.2-3.056-1.114a11.23,11.23,0,0,0-3.553,1.021.192.192,0,0,1-.253-.1l0-.009a.2.2,0,0,1,.111-.258,11.68,11.68,0,0,1,3.681-1.049,4.151,4.151,0,0,1,3.221,1.012c.644-.985,2.761-1.03,3.681-.994,4.464.166,9.075.331,13.584.763h.12a11.531,11.531,0,0,0,2.927,0,10.419,10.419,0,0,0,1.086-.248,7.371,7.371,0,0,1,1.841-.323,8.1,8.1,0,0,1,2.568.58,5.09,5.09,0,0,0,2.945.451,4.455,4.455,0,0,0,.92-.378l.479-.23a10.813,10.813,0,0,1,4.887-.405,20.358,20.358,0,0,0,2.9.056.192.192,0,0,1,.211.173h0a.2.2,0,0,1-.174.221,21.159,21.159,0,0,1-2.963-.055,10.391,10.391,0,0,0-4.7.378c-.156.065-.3.147-.451.221a5.149,5.149,0,0,1-.975.4A3,3,0,0,1,596.816,196.056Z" transform="translate(-456.178 -175.265)" fill="#fff"/>
      <path id="Trazado_116503" data-name="Trazado 116503" d="M561.946,204.616a.2.2,0,0,1-.073-.386,35.291,35.291,0,0,1,4.712-1.547,8.325,8.325,0,0,1,2.632-.322,8.807,8.807,0,0,1,1.583.331,8.808,8.808,0,0,0,1.528.313,9.593,9.593,0,0,0,1.841-.111,5.987,5.987,0,0,1,2.762.083,4.618,4.618,0,0,1,.745.359,3.958,3.958,0,0,0,.718.349c1.2.414,2.393-.128,3.681-.708a7.1,7.1,0,0,1,3.589-.92,6.182,6.182,0,0,1,2.338.92,4.791,4.791,0,0,0,2.522.81,5.553,5.553,0,0,0,1.233-.267h.12a27.74,27.74,0,0,1,10.326-1.041h.184a6.938,6.938,0,0,0,1.454,0,7.246,7.246,0,0,0,.874-.184l.645-.156a10.525,10.525,0,0,1,4,.285l.755.147a24.953,24.953,0,0,0,10.345-.331.2.2,0,0,1,.092.386,25.388,25.388,0,0,1-10.5.331l-.774-.147a10.121,10.121,0,0,0-3.847-.276,2.841,2.841,0,0,0-.617.138,7.59,7.59,0,0,1-.92.2,7.75,7.75,0,0,1-1.537,0h-.184A27.54,27.54,0,0,0,592,203.9h-.12a5.489,5.489,0,0,1-1.316.285,5.222,5.222,0,0,1-2.761-.856,5.975,5.975,0,0,0-2.19-.837,6.725,6.725,0,0,0-3.378.92c-1.28.589-2.6,1.187-3.948.727a4.688,4.688,0,0,1-.782-.377,4.834,4.834,0,0,0-.691-.341,5.681,5.681,0,0,0-2.559-.055,10.254,10.254,0,0,1-1.914.111,8.813,8.813,0,0,1-1.6-.331,8.876,8.876,0,0,0-1.509-.313,7.958,7.958,0,0,0-2.513.313,34.941,34.941,0,0,0-4.656,1.527Z" transform="translate(-456.18 -177.751)" fill="#fff"/>
      <path id="Trazado_116504" data-name="Trazado 116504" d="M561.943,212.568a.2.2,0,0,1-.194-.157.193.193,0,0,1,.137-.236l.01,0a29.94,29.94,0,0,1,5.522-.847,4.417,4.417,0,0,1,1.629.111,2.814,2.814,0,0,1,.35.138,2.452,2.452,0,0,0,.461.156,3.238,3.238,0,0,0,1.068,0,29.19,29.19,0,0,1,4.97-.359.211.211,0,0,1,.193.2.193.193,0,0,1-.193.194h-.01a27.521,27.521,0,0,0-4.859.35,3.623,3.623,0,0,1-1.252.046,2.969,2.969,0,0,1-.534-.184l-.313-.12a4.009,4.009,0,0,0-1.491-.092,29.981,29.981,0,0,0-5.522.837Z" transform="translate(-456.177 -180.715)" fill="#fff"/>
      <path id="Trazado_116505" data-name="Trazado 116505" d="M593.847,211.928a.2.2,0,0,1-.086-.4.206.206,0,0,1,.086,0h3.386c7.906,0,15.913,0,23.81-.11h0a.2.2,0,0,1,.193.2.193.193,0,0,1-.193.193c-7.9.092-15.913.129-23.818.111h-3.378Z" transform="translate(-466.397 -180.756)" fill="#fff"/>
      <g id="Grupo_53508" data-name="Grupo 53508" transform="translate(86.015 46.938)" opacity="0.1">
        <path id="Trazado_116506" data-name="Trazado 116506" d="M600.409,269.092c0,2.209-1.528,4.242-1.942,6.331s.2,4.6-.617,6.581-3.028,3.3-4.224,5.1-1.565,4.317-3.1,5.844-4.04,1.841-5.844,3.092-3.074,3.387-5.089,4.225-4.436.193-6.59.617-4.114,1.942-6.323,1.942-4.233-1.527-6.323-1.942-4.6.2-6.59-.617-3.3-3.028-5.089-4.225-4.316-1.565-5.844-3.092-1.9-4.04-3.1-5.844-3.386-3.083-4.215-5.1-.2-4.436-.626-6.581-1.933-4.123-1.933-6.331,1.519-4.234,1.933-6.323-.194-4.6.626-6.581,3.019-3.3,4.215-5.1,1.574-4.316,3.1-5.844,4.04-1.887,5.844-3.1,3.083-3.378,5.089-4.215,4.436-.194,6.59-.617,4.114-1.933,6.323-1.933,4.243,1.528,6.323,1.942,4.6-.2,6.59.617,3.3,3.019,5.1,4.225,4.307,1.565,5.844,3.092,1.886,4.04,3.092,5.844,3.386,3.083,4.224,5.1.194,4.436.617,6.581S600.409,266.892,600.409,269.092Z" transform="translate(-532.957 -235.379)" fill="#fff"/>
      </g>
      <rect id="Rectángulo_28870" data-name="Rectángulo 28870" width="20.689" height="6.691" rx="2.615" transform="translate(18.361 120.657)" fill="#407bff"/>
      <rect id="Rectángulo_28871" data-name="Rectángulo 28871" width="20.689" height="2.779" rx="1.39" transform="translate(18.361 117.878)" fill="#fff"/>
      <rect id="Rectángulo_28872" data-name="Rectángulo 28872" width="2.779" height="146.114" transform="translate(94.97 129.778)" fill="#a22f5f"/>
      <rect id="Rectángulo_28873" data-name="Rectángulo 28873" width="10.805" height="5.136" rx="2.304" transform="translate(90.958 230.418)" fill="#a22f5f"/>
      <path id="Trazado_116507" data-name="Trazado 116507" d="M506.386,552.223h-2.779l28.89-42.916h2.779Z" transform="translate(-437.526 -276.322)" fill="#a22f5f"/>
      <path id="Trazado_116508" data-name="Trazado 116508" d="M575.032,552.223h2.779l-28.89-42.916h-2.779Z" transform="translate(-451.172 -276.322)" fill="#a22f5f"/>
      <path id="Trazado_116509" data-name="Trazado 116509" d="M594.671,168.893H416.124a1.316,1.316,0,0,1-1.316-1.316h0a1.317,1.317,0,0,1,1.316-1.307H594.671a1.307,1.307,0,0,1,1.307,1.307h0a1.306,1.306,0,0,1-1.3,1.316Z" transform="translate(-409.038 -166.27)" fill="#e0e0e0"/>
      <path id="Trazado_116510" data-name="Trazado 116510" d="M599.032,353.772H406.312l4.491,4.869H594.541Z" transform="translate(-406.312 -226.424)" fill="#e0e0e0"/>
    </g>
    <g id="freepik--character-1--inject-78" transform="translate(122.333 246.371)">
      <rect id="Rectángulo_28874" data-name="Rectángulo 28874" width="88.344" height="2.163" transform="translate(47.148 89.445)" fill="#407bff"/>
      <rect id="Rectángulo_28875" data-name="Rectángulo 28875" width="23.423" height="2.163" transform="translate(112.069 89.445)" fill="#a22f5f"/>
      <path id="Trazado_116511" data-name="Trazado 116511" d="M273.1,545.561h-1.335l-5.577-57.107c-.461-4.74-3.553-8.283-7.169-8.283H248.028c-3.681,0-6.709,3.571-7.169,8.283l-5.577,57.107h-1.335l5.6-57.365c.543-5.6,4.187-9.839,8.485-9.839h10.989c4.289,0,7.942,4.234,8.486,9.839Z" transform="translate(-173.675 -346.494)" fill="#a22f5f"/>
      <path id="Trazado_116512" data-name="Trazado 116512" d="M211.89,545.561h-1.353l-5.522-57.107c-.46-4.74-3.543-8.283-7.169-8.283H186.82c-3.626,0-6.71,3.571-7.169,8.283l-5.577,57.107h-1.335l5.586-57.365c.543-5.6,4.2-9.839,8.486-9.839H197.8c4.3,0,7.942,4.234,8.485,9.839Z" transform="translate(-154.038 -346.494)" fill="#a22f5f"/>
      <path id="Trazado_116513" data-name="Trazado 116513" d="M221.568,305.958c.2.57.672.92,1.058.829s.524-.681.322-1.261-.672-.92-1.049-.828S221.338,305.379,221.568,305.958Z" transform="translate(-169.671 -290.776)" fill="#a22f5f"/>
      <path id="Trazado_116514" data-name="Trazado 116514" d="M222.388,307.2a19.388,19.388,0,0,0,4.013,3.24,2.955,2.955,0,0,1-2.144,1.3Z" transform="translate(-169.967 -291.583)" fill="#ed893e"/>
      <path id="Trazado_116515" data-name="Trazado 116515" d="M217.773,302.4a.4.4,0,0,1-.184,0,.35.35,0,0,1-.288-.4l0-.012a3.436,3.436,0,0,1,1.933-2.586.359.359,0,0,1,.267.663,2.76,2.76,0,0,0-1.5,2.052A.368.368,0,0,1,217.773,302.4Z" transform="translate(-168.333 -289.077)" fill="#a22f5f"/>
      <path id="Trazado_116516" data-name="Trazado 116516" d="M195.368,319.76l5.908,5.6,7.832,4.4c-.276.257-.175,2.006-.065,2.88a4.6,4.6,0,0,0,3.23,4.243c.921.4,1.841.92,2.016,1.786.184,1.068-.6,2.393-4.979,3.028a23.132,23.132,0,0,1-12.36-1.739c-1.841-.755-1.528-1.583-1.068-3.331C197.061,332.156,196.794,324.279,195.368,319.76Z" transform="translate(-161.298 -295.613)" fill="#ffb573"/>
      <path id="Trazado_116517" data-name="Trazado 116517" d="M191.9,344.083a50.956,50.956,0,0,0,2.237-7.188s11.965-.875,15.949.69,6.443,8.348,6.443,8.348Z" transform="translate(-160.185 -301.032)" fill="#a22f5f"/>
      <path id="Trazado_116518" data-name="Trazado 116518" d="M193.049,308.428c2.825,6.746,4.132,10.832,8.826,13.1,7.059,3.405,14.422-2.862,13.658-10.345-.69-6.737-5.191-16.621-12.885-16.9a10.124,10.124,0,0,0-9.6,14.146Z" transform="translate(-160.286 -287.438)" fill="#ffb573"/>
      <path id="Trazado_116519" data-name="Trazado 116519" d="M203.856,304.848c2.66-3.037.81-8.283-1.546-10.336,2.283-.083,8.192-.6,6.443-5.687s-7.832-5.687-9.6-3.175c-5.025-2.761-11.044-.368-9.6,3.47-5.908-.92-7.6,4.942-5.163,7.307-3.1,2.586-4.215,7.675-.156,9.6s4.142,6.718,8.283,9.2S206.148,313.48,203.856,304.848Z" transform="translate(-156.884 -284.208)" fill="#12263f"/>
      <path id="Trazado_116520" data-name="Trazado 116520" d="M209.076,314.084a6.674,6.674,0,0,0,3.8,2.835c2.034.543,3.019-1.712,2.264-3.682-.681-1.73-2.762-3.681-4.694-3.4S207.99,312.363,209.076,314.084Z" transform="translate(-165.517 -292.422)" fill="#ffb573"/>
      <path id="Trazado_116521" data-name="Trazado 116521" d="M187.878,355.939,181.9,367.9c-1,2-1.979,3.985-2.927,5.982s-1.9,3.958-2.715,5.909c-.441.984-.81,1.923-1.206,2.889l-.506,1.372-.065.175v.129h0v-.092a4.378,4.378,0,0,0,.12-1.178,1.913,1.913,0,0,0-.166-.847c-.073-.129,0,.12.055.414a7.908,7.908,0,0,0,.451,1.077c.4.8.92,1.666,1.417,2.558,2.163,3.571,4.8,7.363,7.2,11.118l.065.092a3.58,3.58,0,0,1-4.97,4.924,59.274,59.274,0,0,1-5.807-4.234,58.394,58.394,0,0,1-5.393-4.933,31.508,31.508,0,0,1-2.586-3q-.69-.888-1.288-1.841a12.6,12.6,0,0,1-1.27-2.762,9.206,9.206,0,0,1-.433-2.531,7.8,7.8,0,0,1,.221-2.034l.147-.589.488-1.905c.368-1.187.708-2.421,1.113-3.553.782-2.328,1.638-4.537,2.5-6.746s1.841-4.354,2.761-6.443c1.951-4.27,3.967-8.4,6.268-12.544a7.087,7.087,0,0,1,12.545,6.6Z" transform="translate(-150.551 -303.879)" fill="#ffb573"/>
      <path id="Trazado_116522" data-name="Trazado 116522" d="M186.053,343.2c7.712.276,11.219,6.047,4.822,16.318-5.522,8.826-6.249,9.01-6.249,9.01l-13.961-6.921C175.359,352.669,178.166,342.9,186.053,343.2Z" transform="translate(-153.373 -303.131)" fill="#407bff"/>
      <g id="Grupo_53509" data-name="Grupo 53509" transform="translate(17.292 40.062)" opacity="0.3">
        <path id="Trazado_116523" data-name="Trazado 116523" d="M186.053,343.2c7.712.276,11.219,6.047,4.822,16.318-5.522,8.826-6.249,9.01-6.249,9.01l-13.961-6.921C175.359,352.669,178.166,342.9,186.053,343.2Z" transform="translate(-170.665 -343.192)"/>
      </g>
      <path id="Trazado_116524" data-name="Trazado 116524" d="M194.335,422.932l-.782-.874c-2.411-2.237-3.442-1.96-6.2-1.96l-3.378,2.531c2.043,5.614,6.175,5.366,6.175,5.366l1.2,1.114a2.163,2.163,0,0,0,3.507-.865l.35-.994A4.346,4.346,0,0,0,194.335,422.932Z" transform="translate(-157.642 -327.8)" fill="#ffb573"/>
      <path id="Trazado_116525" data-name="Trazado 116525" d="M315.119,538l6.6-3.709L314.7,518.21l-6.6,3.7Z" transform="translate(-197.463 -359.279)" fill="#ffb573"/>
      <path id="Trazado_116526" data-name="Trazado 116526" d="M311.5,529.705l6.7-3.46L314.7,518.21l-6.6,3.7Z" transform="translate(-197.463 -359.279)" opacity="0.2" style="isolation: isolate"/>
      <path id="Trazado_116527" data-name="Trazado 116527" d="M322.644,536.909l-8.467.6a.552.552,0,0,0-.525.561l.065,6.719a1.352,1.352,0,0,0,1.417,1.252c2.935-.257,4.132-.994,7.823-1.519,2.273-.331,7.731-.644,10.8-1.491s2.559-3.681.055-3.552c-3.249.147-7.593-.672-9.839-2.19A2.136,2.136,0,0,0,322.644,536.909Z" transform="translate(-199.246 -365.277)" fill="#a22f5f"/>
      <path id="Trazado_116528" data-name="Trazado 116528" d="M229.05,433.341s38.544-2.3,41.8,12.646c6.627,30.371,13.023,47.241,13.023,47.241l-10.2,5.265s-15.02-21.039-19.447-42.594c-15.7-2.356-43.145,5.954-49.7-5.835-5.8-10.4-.709-17.873-.709-17.873Z" transform="translate(-163.348 -331.683)" fill="#12263f"/>
      <path id="Trazado_116529" data-name="Trazado 116529" d="M306.747,528.831l11.872-5.752-1.335-4.869-13.05,6.13Z" transform="translate(-196.225 -359.279)" fill="#407bff"/>
      <path id="Trazado_116530" data-name="Trazado 116530" d="M329.927,537.643a9.959,9.959,0,0,1-2.025-.129.175.175,0,0,1-.083-.313c.23-.184,2.255-1.794,3.2-1.5a.672.672,0,0,1,.441.469.993.993,0,0,1-.147.975A2.119,2.119,0,0,1,329.927,537.643Zm-1.564-.423c1.371.175,2.356.064,2.688-.313a.636.636,0,0,0,.083-.635.351.351,0,0,0-.212-.23c-.516-.156-1.721.562-2.55,1.178Z" transform="translate(-203.769 -364.879)" fill="#407bff"/>
      <path id="Trazado_116531" data-name="Trazado 116531" d="M327.9,536.752a.133.133,0,0,1-.083,0,.167.167,0,0,1-.1-.129c0-.092-.34-2.245.368-3.037a.922.922,0,0,1,.727-.295.69.69,0,0,1,.681.488c.23.81-.782,2.457-1.5,2.964A.159.159,0,0,1,327.9,536.752Zm.819-3.129a.525.525,0,0,0-.368.184,3.964,3.964,0,0,0-.331,2.429,3.586,3.586,0,0,0,1.132-2.383c0-.1-.092-.212-.35-.23Z" transform="translate(-203.733 -364.117)" fill="#407bff"/>
      <path id="Trazado_116532" data-name="Trazado 116532" d="M254.395,559.118l7.492-.359,1.224-17.689-7.492.359Z" transform="translate(-180.235 -366.613)" fill="#ffb573"/>
      <path id="Trazado_116533" data-name="Trazado 116533" d="M261.966,563.493l-8.476-.267a.552.552,0,0,0-.58.5l-.617,6.691a1.335,1.335,0,0,0,1.278,1.39h0c2.954,0,4.2-.331,7.924-.212,2.292.074,6.443.442,10.308.442s2.31-3.13.249-3.424c-3.221-.461-6.718-2.872-8.8-4.6A2.1,2.1,0,0,0,261.966,563.493Z" transform="translate(-179.561 -373.721)" fill="#a22f5f"/>
      <path id="Trazado_116534" data-name="Trazado 116534" d="M269.389,564.789a10.194,10.194,0,0,1-2.006-.331.175.175,0,0,1-.129-.147.177.177,0,0,1,.083-.175c.24-.156,2.43-1.555,3.332-1.159a.662.662,0,0,1,.4.506.92.92,0,0,1-.248.92A2.006,2.006,0,0,1,269.389,564.789Zm-1.519-.57c1.344.3,2.338.295,2.706-.046a.642.642,0,0,0,.147-.616.322.322,0,0,0-.194-.258c-.469-.212-1.739.386-2.641.92Z" transform="translate(-184.36 -373.619)" fill="#407bff"/>
      <path id="Trazado_116535" data-name="Trazado 116535" d="M267.445,563.6h-.073a.164.164,0,0,1-.092-.147c0-.092-.111-2.264.681-2.982a.921.921,0,0,1,.755-.221.681.681,0,0,1,.617.552c.147.829-1.03,2.374-1.841,2.761A.141.141,0,0,1,267.445,563.6Zm1.132-3.028a.554.554,0,0,0-.386.147,3.9,3.9,0,0,0-.57,2.384c.672-.534,1.463-1.712,1.362-2.255,0-.1-.064-.23-.322-.267Z" transform="translate(-184.367 -372.764)" fill="#407bff"/>
      <path id="Trazado_116536" data-name="Trazado 116536" d="M255.875,541.443l7.492-.359-.709,10.115-7.464-.009Z" transform="translate(-180.492 -366.618)" opacity="0.2" style="isolation: isolate"/>
      <path id="Trazado_116537" data-name="Trazado 116537" d="M204.293,432.231s46.79,8.716,45.88,21.858c-1.629,23.662-9.562,57.475-9.562,57.475l-11.238.157s-1.537-35.167-.147-52.285c-14.035,0-41.654-.488-47.057-7.713-5.973-7.97.166-20.5.166-20.5Z" transform="translate(-156.226 -331.374)" fill="#12263f"/>
      <path id="Trazado_116538" data-name="Trazado 116538" d="M251.23,550.464l14.182-.2.672-4.611-15.443.451Z" transform="translate(-179.031 -368.083)" fill="#407bff"/>
      <path id="Trazado_116539" data-name="Trazado 116539" d="M214.755,343.655c-4.6-.92-25.328-.635-25.328-.635a8.283,8.283,0,0,0-8.44,7.362c-.727,6.388,1.417,20.533,1.565,27.822.175,8.946.368,12.719.193,24.758L231,405.493c1.841-21.941-5.311-32.525-9.572-54.355C220.792,347.8,219.347,344.548,214.755,343.655Z" transform="translate(-156.637 -303.062)" fill="#407bff"/>
      <path id="Trazado_116540" data-name="Trazado 116540" d="M214.755,343.655c-4.6-.92-25.328-.635-25.328-.635a8.283,8.283,0,0,0-8.44,7.362c-.727,6.388,1.417,20.533,1.565,27.822.175,8.946.368,12.719.193,24.758L231,405.493c1.841-21.941-5.311-32.525-9.572-54.355C220.792,347.8,219.347,344.548,214.755,343.655Z" transform="translate(-156.637 -303.062)" opacity="0.3" style="isolation: isolate"/>
      <path id="Trazado_116541" data-name="Trazado 116541" d="M233.125,352.634c2.172,3.865,4.409,7.924,6.663,11.8,1.114,1.961,2.264,3.884,3.424,5.762s2.356,3.681,3.552,5.43l.92,1.242c.3.424.6.755.921,1.132l.221.285.11.138h0l-.073-.073-.166-.12h0s-.046,0,0,.055a8.143,8.143,0,0,0,.865.626c1.574,1.021,3.617,2.061,5.6,3.111,4.013,2.089,8.209,4.16,12.277,6.442h.056a3.571,3.571,0,0,1-2.283,6.682,97.169,97.169,0,0,1-14.164-2.761,57.493,57.493,0,0,1-7.252-2.439,18.993,18.993,0,0,1-2.182-1.114c-.184-.1-.451-.285-.69-.451l-.378-.276-.488-.414-.239-.212-.166-.166-.184-.184-.368-.368c-.469-.488-1-.994-1.427-1.481l-1.316-1.472a111.615,111.615,0,0,1-8.679-12.029c-2.577-4.114-4.951-8.182-7.142-12.581a7.086,7.086,0,0,1,12.507-6.654Z" transform="translate(-169.136 -304.982)" fill="#ffb573"/>
      <path id="Trazado_116542" data-name="Trazado 116542" d="M219.749,348.552c4.15-6.5,10.906-6.589,16.511,4.132,4.813,9.2,4.6,9.949,4.6,9.949l-13.041,8.532C222.482,362.588,215.5,355.206,219.749,348.552Z" transform="translate(-168.699 -303.413)" fill="#407bff"/>
      <g id="Grupo_53510" data-name="Grupo 53510" transform="translate(49.737 40.658)" opacity="0.3">
        <path id="Trazado_116543" data-name="Trazado 116543" d="M219.749,348.552c4.15-6.5,10.906-6.589,16.511,4.132,4.813,9.2,4.6,9.949,4.6,9.949l-13.041,8.532C222.482,362.588,215.5,355.206,219.749,348.552Z" transform="translate(-218.437 -344.071)"/>
      </g>
      <path id="Trazado_116544" data-name="Trazado 116544" d="M291.046,406.179l-1.141-.212c-3.286-.3-3.921.553-6.111,2.237l-1.132,4.068c5.052,3.194,8.173.469,8.173.469l1.629.156a2.153,2.153,0,0,0,2.237-2.825l-.331-1A4.317,4.317,0,0,0,291.046,406.179Z" transform="translate(-189.304 -323.251)" fill="#ffb573"/>
      <path id="Trazado_116545" data-name="Trazado 116545" d="M145.728,418.418a33.646,33.646,0,0,1,.653-14.725l.921.249a32.676,32.676,0,0,0-.626,14.311Z" transform="translate(-145.205 -322.54)" fill="#407bff"/>
      <rect id="Rectángulo_28876" data-name="Rectángulo 28876" width="0.92" height="5.228" transform="matrix(0.986, -0.168, 0.168, 0.986, 1.181, 99.633)" fill="#407bff"/>
      <path id="Trazado_116546" data-name="Trazado 116546" d="M242.431,443.186l-20.579-.819-5.393-31.706c-2.761-16.336-16.916-29.571-31.577-29.571H171.933c-14.661,0-24.288,13.235-21.508,29.571l3.682,21.885c1.371,8.1,8.384,14.67,15.646,14.67h81.487a.828.828,0,0,0,.313-1.537A22.154,22.154,0,0,0,242.431,443.186Z" transform="translate(-146.726 -315.289)" fill="#407bff"/>
      <path id="Trazado_116547" data-name="Trazado 116547" d="M290.171,458.171h-6.534v-1.684h6.534c16.428,0,29.8-14.937,29.8-33.3V417.5h1.684v5.687C321.656,442.479,307.529,458.171,290.171,458.171Z" transform="translate(-189.617 -326.97)" fill="#a22f5f"/>
    </g>
    <g id="freepik--character-2--inject-78" transform="translate(224.776 252.259)">
      <rect id="Rectángulo_28877" data-name="Rectángulo 28877" width="88.344" height="2.163" transform="translate(43.927 83.557)" fill="#407bff"/>
      <rect id="Rectángulo_28878" data-name="Rectángulo 28878" width="29.58" height="1.086" transform="translate(73.305 82.48)" fill="#e0e0e0"/>
      <rect id="Rectángulo_28879" data-name="Rectángulo 28879" width="23.423" height="2.163" transform="translate(108.848 83.557)" fill="#a22f5f"/>
      <path id="Trazado_116548" data-name="Trazado 116548" d="M419.184,545.561H417.85l-5.568-57.107c-.469-4.74-3.553-8.283-7.169-8.283H394.068c-3.626,0-6.7,3.571-7.169,8.283l-5.522,57.107h-1.353l5.614-57.365c.543-5.6,4.187-9.839,8.476-9.839h11.044c4.288,0,7.933,4.234,8.485,9.839Z" transform="translate(-322.982 -352.382)" fill="#a22f5f"/>
      <path id="Trazado_116549" data-name="Trazado 116549" d="M357.962,545.561h-1.335l-5.577-57.107c-.46-4.74-3.543-8.283-7.169-8.283H332.856c-3.626,0-6.71,3.571-7.169,8.283l-5.577,57.107h-1.335l5.632-57.365c.543-5.6,4.188-9.839,8.486-9.839H343.9c4.288,0,7.942,4.234,8.486,9.839Z" transform="translate(-303.331 -352.382)" fill="#a22f5f"/>
      <path id="Trazado_116550" data-name="Trazado 116550" d="M343.941,382.11l-1.776,13.06c-.562,4.353-1.141,8.706-1.565,12.986l-.138,1.592-.065.8a2.14,2.14,0,0,0,0-.4,2.449,2.449,0,0,0-.092-.368,1.865,1.865,0,0,0-.221-.451c-.139-.175-.157-.147-.12-.11a1.324,1.324,0,0,0,.267.221,7.181,7.181,0,0,0,1.031.6,40.786,40.786,0,0,0,5.715,2.126c4.087,1.27,8.375,2.3,12.608,3.359l-.478,3.681a95.792,95.792,0,0,1-13.5-1.4,38.762,38.762,0,0,1-6.939-1.841,14.155,14.155,0,0,1-1.923-.92,8.007,8.007,0,0,1-1.086-.736,6.066,6.066,0,0,1-1.252-1.325,5.386,5.386,0,0,1-.59-1.2,6.4,6.4,0,0,1-.184-.773,6.552,6.552,0,0,1,0-.8v-2.586c.184-4.546.6-8.992,1.077-13.427s1.04-8.844,1.739-13.262Z" transform="translate(-308.095 -321.129)" fill="#ffc3bd"/>
      <path id="Trazado_116551" data-name="Trazado 116551" d="M379.732,435.441l-2.862,2.614a2.2,2.2,0,0,1-2.448.359l-3.157-1.519s-4.676-.193-5.347-3.055l1.215-2.218,7.243-.81a3.446,3.446,0,0,1,2.145.479l2.982,1.841a1.464,1.464,0,0,1,.472,2.015A1.442,1.442,0,0,1,379.732,435.441Z" transform="translate(-318.456 -337.123)" fill="#ffc3bd"/>
      <path id="Trazado_116552" data-name="Trazado 116552" d="M360.211,343.148c.736,4.482,1.362,12.674-1.841,15.544a41.889,41.889,0,0,1,12.958,11.247c5.522-4.344.92-10.832.92-10.832-4.933-1.335-4.694-5.016-3.727-8.448Z" transform="translate(-316.035 -309.005)" fill="#ffc3bd"/>
      <path id="Trazado_116553" data-name="Trazado 116553" d="M342.3,367.671c-5.641,1.841-6.856,9.4-6.35,15.278l11.385,7s2.761-8.587,2.761-13.18C350.048,371.887,346.127,366.429,342.3,367.671Z" transform="translate(-308.808 -316.815)" fill="#e36099"/>
      <path id="Trazado_116554" data-name="Trazado 116554" d="M379.624,378.146c-.469,6.442-1.914,17.385-5.467,35.746l-30.482-.92c.8-11.256-.4-19.64-3.166-39.336a6.442,6.442,0,0,1,5.539-7.233l.158-.019c1.951-.2,4.178-.368,6.442-.414a97.794,97.794,0,0,1,13.805.414c1.491.184,3.019.414,4.482.663A10.464,10.464,0,0,1,379.624,378.146Z" transform="translate(-310.287 -316.3)" fill="#e36099"/>
      <path id="Trazado_116555" data-name="Trazado 116555" d="M381.772,329.225c.184.58.645.92,1.022.828s.534-.69.35-1.261-.644-.92-1.021-.829S381.569,328.655,381.772,329.225Z" transform="translate(-323.515 -304.129)" fill="#a22f5f"/>
      <path id="Trazado_116556" data-name="Trazado 116556" d="M382.1,327.693l1.252-.846S382.989,328.163,382.1,327.693Z" transform="translate(-323.647 -303.775)" fill="#a22f5f"/>
      <path id="Trazado_116557" data-name="Trazado 116557" d="M382.381,331.115a16.04,16.04,0,0,0,3.24,3.019,2.6,2.6,0,0,1-1.932,1.049Z" transform="translate(-323.738 -305.144)" fill="#ed847e"/>
      <path id="Trazado_116558" data-name="Trazado 116558" d="M379.487,321.953a.35.35,0,0,0,0-.35.359.359,0,0,0-.5-.073,3.515,3.515,0,0,0-1.5,2.88.341.341,0,0,0,.348.333h.02a.35.35,0,0,0,.341-.359v-.01h0a2.759,2.759,0,0,1,1.215-2.264A.308.308,0,0,0,379.487,321.953Z" transform="translate(-322.169 -302.047)" fill="#a22f5f"/>
      <path id="Trazado_116559" data-name="Trazado 116559" d="M351.435,328.87c2.762,6.94,3.682,9.931,8.467,12.415,7.142,3.737,15.066-1.123,14.477-8.734-.524-6.848-4.877-17.045-12.719-17.634a10.124,10.124,0,0,0-10.225,13.952Z" transform="translate(-313.564 -299.936)" fill="#ffc3bd"/>
      <path id="Trazado_116560" data-name="Trazado 116560" d="M364.408,325.435c1.343-.386,3.681-3.065-.4-8.458,2.182-.4,3.958-4.4-2.025-6.691s-12.507-1.178-16.465,4.307c0,0-12.618,3.727-2.338,16.713S366.516,339,364.408,325.435Z" transform="translate(-309.869 -298.102)" fill="#a22f5f"/>
      <path id="Trazado_116561" data-name="Trazado 116561" d="M341.648,313.931a2.171,2.171,0,0,0,1,1.841,3.6,3.6,0,0,0,4.289.258,20.076,20.076,0,0,0,3.8-3.249,3.681,3.681,0,0,0-.207-5.2l-.069-.062a4.657,4.657,0,0,0-.534-.386S342.706,307.342,341.648,313.931Z" transform="translate(-310.67 -297.449)" fill="#407bff"/>
      <path id="Trazado_116562" data-name="Trazado 116562" d="M333.874,308.494a8.624,8.624,0,0,0,6.571-4.952c-.92-2.429-12.885-17.873-23.082-6.581-10.768,11.965,10.308,23.993,2.761,38.4C333.239,330.95,343.933,321.875,333.874,308.494Z" transform="translate(-301.874 -292.877)" fill="#a22f5f"/>
      <path id="Trazado_116563" data-name="Trazado 116563" d="M371.775,333.369a5.849,5.849,0,0,0,3.4,2.908c1.951.616,3-1.114,2.512-2.991-.433-1.694-1.97-4.059-3.958-3.856a2.624,2.624,0,0,0-1.951,3.939Z" transform="translate(-320.218 -304.599)" fill="#ffc3bd"/>
      <path id="Trazado_116564" data-name="Trazado 116564" d="M442.275,551.387l7.2-.681-4.85-17.726-7.2.681Z" transform="translate(-341.397 -369.906)" fill="#ffc3bd"/>
      <path id="Trazado_116565" data-name="Trazado 116565" d="M460.454,562.434c-4.4-1.3-4.261-3.23-8.651-6.8a2.862,2.862,0,0,0-1.574-.718l-7.16-.5a.58.58,0,0,0-.571.5l-1.012,4.961c-.35,1.721.708,3.369,2.2,3.424,2.383.092,5.31.184,7.914.359,3.8.267,3.847,2.19,8.283,1.978C462.616,565.508,461.954,562.876,460.454,562.434Z" transform="translate(-342.678 -376.783)" fill="#a22f5f"/>
      <path id="Trazado_116566" data-name="Trazado 116566" d="M479.564,518.648l4.878-4.234-8.163-12.4-6.1,5.78Z" transform="translate(-351.904 -359.972)" fill="#ffc3bd"/>
      <path id="Trazado_116567" data-name="Trazado 116567" d="M486.412,514.023l-5.817,5.384a.654.654,0,0,0-.1.829l2.761,4.27a2.881,2.881,0,0,0,4.017.68,3.034,3.034,0,0,0,.272-.219c1.905-1.472,2.982-4.059,5.237-6.176,3.286-3.074,3.875-2.991,5.909-7.289,1.38-2.89-1.629-2.9-2.688-2.006-2.66,2.264-1.61,2.356-7.8,3.681A3.68,3.68,0,0,0,486.412,514.023Z" transform="translate(-355.181 -362.204)" fill="#a22f5f"/>
      <path id="Trazado_116568" data-name="Trazado 116568" d="M364.222,434.8s49.349-7.308,54.457,5.347c8.891,22,21.757,46.8,21.757,46.8l-5.8,5.319s-22.088-19.8-29.745-41.912c-9.139,2.964-38.231,12.48-48.889,12.48-11.375,0-16.023-9.7-11.909-25.77a3.23,3.23,0,0,1,3.157-2.429C354.412,434.638,364.222,434.8,364.222,434.8Z" transform="translate(-310.981 -337.736)" fill="#407bff"/>
      <path id="Trazado_116569" data-name="Trazado 116569" d="M364.222,434.8s49.349-7.308,54.457,5.347c8.891,22,21.757,46.8,21.757,46.8l-5.8,5.319s-22.088-19.8-29.745-41.912c-9.139,2.964-38.231,12.48-48.889,12.48-11.375,0-16.023-9.7-11.909-25.77a3.23,3.23,0,0,1,3.157-2.429C354.412,434.638,364.222,434.8,364.222,434.8Z" transform="translate(-310.981 -337.736)" fill="#fff" opacity="0.5" style="isolation: isolate"/>
      <path id="Trazado_116570" data-name="Trazado 116570" d="M370.788,442.023s40.495-1.224,40.845,13.124c.562,23.736,7.842,57.678,7.842,57.678l-7.98.745S399.4,486.522,396.226,463.3c-14.431.92-27.73.295-38.387.295-11.965,0-12.885-13.115-1.3-28.411C363.646,435.222,370.788,442.023,370.788,442.023Z" transform="translate(-312.816 -338.532)" fill="#407bff"/>
      <path id="Trazado_116571" data-name="Trazado 116571" d="M370.788,442.023s40.495-1.224,40.845,13.124c.562,23.736,7.842,57.678,7.842,57.678l-7.98.745S399.4,486.522,396.226,463.3c-14.431.92-27.73.295-38.387.295-11.965,0-12.885-13.115-1.3-28.411C363.646,435.222,370.788,442.023,370.788,442.023Z" transform="translate(-312.816 -338.532)" fill="#fff" opacity="0.5" style="isolation: isolate"/>
      <path id="Trazado_116572" data-name="Trazado 116572" d="M344.194,432.456l-.865,2.706c-.111.212.128.433.488.441l31.365.92c.276,0,.506-.12.534-.285l.35-2.761c0-.184-.2-.359-.507-.368l-30.868-.92A.525.525,0,0,0,344.194,432.456Z" transform="translate(-311.2 -337.57)" fill="#fff"/>
      <path id="Trazado_116573" data-name="Trazado 116573" d="M350.042,435.993h-.828c-.166,0-.285-.092-.276-.2l.5-3.534c0-.1.156-.184.322-.175h.829c.166,0,.285.092.276.193l-.5,3.534C350.355,435.919,350.208,436,350.042,435.993Z" transform="translate(-313.008 -337.536)" fill="#a22f5f"/>
      <path id="Trazado_116574" data-name="Trazado 116574" d="M386.291,437.077h-.829c-.166,0-.285-.092-.276-.194l.5-3.534c0-.1.157-.184.322-.184h.829c.166,0,.285.092.276.2l-.5,3.525C386.6,437,386.456,437.077,386.291,437.077Z" transform="translate(-324.637 -337.884)" fill="#a22f5f"/>
      <path id="Trazado_116575" data-name="Trazado 116575" d="M368.164,436.539h-.819c-.166,0-.295-.092-.276-.194l.488-3.534c0-.1.166-.184.331-.175h.829c.166,0,.285.1.267.2l-.488,3.534C368.476,436.465,368.329,436.548,368.164,436.539Z" transform="translate(-318.824 -337.714)" fill="#a22f5f"/>
      <path id="Trazado_116576" data-name="Trazado 116576" d="M396.305,389.085c.12.653.294,1.5.451,2.255s.35,1.565.552,2.338q.593,2.32,1.335,4.6a46.026,46.026,0,0,0,1.721,4.335,26.481,26.481,0,0,0,2.2,3.856l.147.23-.055-.073a.77.77,0,0,0-.129-.12,1.653,1.653,0,0,0-.249-.2,1.733,1.733,0,0,0-.764-.313h.092a7.82,7.82,0,0,0,1.841-.423,41.9,41.9,0,0,0,4.381-1.8c2.973-1.39,6-2.954,8.973-4.51l2.163,3.056a70.778,70.778,0,0,1-8.348,6.443,38.089,38.089,0,0,1-4.813,2.715,14.471,14.471,0,0,1-3.083,1.058,6.676,6.676,0,0,1-2.457.074,4.872,4.872,0,0,1-1.942-.791,4.12,4.12,0,0,1-.5-.405l-.23-.239-.175-.184-.23-.295a34.137,34.137,0,0,1-5.587-9.884,51.253,51.253,0,0,1-1.665-5.218c-.23-.921-.433-1.767-.626-2.66s-.34-1.748-.478-2.761Z" transform="translate(-325.807 -323.742)" fill="#ffc3bd"/>
      <path id="Trazado_116577" data-name="Trazado 116577" d="M390.153,372.522c5.338,4.114,5.338,16.207,5.338,16.207l-9.2,2.549s-6.617-8.016-4.942-11.817C383.1,375.5,387.272,370.322,390.153,372.522Z" transform="translate(-323.318 -318.26)" fill="#e36099"/>
      <path id="Trazado_116578" data-name="Trazado 116578" d="M437.949,396.756a.469.469,0,0,1-.4-.24l-7.279-13.943a.441.441,0,0,1,.188-.6l0,0a.452.452,0,0,1,.6.184l7.289,13.944a.441.441,0,0,1-.188.6l0,0A.43.43,0,0,1,437.949,396.756Z" transform="translate(-339.086 -321.445)" fill="#a22f5f"/>
      <path id="Trazado_116579" data-name="Trazado 116579" d="M433.273,391.966l-2.761,1.693a3.682,3.682,0,0,0-1.519,1.841l-2.577,6.718-1.187,4.271c2.761.994,7.768-5.522,7.768-5.522l3.147-2.366a1.574,1.574,0,0,0,.571-1.666l-1.077-4.013a1.574,1.574,0,0,0-2.366-.957Z" transform="translate(-337.484 -324.589)" fill="#ffc3bd"/>
      <path id="Trazado_116580" data-name="Trazado 116580" d="M388.521,443.173l-20.625-.847L362.5,410.62c-2.762-16.336-16.907-29.57-31.568-29.57H318.024c-14.661,0-24.288,13.234-21.508,29.57l3.681,21.886c1.381,8.1,8.393,14.67,15.646,14.67h81.506a.828.828,0,0,0,.3-1.537A22.089,22.089,0,0,0,388.521,443.173Z" transform="translate(-296.037 -321.164)" fill="#407bff"/>
      <path id="Trazado_116581" data-name="Trazado 116581" d="M436.262,458.171h-6.534v-1.684h6.534c16.428,0,29.8-14.937,29.8-33.3V417.5h1.675v5.687C467.738,442.479,453.62,458.171,436.262,458.171Z" transform="translate(-338.927 -332.858)" fill="#a22f5f"/>
    </g>
    <g id="freepik--character-3--inject-78" transform="translate(360.664 205.509)">
      <path id="Trazado_116582" data-name="Trazado 116582" d="M589.274,548.52l11.79-2.5,2.218,14.081-9.848,2.108Z" transform="translate(-526 -327.338)" fill="#b55b52"/>
      <path id="Trazado_116583" data-name="Trazado 116583" d="M589.274,548.52l11.8-2.5,1.242,7.887L591.6,556.186Z" transform="translate(-526 -327.338)" opacity="0.2" style="isolation: isolate"/>
      <path id="Trazado_116584" data-name="Trazado 116584" d="M585.848,444.791c3.921-18.26,12.029-37.32,4.362-54.714l-33.647-.111s2.567,39.989,3.746,56.84c1.233,17.487,18.977,57.218,18.977,57.218l13.483-2.963S588.931,464.348,585.848,444.791Z" transform="translate(-515.506 -277.275)" fill="#12263f"/>
      <path id="Trazado_116585" data-name="Trazado 116585" d="M598.753,451.281c2.411-10.566,6-21.38,6.939-31.945C592.937,405.42,594.547,433.794,598.753,451.281Z" transform="translate(-528.062 -285.504)" opacity="0.2" style="isolation: isolate"/>
      <path id="Trazado_116586" data-name="Trazado 116586" d="M603.364,569.628l-3.1.69-.92-.92-1.132,1.353-5.715,2.476a16.659,16.659,0,0,1-6.636,1.381h-4.694a7.164,7.164,0,0,1,.755-3.626,11.074,11.074,0,0,0,6.866-4.556,1.555,1.555,0,0,1,1.335-.589c2.162-.055,7.85-.378,10.685-2.237a.5.5,0,0,1,.681.175.508.508,0,0,1,.056.138A37.542,37.542,0,0,0,603.364,569.628Z" transform="translate(-523.396 -332.957)" fill="#a22f5f"/>
      <path id="Trazado_116587" data-name="Trazado 116587" d="M629.493,552.263l12.066.12.525,14.229-10.078-.083Z" transform="translate(-538.903 -329.342)" fill="#b55b52"/>
      <path id="Trazado_116588" data-name="Trazado 116588" d="M629.493,552.277l12.075.11.294,7.97-10.961-.092Z" transform="translate(-538.903 -329.347)" opacity="0.2" style="isolation: isolate"/>
      <path id="Trazado_116589" data-name="Trazado 116589" d="M629.262,444.791c.975-18.26,2.3-45.585-3.82-53.978l-37.577-.847s10.446,39.989,14.348,56.84c4.05,17.487,13.989,58.9,13.989,58.9h13.042S634.167,465.637,629.262,444.791Z" transform="translate(-525.548 -277.275)" fill="#415165"/>
      <path id="Trazado_116590" data-name="Trazado 116590" d="M556.8,300.927l-.562.5-.423.359-.819.653c-.534.4-1.068.782-1.61,1.151a33.77,33.77,0,0,1-3.3,1.988,38.942,38.942,0,0,1-7.068,2.936,34.908,34.908,0,0,1-3.746.92c-1.26.239-2.549.423-3.837.552a36.45,36.45,0,0,1-7.759-.1l-.975-.12a5.876,5.876,0,0,1-2.522-.92,25.047,25.047,0,0,1-5.6-5.08,36.3,36.3,0,0,1-3.682-5.448,44.608,44.608,0,0,1-2.6-5.614c-.359-.92-.672-1.914-.975-2.88s-.516-1.915-.764-3.037a4.436,4.436,0,0,1,7.446-4.132l.46.46c.534.534,1.16,1.243,1.739,1.841s1.187,1.27,1.767,1.9c1.187,1.242,2.347,2.448,3.534,3.534a32.837,32.837,0,0,0,3.488,3.009,13.041,13.041,0,0,0,3.028,1.712l-3.488-1.021a29.193,29.193,0,0,0,4.509-.663,31.816,31.816,0,0,0,4.362-1.371,37.757,37.757,0,0,0,4.178-2.015c.681-.378,1.335-.792,1.97-1.187.323-.2.626-.414.92-.608l.414-.285.166-.12h.01a8.8,8.8,0,0,1,11.725,13.133Z" transform="translate(-500.712 -242.434)" fill="#b65b52"/>
      <path id="Trazado_116591" data-name="Trazado 116591" d="M508.381,285.713l3.507-3.682c2.071-4.915-4.712-6.488-4.712-6.488l-4.225-3.083a2.706,2.706,0,0,0-3.442.543l-2.467,2.558a2.761,2.761,0,0,0-.234,3.9l0,0,3.525,3.212a5.517,5.517,0,0,0,2.337,1.371Z" transform="translate(-496.113 -239.452)" fill="#b55b52"/>
      <path id="Trazado_116592" data-name="Trazado 116592" d="M574.864,280.536c-8.154-.479-20.1,8.9-20.1,8.9-1.132,3.12,1.656,14.726,6.645,19.787,0,0,5.724,1.362,10.731-4.675C577.588,297.967,583.506,281.033,574.864,280.536Z" transform="translate(-514.849 -242.162)" fill="#407bff"/>
      <path id="Trazado_116593" data-name="Trazado 116593" d="M576.338,279.776a152.175,152.175,0,0,1,33.528.534,11.3,11.3,0,0,1,9.529,12.832c-.032.215-.069.429-.113.642-5.209,26.248-1.316,55.552-4.685,61.423,0,0-37.191.645-58.9-.846-5.937-28.531,5.742-45.935,11.605-68.189C568.34,282.408,572.426,280.227,576.338,279.776Z" transform="translate(-514.702 -241.706)" fill="#407bff"/>
      <path id="Trazado_116594" data-name="Trazado 116594" d="M646.637,294.44l.829,1.04.736.92c.469.626.92,1.27,1.362,1.905.92,1.27,1.73,2.586,2.54,3.911a66.553,66.553,0,0,1,4.325,8.43,48.382,48.382,0,0,1,3.037,9.562,31.51,31.51,0,0,1,.4,11.238l-.111.755a5.176,5.176,0,0,1-.617,1.758,48.319,48.319,0,0,1-3.681,5.522,56.874,56.874,0,0,1-4.15,4.8c-1.464,1.491-2.964,2.908-4.546,4.243a49.574,49.574,0,0,1-5.035,3.746,4.463,4.463,0,0,1-6.442-5.734l.2-.359c.791-1.583,1.749-3.268,2.6-4.887s1.739-3.24,2.549-4.85,1.574-3.2,2.319-4.749,1.316-3.111,1.887-4.6l-.727,2.5a19.325,19.325,0,0,0-.921-5.439,31.577,31.577,0,0,0-1.132-3.092c-.424-1.049-.92-2.117-1.445-3.185-1.077-2.126-2.282-4.28-3.608-6.387-.644-1.068-1.353-2.107-2.034-3.147l-1.049-1.537-.966-1.372-.322-.46a8.789,8.789,0,0,1,14.054-10.557Z" transform="translate(-539.372 -245.529)" fill="#b65b52"/>
      <path id="Trazado_116595" data-name="Trazado 116595" d="M637.221,282.129c7.694,2.761,14.947,15.775,14.947,15.775-.323,4.74-7.869,15.471-13.207,17.818a26.356,26.356,0,0,1-7.97-12.038C628.542,295.474,633.263,283.307,637.221,282.129Z" transform="translate(-539.168 -242.679)" fill="#407bff"/>
      <path id="Trazado_116596" data-name="Trazado 116596" d="M594.212,276.919a7.119,7.119,0,0,1,3.378-3.194,6.586,6.586,0,0,0,.12-4.417l16.493-5.255c-1.335,5.457-2.383,9.773-.35,12.424-3.249,1.988-9.2,5.522-15.646,5.357S593.154,279.211,594.212,276.919Z" transform="translate(-527.294 -236.88)" fill="#b55b52"/>
      <path id="Trazado_116597" data-name="Trazado 116597" d="M599.962,272.205l12.4-.727c-3.875,4.142-9.746,5.7-12.434,4.013A6.442,6.442,0,0,0,599.962,272.205Z" transform="translate(-529.418 -239.262)" opacity="0.2" style="isolation: isolate"/>
      <path id="Trazado_116598" data-name="Trazado 116598" d="M599.925,289.136l2.688-2.264,3.6,1.841S603.91,290.876,599.925,289.136Z" transform="translate(-529.418 -244.2)" fill="#407bff"/>
      <path id="Trazado_116599" data-name="Trazado 116599" d="M599.925,289.136l2.688-2.264,3.6,1.841S603.91,290.876,599.925,289.136Z" transform="translate(-529.418 -244.2)" opacity="0.3" style="isolation: isolate"/>
      <path id="Trazado_116600" data-name="Trazado 116600" d="M607.294,236.163c-.2-5.071-5.1-7.363-9.341-4.722s-4.6,10.805-1.482,15.066S607.294,236.163,607.294,236.163Z" transform="translate(-527.647 -226.063)" fill="#f5f5f5"/>
      <path id="Trazado_116601" data-name="Trazado 116601" d="M617.638,245.8c-1.97,7.1-3.479,11.89-8.605,14.182-10.207,4.538-14.725-.276-15.121-7.786-.322-6.755,2.954-17.238,11.145-18.766S619.608,238.689,617.638,245.8Z" transform="translate(-527.482 -226.987)" fill="#b55b52"/>
      <path id="Trazado_116602" data-name="Trazado 116602" d="M619.613,245.724c-2.2,2.089-3.074,11.329.248,11.173a48.158,48.158,0,0,0,6.737-.865s4.224-1.6,1.914-7.934S619.613,245.724,619.613,245.724Z" transform="translate(-535.107 -230.608)" fill="#e0e0e0"/>
      <path id="Trazado_116603" data-name="Trazado 116603" d="M611.877,250.42a3.682,3.682,0,0,1,2.761.377A7.3,7.3,0,0,1,611.877,250.42Z" transform="translate(-533.252 -232.469)" opacity="0.2" style="isolation: isolate"/>
      <path id="Trazado_116604" data-name="Trazado 116604" d="M611.741,251.448a3.021,3.021,0,0,1,2.338.92A5.884,5.884,0,0,1,611.741,251.448Z" transform="translate(-533.208 -232.834)" opacity="0.2" style="isolation: isolate"/>
      <path id="Trazado_116605" data-name="Trazado 116605" d="M602.662,239.444a33.217,33.217,0,0,1,6.939.7C605.727,239.868,602.662,239.444,602.662,239.444Z" transform="translate(-530.296 -228.985)" opacity="0.2" style="isolation: isolate"/>
      <path id="Trazado_116606" data-name="Trazado 116606" d="M601.036,240.339s5.3.579,7.758,1.721A61.812,61.812,0,0,1,601.036,240.339Z" transform="translate(-529.774 -229.272)" opacity="0.2" style="isolation: isolate"/>
      <path id="Trazado_116607" data-name="Trazado 116607" d="M627.274,261.263a7.492,7.492,0,0,1-5.218,2.384c-2.641.065-3.341-2.457-2.089-4.6,1.132-1.942,3.865-4.317,6.258-3.35a3.4,3.4,0,0,1,1.049,5.568Z" transform="translate(-535.654 -234.127)" fill="#b55b52"/>
      <ellipse id="Elipse_5372" data-name="Elipse 5372" cx="1.169" cy="0.764" rx="1.169" ry="0.764" transform="matrix(0.177, -0.984, 0.984, 0.177, 74.578, 18.731)" fill="#a22f5f"/>
      <path id="Trazado_116608" data-name="Trazado 116608" d="M598.06,248.19c-.111.626-.543,1.077-.921.994s-.653-.653-.533-1.288.543-1.086.92-1S598.179,247.555,598.06,248.19Z" transform="translate(-528.344 -231.371)" fill="#a22f5f"/>
      <path id="Trazado_116609" data-name="Trazado 116609" d="M600.291,250.136l-.921,5.338a6.116,6.116,0,0,1-1.886-.267.708.708,0,0,1-.166-1.242A12.651,12.651,0,0,0,600.291,250.136Z" transform="translate(-528.485 -232.415)" fill="#a02724"/>
      <path id="Trazado_116610" data-name="Trazado 116610" d="M612.57,247.373a.276.276,0,0,0,.184,0,.368.368,0,0,0,.174-.49l-.008-.016a3.791,3.791,0,0,0-2.761-2.126.377.377,0,0,0-.422.325v.006a.4.4,0,0,0,.331.423h0a3.036,3.036,0,0,1,2.154,1.7A.358.358,0,0,0,612.57,247.373Z" transform="translate(-532.564 -230.683)" fill="#a22f5f"/>
      <path id="Trazado_116611" data-name="Trazado 116611" d="M595.367,244.683a.394.394,0,0,0,.34-.11,2.983,2.983,0,0,1,2.54-.994.377.377,0,0,0,.433-.3.386.386,0,0,0-.3-.441,3.746,3.746,0,0,0-3.221,1.214.368.368,0,0,0-.013.521l.013.013A.331.331,0,0,0,595.367,244.683Z" transform="translate(-527.85 -230.064)" fill="#a22f5f"/>
      <path id="Trazado_116612" data-name="Trazado 116612" d="M616.141,276.926s-5.329,6.442-12.259,6.792a9.159,9.159,0,0,1,4.712,6.443s8.66-2.632,10.289-11.845A3.375,3.375,0,0,0,616.141,276.926Z" transform="translate(-530.687 -241.01)" fill="#fff"/>
      <path id="Trazado_116613" data-name="Trazado 116613" d="M596.665,288.9l-3.037-2.761-3.865,1.151S592.679,290.641,596.665,288.9Z" transform="translate(-526.157 -243.966)" fill="#407bff"/>
      <path id="Trazado_116614" data-name="Trazado 116614" d="M596.665,288.9l-3.037-2.761-3.865,1.151S592.679,290.641,596.665,288.9Z" transform="translate(-526.157 -243.966)" opacity="0.3" style="isolation: isolate"/>
      <path id="Trazado_116615" data-name="Trazado 116615" d="M596.067,278.277s-2.7,3.12-2.825,5.375c-3.24.92-4.8,5.669-4.8,5.669s-.589-6.8,4.5-10.464A5.431,5.431,0,0,1,596.067,278.277Z" transform="translate(-525.725 -241.432)" fill="#fff"/>
      <path id="Trazado_116616" data-name="Trazado 116616" d="M640.837,576.749h-2.623l-.708-1.067-1.381,1.076H620.3a7.129,7.129,0,0,1,.681-3.626s4.731-.433,6.553-2.761a.581.581,0,0,1,.58-.24c1.583.331,7.841,1.519,11.283.276a.57.57,0,0,1,.742.318.581.581,0,0,1,.041.2A37.812,37.812,0,0,0,640.837,576.749Z" transform="translate(-535.946 -335.072)" fill="#a22f5f"/>
      <path id="Trazado_116617" data-name="Trazado 116617" d="M598.863,292.135c.745-1.159,1.131-2.393.294-2.945-.6-.386-2.393-.92-2.761.285a2.884,2.884,0,0,0,.184,2.761,1.546,1.546,0,0,0,2.187,0C598.8,292.206,598.832,292.171,598.863,292.135Z" transform="translate(-528.208 -244.797)" fill="#a22f5f"/>
      <path id="Trazado_116618" data-name="Trazado 116618" d="M600.536,288.769c1.565-2.172,6.166-2.945,6.166-1.159,0,3.433-.11,6.9-1.583,7.713s-3.792-4.5-4.924-4.6Z" transform="translate(-529.504 -244.119)" fill="#a22f5f"/>
      <path id="Trazado_116619" data-name="Trazado 116619" d="M594.583,288.491c-.92-2.292-3.838-3.1-4.316-1.4-.921,3.268-1.049,5.973,0,6.912s3.35-3.553,4.279-3.515Z" transform="translate(-526.082 -243.979)" fill="#a22f5f"/>
      <path id="Trazado_116620" data-name="Trazado 116620" d="M518.744,280.461c1.159-4.206-1.776-6.811-3.405-9.535-.285-.46-1.693-.211-1.767.764a4.471,4.471,0,0,0,.857,3.4c-.857,1.068-2.127,4.8.856,7.234A5.524,5.524,0,0,0,518.744,280.461Z" transform="translate(-501.663 -239.013)" fill="#b55b52"/>
      <path id="Trazado_116621" data-name="Trazado 116621" d="M631.892,280.871a3.58,3.58,0,0,0-2.762-.432c-2.871,3.3-15.342,27.352-10.216,71.925h2.918C616.678,307.782,629.02,284.175,631.892,280.871Z" transform="translate(-535.117 -242.102)" fill="#fff"/>
      <path id="Trazado_116622" data-name="Trazado 116622" d="M622.768,389.923l-.257-3.286a.672.672,0,0,0-.727-.589l-1.408.073a.653.653,0,0,0-.626.672l.257,3.3a.681.681,0,0,0,.727.589l1.408-.083a.645.645,0,0,0,.626-.662Z" transform="translate(-535.778 -276.017)" fill="#fff"/>
      <path id="Trazado_116623" data-name="Trazado 116623" d="M622.367,387.487H619.22a.747.747,0,0,1-.709-.6l-.2-1.27a.5.5,0,0,1,.385-.588.519.519,0,0,1,.121-.01h3.148a.736.736,0,0,1,.7.6l.211,1.27a.5.5,0,0,1-.384.588A.524.524,0,0,1,622.367,387.487Z" transform="translate(-535.312 -275.688)" fill="#a22f5f"/>
      <path id="Trazado_116624" data-name="Trazado 116624" d="M579.963,279.992c-.543-.433-2.255-.184-3.111.3-3.01,3.3-16.567,27.353-13.4,71.925h2.917C563.212,307.6,576.954,283.259,579.963,279.992Z" transform="translate(-517.564 -241.921)" fill="#fff"/>
      <path id="Trazado_116625" data-name="Trazado 116625" d="M566.815,389.923l-.111-3.286a.635.635,0,0,0-.676-.591l-.023,0-1.417.073a.691.691,0,0,0-.653.672l.111,3.3a.654.654,0,0,0,.7.589l1.417-.083A.682.682,0,0,0,566.815,389.923Z" transform="translate(-517.871 -276.017)" fill="#fff"/>
      <path id="Trazado_116626" data-name="Trazado 116626" d="M566.525,387.487h-3.147a.709.709,0,0,1-.681-.6l-.147-1.27a.525.525,0,0,1,.445-.594.545.545,0,0,1,.088,0h3.147a.708.708,0,0,1,.681.6l.147,1.27a.525.525,0,0,1-.446.593A.554.554,0,0,1,566.525,387.487Z" transform="translate(-517.425 -275.688)" fill="#a22f5f"/>
      <path id="Trazado_116627" data-name="Trazado 116627" d="M609.023,224.666c-3.571-2.844-9.489,4.758-1.676,8.982,9.792,5.3,8.615,13.861,21.279,11.357-5.421-3.8-1.979-6.7-4.271-12.185C621.8,226.662,614.812,229.267,609.023,224.666Z" transform="translate(-530.564 -224.044)" fill="#f5f5f5"/>
      <path id="Trazado_116628" data-name="Trazado 116628" d="M603.611,231.666c1.159,4.252,2.567,5.246,3.875,6.36a15.1,15.1,0,0,1-1.943-4.758Z" transform="translate(-530.6 -226.489)" fill="#f5f5f5"/>
      <path id="Trazado_116629" data-name="Trazado 116629" d="M595.9,260.875s2.761-.212,10.225.92c-1.206,2.116-3.111,3.681-6.94,3.1a3.515,3.515,0,0,1-3.317-3.7C595.87,261.086,595.881,260.98,595.9,260.875Z" transform="translate(-528.113 -235.855)" fill="#a22f5f"/>
      <path id="Trazado_116630" data-name="Trazado 116630" d="M601.7,264.484a7.089,7.089,0,0,0-4.335.469,4.191,4.191,0,0,0,2.292,1.031,7.011,7.011,0,0,0,4.326-.469A4.031,4.031,0,0,0,601.7,264.484Z" transform="translate(-528.596 -236.97)" fill="#a02724"/>
      <path id="Trazado_116631" data-name="Trazado 116631" d="M596.429,260.868a1.573,1.573,0,0,0,1,1.288,40.873,40.873,0,0,0,6.7.424,2.163,2.163,0,0,0,1.841-.856A62.176,62.176,0,0,0,596.429,260.868Z" transform="translate(-528.296 -235.858)" fill="#fff"/>
      <path id="Trazado_116632" data-name="Trazado 116632" d="M595.683,268.79c.074,2,2.08,3.682,1.556,4.934a12.492,12.492,0,0,0,7.123-1.6,1.031,1.031,0,0,0-.424-1.841,9.448,9.448,0,0,1-4.4-1.6.92.92,0,0,0-1.187,0A1.919,1.919,0,0,1,595.683,268.79Z" transform="translate(-528.057 -238.294)" fill="#f5f5f5"/>
      <path id="Trazado_116633" data-name="Trazado 116633" d="M624.039,375.43l-46.717-32.553.515-.745,47.168,31.89Z" transform="translate(-522.166 -261.929)" fill="#a22f5f"/>
      <path id="Trazado_116634" data-name="Trazado 116634" d="M636.317,371.456l4.528,2.292c3.607,3.939-2.264,7.694-2.264,7.694l-2.089,2.945a2.688,2.688,0,0,1-3.424.645l-3.184-1.583a2.761,2.761,0,0,1-1.524-3.595l.005-.013,1.38-2.825a5.525,5.525,0,0,1,1.739-2.08Z" transform="translate(-538.475 -271.336)" fill="#b55b52"/>
    </g>
    <g id="Grupo_53584" data-name="Grupo 53584" transform="translate(314.152 182.916)">
      <g id="Grupo_53511" data-name="Grupo 53511" transform="translate(7.445 19.059)">
        <path id="Trazado_116635" data-name="Trazado 116635" d="M472.183,219.377c1.313,5.863.973,12.285-2.368,17.444-2.887,4.459-8.056,8.006-13.464,8.231-5.679.236-11.232-3.522-14.181-8.221-3.134-4.994-2.726-11.533-2.669-17.2a.431.431,0,0,0-.861,0c-.05,4.957-.353,10.52,1.547,15.208a18.982,18.982,0,0,0,9.01,9.441c8.465,4.255,18.446-.819,22.416-8.891,2.48-5.041,2.608-10.84,1.4-16.242-.122-.54-.951-.311-.83.229Z" transform="translate(-438.593 -218.84)" fill="#fff"/>
      </g>
      <g id="Grupo_53512" data-name="Grupo 53512" transform="translate(31.569 23.678)">
        <path id="Trazado_116636" data-name="Trazado 116636" d="M480.363,229.56a5.023,5.023,0,0,0-2.809-3.715,2.673,2.673,0,0,0-3.386,1.144c-.271.5.491.945.762.446.653-1.2,2.073-1.083,3.031-.329a4.547,4.547,0,0,1,1.551,2.69c.122.554.973.32.851-.235Z" transform="translate(-474.111 -225.64)" fill="#fff"/>
      </g>
      <g id="Grupo_53513" data-name="Grupo 53513" transform="translate(12.144 23.635)">
        <path id="Trazado_116637" data-name="Trazado 116637" d="M450.775,226.5a2.865,2.865,0,0,0-3.17-.712,3.61,3.61,0,0,0-2.091,3.018c-.066.5.719.494.784,0,.246-1.849,2.4-3.41,3.922-1.752.342.372.9-.183.555-.555Z" transform="translate(-445.51 -225.578)" fill="#fff"/>
      </g>
      <g id="Grupo_53514" data-name="Grupo 53514" transform="translate(12.962 30.779)">
        <path id="Trazado_116638" data-name="Trazado 116638" d="M469.767,236.317c-2.245,4.724-5.607,8.694-11.252,8.64a11.055,11.055,0,0,1-10.949-8.264c-.163-.528-.994-.3-.83.229a11.879,11.879,0,0,0,11.269,8.881c6.168.287,10.032-3.846,12.505-9.051.236-.5-.505-.935-.743-.435Z" transform="translate(-446.715 -236.096)" fill="#fff"/>
      </g>
      <g id="Grupo_53515" data-name="Grupo 53515" transform="translate(12.12 30.314)">
        <path id="Trazado_116639" data-name="Trazado 116639" d="M447.775,235.461a6.3,6.3,0,0,1-2.148,1.1.215.215,0,0,0,.115.415,6.868,6.868,0,0,0,2.338-1.209c.218-.17-.089-.473-.3-.3Z" transform="translate(-445.476 -235.411)" fill="#fff"/>
      </g>
      <g id="Grupo_53516" data-name="Grupo 53516" transform="translate(35.545 29.842)">
        <path id="Trazado_116640" data-name="Trazado 116640" d="M480.017,235.094a7.478,7.478,0,0,0,2.02,1.742.215.215,0,0,0,.217-.372,7.143,7.143,0,0,1-1.932-1.675c-.174-.216-.477.09-.3.3Z" transform="translate(-479.965 -234.716)" fill="#fff"/>
      </g>
      <g id="Grupo_53517" data-name="Grupo 53517" transform="translate(36.93 23.832)">
        <path id="Trazado_116641" data-name="Trazado 116641" d="M483.274,226.026a2.056,2.056,0,0,1-1.155,1.428c-.257.12-.033.5.223.381a2.472,2.472,0,0,0,1.358-1.692c.062-.277-.363-.395-.426-.117Z" transform="translate(-482.005 -225.868)" fill="#fff"/>
      </g>
      <g id="Grupo_53518" data-name="Grupo 53518" transform="translate(37.299 25.771)">
        <path id="Trazado_116642" data-name="Trazado 116642" d="M483.889,228.834a1.626,1.626,0,0,1-1.181.871c-.279.05-.161.476.117.425a2.04,2.04,0,0,0,1.445-1.073c.13-.252-.251-.475-.381-.223Z" transform="translate(-482.548 -228.723)" fill="#fff"/>
      </g>
      <g id="Grupo_53519" data-name="Grupo 53519" transform="translate(12.174 22.421)">
        <path id="Trazado_116643" data-name="Trazado 116643" d="M445.732,223.9a1.636,1.636,0,0,0,.956,2.293c.265.081.379-.335.114-.415a1.2,1.2,0,0,1-.7-1.661c.128-.245-.242-.463-.372-.217Z" transform="translate(-445.554 -223.79)" fill="#fff"/>
      </g>
      <g id="Grupo_53520" data-name="Grupo 53520" transform="translate(11.408 23.988)">
        <path id="Trazado_116644" data-name="Trazado 116644" d="M444.429,226.368a1.654,1.654,0,0,0,1.283,1.374c.27.058.386-.357.115-.415a1.246,1.246,0,0,1-.983-1.074c-.037-.273-.452-.157-.415.115Z" transform="translate(-444.427 -226.098)" fill="#fff"/>
      </g>
      <g id="Grupo_53521" data-name="Grupo 53521" transform="translate(22.142 29.358)">
        <path id="Trazado_116645" data-name="Trazado 116645" d="M463.135,234.1a4.851,4.851,0,0,0-2.76.238c-.255.1-.144.516.114.415a4.441,4.441,0,0,1,2.532-.238c.27.054.386-.361.114-.415Z" transform="translate(-460.231 -234.004)" fill="#fff"/>
      </g>
      <g id="Grupo_53522" data-name="Grupo 53522" transform="translate(6.211 53.76)">
        <path id="Trazado_116646" data-name="Trazado 116646" d="M442.512,271.585c-.045.623.257,1.469,0,2.052-.405.91-.729-.163-1.089-.416-.826-.579-1.362.76-2.016.979-1.93.649-2.507-2.851-.359-3.278,1.083-.215,2.837-.156,3.581.753.351.429.957-.183.609-.609-1.028-1.256-3.686-1.409-5.078-.757a2.684,2.684,0,0,0-.594,4.263,1.826,1.826,0,0,0,2.027.49,5.459,5.459,0,0,0,1.134-.821c.372-.268.031-.3.345.061a2.745,2.745,0,0,0,.267.359,1.257,1.257,0,0,0,1.633-.145c.767-.769.335-1.995.4-2.932.04-.553-.821-.55-.861,0Z" transform="translate(-436.776 -269.932)" fill="#fff"/>
      </g>
      <g id="Grupo_53523" data-name="Grupo 53523" transform="translate(38.125 50.544)">
        <path id="Trazado_116647" data-name="Trazado 116647" d="M484.628,267.077c.1.616-.128,1.486.182,2.044.484.871.712-.226,1.048-.509.772-.649,1.424.636,2.095.8,1.979.476,2.246-3.06.069-3.3-1.1-.119-2.84.094-3.5,1.065-.312.458-.969-.1-.66-.553.914-1.342,3.548-1.728,4.992-1.2a2.685,2.685,0,0,1,.966,4.194,1.825,1.825,0,0,1-1.976.666,5.466,5.466,0,0,1-1.2-.718c-.395-.235-.058-.3-.339.091a2.784,2.784,0,0,1-.234.382,1.258,1.258,0,0,1-1.64,0c-.832-.7-.509-1.957-.659-2.886-.088-.547.769-.62.857-.075Z" transform="translate(-483.765 -265.197)" fill="#fff"/>
      </g>
      <g id="Grupo_53524" data-name="Grupo 53524" transform="translate(21.179 45.072)">
        <path id="Trazado_116648" data-name="Trazado 116648" d="M458.82,257.936a10.062,10.062,0,0,0,1.782,4.271c.541.736,1.189,1.68,2.2,1.614,2.789-.181,3.973-4.053,4.237-6.27.066-.549-.8-.544-.861,0-.183,1.534-1.367,5.883-3.632,5.273-1.72-.464-2.632-3.6-2.9-5.116-.1-.545-.925-.314-.83.229Z" transform="translate(-458.813 -257.141)" fill="#fff"/>
      </g>
      <g id="Grupo_53525" data-name="Grupo 53525" transform="translate(41.855 24.229)">
        <path id="Trazado_116649" data-name="Trazado 116649" d="M490.108,227.186c.975-.854,2.317.208,2.545,1.2a3.362,3.362,0,0,1-.233,1.894c-.493,1.269-1.483,2.349-2.959,2.152-.274-.037-.271.394,0,.43,2.143.286,3.964-2.2,3.685-4.229-.206-1.505-2.016-2.91-3.342-1.748-.209.183.1.486.3.3Z" transform="translate(-489.256 -226.453)" fill="#fff"/>
      </g>
      <g id="Grupo_53526" data-name="Grupo 53526" transform="translate(42.121 26.429)">
        <path id="Trazado_116650" data-name="Trazado 116650" d="M490.285,230.139c.583-.251.595.782.488,1.08a.9.9,0,0,1-.918.609c-.276-.016-.276.415,0,.43a1.373,1.373,0,0,0,1.413-1.376c.026-.676-.454-1.436-1.2-1.114-.253.109-.035.48.217.372Z" transform="translate(-489.648 -229.691)" fill="#fff"/>
      </g>
      <g id="Grupo_53527" data-name="Grupo 53527" transform="translate(10.159 21.23)">
        <path id="Trazado_116651" data-name="Trazado 116651" d="M443.312,223.891a4.176,4.176,0,0,1,1.491-1.062.434.434,0,0,0,.155-.589.441.441,0,0,0-.589-.154,4.738,4.738,0,0,0-1.665,1.2c-.37.411.237,1.021.609.609Z" transform="translate(-442.589 -222.036)" fill="#fff"/>
      </g>
      <g id="Grupo_53528" data-name="Grupo 53528" transform="translate(36.238 21.364)">
        <path id="Trazado_116652" data-name="Trazado 116652" d="M481.28,223.091a2.534,2.534,0,0,1,1.231.943c.312.453,1.059.023.743-.434a3.516,3.516,0,0,0-1.745-1.339c-.522-.186-.747.645-.228.83Z" transform="translate(-480.986 -222.234)" fill="#fff"/>
      </g>
      <g id="Grupo_53529" data-name="Grupo 53529" transform="translate(2.743)">
        <path id="Trazado_116653" data-name="Trazado 116653" d="M434.029,212.713c-1.191-2.049-2.955-5.985.268-7.273a.436.436,0,0,0,.257-.632,3.853,3.853,0,0,1,.392-4.754c.755-.891,1.872-1.218,2.668-2.011.723-.72.81-1.819,1.4-2.644a5.121,5.121,0,0,1,1.877-1.607c.5-.251,3.081-1.187,2.84.52a.431.431,0,0,0,.83.229,4.306,4.306,0,0,1,4.326-2.889,4.545,4.545,0,0,1,2.643,1.207c.276.242.5.6.857.734.869.336,1.771-.484,2.535-.793,1.94-.785,5.117-.761,5.447,1.959a.436.436,0,0,0,.648.372c1.285-.839,2.736-2.322,4.324-1.337,1.472.913,1.412,2.77,1.555,4.3a.437.437,0,0,0,.431.431c2.175-.135,6.138,1.034,4.618,4.077a.436.436,0,0,0,.486.632,2.6,2.6,0,0,1,3.146,1.85c.248,1.094-.581,1.8-.63,2.775a2.2,2.2,0,0,0,.245.9,3.152,3.152,0,0,1-.539,3.7.434.434,0,0,0,.088.676,2.6,2.6,0,0,1,1.429,3.165.427.427,0,0,0,.111.419,3.135,3.135,0,0,1,1.1,3.111c-.169.717-.8,1.2-.926,1.9a1.85,1.85,0,0,0,.363,1.334c.42.7.543.63.477,1.574a3.65,3.65,0,0,1-.577,1.8,9.189,9.189,0,0,1-1.6,2.277,23.27,23.27,0,0,1-2.539,1.525,2.8,2.8,0,0,0-.806,1.218,2.023,2.023,0,0,1-3.108.926.434.434,0,0,0-.632.257c-.409,1.331-1.827,1.049-2.793.979-.4-.029-1.652.135-1.823-.371-.177-.522-1.008-.3-.83.229.418,1.239,2.2,1,3.243,1.053,1.333.063,2.606-.274,3.033-1.662l-.632.257a2.876,2.876,0,0,0,2.774.306c1.336-.546,1.3-1.927,2.387-2.677.575-.4,1.278-.555,1.844-1a7.345,7.345,0,0,0,1.407-1.534c.69-.974,1.749-2.453,1.769-3.695a2.223,2.223,0,0,0-.417-1.279,4.775,4.775,0,0,1-.53-.767c-.3-.847.128-.988.437-1.583a3.948,3.948,0,0,0,.151-3.195c-.183-.487-.7-.89-.854-1.334a5.691,5.691,0,0,1-.037-1.244,3.44,3.44,0,0,0-1.977-2.73l.087.676a4.025,4.025,0,0,0,1.192-3.09,14.229,14.229,0,0,0-.421-1.477c-.16-.983.34-1.568.438-2.46a3.414,3.414,0,0,0-4.269-3.64l.486.632a3.407,3.407,0,0,0-.528-3.861c-1.2-1.373-3.111-1.618-4.833-1.511l.43.43c-.167-1.79-.175-4.063-1.982-5.043-2.116-1.147-3.381.154-5.193,1.337l.647.372a3.764,3.764,0,0,0-2.977-3.225,5.774,5.774,0,0,0-3.134.264c-1.01.338-1.858,1.2-2.823.609a10.905,10.905,0,0,0-2.007-1.316,5.116,5.116,0,0,0-2.829-.195,5.286,5.286,0,0,0-3.729,3.418l.83.229c.208-1.476-.958-2.186-2.323-2.053a5.789,5.789,0,0,0-4.315,3.057c-.192.363-.275.788-.468,1.14-.558,1.017-1.236,1.184-2.055,1.792a6.238,6.238,0,0,0-1.647,1.765,4.6,4.6,0,0,0,.061,5l.257-.632c-3.8,1.519-2.314,5.9-.782,8.538a.431.431,0,0,0,.743-.435Z" transform="translate(-431.669 -190.778)" fill="#fff"/>
      </g>
      <g id="Grupo_53530" data-name="Grupo 53530" transform="translate(0 20.405)">
        <path id="Trazado_116654" data-name="Trazado 116654" d="M431.054,220.866a2.287,2.287,0,0,0-1.3,2c-.044.412.071.815.043,1.213-.068.962-.738,1.278-1.244,1.969-1.377,1.879-1.04,3.8-.156,5.75.564,1.242.067,2.613.89,3.8.7,1,1.772.982,2.544,1.7.9.838,1.053,2.11,2.321,2.621a2.147,2.147,0,0,0,2.355-.456l-.735-.3a2.44,2.44,0,0,0,4.389,1.461c.351-.424-.254-1.036-.609-.609a1.611,1.611,0,0,1-2.92-.852.436.436,0,0,0-.734-.3c-1.333,1.223-2.364-.463-2.827-1.26a4.922,4.922,0,0,0-.489-.882,2.259,2.259,0,0,0-1.148-.606c-1.767-.634-1.731-1.826-1.82-3.389a3.953,3.953,0,0,0-.706-1.744c-1.074-2.046-.2-3.841,1.261-5.329,1.144-1.169-.384-3.252,1.316-4.038.5-.232.065-.974-.435-.743Z" transform="translate(-427.63 -220.822)" fill="#fff"/>
      </g>
      <g id="Grupo_53531" data-name="Grupo 53531" transform="translate(7.539 11.579)">
        <path id="Trazado_116655" data-name="Trazado 116655" d="M438.94,216.338a3.062,3.062,0,0,0,3.575-.391c1.424-1.189,1.627-3.175,1.79-4.9l-.647.372c1.383,1.007,3.257,1.822,4.957,1.1,1.67-.712,2.227-2.542,2.637-4.152l-.786.1a5.207,5.207,0,0,0,8.5,1.014l-.719-.19c.306,1.1-.2,2.17.528,3.154a2.741,2.741,0,0,0,1.855,1.055c.419.044.844-.219,1.211-.189.636.052.655.5.889.957a2.56,2.56,0,0,0,3.235,1.269c.331-.123.747-.626,1.026-.673.621-.106,1.107,1.146,1.761,1.463a2.6,2.6,0,0,0,1.147.264,7.2,7.2,0,0,1,1.91.207c.549.132.984.212,1.262-.376.235-.5-.507-.935-.743-.435.089-.188-1.256-.484-1.424-.481-.617.012-.676.5-1.491.162-.767-.315-.9-.875-1.314-1.47-.6-.863-1.075-.424-1.716.058-.894.672-2.065.95-2.818-.24-.214-.337-.175-.788-.348-1.124s-.281-.488-.615-.588c-1.095-.327-1.84.912-2.944-.157-.82-.795-.3-2.074-.58-3.085a.434.434,0,0,0-.719-.189,4.349,4.349,0,0,1-7.151-.84.435.435,0,0,0-.786.1c-.346,1.36-.736,2.952-2.147,3.562-1.459.631-3-.163-4.183-1.021-.29-.211-.62.082-.647.372-.179,1.9-1.181,6.221-4.071,4.546a.431.431,0,0,0-.434.743Z" transform="translate(-438.731 -207.827)" fill="#fff"/>
      </g>
      <g id="Grupo_53532" data-name="Grupo 53532" transform="translate(2.321 26.77)">
        <path id="Trazado_116656" data-name="Trazado 116656" d="M431.546,230.258a1.986,1.986,0,0,0,.119,2.752c.594.614,1.756,1.217,2.34.273.133-.215-.206-.412-.338-.2-.472.763-1.481-.043-1.847-.486a1.56,1.56,0,0,1,0-2.065c.162-.192-.114-.47-.277-.277Z" transform="translate(-431.048 -230.193)" fill="#fff"/>
      </g>
      <g id="Grupo_53533" data-name="Grupo 53533" transform="translate(3.53 31.981)">
        <path id="Trazado_116657" data-name="Trazado 116657" d="M432.828,238.055a2.245,2.245,0,0,0,2.854,2.133.2.2,0,0,0-.1-.378,1.853,1.853,0,0,1-2.358-1.756c-.009-.251-.4-.253-.392,0Z" transform="translate(-432.828 -237.866)" fill="#fff"/>
      </g>
      <g id="Grupo_53534" data-name="Grupo 53534" transform="translate(6.468 36.298)">
        <path id="Trazado_116658" data-name="Trazado 116658" d="M437.185,244.512a.715.715,0,0,0,1.189.009c.138-.212-.2-.408-.338-.2a.32.32,0,0,1-.513-.009c-.132-.214-.471-.018-.338.2Z" transform="translate(-437.154 -244.222)" fill="#fff"/>
      </g>
      <g id="Grupo_53535" data-name="Grupo 53535" transform="translate(7.443 13.923)">
        <path id="Trazado_116659" data-name="Trazado 116659" d="M438.731,215.913a2.784,2.784,0,0,0,2.648-1,3.65,3.65,0,0,0,.246-3.5c-.086-.235-.465-.134-.378.1a3.7,3.7,0,0,1,.151,2.559,2.345,2.345,0,0,1-2.564,1.461c-.247-.034-.353.343-.1.378Z" transform="translate(-438.589 -211.278)" fill="#fff"/>
      </g>
      <g id="Grupo_53536" data-name="Grupo 53536" transform="translate(11.995 10.413)">
        <path id="Trazado_116660" data-name="Trazado 116660" d="M445.386,208.806c1.149.654,2.546,1.223,3.845.628,1.217-.558,1.515-1.866,1.7-3.078.038-.247-.34-.353-.378-.1-.179,1.169-.431,2.5-1.729,2.92a4.1,4.1,0,0,1-3.242-.7.2.2,0,0,0-.2.338Z" transform="translate(-445.291 -206.11)" fill="#fff"/>
      </g>
      <g id="Grupo_53537" data-name="Grupo 53537" transform="translate(10.402 4.299)">
        <path id="Trazado_116661" data-name="Trazado 116661" d="M443.332,199.543a3.241,3.241,0,0,1,.847-1.706,1.4,1.4,0,0,1,2.125.42.2.2,0,0,0,.338-.2,1.8,1.8,0,0,0-2.18-.843,2.912,2.912,0,0,0-1.508,2.223.2.2,0,0,0,.378.1Z" transform="translate(-442.946 -197.108)" fill="#fff"/>
      </g>
      <g id="Grupo_53538" data-name="Grupo 53538" transform="translate(17.303 3.047)">
        <path id="Trazado_116662" data-name="Trazado 116662" d="M453.4,196.305c.932-.585,2.362-1.142,3.145-.007.142.206.482.01.338-.2-.91-1.32-2.537-.851-3.68-.133-.213.134-.016.473.2.338Z" transform="translate(-453.106 -195.264)" fill="#fff"/>
      </g>
      <g id="Grupo_53539" data-name="Grupo 53539" transform="translate(20.071 10.006)">
        <path id="Trazado_116663" data-name="Trazado 116663" d="M457.227,205.855a4.009,4.009,0,0,0,2.258,1.728,3.947,3.947,0,0,0,2.739-.941c.21-.138.014-.477-.2-.338a3.345,3.345,0,0,1-2.708.838,4.11,4.11,0,0,1-1.815-1.564c-.157-.2-.432.081-.277.277Z" transform="translate(-457.182 -205.511)" fill="#fff"/>
      </g>
      <g id="Grupo_53540" data-name="Grupo 53540" transform="translate(23.011 8.467)">
        <path id="Trazado_116664" data-name="Trazado 116664" d="M461.557,203.589a1.243,1.243,0,0,0,1.4.385c.234-.087.133-.466-.1-.378a.87.87,0,0,1-1.015-.285c-.156-.2-.432.081-.276.277Z" transform="translate(-461.511 -203.245)" fill="#fff"/>
      </g>
      <g id="Grupo_53541" data-name="Grupo 53541" transform="translate(28.775 12.722)">
        <path id="Trazado_116665" data-name="Trazado 116665" d="M470.052,209.65c-.415,1.8,1.667,2.844,3.125,2.085.223-.116.026-.454-.2-.338-1.144.6-2.887-.182-2.55-1.643.057-.245-.321-.35-.378-.1Z" transform="translate(-469.998 -209.51)" fill="#fff"/>
      </g>
      <g id="Grupo_53542" data-name="Grupo 53542" transform="translate(30.092 12.402)">
        <path id="Trazado_116666" data-name="Trazado 116666" d="M471.963,209.179a1.294,1.294,0,0,0,1.217,1.573c.252.014.251-.378,0-.392a.9.9,0,0,1-.839-1.077c.048-.247-.329-.352-.378-.1Z" transform="translate(-471.936 -209.038)" fill="#fff"/>
      </g>
      <g id="Grupo_53543" data-name="Grupo 53543" transform="translate(32.501 16.053)">
        <path id="Trazado_116667" data-name="Trazado 116667" d="M475.517,214.7a1.707,1.707,0,0,0,1.412.771.2.2,0,0,0,0-.391,1.3,1.3,0,0,1-1.074-.577c-.14-.208-.479-.012-.338.2Z" transform="translate(-475.483 -214.414)" fill="#fff"/>
      </g>
      <g id="Grupo_53544" data-name="Grupo 53544" transform="translate(36.958 15.01)">
        <path id="Trazado_116668" data-name="Trazado 116668" d="M482.046,213.068c.007,2.949,3.153,3.778,5.558,3.706.251-.007.253-.4,0-.391-2.177.066-5.16-.58-5.167-3.314a.2.2,0,0,0-.391,0Z" transform="translate(-482.046 -212.878)" fill="#fff"/>
      </g>
      <g id="Grupo_53545" data-name="Grupo 53545" transform="translate(38.406 15.834)">
        <path id="Trazado_116669" data-name="Trazado 116669" d="M484.226,214.435a5.136,5.136,0,0,0,3.276,1.854c.246.036.352-.342.1-.377a4.835,4.835,0,0,1-3.1-1.754c-.159-.195-.435.084-.276.277Z" transform="translate(-484.178 -214.091)" fill="#fff"/>
      </g>
      <g id="Grupo_53546" data-name="Grupo 53546" transform="translate(42.515 21.668)">
        <path id="Trazado_116670" data-name="Trazado 116670" d="M490.245,222.981a3.176,3.176,0,0,1,.243,1.43c-.014.252.378.251.391,0a3.613,3.613,0,0,0-.3-1.628c-.1-.231-.436-.032-.338.2Z" transform="translate(-490.227 -222.681)" fill="#fff"/>
      </g>
      <g id="Grupo_53547" data-name="Grupo 53547" transform="translate(41.596 30.515)">
        <path id="Trazado_116671" data-name="Trazado 116671" d="M490.277,235.953a2.045,2.045,0,0,1-1.271,2.164c-.232.09-.131.469.1.378a2.447,2.447,0,0,0,1.544-2.645c-.035-.249-.412-.143-.378.1Z" transform="translate(-488.874 -235.707)" fill="#fff"/>
      </g>
      <g id="Grupo_53548" data-name="Grupo 53548" transform="translate(42.212 32.617)">
        <path id="Trazado_116672" data-name="Trazado 116672" d="M491.145,238.9a1.893,1.893,0,0,1-1.225.979.2.2,0,0,0,.1.378,2.277,2.277,0,0,0,1.459-1.159c.116-.223-.222-.421-.338-.2Z" transform="translate(-489.781 -238.801)" fill="#fff"/>
      </g>
      <g id="Grupo_53549" data-name="Grupo 53549" transform="translate(36.891 38.92)">
        <path id="Trazado_116673" data-name="Trazado 116673" d="M482.193,250.78c1.229-.206,3.17-1.026,3.135-2.508a.2.2,0,0,0-.392,0c.029,1.254-1.825,1.959-2.848,2.131-.248.041-.143.419.1.378Z" transform="translate(-481.947 -248.083)" fill="#fff"/>
      </g>
      <g id="Grupo_53550" data-name="Grupo 53550" transform="translate(40.808 39.068)">
        <path id="Trazado_116674" data-name="Trazado 116674" d="M487.9,249.065a1.282,1.282,0,0,0,1.077-.424c.167-.188-.109-.466-.277-.277a.917.917,0,0,1-.8.31c-.251-.024-.249.367,0,.391Z" transform="translate(-487.714 -248.3)" fill="#fff"/>
      </g>
      <g id="Grupo_53551" data-name="Grupo 53551" transform="translate(32.721 4.857)">
        <path id="Trazado_116675" data-name="Trazado 116675" d="M476.138,198.93a1.737,1.737,0,0,1,2.161-.384,2.323,2.323,0,0,1,.946,2.105c.012.251.4.253.392,0a2.636,2.636,0,0,0-1.321-2.537,2.137,2.137,0,0,0-2.455.539c-.174.183.1.46.276.276Z" transform="translate(-475.807 -197.929)" fill="#fff"/>
      </g>
      <g id="Grupo_53552" data-name="Grupo 53552" transform="translate(26.758 3.912)">
        <path id="Trazado_116676" data-name="Trazado 116676" d="M467.4,197.564a1.541,1.541,0,0,1,2.5.012c.156.2.431-.081.277-.277a1.928,1.928,0,0,0-3.116.068c-.151.2.188.4.338.2Z" transform="translate(-467.027 -196.539)" fill="#fff"/>
      </g>
      <g id="Grupo_53553" data-name="Grupo 53553" transform="translate(38.77 9.53)">
        <path id="Trazado_116677" data-name="Trazado 116677" d="M484.9,205.207c1.229-.094,1.595,1.227,1.5,2.21-.024.251.367.249.392,0,.115-1.2-.448-2.713-1.892-2.6-.25.02-.252.412,0,.392Z" transform="translate(-484.714 -204.81)" fill="#fff"/>
      </g>
      <g id="Grupo_53554" data-name="Grupo 53554" transform="translate(42.945 13.912)">
        <path id="Trazado_116678" data-name="Trazado 116678" d="M491,211.648a1.755,1.755,0,0,1,1.238,1.265.2.2,0,0,0,.378-.1,2.154,2.154,0,0,0-1.512-1.539.2.2,0,0,0-.1.378Z" transform="translate(-490.86 -211.262)" fill="#fff"/>
      </g>
      <g id="Grupo_53555" data-name="Grupo 53555" transform="translate(16.7 44.813)">
        <path id="Trazado_116679" data-name="Trazado 116679" d="M456.044,257.717c-.081,4.117-1.913,7.787-3.77,11.369a.438.438,0,0,0,.257.632,20.6,20.6,0,0,0,17.116-.864.437.437,0,0,0,.154-.589,47.988,47.988,0,0,1-4.776-11.2.431.431,0,0,0-.83.229,48.839,48.839,0,0,0,4.863,11.406q.077-.294.154-.589a19.75,19.75,0,0,1-16.453.777l.257.632c1.928-3.719,3.8-7.53,3.887-11.8a.431.431,0,0,0-.861,0Z" transform="translate(-452.219 -256.76)" fill="#fff"/>
      </g>
      <g id="Grupo_53556" data-name="Grupo 53556" transform="translate(9.519 56.09)">
        <path id="Trazado_116680" data-name="Trazado 116680" d="M448.849,274.717a97.027,97.027,0,0,0-7.086,7.067.435.435,0,0,0,.19.719c1,.225,2.067.02,3.04.32,1.506.464,1.29,1.567,2.19,2.495,1.11,1.143,2.782-.714,3.921-.778a2.108,2.108,0,0,1,1.771.67c.323.337.359.722.638,1.058a1.134,1.134,0,0,0,1.112.446,5.972,5.972,0,0,0,1.777-.9c1.725-.892,2.785.186,3.814,1.47a.434.434,0,0,0,.676-.087,4.005,4.005,0,0,1,4.965-1.568.438.438,0,0,0,.589-.154c.553-1.223,1.515-3.191,3.308-2.346a.436.436,0,0,0,.632-.257,2.979,2.979,0,0,1,2.76-2.425.435.435,0,0,0,.3-.734c-2.3-2.087-4.8-3.96-6.942-6.219-.382-.4-.99.207-.609.609,2.146,2.258,4.638,4.132,6.942,6.219l.3-.735a3.835,3.835,0,0,0-3.589,3.057l.632-.257c-2.17-1.022-3.666.845-4.485,2.655l.589-.154a4.886,4.886,0,0,0-6.142,1.877l.676-.087c-1.131-1.41-2.5-2.607-4.371-1.845-.43.175-.815.547-1.248.689-.812.266-.808.026-1.271-.441a4.423,4.423,0,0,0-1.392-1.15,3.077,3.077,0,0,0-2.143-.2c-.5.141-.872.505-1.343.682-1.614.605-1.3.086-1.847-.864-1.2-2.077-3.008-1.426-5.028-1.88l.19.719a97,97,0,0,1,7.086-7.067c.412-.371-.2-.978-.609-.609Z" transform="translate(-441.645 -273.363)" fill="#fff"/>
      </g>
      <g id="Grupo_53557" data-name="Grupo 53557" transform="translate(12.078 45.41)">
        <path id="Trazado_116681" data-name="Trazado 116681" d="M454.57,257.669c-4.375,1.693-4.431,7.883-8.857,9.293-.526.168-.3,1,.228.83,4.581-1.46,4.554-7.628,8.857-9.294.511-.2.289-1.03-.228-.829Z" transform="translate(-445.413 -257.639)" fill="#fff"/>
      </g>
      <g id="Grupo_53558" data-name="Grupo 53558" transform="translate(29.057 45.156)">
        <path id="Trazado_116682" data-name="Trazado 116682" d="M470.826,258.136c2.247-.162,3.62,1.611,5.048,3.054a22.7,22.7,0,0,0,3.972,3.174c.469.3.9-.446.435-.743a36.941,36.941,0,0,1-5.306-4.594,5.438,5.438,0,0,0-4.149-1.752c-.549.04-.554.9,0,.861Z" transform="translate(-470.412 -257.263)" fill="#fff"/>
      </g>
      <g id="Grupo_53559" data-name="Grupo 53559" transform="translate(23.984 78.298)">
        <path id="Trazado_116683" data-name="Trazado 116683" d="M463.946,308.042c-.379,1.311.609,2.4,1.561,3.13a4.492,4.492,0,0,0,1.729.84,7.121,7.121,0,0,0,.869.132q1.143.279.651-.037a7.085,7.085,0,0,0-.526-1.519,8.7,8.7,0,0,0-.843-1.652,6.849,6.849,0,0,0-1.105-1.359c-.644-.583-2.139-.78-2.315.352-.088.561-1.013.609-.924.041a2.089,2.089,0,0,1,3.2-1.6,6.484,6.484,0,0,1,2.22,2.5c.513.9,1.325,2.385,1.174,3.479-.2,1.468-3.041.489-3.791.117-1.677-.829-3.361-2.6-2.78-4.614C463.222,307.3,464.108,307.483,463.946,308.042Z" transform="translate(-462.944 -306.061)" fill="#fff"/>
      </g>
      <g id="Grupo_53560" data-name="Grupo 53560" transform="translate(37.957 73.952)">
        <path id="Trazado_116684" data-name="Trazado 116684" d="M484.454,301.787c-.21,1.349.908,2.307,1.945,2.907a4.487,4.487,0,0,0,1.822.615,7.287,7.287,0,0,0,.878.02q1.169.131.64-.119a7.062,7.062,0,0,0-.714-1.44,8.632,8.632,0,0,0-1.045-1.532,6.9,6.9,0,0,0-1.268-1.208c-.712-.5-2.222-.5-2.253.643-.015.567-.927.733-.911.158a2.09,2.09,0,0,1,2.969-1.988,6.484,6.484,0,0,1,2.518,2.2c.622.825,1.616,2.2,1.6,3.3-.015,1.482-2.954.871-3.746.6-1.769-.611-3.664-2.158-3.342-4.225C483.642,301.142,484.543,301.212,484.454,301.787Z" transform="translate(-483.517 -299.661)" fill="#fff"/>
      </g>
      <g id="Grupo_53561" data-name="Grupo 53561" transform="translate(15.775 58.56)">
        <path id="Trazado_116685" data-name="Trazado 116685" d="M451.22,286.148c1.547-2.906,3.449-5.815,4.582-8.911.086-.237-.292-.339-.378-.1-1.121,3.062-3.012,5.942-4.543,8.817-.118.222.22.42.338.2Z" transform="translate(-450.857 -277)" fill="#fff"/>
      </g>
      <g id="Grupo_53562" data-name="Grupo 53562" transform="translate(22.22 58.761)">
        <path id="Trazado_116686" data-name="Trazado 116686" d="M461.289,277.437a71.136,71.136,0,0,0-.943,9.972.2.2,0,0,0,.392,0,70.282,70.282,0,0,1,.929-9.869c.041-.247-.336-.353-.378-.1Z" transform="translate(-460.346 -277.295)" fill="#fff"/>
      </g>
      <g id="Grupo_53563" data-name="Grupo 53563" transform="translate(26.533 58.761)">
        <path id="Trazado_116687" data-name="Trazado 116687" d="M466.7,277.482c.141,1.593.225,3.2.468,4.783a52.9,52.9,0,0,0,1.381,5.605.2.2,0,0,0,.378-.1c-.449-1.675-.981-3.354-1.292-5.062s-.391-3.486-.543-5.222c-.022-.249-.414-.251-.392,0Z" transform="translate(-466.697 -277.295)" fill="#fff"/>
      </g>
      <g id="Grupo_53564" data-name="Grupo 53564" transform="translate(29.666 58.049)">
        <path id="Trazado_116688" data-name="Trazado 116688" d="M471.341,276.536A32.85,32.85,0,0,1,474.928,286a.2.2,0,0,0,.378-.1,33.191,33.191,0,0,0-3.626-9.555c-.134-.213-.473-.016-.338.2Z" transform="translate(-471.31 -276.247)" fill="#fff"/>
      </g>
      <g id="Grupo_53565" data-name="Grupo 53565" transform="translate(31.847 57.305)">
        <path id="Trazado_116689" data-name="Trazado 116689" d="M474.548,275.444a47.255,47.255,0,0,0,5.789,7.972c.168.187.445-.09.276-.277a46.823,46.823,0,0,1-5.728-7.893.2.2,0,0,0-.338.2Z" transform="translate(-474.52 -275.151)" fill="#fff"/>
      </g>
      <g id="Grupo_53566" data-name="Grupo 53566" transform="translate(17.946 55.094)">
        <path id="Trazado_116690" data-name="Trazado 116690" d="M454.193,272.976a29.054,29.054,0,0,0,15.111-.691c.239-.076.137-.454-.1-.378a28.632,28.632,0,0,1-14.9.691c-.246-.054-.35.323-.1.378Z" transform="translate(-454.053 -271.897)" fill="#fff"/>
      </g>
      <g id="Grupo_53567" data-name="Grupo 53567" transform="translate(21.332 48.577)">
        <path id="Trazado_116691" data-name="Trazado 116691" d="M459.228,262.693a.2.2,0,0,0,0-.392.2.2,0,0,0,0,.392Z" transform="translate(-459.038 -262.301)" fill="#fff"/>
      </g>
      <g id="Grupo_53568" data-name="Grupo 53568" transform="translate(21.75 49.987)">
        <path id="Trazado_116692" data-name="Trazado 116692" d="M459.843,264.768a.2.2,0,0,0,0-.391.2.2,0,0,0,0,.391Z" transform="translate(-459.653 -264.377)" fill="#fff"/>
      </g>
      <g id="Grupo_53569" data-name="Grupo 53569" transform="translate(22.637 51.083)">
        <path id="Trazado_116693" data-name="Trazado 116693" d="M461.15,266.383a.2.2,0,0,0,0-.392.2.2,0,0,0,0,.392Z" transform="translate(-460.96 -265.991)" fill="#fff"/>
      </g>
      <g id="Grupo_53570" data-name="Grupo 53570" transform="translate(23.42 51.866)">
        <path id="Trazado_116694" data-name="Trazado 116694" d="M462.3,267.536a.2.2,0,0,0,0-.392.2.2,0,0,0,0,.392Z" transform="translate(-462.113 -267.144)" fill="#fff"/>
      </g>
      <g id="Grupo_53571" data-name="Grupo 53571" transform="translate(24.203 52.389)">
        <path id="Trazado_116695" data-name="Trazado 116695" d="M463.456,268.3a.2.2,0,0,0,0-.391.2.2,0,0,0,0,.391Z" transform="translate(-463.266 -267.913)" fill="#fff"/>
      </g>
      <g id="Grupo_53572" data-name="Grupo 53572" transform="translate(25.3 52.702)">
        <path id="Trazado_116696" data-name="Trazado 116696" d="M465.07,268.766a.2.2,0,0,0,0-.392.2.2,0,0,0,0,.392Z" transform="translate(-464.881 -268.374)" fill="#fff"/>
      </g>
      <g id="Grupo_53573" data-name="Grupo 53573" transform="translate(26.344 52.179)">
        <path id="Trazado_116697" data-name="Trazado 116697" d="M466.608,268a.2.2,0,0,0,0-.392.2.2,0,0,0,0,.392Z" transform="translate(-466.418 -267.605)" fill="#fff"/>
      </g>
      <g id="Grupo_53574" data-name="Grupo 53574" transform="translate(27.44 51.136)">
        <path id="Trazado_116698" data-name="Trazado 116698" d="M468.222,266.46a.2.2,0,0,0,0-.392.2.2,0,0,0,0,.392Z" transform="translate(-468.032 -266.068)" fill="#fff"/>
      </g>
      <g id="Grupo_53575" data-name="Grupo 53575" transform="translate(28.433 49.935)">
        <path id="Trazado_116699" data-name="Trazado 116699" d="M469.683,264.692a.2.2,0,0,0,0-.392.2.2,0,0,0,0,.392Z" transform="translate(-469.493 -264.3)" fill="#fff"/>
      </g>
      <g id="Grupo_53576" data-name="Grupo 53576" transform="translate(28.955 48.786)">
        <path id="Trazado_116700" data-name="Trazado 116700" d="M470.451,263a.2.2,0,0,0,0-.391.2.2,0,0,0,0,.391Z" transform="translate(-470.262 -262.609)" fill="#fff"/>
      </g>
      <g id="Grupo_53577" data-name="Grupo 53577" transform="translate(14.703 58.364)">
        <path id="Trazado_116701" data-name="Trazado 116701" d="M454.323,276.807q-2.359,4.153-5.01,8.124c-.14.211.2.407.338.2q2.651-3.972,5.01-8.124a.2.2,0,0,0-.338-.2Z" transform="translate(-449.279 -276.711)" fill="#fff"/>
      </g>
      <g id="Grupo_53578" data-name="Grupo 53578" transform="translate(22.842 58.905)">
        <path id="Trazado_116702" data-name="Trazado 116702" d="M462.43,277.649a84.985,84.985,0,0,0-1.168,9.122c-.01.252.382.252.392,0a83.929,83.929,0,0,1,1.154-9.018c.037-.247-.34-.352-.378-.1Z" transform="translate(-461.262 -277.507)" fill="#fff"/>
      </g>
      <g id="Grupo_53579" data-name="Grupo 53579" transform="translate(27.252 58.655)">
        <path id="Trazado_116703" data-name="Trazado 116703" d="M467.768,277.377a28.886,28.886,0,0,1,.917,4.688c.3,1.663.7,3.3,1.153,4.932a.2.2,0,0,0,.378-.1c-.456-1.627-.849-3.269-1.153-4.932a28.873,28.873,0,0,0-.917-4.688c-.085-.236-.463-.134-.378.1Z" transform="translate(-467.756 -277.139)" fill="#fff"/>
      </g>
      <g id="Grupo_53580" data-name="Grupo 53580" transform="translate(30.652 58.024)">
        <path id="Trazado_116704" data-name="Trazado 116704" d="M472.8,276.5c1.779,2.637,2.5,6.191,3.484,9.195.078.238.456.137.378-.1-.99-3.039-1.717-6.61-3.523-9.289-.14-.208-.48-.012-.338.2Z" transform="translate(-472.761 -276.211)" fill="#fff"/>
      </g>
      <g id="Grupo_53581" data-name="Grupo 53581" transform="translate(32.703 57.079)">
        <path id="Trazado_116705" data-name="Trazado 116705" d="M475.8,275.119a14.014,14.014,0,0,0,2.242,3.612,20.263,20.263,0,0,0,1.547,1.62q.41.386.834.754c.148.129,1.39.966,1.361.8-.042-.248-.42-.143-.378.1l.01.058a.2.2,0,0,0,.24.137l.079-.012c.133-.019.167-.188.117-.287-.231-.455-.772-.742-1.153-1.073a23.934,23.934,0,0,1-1.786-1.707,14.253,14.253,0,0,1-2.777-4.2c-.1-.231-.435-.032-.338.2Z" transform="translate(-475.781 -274.819)" fill="#fff"/>
      </g>
      <g id="Grupo_53582" data-name="Grupo 53582" transform="translate(21.724 68.612)">
        <path id="Trazado_116706" data-name="Trazado 116706" d="M459.636,292.28c1.057,3.381,1.489,6.911,2.47,10.312a.392.392,0,0,0,.755-.208c-.981-3.4-1.413-6.93-2.47-10.311-.15-.48-.907-.275-.755.208Z" transform="translate(-459.616 -291.799)" fill="#fff"/>
      </g>
      <g id="Grupo_53583" data-name="Grupo 53583" transform="translate(34.006 66.866)">
        <path id="Trazado_116707" data-name="Trazado 116707" d="M477.98,290c1.326.291,2.012,2.42,2.59,3.485l1.959,3.605c.24.443.917.048.676-.4l-2.743-5.048c-.555-1.021-1.049-2.133-2.275-2.4-.492-.108-.7.647-.209.755Z" transform="translate(-477.699 -289.229)" fill="#fff"/>
      </g>
    </g>
  </g>
</svg>
