<svg xmlns="http://www.w3.org/2000/svg" width="165.304" height="165.304" viewBox="0 0 165.304 165.304">
  <g id="Grupo_55338" data-name="Grupo 55338" transform="translate(9604 6123)">
    <circle id="Base" cx="82.652" cy="82.652" r="82.652" transform="translate(-9604 -6123)" fill="#ea3065"/>
    <g id="search" transform="translate(-9570.016 -6089)">
      <g id="Grupo_55283" data-name="Grupo 55283" transform="translate(81.419 11.366)">
        <g id="Grupo_55282" data-name="Grupo 55282">
          <g id="Grupo_55281" data-name="Grupo 55281">
            <g id="Grupo_55280" data-name="Grupo 55280">
              <g id="Grupo_55279" data-name="Grupo 55279">
                <g id="Grupo_55278" data-name="Grupo 55278">
                  <g id="Grupo_55277" data-name="Grupo 55277">
                    <g id="Grupo_55276" data-name="Grupo 55276">
                      <path id="Trazado_119901" data-name="Trazado 119901" d="M431.405,63.76a1.867,1.867,0,0,1-.37-.038,1.78,1.78,0,0,1-.354-.108,1.869,1.869,0,0,1-.328-.174,1.839,1.839,0,0,1-.523-.523,1.883,1.883,0,0,1-.174-.328,1.768,1.768,0,0,1-.108-.354,1.821,1.821,0,0,1,0-.739,1.824,1.824,0,0,1,.108-.356,1.924,1.924,0,0,1,.174-.326,1.814,1.814,0,0,1,.235-.288,1.928,1.928,0,0,1,.288-.237,1.743,1.743,0,0,1,.328-.172,1.919,1.919,0,0,1,.354-.11,1.94,1.94,0,0,1,.739,0,1.914,1.914,0,0,1,.354.11,1.862,1.862,0,0,1,.328.172,1.923,1.923,0,0,1,.525.525,1.914,1.914,0,0,1,.172.326,1.833,1.833,0,0,1,.11.356,1.915,1.915,0,0,1,0,.739,1.776,1.776,0,0,1-.11.354,1.863,1.863,0,0,1-.172.328,1.925,1.925,0,0,1-.237.288,1.813,1.813,0,0,1-.288.235,1.869,1.869,0,0,1-.328.174,1.783,1.783,0,0,1-.354.108A1.856,1.856,0,0,1,431.405,63.76Z" transform="translate(-429.51 -59.97)" fill="#fff"/>
                    </g>
                  </g>
                </g>
              </g>
            </g>
          </g>
        </g>
      </g>
      <g id="Grupo_55287" data-name="Grupo 55287" transform="translate(0.015 0)">
        <g id="Grupo_55286" data-name="Grupo 55286" transform="translate(0 0)">
          <g id="Grupo_55285" data-name="Grupo 55285">
            <g id="Grupo_55284" data-name="Grupo 55284">
              <path id="Trazado_119902" data-name="Trazado 119902" d="M92.49,22.566a1.9,1.9,0,0,0-3.374,1.729,37.695,37.695,0,1,1-14.7-15.46,1.9,1.9,0,0,0,1.9-3.281,41.492,41.492,0,0,0-51.4,63.9L22.271,72.1l-3.125-3.125a1.9,1.9,0,0,0-2.68,0L2.416,83.025A8.21,8.21,0,1,0,14.027,94.636l14.049-14.05a1.9,1.9,0,0,0,0-2.68L24.951,74.78,27.6,72.134A41.494,41.494,0,0,0,92.49,22.566ZM24.056,79.246,11.347,91.956A4.42,4.42,0,0,1,5.1,85.705L17.806,73l1.785,1.785L16.06,78.312a1.9,1.9,0,1,0,2.68,2.68l3.531-3.531Z" transform="translate(-0.015 0)" fill="#fff"/>
              <path id="Trazado_119903" data-name="Trazado 119903" d="M126.664,84.036a31.526,31.526,0,0,0,15.379,27.09l0,0a31.561,31.561,0,0,0,32.311,0,1.9,1.9,0,0,0,.923-1.627V94.7a6.738,6.738,0,0,0-6.729-6.732h-.7a14.214,14.214,0,1,0-19.309,0h-.695a6.738,6.738,0,0,0-6.729,6.732V105.9a27.735,27.735,0,1,1,43.1-12.2,1.9,1.9,0,1,0,3.553,1.321,31.543,31.543,0,1,0-61.11-10.989Zm21.115-6.493A10.424,10.424,0,1,1,158.3,87.967h-.187A10.436,10.436,0,0,1,147.779,77.543ZM144.915,94.7a2.943,2.943,0,0,1,2.938-2.941h20.7a2.943,2.943,0,0,1,2.938,2.941v13.7a27.782,27.782,0,0,1-26.575,0V94.7Z" transform="translate(-102.66 -42.545)" fill="#fff"/>
            </g>
          </g>
        </g>
      </g>
    </g>
  </g>
</svg>
