<svg xmlns="http://www.w3.org/2000/svg" xmlns:xlink="http://www.w3.org/1999/xlink" width="150" height="150" viewBox="0 0 150 150">
  <defs>
    <clipPath id="clip-path">
      <circle id="Elipse_5305" data-name="Elipse 5305" cx="65.172" cy="65.172" r="65.172" transform="translate(147.547 652.192)" fill="none"/>
    </clipPath>
  </defs>
  <g id="Grupo_55107" data-name="Grupo 55107" transform="translate(-348 -4493)">
    <rect id="Rectángulo_29024" data-name="Rectángulo 29024" width="150" height="150" transform="translate(348 4493)" fill="none"/>
    <g id="Grupo_53023" data-name="Grupo 53023" transform="translate(210.453 3850.808)">
      <circle id="Elipse_5303" data-name="Elipse 5303" cx="65.172" cy="65.172" r="65.172" transform="translate(147.547 652.192)" fill="#ea3065"/>
      <g id="Grupo_53022" data-name="Grupo 53022">
        <g id="Grupo_53021" data-name="Grupo 53021" clip-path="url(#clip-path)">
          <g id="Grupo_53020" data-name="Grupo 53020">
            <path id="Trazado_114755" data-name="Trazado 114755" d="M184.138,732.232s-12.766-6.937-16.413-21.947-.043-26.232,15.269-35.35,43.294-6.452,47.749-17.535c4.736,13.187,2.772,17.395,2.772,17.395a11.453,11.453,0,0,0,2.245-7.294c3.927,15.29,1.823,21.743,1.823,21.743l1.964-1.543s2.806,12.415-1.4,18.762-38.83,32.482-38.83,32.482-10.046-2.954-15.177-6.713Z" fill="#12263f"/>
            <path id="Trazado_114756" data-name="Trazado 114756" d="M190.59,718.232s4.209-6.977.982-19.6c27.074-2.659,39.171-10.935,39.171-10.935s13.6,14.869,15.479,32.544-18.367,24.829-31.318,24.128-24.314-12.141-24.314-12.141-1.262,4.706-6.873,2.321-.723-8.064-.723-8.064Z" fill="#ffb692"/>
            <path id="Trazado_114757" data-name="Trazado 114757" d="M191.754,715.352h7.253s3.421-5.808,4.174-6.125,5.225.2,5.642.872a1.7,1.7,0,0,1,0,1.505,1.381,1.381,0,0,1,1.131.951c.277.871-.317.99,0,1.386s1.069.722.95,1.411-.792.767-.317,1.322,1.149.633.555,1.346-1.145.713-1.484,1.347-.222.832-.835,1.109a43.014,43.014,0,0,0-9.816,5.731,21.577,21.577,0,0,0-5.67,8.467l-2.834-2.191s-.77,3.743-5.023,2.626c-1.5-2.346-2.508-2.948-2.486-4.058S191.754,715.352,191.754,715.352Z" fill="#f2986b"/>
            <path id="Trazado_114758" data-name="Trazado 114758" d="M196.708,938.794l-.927.845s-.34,1.492.175,1.928,5.267,1.545,9.7,1.862,5.98-1.416,0-3.263A51.2,51.2,0,0,1,196.708,938.794Z" fill="#442c2c"/>
            <path id="Trazado_114759" data-name="Trazado 114759" d="M192.274,865.573s1.122,20.2,1.964,41.662,1.262,31.983,1.543,32.4,7.575,1.964,10.24,1.543-5.19-2.8-5.19-2.8,8.416-21.322,12.063-40.821a251.988,251.988,0,0,0,4.069-35.631Z" fill="#ffb692"/>
            <path id="Trazado_114760" data-name="Trazado 114760" d="M231.778,936.583l-.928.845s-.34,1.491.175,1.927,5.268,1.545,9.7,1.862,5.981-1.416,0-3.263A51.252,51.252,0,0,1,231.778,936.583Z" fill="#442c2c"/>
            <path id="Trazado_114761" data-name="Trazado 114761" d="M187.645,744.42l2.945-2.713s5.658,5.611,10.667,10.521a56.822,56.822,0,0,1,10.656,3.647l10.726-2.595h4.354s2.524-.456,9.047,3.227,15.782,8.942,15.782,8.942l-3.893,16.518-6.312-3.577s2.665,11.853,3.962,23.076c-11.958,13.011-55.008,7.961-55.008,7.961s-1.559-19.464-3.663-27.355-10.962-22.052-13.291-26.9C176.493,746.933,187.645,744.42,187.645,744.42Z" fill="#f4eded"/>
            <path id="Trazado_114762" data-name="Trazado 114762" d="M227.343,863.361s1.123,20.2,1.964,41.662,1.263,31.984,1.543,32.4,7.575,1.963,10.24,1.543-5.19-2.806-5.19-2.806,8.417-21.322,12.064-40.821a252.047,252.047,0,0,0,4.068-35.63Z" fill="#ffb692"/>
            <path id="Trazado_114763" data-name="Trazado 114763" d="M201.257,752.228a98.815,98.815,0,0,1,3.852,13.4c1.613,7.575,2.525,11.853,2.525,11.853l4.279-1.473s-2.023-8.429-3.367-14.157a38.092,38.092,0,0,0-2.876-8.568A3.406,3.406,0,0,0,201.257,752.228Z" fill="#69f"/>
            <path id="Trazado_114764" data-name="Trazado 114764" d="M222.639,753.28a44.046,44.046,0,0,1,4.634,12.2c1.824,7.715,2.315,9.538,2.315,9.538l4.208-.771a93.962,93.962,0,0,0-2.665-11.5c-1.473-4.349-3.227-8.487-4.138-9.469S223.616,752.649,222.639,753.28Z" fill="#69f"/>
            <path id="Trazado_114765" data-name="Trazado 114765" d="M206.183,778.613a2.579,2.579,0,0,1,2.214-3.026c6.967-.865,24.943-2.944,25.96-1.476,1.263,1.824,2.946,16.974,4.349,20.9s6.873,6.453,6.873,6.453,2.806,12.064,5.471,30.58,3.647,33.947,3.647,33.947a83.3,83.3,0,0,1-29.6,1.684c-.281-7.856-1.4-16.273-1.4-16.273L221.451,867.4s-6.312,3.507-33.806-.7c1.964-19.218,2.1-57.374,2.1-57.374a19.092,19.092,0,0,0,14.168-3.928C209.491,801.157,207.313,785.047,206.183,778.613Z" fill="#69f"/>
            <path id="Trazado_114766" data-name="Trazado 114766" d="M257.924,759.295c0-.316-.526-3.42-.526-3.42s-4.156-5.1-5.313-5.576-4.629,1.053-5.524,2.315a1.508,1.508,0,0,0,.263,2.139,1.771,1.771,0,0,0,.369,1.122,1.9,1.9,0,0,0,1.051.316.728.728,0,0,0,.211.894,2.546,2.546,0,0,0,1.315.474s-.158.473.473.894a9.313,9.313,0,0,0,4.525.211C255.609,758.348,257.924,759.295,257.924,759.295Z" fill="#ffb692"/>
            <path id="Trazado_114767" data-name="Trazado 114767" d="M253.505,758.4l2.736,9.785-4.419-2.736s-5.261,4-3.893,16.518c10.1,6.418,15.045,8.838,20.936,8.312s7.26-6.559,2.105-15.9-13.572-18.5-13.572-18.5Z" fill="#ffb692"/>
            <path id="Trazado_114768" data-name="Trazado 114768" d="M205.67,753.28s3.788,9.539,11.643,8.487,4.7-8.487,4.7-8.487a2.384,2.384,0,0,1-2.946-1.893c-.491-2.455-.912-9.469-.912-9.469s-11.5.631-11.292.982.491,6.873.491,8.346S205.67,753.28,205.67,753.28Z" fill="#ffb692"/>
            <path id="Trazado_114769" data-name="Trazado 114769" d="M200.164,716.422l-.368-.526s1.946-4.734,3.262-5.786,4.26-.1,4.524.421a2.083,2.083,0,0,1,0,1.324,1.074,1.074,0,0,1,.894.464,1.3,1.3,0,0,1,0,1.052s1.157.842,1.157,1.421a3.088,3.088,0,0,1-.473,1.315s.631,1.052.473,1.473-2.157,1-2.157,1a1.35,1.35,0,0,1-.684,1.789c-1.21.526-5.806.7-5.806.7Z" fill="#ffb692"/>
            <path id="Trazado_114770" data-name="Trazado 114770" d="M190.59,741.707s-2.8,10.8-16.973,13.467C165.06,737.5,162.4,731.2,166.883,725.232s18.8-8.775,33.387-9.336a13.507,13.507,0,0,1,.981,5.05s-18.98,8.707-18.257,10.105A59.811,59.811,0,0,0,190.59,741.707Z" fill="#ffb692"/>
            <path id="Trazado_114771" data-name="Trazado 114771" d="M222.985,708.99a6.1,6.1,0,0,1,2.535-4.119c2.416-1.862,4.475-.4,4.475-.278a1.058,1.058,0,0,1-.23.58,4.06,4.06,0,0,0-3.638.107C223.979,706.369,223.381,709.109,222.985,708.99Z" fill="#422e24"/>
            <path id="Trazado_114772" data-name="Trazado 114772" d="M229.725,700.957a37.234,37.234,0,0,1-8.033-.717c-3.108-.813-2.63-2.965-1.291-3.682s3.251.239,6.694,1.482S231.829,700.981,229.725,700.957Z" fill="#ffdba1"/>
            <path id="Trazado_114773" data-name="Trazado 114773" d="M199.654,708.483a37.2,37.2,0,0,0,7.211-3.611c2.594-1.894,1.361-3.721-.148-3.9s-2.937,1.414-5.685,3.832S197.7,709.277,199.654,708.483Z" fill="#ffdba1"/>
            <path id="Trazado_114774" data-name="Trazado 114774" d="M215.981,708.993s.315,2.274,3.384,3.186,4.331.842,4.05,2.244-4,2.455-6.1,0a8.951,8.951,0,0,1-2.384-6.1C215.069,707.339,215.533,707.9,215.981,708.993Z" fill="#f2886b"/>
            <path id="Trazado_114775" data-name="Trazado 114775" d="M210.264,731.52a5.611,5.611,0,0,0,3.683.631c2.1-.368,5.628-2.315,8.469-2.578s6.838.421,9.258-3.84-2.472-9.258-11.152-6.891-11.075,6.451-11.573,8.732C208.318,730.468,210.264,731.52,210.264,731.52Z" fill="#b52b24"/>
            <path id="Trazado_114776" data-name="Trazado 114776" d="M216.449,731.051a6.459,6.459,0,0,1,4.318-4.317,3.494,3.494,0,0,1,4.634,2.337,7.6,7.6,0,0,0-4.476.436A41.915,41.915,0,0,1,216.449,731.051Z" fill="#e03e3b"/>
            <path id="Trazado_114777" data-name="Trazado 114777" d="M206.745,742.607s7.122,1.929,11.581,1.813c.135,1.729.269,3.242.269,3.242s-3.122,4.368-11.25,3C207.222,747.351,206.745,742.607,206.745,742.607Z" fill="#f2986b"/>
            <path id="Trazado_114778" data-name="Trazado 114778" d="M256.241,768.185s-.912,11.959,1.683,14.624c-3.928-5.541-3.95-16.027-3.95-16.027Z" fill="#f2986b"/>
            <path id="Trazado_114779" data-name="Trazado 114779" d="M209.528,842.146s13.887,7.435,15.711,6.734,16.412-6.734,16.412-6.734L224.02,854.081,223.7,851.4A75.239,75.239,0,0,1,209.528,842.146Z" fill="#8dc9c0"/>
            <path id="Trazado_114780" data-name="Trazado 114780" d="M187.77,865.418s17.659,2.455,33.771,1.34c-.23,3.093-.37,4.215-.37,4.215s-18.306,3.091-33.807-2.207C187.645,866.7,187.77,865.418,187.77,865.418Z" fill="#8dc9c0"/>
            <path id="Trazado_114781" data-name="Trazado 114781" d="M225.066,866.84a97.811,97.811,0,0,0,29.592-1.422c.32,2.82.46,4.363.46,4.363s-10.38,4.007-30.052.561C225.029,868.308,225.066,866.84,225.066,866.84Z" fill="#8dc9c0"/>
            <path id="Trazado_114782" data-name="Trazado 114782" d="M212.684,779.723a2.1,2.1,0,1,0-2.1,2.1A2.1,2.1,0,0,0,212.684,779.723Z" fill="#8dc9c0"/>
            <circle id="Elipse_5304" data-name="Elipse 5304" cx="2.104" cy="2.104" r="2.104" transform="translate(229.868 775.514)" fill="#8dc9c0"/>
            <path id="Trazado_114783" data-name="Trazado 114783" d="M232.292,704.809s5.782-.626,5.5.987S232.292,704.809,232.292,704.809Z" fill="#cce2ed"/>
            <path id="Trazado_114784" data-name="Trazado 114784" d="M236.391,708.993s3.858,2.274,2.876,3.4S236.391,708.993,236.391,708.993Z" fill="#cce2ed"/>
            <path id="Trazado_114785" data-name="Trazado 114785" d="M248.1,708.111s5.611-.46,4.98,1.523S248.1,708.111,248.1,708.111Z" fill="#cce2ed"/>
            <path id="Trazado_114786" data-name="Trazado 114786" d="M245.86,703.331s3.156-1.462,3.226-.48S245.86,703.331,245.86,703.331Z" fill="#cce2ed"/>
            <path id="Trazado_114787" data-name="Trazado 114787" d="M253.974,716.06s5.773,5.479,3.248,6.165S253.974,716.06,253.974,716.06Z" fill="#cce2ed"/>
            <path id="Trazado_114788" data-name="Trazado 114788" d="M276.019,709.153s8.978.764,6.734,2.7S276.019,709.153,276.019,709.153Z" fill="#cce2ed"/>
          </g>
        </g>
      </g>
    </g>
  </g>
</svg>
