<svg xmlns="http://www.w3.org/2000/svg" width="481.62" height="235.424" viewBox="0 0 481.62 235.424">
  <g id="Grupo_53597" data-name="Grupo 53597" transform="translate(-782.942 -356.383)">
    <g id="freepik--background-complete--inject-69">
      <rect id="Rectángulo_28881" data-name="Rectángulo 28881" width="110.26" height="214.57" transform="translate(1082.862 356.384)" fill="#fcebd5"/>
      <path id="Trazado_116708" data-name="Trazado 116708" d="M1184.452,562.334v-14.65c0-9.47,0-23.26-.07-40.63,0-34.7-.07-83.67-.12-140.75l.25.25h-93.37l.26-.26c0,75.9-.05,145-.07,196l-.19-.19,68.2.1,18.59.05h.07l-18.55.05-68.31.1h-.19v-.19c0-51-.05-120.09-.07-196v-.26h93.81v.24c-.05,57.15-.09,106.17-.12,140.92,0,17.34-.05,31.12-.06,40.57v13.57A9.056,9.056,0,0,1,1184.452,562.334Z" fill="#584e41"/>
      <rect id="Rectángulo_28882" data-name="Rectángulo 28882" width="6.64" height="32.88" transform="translate(1181.132 398.174)" fill="#584e41"/>
      <rect id="Rectángulo_28883" data-name="Rectángulo 28883" width="6.64" height="32.88" transform="translate(1181.132 502.384)" fill="#584e41"/>
      <path id="Trazado_116709" data-name="Trazado 116709" d="M1110.072,490.854a.633.633,0,0,1,0-.23v-3.08c0-2.15-.05-5.2-.08-9,0-7.62-.07-18.19-.11-30.19l.26.26h-8.19c.51-.52.14-.14.26-.25h0v24.55c0,7.25-.06,13.4-.08,17.91l-.14-.14,6,.08h2.19a3.348,3.348,0,0,1-.53,0h-1.57l-6.09.08h-.14v-.14c0-4.51-.06-10.66-.09-17.91v-24.4h0c.11-.12-.27.25.26-.27h8.44v.26c0,12.07-.08,22.71-.11,30.37,0,3.76-.06,6.79-.08,8.92v2.39A8.02,8.02,0,0,1,1110.072,490.854Z" fill="#584e41"/>
      <path id="Trazado_116710" data-name="Trazado 116710" d="M1168.912,526.384c0,.14-13.53.26-30.22.26s-30.21-.12-30.21-.26,13.52-.26,30.21-.26S1168.912,526.244,1168.912,526.384Z" fill="#584e41"/>
      <path id="Trazado_116711" data-name="Trazado 116711" d="M1168.912,533.454c0,.14-13.53.26-30.22.26s-30.21-.12-30.21-.26,13.52-.26,30.21-.26S1168.912,533.314,1168.912,533.454Z" fill="#584e41"/>
      <path id="Trazado_116712" data-name="Trazado 116712" d="M1168.912,540.524c0,.14-13.53.26-30.22.26s-30.21-.12-30.21-.26,13.52-.26,30.21-.26S1168.912,540.384,1168.912,540.524Z" fill="#584e41"/>
      <path id="Trazado_116713" data-name="Trazado 116713" d="M1168.912,385.934c0,.14-13.53.26-30.22.26s-30.21-.12-30.21-.26,13.52-.26,30.21-.26S1168.912,385.794,1168.912,385.934Z" fill="#584e41"/>
      <path id="Trazado_116714" data-name="Trazado 116714" d="M1168.912,393c0,.14-13.53.26-30.22.26s-30.21-.12-30.21-.26,13.52-.26,30.21-.26S1168.912,392.864,1168.912,393Z" fill="#584e41"/>
      <path id="Trazado_116715" data-name="Trazado 116715" d="M1168.912,400.074c0,.14-13.53.26-30.22.26s-30.21-.12-30.21-.26,13.52-.26,30.21-.26S1168.912,399.934,1168.912,400.074Z" fill="#584e41"/>
      <rect id="Rectángulo_28884" data-name="Rectángulo 28884" width="110.26" height="214.57" transform="translate(862.382 356.384)" fill="#fcebd5"/>
      <path id="Trazado_116716" data-name="Trazado 116716" d="M963.962,562.334v-14.65c0-9.47,0-23.26-.07-40.63,0-34.7-.06-83.67-.11-140.75l.24.25h-93.36l.26-.26c0,75.9-.06,145-.07,196l-.19-.19,68.19.1,18.6.05h.07l-18.55.05-68.31.1h-.2v-.19c0-51,0-120.09-.07-196v-.26h93.87v.24c0,57.15-.09,106.17-.12,140.92,0,17.34-.05,31.12-.07,40.57v13.57A5.015,5.015,0,0,1,963.962,562.334Z" fill="#584e41"/>
      <rect id="Rectángulo_28885" data-name="Rectángulo 28885" width="6.64" height="32.88" transform="translate(960.642 398.174)" fill="#584e41"/>
      <rect id="Rectángulo_28886" data-name="Rectángulo 28886" width="6.64" height="32.88" transform="translate(960.642 502.384)" fill="#584e41"/>
      <path id="Trazado_116717" data-name="Trazado 116717" d="M889.582,490.854v-3.31c0-2.15,0-5.2-.07-9,0-7.62-.07-18.19-.11-30.19l.25.26h-8.18l.25-.25h0v24.55c0,7.25-.06,13.4-.08,17.91l-.15-.14,6,.08h2.18a3.223,3.223,0,0,1-.52,0h-1.58l-6.09.08h-.22v-.14c0-4.51,0-10.66-.08-17.91v-24.42h0l.27-.27h8.44v.26c0,12.07-.09,22.71-.11,30.37,0,3.76-.06,6.79-.08,8.92v2.39A5.836,5.836,0,0,1,889.582,490.854Z" fill="#584e41"/>
      <path id="Trazado_116718" data-name="Trazado 116718" d="M948.432,526.384c0,.14-13.53.26-30.22.26s-30.22-.12-30.22-.26,13.53-.26,30.22-.26S948.432,526.244,948.432,526.384Z" fill="#584e41"/>
      <path id="Trazado_116719" data-name="Trazado 116719" d="M948.432,533.454c0,.14-13.53.26-30.22.26s-30.22-.12-30.22-.26,13.53-.26,30.22-.26S948.432,533.314,948.432,533.454Z" fill="#584e41"/>
      <path id="Trazado_116720" data-name="Trazado 116720" d="M948.432,540.524c0,.14-13.53.26-30.22.26s-30.22-.12-30.22-.26,13.53-.26,30.22-.26S948.432,540.384,948.432,540.524Z" fill="#584e41"/>
      <path id="Trazado_116721" data-name="Trazado 116721" d="M948.432,385.934c0,.14-13.53.26-30.22.26s-30.22-.12-30.22-.26,13.53-.26,30.22-.26S948.432,385.794,948.432,385.934Z" fill="#584e41"/>
      <path id="Trazado_116722" data-name="Trazado 116722" d="M948.432,393c0,.14-13.53.26-30.22.26s-30.22-.12-30.22-.26,13.53-.26,30.22-.26S948.432,392.864,948.432,393Z" fill="#584e41"/>
      <path id="Trazado_116723" data-name="Trazado 116723" d="M948.432,400.074c0,.14-13.53.26-30.22.26s-30.22-.12-30.22-.26,13.53-.26,30.22-.26S948.432,399.934,948.432,400.074Z" fill="#584e41"/>
      <rect id="Rectángulo_28887" data-name="Rectángulo 28887" width="110.26" height="214.57" transform="translate(972.642 356.384)" fill="#fcebd5"/>
      <path id="Trazado_116724" data-name="Trazado 116724" d="M1074.262,562.334v-14.65c0-9.47,0-23.26-.07-40.63,0-34.7-.07-83.67-.12-140.75l.25.25h-93.4l.26-.26c0,75.9,0,145-.07,196l-.19-.19,68.2.1,18.59.05h.08l-18.56.05-68.31.1h-.19v-.19c0-51-.05-120.09-.07-196v-.26h93.81v.24c0,57.15-.09,106.17-.11,140.92,0,17.34-.06,31.12-.07,40.57v13.57C1074.292,561.884,1074.262,562.334,1074.262,562.334Z" fill="#584e41"/>
      <rect id="Rectángulo_28888" data-name="Rectángulo 28888" width="6.64" height="32.88" transform="translate(1070.911 398.174)" fill="#584e41"/>
      <rect id="Rectángulo_28889" data-name="Rectángulo 28889" width="6.64" height="32.88" transform="translate(1070.911 502.384)" fill="#584e41"/>
      <path id="Trazado_116725" data-name="Trazado 116725" d="M999.852,490.854a.636.636,0,0,1,0-.23v-3.08c0-2.15-.05-5.2-.08-9,0-7.62-.07-18.19-.11-30.19l.26.26h-8.26c.51-.52.14-.14.26-.25h0v24.56c0,7.25-.06,13.4-.08,17.91l-.14-.14,6,.08h2.19a3.348,3.348,0,0,1-.53,0h-1.57l-6.09.08h-.14v-.14c0-4.51-.06-10.66-.09-17.91v-24.55h0c.11-.12-.27.25.26-.27h8.44v.26c0,12.07-.08,22.71-.11,30.37,0,3.76-.06,6.79-.08,8.92v2.39A7.883,7.883,0,0,1,999.852,490.854Z" fill="#584e41"/>
      <path id="Trazado_116726" data-name="Trazado 116726" d="M1058.692,526.384c0,.14-13.53.26-30.22.26s-30.21-.12-30.21-.26,13.52-.26,30.21-.26S1058.692,526.244,1058.692,526.384Z" fill="#584e41"/>
      <path id="Trazado_116727" data-name="Trazado 116727" d="M1058.692,533.454c0,.14-13.53.26-30.22.26s-30.21-.12-30.21-.26,13.52-.26,30.21-.26S1058.692,533.314,1058.692,533.454Z" fill="#584e41"/>
      <path id="Trazado_116728" data-name="Trazado 116728" d="M1058.692,540.524c0,.14-13.53.26-30.22.26s-30.21-.12-30.21-.26,13.52-.26,30.21-.26S1058.692,540.384,1058.692,540.524Z" fill="#584e41"/>
      <path id="Trazado_116729" data-name="Trazado 116729" d="M1058.692,385.934c0,.14-13.53.26-30.22.26s-30.21-.12-30.21-.26,13.52-.26,30.21-.26S1058.692,385.794,1058.692,385.934Z" fill="#584e41"/>
      <path id="Trazado_116730" data-name="Trazado 116730" d="M1058.692,393c0,.14-13.53.26-30.22.26s-30.21-.12-30.21-.26,13.52-.26,30.21-.26S1058.692,392.864,1058.692,393Z" fill="#584e41"/>
      <path id="Trazado_116731" data-name="Trazado 116731" d="M1058.692,400.074c0,.14-13.53.26-30.22.26s-30.21-.12-30.21-.26,13.52-.26,30.21-.26S1058.692,399.934,1058.692,400.074Z" fill="#584e41"/>
      <path id="Trazado_116732" data-name="Trazado 116732" d="M916.952,459.074c-.14,0,1.11-7.49,2.8-16.67s3.16-16.6,3.3-16.57-1.11,7.48-2.79,16.67S917.1,459.094,916.952,459.074Z" fill="#584e41"/>
      <path id="Trazado_116733" data-name="Trazado 116733" d="M922.512,466.634c-.14,0,1.43-8.18,3.51-18.19s3.89-18.12,4-18.09-1.44,8.18-3.52,18.2S922.652,466.664,922.512,466.634Z" fill="#584e41"/>
      <path id="Trazado_116734" data-name="Trazado 116734" d="M923.512,480.754c-.14-.05,2.8-10.23,6.57-22.74s6.92-22.64,7.06-22.6-2.8,10.23-6.57,22.75S923.652,480.794,923.512,480.754Z" fill="#584e41"/>
      <path id="Trazado_116735" data-name="Trazado 116735" d="M928.432,485.244c-.14,0,1.67-7.84,4.05-17.43s4.42-17.35,4.56-17.32-1.68,7.84-4.06,17.44S928.572,485.284,928.432,485.244Z" fill="#584e41"/>
      <path id="Trazado_116736" data-name="Trazado 116736" d="M933.442,473.674c-.12.09-5.88-7.14-12.88-16.15s-12.58-16.38-12.46-16.47,5.87,7.14,12.87,16.15S933.552,473.594,933.442,473.674Z" fill="#584e41"/>
      <path id="Trazado_116737" data-name="Trazado 116737" d="M937.462,472.174c-.13.07-4.66-7.07-10.12-15.94s-9.79-16.14-9.67-16.22,4.65,7.06,10.11,15.94S937.582,472.094,937.462,472.174Z" fill="#584e41"/>
      <path id="Trazado_116738" data-name="Trazado 116738" d="M940.512,464.084a10.882,10.882,0,0,1-.93-1.49l-2.43-4.13c-2.07-3.48-5-8.26-8.39-13.4s-6.66-9.7-9.07-13l-2.85-3.85a10.128,10.128,0,0,1-1-1.45,12.13,12.13,0,0,1,1.17,1.32c.72.87,1.75,2.16,3,3.76,2.48,3.21,5.79,7.73,9.21,12.89s6.28,10,8.26,13.51c1,1.76,1.78,3.21,2.29,4.21A10.777,10.777,0,0,1,940.512,464.084Z" fill="#584e41"/>
      <path id="Trazado_116739" data-name="Trazado 116739" d="M853.512,501.084v-3.39c0-2.2,0-5.36-.08-9.35l.14.15-48.13.1.25-.25h0v12.73l-.24-.24,34.3.11,10.13.06h.01l-10.07.07-34.47.11h-.24v-12.97h0l.25-.24,48.13.09h.15v.15c0,4-.06,7.22-.08,9.43v3.1A.876.876,0,0,1,853.512,501.084Z" fill="#584e41"/>
      <path id="Trazado_116740" data-name="Trazado 116740" d="M860.042,488.344a1.2,1.2,0,0,1,0-.24v-3.23c0-2.23-.06-5.38-.1-9.26l.18.18-28.92.06.25-.24h0v12.71l-.23-.23,20.69.11,6,.06h2.21a3.223,3.223,0,0,1-.52,0h-1.58l-6,.07-20.85.11h-.23v-12.81h0l.25-.25,28.92.07h.15v.18c0,3.92-.08,7.11-.1,9.37v2.51A1.7,1.7,0,0,1,860.042,488.344Z" fill="#e36099"/>
      <rect id="Rectángulo_28890" data-name="Rectángulo 28890" width="46.25" height="12.23" transform="translate(782.942 381.504)" fill="#e36099"/>
      <rect id="Rectángulo_28891" data-name="Rectángulo 28891" width="46.25" height="12.24" transform="translate(816.202 356.384)" fill="#a22f5f"/>
      <path id="Trazado_116741" data-name="Trazado 116741" d="M842.892,381.5a1,1,0,0,1,0-.22v-3.04c0-2.11,0-5.15-.07-9l.14.15-46.25.09.24-.24h0v12.2l-.23-.23,33,.1,9.73.07h.1l-9.67.06-33.12.11h-.23v-12.27h0c.48-.47.14-.13.24-.23l46.25.09h.14v.14c0,3.87-.06,6.93-.08,9.07v2.97A1.465,1.465,0,0,1,842.892,381.5Z" fill="#c1507f"/>
      <rect id="Rectángulo_28892" data-name="Rectángulo 28892" width="49.62" height="13.13" transform="translate(1214.942 451.954)" fill="#e36099"/>
      <path id="Trazado_116742" data-name="Trazado 116742" d="M1243.582,478.934v-3.5c0-2.26-.05-5.52-.08-9.63l.15.15-49.62.1.25-.25h0v13.13l-.25-.25,35.36.11,10.44.07h.11l-10.38.07-35.53.11h-.25V465.8h0l.25-.25,49.62.1h.16v.15c0,4.15-.06,7.44-.08,9.72v3.2A.868.868,0,0,1,1243.582,478.934Z" fill="#584e41"/>
    </g>
    <g id="freepik--Floor--inject-69">
      <path id="Trazado_116743" data-name="Trazado 116743" d="M1242.442,571.284c0,.15-98.59.26-220.17.26s-220.19-.11-220.19-.26,98.56-.26,220.19-.26S1242.442,571.144,1242.442,571.284Z" fill="#263238"/>
    </g>
    <g id="freepik--Plant--inject-69">
      <path id="Trazado_116744" data-name="Trazado 116744" d="M859.832,544.124a3.3,3.3,0,0,1,.19-.46c.15-.33.36-.77.62-1.32a33.28,33.28,0,0,0,1.82-5.29c1.2-4.69,1.62-11.87-.16-20.39a107.452,107.452,0,0,0-3.78-13.73c-1.6-4.87-3.46-10-5-15.6a60.44,60.44,0,0,1-2.46-17.94c.23-6.34,2.11-12.68,4.18-19s4.19-12.48,4.83-18.69a28.517,28.517,0,0,0-3.43-17.26c-2.73-5-6.17-9.35-8.75-13.81a48.219,48.219,0,0,1-5.26-13.27,49.587,49.587,0,0,1-.33-20.57,38.736,38.736,0,0,1,2.15-7.26,4.2,4.2,0,0,1-.13.48l-.43,1.4a53.3,53.3,0,0,0-1.32,5.52,50.064,50.064,0,0,0,.54,20.41,47.766,47.766,0,0,0,5.27,13.11c2.57,4.41,6,8.7,8.81,13.79a29.121,29.121,0,0,1,3.54,17.61c-.65,6.32-2.8,12.53-4.85,18.83s-3.92,12.57-4.16,18.81a60.111,60.111,0,0,0,2.4,17.75c1.5,5.55,3.33,10.71,4.92,15.59a108.456,108.456,0,0,1,3.72,13.78c1.73,8.59,1.24,15.84,0,20.55a30.744,30.744,0,0,1-2,5.27l-.68,1.3A3.968,3.968,0,0,1,859.832,544.124Z" fill="#263238"/>
      <path id="Trazado_116745" data-name="Trazado 116745" d="M851.412,405.084s-5.23-16.71,4.15-26.5a.58.58,0,0,1,1,.29C857.052,381.634,857.682,390.044,851.412,405.084Z" fill="#36c"/>
      <path id="Trazado_116746" data-name="Trazado 116746" d="M854.542,384.154a15.262,15.262,0,0,1-.35,3.08c-.35,2.13-.75,4.62-1.19,7.38s-.84,5.24-1.17,7.37a16.22,16.22,0,0,1-.57,3.05,13.482,13.482,0,0,1,.1-3.11c.17-1.91.51-4.53,1-7.42s1-5.48,1.38-7.35A13.789,13.789,0,0,1,854.542,384.154Z" fill="#263238"/>
      <path id="Trazado_116747" data-name="Trazado 116747" d="M857.552,444.514s3.2-17.22,16.06-21.49a.58.58,0,0,1,.74.72C873.512,426.414,870.132,434.144,857.552,444.514Z" fill="#36c"/>
      <path id="Trazado_116748" data-name="Trazado 116748" d="M870.112,427.474a16.077,16.077,0,0,1-1.76,2.56c-1.29,1.72-2.82,3.73-4.5,6l-4.48,6a16.428,16.428,0,0,1-1.92,2.43,12.931,12.931,0,0,1,1.54-2.7c1-1.6,2.57-3.77,4.34-6.1s3.42-4.39,4.66-5.85A13.889,13.889,0,0,1,870.112,427.474Z" fill="#263238"/>
      <path id="Trazado_116749" data-name="Trazado 116749" d="M854.072,487.7s-1.94-17.4,9.13-25.22a.581.581,0,0,1,.92.47C864.092,465.764,863.1,474.134,854.072,487.7Z" fill="#36c"/>
      <path id="Trazado_116750" data-name="Trazado 116750" d="M861.142,467.754a16.054,16.054,0,0,1-.93,3c-.75,2-1.62,4.39-2.58,7s-1.82,5-2.56,7a17.193,17.193,0,0,1-1.12,2.88,12.956,12.956,0,0,1,.68-3c.54-1.84,1.37-4.35,2.38-7.09s2-5.2,2.77-7A13.905,13.905,0,0,1,861.142,467.754Z" fill="#263238"/>
      <path id="Trazado_116751" data-name="Trazado 116751" d="M863.762,531.154s-1.31-17.46,10-24.88a.581.581,0,0,1,.8.162.588.588,0,0,1,.1.348C874.562,509.584,873.262,517.934,863.762,531.154Z" fill="#36c"/>
      <path id="Trazado_116752" data-name="Trazado 116752" d="M871.542,511.474a15.6,15.6,0,0,1-1,2.92c-.81,2-1.77,4.33-2.83,6.92s-2,4.92-2.8,6.91a16.257,16.257,0,0,1-1.23,2.85,13.1,13.1,0,0,1,.8-3c.59-1.83,1.52-4.31,2.63-7s2.19-5.12,3-6.85A14.112,14.112,0,0,1,871.542,511.474Z" fill="#263238"/>
      <path id="Trazado_116753" data-name="Trazado 116753" d="M843.9,390.4s-15.53-8.11-15.83-21.66a.58.58,0,0,1,.9-.5C831.262,369.834,837.672,375.334,843.9,390.4Z" fill="#36c"/>
      <path id="Trazado_116754" data-name="Trazado 116754" d="M831.262,373.394a15.594,15.594,0,0,1,2,2.43l4.37,6.05,4.39,6a15.573,15.573,0,0,1,1.77,2.55,13.673,13.673,0,0,1-2.13-2.27c-1.23-1.47-2.85-3.56-4.56-5.93s-3.19-4.57-4.23-6.18A14.561,14.561,0,0,1,831.262,373.394Z" fill="#263238"/>
      <path id="Trazado_116755" data-name="Trazado 116755" d="M860.572,426.294s-16-7.15-17.12-20.65a.579.579,0,0,1,.87-.56C846.722,406.544,853.442,411.634,860.572,426.294Z" fill="#36c"/>
      <path id="Trazado_116756" data-name="Trazado 116756" d="M846.952,410.094a14.7,14.7,0,0,1,2.08,2.3c1.36,1.67,3,3.62,4.74,5.78l4.75,5.76a17.8,17.8,0,0,1,1.92,2.43,12.194,12.194,0,0,1-2.27-2.13c-1.32-1.39-3.06-3.38-4.91-5.65s-3.46-4.36-4.59-5.9A14.261,14.261,0,0,1,846.952,410.094Z" fill="#263238"/>
      <path id="Trazado_116757" data-name="Trazado 116757" d="M851.372,466.344s-11-13.65-5.83-26.19a.579.579,0,0,1,.77-.282.587.587,0,0,1,.23.192C848.042,442.444,851.7,450.044,851.372,466.344Z" fill="#36c"/>
      <path id="Trazado_116758" data-name="Trazado 116758" d="M846.632,445.714a15.115,15.115,0,0,1,.8,3c.45,2.1,1,4.57,1.58,7.29s1.15,5.19,1.61,7.29a17.673,17.673,0,0,1,.6,3.05,13.1,13.1,0,0,1-1-2.93c-.54-1.84-1.18-4.41-1.8-7.27s-1.09-5.45-1.4-7.35A13.843,13.843,0,0,1,846.632,445.714Z" fill="#263238"/>
      <path id="Trazado_116759" data-name="Trazado 116759" d="M862.262,513.464s-15.86-7.42-16.76-20.94a.569.569,0,0,1,.88-.54C848.732,493.474,855.362,498.684,862.262,513.464Z" fill="#36c"/>
      <path id="Trazado_116760" data-name="Trazado 116760" d="M848.9,497.024a15.886,15.886,0,0,1,2,2.34l4.64,5.86,4.72,5.83a16.908,16.908,0,0,1,1.88,2.47,12.7,12.7,0,0,1-2.23-2.16c-1.29-1.42-3-3.44-4.82-5.74s-3.39-4.41-4.49-6A13.485,13.485,0,0,1,848.9,497.024Z" fill="#263238"/>
      <path id="Trazado_116761" data-name="Trazado 116761" d="M893.842,444.6v1.5c0,1.06-.11,2.48-.18,4.25-.21,3.73-.49,8.94-.84,15.17h0c-1.13,6.34-4.36,13.36-8.7,20.18-3.18,5-6.51,9.59-9.38,13.84a96.792,96.792,0,0,0-7,11.64,49.278,49.278,0,0,0-3.3,8.54c-.27,1-.48,1.86-.6,2.42a4.376,4.376,0,0,1-.24.84,4.993,4.993,0,0,1,.11-.87c.07-.57.25-1.4.49-2.46a45.244,45.244,0,0,1,3.06-8.64,91.475,91.475,0,0,1,7-11.78c2.85-4.27,6.17-8.85,9.33-13.85,4.31-6.78,7.52-13.7,8.7-19.93h0c.44-6.22.81-11.42,1.07-15.15.14-1.77.26-3.19.34-4.24a9.421,9.421,0,0,1,.11-1.11A1.465,1.465,0,0,1,893.842,444.6Z" fill="#263238"/>
      <path id="Trazado_116762" data-name="Trazado 116762" d="M884.392,484.434s6.72-16.17-1.73-26.77a.58.58,0,0,0-.817-.075.573.573,0,0,0-.183.275C880.9,460.564,879.512,468.934,884.392,484.434Z" fill="#36c"/>
      <path id="Trazado_116763" data-name="Trazado 116763" d="M883.172,463.3a13.577,13.577,0,0,1,.53,3.06c.24,1.9.51,4.53.72,7.45s.3,5.56.3,7.48a13.415,13.415,0,0,1-.18,3.1,15.55,15.55,0,0,1-.28-3.09c-.14-2.14-.31-4.66-.5-7.45s-.37-5.3-.52-7.45A15.082,15.082,0,0,1,883.172,463.3Z" fill="#263238"/>
      <g id="Grupo_53587" data-name="Grupo 53587" opacity="0.3">
        <path id="Trazado_116764" data-name="Trazado 116764" d="M884.392,484.434s6.72-16.17-1.73-26.77a.58.58,0,0,0-.817-.075.573.573,0,0,0-.183.275C880.9,460.564,879.512,468.934,884.392,484.434Z"/>
      </g>
      <path id="Trazado_116765" data-name="Trazado 116765" d="M863.582,523.4s5.39-16.66-3.89-26.54a.579.579,0,0,0-1,.28C858.162,499.934,857.462,508.3,863.582,523.4Z" fill="#36c"/>
      <path id="Trazado_116766" data-name="Trazado 116766" d="M860.652,502.444a13.942,13.942,0,0,1,.78,3c.39,1.87.87,4.48,1.31,7.36s.76,5.52.92,7.43a12.547,12.547,0,0,1,.06,3.11,15.541,15.541,0,0,1-.52-3.05c-.32-2.13-.69-4.63-1.1-7.39s-.8-5.25-1.13-7.38A15.407,15.407,0,0,1,860.652,502.444Z" fill="#263238"/>
      <g id="Grupo_53588" data-name="Grupo 53588" opacity="0.3">
        <path id="Trazado_116767" data-name="Trazado 116767" d="M863.582,523.4s5.39-16.66-3.89-26.54a.579.579,0,0,0-1,.28C858.162,499.934,857.462,508.3,863.582,523.4Z"/>
      </g>
      <path id="Trazado_116768" data-name="Trazado 116768" d="M892.952,464.664s14.35-10,12.9-23.52a.58.58,0,0,0-1-.37C902.812,442.654,897.182,448.934,892.952,464.664Z" fill="#36c"/>
      <g id="Grupo_53589" data-name="Grupo 53589" opacity="0.3">
        <path id="Trazado_116769" data-name="Trazado 116769" d="M892.952,464.664s14.35-10,12.9-23.52a.58.58,0,0,0-1-.37C902.812,442.654,897.182,448.934,892.952,464.664Z"/>
      </g>
      <path id="Trazado_116770" data-name="Trazado 116770" d="M903.262,446.184a14.468,14.468,0,0,1-1.2,2.86c-.82,1.74-2,4.1-3.39,6.67s-2.73,4.86-3.75,6.48a13.492,13.492,0,0,1-1.83,2.52,16.257,16.257,0,0,1,1.43-2.76l3.57-6.55c1.33-2.45,2.54-4.67,3.56-6.57A14.159,14.159,0,0,1,903.262,446.184Z" fill="#263238"/>
      <path id="Trazado_116771" data-name="Trazado 116771" d="M869.372,506.934s17.3-2.7,21.94-15.43a.58.58,0,0,0-.7-.77C887.912,491.454,880.1,494.614,869.372,506.934Z" fill="#36c"/>
      <g id="Grupo_53590" data-name="Grupo 53590" opacity="0.3">
        <path id="Trazado_116772" data-name="Trazado 116772" d="M869.372,506.934s17.3-2.7,21.94-15.43a.58.58,0,0,0-.7-.77C887.912,491.454,880.1,494.614,869.372,506.934Z"/>
      </g>
      <path id="Trazado_116773" data-name="Trazado 116773" d="M886.762,494.824a13.451,13.451,0,0,1-2.33,2.05c-1.5,1.2-3.61,2.8-6,4.49s-4.57,3.17-6.17,4.16a13.3,13.3,0,0,1-2.74,1.46,16.714,16.714,0,0,1,2.49-1.84l6.09-4.31,6.09-4.33A15.643,15.643,0,0,1,886.762,494.824Z" fill="#263238"/>
      <path id="Trazado_116774" data-name="Trazado 116774" d="M848.9,538.734l4.96,32.56,19.82-.04,6.68-32.52Z" fill="#455a64"/>
      <path id="Trazado_116775" data-name="Trazado 116775" d="M877.452,551.294s0,.05-.16.12-.29.18-.53.3a7.352,7.352,0,0,1-2.21.66,8.3,8.3,0,0,1-3.65-.34,7.664,7.664,0,0,1-3.91-2.85,5.412,5.412,0,0,1-.92-2.72,3,3,0,0,1,1.34-2.8,3.211,3.211,0,0,1,3.32.27,4.832,4.832,0,0,1,1.9,3,12.565,12.565,0,0,1,.25,3.68,12.046,12.046,0,0,1-.81,3.76,8.437,8.437,0,0,1-2.29,3.28,6.5,6.5,0,0,1-3.82,1.59,7,7,0,0,1-4-1.15,12.043,12.043,0,0,1-3-2.68,6.539,6.539,0,0,1-1.5-3.58,4.149,4.149,0,0,1,1.41-3.44,3.21,3.21,0,0,1,3.51-.22,3.753,3.753,0,0,1,2,2.66,5.091,5.091,0,0,1-2.41,5.1,7,7,0,0,1-4.78.69,11.277,11.277,0,0,1-3.41-1.33,18.1,18.1,0,0,1-1.91-1.3,3.227,3.227,0,0,1-.61-.52,6.3,6.3,0,0,1,.67.43,19.1,19.1,0,0,0,2,1.2,11.015,11.015,0,0,0,3.33,1.26,6.746,6.746,0,0,0,4.54-.72,4.71,4.71,0,0,0,2.24-4.71,3.3,3.3,0,0,0-1.8-2.31,2.728,2.728,0,0,0-3,.18,3.649,3.649,0,0,0-1.2,3,6,6,0,0,0,1.4,3.27,11.31,11.31,0,0,0,2.82,2.55,6.6,6.6,0,0,0,3.66,1.07,5.845,5.845,0,0,0,3.48-1.47,7.721,7.721,0,0,0,2.16-3.06,11.643,11.643,0,0,0,.78-3.6,12.453,12.453,0,0,0-.22-3.52,4.387,4.387,0,0,0-1.67-2.71,2.74,2.74,0,0,0-2.83-.28,2.506,2.506,0,0,0-1.15,2.39,5.053,5.053,0,0,0,.82,2.53,7.34,7.34,0,0,0,3.69,2.77,8.189,8.189,0,0,0,3.52.42A9.4,9.4,0,0,0,877.452,551.294Z" fill="#263238"/>
    </g>
    <g id="freepik--Bag--inject-69">
      <path id="Trazado_116776" data-name="Trazado 116776" d="M984.082,503.164c4.29,5.75,4.74,13.41,5,20.58s.76,14.83,5.07,20.56c2,2.72,4.83,4.82,6.79,7.59a16.364,16.364,0,0,1,3,8.26,10.937,10.937,0,0,1-1.55,6.82c-2,3-5.89,4.31-9.46,3.91a17.791,17.791,0,0,1-9.5-4.71l2.14-3a6.07,6.07,0,0,0,11.21-3.33c-.05-3.71-3.29-6.43-5.8-9.17a29.868,29.868,0,0,1-7.59-16.47" fill="#36c"/>
      <g id="Grupo_53591" data-name="Grupo 53591" opacity="0.3">
        <path id="Trazado_116777" data-name="Trazado 116777" d="M984.082,503.164c4.29,5.75,4.74,13.41,5,20.58s.76,14.83,5.07,20.56c2,2.72,4.83,4.82,6.79,7.59a16.364,16.364,0,0,1,3,8.26,10.937,10.937,0,0,1-1.55,6.82c-2,3-5.89,4.31-9.46,3.91a17.791,17.791,0,0,1-9.5-4.71l2.14-3a6.07,6.07,0,0,0,11.21-3.33c-.05-3.71-3.29-6.43-5.8-9.17a29.868,29.868,0,0,1-7.59-16.47"/>
      </g>
      <path id="Trazado_116778" data-name="Trazado 116778" d="M973.072,571.124a13.27,13.27,0,0,0,13.271-13.269c0-.067,0-.134,0-.2l-.69-46.27c-.06-3.85-.29-8.11-3-10.82-2-1.94-4.79-2.64-7.49-3.16-6.87-1.32-14-2-20.83-.26s-13.18,6.13-15.85,12.61c-3.25,7.87-.6,17.2-3.7,25.13-1.38,3.54-3.84,6.58-5.17,10.14-2.16,5.73-1.14,11.91,1.18,17.72a13.3,13.3,0,0,0,12.34,8.38Z" fill="#36c"/>
      <path id="Trazado_116779" data-name="Trazado 116779" d="M968.842,496.844a1.983,1.983,0,0,1,.75-.33,3.529,3.529,0,0,1,2.33.29,4.931,4.931,0,0,1,2.52,2.71,15.787,15.787,0,0,1,.94,4.85c.7,7.24,1.29,17.28,1.69,28.37.19,5.54.38,10.82.55,15.64.07,2.4.15,4.68.22,6.82s.17,4.13.11,6a14.353,14.353,0,0,1-.91,4.85,8.585,8.585,0,0,1-2.1,3.08,6.3,6.3,0,0,1-2,1.25,3.411,3.411,0,0,1-.8.2,7.01,7.01,0,0,0,2.66-1.59,8.694,8.694,0,0,0,2-3,14.139,14.139,0,0,0,.81-4.76c0-1.81-.1-3.8-.17-5.93s-.18-4.43-.27-6.83c-.18-4.81-.38-10.09-.59-15.63-.4-11.09-.93-21.12-1.54-28.36a15.744,15.744,0,0,0-.84-4.77,4.8,4.8,0,0,0-2.34-2.64,3.6,3.6,0,0,0-2.22-.37A4.1,4.1,0,0,0,968.842,496.844Z" fill="#263238"/>
      <path id="Trazado_116780" data-name="Trazado 116780" d="M953.362,497.4s-1.44-3.65.85-4.91,8.69-2.8,9.83-1.26,1.49,4.93,1.49,4.93l-2-.05s-.52-3.16-1.83-3.16-6.24.57-6.64,1.42a5.494,5.494,0,0,0,0,2.6l-1.68.66" fill="#263238"/>
      <g id="Grupo_53592" data-name="Grupo 53592" opacity="0.3">
        <path id="Trazado_116781" data-name="Trazado 116781" d="M932.172,539.934l37.52.66v25.74h-36.77a23.051,23.051,0,0,1-4.51-14C928.372,543.6,932.172,539.934,932.172,539.934Z"/>
      </g>
      <path id="Trazado_116782" data-name="Trazado 116782" d="M968.9,549.174c0,.14-9,.26-20.19.26s-20.18-.12-20.18-.26,9-.26,20.18-.26S968.9,549.024,968.9,549.174Z" fill="#263238"/>
      <path id="Trazado_116783" data-name="Trazado 116783" d="M967.262,549.314a4.561,4.561,0,0,1,.47,1.05c.13.33.31.68.53,1.11a1.345,1.345,0,0,1,.16.87.806.806,0,0,1-.28.48.752.752,0,0,1-.57.16,1.078,1.078,0,0,1-.8-.59,2.275,2.275,0,0,1-.24-.8,3.117,3.117,0,0,1,.17-1.32c.25-.69.5-1.06.56-1a3.944,3.944,0,0,1-.21,1.14,3.371,3.371,0,0,0,0,1.16c.05.4.29.91.62.93s.4-.4.2-.79a6.6,6.6,0,0,1-.45-1.19C967.162,549.774,967.162,549.324,967.262,549.314Z" fill="#263238"/>
      <path id="Trazado_116784" data-name="Trazado 116784" d="M956.022,498.214a3.322,3.322,0,0,1,.76-.19c.51-.1,1.25-.24,2.22-.38a20.021,20.021,0,0,1,3.58-.18,9.36,9.36,0,0,1,8.37,5.6,16.022,16.022,0,0,1,1.53,6.42,56.778,56.778,0,0,1-.34,7.27,67.762,67.762,0,0,0-.21,7.74c.2,5.31.86,10.35,1.4,14.94a118.416,118.416,0,0,1,1,12.25,52.471,52.471,0,0,1-.52,8.27c-.15,1-.33,1.71-.43,2.22a4.749,4.749,0,0,1-.19.76,3.65,3.65,0,0,1,.09-.78c.06-.51.21-1.26.33-2.22a58.006,58.006,0,0,0,.35-8.24c-.08-3.49-.49-7.62-1.06-12.2s-1.24-9.63-1.44-15a66.576,66.576,0,0,1,.22-7.8,56.582,56.582,0,0,0,.37-7.21,15.7,15.7,0,0,0-1.44-6.25,9,9,0,0,0-8-5.5,19.545,19.545,0,0,0-3.53.1c-1,.1-1.72.21-2.23.27A7.51,7.51,0,0,1,956.022,498.214Z" fill="#263238"/>
    </g>
    <g id="freepik--character-1--inject-69">
      <rect id="Rectángulo_28893" data-name="Rectángulo 28893" width="61.44" height="47.26" transform="translate(987.802 467.314)" fill="#36c"/>
      <path id="Trazado_116785" data-name="Trazado 116785" d="M987.8,502.244s-9.22,25.38-9.22,36c0,11-2.82,24.93,18.86,32.46l40.52.49a24.642,24.642,0,0,0,21.42-12.38,43.979,43.979,0,0,0,4-8.53c2.47-8.37,6.28-48.35,4.1-51.24S987.8,502.244,987.8,502.244Z" fill="#263238"/>
      <path id="Trazado_116786" data-name="Trazado 116786" d="M1020.752,503.184a.935.935,0,0,1,.08.28c.05.21.11.49.18.82.15.73.36,1.81.61,3.19.49,2.78,1.17,6.8,1.82,11.8s1.27,11,1.7,17.63c.1,1.66.2,3.37.27,5.11a15.707,15.707,0,0,1-.29,5.39,4.407,4.407,0,0,1-1.71,2.28,7.174,7.174,0,0,1-2.68,1c-1.88.35-3.76.45-5.67.68l-11.18,1.14a5.341,5.341,0,0,1-4.72-2.51,5.753,5.753,0,0,1-.57-1.24c-.12-.44-.2-.86-.29-1.27-.18-.84-.35-1.66-.53-2.47a143.759,143.759,0,0,0-4.92-17c-.85-2.37-1.68-4.5-2.18-6.45a17.489,17.489,0,0,1-.68-5.11,9.576,9.576,0,0,1,.65-3.19,6.141,6.141,0,0,1,.5-1,10.7,10.7,0,0,0-.94,4.22,17.258,17.258,0,0,0,.75,5c.52,1.92,1.37,4,2.25,6.4a139.612,139.612,0,0,1,5,17l.54,2.48a6.3,6.3,0,0,0,.8,2.35,4.841,4.841,0,0,0,4.27,2.26l11.15-1.15c1.9-.23,3.83-.33,5.63-.66a6.679,6.679,0,0,0,2.49-1,3.883,3.883,0,0,0,1.52-2,15.357,15.357,0,0,0,.27-5.2c-.07-1.74-.15-3.44-.25-5.1-.4-6.65-1-12.62-1.59-17.61s-1.22-9-1.65-11.81c-.22-1.37-.39-2.44-.52-3.21a4.963,4.963,0,0,0-.12-.83A1.8,1.8,0,0,1,1020.752,503.184Z" fill="#455a64"/>
      <path id="Trazado_116787" data-name="Trazado 116787" d="M1025,538.6a7.86,7.86,0,0,1,.2-1.58c.18-1,.46-2.47.89-4.25a113.169,113.169,0,0,1,4.31-13.65c1-2.6,1.9-5.1,2.81-7.35a45.1,45.1,0,0,1,2.76-5.83,23.884,23.884,0,0,1,2.5-3.57c.32-.4.61-.67.79-.87s.3-.29.31-.27a10.684,10.684,0,0,1-.95,1.27,27.857,27.857,0,0,0-2.33,3.62c-1.79,3.18-3.43,8-5.4,13.19a141.287,141.287,0,0,0-4.44,13.55c-.47,1.77-.81,3.2-1.05,4.2A12.013,12.013,0,0,1,1025,538.6Z" fill="#455a64"/>
      <path id="Trazado_116788" data-name="Trazado 116788" d="M1066.892,521.934a2.082,2.082,0,0,1-.28.5c-.23.37-.53.83-.89,1.39-.78,1.2-1.94,2.91-3.44,5a89.851,89.851,0,0,1-5.6,7.05c-2.24,2.54-4.87,5.2-7.71,7.87-3.39,3.17-6.6,6.14-9.33,8.78l-.1.11-.14-.06-10.44-4-2.94-1.16a5.3,5.3,0,0,1-1-.46,6.589,6.589,0,0,1,1.07.33l3,1,10.51,3.79-.24.05c2.7-2.67,5.91-5.66,9.29-8.83,2.84-2.67,5.47-5.28,7.72-7.8s4.11-4.92,5.65-7,2.75-3.71,3.58-4.88l1-1.33A2.317,2.317,0,0,1,1066.892,521.934Z" fill="#455a64"/>
      <path id="Trazado_116789" data-name="Trazado 116789" d="M1013.562,555.984l-.05,1.38s-23.7,8.74-24.08,13.18l46.54,1.1-.27-15.5C1028.712,559.184,1021.462,559.374,1013.562,555.984Z" fill="#36c"/>
      <g id="Grupo_53593" data-name="Grupo 53593" opacity="0.6">
        <path id="Trazado_116790" data-name="Trazado 116790" d="M1030.872,560.984a1.89,1.89,0,0,1,1.26,2.2,1.83,1.83,0,0,1-2.17,1.27,2,2,0,0,1-1.32-2.34,1.9,1.9,0,0,1,2.4-1.07" fill="#fff"/>
      </g>
      <g id="Grupo_53594" data-name="Grupo 53594" opacity="0.6">
        <path id="Trazado_116791" data-name="Trazado 116791" d="M1035.972,571.644l-.07-3.73-44.58.31s-2.09.85-1.89,2.32Z" fill="#fff"/>
      </g>
      <path id="Trazado_116792" data-name="Trazado 116792" d="M1013.352,557.494c0,.23,1.13.36,2.23,1.11s1.68,1.73,1.89,1.65-.1-1.41-1.45-2.3S1013.262,557.284,1013.352,557.494Z" fill="#263238"/>
      <path id="Trazado_116793" data-name="Trazado 116793" d="M1008.422,559.394c-.06.22.91.63,1.66,1.61s1,2,1.18,2,.4-1.29-.56-2.49S1008.432,559.184,1008.422,559.394Z" fill="#263238"/>
      <path id="Trazado_116794" data-name="Trazado 116794" d="M1005.512,565.174c.2.05.54-1.07,0-2.33s-1.6-1.78-1.71-1.6.55.87,1,1.91S1005.262,565.144,1005.512,565.174Z" fill="#263238"/>
      <path id="Trazado_116795" data-name="Trazado 116795" d="M1035.7,556.144l1.78-4.59-12.48-4.62-4.44,11.17S1027.262,560.864,1035.7,556.144Z" fill="#ffbe9d"/>
      <path id="Trazado_116796" data-name="Trazado 116796" d="M1004.572,547.844l7,23.28,16.31-4.78-5.38-21.59a2.662,2.662,0,0,0-1.29-1.69c-2-1.07-6.82-2.72-14.64.54A3.488,3.488,0,0,0,1004.572,547.844Z" fill="#ffbe9d"/>
      <path id="Trazado_116797" data-name="Trazado 116797" d="M1008.682,563.644s14,5.29,17.82-3.45l2.41,3.12,13.25,23.29a3.471,3.471,0,0,1-.83,4.51,3.341,3.341,0,0,1-3.61.24c-6.06-3.35-28.3-15.79-28.74-18.15l-1.53-6.16a3.239,3.239,0,0,1,1.23-3.4Z" fill="#36c"/>
      <g id="Grupo_53595" data-name="Grupo 53595" opacity="0.6">
        <path id="Trazado_116798" data-name="Trazado 116798" d="M1040.792,591.434l-32.37-20.36.35,1.34c.26,1.49,1,1.9,2,2.65,2.77,2.23,10,6.92,26.87,16.32a3.362,3.362,0,0,0,3.17.05Z" fill="#fff"/>
      </g>
      <g id="Grupo_53596" data-name="Grupo 53596" opacity="0.6">
        <path id="Trazado_116799" data-name="Trazado 116799" d="M1011.082,566.1a1.917,1.917,0,0,1-1.17,3.65,2.16,2.16,0,0,1-1.28-2.57,2,2,0,0,1,2.63-1" fill="#fff"/>
      </g>
      <path id="Trazado_116800" data-name="Trazado 116800" d="M1029.882,579.524c.2,0,.48-1.81,2.12-3.2s3.47-1.46,3.46-1.67-.46-.22-1.23-.13a5.271,5.271,0,0,0-2.7,1.26,5.153,5.153,0,0,0-1.61,2.51C1029.722,579.034,1029.792,579.524,1029.882,579.524Z" fill="#263238"/>
      <path id="Trazado_116801" data-name="Trazado 116801" d="M1033.262,583.164c.19.1.93-1.2,2.44-2.11s3-1,3-1.22-1.65-.45-3.36.61S1033.072,583.124,1033.262,583.164Z" fill="#263238"/>
      <path id="Trazado_116802" data-name="Trazado 116802" d="M1024.262,575.2c.19.11,1.32-1.89,3.55-3.5s4.45-2.13,4.4-2.35-2.46,0-4.83,1.77S1024.062,575.154,1024.262,575.2Z" fill="#263238"/>
      <path id="Trazado_116803" data-name="Trazado 116803" d="M1021.682,567.734c.14.16,1.69-1,4-1.72s4.2-.62,4.22-.83-2-.62-4.44.14S1021.552,567.6,1021.682,567.734Z" fill="#263238"/>
      <path id="Trazado_116804" data-name="Trazado 116804" d="M1026.912,565.6a2.817,2.817,0,0,0-.49-1.14,8.656,8.656,0,0,0-2.27-2.51,3.819,3.819,0,0,0-2.26-.95,1.338,1.338,0,0,0-1.25.92,2.2,2.2,0,0,0,.16,1.56,4.751,4.751,0,0,0,5.64,2.19,5.521,5.521,0,0,0,3.66-4.91,1.923,1.923,0,0,0-.6-1.47,1.308,1.308,0,0,0-1.55,0,4.609,4.609,0,0,0-1.47,1.93,9.474,9.474,0,0,0-.94,3.26,2.913,2.913,0,0,0,0,1.24,15.13,15.13,0,0,1,1.36-4.27,4.422,4.422,0,0,1,1.32-1.65.7.7,0,0,1,.85,0,1.254,1.254,0,0,1,.33,1,4.9,4.9,0,0,1-3.22,4.22,4.12,4.12,0,0,1-4.81-1.8,1.626,1.626,0,0,1-.16-1.08.739.739,0,0,1,.68-.52,3.434,3.434,0,0,1,1.93.77A13,13,0,0,1,1026.912,565.6Z" fill="#263238"/>
      <path id="Trazado_116805" data-name="Trazado 116805" d="M1041.132,459.184a14.07,14.07,0,0,1,8.43,3c3.66,3.11,12.05,14,12.05,14l-16,3.49-11.09-7.74Z" fill="#36c"/>
      <path id="Trazado_116806" data-name="Trazado 116806" d="M991.332,461.494c-1.48.54-9.39,2.93-12.25,11.34s-2.24,12.76-.34,17.84L995.4,477Z" fill="#36c"/>
      <path id="Trazado_116807" data-name="Trazado 116807" d="M1059.512,500.1c-.14,0-.22-.34-.43-.63s-.46-.48-.43-.62.53-.15.86.33S1059.652,500.144,1059.512,500.1Z" fill="#eb996e"/>
      <path id="Trazado_116808" data-name="Trazado 116808" d="M977.722,487.444s0,4.18,5.1,10.37,4.92,5.87,12.69,6.66,48.05-3.67,48.05-3.67l6-9.71-43.42-.42L994.4,477Z" fill="#ffbe9d"/>
      <path id="Trazado_116809" data-name="Trazado 116809" d="M1042.752,499.224s.19,2.78,4.69,3.23,8.09.56,8.09.56,5,3.6,5.29,4.27.28,2.82,1.12,3.23c.65.31,1.92.82,2.13-.83a20.175,20.175,0,0,0,0-4.14l-2.35-3.43-2.14-2.25,5.31,4.32-.1,1.71a3.078,3.078,0,0,0,2.05,3.1h0l1-3.52v-2.13a3.334,3.334,0,0,0,1.13-2.59c-.11-1.58-2.7-4.95-2.7-4.95l-1-.9-.11-1.69-4.28-2.13-15.4.78Z" fill="#ffbe9d"/>
      <path id="Trazado_116810" data-name="Trazado 116810" d="M1042.432,477.984l-41.24,1.74s-8.28-3.35-11.87-1.32c-1.54.87-4.88,2.94-5.47,4-.28.5.64,1.21.64,1.21s-4,1.92-5.09,2.71a3.9,3.9,0,0,0-1.23,3.45h0a1.929,1.929,0,0,0,2.367,1.358c.052-.014.1-.03.153-.048l.85-.3a15.317,15.317,0,0,0-3.18,3.32,1.808,1.808,0,0,0,2,2.55,11.907,11.907,0,0,0,3.73-1.42l-1.83,2.18a11.675,11.675,0,0,0-.57,2.49c0,.79,1.47,1.24,2.38,1.13s5.31-2.71,5.31-2.71l-1.58,2.14a3,3,0,0,0,0,2,2,2,0,0,0,2.37,1.36c1.13-.11,4.63-4.86,4.63-4.86s2.94-1.35,6.22-2.48,7.31-5.69,7.31-5.69l39.54,1.14,10.14-.64c2.46-.12,4.78-8.23,2.94-15.09l.09-.17c-6.42-2.88-12.32-3.47-17.36-.39Z" fill="#ffbe9d"/>
      <path id="Trazado_116811" data-name="Trazado 116811" d="M984.622,495.134a6.883,6.883,0,0,1-2.19,1.29,5.173,5.173,0,0,1-2.81.52c-.14-.05-.29-.09-.42-.15a3.007,3.007,0,0,1-.39-.27,3.656,3.656,0,0,1-.59-.7,1.659,1.659,0,0,1,.08-2h0c.21-.25.42-.53.66-.8a22.353,22.353,0,0,1,5.28-4.47,9.367,9.367,0,0,1,2.59-1.24c0,.08-.94.56-2.39,1.55a26.34,26.34,0,0,0-5.09,4.5c-.23.26-.43.53-.64.78h0c-.69.78.26,2.09,1.05,2.28a5.1,5.1,0,0,0,2.57-.39C983.752,495.554,984.582,495.064,984.622,495.134Z" fill="#eb996e"/>
      <path id="Trazado_116812" data-name="Trazado 116812" d="M1065.262,493.224a1.06,1.06,0,0,1-.29-.11l-.84-.39-3.2-1.54h.06l-8.1.48c-3.28.22-7.12.33-11.37.34s-8.94-.18-13.91-.5l-7.68-.54-4-.27a31.81,31.81,0,0,0-4-.14,7,7,0,0,0-4.27,1.57c-.62.47-1.19,1-1.82,1.49a18.083,18.083,0,0,1-1.94,1.33,43.383,43.383,0,0,1-4.07,2.05,29.638,29.638,0,0,0-3.86,2,23.216,23.216,0,0,0-3.07,2.8c-.49.49-1,.95-1.52,1.38a3,3,0,0,1-1.88.9,2.359,2.359,0,0,1-1.84-.91,1.868,1.868,0,0,1-.44-2,15.539,15.539,0,0,1,2-3l.26.3a16.484,16.484,0,0,1-5.54,2.54,2.163,2.163,0,0,1-1.43-.19,2,2,0,0,1-.86-1.08,3,3,0,0,1,.48-2.42h0a24.021,24.021,0,0,1,5.06-4.16,14.114,14.114,0,0,1,1.54-.81,4.43,4.43,0,0,1,.559-.2,3.036,3.036,0,0,1-.53.27c-.35.18-.85.46-1.49.87a24.85,24.85,0,0,0-4.92,4.22h0a2.746,2.746,0,0,0-.42,2.16,1.686,1.686,0,0,0,.73.89,1.821,1.821,0,0,0,1.211.13,16.2,16.2,0,0,0,5.369-2.52l1.15-.74-.89,1a15.972,15.972,0,0,0-2,2.91,1.512,1.512,0,0,0,.4,1.49,2,2,0,0,0,1.49.74,2.5,2.5,0,0,0,1.59-.81c.51-.42,1-.87,1.49-1.35a22.736,22.736,0,0,1,3.12-2.87,28.026,28.026,0,0,1,3.93-2,43.48,43.48,0,0,0,4-2,19.615,19.615,0,0,0,1.89-1.29c.6-.48,1.17-1,1.81-1.5a7.57,7.57,0,0,1,2.12-1.22,8.5,8.5,0,0,1,2.44-.46,32.432,32.432,0,0,1,4.1.14l4,.28,7.67.55c5,.34,9.63.55,13.88.56s8.07-.06,11.35-.24l8.11-.35h.05l3.15,1.64c.34.17.6.32.81.43Z" fill="#eb996e"/>
      <path id="Trazado_116813" data-name="Trazado 116813" d="M980.872,491.214a1.356,1.356,0,0,1-.7.18,2.259,2.259,0,0,1-1.79-.81,2.337,2.337,0,0,1-.52-1.31,3.6,3.6,0,0,1,.15-1.58,2.989,2.989,0,0,1,1.07-1.44c.51-.34,1-.63,1.55-.94,2.14-1.22,4.12-2.23,5.56-2.93a12.6,12.6,0,0,1,2.4-1,12.637,12.637,0,0,1-2.23,1.36l-5.47,3.06c-.52.3-1.06.61-1.51.91a2.444,2.444,0,0,0-.92,1.18,3.316,3.316,0,0,0-.17,1.39,2,2,0,0,0,.38,1.11,2.149,2.149,0,0,0,1.51.84C980.612,491.234,980.862,491.164,980.872,491.214Z" fill="#eb996e"/>
      <path id="Trazado_116814" data-name="Trazado 116814" d="M1060.762,495.934a.841.841,0,0,1,.44-.13,2.068,2.068,0,0,1,1.19.37,17.512,17.512,0,0,1,2.81,2.76,13.086,13.086,0,0,1,2.41,3.14c.44,1,.21,1.67.15,1.64a5.391,5.391,0,0,0-.48-1.48,18.33,18.33,0,0,0-2.46-2.95,31.034,31.034,0,0,0-2.64-2.81A2.93,2.93,0,0,0,1060.762,495.934Z" fill="#eb996e"/>
      <path id="Trazado_116815" data-name="Trazado 116815" d="M1062.262,492.934c.05-.13.91.07,1.79.67s1.4,1.31,1.3,1.41-.75-.42-1.59-1S1062.172,493.024,1062.262,492.934Z" fill="#eb996e"/>
      <path id="Trazado_116816" data-name="Trazado 116816" d="M993.342,477.664l-1.54-6.12a22.877,22.877,0,0,1-.87-3.08c-1.41-6.64-5.36-30.13,8.51-32.65,0,0,9.88-10.09,21.64-6.31s20.8,13,21.64,22.27c.65,7.18.81,18.94.85,23.85a2.441,2.441,0,0,1-2.24,2.45l-20.67,1.65h-19.2A53.693,53.693,0,0,0,993.342,477.664Z" fill="#263238"/>
      <path id="Trazado_116817" data-name="Trazado 116817" d="M1019.582,473.474a17.522,17.522,0,0,1,2.11,14.54c-.19.66-.28,1.62.38,1.8a1.2,1.2,0,0,0,.91-.25,12.007,12.007,0,0,0,4.47-5c-.18,1.26-.07,3,1.17,3.24a2.463,2.463,0,0,0,2-.87,23.008,23.008,0,0,0,4.54-5.62l.9,4.52a13.594,13.594,0,0,0,6.05-7,22.018,22.018,0,0,0,1.36-9.29c-.2-4.18-1.32-8.5-4.11-11.62a12.86,12.86,0,0,0-21.42,13.6" fill="#263238"/>
      <path id="Trazado_116818" data-name="Trazado 116818" d="M1027.622,477.934a6.341,6.341,0,0,1-.11-1.31c0-.85-.11-2.07-.25-3.58a54.521,54.521,0,0,0-7.18-22.28c-.76-1.31-1.41-2.35-1.88-3.05a6.971,6.971,0,0,1-.68-1.13,6.338,6.338,0,0,1,.85,1,29.463,29.463,0,0,1,2,3,49.317,49.317,0,0,1,7.25,22.35,34.86,34.86,0,0,1,.09,3.6A5.867,5.867,0,0,1,1027.622,477.934Z" fill="#455a64"/>
      <path id="Trazado_116819" data-name="Trazado 116819" d="M1020.032,473.934a6.167,6.167,0,0,1-1.2-1.58,25.387,25.387,0,0,1-2.18-4.28,26.268,26.268,0,0,1-1.37-4.6,6,6,0,0,1-.21-2c.16,0,.68,2.95,2.07,6.38S1020.172,473.844,1020.032,473.934Z" fill="#455a64"/>
      <path id="Trazado_116820" data-name="Trazado 116820" d="M998.262,461.314a3.237,3.237,0,0,1-.35-1,25.5,25.5,0,0,1-.6-2.77,18.285,18.285,0,0,1,.72-9.3,11.6,11.6,0,0,1,6.44-6.62,7.789,7.789,0,0,1,2.81-.54,3.372,3.372,0,0,1,1,.1,12.215,12.215,0,0,0-3.71.78,11.635,11.635,0,0,0-6.09,6.47,19.146,19.146,0,0,0-.84,9.06C997.972,459.864,998.342,461.294,998.262,461.314Z" fill="#455a64"/>
      <path id="Trazado_116821" data-name="Trazado 116821" d="M1005.112,461.434a8.672,8.672,0,0,1-.67-2.55,23.089,23.089,0,0,1,1.43-12.55,8.687,8.687,0,0,1,1.23-2.34,37.2,37.2,0,0,0-2.3,8.57A37.62,37.62,0,0,0,1005.112,461.434Z" fill="#455a64"/>
      <path id="Trazado_116822" data-name="Trazado 116822" d="M999.332,436.494a11.21,11.21,0,0,1,9.43,2.5,20.437,20.437,0,0,0-9.43-2.5Z" fill="#455a64"/>
      <path id="Trazado_116823" data-name="Trazado 116823" d="M1020.262,431.484c0,.09-.77,0-2,.2a11.539,11.539,0,0,0-7.78,4.8c-.69,1-1,1.7-1.06,1.66a4.591,4.591,0,0,1,.75-1.86,10.387,10.387,0,0,1,8-5A4.619,4.619,0,0,1,1020.262,431.484Z" fill="#455a64"/>
      <path id="Trazado_116824" data-name="Trazado 116824" d="M1032.022,440.494c-.06.07-1-.88-2.73-1.95a15.078,15.078,0,0,0-15.3-.21c-1.8,1-2.73,1.94-2.79,1.87s.18-.28.61-.68a12.347,12.347,0,0,1,2-1.51,14.577,14.577,0,0,1,15.69.22,12.589,12.589,0,0,1,1.94,1.56C1031.852,440.214,1032.052,440.474,1032.022,440.494Z" fill="#455a64"/>
      <path id="Trazado_116825" data-name="Trazado 116825" d="M1033.7,477.934c-.05,0,.26-.66.65-1.89a24.02,24.02,0,0,0,1.06-5.32,39,39,0,0,0-.26-8.06,44.807,44.807,0,0,0-2.22-9.61,21.79,21.79,0,0,0-5.15-8.27,15.853,15.853,0,0,0-6.92-3.85,12.264,12.264,0,0,0-5.36-.19c-1.26.25-1.91.57-1.94.51a1.865,1.865,0,0,1,.47-.23,7.808,7.808,0,0,1,1.42-.48,12.089,12.089,0,0,1,5.49,0,15.912,15.912,0,0,1,7.17,3.87,21.847,21.847,0,0,1,5.31,8.43,43.728,43.728,0,0,1,2.2,9.73,35.945,35.945,0,0,1,.15,8.15,22.111,22.111,0,0,1-1.22,5.36c-.24.6-.44,1.07-.6,1.37A2.068,2.068,0,0,1,1033.7,477.934Z" fill="#455a64"/>
    </g>
  </g>
</svg>
