<svg xmlns="http://www.w3.org/2000/svg" width="340.946" height="327.508" viewBox="0 0 340.946 327.508">
  <g id="Grupo_53599" data-name="Grupo 53599" transform="translate(-742.008 -644.5)">
    <g id="freepik--background-simple--inject-108" transform="translate(744.238 665.462)">
      <path id="Trazado_116826" data-name="Trazado 116826" d="M1021.037,952.5a86.639,86.639,0,0,0,27.956-29.55c41.788-72.683,32.35-179.959-48.126-225.943-37.2-21.252-90.74-34.7-130.934-12.874-32.606,17.706-52.593,51.036-69.122,81.368-10.4,19.073-18.964,39.6-31.765,57.447-16.617,23.146-34.9,54.055-16.442,80.944,25.156,36.626,72.668,53.368,115.757,64.334,46.744,11.946,99.3,13.642,142.478-9.657Q1016.081,955.765,1021.037,952.5Z" transform="translate(-744.874 -672.99)" fill="#36c"/>
      <path id="Trazado_116827" data-name="Trazado 116827" d="M1021.037,952.5a86.639,86.639,0,0,0,27.956-29.55c41.788-72.683,32.35-179.959-48.126-225.943-37.2-21.252-90.74-34.7-130.934-12.874-32.606,17.706-52.593,51.036-69.122,81.368-10.4,19.073-18.964,39.6-31.765,57.447-16.617,23.146-34.9,54.055-16.442,80.944,25.156,36.626,72.668,53.368,115.757,64.334,46.744,11.946,99.3,13.642,142.478-9.657Q1016.081,955.765,1021.037,952.5Z" transform="translate(-744.874 -672.99)" fill="#fff" opacity="0.7" style="isolation: isolate"/>
    </g>
    <g id="freepik--Floor--inject-108" transform="translate(742.508 966.288)">
      <line id="Línea_331" data-name="Línea 331" x2="339.946" fill="none" stroke="#263238" stroke-linecap="round" stroke-linejoin="round" stroke-width="1"/>
    </g>
    <g id="freepik--Frame--inject-108" transform="translate(744.128 670.059)">
      <rect id="Rectángulo_28894" data-name="Rectángulo 28894" width="318.745" height="225.9" transform="translate(0 16.682) rotate(-3)" fill="none" stroke="#263238" stroke-miterlimit="10" stroke-width="1"/>
      <rect id="Rectángulo_28895" data-name="Rectángulo 28895" width="296.813" height="206.892" transform="translate(11.448 25.599) rotate(-3)" fill="none" stroke="#263238" stroke-miterlimit="10" stroke-width="1"/>
    </g>
    <g id="freepik--Hearts--inject-108" transform="translate(743.954 645)">
      <path id="Trazado_116828" data-name="Trazado 116828" d="M1101.638,682.165a9.137,9.137,0,0,1-2.683,6.477l-2.427,2.427-12.962,12.962-12.94-12.962-2.427-2.427a9.168,9.168,0,0,1,12.962-12.969h0l2.405,2.42,2.412-2.42a9.168,9.168,0,0,1,15.645,6.492Z" transform="translate(-830.821 -652.527)" fill="#e36099" stroke="#263238" stroke-linecap="round" stroke-linejoin="round" stroke-width="1"/>
      <path id="Trazado_116829" data-name="Trazado 116829" d="M841.627,753.218a6.1,6.1,0,0,1-1.791,4.328l-1.616,1.623-8.663,8.656-8.656-8.656-1.623-1.623a6.121,6.121,0,0,1,8.656-8.656h0l1.623,1.623,1.623-1.623a6.119,6.119,0,0,1,10.447,4.328Z" transform="translate(-764.118 -672.457)" fill="#e36099" stroke="#263238" stroke-linecap="round" stroke-linejoin="round" stroke-width="1"/>
      <path id="Trazado_116830" data-name="Trazado 116830" d="M1175.627,917.218a6.1,6.1,0,0,1-1.791,4.328l-1.623,1.623-8.656,8.656-8.656-8.656-1.623-1.623a6.121,6.121,0,0,1,8.656-8.656l1.623,1.623,1.623-1.623a6.119,6.119,0,0,1,10.447,4.328Z" transform="translate(-853.942 -716.562)" fill="#e36099" stroke="#263238" stroke-linecap="round" stroke-linejoin="round" stroke-width="1"/>
      <path id="Trazado_116831" data-name="Trazado 116831" d="M768.627,868.727a6.1,6.1,0,0,1-1.791,4.328l-1.616,1.623-8.663,8.656-8.656-8.656-1.623-1.623a6.121,6.121,0,0,1,8.656-8.656h0l1.623,1.623,1.623-1.623a6.119,6.119,0,0,1,10.447,4.328Z" transform="translate(-744.486 -703.521)" fill="#36c" stroke="#263238" stroke-linecap="round" stroke-linejoin="round" stroke-width="1"/>
      <path id="Trazado_116832" data-name="Trazado 116832" d="M943.31,650.1a5.044,5.044,0,0,1-1.462,3.582l-1.338,1.345-7.186,7.135-7.157-7.157-1.345-1.345a5.069,5.069,0,0,1,7.157-7.179l1.345,1.345,1.338-1.345a5.066,5.066,0,0,1,8.649,3.582Z" transform="translate(-792.584 -644.999)" fill="#36c" stroke="#263238" stroke-linecap="round" stroke-linejoin="round" stroke-width="1"/>
      <path id="Trazado_116833" data-name="Trazado 116833" d="M978.813,1020.674a5.073,5.073,0,0,1-1.462,3.582l-1.338,1.345-7.164,7.157-7.164-7.157-1.352-1.316a5.069,5.069,0,0,1,7.157-7.179l1.345,1.331,1.338-1.345a5.059,5.059,0,0,1,8.641,3.582Z" transform="translate(-802.134 -744.668)" fill="#36c" stroke="#263238" stroke-linecap="round" stroke-linejoin="round" stroke-width="1"/>
    </g>
    <g id="freepik--Plants--inject-108" transform="translate(745.857 906.047)">
      <path id="Trazado_116834" data-name="Trazado 116834" d="M1184.671,1024.468s.863-2.069.9-2.193c.439-1.594.336-4.935-1.213-5.944a2.193,2.193,0,0,0-3.013.735c-.04.065-.075.132-.108.2a4.575,4.575,0,0,0,.307,3.838A15.758,15.758,0,0,0,1184.671,1024.468Z" transform="translate(-863.762 -1005.825)" fill="#263238"/>
      <path id="Trazado_116835" data-name="Trazado 116835" d="M1140.729,1018.873a16.107,16.107,0,0,0,4.474,1.082s-.417-2.193-.468-2.332c-.512-1.572-2.435-4.3-4.284-4.284a2.194,2.194,0,0,0-2.111,2.272c0,.076.01.152.021.228A4.561,4.561,0,0,0,1140.729,1018.873Z" transform="translate(-852.309 -1005.106)" fill="#263238"/>
      <path id="Trazado_116836" data-name="Trazado 116836" d="M1140.275,1025.319a15.26,15.26,0,0,0,4.554-.132,38.7,38.7,0,0,0,1.133,5.044c.278.965.585,1.93.907,2.924-.212-.417-.4-.79-.439-.841-.914-1.374-3.487-3.494-5.271-3a2.192,2.192,0,0,0-1.43,2.752,2.149,2.149,0,0,0,.078.209,4.55,4.55,0,0,0,3.085,2.3,14.489,14.489,0,0,0,4.43-.11c.132.365.256.731.38,1.1.621,1.762,1.25,3.524,1.813,5.264.2.614.373,1.228.548,1.842-.19-.373-.358-.687-.387-.731-.914-1.375-3.487-3.494-5.264-3a2.195,2.195,0,0,0-1.36,2.961,4.573,4.573,0,0,0,3.085,2.3,14.146,14.146,0,0,0,4.313-.095c.161.636.322,1.265.446,1.886.081.424.183.826.234,1.257s.124.848.19,1.265c.088.812.183,1.645.249,2.435.044.548.088,1.074.124,1.6-.19-.614-.592-1.806-.636-1.9-.695-1.462-2.924-3.991-4.752-3.765a2.193,2.193,0,0,0-1.839,2.5,2.238,2.238,0,0,0,.048.229,4.662,4.662,0,0,0,2.7,2.734,14.755,14.755,0,0,0,4.5.563c.058.877.11,1.725.146,2.529.131,2.786.139,5.118.117,6.726l1.243.161v-.146c0-1.645-.066-3.991-.263-6.8-.058-.892-.139-1.835-.234-2.807a23.582,23.582,0,0,0,2.661-.863,15.983,15.983,0,0,0,3.356,2.829c-.432.731-.855,1.5-1.272,2.193-1.426,2.39-2.7,4.328-3.611,5.673l1.367.175c.855-1.345,1.974-3.144,3.195-5.3.439-.775.9-1.608,1.353-2.471a14.985,14.985,0,0,0,4.445.921,4.562,4.562,0,0,0,3.443-1.718,2.193,2.193,0,0,0-.621-3.039,2.15,2.15,0,0,0-.19-.112c-1.667-.812-4.576.826-5.717,2.018-.066.073-.731.921-1.111,1.462.19-.358.373-.695.556-1.06.38-.731.731-1.462,1.111-2.237.176-.387.344-.775.519-1.17s.322-.819.49-1.228c.365-.965.687-1.959.987-2.968a14.538,14.538,0,0,0,4.131,1.528,4.567,4.567,0,0,0,3.655-1.184,2.194,2.194,0,0,0-.156-3.1,2.218,2.218,0,0,0-.173-.14c-1.521-1.053-4.642.124-5.951,1.133-.088.066-.943.892-1.4,1.36.176-.614.351-1.213.512-1.835.461-1.791.87-3.655,1.287-5.439.124-.556.256-1.111.387-1.667a15.414,15.414,0,0,0,4.27,1.594,4.529,4.529,0,0,0,3.656-1.177,2.194,2.194,0,0,0-.156-3.1q-.083-.075-.173-.14c-1.521-1.053-4.642.124-5.958,1.133-.095.073-1.331,1.265-1.63,1.586.293-1.221.592-2.442.936-3.655a38.874,38.874,0,0,1,1.682-4.708,15.786,15.786,0,0,0,4.291,1.608,4.533,4.533,0,0,0,3.656-1.185,2.194,2.194,0,0,0-.156-3.1q-.083-.075-.173-.14c-1.528-1.053-4.65.124-5.958,1.133-.088.066-1.023.972-1.462,1.418l-.088-.059a27.816,27.816,0,0,1,2.515-4.386c.519-.731,1.06-1.462,1.608-2.135a14.571,14.571,0,0,0,4,2.01,4.5,4.5,0,0,0,3.772-.768,2.193,2.193,0,0,0,.163-3.1,1.958,1.958,0,0,0-.163-.163c-1.4-1.206-4.635-.38-6.046.475-.08.051-.8.607-1.33,1.023.248-.3.5-.614.731-.892.914-1.06,1.82-1.967,2.625-2.771.468-.453.892-.855,1.294-1.221a14.614,14.614,0,0,0,4.459-.066,4.528,4.528,0,0,0,3-2.42,2.189,2.189,0,0,0-1.462-2.924c-1.8-.431-4.292,1.791-5.118,3.2-.073.124-1.016,2.193-.979,2.193h.036c-.395.351-.811.731-1.264,1.148-.826.782-1.755,1.681-2.7,2.72a41.088,41.088,0,0,0-2.88,3.509,28.911,28.911,0,0,0-2.632,4.343v.051c.081-.534.249-2.04.249-2.157,0-1.652-.98-4.847-2.741-5.41a2.193,2.193,0,0,0-2.718,1.495,2.354,2.354,0,0,0-.053.23,4.7,4.7,0,0,0,1.309,3.655,15.082,15.082,0,0,0,3.875,2.405,40.106,40.106,0,0,0-1.842,4.832c-.3.958-.577,1.938-.833,2.924.051-.468.095-.885.095-.943,0-1.652-.979-4.84-2.741-5.4a2.193,2.193,0,0,0-2.718,1.494q-.032.111-.053.224a4.7,4.7,0,0,0,1.309,3.655,13.719,13.719,0,0,0,3.758,2.347c-.095.38-.2.731-.292,1.133-.453,1.813-.9,3.655-1.4,5.388-.168.621-.365,1.228-.556,1.835.044-.409.081-.731.081-.812,0-1.652-.98-4.847-2.741-5.41a2.193,2.193,0,0,0-2.763,1.718,4.677,4.677,0,0,0,1.309,3.655,12.874,12.874,0,0,0,3.655,2.3c-.212.621-.424,1.235-.665,1.82-.168.4-.307.79-.5,1.184l-.541,1.155c-.373.731-.731,1.462-1.133,2.193-.263.49-.519.943-.782,1.411.183-.621.5-1.835.526-1.937a8.563,8.563,0,0,0-.607-4.248,2.69,2.69,0,0,0,0-.49,2.193,2.193,0,0,0-2.181-2.2,1.947,1.947,0,0,0-.238.012c-1.835.249-3.356,3.217-3.655,4.84,0,.1-.095,1.155-.124,1.828-.044-.395-.073-.782-.124-1.192-.08-.8-.19-1.608-.307-2.478-.066-.417-.139-.833-.212-1.257s-.183-.863-.27-1.294c-.227-1.009-.5-2.01-.812-3.019a14.454,14.454,0,0,0,4.291-1.009,4.548,4.548,0,0,0,2.406-3,2.193,2.193,0,0,0-1.837-2.5,2.116,2.116,0,0,0-.225-.022c-1.85,0-3.8,2.668-4.343,4.226,0,.1-.292,1.265-.424,1.908-.183-.607-.366-1.206-.578-1.813-.607-1.747-1.272-3.495-1.93-5.242-.2-.541-.395-1.074-.592-1.608a14.534,14.534,0,0,0,4.437-1.024,4.6,4.6,0,0,0,2.413-3,2.193,2.193,0,0,0-1.827-2.506,2.29,2.29,0,0,0-.234-.023c-1.849,0-3.809,2.668-4.343,4.233-.044.117-.409,1.8-.482,2.23-.431-1.185-.855-2.361-1.221-3.546a37.463,37.463,0,0,1-1.2-4.854,15,15,0,0,0,4.467-1.023,4.567,4.567,0,0,0,2.405-3,2.193,2.193,0,0,0-1.828-2.506,2.274,2.274,0,0,0-.234-.023c-1.85,0-3.8,2.668-4.335,4.233-.037.1-.322,1.382-.446,1.989h-.1a28.2,28.2,0,0,1-.307-5.022c0-.921.08-1.806.161-2.661a14.48,14.48,0,0,0,4.452-.534,4.546,4.546,0,0,0,2.719-2.72,2.193,2.193,0,0,0-1.549-2.687,2.092,2.092,0,0,0-.22-.047c-1.835-.241-4.072,2.193-4.781,3.728-.037.08-.337.95-.541,1.586.044-.387.08-.79.132-1.155.176-1.389.424-2.646.658-3.765.139-.629.271-1.2.4-1.733a13.472,13.472,0,0,0,3.656-2.508,4.817,4.817,0,0,0,1.162-3.655,2.193,2.193,0,0,0-2.61-1.676,2.061,2.061,0,0,0-.219.06c-1.74.636-2.588,3.867-2.529,5.512,0,.146.351,2.369.38,2.354h.036c-.139.512-.278,1.06-.424,1.66-.256,1.111-.533,2.369-.731,3.758a38.75,38.75,0,0,0-.468,4.511,28.584,28.584,0,0,0,.2,5.074.2.2,0,0,0,0,.059c-.234-.49-.921-1.842-.987-1.937-.914-1.374-3.487-3.5-5.271-3a2.193,2.193,0,0,0-1.438,2.747,2.152,2.152,0,0,0,.079.214A5.194,5.194,0,0,0,1140.275,1025.319Z" transform="translate(-851.928 -1002.077)" fill="#263238"/>
      <path id="Trazado_116837" data-name="Trazado 116837" d="M1140.729,1018.873a16.107,16.107,0,0,0,4.474,1.082s-.417-2.193-.468-2.332c-.512-1.572-2.435-4.3-4.284-4.284a2.194,2.194,0,0,0-2.111,2.272c0,.076.01.152.021.228A4.561,4.561,0,0,0,1140.729,1018.873Z" transform="translate(-852.309 -1005.106)" fill="#263238" opacity="0.3" style="isolation: isolate"/>
      <path id="Trazado_116838" data-name="Trazado 116838" d="M1184.671,1024.468s.863-2.069.9-2.193c.439-1.594.336-4.935-1.213-5.944a2.193,2.193,0,0,0-3.013.735c-.04.065-.075.132-.108.2a4.575,4.575,0,0,0,.307,3.838A15.758,15.758,0,0,0,1184.671,1024.468Z" transform="translate(-863.762 -1005.825)" fill="#263238" opacity="0.3" style="isolation: isolate"/>
      <path id="Trazado_116839" data-name="Trazado 116839" d="M1140.275,1025.319a15.26,15.26,0,0,0,4.554-.132,38.7,38.7,0,0,0,1.133,5.044c.278.965.585,1.93.907,2.924-.212-.417-.4-.79-.439-.841-.914-1.374-3.487-3.494-5.271-3a2.192,2.192,0,0,0-1.43,2.752,2.149,2.149,0,0,0,.078.209,4.55,4.55,0,0,0,3.085,2.3,14.489,14.489,0,0,0,4.43-.11c.132.365.256.731.38,1.1.621,1.762,1.25,3.524,1.813,5.264.2.614.373,1.228.548,1.842-.19-.373-.358-.687-.387-.731-.914-1.375-3.487-3.494-5.264-3a2.195,2.195,0,0,0-1.36,2.961,4.573,4.573,0,0,0,3.085,2.3,14.146,14.146,0,0,0,4.313-.095c.161.636.322,1.265.446,1.886.081.424.183.826.234,1.257s.124.848.19,1.265c.088.812.183,1.645.249,2.435.044.548.088,1.074.124,1.6-.19-.614-.592-1.806-.636-1.9-.695-1.462-2.924-3.991-4.752-3.765a2.193,2.193,0,0,0-1.839,2.5,2.238,2.238,0,0,0,.048.229,4.662,4.662,0,0,0,2.7,2.734,14.755,14.755,0,0,0,4.5.563c.058.877.11,1.725.146,2.529.131,2.786.139,5.118.117,6.726l1.243.161v-.146c0-1.645-.066-3.991-.263-6.8-.058-.892-.139-1.835-.234-2.807a23.582,23.582,0,0,0,2.661-.863,15.983,15.983,0,0,0,3.356,2.829c-.432.731-.855,1.5-1.272,2.193-1.426,2.39-2.7,4.328-3.611,5.673l1.367.175c.855-1.345,1.974-3.144,3.195-5.3.439-.775.9-1.608,1.353-2.471a14.985,14.985,0,0,0,4.445.921,4.562,4.562,0,0,0,3.443-1.718,2.193,2.193,0,0,0-.621-3.039,2.15,2.15,0,0,0-.19-.112c-1.667-.812-4.576.826-5.717,2.018-.066.073-.731.921-1.111,1.462.19-.358.373-.695.556-1.06.38-.731.731-1.462,1.111-2.237.176-.387.344-.775.519-1.17s.322-.819.49-1.228c.365-.965.687-1.959.987-2.968a14.538,14.538,0,0,0,4.131,1.528,4.567,4.567,0,0,0,3.655-1.184,2.194,2.194,0,0,0-.156-3.1,2.218,2.218,0,0,0-.173-.14c-1.521-1.053-4.642.124-5.951,1.133-.088.066-.943.892-1.4,1.36.176-.614.351-1.213.512-1.835.461-1.791.87-3.655,1.287-5.439.124-.556.256-1.111.387-1.667a15.414,15.414,0,0,0,4.27,1.594,4.529,4.529,0,0,0,3.656-1.177,2.194,2.194,0,0,0-.156-3.1q-.083-.075-.173-.14c-1.521-1.053-4.642.124-5.958,1.133-.095.073-1.331,1.265-1.63,1.586.293-1.221.592-2.442.936-3.655a38.874,38.874,0,0,1,1.682-4.708,15.786,15.786,0,0,0,4.291,1.608,4.533,4.533,0,0,0,3.656-1.185,2.194,2.194,0,0,0-.156-3.1q-.083-.075-.173-.14c-1.528-1.053-4.65.124-5.958,1.133-.088.066-1.023.972-1.462,1.418l-.088-.059a27.816,27.816,0,0,1,2.515-4.386c.519-.731,1.06-1.462,1.608-2.135a14.571,14.571,0,0,0,4,2.01,4.5,4.5,0,0,0,3.772-.768,2.193,2.193,0,0,0,.163-3.1,1.958,1.958,0,0,0-.163-.163c-1.4-1.206-4.635-.38-6.046.475-.08.051-.8.607-1.33,1.023.248-.3.5-.614.731-.892.914-1.06,1.82-1.967,2.625-2.771.468-.453.892-.855,1.294-1.221a14.614,14.614,0,0,0,4.459-.066,4.528,4.528,0,0,0,3-2.42,2.189,2.189,0,0,0-1.462-2.924c-1.8-.431-4.292,1.791-5.118,3.2-.073.124-1.016,2.193-.979,2.193h.036c-.395.351-.811.731-1.264,1.148-.826.782-1.755,1.681-2.7,2.72a41.088,41.088,0,0,0-2.88,3.509,28.911,28.911,0,0,0-2.632,4.343v.051c.081-.534.249-2.04.249-2.157,0-1.652-.98-4.847-2.741-5.41a2.193,2.193,0,0,0-2.718,1.495,2.354,2.354,0,0,0-.053.23,4.7,4.7,0,0,0,1.309,3.655,15.082,15.082,0,0,0,3.875,2.405,40.106,40.106,0,0,0-1.842,4.832c-.3.958-.577,1.938-.833,2.924.051-.468.095-.885.095-.943,0-1.652-.979-4.84-2.741-5.4a2.193,2.193,0,0,0-2.718,1.494q-.032.111-.053.224a4.7,4.7,0,0,0,1.309,3.655,13.719,13.719,0,0,0,3.758,2.347c-.095.38-.2.731-.292,1.133-.453,1.813-.9,3.655-1.4,5.388-.168.621-.365,1.228-.556,1.835.044-.409.081-.731.081-.812,0-1.652-.98-4.847-2.741-5.41a2.193,2.193,0,0,0-2.763,1.718,4.677,4.677,0,0,0,1.309,3.655,12.874,12.874,0,0,0,3.655,2.3c-.212.621-.424,1.235-.665,1.82-.168.4-.307.79-.5,1.184l-.541,1.155c-.373.731-.731,1.462-1.133,2.193-.263.49-.519.943-.782,1.411.183-.621.5-1.835.526-1.937a8.563,8.563,0,0,0-.607-4.248,2.69,2.69,0,0,0,0-.49,2.193,2.193,0,0,0-2.181-2.2,1.947,1.947,0,0,0-.238.012c-1.835.249-3.356,3.217-3.655,4.84,0,.1-.095,1.155-.124,1.828-.044-.395-.073-.782-.124-1.192-.08-.8-.19-1.608-.307-2.478-.066-.417-.139-.833-.212-1.257s-.183-.863-.27-1.294c-.227-1.009-.5-2.01-.812-3.019a14.454,14.454,0,0,0,4.291-1.009,4.548,4.548,0,0,0,2.406-3,2.193,2.193,0,0,0-1.837-2.5,2.116,2.116,0,0,0-.225-.022c-1.85,0-3.8,2.668-4.343,4.226,0,.1-.292,1.265-.424,1.908-.183-.607-.366-1.206-.578-1.813-.607-1.747-1.272-3.495-1.93-5.242-.2-.541-.395-1.074-.592-1.608a14.534,14.534,0,0,0,4.437-1.024,4.6,4.6,0,0,0,2.413-3,2.193,2.193,0,0,0-1.827-2.506,2.29,2.29,0,0,0-.234-.023c-1.849,0-3.809,2.668-4.343,4.233-.044.117-.409,1.8-.482,2.23-.431-1.185-.855-2.361-1.221-3.546a37.463,37.463,0,0,1-1.2-4.854,15,15,0,0,0,4.467-1.023,4.567,4.567,0,0,0,2.405-3,2.193,2.193,0,0,0-1.828-2.506,2.274,2.274,0,0,0-.234-.023c-1.85,0-3.8,2.668-4.335,4.233-.037.1-.322,1.382-.446,1.989h-.1a28.2,28.2,0,0,1-.307-5.022c0-.921.08-1.806.161-2.661a14.48,14.48,0,0,0,4.452-.534,4.546,4.546,0,0,0,2.719-2.72,2.193,2.193,0,0,0-1.549-2.687,2.092,2.092,0,0,0-.22-.047c-1.835-.241-4.072,2.193-4.781,3.728-.037.08-.337.95-.541,1.586.044-.387.08-.79.132-1.155.176-1.389.424-2.646.658-3.765.139-.629.271-1.2.4-1.733a13.472,13.472,0,0,0,3.656-2.508,4.817,4.817,0,0,0,1.162-3.655,2.193,2.193,0,0,0-2.61-1.676,2.061,2.061,0,0,0-.219.06c-1.74.636-2.588,3.867-2.529,5.512,0,.146.351,2.369.38,2.354h.036c-.139.512-.278,1.06-.424,1.66-.256,1.111-.533,2.369-.731,3.758a38.75,38.75,0,0,0-.468,4.511,28.584,28.584,0,0,0,.2,5.074.2.2,0,0,0,0,.059c-.234-.49-.921-1.842-.987-1.937-.914-1.374-3.487-3.5-5.271-3a2.193,2.193,0,0,0-1.438,2.747,2.152,2.152,0,0,0,.079.214A5.194,5.194,0,0,0,1140.275,1025.319Z" transform="translate(-851.928 -1002.077)" fill="#263238" opacity="0.3" style="isolation: isolate"/>
      <path id="Trazado_116840" data-name="Trazado 116840" d="M761.071,1034.848s-.731-1.7-.731-1.813c-.358-1.309-.278-4.05.994-4.876a1.8,1.8,0,0,1,2.478.572,1.688,1.688,0,0,1,.088.159,3.751,3.751,0,0,1-.249,3.158A12.572,12.572,0,0,1,761.071,1034.848Z" transform="translate(-750.603 -1009.018)" fill="#263238"/>
      <path id="Trazado_116841" data-name="Trazado 116841" d="M796.573,1030.256a12.977,12.977,0,0,1-3.655.892s.344-1.806.38-1.923c.431-1.287,2.01-3.524,3.524-3.517a1.8,1.8,0,0,1,1.709,1.884c0,.047-.007.094-.012.141A3.735,3.735,0,0,1,796.573,1030.256Z" transform="translate(-759.414 -1008.433)" fill="#263238"/>
      <path id="Trazado_116842" data-name="Trazado 116842" d="M784.314,1035.522a12.593,12.593,0,0,1-3.743-.1,32.016,32.016,0,0,1-.928,4.145c-.227.79-.482,1.587-.731,2.376.175-.344.329-.651.358-.687.731-1.133,2.866-2.873,4.328-2.464a1.806,1.806,0,0,1,1.14,2.285c-.018.051-.037.1-.058.149a3.774,3.774,0,0,1-2.537,1.886,11.973,11.973,0,0,1-3.655-.088c-.11.3-.212.607-.314.906-.512,1.462-1.023,2.924-1.462,4.328-.168.5-.307,1-.453,1.506l.314-.592c.731-1.133,2.866-2.88,4.328-2.464a1.792,1.792,0,0,1,1.119,2.435,3.774,3.774,0,0,1-2.537,1.886,11.491,11.491,0,0,1-3.538-.081c-.132.519-.271,1.046-.373,1.55-.066.351-.146.68-.19,1.038l-.154,1.038c-.073.665-.154,1.345-.2,2-.044.453-.073.885-.1,1.316.153-.5.482-1.462.519-1.564.57-1.228,2.4-3.275,3.9-3.085a1.8,1.8,0,0,1,1.462,2.237,3.742,3.742,0,0,1-2.193,2.252,12.477,12.477,0,0,1-3.655.461c-.051.731-.095,1.418-.124,2.076-.11,2.281-.11,4.189-.1,5.527l-1.024.132v-.117c0-1.353.059-3.282.219-5.593.044-.731.117-1.506.19-2.31a19.047,19.047,0,0,1-2.193-.731,13.273,13.273,0,0,1-2.756,2.325c.351.621.731,1.228,1.046,1.8,1.17,1.967,2.193,3.56,2.968,4.664l-1.126.139c-.731-1.1-1.623-2.573-2.625-4.35-.358-.636-.731-1.323-1.111-2.032a11.748,11.748,0,0,1-3.655.731,3.769,3.769,0,0,1-2.837-1.411,1.806,1.806,0,0,1,.513-2.5,1.758,1.758,0,0,1,.159-.094c1.367-.665,3.758.68,4.694,1.667.058.051.585.731.914,1.192-.153-.285-.307-.57-.46-.87-.307-.592-.592-1.191-.907-1.835l-.431-.965c-.146-.314-.263-.665-.4-1.009-.292-.789-.563-1.608-.811-2.434a11.738,11.738,0,0,1-3.392,1.25,3.762,3.762,0,0,1-3.012-.965,1.792,1.792,0,0,1,.11-2.531,1.991,1.991,0,0,1,.16-.13c1.25-.863,3.816.1,4.891.928.066.051.775.731,1.155,1.111-.146-.5-.292-.994-.424-1.506-.38-1.462-.731-2.968-1.053-4.467-.11-.453-.219-.914-.322-1.367a12.776,12.776,0,0,1-3.509,1.309,3.744,3.744,0,0,1-3.012-.965,1.8,1.8,0,0,1,.116-2.541,1.758,1.758,0,0,1,.147-.12c1.257-.863,3.823.1,4.9.928.08.066,1.089,1.045,1.338,1.309-.241-1.009-.483-2.01-.731-2.983a31.252,31.252,0,0,0-1.448-3.794,12.7,12.7,0,0,1-3.524,1.316,3.744,3.744,0,0,1-3.012-.965,1.792,1.792,0,0,1,.11-2.531,1.939,1.939,0,0,1,.16-.13c1.25-.863,3.816.1,4.891.928.066.059.841.8,1.2,1.162l.073-.044a23.173,23.173,0,0,0-2.062-3.582c-.431-.629-.877-1.2-1.323-1.755a12.013,12.013,0,0,1-3.29,1.652,3.758,3.758,0,0,1-3.1-.629,1.8,1.8,0,0,1-.136-2.54,1.7,1.7,0,0,1,.136-.136c1.148-.994,3.8-.314,4.964.388.058.037.658.5,1.089.841-.2-.249-.409-.5-.614-.731a22.71,22.71,0,0,0-2.193-2.281c-.38-.373-.731-.695-1.06-1a12.176,12.176,0,0,1-3.655-.051,3.751,3.751,0,0,1-2.456-1.989,1.8,1.8,0,0,1,1.206-2.39c1.462-.351,3.524,1.462,4.233,2.639.058.1.833,1.777.8,1.777h0c.329.285.673.592,1.045.943a29.236,29.236,0,0,1,2.193,2.237,28.813,28.813,0,0,1,2.369,2.88,23.45,23.45,0,0,1,2.193,3.56v.051c-.066-.446-.2-1.682-.2-1.777,0-1.36.8-3.977,2.252-4.445a1.8,1.8,0,0,1,2.229,1.225,1.77,1.77,0,0,1,.045.193,3.773,3.773,0,0,1-1.1,2.99,12.238,12.238,0,0,1-3.18,1.974,32.086,32.086,0,0,1,1.513,3.97c.249.79.468,1.587.687,2.4-.044-.387-.08-.731-.08-.775,0-1.36.8-3.977,2.252-4.445a1.805,1.805,0,0,1,2.233,1.24,1.686,1.686,0,0,1,.041.178,3.772,3.772,0,0,1-1.075,2.975,11.907,11.907,0,0,1-3.085,1.93l.241.928c.373,1.462.731,2.983,1.141,4.43.146.512.307,1.009.461,1.506a4.8,4.8,0,0,0-.066-.673c0-1.352.8-3.977,2.252-4.437a1.8,1.8,0,0,1,2.213,1.254c.012.044.023.09.031.135a3.764,3.764,0,0,1-1.075,2.976,11.48,11.48,0,0,1-3,1.894c.175.5.351,1.009.548,1.462.139.329.249.651.409.972s.3.636.446.95c.307.592.621,1.206.936,1.777.212.4.424.775.636,1.155-.146-.5-.417-1.506-.431-1.594a7.061,7.061,0,0,1,.5-3.487,2.392,2.392,0,0,1,0-.395,1.8,1.8,0,0,1,1.8-1.8,1.686,1.686,0,0,1,.193.01c1.506.2,2.756,2.639,3,3.97,0,.08.073.95.1,1.506a9.036,9.036,0,0,1,.1-.98c.073-.665.161-1.323.256-2.032l.176-1.038c.051-.351.146-.731.219-1.068.19-.826.417-1.652.673-2.478a11.676,11.676,0,0,1-3.524-.826,3.772,3.772,0,0,1-1.952-2.442,1.791,1.791,0,0,1,1.49-2.048,1.837,1.837,0,0,1,.206-.02c1.521,0,3.122,2.193,3.568,3.473,0,.08.234,1.038.344,1.564.154-.5.307-.994.475-1.462.5-1.462,1.045-2.873,1.586-4.306.168-.439.329-.877.49-1.323a11.84,11.84,0,0,1-3.655-.841,3.759,3.759,0,0,1-2-2.5,1.806,1.806,0,0,1,1.513-2.058,1.71,1.71,0,0,1,.183-.018c1.521,0,3.122,2.193,3.568,3.473,0,.1.336,1.462.395,1.828.358-.965.731-1.937,1-2.924a30.321,30.321,0,0,0,.987-3.955,12.281,12.281,0,0,1-3.655-.841,3.776,3.776,0,0,1-1.981-2.471,1.805,1.805,0,0,1,1.513-2.058,1.65,1.65,0,0,1,.183-.019c1.521,0,3.129,2.193,3.568,3.48,0,.08.263,1.133.358,1.637h.095a22.823,22.823,0,0,0,.249-4.123c0-.731-.066-1.462-.132-2.193a12.394,12.394,0,0,1-3.655-.438,3.784,3.784,0,0,1-2.237-2.237,1.8,1.8,0,0,1,1.27-2.2,1.758,1.758,0,0,1,.192-.04c1.506-.2,3.348,1.835,3.926,3.063,0,.066.278.775.453,1.3a6.88,6.88,0,0,0-.11-.95c-.146-1.141-.351-2.193-.541-3.093-.117-.519-.227-.987-.336-1.418a12.194,12.194,0,0,1-3.027-2.062,3.79,3.79,0,0,1-.95-3.019,1.8,1.8,0,0,1,2.147-1.363c.051.012.1.025.148.04,1.462.519,2.127,3.173,2.076,4.525,0,.124-.285,1.945-.314,1.93h0c.117.424.234.87.351,1.36.212.914.439,1.952.614,3.093a30.912,30.912,0,0,1,.38,3.707,23.759,23.759,0,0,1-.161,4.167v.051c.19-.4.731-1.513.812-1.594.731-1.133,2.866-2.873,4.328-2.464a1.8,1.8,0,0,1,1.151,2.268c-.016.049-.034.1-.054.145A3.757,3.757,0,0,1,784.314,1035.522Z" transform="translate(-747.089 -1005.92)" fill="#263238"/>
      <path id="Trazado_116843" data-name="Trazado 116843" d="M796.573,1030.256a12.977,12.977,0,0,1-3.655.892s.344-1.806.38-1.923c.431-1.287,2.01-3.524,3.524-3.517a1.8,1.8,0,0,1,1.709,1.884c0,.047-.007.094-.012.141A3.735,3.735,0,0,1,796.573,1030.256Z" transform="translate(-759.414 -1008.433)" fill="#263238" opacity="0.3" style="isolation: isolate"/>
      <path id="Trazado_116844" data-name="Trazado 116844" d="M761.071,1034.848s-.731-1.7-.731-1.813c-.358-1.309-.278-4.05.994-4.876a1.8,1.8,0,0,1,2.478.572,1.688,1.688,0,0,1,.088.159,3.751,3.751,0,0,1-.249,3.158A12.572,12.572,0,0,1,761.071,1034.848Z" transform="translate(-750.603 -1009.018)" fill="#263238" opacity="0.3" style="isolation: isolate"/>
      <path id="Trazado_116845" data-name="Trazado 116845" d="M784.314,1035.522a12.593,12.593,0,0,1-3.743-.1,32.016,32.016,0,0,1-.928,4.145c-.227.79-.482,1.587-.731,2.376.175-.344.329-.651.358-.687.731-1.133,2.866-2.873,4.328-2.464a1.806,1.806,0,0,1,1.14,2.285c-.018.051-.037.1-.058.149a3.774,3.774,0,0,1-2.537,1.886,11.973,11.973,0,0,1-3.655-.088c-.11.3-.212.607-.314.906-.512,1.462-1.023,2.924-1.462,4.328-.168.5-.307,1-.453,1.506l.314-.592c.731-1.133,2.866-2.88,4.328-2.464a1.792,1.792,0,0,1,1.119,2.435,3.774,3.774,0,0,1-2.537,1.886,11.491,11.491,0,0,1-3.538-.081c-.132.519-.271,1.046-.373,1.55-.066.351-.146.68-.19,1.038l-.154,1.038c-.073.665-.154,1.345-.2,2-.044.453-.073.885-.1,1.316.153-.5.482-1.462.519-1.564.57-1.228,2.4-3.275,3.9-3.085a1.8,1.8,0,0,1,1.462,2.237,3.742,3.742,0,0,1-2.193,2.252,12.477,12.477,0,0,1-3.655.461c-.051.731-.095,1.418-.124,2.076-.11,2.281-.11,4.189-.1,5.527l-1.024.132v-.117c0-1.353.059-3.282.219-5.593.044-.731.117-1.506.19-2.31a19.047,19.047,0,0,1-2.193-.731,13.273,13.273,0,0,1-2.756,2.325c.351.621.731,1.228,1.046,1.8,1.17,1.967,2.193,3.56,2.968,4.664l-1.126.139c-.731-1.1-1.623-2.573-2.625-4.35-.358-.636-.731-1.323-1.111-2.032a11.748,11.748,0,0,1-3.655.731,3.769,3.769,0,0,1-2.837-1.411,1.806,1.806,0,0,1,.513-2.5,1.758,1.758,0,0,1,.159-.094c1.367-.665,3.758.68,4.694,1.667.058.051.585.731.914,1.192-.153-.285-.307-.57-.46-.87-.307-.592-.592-1.191-.907-1.835l-.431-.965c-.146-.314-.263-.665-.4-1.009-.292-.789-.563-1.608-.811-2.434a11.738,11.738,0,0,1-3.392,1.25,3.762,3.762,0,0,1-3.012-.965,1.792,1.792,0,0,1,.11-2.531,1.991,1.991,0,0,1,.16-.13c1.25-.863,3.816.1,4.891.928.066.051.775.731,1.155,1.111-.146-.5-.292-.994-.424-1.506-.38-1.462-.731-2.968-1.053-4.467-.11-.453-.219-.914-.322-1.367a12.776,12.776,0,0,1-3.509,1.309,3.744,3.744,0,0,1-3.012-.965,1.8,1.8,0,0,1,.116-2.541,1.758,1.758,0,0,1,.147-.12c1.257-.863,3.823.1,4.9.928.08.066,1.089,1.045,1.338,1.309-.241-1.009-.483-2.01-.731-2.983a31.252,31.252,0,0,0-1.448-3.794,12.7,12.7,0,0,1-3.524,1.316,3.744,3.744,0,0,1-3.012-.965,1.792,1.792,0,0,1,.11-2.531,1.939,1.939,0,0,1,.16-.13c1.25-.863,3.816.1,4.891.928.066.059.841.8,1.2,1.162l.073-.044a23.173,23.173,0,0,0-2.062-3.582c-.431-.629-.877-1.2-1.323-1.755a12.013,12.013,0,0,1-3.29,1.652,3.758,3.758,0,0,1-3.1-.629,1.8,1.8,0,0,1-.136-2.54,1.7,1.7,0,0,1,.136-.136c1.148-.994,3.8-.314,4.964.388.058.037.658.5,1.089.841-.2-.249-.409-.5-.614-.731a22.71,22.71,0,0,0-2.193-2.281c-.38-.373-.731-.695-1.06-1a12.176,12.176,0,0,1-3.655-.051,3.751,3.751,0,0,1-2.456-1.989,1.8,1.8,0,0,1,1.206-2.39c1.462-.351,3.524,1.462,4.233,2.639.058.1.833,1.777.8,1.777h0c.329.285.673.592,1.045.943a29.236,29.236,0,0,1,2.193,2.237,28.813,28.813,0,0,1,2.369,2.88,23.45,23.45,0,0,1,2.193,3.56v.051c-.066-.446-.2-1.682-.2-1.777,0-1.36.8-3.977,2.252-4.445a1.8,1.8,0,0,1,2.229,1.225,1.77,1.77,0,0,1,.045.193,3.773,3.773,0,0,1-1.1,2.99,12.238,12.238,0,0,1-3.18,1.974,32.086,32.086,0,0,1,1.513,3.97c.249.79.468,1.587.687,2.4-.044-.387-.08-.731-.08-.775,0-1.36.8-3.977,2.252-4.445a1.805,1.805,0,0,1,2.233,1.24,1.686,1.686,0,0,1,.041.178,3.772,3.772,0,0,1-1.075,2.975,11.907,11.907,0,0,1-3.085,1.93l.241.928c.373,1.462.731,2.983,1.141,4.43.146.512.307,1.009.461,1.506a4.8,4.8,0,0,0-.066-.673c0-1.352.8-3.977,2.252-4.437a1.8,1.8,0,0,1,2.213,1.254c.012.044.023.09.031.135a3.764,3.764,0,0,1-1.075,2.976,11.48,11.48,0,0,1-3,1.894c.175.5.351,1.009.548,1.462.139.329.249.651.409.972s.3.636.446.95c.307.592.621,1.206.936,1.777.212.4.424.775.636,1.155-.146-.5-.417-1.506-.431-1.594a7.061,7.061,0,0,1,.5-3.487,2.392,2.392,0,0,1,0-.395,1.8,1.8,0,0,1,1.8-1.8,1.686,1.686,0,0,1,.193.01c1.506.2,2.756,2.639,3,3.97,0,.08.073.95.1,1.506a9.036,9.036,0,0,1,.1-.98c.073-.665.161-1.323.256-2.032l.176-1.038c.051-.351.146-.731.219-1.068.19-.826.417-1.652.673-2.478a11.676,11.676,0,0,1-3.524-.826,3.772,3.772,0,0,1-1.952-2.442,1.791,1.791,0,0,1,1.49-2.048,1.837,1.837,0,0,1,.206-.02c1.521,0,3.122,2.193,3.568,3.473,0,.08.234,1.038.344,1.564.154-.5.307-.994.475-1.462.5-1.462,1.045-2.873,1.586-4.306.168-.439.329-.877.49-1.323a11.84,11.84,0,0,1-3.655-.841,3.759,3.759,0,0,1-2-2.5,1.806,1.806,0,0,1,1.513-2.058,1.71,1.71,0,0,1,.183-.018c1.521,0,3.122,2.193,3.568,3.473,0,.1.336,1.462.395,1.828.358-.965.731-1.937,1-2.924a30.321,30.321,0,0,0,.987-3.955,12.281,12.281,0,0,1-3.655-.841,3.776,3.776,0,0,1-1.981-2.471,1.805,1.805,0,0,1,1.513-2.058,1.65,1.65,0,0,1,.183-.019c1.521,0,3.129,2.193,3.568,3.48,0,.08.263,1.133.358,1.637h.095a22.823,22.823,0,0,0,.249-4.123c0-.731-.066-1.462-.132-2.193a12.394,12.394,0,0,1-3.655-.438,3.784,3.784,0,0,1-2.237-2.237,1.8,1.8,0,0,1,1.27-2.2,1.758,1.758,0,0,1,.192-.04c1.506-.2,3.348,1.835,3.926,3.063,0,.066.278.775.453,1.3a6.88,6.88,0,0,0-.11-.95c-.146-1.141-.351-2.193-.541-3.093-.117-.519-.227-.987-.336-1.418a12.194,12.194,0,0,1-3.027-2.062,3.79,3.79,0,0,1-.95-3.019,1.8,1.8,0,0,1,2.147-1.363c.051.012.1.025.148.04,1.462.519,2.127,3.173,2.076,4.525,0,.124-.285,1.945-.314,1.93h0c.117.424.234.87.351,1.36.212.914.439,1.952.614,3.093a30.912,30.912,0,0,1,.38,3.707,23.759,23.759,0,0,1-.161,4.167v.051c.19-.4.731-1.513.812-1.594.731-1.133,2.866-2.873,4.328-2.464a1.8,1.8,0,0,1,1.151,2.268c-.016.049-.034.1-.054.145A3.757,3.757,0,0,1,784.314,1035.522Z" transform="translate(-747.089 -1005.92)" fill="#263238" opacity="0.3" style="isolation: isolate"/>
    </g>
    <g id="freepik--character-3--inject-108" transform="translate(911.37 705.973)">
      <ellipse id="Elipse_5376" data-name="Elipse 5376" cx="6.58" cy="6.945" rx="6.58" ry="6.945" transform="translate(13.357 16.687)" fill="#263238" stroke="#263238" stroke-linecap="round" stroke-linejoin="round" stroke-width="1"/>
      <path id="Trazado_116846" data-name="Trazado 116846" d="M999.248,980.982s.241,21.932,2.676,34.36,4.876,27.781,4.876,27.781-2.434,9.5-3.165,9.986-5.607,3.414-4.145,4.635,15.594,0,15.594,0a6.122,6.122,0,0,0,1.221-5.117c-.49-3.407-.241-14.87-.241-14.87s1.462-39.96,1.462-46.057V979.271l-18.766-1.462Z" transform="translate(-980.284 -795.477)" fill="#ffbea7" stroke="#263238" stroke-linecap="round" stroke-linejoin="round" stroke-width="1"/>
      <path id="Trazado_116847" data-name="Trazado 116847" d="M1016.472,1077.159a78.171,78.171,0,0,1-.307-8.13c-.826,2.6-2.515,7.1-4.569,8.13-2.924,1.462-7.793.482-7.793.482-.731.49-5.607,3.414-4.145,4.635s15.594,0,15.594,0A6.123,6.123,0,0,0,1016.472,1077.159Z" transform="translate(-980.453 -820.009)" fill="#263238" stroke="#263238" stroke-linecap="round" stroke-linejoin="round" stroke-width="1"/>
      <path id="Trazado_116848" data-name="Trazado 116848" d="M1049.365,980.982s-.241,21.932-2.676,34.36-4.876,27.781-4.876,27.781,2.434,9.5,3.166,9.986,5.607,3.414,4.145,4.635-15.594,0-15.594,0a6.122,6.122,0,0,1-1.221-5.117c.49-3.407.241-14.87.241-14.87s-1.462-39.96-1.462-46.057V979.271l18.767-1.462Z" transform="translate(-988.979 -795.477)" fill="#ffbea7" stroke="#263238" stroke-linecap="round" stroke-linejoin="round" stroke-width="1"/>
      <path id="Trazado_116849" data-name="Trazado 116849" d="M1032.726,1077.159a78.171,78.171,0,0,0,.307-8.13c.826,2.6,2.515,7.1,4.569,8.13,2.924,1.462,7.793.482,7.793.482.731.49,5.607,3.414,4.145,4.635s-15.594,0-15.594,0A6.123,6.123,0,0,1,1032.726,1077.159Z" transform="translate(-989.395 -820.009)" fill="#263238" stroke="#263238" stroke-linecap="round" stroke-linejoin="round" stroke-width="1"/>
      <path id="Trazado_116850" data-name="Trazado 116850" d="M990.99,865.479s-7.311,19.008-9.5,33.388-9.263,42.153-7.8,44.105,5.607,2.434,5.607,2.434l-.249,3.9s8.042,3.407,15.842,3.655,14.131-1.952,18.518-.979,17.794,1.952,21.2,0,7.311-3.655,7.559-4.628a15.409,15.409,0,0,0,0-3.414l3.655-1.7s-.979-25.346-3.414-39.967-6.09-26.8-7.8-31.187-8.042-5.366-8.042-5.366Z" transform="translate(-973.488 -765.267)" fill="#263238" stroke="#263238" stroke-linecap="round" stroke-linejoin="round" stroke-width="1"/>
      <line id="Línea_332" data-name="Línea 332" y1="25.587" x2="1.945" transform="translate(5.805 154.552)" fill="none" stroke="#263238" stroke-linecap="round" stroke-linejoin="round" stroke-width="1"/>
      <line id="Línea_333" data-name="Línea 333" x1="4.386" y1="33.38" transform="translate(64.29 145.296)" fill="none" stroke="#263238" stroke-linecap="round" stroke-linejoin="round" stroke-width="1"/>
      <path id="Trazado_116851" data-name="Trazado 116851" d="M1004.728,778.729l-1.1,10.418s-20.653,8.407-21.384,9.5,12.611,45.326,12.611,45.326,6.58,4.752,18.459,4.569,18.642-6.214,18.642-6.214,7.493-43.681,6.214-46.24-20.47-8.042-20.47-8.042l-.366-7.859Z" transform="translate(-975.836 -741.937)" fill="#eea0c2" stroke="#263238" stroke-linecap="round" stroke-linejoin="round" stroke-width="1"/>
      <path id="Trazado_116852" data-name="Trazado 116852" d="M1017.364,813.164l12.231-23.928c-3.114-.987-5.468-1.66-5.468-1.66l-.366-7.859-14.153-2.749.446,11.7s-1.616.658-3.955,1.63Z" transform="translate(-982.258 -741.464)" fill="#ffbea7" stroke="#263238" stroke-linecap="round" stroke-linejoin="round" stroke-width="1"/>
      <path id="Trazado_116853" data-name="Trazado 116853" d="M1025.285,784.8l-.234-5.117-14.153-2.749.11,2.924c1.565,2.032,5.264,6.492,8.21,7.311C1021.191,787.741,1023.509,786.316,1025.285,784.8Z" transform="translate(-983.549 -741.453)" fill="#263238" stroke="#263238" stroke-linecap="round" stroke-linejoin="round" stroke-width="1"/>
      <path id="Trazado_116854" data-name="Trazado 116854" d="M1003.277,754.229s-.1-.249-.271-.592c-.592-1.214-2.025-3.655-3.019-1.236a6.375,6.375,0,0,0,1.462,6.945,2.581,2.581,0,0,0,2.924.731,72.316,72.316,0,0,0,6.214,9.138c2.741,3.107,8.042,3.655,10.235,1.279s4.825-4.152,5.922-10c.249-1.309.2-3.889.373-5.366a76.808,76.808,0,0,0,.468-13.693c-.366-3.838-2.742-9.5-7.128-11.88s-12.977-1.1-17,4.021-5.117,10.6-3.473,13.159a24.092,24.092,0,0,1,2.193,4.021Z" transform="translate(-980.417 -728.403)" fill="#ffbea7" stroke="#263238" stroke-linecap="round" stroke-linejoin="round" stroke-width="1"/>
      <path id="Trazado_116855" data-name="Trazado 116855" d="M1000.808,760.15l2.888,2.529s-.1-.249-.271-.592C1002.906,761.034,1001.751,759.046,1000.808,760.15Z" transform="translate(-980.835 -736.854)" fill="#fff" stroke="#263238" stroke-linecap="round" stroke-linejoin="round" stroke-width="1"/>
      <path id="Trazado_116856" data-name="Trazado 116856" d="M1020.457,729.555c-4.386-2.376-12.977-1.1-17,4.021s-5.117,10.6-3.473,13.159a24.092,24.092,0,0,1,2.193,4.021l1.1,3.473s0-4.569.731-6.4,4.021-10.418,13.159-10.6,8.956,8.59,9.87,10.783a3.449,3.449,0,0,0,.585.914,57.618,57.618,0,0,0-.036-7.493C1027.22,737.6,1024.844,731.931,1020.457,729.555Z" transform="translate(-980.417 -728.403)" fill="#263238" stroke="#263238" stroke-linecap="round" stroke-linejoin="round" stroke-width="1"/>
      <path id="Trazado_116857" data-name="Trazado 116857" d="M1027.474,760.229s-.365,3.655.366,4.021,2.376.548,2.01,1.828-2.01,1.645-2.01,1.645" transform="translate(-987.982 -736.962)" fill="none" stroke="#263238" stroke-linecap="round" stroke-linejoin="round" stroke-width="1"/>
      <path id="Trazado_116858" data-name="Trazado 116858" d="M1018.258,772.729s1.279,2.741,6.58,2.559" transform="translate(-985.528 -740.324)" fill="none" stroke="#263238" stroke-linecap="round" stroke-linejoin="round" stroke-width="1"/>
      <path id="Trazado_116859" data-name="Trazado 116859" d="M1012.758,762.533a5.59,5.59,0,0,1,5.117.183" transform="translate(-984.049 -737.439)" fill="none" stroke="#263238" stroke-linecap="round" stroke-linejoin="round" stroke-width="1"/>
      <path id="Trazado_116860" data-name="Trazado 116860" d="M1029.258,762.569s2.741-1.279,4.386.548" transform="translate(-988.486 -737.474)" fill="none" stroke="#263238" stroke-linecap="round" stroke-linejoin="round" stroke-width="1"/>
      <path id="Trazado_116861" data-name="Trazado 116861" d="M1012.258,756.331a5.219,5.219,0,0,1,6.762-.914" transform="translate(-983.914 -735.44)" fill="none" stroke="#263238" stroke-linecap="round" stroke-linejoin="round" stroke-width="1"/>
      <path id="Trazado_116862" data-name="Trazado 116862" d="M1028.758,756.3s3.655-2.742,5.848.183" transform="translate(-988.352 -735.592)" fill="none" stroke="#263238" stroke-linecap="round" stroke-linejoin="round" stroke-width="1"/>
      <path id="Trazado_116863" data-name="Trazado 116863" d="M986.384,803.229s-6.945,2.01-7.128,3.107,4.386,34.543,4.386,34.543-2.376,2.193-1.462,3.473,2.924,3.838,2.924,3.838a2.663,2.663,0,0,0,.731,2.742c1.279,1.1,4.935,14.987,8.59,21.566a80.1,80.1,0,0,0,8.224,11.88s2.559,4.752,4.386,6.031,3.107,2.376,4.2,1.828,2.193-4.935,2.376-7.676-5.666-6.214-6.4-6.58a18.569,18.569,0,0,1-2.559-2.193s-4.935-10.418-5.849-15.535-3.29-12.976-3.29-12.976a23.258,23.258,0,0,0,1.279-3.838c0-.731-2.01-2.559-2.01-3.29v-5.483l-1.645-19.008" transform="translate(-975.038 -748.526)" fill="#eea0c2" stroke="#263238" stroke-linecap="round" stroke-linejoin="round" stroke-width="1"/>
      <path id="Trazado_116864" data-name="Trazado 116864" d="M1010.252,896.022a18.577,18.577,0,0,1-2.559-2.193s-4.935-10.418-5.849-15.535c-.4-2.244-1.082-5.015-1.725-7.42a9.489,9.489,0,0,0-9.591,1.806c1.747,4.847,4.335,13.159,6.93,17.86a80.1,80.1,0,0,0,8.224,11.88s2.559,4.752,4.386,6.031,3.107,2.376,4.2,1.828,2.193-4.935,2.376-7.676S1010.983,896.388,1010.252,896.022Z" transform="translate(-978.071 -766.568)" fill="#ffbea7" stroke="#263238" stroke-linecap="round" stroke-linejoin="round" stroke-width="1"/>
      <path id="Trazado_116865" data-name="Trazado 116865" d="M989.508,862.193s4.569-3.107,7.676-1.828" transform="translate(-977.796 -763.809)" fill="none" stroke="#263238" stroke-linecap="round" stroke-linejoin="round" stroke-width="1"/>
      <path id="Trazado_116866" data-name="Trazado 116866" d="M985.508,859.436s5.849-4.2,9.5-2.376" transform="translate(-976.721 -762.879)" fill="none" stroke="#263238" stroke-linecap="round" stroke-linejoin="round" stroke-width="1"/>
      <path id="Trazado_116867" data-name="Trazado 116867" d="M1040.813,815.447l-1.462,25.4s-2.924,4.021-2.559,5.117a8.694,8.694,0,0,1,.365,2.376l-1.645,2.01-10.235,27.232s-4.386,3.107-4.569,3.838-1.828,5.666-1.828,6.762-.365,1.1.914,1.1,2.742-4.021,2.742-4.021l-.548,4.752a23.425,23.425,0,0,1-3.29.731c-.731,0,1.1,2.559,4.021,2.193s4.752-1.645,5.666-4.569,2.193-11.7,2.193-11.7,17-22.3,18.642-25.039,2.193-5.3,2.01-6.58a7.358,7.358,0,0,1,.365-3.838c.548-1.828.731-3.473.365-4.021s.731-18.46.183-24.673-2.193-9.321-4.2-10.783a15.282,15.282,0,0,0-5.483-2.01" transform="translate(-985.603 -747.585)" fill="#eea0c2" stroke="#263238" stroke-linecap="round" stroke-linejoin="round" stroke-width="1"/>
      <path id="Trazado_116868" data-name="Trazado 116868" d="M1035.322,869.539l-10.074,26.794s-4.386,3.107-4.569,3.838-1.828,5.666-1.828,6.762-.365,1.1.914,1.1,2.742-4.021,2.742-4.021l-.548,4.752a23.428,23.428,0,0,1-3.29.731c-.731,0,1.1,2.559,4.021,2.193s4.752-1.645,5.666-4.569,2.193-11.7,2.193-11.7,10.725-14.066,15.959-21.2C1043.5,869.3,1038.071,869.217,1035.322,869.539Z" transform="translate(-985.595 -766.33)" fill="#ffbea7" stroke="#263238" stroke-linecap="round" stroke-linejoin="round" stroke-width="1"/>
      <path id="Trazado_116869" data-name="Trazado 116869" d="M1046.758,864.1s5.117-2.742,8.773.731" transform="translate(-993.193 -764.62)" fill="none" stroke="#263238" stroke-linecap="round" stroke-linejoin="round" stroke-width="1"/>
      <path id="Trazado_116870" data-name="Trazado 116870" d="M1055.848,859.2s-5.3-.731-8.59,2.193" transform="translate(-993.327 -763.557)" fill="none" stroke="#263238" stroke-linecap="round" stroke-linejoin="round" stroke-width="1"/>
    </g>
    <g id="freepik--character-4--inject-108" transform="translate(970.164 717.297)">
      <path id="Trazado_116871" data-name="Trazado 116871" d="M1071.956,1043.149l-1.462,20.221s-6.821,6.579-8.283,7.559-7.8,1.7-6.821,3.655,5.118,1.7,5.118,1.7h19.008a9.047,9.047,0,0,0,.731-5.359c-.49-3.173-.98-9.022-.98-9.022l3.655-18.277Z" transform="translate(-1054.281 -824.372)" fill="#ffbea7" stroke="#263238" stroke-linecap="round" stroke-linejoin="round" stroke-width="1"/>
      <path id="Trazado_116872" data-name="Trazado 116872" d="M1060.508,1083.176h19.008a9.047,9.047,0,0,0,.731-5.359c-.124-.775-.241-1.711-.351-2.683h-7.208s-.483-2.434-.731-5.117c-.117-1.294-.731-1.389-1.36-1.155l-.1,1.4s-6.821,6.58-8.283,7.559-7.8,1.7-6.821,3.655S1060.508,1083.176,1060.508,1083.176Z" transform="translate(-1054.281 -831.26)" fill="#fff" stroke="#263238" stroke-linecap="round" stroke-linejoin="round" stroke-width="1"/>
      <path id="Trazado_116873" data-name="Trazado 116873" d="M1125.428,1044.479l2.435,26.56s1.221,7.311,2.683,7.559,7.311,1.214,8.283-1.952-3.9-12.918-3.9-12.918l1.945-19.249Z" transform="translate(-1073.144 -824.73)" fill="#ffbea7" stroke="#263238" stroke-linecap="round" stroke-linejoin="round" stroke-width="1"/>
      <path id="Trazado_116874" data-name="Trazado 116874" d="M1128.591,1077.742s1.221,7.311,2.683,7.559,7.311,1.214,8.283-1.952-3.9-12.918-3.9-12.918-2.442-1.945-3.655-.483a13.169,13.169,0,0,0-1.952,3.655l-1.916-.8Z" transform="translate(-1073.873 -831.433)" fill="#fff" stroke="#263238" stroke-linecap="round" stroke-linejoin="round" stroke-width="1"/>
      <path id="Trazado_116875" data-name="Trazado 116875" d="M1075.548,902.479a183.237,183.237,0,0,0-1.462,24.615c0,14.863,1.221,76.272,1.221,76.272l14.131-.49L1097,936.6l1.7,2.434,9.994,63.844s3.655,1.952,6.09,1.952,9.5-2.193,9.5-2.193-.973-73.107-.731-77.252-1.221-16.325-1.221-16.325-6.821,1.952-18.518.241-18.518-4.138-20.47-5.118S1075.548,902.479,1075.548,902.479Z" transform="translate(-1059.335 -786.541)" fill="#263238" stroke="#263238" stroke-linecap="round" stroke-linejoin="round" stroke-width="1"/>
      <line id="Línea_334" data-name="Línea 334" y1="4.021" x2="9.869" transform="translate(33.883 146.642)" fill="none" stroke="gray" stroke-linecap="round" stroke-linejoin="round" stroke-width="1"/>
      <path id="Trazado_116876" data-name="Trazado 116876" d="M1081.51,913.479a28.433,28.433,0,0,1-4.752,10.6" transform="translate(-1060.055 -789.5)" fill="none" stroke="gray" stroke-linecap="round" stroke-linejoin="round" stroke-width="1"/>
      <path id="Trazado_116877" data-name="Trazado 116877" d="M1130.258,917.979a19.852,19.852,0,0,0,6.58,9.138" transform="translate(-1074.443 -790.71)" fill="none" stroke="gray" stroke-linecap="round" stroke-linejoin="round" stroke-width="1"/>
      <path id="Trazado_116878" data-name="Trazado 116878" d="M1098.672,799.209s-22.751,7.048-23.343,8.517-19.461,36.407-18.145,37.438,13.744.285,14.329,0,5.724-13.357,5.724-13.357-.292,13.8-.292,14.819,0,8.042-2.639,13.364-4.555,15.557-4.555,16.727v1.908s15.564,9.972,27.452,8.363a133.642,133.642,0,0,0,21.281-4.7s-.439-9.094-1.616-13.357-3.655-18.05-3.655-19.52,1.908-4.255,2.054-4.7,6.755-23.336,6.755-23.336l5.578,18.788,9.54-1.462s-3.085-29.06-4.993-30.7-24.805-7.632-24.805-7.632Z" transform="translate(-1054.773 -758.769)" fill="#fff"/>
      <path id="Trazado_116879" data-name="Trazado 116879" d="M1071.513,861.166a11.044,11.044,0,0,0,1.236-2.427h-14.958c-.555,1.4-.8,2.281-.607,2.434C1058.508,862.2,1070.928,861.473,1071.513,861.166Z" transform="translate(-1054.774 -774.778)" fill="#36c"/>
      <path id="Trazado_116880" data-name="Trazado 116880" d="M1080.951,878.859a20.758,20.758,0,0,1-1.038,2.544,35.255,35.255,0,0,0-1.945,5.044h43.594c-.482-2.281-1.016-5.03-1.462-7.588Z" transform="translate(-1060.38 -780.189)" fill="#36c"/>
      <path id="Trazado_116881" data-name="Trazado 116881" d="M1122.179,898.979h-46.956a38.206,38.206,0,0,0-.775,4.562v1.908s.695.446,1.879,1.119h46.693C1122.837,904.513,1122.574,901.538,1122.179,898.979Z" transform="translate(-1059.434 -785.6)" fill="#36c"/>
      <path id="Trazado_116882" data-name="Trazado 116882" d="M1123.066,858.739h-38.82c-.044,2-.073,3.575-.073,3.889s0,1.828-.175,3.706h36.517c-.051-.431-.088-.731-.088-.914,0-1.462,1.908-4.255,2.054-4.7C1122.511,860.647,1122.73,859.9,1123.066,858.739Z" transform="translate(-1062.002 -774.778)" fill="#36c"/>
      <path id="Trazado_116883" data-name="Trazado 116883" d="M1119.34,846.217c.731-2.529,1.506-5.227,2.193-7.589h-55.269c-1.345,2.639-2.654,5.242-3.787,7.589h14.68c.87-2.149,1.521-3.816,1.521-3.816s0,1.63-.08,3.816Z" transform="translate(-1056.215 -769.37)" fill="#36c"/>
      <path id="Trazado_116884" data-name="Trazado 116884" d="M1106.414,799.209s-14.285,4.43-20.507,7h49.464c-7.208-2.376-20.3-5.848-20.3-5.848Z" transform="translate(-1062.516 -758.769)" fill="#36c"/>
      <path id="Trazado_116885" data-name="Trazado 116885" d="M1076.63,818.479c-1.133,2.193-2.508,4.781-3.962,7.589h66.41c-.395-2.756-.819-5.41-1.228-7.589Z" transform="translate(-1058.955 -763.951)" fill="#36c"/>
      <path id="Trazado_116886" data-name="Trazado 116886" d="M1148.578,838.629l2.252,7.589h10.549c-.219-1.945-.534-4.635-.906-7.589Z" transform="translate(-1079.37 -769.37)" fill="#36c"/>
      <path id="Trazado_116887" data-name="Trazado 116887" d="M1098.672,799.209s-22.751,7.048-23.343,8.517-19.461,36.407-18.145,37.438,13.744.285,14.329,0,5.724-13.357,5.724-13.357-.292,13.8-.292,14.819,0,8.042-2.639,13.364-4.555,15.557-4.555,16.727v1.908s15.564,9.972,27.452,8.363a133.642,133.642,0,0,0,21.281-4.7s-.439-9.094-1.616-13.357-3.655-18.05-3.655-19.52,1.908-4.255,2.054-4.7,6.755-23.336,6.755-23.336l5.578,18.788,9.54-1.462s-3.085-29.06-4.993-30.7-24.805-7.632-24.805-7.632Z" transform="translate(-1054.773 -758.769)" fill="none" stroke="#263238" stroke-linecap="round" stroke-linejoin="round" stroke-width="1"/>
      <path id="Trazado_116888" data-name="Trazado 116888" d="M1115.326,784.759l-3.377,11.887,4.109,13.5,8.363-11.887,3.67-6.6Z" transform="translate(-1069.519 -754.882)" fill="#ff9a79" stroke="#263238" stroke-linecap="round" stroke-linejoin="round" stroke-width="1"/>
      <path id="Trazado_116889" data-name="Trazado 116889" d="M1115.5,787.189l-1.023,3.6.387,2.069a16.43,16.43,0,0,0,4.225,6.514,10.871,10.871,0,0,0,4.226,2.083l1.791-2.544,3.3-5.936Z" transform="translate(-1070.199 -755.536)" fill="#263238" stroke="#263238" stroke-linecap="round" stroke-linejoin="round" stroke-width="1"/>
      <path id="Trazado_116890" data-name="Trazado 116890" d="M1114.06,762.349a25.132,25.132,0,0,1-.928-6.806c-.154-4.613.775-8.824,2.325-8.042s1.236,3.246,1.236,3.246a10.446,10.446,0,0,1,9.284-6.806c7.274-.461,5.256,2.478,5.256,2.478s11.609-.929,15.63,4.021,3.246,9.745,2.193,9.745h-2.318s3.56,10.374.928,12.384-7.427-5.117-7.427-5.117-.621,2.478-1.857,3.1a14.989,14.989,0,0,1-2.325.921s-4.8-1.389-7.267-3.246-6.345-7.428-6.345-7.428-4.175,5.118-5.724,5.724a23.005,23.005,0,0,0-2.632,1.243Z" transform="translate(-1069.833 -743.892)" fill="#263238" stroke="#263238" stroke-linecap="round" stroke-linejoin="round" stroke-width="1"/>
      <path id="Trazado_116891" data-name="Trazado 116891" d="M1114.466,769.873s0-5.907-2.054-3.853-2.822,5.651-1.535,7.449l1.279,1.8,1.287,1.031s-1.031,4.62,0,7.45,2.822,6.675,7.194,6.163,8.042-2.537,9.825-6.134,5.564-9.307,5.564-9.307-6.419-.256-10.016-5.4-4.386-8.217-4.386-8.217S1118.063,768.338,1114.466,769.873Z" transform="translate(-1069.061 -748.455)" fill="#ffbea7" stroke="#263238" stroke-linecap="round" stroke-linejoin="round" stroke-width="1"/>
      <path id="Trazado_116892" data-name="Trazado 116892" d="M1120.128,777.6a3.656,3.656,0,0,0,4.021,1.857" transform="translate(-1071.719 -752.957)" fill="none" stroke="#263238" stroke-linecap="round" stroke-linejoin="round" stroke-width="1"/>
      <path id="Trazado_116893" data-name="Trazado 116893" d="M1131.128,782.479a3.6,3.6,0,0,0,4.5,2.372c.048-.015.1-.031.143-.048" transform="translate(-1074.677 -754.269)" fill="none" stroke="#263238" stroke-linecap="round" stroke-linejoin="round" stroke-width="1"/>
      <path id="Trazado_116894" data-name="Trazado 116894" d="M1122.668,787.969s.461,1.7,3.4,1.089" transform="translate(-1072.402 -755.746)" fill="none" stroke="#263238" stroke-linecap="round" stroke-linejoin="round" stroke-width="1"/>
      <path id="Trazado_116895" data-name="Trazado 116895" d="M1119.908,789.029s.314,3.407,5.732,3.407" transform="translate(-1071.66 -756.031)" fill="none" stroke="#263238" stroke-linecap="round" stroke-linejoin="round" stroke-width="1"/>
      <path id="Trazado_116896" data-name="Trazado 116896" d="M1121.608,774.214a5.115,5.115,0,0,1,4.328,1.857" transform="translate(-1072.117 -752.043)" fill="none" stroke="#263238" stroke-linecap="round" stroke-linejoin="round" stroke-width="1"/>
      <path id="Trazado_116897" data-name="Trazado 116897" d="M1132.818,779.716s2.478-.307,4.335,2.924" transform="translate(-1075.131 -753.524)" fill="none" stroke="#263238" stroke-linecap="round" stroke-linejoin="round" stroke-width="1"/>
      <path id="Trazado_116898" data-name="Trazado 116898" d="M1112.621,773.719s-2.354,0-2.5,1.023a172.945,172.945,0,0,0,1.177,23.043c1.177,7.779,2.639,15.711,3.078,15.857s13.364-22.751,13.949-23.635" transform="translate(-1069.015 -751.913)" fill="none" stroke="#263238" stroke-linecap="round" stroke-linejoin="round" stroke-width="1"/>
      <path id="Trazado_116899" data-name="Trazado 116899" d="M1083.138,833.731l2.054,20.989,8.363-.439-1.762-21.143Z" transform="translate(-1061.771 -767.893)" fill="#263238" stroke="#263238" stroke-miterlimit="10" stroke-width="1"/>
      <path id="Trazado_116900" data-name="Trazado 116900" d="M1071.827,855.053l1.616-9.394,2.493-4.255.146,3.655s7.632-5.118,7.779-3.962-5.578,5.724-5.578,5.724v1.316s5.286-2.924,5.849-3.078,2.062-1.462,1.915-.146-2.062,2.493-2.793,3.078-3.816,2.5-3.816,2.5,5.849-3.231,5.849-2.193-1.462,2.354-1.908,2.793-1.908,2.493-2.786,3.524-7.047,3.224-7.047,3.224-14.811,6.156-17.421,6.755-2.837-6.009-1.075-8.21,3.421-2.507,5.768-3.092S1071.827,855.053,1071.827,855.053Z" transform="translate(-1053.911 -769.988)" fill="#ffbea7" stroke="#263238" stroke-miterlimit="10" stroke-width="1"/>
      <path id="Trazado_116901" data-name="Trazado 116901" d="M1094.078,853.306s.877,7.194,2.924,10.564,7.632,4.993,10.271,2.354,4.123-8.531,3.977-15.842-1.177-22.012-1.177-22.012" transform="translate(-1064.713 -766.611)" fill="none" stroke="#263238" stroke-linecap="round" stroke-linejoin="round" stroke-width="1"/>
      <path id="Trazado_116902" data-name="Trazado 116902" d="M1073.428,1033.149l.972,9.986h16.325l.49-9.745Z" transform="translate(-1059.16 -821.683)" fill="#fff" stroke="#263238" stroke-linecap="round" stroke-linejoin="round" stroke-width="1"/>
      <path id="Trazado_116903" data-name="Trazado 116903" d="M1119.428,1035.03l1.214,8.283,16.814.249.49-9.753Z" transform="translate(-1071.53 -821.86)" fill="#fff" stroke="#263238" stroke-linecap="round" stroke-linejoin="round" stroke-width="1"/>
      <path id="Trazado_116904" data-name="Trazado 116904" d="M1137.8,783.5l-1.177,4.993s-6.309,3.655-6.58,5.286,14.234,36.985,15.557,39.331,2.924,6.317,6.9,5.432,5.578-6.58,4.255-9.248-21.874-33.629-21.874-33.629l8.225-7.486s.146-6.755-.146-8.224-.446-2.054-.446-2.054S1138.681,782.622,1137.8,783.5Z" transform="translate(-1074.385 -753.037)" fill="#ffbea7" stroke="#263238" stroke-linecap="round" stroke-linejoin="round" stroke-width="1"/>
      <path id="Trazado_116905" data-name="Trazado 116905" d="M1141.662,784.459v6.375l-1.294,2.193" transform="translate(-1077.162 -754.802)" fill="none" stroke="#263238" stroke-linecap="round" stroke-linejoin="round" stroke-width="1"/>
      <path id="Trazado_116906" data-name="Trazado 116906" d="M1144.287,781.619s.2,6.762.2,7.559a4.871,4.871,0,0,1-.8,1.989" transform="translate(-1078.055 -754.038)" fill="none" stroke="#263238" stroke-linecap="round" stroke-linejoin="round" stroke-width="1"/>
      <path id="Trazado_116907" data-name="Trazado 116907" d="M1145.92,779.829s.592,7.669.592,8.466a2.922,2.922,0,0,1-.695,1.594" transform="translate(-1078.628 -753.557)" fill="none" stroke="#263238" stroke-linecap="round" stroke-linejoin="round" stroke-width="1"/>
    </g>
    <g id="freepik--character-2--inject-108" transform="translate(803.687 692.565)">
      <path id="Trazado_116908" data-name="Trazado 116908" d="M949.111,1065.809l4.2,6.156s13.788,7.6,14.322,7.778.534,1.594-.351,1.769-4.072.527-4.072.527H934.227s-.731-2.822-1.067-4.386.534-6.719.534-6.719l.176-4.6Z" transform="translate(-854.939 -805.734)" fill="#fff" stroke="#263238" stroke-linecap="round" stroke-linejoin="round" stroke-width="1"/>
      <path id="Trazado_116909" data-name="Trazado 116909" d="M890.828,879.52l.972,28.753,4.145,95.77-1.7,5.117,2.434,7.8s2.924-2.924,6.58-1.221a22.266,22.266,0,0,1,5.849,3.9,36.708,36.708,0,0,0,1.952-4.138,17.008,17.008,0,0,0,.731-5.366c0-.731,3.407-4.138,3.407-5.359s-2.924-6.338-2.924-6.338l4.635-90.894,5.359,96.011s-1.462,1.711-1.462,2.442,1.952,12.428,1.952,12.428.241.241,3.166.241,6.821-.731,8.042-1.952a7.055,7.055,0,0,1,3.655-1.462l.49-5.359-.98-3.9,3.173-58.975V887.561l.241-9.021-50.2-.731Z" transform="translate(-843.443 -755.175)" fill="#263238" stroke="#263238" stroke-linecap="round" stroke-linejoin="round" stroke-width="1"/>
      <path id="Trazado_116910" data-name="Trazado 116910" d="M887.988,778.479l-17.794,9.5-10.718,40.45-14.139,21.691,5.118,4.145,19.008-18.525,5.366-6.821,1.945,12.428s-3.655,8.773-1.7,10.476a16.738,16.738,0,0,0,4.628,2.683h48.74a31.152,31.152,0,0,0,.972-4.386c0-.972-1.214-9.262-1.214-9.262l.731-17.056,2.676,15.111,2.442,26.56,7.311-.241,1.462-35.581-10.235-41.671-20.47-8.532Z" transform="translate(-831.341 -728.462)" fill="#fff" stroke="#263238" stroke-linecap="round" stroke-linejoin="round" stroke-width="1"/>
      <path id="Trazado_116911" data-name="Trazado 116911" d="M907.271,769.161l-3.473.366-3.29,6.214,2.376,15.17,11.149-7.859,11.149,8.225,3.838-15.718-4.569-6.58Z" transform="translate(-846.178 -725.907)" fill="#fff" stroke="#263238" stroke-linecap="round" stroke-linejoin="round" stroke-width="1"/>
      <path id="Trazado_116912" data-name="Trazado 116912" d="M908.056,761.412l-.548,9.321,9.138,10.966,8.224-11.331-.731-9.138S914.636,763.788,908.056,761.412Z" transform="translate(-848.061 -723.823)" fill="#fff" stroke="#263238" stroke-linecap="round" stroke-linejoin="round" stroke-width="1"/>
      <path id="Trazado_116913" data-name="Trazado 116913" d="M924.576,764.775l-.285-3.546s-9.5,2.559-16.083.183l-.139,2.354c1.389,2.559,4.562,7.589,8.21,7.9C919.356,771.932,922.58,767.86,924.576,764.775Z" transform="translate(-848.212 -723.823)" fill="#263238" stroke="#263238" stroke-linecap="round" stroke-linejoin="round" stroke-width="1"/>
      <path id="Trazado_116914" data-name="Trazado 116914" d="M901.225,740.714s-1.279-2.741-2.01-.548,2.193,6.762,2.193,6.762l.548-6.031Z" transform="translate(-845.799 -717.929)" fill="#ff9a79" stroke="#263238" stroke-linecap="round" stroke-linejoin="round" stroke-width="1"/>
      <path id="Trazado_116915" data-name="Trazado 116915" d="M935.079,740.714s1.279-2.741,2.01-.548-2.193,6.762-2.193,6.762l-.548-6.031Z" transform="translate(-855.279 -717.929)" fill="#ff9a79" stroke="#263238" stroke-linecap="round" stroke-linejoin="round" stroke-width="1"/>
      <path id="Trazado_116916" data-name="Trazado 116916" d="M923.422,735.954s.365.183.914-1.1.914-8.59.914-8.59,3.655-5.483,1.645-9.321-8.773-5.483-13.708-6.58-12.428.914-14.8,3.655-4.752,6.031-3.29,7.859a31.14,31.14,0,0,0,4.752,4.2s-.548,5.666.183,6.762l.731,1.1.914-7.493a64.594,64.594,0,0,0,10.235-2.01c3.838-1.279,5.666-1.828,5.666-1.828s1.645,3.107,2.924,4.021a8.851,8.851,0,0,1,1.828,1.645Z" transform="translate(-844.601 -710.062)" fill="#263238" stroke="#263238" stroke-linecap="round" stroke-linejoin="round" stroke-width="1"/>
      <path id="Trazado_116917" data-name="Trazado 116917" d="M903.027,728.395s-1.279,15.9-.183,18.277,5.666,11.149,12.794,10.418,9.869-7.859,10.235-12.063-.366-15.535-.366-15.535-3.473-1.462-3.838-2.924a20.248,20.248,0,0,1-.366-3.838S910.521,729.309,903.027,728.395Z" transform="translate(-846.688 -713.469)" fill="#ff9a79" stroke="#263238" stroke-linecap="round" stroke-linejoin="round" stroke-width="1"/>
      <path id="Trazado_116918" data-name="Trazado 116918" d="M916.079,749.229a10.608,10.608,0,0,0-5.3,2.193c-2.559,2.01-4.021,2.193-4.021,2.193s3.29,4.021,8.224,4.021,8.042-2.376,8.59-4.021l.548-1.645a17.618,17.618,0,0,1-5.3-1.462A14.461,14.461,0,0,0,916.079,749.229Z" transform="translate(-847.859 -720.595)" fill="#263238" stroke="#263238" stroke-linecap="round" stroke-linejoin="round" stroke-width="1"/>
      <path id="Trazado_116919" data-name="Trazado 116919" d="M916.948,743.979s-.366,4.021,0,4.752,3.107,2.193,3.473.548a24.3,24.3,0,0,0,0-5.3" transform="translate(-850.556 -719.183)" fill="#ff9a79" stroke="#263238" stroke-linecap="round" stroke-linejoin="round" stroke-width="1"/>
      <ellipse id="Elipse_5377" data-name="Elipse 5377" cx="1.009" cy="1.279" rx="1.009" ry="1.279" transform="translate(61.275 22.054)" fill="#263238"/>
      <ellipse id="Elipse_5378" data-name="Elipse 5378" cx="1.009" cy="1.279" rx="1.009" ry="1.279" transform="translate(72.146 22.054)" fill="#263238"/>
      <path id="Trazado_116920" data-name="Trazado 116920" d="M907.258,736.574s.914-2.924,5.483-1.279" transform="translate(-847.994 -716.713)" fill="none" stroke="#263238" stroke-linecap="round" stroke-linejoin="round" stroke-width="1"/>
      <path id="Trazado_116921" data-name="Trazado 116921" d="M922.008,734.909s2.559-2.376,5.666.731" transform="translate(-851.96 -716.511)" fill="none" stroke="#263238" stroke-linecap="round" stroke-linejoin="round" stroke-width="1"/>
      <path id="Trazado_116922" data-name="Trazado 116922" d="M879.511,809.809l3.655,27.539-6.828-19.98" transform="translate(-839.678 -736.887)" fill="none" stroke="#263238" stroke-linecap="round" stroke-linejoin="round" stroke-width="1"/>
      <line id="Línea_335" data-name="Línea 335" x2="2.434" y2="51.423" transform="translate(68.585 60.493)" fill="none" stroke="#263238" stroke-linecap="round" stroke-linejoin="round" stroke-width="1"/>
      <line id="Línea_336" data-name="Línea 336" y1="24.615" x2="0.241" transform="translate(97.587 70.728)" fill="none" stroke="#263238" stroke-linecap="round" stroke-linejoin="round" stroke-width="1"/>
      <line id="Línea_337" data-name="Línea 337" y1="6.09" x2="9.745" transform="translate(69.317 147.008)" fill="none" stroke="gray" stroke-linecap="round" stroke-linejoin="round" stroke-width="1"/>
      <path id="Trazado_116923" data-name="Trazado 116923" d="M897.28,1065.871l-2.12,6.719s-4.949,7.954-4.774,8.663,19.622,0,19.622,0,1.418,0,1.243-3a88.678,88.678,0,0,0-1.418-9.014s-2.12-5.483-6.185-6.368S897.28,1064.812,897.28,1065.871Z" transform="translate(-843.455 -804.898)" fill="#fff" stroke="#263238" stroke-linecap="round" stroke-linejoin="round" stroke-width="1"/>
      <path id="Trazado_116924" data-name="Trazado 116924" d="M976.381,912.789l-1.418,8.985-.8-.4Z" transform="translate(-865.985 -764.582)" fill="none" stroke="#263238" stroke-linecap="round" stroke-linejoin="round" stroke-width="1"/>
      <path id="Trazado_116925" data-name="Trazado 116925" d="M966.062,897.4l-1.674,7.954.731,8.21,1.2.131.453-5.79.848,9.234,3.575.68s2.383-7.83,2.559-9.189-.38-11.434-.38-11.434Z" transform="translate(-863.358 -760.389)" fill="#ff9a79" stroke="#263238" stroke-linecap="round" stroke-linejoin="round" stroke-width="1"/>
      <line id="Línea_338" data-name="Línea 338" y1="9.884" x2="1.338" transform="translate(105.234 146.767)" fill="none" stroke="#263238" stroke-linecap="round" stroke-linejoin="round" stroke-width="1"/>
      <line id="Línea_339" data-name="Línea 339" y1="9.489" x2="2.405" transform="translate(106.301 147.563)" fill="none" stroke="#263238" stroke-linecap="round" stroke-linejoin="round" stroke-width="1"/>
      <path id="Trazado_116926" data-name="Trazado 116926" d="M840.189,876.479s-5.849,2.683-7.311,3.166-1.945,2.193-3.655,3.414-3.9,2.683-2.676,3.166a5.724,5.724,0,0,0,2.676.249l2.193-2.683-3.9,8.531-.241,3.166,2.924,1.221,6.821-3.655,8.283-12.428Z" transform="translate(-826.193 -754.817)" fill="#fff" stroke="#263238" stroke-linecap="round" stroke-linejoin="round" stroke-width="1"/>
      <path id="Trazado_116927" data-name="Trazado 116927" d="M833.338,885.637s2.866,2.405,4.642,1.9,3.173-4.189,3.173-4.189" transform="translate(-828.114 -756.665)" fill="#fff" stroke="#263238" stroke-linecap="round" stroke-linejoin="round" stroke-width="1"/>
      <line id="Línea_340" data-name="Línea 340" y1="5.966" x2="4.065" transform="translate(1.364 133.41)" fill="none" stroke="#263238" stroke-linecap="round" stroke-linejoin="round" stroke-width="1"/>
      <line id="Línea_341" data-name="Línea 341" y1="6.726" x2="4.693" transform="translate(2.512 134.295)" fill="none" stroke="#263238" stroke-linecap="round" stroke-linejoin="round" stroke-width="1"/>
      <line id="Línea_342" data-name="Línea 342" y1="6.58" x2="5.476" transform="translate(4.01 135.311)" fill="none" stroke="#263238" stroke-linecap="round" stroke-linejoin="round" stroke-width="1"/>
    </g>
    <g id="freepik--character-1--inject-108" transform="translate(758.374 778.973)">
      <path id="Trazado_116928" data-name="Trazado 116928" d="M851.484,1064.726a23.031,23.031,0,0,0,1.462,3.838c.731,1.279,1.828,5.666,3.29,6.4s2.01,2.924,2.01,4.386-.365,1.828-1.279,1.828H838.691s-.183-2.376-.183-4.569.365-5.666.365-6.58v-5.849a78.006,78.006,0,0,1,8.224-.548C850.936,1063.629,851.484,1064.726,851.484,1064.726Z" transform="translate(-784.191 -891.556)" fill="#fff" stroke="#263238" stroke-linecap="round" stroke-linejoin="round" stroke-width="1"/>
      <path id="Trazado_116929" data-name="Trazado 116929" d="M809.751,1064.312l-3.29,8.407s-4.2,4.021-4.2,5.666.914,2.376,1.462,2.376h18.642a15.962,15.962,0,0,0,.183-5.849c-.548-2.742-1.645-6.945-1.645-6.945l-7.311-3.838Z" transform="translate(-774.442 -891.69)" fill="#fff" stroke="#263238" stroke-linecap="round" stroke-linejoin="round" stroke-width="1"/>
      <path id="Trazado_116930" data-name="Trazado 116930" d="M807.758,963.629l3.473,64.7s-2.376,4.021-1.828,5.118a32.9,32.9,0,0,1,1.279,4.935l6.762,4.021s4.752-.731,4.935-1.462.731-4.752.914-7.311-.914-4.935-.731-7.493,4.021-52.089,4.021-52.089l1.279-.365L830.6,1032.9a13.7,13.7,0,0,0-.914,2.924c-.183,1.28,1.645,3.838,1.645,3.838s0,2.193,1.1,2.559a5.669,5.669,0,0,0,4.2-1.1c.731-.731.366-2.924,2.01-3.29s4.935,1.279,4.935,1.279a48.523,48.523,0,0,0,0-5.3c-.183-1.645-2.01-4.2-2.01-4.2l2.376-47.7-.731-18.277Z" transform="translate(-775.921 -864.663)" fill="#263238" stroke="#263238" stroke-linecap="round" stroke-linejoin="round" stroke-width="1"/>
      <path id="Trazado_116931" data-name="Trazado 116931" d="M866.791,922.879l-1.462,35.091s1.462,8.407,1.462,8.956-.731,4.2-2.01,5.3a1.214,1.214,0,0,1-2.01-.365l.365-2.01-.914-4.386-1.279,4.935s-1.645.183-1.279-2.01.183-6.031.548-7.311a13.811,13.811,0,0,0,.365-3.107s-3.655-18.825-3.655-19.373-.914-14.438-.914-14.438Z" transform="translate(-788.897 -853.704)" fill="#ffbea7" stroke="#263238" stroke-linecap="round" stroke-linejoin="round" stroke-width="1"/>
      <circle id="Elipse_5379" data-name="Elipse 5379" cx="13.803" cy="13.803" r="13.803" transform="translate(4.605 73.371)" fill="#12263f" stroke="#263238" stroke-linecap="round" stroke-linejoin="round" stroke-width="1"/>
      <path id="Trazado_116932" data-name="Trazado 116932" d="M776.49,910.129s-6.031,7.494-6.4,8.407-6.4,21.2-5.848,23.211,2.741,6.4,3.29,7.859,6.58,4.569,8.59,4.569a7.547,7.547,0,0,0,3.655-1.572.979.979,0,0,0-.11-1.674,20.887,20.887,0,0,1-2.259-1.323c-1.279-.914-2.376-1.828-2.376-1.828s2.559,2.01,2.742.548-1.462-2.559-2.01-3.655a19.96,19.96,0,0,0-3.655-4.021l-2.193-1.462s-.731-5.849.914-8.59a14.3,14.3,0,0,1,3.831-4.2l3.655-5.483,3.473-2.924Z" transform="translate(-764.21 -850.275)" fill="#ffbea7" stroke="#263238" stroke-linecap="round" stroke-linejoin="round" stroke-width="1"/>
      <line id="Línea_343" data-name="Línea 343" x1="4.752" y1="2.559" transform="translate(6.067 94.945)" fill="none" stroke="#263238" stroke-linecap="round" stroke-linejoin="round" stroke-width="1"/>
      <path id="Trazado_116933" data-name="Trazado 116933" d="M813.147,874.56l-17.911,6.214-17.728,20.47,8.225,10.6,12.428-8.59.365,37.65a74.233,74.233,0,0,0,17.546,3.655c9.5.731,19.739-3.655,19.739-3.655l1.462-26.136,12.611-3.838s-8.773-24.308-10.418-27.232-16.266-8.224-16.266-8.224S817.168,873.829,813.147,874.56Z" transform="translate(-767.786 -840.659)" fill="#36c" stroke="#263238" stroke-linecap="round" stroke-linejoin="round" stroke-width="1"/>
      <line id="Línea_344" data-name="Línea 344" y1="24.856" x2="0.548" transform="translate(69.487 49.254)" fill="none" stroke="#263238" stroke-linecap="round" stroke-linejoin="round" stroke-width="1"/>
      <line id="Línea_345" data-name="Línea 345" x1="2.01" y1="10.783" transform="translate(28.364 51.812)" fill="none" stroke="#263238" stroke-linecap="round" stroke-linejoin="round" stroke-width="1"/>
      <path id="Trazado_116934" data-name="Trazado 116934" d="M824.758,864.879s.548,8.042.365,9.5.731,6.58,4.386,7.128,7.128-6.031,7.494-6.58-.366-5.483-.366-5.483Z" transform="translate(-780.493 -838.106)" fill="#ffbea7" stroke="#263238" stroke-linecap="round" stroke-linejoin="round" stroke-width="1"/>
      <path id="Trazado_116935" data-name="Trazado 116935" d="M837.106,874.09a43.389,43.389,0,0,0-.468-4.642l-11.88-4.569s.073,1.075.153,2.507a15.23,15.23,0,0,0,6.821,5.118A41.3,41.3,0,0,0,837.106,874.09Z" transform="translate(-780.493 -838.106)" fill="#263238" stroke="#263238" stroke-linecap="round" stroke-linejoin="round" stroke-width="1"/>
      <path id="Trazado_116936" data-name="Trazado 116936" d="M837.612,834.377s-2.01-4.569-9.138-5.849-14.987,2.01-17.728,8.59,3.29,13.342,3.29,13.342,6.214,6.031,7.494,7.311,2.924,3.107,6.214,3.473,8.225.914,10.052,0,2.559-4.386,2.924-5.118,1.828-6.4.731-9.138a11.924,11.924,0,0,0-2.741-4.2S838.891,837.484,837.612,834.377Z" transform="translate(-776.533 -828.257)" fill="#ffbea7" stroke="#263238" stroke-linecap="round" stroke-linejoin="round" stroke-width="1"/>
      <path id="Trazado_116937" data-name="Trazado 116937" d="M836.881,835.84a8.238,8.238,0,0,0,.892-1.031c-.051-.146-.1-.292-.161-.431,0,0-2.01-4.569-9.138-5.849s-14.987,2.01-17.728,8.59,3.29,13.342,3.29,13.342l2.128,2.083a2.963,2.963,0,0,1,.98-.972c1.279-.731,2.741,1.828,2.741,1.828a2.317,2.317,0,0,0,1.462-1.279c.548-1.1-1.828-4.569-1.828-4.569a12.948,12.948,0,0,1,2.559-3.473c1.828-1.828,4.935-7.311,4.935-7.311l.365,2.741a8.379,8.379,0,0,0,2.924-1.1c.914-.731,2.559-2.193,2.559-2.193l-.365,2.924A27.519,27.519,0,0,0,836.881,835.84Z" transform="translate(-776.533 -828.257)" fill="#263238" stroke="#263238" stroke-linecap="round" stroke-linejoin="round" stroke-width="1"/>
      <path id="Trazado_116938" data-name="Trazado 116938" d="M847.258,854.629s3.107,2.376,2.193,3.473a3.092,3.092,0,0,1-2.193,1.1" transform="translate(-786.544 -835.349)" fill="none" stroke="#263238" stroke-linecap="round" stroke-linejoin="round" stroke-width="1"/>
      <path id="Trazado_116939" data-name="Trazado 116939" d="M840.008,864.129a4.745,4.745,0,0,0,5.3.731" transform="translate(-784.595 -837.904)" fill="none" stroke="#263238" stroke-linecap="round" stroke-linejoin="round" stroke-width="1"/>
      <path id="Trazado_116940" data-name="Trazado 116940" d="M838.828,854.522c.11.694-.2,1.323-.731,1.4s-.994-.424-1.1-1.126.2-1.323.731-1.4S838.711,853.82,838.828,854.522Z" transform="translate(-783.78 -835.015)" fill="#263238"/>
      <path id="Trazado_116941" data-name="Trazado 116941" d="M847.828,851.062c.11.695-.2,1.323-.731,1.4s-.994-.424-1.1-1.126.2-1.323.731-1.4S847.711,850.331,847.828,851.062Z" transform="translate(-786.201 -834.084)" fill="#263238"/>
      <path id="Trazado_116942" data-name="Trazado 116942" d="M834.508,851.322a3.816,3.816,0,0,1,3.473-2.193" transform="translate(-783.115 -833.87)" fill="none" stroke="#263238" stroke-linecap="round" stroke-linejoin="round" stroke-width="1"/>
      <path id="Trazado_116943" data-name="Trazado 116943" d="M844.758,847.336s1.828-1.645,2.924-1.462" transform="translate(-785.872 -832.991)" fill="none" stroke="#263238" stroke-linecap="round" stroke-linejoin="round" stroke-width="1"/>
      <path id="Trazado_116944" data-name="Trazado 116944" d="M823.682,861.124s-2.376-5.118-4.935-4.752-2.742,4.386-.548,6.58a4.822,4.822,0,0,0,5.117.914" transform="translate(-778.321 -835.813)" fill="#ff9a79" stroke="#263238" stroke-linecap="round" stroke-linejoin="round" stroke-width="1"/>
    </g>
  </g>
</svg>
