<svg xmlns="http://www.w3.org/2000/svg" width="120" height="120" viewBox="0 0 120 120">
  <g id="Grupo_55259" data-name="Grupo 55259" transform="translate(8492 -2307)">
    <g id="Icon" transform="translate(-8484 2315)">
      <rect id="Rectángulo_29022" data-name="Rectángulo 29022" width="120" height="120" transform="translate(-8 -8)" fill="none"/>
      <circle id="Base" cx="51.652" cy="51.652" r="51.652" transform="translate(0 0)" fill="#ea3065"/>
    </g>
    <g id="subasta_1_" data-name="subasta (1)" transform="translate(-8465 2334)">
      <g id="Grupo_55245" data-name="Grupo 55245" transform="translate(13.026 22.173)">
        <g id="Grupo_55244" data-name="Grupo 55244">
          <path id="Trazado_119875" data-name="Trazado 119875" d="M102.913,171.8a1.293,1.293,0,1,0,0,1.829A1.294,1.294,0,0,0,102.913,171.8Z" transform="translate(-100.704 -171.42)" fill="#fff"/>
        </g>
      </g>
      <g id="Grupo_55247" data-name="Grupo 55247" transform="translate(0 50.702)">
        <g id="Grupo_55246" data-name="Grupo 55246">
          <path id="Trazado_119876" data-name="Trazado 119876" d="M32.751,399.2a4.528,4.528,0,0,0-3.649-7.209H7.114a4.524,4.524,0,0,0-3.646,7.207A6.472,6.472,0,0,0,0,404.921v1.293a1.294,1.294,0,0,0,1.293,1.293H34.923a1.294,1.294,0,0,0,1.293-1.293v-1.293A6.472,6.472,0,0,0,32.751,399.2ZM5.742,395.142a1.927,1.927,0,0,1,1.372-.568H29.1a1.94,1.94,0,1,1,0,3.88H7.114a1.941,1.941,0,0,1-1.372-3.312Zm-3.155,9.78a3.885,3.885,0,0,1,3.88-3.88H29.749a3.885,3.885,0,0,1,3.88,3.88Z" transform="translate(0 -391.987)" fill="#fff"/>
        </g>
      </g>
      <g id="Grupo_55249" data-name="Grupo 55249" transform="translate(0.003 0)">
        <g id="Grupo_55248" data-name="Grupo 55248">
          <path id="Trazado_119877" data-name="Trazado 119877" d="M65.04,54.343a8.145,8.145,0,0,0-1.558-1.789l-6.044-5.271a1.284,1.284,0,0,0-.515-.449l-3.655-3.188L36.352,28.888a3.873,3.873,0,0,0-1.136-6.178l1.565-1.565a5.177,5.177,0,0,0,4.995-1.337,5.173,5.173,0,0,0,0-7.317L30.8,1.517a5.172,5.172,0,0,0-8.654,4.995L6.531,22.127a5.206,5.206,0,0,0-1.339-.175,5.173,5.173,0,0,0-3.658,8.832L12.509,41.758a5.172,5.172,0,0,0,8.654-4.995L22.725,35.2a3.881,3.881,0,0,0,6.18,1.134l18.019,20.7a1.3,1.3,0,0,0,.175.219c.023.023.048.044.072.065l5.369,6.169c.133.158.276.313.424.461a7.693,7.693,0,0,0,5.468,2.274,7.94,7.94,0,0,0,1.089-.075,7.827,7.827,0,0,0,5.775-4A7.654,7.654,0,0,0,65.04,54.343Zm-39.728-51a2.586,2.586,0,0,1,3.659,0L39.946,14.321a2.587,2.587,0,0,1-3.658,3.659L25.313,7h0A2.589,2.589,0,0,1,25.313,3.346ZM18,39.929a2.59,2.59,0,0,1-3.659,0L3.363,28.954A2.587,2.587,0,0,1,7.02,25.295L18,36.272A2.589,2.589,0,0,1,18,39.929Zm5.446-9.1-3.617,3.617L8.85,23.466,23.483,8.833,34.459,19.809l-3.623,3.623-.036.034-7.313,7.313Zm4.618,2.7-.008.008-.911.911A1.294,1.294,0,0,1,25.3,32.629l7.347-7.347a1.294,1.294,0,0,1,2.194.929,1.282,1.282,0,0,1-.379.914l-.906.906-.018.018Zm2.679.98,3.78-3.78L50.526,44.684l-5.841,5.841ZM46.387,52.481l6.092-6.092,1.954,1.7L48.09,54.437ZM63.039,60.89a5.261,5.261,0,0,1-3.872,2.7,5.139,5.139,0,0,1-4.373-1.466c-.1-.1-.195-.2-.283-.308L54.5,61.8l-4.706-5.407,6.6-6.6,5.4,4.71.012.011a5.568,5.568,0,0,1,1.067,1.228A5.107,5.107,0,0,1,63.039,60.89Z" transform="translate(-0.021 -0.001)" fill="#fff"/>
        </g>
      </g>
      <g id="Grupo_55251" data-name="Grupo 55251" transform="translate(16.684 13.026)">
        <g id="Grupo_55250" data-name="Grupo 55250">
          <path id="Trazado_119878" data-name="Trazado 119878" d="M136.681,101.086a1.294,1.294,0,0,0-1.829,0l-5.488,5.488a1.293,1.293,0,0,0,1.829,1.829l5.488-5.488A1.293,1.293,0,0,0,136.681,101.086Z" transform="translate(-128.985 -100.707)" fill="#fff"/>
        </g>
      </g>
    </g>
  </g>
</svg>
