<svg xmlns="http://www.w3.org/2000/svg" width="397.019" height="385.197" viewBox="0 0 397.019 385.197">
  <g id="Grupo_55021" data-name="Grupo 55021" transform="translate(-683 -11631.803)">
    <g id="Grupo_55020" data-name="Grupo 55020" transform="translate(-106.455 10027.349)">
      <ellipse id="Floor" cx="194.509" cy="112.097" rx="194.509" ry="112.097" transform="translate(797.456 1765.457)" fill="#f5f5f5"/>
      <path id="Shadow" d="M1120.542,2006.792l-63.835-36.959c-4.159-2.4-4.159-6.294,0-8.694l39.863-23.3a16.645,16.645,0,0,1,15.058,0l63.835,36.959c4.157,2.4,4.157,6.294,0,8.694l-39.863,23.3A16.646,16.646,0,0,1,1120.542,2006.792Z" transform="translate(-33.443 -43.295)" fill="#e1e1e1"/>
      <path id="Shadow-2" data-name="Shadow" d="M891.9,1961.722l-63.835-36.958c-4.159-2.4-4.159-6.294,0-8.694l39.863-23.3a16.644,16.644,0,0,1,15.059,0l63.835,36.959c4.158,2.4,4.158,6.294,0,8.694l-39.863,23.3A16.639,16.639,0,0,1,891.9,1961.722Z" transform="translate(-3.59 -37.41)" fill="#e1e1e1"/>
      <path id="Shadow-3" data-name="Shadow" d="M954.432,2004.85l-91.444-52.8,145.32-83.9,91.444,52.8Z" transform="translate(-8.556 -34.431)" fill="#e1e1e1"/>
      <path id="Shadow-4" data-name="Shadow" d="M1091.559,1825.742l-35.476,20.482a1.9,1.9,0,0,1-1.721,0l-47.875-27.64a.525.525,0,0,1,0-.995l35.476-20.482a1.9,1.9,0,0,1,1.721,0l47.875,27.641A.524.524,0,0,1,1091.559,1825.742Z" transform="translate(-27.246 -25.127)" fill="#36c" opacity="0.1"/>
      <g id="Character" transform="translate(825.276 1675.755)">
        <g id="Character-2" data-name="Character">
          <g id="Chair" transform="translate(0 53.875)">
            <g id="Grupo_54893" data-name="Grupo 54893" transform="translate(5.192 72.016)">
              <g id="Grupo_54889" data-name="Grupo 54889" transform="translate(93.017 29.168)">
                <path id="Trazado_118364" data-name="Trazado 118364" d="M956.437,1929.539l-7.717-64.411-6.308-.32,10.849,64.722h.007a.848.848,0,0,0,.42.565,2.489,2.489,0,0,0,2.248.114.76.76,0,0,0,.493-.67Z" transform="translate(-942.412 -1864.808)" fill="#1a2e35"/>
                <path id="Trazado_118365" data-name="Trazado 118365" d="M948.72,1865.128l-6.308-.32,1.856,12.213A24.516,24.516,0,0,0,948,1875.3a3.817,3.817,0,0,0,1.667-1.425Z" transform="translate(-942.412 -1864.808)" fill="#1a2e35"/>
              </g>
              <g id="Grupo_54890" data-name="Grupo 54890" transform="translate(0 20.041)">
                <path id="Trazado_118366" data-name="Trazado 118366" d="M850.931,1854.311h-6.316l-9.19,60.822h.008a.76.76,0,0,0,.458.694,2.487,2.487,0,0,0,2.251,0,.848.848,0,0,0,.449-.543h.007Z" transform="translate(-835.426 -1854.311)" fill="#2b454e"/>
                <path id="Trazado_118367" data-name="Trazado 118367" d="M845.611,1854.311l-2.565,16.975a25,25,0,0,0,4.845,2.966l4.035-19.94Z" transform="translate(-836.421 -1854.311)" fill="#1a2e35"/>
              </g>
              <g id="Grupo_54891" data-name="Grupo 54891" transform="translate(52.601 49.676)">
                <path id="Trazado_118368" data-name="Trazado 118368" d="M908.168,1954.211l-5.935-65.495-6.308-.32,9.066,65.806H905a.845.845,0,0,0,.42.565,2.488,2.488,0,0,0,2.247.114.761.761,0,0,0,.494-.67Z" transform="translate(-895.926 -1888.396)" fill="#2b454e"/>
                <path id="Trazado_118369" data-name="Trazado 118369" d="M903.008,1898.144l-.775-9.428-6.308-.32,1.28,10.172A11.593,11.593,0,0,0,903.008,1898.144Z" transform="translate(-895.926 -1888.396)" fill="#1a2e35"/>
              </g>
              <g id="Grupo_54892" data-name="Grupo 54892" transform="translate(34.47)">
                <path id="Trazado_118370" data-name="Trazado 118370" d="M890.578,1831.26h-6.315l-9.19,60.822h.007a.761.761,0,0,0,.459.695,2.492,2.492,0,0,0,2.251,0,.849.849,0,0,0,.449-.543h.007Z" transform="translate(-875.073 -1831.26)" fill="#1a2e35"/>
              </g>
            </g>
            <g id="Chair-2" data-name="Chair">
              <path id="Trazado_118371" data-name="Trazado 118371" d="M832.094,1768.161a35.685,35.685,0,0,0-2.522,11.086c-.722,8.5,2.032,39.92,3.76,52.228l-.007-.007c2.5,20.565,5.564,20.6,10.022,24.045,7.665,5.922,29.709,17.53,36.988,20.393,13.194,5.193,23.98-2.814,32.024-6.786a186.559,186.559,0,0,0,21.3-12.615c2.008-1.464,3.05-2.943,3.029-4.5-.008-.614.007-3.143.007-3.793-.007-1.987-1.75-4.115-5.443-6.508-6.815-4.422-31.445-18.787-40.988-24.073a.1.1,0,0,0-.078-.079c-7.343-4.458-11.639-38.655-16.725-54.778-.107-.343-.215-.679-.329-1-.086-.257-.179-.508-.264-.75-.322-.879-.65-1.679-1-2.414" transform="translate(-829.454 -1749.758)" fill="#36c"/>
              <path id="Trazado_118372" data-name="Trazado 118372" d="M936.7,1846.882c-.008-1.987-1.75-4.115-5.443-6.508-6.815-4.422-31.445-18.787-40.988-24.073a.1.1,0,0,0-.078-.079c-7.343-4.458-11.639-38.655-16.725-54.778a30.58,30.58,0,0,0-1.065-2.966c-.03-.074-.062-.143-.092-.215q-.138-.322-.29-.656c-.05-.107-.1-.223-.145-.328l-.007,0a15.461,15.461,0,0,0-3.393-4.9,7.441,7.441,0,0,0-1.664-1.17c-.826-.466-2.56-1.431-2.994-1.685-4.989-2.985-11.531.6-19.685,5.063-5.07,2.781-9.4,6.085-12.03,12.243h0a35.684,35.684,0,0,0-2.522,11.086c-.722,8.5,2.032,39.92,3.76,52.228l-.007-.007c2.5,20.565,5.564,20.6,10.022,24.045,7.665,5.922,29.709,17.53,36.988,20.393,13.194,5.193,23.98-2.814,32.024-6.786a186.574,186.574,0,0,0,21.3-12.615c2.008-1.464,3.05-2.943,3.028-4.5C936.682,1850.061,936.7,1847.532,936.7,1846.882Z" transform="translate(-829.454 -1748.429)" fill="#36c"/>
              <path id="Trazado_118373" data-name="Trazado 118373" d="M936.7,1846.882c-.008-1.987-1.75-4.115-5.443-6.508-6.815-4.422-31.445-18.787-40.988-24.073a.1.1,0,0,0-.078-.079c-7.343-4.458-11.639-38.655-16.725-54.778a30.58,30.58,0,0,0-1.065-2.966c-.03-.074-.062-.143-.092-.215q-.138-.322-.29-.656c-.05-.107-.1-.223-.145-.328l-.007,0a15.461,15.461,0,0,0-3.393-4.9,7.441,7.441,0,0,0-1.664-1.17c-.826-.466-2.56-1.431-2.994-1.685-4.989-2.985-11.531.6-19.685,5.063-5.07,2.781-9.4,6.085-12.03,12.243h0a35.684,35.684,0,0,0-2.522,11.086c-.722,8.5,2.032,39.92,3.76,52.228l-.007-.007c2.5,20.565,5.564,20.6,10.022,24.045,7.665,5.922,29.709,17.53,36.988,20.393,13.194,5.193,23.98-2.814,32.024-6.786a186.574,186.574,0,0,0,21.3-12.615c2.008-1.464,3.05-2.943,3.028-4.5C936.682,1850.061,936.7,1847.532,936.7,1846.882Z" transform="translate(-829.454 -1748.429)" fill="#fff" opacity="0.25"/>
              <g id="Grupo_54894" data-name="Grupo 54894" transform="translate(10.597 64.975)">
                <path id="Trazado_118374" data-name="Trazado 118374" d="M913.948,1873.725a187.093,187.093,0,0,0,21.3-12.62c4.573-3.321,4.152-6.72-2.4-10.972-9.106-5.908-46.229-26.972-46.229-26.972s-46.931,27.7-44.912,32.811,31.067,20.937,40.218,24.537C895.123,1885.7,905.909,1877.7,913.948,1873.725Z" transform="translate(-841.643 -1823.161)" fill="#36c"/>
                <path id="Trazado_118375" data-name="Trazado 118375" d="M913.948,1873.725a187.093,187.093,0,0,0,21.3-12.62c4.573-3.321,4.152-6.72-2.4-10.972-9.106-5.908-46.229-26.972-46.229-26.972s-46.931,27.7-44.912,32.811,31.067,20.937,40.218,24.537C895.123,1885.7,905.909,1877.7,913.948,1873.725Z" transform="translate(-841.643 -1823.161)" fill="#fff" opacity="0.6"/>
              </g>
              <path id="Trazado_118376" data-name="Trazado 118376" d="M867.2,1751.21c-4.94-2.593-11.36.933-19.3,5.283-5.087,2.789-9.421,6.093-12.055,12.276l-3.353-1.938c2.634-6.158,6.96-9.463,12.031-12.243,8.154-4.465,14.7-8.047,19.685-5.063C864.641,1749.779,866.374,1750.744,867.2,1751.21Z" transform="translate(-829.851 -1748.429)" fill="#36c"/>
              <path id="Trazado_118377" data-name="Trazado 118377" d="M867.2,1751.21c-4.94-2.593-11.36.933-19.3,5.283-5.087,2.789-9.421,6.093-12.055,12.276l-3.353-1.938c2.634-6.158,6.96-9.463,12.031-12.243,8.154-4.465,14.7-8.047,19.685-5.063C864.641,1749.779,866.374,1750.744,867.2,1751.21Z" transform="translate(-829.851 -1748.429)" fill="#fff" opacity="0.5"/>
              <g id="Grupo_54895" data-name="Grupo 54895" transform="translate(3.305 1.895)">
                <path id="Trazado_118378" data-name="Trazado 118378" d="M873.958,1761.73c-.107-.343-1.807-6.258-4.993-9.065a8.045,8.045,0,0,0-5.4-2.057c-4.315,0-9.494,2.85-15.565,6.171q-.762.419-1.5.857c-.193.107-.378.222-.564.336-.229.136-.449.279-.671.422q-.246.15-.493.322a28.468,28.468,0,0,0-3.057,2.321c-.157.136-.308.271-.457.422a20.787,20.787,0,0,0-1.736,1.8c-.1.115-.2.229-.293.344-.114.143-.236.285-.343.429s-.222.292-.336.443-.215.293-.322.45a21.959,21.959,0,0,0-1.215,1.942c-.05.086-.1.171-.143.257-.1.178-.193.364-.286.55-.136.271-.264.542-.392.814a35.056,35.056,0,0,0-2.751,11.623c-1.178,13.965,3.482,64.007,8.282,67.986,0,0-.736-4.515,8.922-10.594,6.564-4.129,11.172-7.6,18.18-11.036,17.072-8.387,21.858-9.958,21.858-9.958C883.34,1812.05,879.044,1777.853,873.958,1761.73Z" transform="translate(-833.256 -1750.608)" fill="#36c"/>
                <path id="Trazado_118379" data-name="Trazado 118379" d="M873.958,1761.73c-.107-.343-1.807-6.258-4.993-9.065a8.045,8.045,0,0,0-5.4-2.057c-4.315,0-9.494,2.85-15.565,6.171q-.762.419-1.5.857c-.193.107-.378.222-.564.336-.229.136-.449.279-.671.422q-.246.15-.493.322a28.468,28.468,0,0,0-3.057,2.321c-.157.136-.308.271-.457.422a20.787,20.787,0,0,0-1.736,1.8c-.1.115-.2.229-.293.344-.114.143-.236.285-.343.429s-.222.292-.336.443-.215.293-.322.45a21.959,21.959,0,0,0-1.215,1.942c-.05.086-.1.171-.143.257-.1.178-.193.364-.286.55-.136.271-.264.542-.392.814a35.056,35.056,0,0,0-2.751,11.623c-1.178,13.965,3.482,64.007,8.282,67.986,0,0-.736-4.515,8.922-10.594,6.564-4.129,11.172-7.6,18.18-11.036,17.072-8.387,21.858-9.958,21.858-9.958C883.34,1812.05,879.044,1777.853,873.958,1761.73Z" transform="translate(-833.256 -1750.608)" fill="#fff" opacity="0.4"/>
              </g>
            </g>
          </g>
          <path id="Shadow-5" data-name="Shadow" d="M937.313,1850.962c.025,1.551-1.017,3.036-3.027,4.495a186.059,186.059,0,0,1-21.3,12.617c-4.186,2.068-9.106,5.22-14.727,7.038-13.468-7.888-36.733-21.7-42.454-26.277-3.06-2.443-4.9-6.537-6-10.707a56.143,56.143,0,0,1-1.618-14.152,19.166,19.166,0,0,1-8.33-5.52c-3.369-3.719-4.27-15.819-5.612-43.313v-.017a29.924,29.924,0,0,1,2.068-6.638c.134-.275.259-.542.392-.817.092-.183.192-.367.292-.55.042-.083.091-.167.142-.258a22.167,22.167,0,0,1,1.209-1.943l.325-.45c.117-.15.216-.3.333-.442s.234-.283.342-.425c.092-.117.192-.234.292-.343a20.974,20.974,0,0,1,1.743-1.8c.15-.15.3-.284.45-.426a29.47,29.47,0,0,1,3.06-2.318c.167-.117.325-.225.492-.325.225-.142.442-.283.676-.417.183-.116.367-.233.558-.333.492-.292.993-.584,1.5-.859,6.07-3.319,11.249-6.171,15.569-6.171a8.149,8.149,0,0,1,5.07,1.768c.176.143.284.243.326.284a13.662,13.662,0,0,1,2.752,3.644c.108.2.216.4.316.6a.955.955,0,0,1,.067.133c.091.176.175.35.258.525l.1.2.05.124c.049.109.1.225.15.334.175.392.333.767.467,1.117.033.083.066.167.1.242.109.284.2.542.284.775.025.076.049.15.075.217s.05.15.075.217a1.537,1.537,0,0,1,.059.176c.017.058.042.116.058.175.025.075.05.15.066.209a1.04,1.04,0,0,1,.042.142c.042.116.067.2.076.233,5.087,16.128,9.381,50.327,16.728,54.78a.1.1,0,0,1,.076.083c9.548,5.287,34.173,19.647,40.986,24.067,3.694,2.394,5.437,4.528,5.446,6.513C937.322,1847.818,937.3,1850.346,937.313,1850.962Z" transform="translate(-830.081 -1694.839)" fill="#36c" opacity="0.1"/>
          <g id="Character-3" data-name="Character" transform="translate(7.852)">
            <g id="Grupo_54896" data-name="Grupo 54896" transform="translate(52.88 49.064)">
              <path id="Trazado_118380" data-name="Trazado 118380" d="M977.853,1747.746c-1.927.682-9.966,4.638-13.969,4.464-1.7-.074-2.106-.412-1.971-.836.183-.577,1.374-1.312,1.706-1.754.576-.767,3.771-3.847,3.031-5.823s-1.906-.373-4.734,1.635c-1.669,1.185-3.543,2.017-5.311,3.036a12.435,12.435,0,0,0-6.382,5.8c-1.952,4.038-2.508,6.716-3.986,8.913-2.457,3.87-6.328,9.031-10.789,15.226,0,0-15.58-19.65-18.542-23.317s-8.856-9.487-14.626-10.861l7.911,28.364s8.465,11.84,17.353,21.753c7.17,8,11.863,8.744,16.4,1.974.41-.586.831-1.256,1.268-2.033,4.476-7.965,6.327-13.609,10.895-23.534a23.225,23.225,0,0,1,2.307-4.2c2.739-2.468,7.9-2.906,10.493-3.935a15.135,15.135,0,0,0,7.6-5.705c1.667-2.361,1.143-4.692,2.135-6.122S979.779,1747.064,977.853,1747.746Z" transform="translate(-899.695 -1742.895)" fill="#ffaaa8"/>
              <path id="Trazado_118381" data-name="Trazado 118381" d="M899.307,1743.416c7.832,0,11.11,3.572,15.929,9.326,2.993,3.575,19.855,24.667,19.855,24.667l4-4.655s-.221,6.268,2.4,9.7a13.3,13.3,0,0,0,7.223,4.334s-3.037,7.739-5.94,11.887-7.033,4.7-12.489-.093-22.689-21.81-22.689-21.81Z" transform="translate(-899.307 -1742.964)" fill="#36c"/>
              <path id="Trazado_118382" data-name="Trazado 118382" d="M899.307,1743.416c7.832,0,11.11,3.572,15.929,9.326,2.993,3.575,19.855,24.667,19.855,24.667l4-4.655s-.221,6.268,2.4,9.7a13.3,13.3,0,0,0,7.223,4.334s-3.037,7.739-5.94,11.887-7.033,4.7-12.489-.093-22.689-21.81-22.689-21.81Z" transform="translate(-899.307 -1742.964)" fill="#36c" opacity="0.35"/>
              <path id="Trazado_118383" data-name="Trazado 118383" d="M939.688,1782.24c-3.665,4.414-5.111,11.144-4.949,13.58,0,0-1.556-6.609,3.485-15.4Z" transform="translate(-903.904 -1747.795)" fill="#36c" opacity="0.2"/>
              <path id="Trazado_118384" data-name="Trazado 118384" d="M946.2,1774.817l-3.153,4.079s.356,5.637,3.706,9a15.087,15.087,0,0,0,7.189,4.076l1.948-4.221S947.729,1782.99,946.2,1774.817Z" transform="translate(-905.018 -1747.063)" fill="#2b454e"/>
              <path id="Trazado_118385" data-name="Trazado 118385" d="M972,1759.343c-3.435-2.906-8.206-1.4-10.3,1.079a6.722,6.722,0,0,1,5.4-3.665,5.808,5.808,0,0,1,4.9,2.587Z" transform="translate(-907.454 -1744.703)" fill="#ff9090"/>
            </g>
            <g id="Grupo_54899" data-name="Grupo 54899" transform="translate(14.401 118.902)">
              <g id="Grupo_54897" data-name="Grupo 54897" transform="translate(55.184 104.484)">
                <path id="Trazado_118386" data-name="Trazado 118386" d="M919.338,1958.491a4.208,4.208,0,0,0,.177,2.119c.4.965,3.1,2.742,4.484,3.451a8.789,8.789,0,0,1,3.659,3.9c1.657,2.906,4.158,6.035,7.32,7.539a22.963,22.963,0,0,0,13.551,1.593c5.691-.942,6.2-4.282,6.2-4.282s.343-3.144-1.063-3.661S919.338,1958.491,919.338,1958.491Z" transform="translate(-918.619 -1945.367)" fill="#1a2e35"/>
                <path id="Trazado_118387" data-name="Trazado 118387" d="M918.521,1952.633a9.092,9.092,0,0,0,.718,3.887c1.641,2.342,5.581,3.159,7.818,6.356s4.882,8.112,12.3,9.692,13.09-.7,14.493-2.8.177-4.109-4.552-6.748c-5.02-2.8-10.926-10.175-10.929-10.179-1.944-2.527-2.766-5.849-3.839-8.807-.1-.287-.274-.625-.579-.636-.37-.013-.536.438-.732.752a2.381,2.381,0,0,1-1.433.879,18.138,18.138,0,0,1-6.017,1,1.674,1.674,0,0,0-1.272.332,1.492,1.492,0,0,0-.257,1.131,11.666,11.666,0,0,0,.191,1.5,1.489,1.489,0,0,1,.025.733.9.9,0,0,1-.849.56,1.954,1.954,0,0,1-1.019-.329,4.5,4.5,0,0,1-2.4-3.057s-.044-.756-.122-1.449a1.873,1.873,0,0,0-.922,1.071c-.143.57-.1,1.182-.188,1.762A29.9,29.9,0,0,0,918.521,1952.633Z" transform="translate(-918.521 -1943.397)" fill="#375a64"/>
              </g>
              <g id="Grupo_54898" data-name="Grupo 54898" transform="translate(90.567 91.807)">
                <path id="Trazado_118388" data-name="Trazado 118388" d="M960.637,1945.649a4.206,4.206,0,0,0,.4,2.087c.5.916,3.375,2.392,4.831,2.947a8.788,8.788,0,0,1,4.058,3.486c1.961,2.71,4.785,5.551,8.09,6.705a22.962,22.962,0,0,0,13.645.122c5.557-1.55,5.7-4.925,5.7-4.925s0-3.163-1.452-3.526S960.637,1945.649,960.637,1945.649Z" transform="translate(-959.402 -1931.014)" fill="#1a2e35"/>
                <path id="Trazado_118389" data-name="Trazado 118389" d="M959.319,1939.664a9.1,9.1,0,0,0,1.134,3.787c1.883,2.152,5.889,2.538,8.458,5.475s5.729,7.538,13.271,8.309,12.937-2.113,14.106-4.348-.268-4.1-5.254-6.217c-5.293-2.243-11.96-8.938-11.963-8.941-2.206-2.3-3.381-5.516-4.767-8.341-.135-.274-.34-.592-.645-.57-.369.026-.486.493-.646.827a2.384,2.384,0,0,1-1.329,1.028,18.086,18.086,0,0,1-5.874,1.641,1.668,1.668,0,0,0-1.228.468,1.494,1.494,0,0,0-.134,1.153,11.636,11.636,0,0,0,.352,1.466,1.476,1.476,0,0,1,.1.725.9.9,0,0,1-.783.649,1.958,1.958,0,0,1-1.049-.216,4.387,4.387,0,0,1-2.621-2.8,14.242,14.242,0,0,0-.375-1.406,1.871,1.871,0,0,0-.8,1.164c-.082.583.03,1.187,0,1.773A29.788,29.788,0,0,0,959.319,1939.664Z" transform="translate(-959.217 -1928.817)" fill="#375a64"/>
              </g>
              <path id="Trazado_118390" data-name="Trazado 118390" d="M855.09,1825.109l17.429-1.887,35.355,1.909s21.238,13.581,36.648,24.421c4.481,3.152,9.224,6.6,10.012,13.2,1.12,9.366,7.262,55.178,7.262,55.178-2.172,5.587-13.427,6.522-16.169,4.895-1.583-6.424-2-7.722-4.844-16.525-2.079-6.434-3.555-12.02-5.276-17.282a78.712,78.712,0,0,1-3.122-17.844l-22.483-14.1c4.951,5.041,6.573,6.677,9.171,9.3,2.278,2.3,3.779,5.19,4.451,12.644,1.329,14.768,3.647,48.006,3.813,52.52-1.862,2.607-10.957,5.795-16.92,2.8-1.623-8.5-3.466-14.923-5.889-26.656-2.673-12.943-3.247-21.523-2.9-26.191,0,0-10.937-6.731-23.4-14.938-5.3-3.49-12.827-7.18-16.482-11.212C855.476,1848.423,854.853,1837.758,855.09,1825.109Z" transform="translate(-855.049 -1823.222)" fill="#0f2771"/>
              <path id="Trazado_118391" data-name="Trazado 118391" d="M916.235,1858.334l-12.694-14.416s6.775-2.278,10.319-11.07c0,0-.79,8.333-5.785,11.995l5.941,8.058,24.7,19.531Z" transform="translate(-861.381 -1824.479)" fill="#1a2e35"/>
            </g>
            <g id="Top" transform="translate(8.796)">
              <g id="Grupo_54902" data-name="Grupo 54902" transform="translate(0 48.48)">
                <g id="Grupo_54900" data-name="Grupo 54900" transform="translate(5.384 67.837)">
                  <path id="Trazado_118392" data-name="Trazado 118392" d="M855.03,1830.707s-.745,4.4.418,6.347c5.276,2.687,13.481,3.786,29.074,1.591,19.12-2.689,23.134-11.975,23.653-12.909s.068-3.188-.468-5.487Z" transform="translate(-854.795 -1820.249)" fill="#36c"/>
                </g>
                <g id="Grupo_54901" data-name="Grupo 54901" transform="translate(5.384 67.837)" opacity="0.35">
                  <path id="Trazado_118393" data-name="Trazado 118393" d="M855.03,1830.707s-.745,4.4.418,6.347c5.276,2.687,13.481,3.786,29.074,1.591,19.12-2.689,23.134-11.975,23.653-12.909s.068-3.188-.468-5.487Z" transform="translate(-854.795 -1820.249)" fill="#36c"/>
                </g>
                <path id="Trazado_118394" data-name="Trazado 118394" d="M904.605,1761.745c-2.329-13.82-7.736-18.614-15.285-19l-16.958-.517c-3.584,1.074-15,3.363-19.873,5.015s-4.307,13.547-2.892,20.816,1.928,13.006,2.023,25.049c.231,11.656-.385,24.434,2.6,27.416,10.77,6.29,42.147,4.032,52.677-10.458,2.45-4.528.072-11.493-.352-18.659C905.787,1778.575,905.377,1766.324,904.605,1761.745Z" transform="translate(-848.602 -1742.224)" fill="#36c"/>
                <path id="Trazado_118395" data-name="Trazado 118395" d="M904.605,1761.745c-2.329-13.82-7.736-18.614-15.285-19l-16.958-.517c-3.584,1.074-15,3.363-19.873,5.015s-4.307,13.547-2.892,20.816,1.928,13.006,2.023,25.049c.231,11.656-.385,24.434,2.6,27.416,10.77,6.29,42.147,4.032,52.677-10.458,2.45-4.528.072-11.493-.352-18.659C905.787,1778.575,905.377,1766.324,904.605,1761.745Z" transform="translate(-848.602 -1742.224)" fill="#fff" opacity="0.2"/>
                <path id="Trazado_118396" data-name="Trazado 118396" d="M868.048,1743.911c2.394-.689,5.65-1.327,6.855-1.687l11.263.343h0c3.3,1.824,7.766,6.276,2.7,9s-13.638.616-17.09-2.577A13.407,13.407,0,0,1,868.048,1743.911Z" transform="translate(-851.141 -1742.224)" fill="#2b454e"/>
              </g>
              <g id="Grupo_54907" data-name="Grupo 54907" transform="translate(8.561)">
                <g id="Grupo_54905" data-name="Grupo 54905">
                  <g id="Grupo_54904" data-name="Grupo 54904">
                    <path id="Trazado_118397" data-name="Trazado 118397" d="M900.385,1693.615a6.066,6.066,0,0,0-4.408-5.776,17.89,17.89,0,0,0-6-.157c-3.739.328-7.47-.481-11.2-.938a25.027,25.027,0,0,0-7.51.008,13.923,13.923,0,0,0-6.09,2.553c-2.433,2-3.189,3.772-3.243,7.343-2.307,1.391-2.831,4.142-2.9,7.237-.079,3.833,1.881,7.352,3.442,10.731,0,0,3.968,8.587,4.9,10.271,1.088,1.955,2.04,3.592,2.04,3.592l-.654-7.232c2.624-.332,4.765.4,7.232-.619a46.793,46.793,0,0,0,6.7-3.464,67.236,67.236,0,0,0,6.437-4.558c1.031-.819,2.028-1.678,3.04-2.521a16.164,16.164,0,0,1,2.1-1.924,10.528,10.528,0,0,1,1.915-.723,7.351,7.351,0,0,0,3.788-2.683,5.67,5.67,0,0,0,.835-3.331,4.352,4.352,0,0,0-2.334-3.788C899.437,1697.3,900.441,1695.021,900.385,1693.615Z" transform="translate(-858.526 -1686.463)" fill="#e1e1e1"/>
                    <path id="Trazado_118398" data-name="Trazado 118398" d="M874.349,1699.078c.083,2.261-1.937,6.336-5.037,9.243a22.662,22.662,0,0,1,.458,7.626,4.175,4.175,0,0,1-.519,1.55,1.865,1.865,0,0,1-1.313.9c-.734.081-1.054-.356-1.3-.925a18.662,18.662,0,0,0-1.2-2.1,4.215,4.215,0,0,0-.684-.8c-1.158-.995-4.525-2.136-5.933,1.45-1.459,3.715,1.652,8.45,4.352,9.1,4.655,1.116,5.541-2.056,5.541-2.056l.476,15.236c1.431,3.821,8.72,7.311,14.453,6.356s3.774-4.376,1.348-6.641l.106-5.305a22.526,22.526,0,0,0,6.131-.446c2.371-.55,4.258-2.862,5.116-6.539,1.637-7.014.961-16.851-.083-21.176-1.028-4.265-3.457-7.045-4.778-7.643.083.931-.6,3.213-5.224,4.025C881.354,1701.786,877.946,1700.409,874.349,1699.078Z" transform="translate(-858.448 -1687.826)" fill="#ffaaa8"/>
                    <g id="Grupo_54903" data-name="Grupo 54903" transform="translate(16.665 23.213)">
                      <path id="Trazado_118399" data-name="Trazado 118399" d="M877.62,1715.384a.3.3,0,0,1,.039-.11c.023-.04.063-.055.089-.089.053-.072.255-.077.341-.089s.183-.023.276-.031a3.92,3.92,0,0,1,.551,0,5.914,5.914,0,0,1,1.054.162c.165.042.117.409-.049.372a4.17,4.17,0,0,0-1.114-.1c-.181.01-.362.023-.541.045q-.145.018-.287.044c-.1.018-.214.072-.3,0A.22.22,0,0,1,877.62,1715.384Z" transform="translate(-877.616 -1713.409)" fill="#ff9090"/>
                      <path id="Trazado_118400" data-name="Trazado 118400" d="M879.244,1716.572a1.424,1.424,0,0,1,.449-.048.65.65,0,0,1,.159.036,1.1,1.1,0,0,1,.2.134c.071.05.069.245-.025.273-.136.039-.268.086-.405.118-.118.027-.237.047-.352.084-.031.01-.062.021-.093.032-.014.005-.09.024-.014,0a1.066,1.066,0,0,0-.191.089c-.045.023-.089.051-.136.073a.356.356,0,0,1-.25.045.207.207,0,0,1-.143-.186C878.4,1716.839,878.939,1716.639,879.244,1716.572Z" transform="translate(-877.724 -1713.601)" fill="#ff9090"/>
                      <path id="Trazado_118401" data-name="Trazado 118401" d="M879.3,1718.542a2.159,2.159,0,0,1,.987-.663.107.107,0,0,1,.1.042.207.207,0,0,1,.038.108c.007.078-.022.208-.106.242s-.159.071-.237.113c-.039.022-.078.044-.117.069-.018.01-.036.023-.054.034s-.016.01,0,0l-.045.032a2.516,2.516,0,0,0-.2.165c-.067.062-.122.113-.195.184a.125.125,0,0,1-.2-.034A.29.29,0,0,1,879.3,1718.542Z" transform="translate(-877.827 -1713.777)" fill="#ff9090"/>
                      <path id="Trazado_118402" data-name="Trazado 118402" d="M900.836,1713.646c.041-.024.076-.056.117-.08l.145-.082c.095-.051.19-.1.286-.15a2,2,0,0,1,.49-.168.174.174,0,0,1,.207.181.359.359,0,0,1-.176.332,2.066,2.066,0,0,1-.551.191c-.09.016-.18.031-.271.042l-.1.012c-.038,0-.074,0-.112,0-.06.006-.09-.076-.094-.121A.156.156,0,0,1,900.836,1713.646Z" transform="translate(-880.639 -1713.162)" fill="#ff9090"/>
                      <path id="Trazado_118403" data-name="Trazado 118403" d="M901.05,1715.273a.221.221,0,0,0,.037.118.115.115,0,0,0,.109.05.324.324,0,0,1,.112-.005l.023.005c.036.012.07.028.1.042l.043.017-.06-.025a.59.59,0,0,0,.107.043c.021,0,.041.01.062.016l.026.011a.263.263,0,0,0,.315-.128.418.418,0,0,0,.07-.183.253.253,0,0,0-.049-.184.43.43,0,0,0-.192-.143.58.58,0,0,0-.215-.017.815.815,0,0,0-.364.128.271.271,0,0,0-.1.112A.3.3,0,0,0,901.05,1715.273Z" transform="translate(-880.676 -1713.388)" fill="#ff9090"/>
                      <path id="Trazado_118404" data-name="Trazado 118404" d="M883.944,1725.337a1.479,1.479,0,0,1,.843-.949,1.028,1.028,0,0,1,.595.041c.066.018.145.051.15.119s-.091.123-.17.136a1.271,1.271,0,0,0-.729.234,1.6,1.6,0,0,0-.2.315c-.059.1-.283.443-.429.34A.227.227,0,0,1,883.944,1725.337Z" transform="translate(-878.441 -1714.624)" fill="#ff9090"/>
                    </g>
                  </g>
                  <path id="Trazado_118405" data-name="Trazado 118405" d="M886.981,1737.094c-4.269-.23-7.742-.69-10.182-1.866-1.79-.862-3.418-3.7-3.912-4.7,0,0,.264,3.948,2.7,6.048,3.458,2.98,11.351,2.692,11.351,2.692Z" transform="translate(-860.333 -1692.216)" fill="#ff9090"/>
                </g>
                <g id="Grupo_54906" data-name="Grupo 54906" transform="translate(18.436 18.085)">
                  <path id="Trazado_118406" data-name="Trazado 118406" d="M885.977,1715.178c.168.867-.918-.335-1.753-.177s-1.529,1.741-1.7.873a1.777,1.777,0,0,1,1.486-1.866A1.654,1.654,0,0,1,885.977,1715.178Z" transform="translate(-880.025 -1708.141)" fill="#1a2e35"/>
                  <path id="Trazado_118407" data-name="Trazado 118407" d="M898.545,1713.513c.167.867-.918-.335-1.753-.177s-1.53,1.741-1.7.874a1.777,1.777,0,0,1,1.486-1.867A1.654,1.654,0,0,1,898.545,1713.513Z" transform="translate(-881.666 -1707.924)" fill="#1a2e35"/>
                  <path id="Trazado_118408" data-name="Trazado 118408" d="M883.491,1709.937l-3.669,1.688a2.119,2.119,0,0,1,1.028-2.747A1.969,1.969,0,0,1,883.491,1709.937Z" transform="translate(-879.653 -1707.452)" fill="#375a64"/>
                  <path id="Trazado_118409" data-name="Trazado 118409" d="M885.589,1726.219l4.985,1.839a2.61,2.61,0,0,1-3.37,1.667A2.782,2.782,0,0,1,885.589,1726.219Z" transform="translate(-880.408 -1709.739)" fill="#c76668"/>
                  <path id="Trazado_118410" data-name="Trazado 118410" d="M899.188,1709.87l-3.739-1.293a1.91,1.91,0,0,1,2.464-1.2A2.013,2.013,0,0,1,899.188,1709.87Z" transform="translate(-881.715 -1707.264)" fill="#375a64"/>
                  <path id="Trazado_118411" data-name="Trazado 118411" d="M891.006,1721.286l4.874-2.181-6.338-8.669Z" transform="translate(-880.944 -1707.678)" fill="#ff9090"/>
                </g>
              </g>
            </g>
            <path id="Trazado_118412" data-name="Trazado 118412" d="M888.557,1730.038a2.325,2.325,0,0,0-3.039-2.121,2.717,2.717,0,0,0,1.7,2.016A2.523,2.523,0,0,0,888.557,1730.038Z" transform="translate(-844.626 -1691.861)" fill="#ff9090"/>
            <path id="Trazado_118413" data-name="Trazado 118413" d="M885.236,1750.238c-.647-2.243-1.423-3.459-4.229-3.876-3.416-.509-8.448-3.817-10.355-6.662l.131,4.182s.669,3.163,6.192,5.6A13.312,13.312,0,0,0,885.236,1750.238Z" transform="translate(-842.685 -1693.414)" fill="#e1e1e1"/>
            <path id="Trazado_118414" data-name="Trazado 118414" d="M887.426,1750.41a8.122,8.122,0,0,1,1.9-4.359c.622-1.027-.554-2.282-.554-2.282l.056-2.756s2.094,2.021,2.2,3.577S893.313,1749.533,887.426,1750.41Z" transform="translate(-844.875 -1693.586)" fill="#e1e1e1"/>
            <path id="Trazado_118415" data-name="Trazado 118415" d="M882.9,1747.024c-2.227-.942-5.192,6.458-5.192,6.458s-6.251-1.735-8.906-4.123c-3.822-3.437-4.06-5.465-4.06-5.465s4-6.711,5.031-6.91l.072,1.988a11.887,11.887,0,0,0,4.864,4.558C878.389,1745.6,882,1745.895,882.9,1747.024Z" transform="translate(-841.913 -1693.06)" fill="#fafafa"/>
            <path id="Trazado_118416" data-name="Trazado 118416" d="M888.5,1747.2c.545-.809,1.825-.784,2.78.583.576.825,2.523,4.339,2.523,4.339a13.385,13.385,0,0,0-.484-7.223c-1.376-3.776-2.86-5.786-4.315-5.871l-.09,4.483a2.938,2.938,0,0,1,.083,1.963A15.254,15.254,0,0,0,888.5,1747.2Z" transform="translate(-845.016 -1693.326)" fill="#fafafa"/>
            <g id="Arm" transform="translate(0 53.088)">
              <g id="Grupo_54908" data-name="Grupo 54908">
                <path id="Trazado_118417" data-name="Trazado 118417" d="M852.458,1747.524c2.709.54,7.355,10.789,7.167,21.3l.905,32.988,18.878,8.066c-3.432,1.984-6.093,9.383-6.309,14.606-2.593-.287-16.723-2.693-25.817-6.761-4.217-1.886-6.486-3.348-7.141-15.192-.726-13.11-2.212-27.551-1.436-37.508C839.513,1754.625,842.352,1750.372,852.458,1747.524Z" transform="translate(-838.485 -1747.524)" fill="#36c"/>
                <path id="Trazado_118418" data-name="Trazado 118418" d="M852.458,1747.524c2.709.54,7.355,10.789,7.167,21.3l.905,32.988,18.878,8.066c-3.432,1.984-6.093,9.383-6.309,14.606-2.593-.287-16.723-2.693-25.817-6.761-4.217-1.886-6.486-3.348-7.141-15.192-.726-13.11-2.212-27.551-1.436-37.508C839.513,1754.625,842.352,1750.372,852.458,1747.524Z" transform="translate(-838.485 -1747.524)" fill="#36c" opacity="0.35"/>
              </g>
              <path id="Trazado_118419" data-name="Trazado 118419" d="M862.187,1809.64c-3.979-.762-8.466,1.071-11.006,3.472a10,10,0,0,1,5.5-4.691c3.979-1.406,5.45-.765,5.45-.765Z" transform="translate(-840.143 -1755.356)" fill="#36c" opacity="0.2"/>
              <path id="Trazado_118420" data-name="Trazado 118420" d="M883.253,1818.814s3.164,1.064,5.523,2.1a13.639,13.639,0,0,0-5.523,4.5c-2.42,3.319-2.342,8.97-2.342,8.97l-5.089-.908a15.5,15.5,0,0,1,1.462-9.583C879.785,1819.3,883.253,1818.814,883.253,1818.814Z" transform="translate(-843.332 -1756.832)" fill="#2b454e"/>
            </g>
          </g>
        </g>
        <g id="Grupo_54940" data-name="Grupo 54940" transform="translate(35.22 68.938)">
          <g id="Grupo_54916" data-name="Grupo 54916">
            <g id="Grupo_54912" data-name="Grupo 54912" transform="translate(7.659 54.514)">
              <g id="Grupo_54909" data-name="Grupo 54909" transform="translate(76.617 78.169)">
                <path id="Trazado_118421" data-name="Trazado 118421" d="M969.379,1919.8v84.024l-2.483-1.434v-84.024Z" transform="translate(-966.895 -1918.362)" fill="#36c"/>
                <path id="Trazado_118422" data-name="Trazado 118422" d="M969.379,1919.8v84.024l-2.483-1.434v-84.024Z" transform="translate(-966.895 -1918.362)" fill="#36c" opacity="0.4"/>
                <path id="Trazado_118423" data-name="Trazado 118423" d="M969.751,1919.8v84.024l2.483-1.434v-84.024Z" transform="translate(-967.268 -1918.362)" fill="#36c"/>
                <path id="Trazado_118424" data-name="Trazado 118424" d="M969.751,1919.8v84.024l2.483-1.434v-84.024Z" transform="translate(-967.268 -1918.362)" fill="#36c" opacity="0.25"/>
              </g>
              <g id="Grupo_54910" data-name="Grupo 54910" transform="translate(0 33.934)">
                <path id="Trazado_118425" data-name="Trazado 118425" d="M881.256,1868.918v84.024l-2.483-1.433v-84.025Z" transform="translate(-878.773 -1867.484)" fill="#36c"/>
                <path id="Trazado_118426" data-name="Trazado 118426" d="M881.256,1868.918v84.024l-2.483-1.433v-84.025Z" transform="translate(-878.773 -1867.484)" fill="#36c" opacity="0.4"/>
                <path id="Trazado_118427" data-name="Trazado 118427" d="M881.628,1868.918v84.024l2.483-1.433v-84.025Z" transform="translate(-879.146 -1867.484)" fill="#36c"/>
                <path id="Trazado_118428" data-name="Trazado 118428" d="M881.628,1868.918v84.024l2.483-1.433v-84.025Z" transform="translate(-879.146 -1867.484)" fill="#36c" opacity="0.25"/>
              </g>
              <g id="Grupo_54911" data-name="Grupo 54911" transform="translate(204.35 4.422)">
                <path id="Trazado_118429" data-name="Trazado 118429" d="M1116.295,1834.974V1919l-2.483-1.433V1833.54Z" transform="translate(-1113.811 -1833.54)" fill="#36c"/>
                <path id="Trazado_118430" data-name="Trazado 118430" d="M1116.667,1834.974V1919l2.483-1.433V1833.54Z" transform="translate(-1114.184 -1833.54)" fill="#36c"/>
              </g>
              <path id="Trazado_118431" data-name="Trazado 118431" d="M957.874,1897.892v17.69l-79.1-45.668v-17.689Z" transform="translate(-878.773 -1831.558)" fill="#36c"/>
              <path id="Trazado_118432" data-name="Trazado 118432" d="M957.874,1897.892v17.69l-79.1-45.668v-17.689Z" transform="translate(-878.773 -1831.558)" fill="#36c" opacity="0.4"/>
              <path id="Trazado_118433" data-name="Trazado 118433" d="M969.752,1912.478l130.216-75.18v-8.844l-130.217,75.18Z" transform="translate(-890.652 -1828.454)" fill="#36c"/>
              <path id="Trazado_118434" data-name="Trazado 118434" d="M969.752,1912.478l130.216-75.18v-8.844l-130.217,75.18Z" transform="translate(-890.652 -1828.454)" fill="#36c" opacity="0.25"/>
            </g>
            <g id="Desk">
              <g id="Grupo_54913" data-name="Grupo 54913">
                <path id="Trazado_118435" data-name="Trazado 118435" d="M956.723,1895.447l-86.76-50.09,137.876-79.6,86.759,50.091Z" transform="translate(-869.963 -1765.754)" fill="#36c"/>
                <path id="Trazado_118436" data-name="Trazado 118436" d="M956.723,1895.447l-86.76-50.09,137.876-79.6,86.759,50.091Z" transform="translate(-869.963 -1765.754)" fill="#fff" opacity="0.6"/>
              </g>
              <g id="Grupo_54914" data-name="Grupo 54914" transform="translate(0 79.603)">
                <path id="Trazado_118437" data-name="Trazado 118437" d="M869.963,1857.311v4.423l86.759,50.091V1907.4Z" transform="translate(-869.963 -1857.311)" fill="#36c"/>
                <path id="Trazado_118438" data-name="Trazado 118438" d="M869.963,1857.311v4.423l86.759,50.091V1907.4Z" transform="translate(-869.963 -1857.311)" fill="#fff" opacity="0.25"/>
              </g>
              <g id="Grupo_54915" data-name="Grupo 54915" transform="translate(86.759 50.091)">
                <path id="Trazado_118439" data-name="Trazado 118439" d="M969.752,1907.392l137.876-79.6v-4.423l-137.876,79.6Z" transform="translate(-969.752 -1823.367)" fill="#36c"/>
                <path id="Trazado_118440" data-name="Trazado 118440" d="M969.752,1907.392l137.876-79.6v-4.423l-137.876,79.6Z" transform="translate(-969.752 -1823.367)" fill="#fff" opacity="0.4"/>
              </g>
            </g>
          </g>
          <g id="Clipboard" transform="translate(119.809 25.574)">
            <g id="List">
              <g id="Grupo_54917" data-name="Grupo 54917" transform="translate(0 0.001)">
                <path id="Trazado_118441" data-name="Trazado 118441" d="M1007.767,1815.381v.843a.921.921,0,0,0,.417.723l46.881,27.067a.921.921,0,0,0,.834,0l33.584-19.389a.922.922,0,0,0,.417-.722v-.844a.922.922,0,0,0-.417-.722l-46.881-27.067a.921.921,0,0,0-.834,0l-33.583,19.389A.921.921,0,0,0,1007.767,1815.381Z" transform="translate(-1007.765 -1795.169)" fill="#36c"/>
                <path id="Trazado_118442" data-name="Trazado 118442" d="M1096.7,1826.459c.172.133.153.324-.056.444l-33.584,19.389a.834.834,0,0,1-.416.1v1.808a.865.865,0,0,0,.416-.1l33.584-19.39a.918.918,0,0,0,.417-.722v-.844A.935.935,0,0,0,1096.7,1826.459Z" transform="translate(-1014.931 -1799.255)" fill="#36c" opacity="0.5"/>
                <path id="Trazado_118443" data-name="Trazado 118443" d="M1008.118,1817.639a.07.07,0,0,0-.021.017.259.259,0,0,0-.035.029l-.014.012a.692.692,0,0,0-.055.057l-.005.008a.947.947,0,0,0-.213.45.706.706,0,0,0-.01.1v.844a.93.93,0,0,0,.417.722l46.882,27.067a.859.859,0,0,0,.417.1v-1.808a.829.829,0,0,1-.418-.1l-46.882-27.067a.348.348,0,0,1-.158-.165.217.217,0,0,1,.05-.229A.342.342,0,0,1,1008.118,1817.639Z" transform="translate(-1007.765 -1798.103)" fill="#36c" opacity="0.6"/>
              </g>
              <g id="Grupo_54918" data-name="Grupo 54918" transform="translate(0.004)" opacity="0.3">
                <path id="Trazado_118444" data-name="Trazado 118444" d="M1007.8,1818.177a.708.708,0,0,0-.029.157c0-.016,0-.033.008-.05A.958.958,0,0,1,1007.8,1818.177Z" transform="translate(-1007.77 -1798.172)" fill="#36c"/>
                <path id="Trazado_118445" data-name="Trazado 118445" d="M1089.52,1822.818l-33.583,19.388a.853.853,0,0,1-.417.1.865.865,0,0,1-.418-.1l-46.882-27.067a.317.317,0,0,1-.157-.165.216.216,0,0,1,.05-.227.111.111,0,0,1,.033-.034s0,0,.008-.008a.606.606,0,0,1,.066-.045l33.583-19.393a.925.925,0,0,1,.836,0l46.881,27.067a.549.549,0,0,1,.054.036l0,0C1089.748,1822.512,1089.727,1822.7,1089.52,1822.818Z" transform="translate(-1007.806 -1795.168)" fill="#36c"/>
                <path id="Trazado_118446" data-name="Trazado 118446" d="M1008.055,1817.74c-.013.012-.021.024-.033.037l0-.009A.179.179,0,0,0,1008.055,1817.74Z" transform="translate(-1007.803 -1798.115)" fill="#36c" opacity="0.15"/>
              </g>
              <g id="Grupo_54919" data-name="Grupo 54919" transform="translate(12.694 6.269)">
                <path id="Trazado_118447" data-name="Trazado 118447" d="M1022.368,1804.327c0,.757,1.053,1.549,1.343,2.222a1.391,1.391,0,0,1,.062.169c-.145.477-.586.808-.679,1.128a.773.773,0,0,0-.034.218c0,.121,0,.563,0,.636a3.077,3.077,0,0,0,.06.443,3,3,0,0,1-.11.466,2.765,2.765,0,0,0-.154.8c0,.109,0,.52,0,.617a.557.557,0,0,0,.316.572l1.881,1.086,14.073-8.127v-.625l-1.88-1.085a1.669,1.669,0,0,0-.948-.182h-.124c-.314.005-.729.032-1.286.091a11.489,11.489,0,0,1-2.12.048c-.193-.011-.365-.022-.544-.021a3.842,3.842,0,0,0-.389.018,9.083,9.083,0,0,1-3.281.364l-.051-.007a26.956,26.956,0,0,0-3.825-.776h-.129a3.109,3.109,0,0,0-1.489.4c-.506.293-.693.6-.695.919C1022.366,1803.81,1022.368,1804.228,1022.368,1804.327Zm2.135.436a.871.871,0,0,1,.339-.329,1.608,1.608,0,0,1,.35-.147,3.593,3.593,0,0,1,2.576.389,1.8,1.8,0,0,1,.757.737.871.871,0,0,1-.338.328,2.817,2.817,0,0,1-1.913.147,3.627,3.627,0,0,1-1.016-.389A1.789,1.789,0,0,1,1024.5,1804.763Z" transform="translate(-1022.366 -1802.379)" fill="#1a2e35"/>
                <path id="Trazado_118448" data-name="Trazado 118448" d="M1036.3,1802.662h-.124c-.314.005-.729.032-1.286.091a11.489,11.489,0,0,1-2.12.048c-.193-.011-.365-.022-.544-.021a3.842,3.842,0,0,0-.389.018,9.083,9.083,0,0,1-3.281.364l-.051-.007a26.956,26.956,0,0,0-3.825-.776h-.129a3.109,3.109,0,0,0-1.489.4c-1.719.994.237,2.189.649,3.144s-.48,1.45-.617,1.922.243.728-.083,1.762-.076,1.223.163,1.362l1.881,1.086,14.073-8.127-1.88-1.085A1.669,1.669,0,0,0,1036.3,1802.662Zm-10.549,7.911a.874.874,0,0,1-.774-.064c-.243-.141-.3-.343-.114-.448a.872.872,0,0,1,.776.065C1025.883,1810.266,1025.937,1810.467,1025.751,1810.573Zm2.436-4.832a2.817,2.817,0,0,1-1.913.147,3.627,3.627,0,0,1-1.016-.389c-.923-.533-1.109-1.289-.417-1.69a1.608,1.608,0,0,1,.35-.147,3.593,3.593,0,0,1,2.576.389C1028.693,1804.585,1028.881,1805.34,1028.188,1805.741Zm8.422-1.437a.878.878,0,0,1-.776-.063c-.245-.141-.294-.341-.109-.447a.874.874,0,0,1,.774.063C1036.743,1804,1036.792,1804.2,1036.61,1804.3Z" transform="translate(-1022.366 -1802.379)" fill="#2b454e"/>
              </g>
              <g id="Grupo_54920" data-name="Grupo 54920" transform="translate(7.054 3.677)">
                <path id="Trazado_118449" data-name="Trazado 118449" d="M1055.239,1839.814l29.224-16.873a.551.551,0,0,0,.25-.433v-.325a.554.554,0,0,0-.25-.434l-38.61-22.291a.55.55,0,0,0-.5,0l-29.224,16.872a.552.552,0,0,0-.25.433v.326a.554.554,0,0,0,.25.434l38.61,22.291A.551.551,0,0,0,1055.239,1839.814Z" transform="translate(-1015.878 -1799.398)" fill="#fafafa"/>
                <path id="Trazado_118450" data-name="Trazado 118450" d="M1090.4,1825.159c.073.077.054.177-.06.243l-29.224,16.873a.5.5,0,0,1-.25.06v.9a.49.49,0,0,0,.25-.06l29.224-16.873a.542.542,0,0,0,.25-.431l0-.326A.557.557,0,0,0,1090.4,1825.159Z" transform="translate(-1021.752 -1802.762)" fill="#f0f0f0"/>
                <path id="Trazado_118451" data-name="Trazado 118451" d="M1016.076,1818.917a.455.455,0,0,0-.069.068l-.029.038a.669.669,0,0,0-.071.135.46.46,0,0,0-.024.093.5.5,0,0,0,0,.062v.324a.555.555,0,0,0,.25.434l38.61,22.291a.5.5,0,0,0,.25.06v-.9a.531.531,0,0,1-.25-.06l-38.61-22.291C1016.01,1819.1,1015.993,1819,1016.076,1818.917Z" transform="translate(-1015.878 -1801.947)" fill="#e1e1e1"/>
              </g>
              <g id="Grupo_54921" data-name="Grupo 54921" transform="translate(17.208 4.783)">
                <path id="Trazado_118452" data-name="Trazado 118452" d="M1027.559,1812.456c0,.108,0,.527,0,.63a1.451,1.451,0,0,0,.328.86l17.22-9.937v-.625a3.768,3.768,0,0,0-1.68-.423h-.022a2.8,2.8,0,0,0-1.146.236c-1.247.568-1.613.746-2.376,1.068a1.259,1.259,0,0,1-1.172-.168.126.126,0,0,1-.026-.022l-.516-.473-1.394-1.292a.853.853,0,0,0-.661-.211h-.035a2.14,2.14,0,0,0-.329.036,4.713,4.713,0,0,1-1.43-.022,3.122,3.122,0,0,1-1.552-.593,3.616,3.616,0,0,0-2.4-.851h-.071a3.517,3.517,0,0,0-1.589.378,1.706,1.706,0,0,0-1.041,1.86,1.675,1.675,0,0,0,.6,1.606,1.276,1.276,0,0,1,.383.734,1.711,1.711,0,0,1-.336.8.659.659,0,0,0-.186.418c0,.148,0,.533,0,.627a.4.4,0,0,0,.153.312l1.615,1.48.516.473a.664.664,0,0,1,.055.058,1.043,1.043,0,0,1-.117.17l-2.084,1.626A1.739,1.739,0,0,0,1027.559,1812.456Zm4.6-9.443a1.222,1.222,0,0,1-.605.638,2.385,2.385,0,0,1-1.808.105,1.963,1.963,0,0,1-.688-.395,1.235,1.235,0,0,1-.332-.482,1.221,1.221,0,0,1,.608-.64,1.882,1.882,0,0,1,.24-.107,2.349,2.349,0,0,1,2.253.4A1.235,1.235,0,0,1,1032.158,1803.013Z" transform="translate(-1027.558 -1800.669)" fill="#2b454e"/>
                <path id="Trazado_118453" data-name="Trazado 118453" d="M1043.428,1802.96h-.022a2.8,2.8,0,0,0-1.146.236c-1.247.568-1.613.746-2.376,1.068a1.259,1.259,0,0,1-1.172-.168.13.13,0,0,1-.026-.022l-.516-.473-1.394-1.292a.853.853,0,0,0-.661-.211h-.035a2.139,2.139,0,0,0-.329.036,4.713,4.713,0,0,1-1.43-.022,3.121,3.121,0,0,1-1.552-.593,3.617,3.617,0,0,0-2.4-.851h-.07a3.517,3.517,0,0,0-1.589.378,1.645,1.645,0,0,0-.442,2.84,1.7,1.7,0,0,1,.047,2.16c-.4.475-.033.733-.033.733l1.615,1.479.516.473c.388.353-.063.853-.063.853l-2.084,1.626c-.9.811-.849,1.47-.381,2.108l17.22-9.937A3.768,3.768,0,0,0,1043.428,1802.96Zm-11.6-1.056a1.011,1.011,0,0,1-.271,1.747,2.385,2.385,0,0,1-1.808.105,1.962,1.962,0,0,1-.688-.395,1.011,1.011,0,0,1,.276-1.747,1.794,1.794,0,0,1,.24-.106A2.346,2.346,0,0,1,1031.824,1801.9Z" transform="translate(-1027.558 -1800.669)" fill="#375a64"/>
              </g>
            </g>
            <path id="Trazado_118454" data-name="Trazado 118454" d="M1027.634,1820.374l24.709-14.267-2.52-1.455-24.709,14.267Z" transform="translate(-1010.03 -1796.406)" fill="#36c"/>
            <g id="Grupo_54927" data-name="Grupo 54927" transform="translate(36.226 11.634)" opacity="0.3">
              <g id="Grupo_54922" data-name="Grupo 54922">
                <path id="Trazado_118455" data-name="Trazado 118455" d="M1049.639,1814.581a.207.207,0,0,1-.1-.387l9.732-5.618a.207.207,0,0,1,.207.359l-9.732,5.617A.2.2,0,0,1,1049.639,1814.581Z" transform="translate(-1049.432 -1808.549)" fill="#375a64"/>
              </g>
              <g id="Grupo_54923" data-name="Grupo 54923" transform="translate(1.679 0.97)">
                <path id="Trazado_118456" data-name="Trazado 118456" d="M1051.57,1815.7a.207.207,0,0,1-.1-.386l9.732-5.619a.207.207,0,0,1,.207.358l-9.732,5.619A.218.218,0,0,1,1051.57,1815.7Z" transform="translate(-1051.364 -1809.664)" fill="#375a64"/>
              </g>
              <g id="Grupo_54924" data-name="Grupo 54924" transform="translate(3.359 1.94)">
                <path id="Trazado_118457" data-name="Trazado 118457" d="M1053.5,1816.812a.207.207,0,0,1-.1-.386l9.732-5.619a.207.207,0,0,1,.208.359l-9.732,5.618A.211.211,0,0,1,1053.5,1816.812Z" transform="translate(-1053.296 -1810.78)" fill="#375a64"/>
              </g>
              <g id="Grupo_54925" data-name="Grupo 54925" transform="translate(5.038 2.909)">
                <path id="Trazado_118458" data-name="Trazado 118458" d="M1055.434,1817.927a.207.207,0,0,1-.1-.386l9.731-5.618a.207.207,0,1,1,.207.358l-9.732,5.618A.2.2,0,0,1,1055.434,1817.927Z" transform="translate(-1055.227 -1811.895)" fill="#375a64"/>
              </g>
              <g id="Grupo_54926" data-name="Grupo 54926" transform="translate(6.718 3.879)">
                <path id="Trazado_118459" data-name="Trazado 118459" d="M1057.365,1819.043a.208.208,0,0,1-.1-.387l9.732-5.618a.206.206,0,1,1,.207.357l-9.732,5.619A.2.2,0,0,1,1057.365,1819.043Z" transform="translate(-1057.158 -1813.01)" fill="#375a64"/>
              </g>
            </g>
            <g id="Grupo_54934" data-name="Grupo 54934" transform="translate(49.67 19.388)" opacity="0.3">
              <g id="Grupo_54928" data-name="Grupo 54928">
                <path id="Trazado_118460" data-name="Trazado 118460" d="M1065.1,1823.5a.208.208,0,0,1-.1-.387l9.732-5.618a.207.207,0,1,1,.207.358l-9.732,5.618A.205.205,0,0,1,1065.1,1823.5Z" transform="translate(-1064.894 -1817.467)" fill="#375a64"/>
              </g>
              <g id="Grupo_54929" data-name="Grupo 54929" transform="translate(1.679 0.97)">
                <path id="Trazado_118461" data-name="Trazado 118461" d="M1067.032,1824.616a.207.207,0,0,1-.1-.386l9.732-5.619a.207.207,0,1,1,.207.358l-9.732,5.619A.211.211,0,0,1,1067.032,1824.616Z" transform="translate(-1066.826 -1818.583)" fill="#375a64"/>
              </g>
              <g id="Grupo_54930" data-name="Grupo 54930" transform="translate(3.359 1.939)">
                <path id="Trazado_118462" data-name="Trazado 118462" d="M1068.964,1825.731a.207.207,0,0,1-.1-.386l9.731-5.619a.207.207,0,1,1,.207.358l-9.732,5.619A.212.212,0,0,1,1068.964,1825.731Z" transform="translate(-1068.757 -1819.698)" fill="#375a64"/>
              </g>
              <g id="Grupo_54931" data-name="Grupo 54931" transform="translate(5.038 2.909)">
                <path id="Trazado_118463" data-name="Trazado 118463" d="M1070.9,1826.846a.207.207,0,0,1-.1-.386l9.732-5.619a.207.207,0,1,1,.207.358l-9.732,5.619A.2.2,0,0,1,1070.9,1826.846Z" transform="translate(-1070.689 -1820.813)" fill="#375a64"/>
              </g>
              <g id="Grupo_54932" data-name="Grupo 54932" transform="translate(6.718 3.879)">
                <path id="Trazado_118464" data-name="Trazado 118464" d="M1072.827,1827.962a.208.208,0,0,1-.1-.387l9.732-5.618a.207.207,0,1,1,.208.358l-9.732,5.618A.2.2,0,0,1,1072.827,1827.962Z" transform="translate(-1072.62 -1821.929)" fill="#375a64"/>
              </g>
              <g id="Grupo_54933" data-name="Grupo 54933" transform="translate(8.395 4.85)">
                <path id="Trazado_118465" data-name="Trazado 118465" d="M1074.756,1829.079a.207.207,0,0,1-.1-.387l9.732-5.618a.207.207,0,0,1,.207.359l-9.732,5.618A.211.211,0,0,1,1074.756,1829.079Z" transform="translate(-1074.549 -1823.046)" fill="#375a64"/>
              </g>
            </g>
          </g>
          <g id="Folder" transform="translate(70.265 65.228)">
            <path id="Trazado_118466" data-name="Trazado 118466" d="M996.17,1843.243l-44.693,25.8,35.667,20.592,44.577-25.736Z" transform="translate(-950.872 -1841.099)" fill="#36c" opacity="0.2"/>
            <path id="Trazado_118467" data-name="Trazado 118467" d="M1029.81,1862.136a.744.744,0,0,0,0-1.408l-34.337-19.952-44.693,25.8,34.451,19.89a2.687,2.687,0,0,0,2.432,0l25.526-14.737,4.273.805a1.16,1.16,0,0,0,.8-.135l10.593-6.1a1.163,1.163,0,0,0,.39-1.647l-1.12-1.542Z" transform="translate(-950.781 -1840.777)" fill="#36c"/>
            <path id="Trazado_118468" data-name="Trazado 118468" d="M1029.81,1862.136a.744.744,0,0,0,0-1.408l-34.337-19.952-44.693,25.8,34.451,19.89a2.687,2.687,0,0,0,2.432,0l25.526-14.737,4.273.805a1.16,1.16,0,0,0,.8-.135l10.593-6.1a1.163,1.163,0,0,0,.39-1.647l-1.12-1.542Z" transform="translate(-950.781 -1840.777)" fill="#36c" opacity="0.15"/>
            <path id="Trazado_118469" data-name="Trazado 118469" d="M995.7,1840.777l-43.181,24.929,34.154,19.732,44.577-25.737Z" transform="translate(-951.008 -1840.777)" fill="#f0f0f0"/>
            <path id="Trazado_118470" data-name="Trazado 118470" d="M950.781,1866.578l34.394,15.975a3.027,3.027,0,0,0,2.489-.11l42.146-24.333c.671-.388.647-.969-.056-1.3l-34.28-16.037Z" transform="translate(-950.781 -1840.777)" fill="#36c"/>
          </g>
          <g id="Laptop" transform="translate(10.211 20.274)">
            <path id="Shadow-6" data-name="Shadow" d="M987.273,1833.35l-31.526-18.2a1.813,1.813,0,0,0-1.812,0l-54.692,31.581a.4.4,0,0,0,0,.7l31.821,18.375Z" transform="translate(-883.971 -1792.445)" fill="#36c" opacity="0.1"/>
            <g id="Grupo_54939" data-name="Grupo 54939">
              <g id="Grupo_54937" data-name="Grupo 54937" transform="translate(16.411 19.398)">
                <path id="Trazado_118471" data-name="Trazado 118471" d="M985.12,1831.71v.709a2.92,2.92,0,0,1-1.455,2.523l-50.945,29.411a2.878,2.878,0,0,1-1.45.386,2.928,2.928,0,0,1-1.465-.389l-27.77-15.98a2.921,2.921,0,0,1-1.452-2.523v-.98h.006v.01a.366.366,0,0,0,.184.32l30.5,17.61Z" transform="translate(-900.583 -1814.037)" fill="#2b454e"/>
                <path id="Trazado_118472" data-name="Trazado 118472" d="M935.874,1862.8v1.938a2.9,2.9,0,0,0,1.454-.388l50.945-29.412a2.915,2.915,0,0,0,1.459-2.524v-.708Z" transform="translate(-905.191 -1814.037)" fill="#1a2e35"/>
                <path id="Trazado_118473" data-name="Trazado 118473" d="M985.124,1829.054l-30.208-17.438a1.735,1.735,0,0,0-1.736,0l-52.4,30.26a.386.386,0,0,0,0,.669l30.49,17.606Z" transform="translate(-900.583 -1811.383)" fill="#375a64"/>
                <g id="Grupo_54935" data-name="Grupo 54935" transform="translate(14.112 9.3)">
                  <path id="Trazado_118474" data-name="Trazado 118474" d="M933.108,1858.982l-16.293-9.4,47.64-27.505,16.377,9.348Z" transform="translate(-916.815 -1822.079)" fill="#2b454e"/>
                  <path id="Trazado_118475" data-name="Trazado 118475" d="M980.832,1831.427l-.622.358-15.756-8.99-47.014,27.149-.622-.358,47.636-27.507Z" transform="translate(-916.815 -1822.079)" fill="#1a2e35"/>
                </g>
                <g id="Grupo_54936" data-name="Grupo 54936" transform="translate(22.397 11.695)">
                  <path id="Trazado_118476" data-name="Trazado 118476" d="M926.344,1833.2l.3.173,7.985,4.609,14.2-8.2.3-.168-8.286-4.783Z" transform="translate(-926.344 -1824.834)" fill="#1a2e35"/>
                  <path id="Trazado_118477" data-name="Trazado 118477" d="M926.69,1833.426l7.985,4.609,14.2-8.2-7.99-4.61Z" transform="translate(-926.389 -1824.885)" fill="#2b454e"/>
                </g>
              </g>
              <path id="Trazado_118478" data-name="Trazado 118478" d="M931.351,1833.317c-1.342-.234-3.653,4.169-6.346,3.611s-7.5-.984-10.174-.35-6.446,2.485-9.732,2.093c-2.768-.333-6.963-.875-11.825-1.817-4.761-.926-8.33-1.568-11.566-2.2,0,0-.075-5.645,2.343-8.964a13.66,13.66,0,0,1,5.521-4.5l13.184,5.062c5.153.259,8.13-1.4,11.4-3.244.717-.4,1.46-.776,2.2-1.126a8.086,8.086,0,0,1,2.569-.516c1.934-.209,3.652-.183,5.762-.5a.775.775,0,0,1,.434.076c.35.2.267.734.083,1.092a5.187,5.187,0,0,1-2.143,2.051,22.817,22.817,0,0,1-2.786,1.1,15.062,15.062,0,0,1,2.085.258c2.977.416,6.888,2.977,9.606,4.844S932.685,1833.559,931.351,1833.317Z" transform="translate(-881.708 -1793.222)" fill="#ffaaa8"/>
              <path id="Trazado_118479" data-name="Trazado 118479" d="M923.866,1824.123a9.6,9.6,0,0,0-3.713,1.311,21.167,21.167,0,0,1,5.146-.035,22.564,22.564,0,0,0,2.779-1.1,5.388,5.388,0,0,0,1.967-1.752C928.72,1823.849,925.718,1823.977,923.866,1824.123Z" transform="translate(-886.728 -1793.443)" fill="#ff9090"/>
              <g id="Grupo_54938" data-name="Grupo 54938" transform="translate(47.094)">
                <path id="Trazado_118480" data-name="Trazado 118480" d="M936.819,1857.746a3.448,3.448,0,0,0,2.973-.23l50.721-29.284a3.452,3.452,0,0,0,1.678-2.412l5.553-33.114a3.564,3.564,0,0,0,.046-.566,3.457,3.457,0,0,0-1.02-2.453l-52.71,30.437a2.559,2.559,0,0,0-1.239,1.785Z" transform="translate(-935.997 -1789.152)" fill="#2b454e"/>
                <path id="Trazado_118481" data-name="Trazado 118481" d="M935.874,1857.237l.347.2a4.131,4.131,0,0,0,.475.23l6-35.837a2.559,2.559,0,0,1,1.239-1.785l52.71-30.437a3.544,3.544,0,0,0-.7-.535l-52.817,30.493a2.563,2.563,0,0,0-1.239,1.785Z" transform="translate(-935.874 -1789.072)" fill="#375a64"/>
                <path id="Trazado_118482" data-name="Trazado 118482" d="M943.187,1825.4l-.817-.472a2.559,2.559,0,0,0-.483,1.1l-6.012,35.887.347.2a4.277,4.277,0,0,0,.475.23l6-35.837A2.54,2.54,0,0,1,943.187,1825.4Z" transform="translate(-935.874 -1793.754)" fill="#1a2e35"/>
                <path id="Trazado_118483" data-name="Trazado 118483" d="M969.667,1831.707c.372-2.217,2.661-5.162,5.112-6.577s4.139-.765,3.766,1.452-2.66,5.162-5.112,6.577S969.3,1833.924,969.667,1831.707Z" transform="translate(-940.28 -1793.682)" fill="#36c"/>
              </g>
            </g>
          </g>
        </g>
      </g>
      <g id="Character-4" data-name="Character" transform="translate(991.199 1715.911)">
        <g id="Legs" transform="translate(0 115.952)">
          <g id="Grupo_54947" data-name="Grupo 54947" transform="translate(22.884)">
            <g id="Grupo_54942" data-name="Grupo 54942" transform="translate(17.727 58.887)">
              <g id="Grupo_54941" data-name="Grupo 54941">
                <path id="Trazado_118484" data-name="Trazado 118484" d="M1067.005,1939.2s.011-3.921,2.776-5.236a1.512,1.512,0,0,1,1.6.049s-2.623.654-3.039,5.293c0,0-.106.314-.7.267C1067.448,1939.554,1067.009,1939.52,1067.005,1939.2Z" transform="translate(-1067.005 -1933.744)" fill="#fafafa"/>
              </g>
            </g>
            <g id="Grupo_54946" data-name="Grupo 54946">
              <g id="Grupo_54945" data-name="Grupo 54945" transform="translate(0 46.678)">
                <g id="Grupo_54943" data-name="Grupo 54943" transform="translate(0 13.834)">
                  <path id="Trazado_118485" data-name="Trazado 118485" d="M1061.942,1936.034c-4.291.048-6.658-.5-11.779-.41-3.863.071-5.275,4.778-.607,8.641a26.775,26.775,0,0,0,6.677,3.642c6.069,1.856,10.452.8,13.656,1.175,4.167.492,5.26,1.665,8.668,1.919,4.467.333,6.089-.373,7.271-1.776,1.4-3.227.516-4.4,1-8.2.266-2.1.119-2.981-.109-2.953C1085.323,1937.944,1064.026,1936.01,1061.942,1936.034Z" transform="translate(-1046.616 -1935.614)" fill="#375a64"/>
                </g>
                <g id="Grupo_54944" data-name="Grupo 54944" transform="translate(11.584)">
                  <path id="Trazado_118486" data-name="Trazado 118486" d="M1088.352,1936.342c.663-2.082,2.67-10.671,2.67-10.671s-2.792,1.989-8,1.289c-2.651-.356-4.438-7.258-4.438-7.258l-1.508,11.49c-1.036,2.624-6.1,2.761-11.053,2.816-.832.01-1.693-.023-2.554-.062h-.051c-2.653.185-5.1,2.1-2.08,4s7.647,2.189,11.906,2.42C1078.363,1940.649,1086.807,1941.193,1088.352,1936.342Z" transform="translate(-1059.939 -1919.702)" fill="#ff9090"/>
                </g>
              </g>
              <path id="Trazado_118487" data-name="Trazado 118487" d="M1085.544,1866.014c-1.525,11.519-5.289,52.859-5.289,52.859s6.662,5.248,12.957,2.123c5.125-19.1,15.178-40.163,13.745-53.627Z" transform="translate(-1051.008 -1866.014)" fill="#a22f5f"/>
            </g>
          </g>
          <g id="Grupo_54952" data-name="Grupo 54952" transform="translate(0 10.217)">
            <g id="Grupo_54950" data-name="Grupo 54950" transform="translate(0 49.901)">
              <g id="Grupo_54948" data-name="Grupo 54948" transform="translate(0 13.834)">
                <path id="Trazado_118488" data-name="Trazado 118488" d="M1035.62,1951.492c-4.291.047-6.658-.5-11.779-.41-3.863.07-5.275,4.778-.608,8.641a26.784,26.784,0,0,0,6.676,3.641c6.07,1.857,10.453.8,13.656,1.176,4.168.492,5.261,1.665,8.669,1.919,4.467.333,6.089-.373,7.271-1.777,1.4-3.227.516-4.4,1-8.2.266-2.094.119-2.981-.109-2.953C1059,1953.4,1037.7,1951.468,1035.62,1951.492Z" transform="translate(-1020.295 -1951.072)" fill="#375a64"/>
              </g>
              <g id="Grupo_54949" data-name="Grupo 54949" transform="translate(11.584)">
                <path id="Trazado_118489" data-name="Trazado 118489" d="M1062.031,1951.8c.663-2.082,2.67-10.672,2.67-10.672s-2.793,1.989-8,1.29c-2.652-.356-4.438-7.258-4.438-7.258l-1.509,11.49c-1.035,2.624-6.1,2.761-11.052,2.816-.832.009-1.693-.023-2.554-.063h-.051c-2.653.185-5.1,2.1-2.08,4s7.647,2.19,11.906,2.421C1052.042,1956.107,1060.486,1956.651,1062.031,1951.8Z" transform="translate(-1033.619 -1935.16)" fill="#ff9090"/>
              </g>
            </g>
            <g id="Grupo_54951" data-name="Grupo 54951" transform="translate(28.947)">
              <path id="Trazado_118490" data-name="Trazado 118490" d="M1060.422,1880.54c-1.9,8.737-4.866,41.463-6.833,54.173a20.985,20.985,0,0,0,13.1,2.269c3-9.646,17.265-43.881,13.989-54.634-2.072-6.8-9.411-4.023-9.411-4.023Z" transform="translate(-1053.589 -1877.766)" fill="#c1507f"/>
            </g>
          </g>
        </g>
        <g id="Grupo_54961" data-name="Grupo 54961" transform="translate(44.823 117.264)">
          <g id="Grupo_54957" data-name="Grupo 54957" transform="translate(0 9.926)">
            <g id="Grupo_54953" data-name="Grupo 54953" transform="translate(90.809 26.403)">
              <path id="Trazado_118491" data-name="Trazado 118491" d="M1190.781,1976.167l-7.971-66.529-6.515-.33,11.205,66.85h.008a.874.874,0,0,0,.434.583,2.571,2.571,0,0,0,2.322.118.788.788,0,0,0,.51-.692Z" transform="translate(-1176.295 -1909.308)" fill="#1a2e35"/>
            </g>
            <g id="Grupo_54954" data-name="Grupo 54954" transform="translate(0 20.701)">
              <path id="Trazado_118492" data-name="Trazado 118492" d="M1087.864,1902.75h-6.523l-9.492,62.822h.008a.784.784,0,0,0,.474.717,2.571,2.571,0,0,0,2.325,0,.874.874,0,0,0,.463-.561h.007Z" transform="translate(-1071.849 -1902.75)" fill="#2b454e"/>
              <path id="Trazado_118493" data-name="Trazado 118493" d="M1082.368,1902.75l-2.649,17.532a25.835,25.835,0,0,0,5.005,3.064l4.167-20.6Z" transform="translate(-1072.877 -1902.75)" fill="#1a2e35"/>
            </g>
            <g id="Grupo_54955" data-name="Grupo 54955" transform="translate(49.064 47.585)">
              <path id="Trazado_118494" data-name="Trazado 118494" d="M1140.926,2001.651,1134.8,1934l-6.515-.33,9.365,67.97h.008a.872.872,0,0,0,.434.583,2.567,2.567,0,0,0,2.321.117.783.783,0,0,0,.51-.691Z" transform="translate(-1128.281 -1933.671)" fill="#2b454e"/>
              <path id="Trazado_118495" data-name="Trazado 118495" d="M1135.691,1943.887l-.9-9.885-6.515-.33,1.474,10.695A11.8,11.8,0,0,0,1135.691,1943.887Z" transform="translate(-1128.281 -1933.671)" fill="#1a2e35"/>
            </g>
            <g id="Grupo_54956" data-name="Grupo 54956" transform="translate(35.603)">
              <path id="Trazado_118496" data-name="Trazado 118496" d="M1128.814,1878.94h-6.523l-9.492,62.823h.008a.784.784,0,0,0,.474.717,2.571,2.571,0,0,0,2.325,0,.874.874,0,0,0,.463-.562h.008Z" transform="translate(-1112.799 -1878.94)" fill="#1a2e35"/>
            </g>
          </g>
          <g id="Grupo_54958" data-name="Grupo 54958" transform="translate(5.351)">
            <path id="Trazado_118497" data-name="Trazado 118497" d="M1078.127,1896.855c-.916-5.145,3.277-9.16,11.163-14.482a186.089,186.089,0,0,1,22.848-12.837c6.6-3.028,13.347-2.749,21.793,1.59,11.734,6.03,47.047,27.444,47.047,27.444s-52.795,29.8-62.952,28.469-35.546-17.846-37.558-23.657S1078.127,1896.855,1078.127,1896.855Z" transform="translate(-1078.003 -1867.523)" fill="#36c"/>
          </g>
          <g id="Grupo_54959" data-name="Grupo 54959" transform="translate(5.351)" opacity="0.6">
            <path id="Trazado_118498" data-name="Trazado 118498" d="M1078.127,1896.855c-.916-5.145,3.277-9.16,11.163-14.482a186.089,186.089,0,0,1,22.848-12.837c6.6-3.028,13.347-2.749,21.793,1.59,11.734,6.03,47.047,27.444,47.047,27.444s-52.795,29.8-62.952,28.469-35.546-17.846-37.558-23.657S1078.127,1896.855,1078.127,1896.855Z" transform="translate(-1078.003 -1867.523)" fill="#fff"/>
          </g>
          <g id="Grupo_54960" data-name="Grupo 54960" transform="translate(5.475 29.332)">
            <path id="Trazado_118499" data-name="Trazado 118499" d="M1123.144,1925.174c-7.579,6.862-15.5.956-28.034-7.177-14.184-9.2-16.964-16.737-16.964-16.737s0,5.643,1.058,8.289,3.351,5.643,13.58,12.7,17.635,10.582,24.514,11.891l5.426-.749" transform="translate(-1078.146 -1901.26)" fill="#36c"/>
          </g>
          <path id="Trazado_118500" data-name="Trazado 118500" d="M1095.11,1918c-14.184-9.2-16.964-16.737-16.964-16.737s0,5.643,1.058,8.289,3.351,5.643,13.58,12.7,17.635,10.582,24.514,11.891l5.426-.749.421-8.214C1115.565,1932.035,1107.642,1926.129,1095.11,1918Z" transform="translate(-1072.671 -1871.928)" fill="#fff" opacity="0.25"/>
        </g>
        <g id="Top-2" data-name="Top" transform="translate(35.76)">
          <g id="Grupo_54964" data-name="Grupo 54964" transform="translate(0 106.854)">
            <g id="Grupo_54962" data-name="Grupo 54962" transform="translate(20.491)">
              <path id="Trazado_118501" data-name="Trazado 118501" d="M1155.538,1868.089s-21.646-6.239-36.407-9.533c-12.46-2.78-18.423-3.66-22.047-2.521s-5.7,3.8-8.138,8.547c-2.06,4.009-3.952,8.326-3.952,8.326s25.653,12.63,39.645,14.27S1155.538,1868.089,1155.538,1868.089Z" transform="translate(-1084.994 -1855.55)" fill="#a22f5f"/>
            </g>
            <g id="Grupo_54963" data-name="Grupo 54963" transform="translate(0 9.632)">
              <path id="Trazado_118502" data-name="Trazado 118502" d="M1153.191,1869.535c4.563,13.177,3.832,25.774-4.149,33.193-4.583,4.259-26.012,16.288-40.009,11.655-13.787-4.565-39.527-28.667-42.392-30.8s-5.47-3.587-5.2-4.5c3.85-12.781,9.476-13.78,19.912-11.484,12.759,2.806,37.964,17.146,37.964,17.146Z" transform="translate(-1061.425 -1866.628)" fill="#c1507f"/>
            </g>
          </g>
          <g id="Grupo_54977" data-name="Grupo 54977" transform="translate(13.784)">
            <g id="Grupo_54974" data-name="Grupo 54974" transform="translate(9.541)">
              <g id="Grupo_54966" data-name="Grupo 54966" transform="translate(15.965 41.997)">
                <g id="Grupo_54965" data-name="Grupo 54965">
                  <path id="Trazado_118503" data-name="Trazado 118503" d="M1106.615,1787.959l4,16.153,17.925-5.694-5.116-17.466Z" transform="translate(-1106.615 -1780.952)" fill="#ff9090"/>
                </g>
              </g>
              <g id="Grupo_54968" data-name="Grupo 54968" transform="translate(0 25.08)">
                <g id="Grupo_54967" data-name="Grupo 54967">
                  <path id="Trazado_118504" data-name="Trazado 118504" d="M1092.965,1770.92a4.713,4.713,0,1,1,4.712-4.712A4.717,4.717,0,0,1,1092.965,1770.92Zm0-8.56a3.848,3.848,0,1,0,3.847,3.848A3.852,3.852,0,0,0,1092.965,1762.36Z" transform="translate(-1088.253 -1761.495)" fill="#1a2e35"/>
                </g>
              </g>
              <g id="Grupo_54973" data-name="Grupo 54973" transform="translate(0.382)">
                <g id="Grupo_54972" data-name="Grupo 54972" transform="translate(0 5.955)">
                  <g id="Grupo_54969" data-name="Grupo 54969" transform="translate(0.365 25.563)">
                    <path id="Trazado_118505" data-name="Trazado 118505" d="M1091.875,1768.9s-3.2,5.407-2.713,5.93a8.477,8.477,0,0,0,2.749.982Z" transform="translate(-1089.112 -1768.9)" fill="#c76668"/>
                  </g>
                  <path id="Trazado_118506" data-name="Trazado 118506" d="M1128.669,1747.379a4.573,4.573,0,0,0-.328-1.41,8.021,8.021,0,0,0-1.789-2.39,13.577,13.577,0,0,0-5.11-2.974,22.438,22.438,0,0,0-9.1-1.01c-2.943.253-5.67.99-8.663.623a45.019,45.019,0,0,0-6.756-.715,8.011,8.011,0,0,0-6.07,2.57,6.819,6.819,0,0,0-1.368,4.651,11.609,11.609,0,0,0,1.435,4.707c-2.109,1.692-2.434,4.945-1.348,7.422,1.489,3.392,4.951,5.305,7.784,7.429q3.339,2.5,6.419,5.328a39.272,39.272,0,0,1,2.907,2.786c.058.066.108.139.165.207a4.692,4.692,0,0,1-2.24-.05s.789,6.719,6.49,8.926c0,0,7.266,1.47,12.366-1.769,1.054-2.429,4.276-5.41,6.774-10.152C1135.214,1762.115,1133.657,1752.508,1128.669,1747.379Z" transform="translate(-1088.728 -1739.498)" fill="#a22f5f"/>
                  <g id="Grupo_54970" data-name="Grupo 54970" transform="translate(2.936 14.865)">
                    <path id="Trazado_118507" data-name="Trazado 118507" d="M1109.991,1774.938a4.194,4.194,0,0,1-2.729,1.9,4.633,4.633,0,0,1-2.245-.047s1.287,5.237,5.045,8.213a12.435,12.435,0,0,1-3.19,1.542c-3.126,1.146-9.27,1.094-10.512.051-1.856-1.563-4.98-5.784-4.155-18.534a25.777,25.777,0,0,1,3.046-11.464,5.441,5.441,0,0,0,3.38,3.961,5.273,5.273,0,0,0-.6,4.45,10.5,10.5,0,0,0,3.374,4.315.612.612,0,0,0,.282.174,1.856,1.856,0,0,0,1.114-.228c1.028-1.717,2.46-3.729,5.551-2.9C1111.928,1767.313,1112,1771.6,1109.991,1774.938Z" transform="translate(-1092.07 -1756.596)" fill="#ff9090"/>
                  </g>
                  <g id="Grupo_54971" data-name="Grupo 54971" transform="translate(0 23.217)">
                    <rect id="Rectngulo_28940" data-name="Rectngulo 28940" width="0.756" height="14.129" transform="matrix(0.133, -0.991, 0.991, 0.133, 0, 0.749)" fill="#1a2e35"/>
                  </g>
                  <path id="Trazado_118508" data-name="Trazado 118508" d="M1097.392,1791.023c1.478.706,5.563.8,8.567.18l-.608-2.252a13.4,13.4,0,0,1-3.575,1.533A14.506,14.506,0,0,1,1097.392,1791.023Z" transform="translate(-1089.828 -1745.955)" fill="#c76668"/>
                  <path id="Trazado_118509" data-name="Trazado 118509" d="M1102.507,1775.516a2.935,2.935,0,0,1-2.017-3.665,3.016,3.016,0,0,1,3.732-1.99Z" transform="translate(-1090.216 -1743.447)" fill="#a22f5f"/>
                </g>
                <path id="Trazado_118510" data-name="Trazado 118510" d="M1138.834,1734.127a9.446,9.446,0,0,0-5.04.479,5.76,5.76,0,1,0-6.136,9.277,9.513,9.513,0,0,0,7.07,8.807,5.764,5.764,0,1,0,10.39-3.964,9.518,9.518,0,0,0-6.283-14.6Z" transform="translate(-1093.265 -1732.649)" fill="#a22f5f"/>
              </g>
            </g>
            <path id="Trazado_118511" data-name="Trazado 118511" d="M1129.046,1791.233c9.462-5.164,18.654-.427,21.989,6.1,4.2,8.22,3.547,21.073,3.547,21.073C1149.632,1813.509,1129.046,1791.233,1129.046,1791.233Z" transform="translate(-1084.039 -1740.012)" fill="#c76668"/>
            <g id="Grupo_54975" data-name="Grupo 54975" transform="translate(14.529 49.548)">
              <path id="Trazado_118512" data-name="Trazado 118512" d="M1125.209,1793.8l-.741-2.493c10.683-5.077,17.605,1.71,23.376,16.182,3.317,8.317,1.907,19.214,2.959,31.607.757,8.929,4.833,10.209,8.831,26.171,0,0-5.8,9.119-19.168,12.382-13.473,3.289-31.719.385-34.953-9.934,0,0-.112-8.692-.549-16.405-.374-6.613-4.051-16.795-7.268-24.3-3.046-7.106-7.076-20.3,1.213-25.219,2.427-1.439,4.916-2.4,8.22-3.981C1114.671,1800.3,1126.182,1796.8,1125.209,1793.8Z" transform="translate(-1093.99 -1789.638)" fill="#36c"/>
            </g>
            <g id="Grupo_54976" data-name="Grupo 54976" transform="translate(0 62.92)">
              <path id="Trazado_118513" data-name="Trazado 118513" d="M1084.507,1877.53c-4.1-1.562-6.617-6.19-7.12-9.191s.843-7.912,2.434-10.645S1084.507,1877.53,1084.507,1877.53Z" transform="translate(-1077.28 -1811.866)" fill="#c76668"/>
              <path id="Trazado_118514" data-name="Trazado 118514" d="M1080.01,1851.317c1.175-7.23,3.087-18.41,5.49-30.2,2.337-11.463,4.256-13.621,10.236-16.1,14.494,8.634,7.368,28.23,7.368,28.23s-5.554,22.729-8.538,29.935c-1.94,4.684-5.757,9.939-10.854,7S1078.835,1858.547,1080.01,1851.317Z" transform="translate(-1077.545 -1805.018)" fill="#ff9090"/>
            </g>
          </g>
        </g>
        <g id="Grupo_54980" data-name="Grupo 54980" transform="translate(89.449 71.575)">
          <path id="Trazado_118515" data-name="Trazado 118515" d="M1129.418,1922.122c4.316-.217,7.694-3.386,17.955-7.661,18.947-7.894,33.158-14.21,38.571-24.135s9.248-54.427,7.894-66.833a16.378,16.378,0,0,0-.928-4.112l1.332-.2-3.452-2.938v.009c-3.54-2.892-9.3-.314-13.643,2.049-12.4,6.751-22.105,13.308-29.774,36.992-5.769,17.815-9.573,49.923-17.535,58.612" transform="translate(-1123.992 -1814.972)" fill="#36c"/>
          <path id="Trazado_118516" data-name="Trazado 118516" d="M1192.911,1819.379l1.332-.2-3.452-2.938v.009c-3.54-2.892-9.3-.314-13.643,2.049-12.4,6.751-22.105,13.308-29.774,36.992-5.769,17.815-9.573,49.923-17.535,58.612l-.421,8.214c4.316-.217,7.694-3.386,17.955-7.661,18.947-7.894,33.158-14.21,38.571-24.135s9.248-54.427,7.894-66.833A16.378,16.378,0,0,0,1192.911,1819.379Z" transform="translate(-1123.992 -1814.972)" fill="#fff" opacity="0.25"/>
          <g id="Grupo_54978" data-name="Grupo 54978" transform="translate(0 2.215)">
            <path id="Trazado_118517" data-name="Trazado 118517" d="M1179.618,1820.232c-12.4,6.75-24.059,14.129-30.63,38.407-6.5,24.03-10.7,60.5-25.811,64.565,0,0,6.833,2.715,27.773-6.141,6.663-2.819,14.748-7.956,20.059-10.937,10.408-5.841,16.717-10.627,17.714-12.417,5.5-9.877,9.249-54.428,7.9-66.834S1185.83,1816.85,1179.618,1820.232Z" transform="translate(-1123.177 -1817.52)" fill="#36c"/>
          </g>
          <g id="Grupo_54979" data-name="Grupo 54979" transform="translate(0 2.215)" opacity="0.4">
            <path id="Trazado_118518" data-name="Trazado 118518" d="M1179.618,1820.232c-12.4,6.75-24.059,14.129-30.63,38.407-6.5,24.03-10.7,60.5-25.811,64.565,0,0,6.833,2.715,27.773-6.141,6.663-2.819,14.748-7.956,20.059-10.937,10.408-5.841,16.717-10.627,17.714-12.417,5.5-9.877,9.249-54.428,7.9-66.834S1185.83,1816.85,1179.618,1820.232Z" transform="translate(-1123.177 -1817.52)" fill="#fff"/>
          </g>
        </g>
      </g>
      <g id="Exclamation" transform="translate(1117.817 1714.904)">
        <g id="Grupo_54981" data-name="Grupo 54981">
          <path id="Trazado_118519" data-name="Trazado 118519" d="M1170.233,1749.792a.784.784,0,0,1-1.083.163l-2.911-2.149a.787.787,0,0,1-.163-1.083l1.722-2.333a.784.784,0,0,1,1.084-.163l2.91,2.148a.782.782,0,0,1,.163,1.083Zm3.665-4.965a.783.783,0,0,1-1.082.163l-2.911-2.149a.786.786,0,0,1-.164-1.083l7.349-9.954a.786.786,0,0,1,1.084-.163l2.911,2.148a.783.783,0,0,1,.162,1.083Z" transform="translate(-1165.928 -1731.491)" fill="#36c"/>
        </g>
        <g id="Grupo_54982" data-name="Grupo 54982" transform="translate(4.194 15.973)">
          <path id="Trazado_118520" data-name="Trazado 118520" d="M1173.216,1761.825a.784.784,0,0,1-1.013-.418l-1.391-3.339a.786.786,0,0,1,.417-1.014l2.677-1.115a.786.786,0,0,1,1.013.418l1.391,3.339a.783.783,0,0,1-.417,1.013Zm5.7-2.375a.743.743,0,0,1-.591,0,.754.754,0,0,1-.422-.415l-1.391-3.34a.741.741,0,0,1,0-.591.732.732,0,0,1,.415-.422l11.422-4.759a.787.787,0,0,1,1.013.418l1.392,3.34a.786.786,0,0,1-.418,1.013Z" transform="translate(-1170.752 -1749.863)" fill="#36c"/>
        </g>
        <g id="Grupo_54983" data-name="Grupo 54983" transform="translate(4.194 15.973)" opacity="0.2">
          <path id="Trazado_118521" data-name="Trazado 118521" d="M1173.216,1761.825a.784.784,0,0,1-1.013-.418l-1.391-3.339a.786.786,0,0,1,.417-1.014l2.677-1.115a.786.786,0,0,1,1.013.418l1.391,3.339a.783.783,0,0,1-.417,1.013Zm5.7-2.375a.743.743,0,0,1-.591,0,.754.754,0,0,1-.422-.415l-1.391-3.34a.741.741,0,0,1,0-.591.732.732,0,0,1,.415-.422l11.422-4.759a.787.787,0,0,1,1.013.418l1.392,3.34a.786.786,0,0,1-.418,1.013Z" transform="translate(-1170.752 -1749.863)" fill="#36c"/>
        </g>
      </g>
      <g id="Idea" transform="translate(1056.972 1679.536)">
        <g id="Light" transform="translate(6.907 6.813)">
          <g id="Grupo_54994" data-name="Grupo 54994">
            <g id="Grupo_54993" data-name="Grupo 54993">
              <g id="Grupo_54984" data-name="Grupo 54984" transform="translate(6.186 20.366)">
                <path id="Trazado_118522" data-name="Trazado 118522" d="M1114.37,1723.774a1.683,1.683,0,1,1-1.665-1.7A1.683,1.683,0,0,1,1114.37,1723.774Z" transform="translate(-1111.004 -1722.073)" fill="#2b454e"/>
              </g>
              <g id="Grupo_54985" data-name="Grupo 54985" transform="translate(5.026 19.347)">
                <path id="Trazado_118523" data-name="Trazado 118523" d="M1110.494,1723.693a1.231,1.231,0,0,1,.024-2.331,4.461,4.461,0,0,1,4.036.043,1.23,1.23,0,0,1-.024,2.33A4.464,4.464,0,0,1,1110.494,1723.693Z" transform="translate(-1109.67 -1720.901)" fill="#375a64"/>
              </g>
              <g id="Grupo_54986" data-name="Grupo 54986" transform="translate(4.946 18.652)">
                <path id="Trazado_118524" data-name="Trazado 118524" d="M1110.426,1722.98a1.268,1.268,0,0,1,.025-2.4,4.6,4.6,0,0,1,4.16.044,1.268,1.268,0,0,1-.025,2.4A4.6,4.6,0,0,1,1110.426,1722.98Z" transform="translate(-1109.578 -1720.102)" fill="#2b454e"/>
              </g>
              <g id="Grupo_54987" data-name="Grupo 54987" transform="translate(4.862 17.937)">
                <path id="Trazado_118525" data-name="Trazado 118525" d="M1110.357,1722.246a1.307,1.307,0,0,1,.026-2.476,4.741,4.741,0,0,1,4.288.045,1.307,1.307,0,0,1-.026,2.476A4.742,4.742,0,0,1,1110.357,1722.246Z" transform="translate(-1109.482 -1719.279)" fill="#375a64"/>
              </g>
              <g id="Grupo_54988" data-name="Grupo 54988" transform="translate(4.776 17.2)">
                <path id="Trazado_118526" data-name="Trazado 118526" d="M1110.285,1721.489a1.347,1.347,0,0,1,.027-2.552,4.881,4.881,0,0,1,4.419.047,1.346,1.346,0,0,1-.026,2.551A4.886,4.886,0,0,1,1110.285,1721.489Z" transform="translate(-1109.383 -1718.431)" fill="#2b454e"/>
              </g>
              <g id="Grupo_54989" data-name="Grupo 54989" transform="translate(4.72 16.459)">
                <path id="Trazado_118527" data-name="Trazado 118527" d="M1110.239,1720.7a1.374,1.374,0,0,1,.027-2.6,4.982,4.982,0,0,1,4.51.048,1.374,1.374,0,0,1-.027,2.6A4.982,4.982,0,0,1,1110.239,1720.7Z" transform="translate(-1109.318 -1717.579)" fill="#375a64"/>
              </g>
              <g id="Grupo_54990" data-name="Grupo 54990">
                <path id="Trazado_118528" data-name="Trazado 118528" d="M1111.992,1698.649a8.018,8.018,0,0,0-8.1,7.933c-.068,6.364,5.172,7.476,5.145,10.042a1.376,1.376,0,0,0,.8,1.138,4.324,4.324,0,0,0,3.912.041,1.375,1.375,0,0,0,.823-1.121h0c.027-2.565,5.29-3.567,5.357-9.931A8.018,8.018,0,0,0,1111.992,1698.649Z" transform="translate(-1103.889 -1698.648)" fill="#36c"/>
              </g>
              <g id="Grupo_54991" data-name="Grupo 54991" opacity="0.6">
                <path id="Trazado_118529" data-name="Trazado 118529" d="M1111.992,1698.649a8.018,8.018,0,0,0-8.1,7.933c-.068,6.364,5.172,7.476,5.145,10.042a1.376,1.376,0,0,0,.8,1.138,4.324,4.324,0,0,0,3.912.041,1.375,1.375,0,0,0,.823-1.121h0c.027-2.565,5.29-3.567,5.357-9.931A8.018,8.018,0,0,0,1111.992,1698.649Z" transform="translate(-1103.889 -1698.648)" fill="#fff"/>
              </g>
              <g id="Grupo_54992" data-name="Grupo 54992" transform="translate(5.833 16.736)">
                <path id="Trazado_118530" data-name="Trazado 118530" d="M1111.2,1719.932a.9.9,0,0,1,.018-1.7,3.247,3.247,0,0,1,2.941.031.9.9,0,0,1-.017,1.7A3.25,3.25,0,0,1,1111.2,1719.932Z" transform="translate(-1110.598 -1717.898)" fill="#36c"/>
              </g>
            </g>
          </g>
          <g id="Grupo_54995" data-name="Grupo 54995" transform="translate(3.909 7.871)">
            <path id="Trazado_118531" data-name="Trazado 118531" d="M1113.461,1717.58a.272.272,0,0,1-.27-.269,19.474,19.474,0,0,1,.611-4.575,9.879,9.879,0,0,1,.412-1.27,3.647,3.647,0,0,1-.692-.347,1.079,1.079,0,0,0-2.126-.023,3.658,3.658,0,0,1-.7.332,9.8,9.8,0,0,1,.386,1.279,19.446,19.446,0,0,1,.514,4.587.276.276,0,0,1-.281.262.272.272,0,0,1-.263-.28,19.243,19.243,0,0,0-.5-4.446,8.869,8.869,0,0,0-.392-1.274,1.7,1.7,0,0,1-1.511-.461.87.87,0,0,1-.105-1.124.723.723,0,0,1,.743-.3c.428.09.841.535,1.192,1.257a3.084,3.084,0,0,0,.635-.3,4.157,4.157,0,0,0,1.024-.863,2.011,2.011,0,0,1-.381-1.532.765.765,0,0,1,1.463.015,2.017,2.017,0,0,1-.414,1.525,4.164,4.164,0,0,0,1.006.884,3.146,3.146,0,0,0,.629.309c.366-.714.789-1.15,1.218-1.231a.727.727,0,0,1,.737.318.871.871,0,0,1-.129,1.121,1.706,1.706,0,0,1-1.522.429,9.138,9.138,0,0,0-.419,1.265,19.272,19.272,0,0,0-.593,4.434.273.273,0,0,1-.27.276Zm-4.323-7.382c-.046,0-.1.02-.157.1-.134.18.021.376.072.432a1.083,1.083,0,0,0,.867.3c-.284-.536-.562-.79-.743-.828A.18.18,0,0,0,1109.138,1710.2Zm5.863.886a1.1,1.1,0,0,0,.873-.281c.051-.056.211-.249.081-.431-.075-.106-.139-.111-.195-.1C1115.58,1710.306,1115.3,1710.555,1115,1711.084Zm-2.512-2.838a.182.182,0,0,0-.209.144.47.47,0,1,0,.417,0A.182.182,0,0,0,1112.49,1708.246Z" transform="translate(-1108.385 -1707.702)" fill="#fff"/>
          </g>
        </g>
        <g id="Grupo_55005" data-name="Grupo 55005" transform="translate(0)">
          <g id="Grupo_54996" data-name="Grupo 54996" transform="translate(14.43)">
            <path id="Trazado_118532" data-name="Trazado 118532" d="M1113.2,1694.571a.524.524,0,0,1-.661-.508l.012-2.73a.523.523,0,1,1,1.047,0l-.011,2.731A.523.523,0,0,1,1113.2,1694.571Z" transform="translate(-1112.542 -1690.812)" fill="#e1e1e1"/>
          </g>
          <g id="Grupo_54997" data-name="Grupo 54997" transform="translate(7.242 1.897)">
            <path id="Trazado_118533" data-name="Trazado 118533" d="M1106.29,1696.393a.523.523,0,0,1-.59-.246l-1.355-2.37a.523.523,0,1,1,.909-.52l1.356,2.37a.524.524,0,0,1-.195.715A.531.531,0,0,1,1106.29,1696.393Z" transform="translate(-1104.275 -1692.993)" fill="#e1e1e1"/>
          </g>
          <g id="Grupo_54998" data-name="Grupo 54998" transform="translate(1.957 7.139)">
            <path id="Trazado_118534" data-name="Trazado 118534" d="M1101.215,1701.427a.521.521,0,0,1-.4-.053l-2.359-1.375a.524.524,0,1,1,.527-.905l2.359,1.375a.523.523,0,0,1-.127.958Z" transform="translate(-1098.195 -1699.023)" fill="#e1e1e1"/>
          </g>
          <g id="Grupo_54999" data-name="Grupo 54999" transform="translate(0 14.322)">
            <path id="Trazado_118535" data-name="Trazado 118535" d="M1099.336,1708.326a.524.524,0,0,1-.139.018l-2.731-.012a.523.523,0,0,1,0-1.047l2.731.011a.524.524,0,0,1,.135,1.03Z" transform="translate(-1095.945 -1707.285)" fill="#e1e1e1"/>
          </g>
          <g id="Grupo_55000" data-name="Grupo 55000" transform="translate(24.448 20.25)">
            <path id="Trazado_118536" data-name="Trazado 118536" d="M1127.083,1716.507a.52.52,0,0,1-.4-.053l-2.359-1.375a.524.524,0,1,1,.527-.9l2.359,1.375a.523.523,0,0,1-.127.958Z" transform="translate(-1124.064 -1714.103)" fill="#e1e1e1"/>
          </g>
          <g id="Grupo_55001" data-name="Grupo 55001" transform="translate(2.049 20.25)">
            <path id="Trazado_118537" data-name="Trazado 118537" d="M1098.689,1716.507a.52.52,0,0,0,.4-.053l2.36-1.375a.524.524,0,1,0-.528-.9l-2.359,1.375a.524.524,0,0,0,.127.958Z" transform="translate(-1098.302 -1714.103)" fill="#e1e1e1"/>
          </g>
          <g id="Grupo_55002" data-name="Grupo 55002" transform="translate(26.033 14.431)">
            <path id="Trazado_118538" data-name="Trazado 118538" d="M1129.279,1708.451a.486.486,0,0,1-.139.017l-2.73-.01a.524.524,0,1,1,0-1.048l2.73.011a.524.524,0,0,1,.135,1.029Z" transform="translate(-1125.888 -1707.41)" fill="#e1e1e1"/>
          </g>
          <g id="Grupo_55003" data-name="Grupo 55003" transform="translate(24.497 7.243)">
            <path id="Trazado_118539" data-name="Trazado 118539" d="M1124.78,1701.528a.524.524,0,0,1-.4-.961l2.37-1.355a.524.524,0,0,1,.521.909l-2.371,1.355A.529.529,0,0,1,1124.78,1701.528Z" transform="translate(-1124.12 -1699.142)" fill="#e1e1e1"/>
          </g>
          <g id="Grupo_55004" data-name="Grupo 55004" transform="translate(20.249 1.957)">
            <path id="Trazado_118540" data-name="Trazado 118540" d="M1119.9,1696.45a.523.523,0,0,1-.589-.769l1.375-2.359a.524.524,0,1,1,.905.527l-1.375,2.359A.518.518,0,0,1,1119.9,1696.45Z" transform="translate(-1119.235 -1693.062)" fill="#e1e1e1"/>
          </g>
        </g>
      </g>
      <g id="Grupo_55019" data-name="Grupo 55019" transform="translate(849.697 1604.454)">
        <g id="Speech_Bubble" data-name="Speech Bubble">
          <g id="Speech_Bubble-2" data-name="Speech Bubble">
            <g id="Grupo_55006" data-name="Grupo 55006">
              <path id="Trazado_118541" data-name="Trazado 118541" d="M884.034,1679.431l-3.255-6.122,2.62-7.561v-4.629l-8.016,4.629v4.628l3.446,5.97a.511.511,0,0,0,.235.208l0,0Z" transform="translate(-859.871 -1611.853)" fill="#36c"/>
              <path id="Trazado_118542" data-name="Trazado 118542" d="M884.034,1679.431l-3.255-6.122,2.62-7.561v-4.629l-8.016,4.629v4.628l3.446,5.97a.511.511,0,0,0,.235.208l0,0Z" transform="translate(-859.871 -1611.853)" fill="#36c" opacity="0.3"/>
              <path id="Trazado_118543" data-name="Trazado 118543" d="M898.319,1610.322a5.312,5.312,0,0,0-2.4-4.163l-1.957-1.13a5.309,5.309,0,0,0-4.806,0l-29.208,16.834a5.315,5.315,0,0,0-2.4,4.163v41.139a5.313,5.313,0,0,0,2.4,4.163l1.957,1.13a5.315,5.315,0,0,0,4.807,0l11.377-6.565,3.439,5.957a.513.513,0,0,0,.929-.089l3.635-10.493,9.827-5.645a5.312,5.312,0,0,0,2.4-4.163Z" transform="translate(-857.542 -1604.454)" fill="#36c"/>
              <path id="Trazado_118544" data-name="Trazado 118544" d="M857.542,1670.049a5.313,5.313,0,0,0,2.4,4.163l1.957,1.13a5.373,5.373,0,0,0,4.4.194c-1.131.428-1.993-.211-1.993-1.582v-41.139a4.916,4.916,0,0,1,.7-2.369l-6.763-3.9a4.9,4.9,0,0,0-.7,2.368Z" transform="translate(-857.542 -1607.338)" fill="#1a3366" opacity="0.3"/>
              <path id="Trazado_118545" data-name="Trazado 118545" d="M898.348,1609.64c-.28-1.021-1.211-1.346-2.32-.707l-29.213,16.838a4.77,4.77,0,0,0-1.693,1.795l-6.762-3.9a4.861,4.861,0,0,1,1.694-1.794l29.2-16.838a5.344,5.344,0,0,1,4.811,0l1.962,1.133A5.3,5.3,0,0,1,898.348,1609.64Z" transform="translate(-857.649 -1604.455)" fill="#fff" opacity="0.3"/>
            </g>
          </g>
          <g id="Grupo_55008" data-name="Grupo 55008" transform="translate(20.941 53.393)">
            <g id="Grupo_55007" data-name="Grupo 55007">
              <path id="Trazado_118546" data-name="Trazado 118546" d="M887.328,1665.866c-.323.013-.69.435-.819.94a1.676,1.676,0,0,1-.683,1l-2.3,1.328a.429.429,0,0,1-.682-.207c-.13-.356-.5-.353-.82.005a1.452,1.452,0,0,0-.349,1.295,1.159,1.159,0,0,0,1.852.588l2.3-1.329a4.511,4.511,0,0,0,1.852-2.726C887.808,1666.25,887.65,1665.852,887.328,1665.866Z" transform="translate(-881.628 -1665.866)" fill="#fff"/>
            </g>
          </g>
          <g id="Grupo_55010" data-name="Grupo 55010" transform="translate(13.881 14.221)">
            <g id="Grupo_55009" data-name="Grupo 55009">
              <path id="Trazado_118547" data-name="Trazado 118547" d="M893.667,1651.384a2.081,2.081,0,0,0-1.492-1.934,8.218,8.218,0,0,0,.395-.74,7.2,7.2,0,0,0,.725-3.77,7.065,7.065,0,0,0-1.808-4.25,4.005,4.005,0,0,0-2.6-1.173,17.753,17.753,0,0,0,1.957-7.717c0-4.4-2.228-6.842-5.258-6.24a6.631,6.631,0,0,0,.638-2.714c0-1.708-1.042-2.5-2.323-1.756h0a3.946,3.946,0,0,0-1.364,1.418,4.319,4.319,0,0,0-.621,2.138c0,.464.283.677.63.476a1.509,1.509,0,0,0,.63-1.2,1.171,1.171,0,0,1,.173-.6,1.561,1.561,0,0,1,.552-.554h0c.586-.338,1.062.022,1.062.8a3.654,3.654,0,0,1-.435,1.653,2.916,2.916,0,0,1-1.051,1.187h0c-.016.009-.03.019-.046.03-3.9,2.382-7.049,8.473-7.049,13.707,0,2.545.744,4.433,1.956,5.457a19.955,19.955,0,0,0-2.6,4.171,20.224,20.224,0,0,0-1.808,6.338,3.57,3.57,0,0,0,.724,2.933,1.61,1.61,0,0,0,.395.283,8.174,8.174,0,0,0-1.491,3.658,3.807,3.807,0,0,0,.6,3l1.349,1.52a1.672,1.672,0,0,0,2.213.15,4.76,4.76,0,0,0,1.393-1.3,6.339,6.339,0,0,0,1.2-5.32l-.818-2.235a2.622,2.622,0,0,0-.191-.41l4.621-2.668a1.509,1.509,0,0,0,.629-1.2c0-.464-.282-.677-.629-.476l-5.819,3.359v-1.771a.745.745,0,0,1,.31-.593l10.387-6c.17-.1.31.007.31.235v1.887a8.22,8.22,0,0,0-1.389,2.887l-.818,3.179c-.518,2.014,0,3.706,1.2,3.938a2.035,2.035,0,0,0,1.392-.308,5.845,5.845,0,0,0,2.214-2.706l1.349-3.078A6.9,6.9,0,0,0,893.667,1651.384Zm-16.022-11.963c0-4.389,2.679-9.506,5.97-11.408s5.97.124,5.97,4.514-2.678,9.506-5.97,11.408S877.645,1643.811,877.645,1639.421Zm.688,20.683.818,2.235a3.486,3.486,0,0,1-.658,2.926c-.66.89-1.513,1.161-1.983.632l-1.349-1.52a2.264,2.264,0,0,1-.36-1.781,4.863,4.863,0,0,1,.891-2.181,2.455,2.455,0,0,1,1.528-1.078A1.028,1.028,0,0,1,878.332,1660.1Zm10.48-14.424a1.509,1.509,0,0,0-.629,1.2v.841L879.052,1653v-.84c0-.464-.283-.677-.63-.477a1.51,1.51,0,0,0-.63,1.2v1.017a4.013,4.013,0,0,0-.94,2.46v1.186a1.063,1.063,0,0,1-1.235-.143,2.135,2.135,0,0,1-.434-1.755,17.2,17.2,0,0,1,4.2-9.417,4.875,4.875,0,0,0,4.23-.615,13.128,13.128,0,0,0,4.23-4.269c2.244-.144,3.843,1.574,4.2,4.562a4.316,4.316,0,0,1-.434,2.257,4.056,4.056,0,0,1-1.236,1.571v-1.187c0-.853-.385-1.367-.935-1.374v-1.019C889.443,1645.692,889.161,1645.479,888.813,1645.68Zm3.258,8.934-1.349,3.078c-.47,1.072-1.323,1.785-1.982,1.658s-.944-1.059-.659-2.167L888.9,1654a4.725,4.725,0,0,1,1.112-2.052,2.759,2.759,0,0,1,.6-.483,1.349,1.349,0,0,1,.924-.2,1.235,1.235,0,0,1,.891,1.151A4.1,4.1,0,0,1,892.07,1654.615Z" transform="translate(-873.507 -1620.811)" fill="#fff"/>
            </g>
          </g>
          <g id="Grupo_55012" data-name="Grupo 55012" transform="translate(26.176 45.933)">
            <g id="Grupo_55011" data-name="Grupo 55011">
              <path id="Trazado_118548" data-name="Trazado 118548" d="M888.724,1657.349a.393.393,0,0,0-.445.011,1.255,1.255,0,0,0-.446.5,1.578,1.578,0,0,0-.184.7.6.6,0,0,0,.184.487.393.393,0,0,0,.446-.011,1.254,1.254,0,0,0,.445-.5,1.567,1.567,0,0,0,.184-.7A.6.6,0,0,0,888.724,1657.349Z" transform="translate(-887.649 -1657.286)" fill="#fff"/>
            </g>
          </g>
          <g id="Grupo_55014" data-name="Grupo 55014" transform="translate(22.019 31.216)">
            <g id="Grupo_55013" data-name="Grupo 55013">
              <path id="Trazado_118549" data-name="Trazado 118549" d="M886.574,1640.393c-.27-.136-.667.148-.886.635a2.266,2.266,0,0,1-.851,1.033.65.65,0,0,1-.85-.05c-.219-.234-.616-.06-.886.388a1.151,1.151,0,0,0-.093,1.235,1.4,1.4,0,0,0,1.829.108,4.87,4.87,0,0,0,1.83-2.221C886.886,1641.034,886.845,1640.528,886.574,1640.393Z" transform="translate(-882.867 -1640.359)" fill="#fff"/>
            </g>
          </g>
          <g id="Grupo_55016" data-name="Grupo 55016" transform="translate(20.139 29.559)">
            <g id="Grupo_55015" data-name="Grupo 55015">
              <path id="Trazado_118550" data-name="Trazado 118550" d="M882.963,1638.6c-.571-.432-1.5.105-2.073,1.2-.246.47-.246,1,0,1.188s.645-.044.891-.514c.08-.154.21-.229.29-.169a.392.392,0,0,0,.446-.01,1.243,1.243,0,0,0,.445-.5C883.209,1639.321,883.209,1638.789,882.963,1638.6Z" transform="translate(-880.706 -1638.453)" fill="#fff"/>
            </g>
          </g>
          <g id="Grupo_55018" data-name="Grupo 55018" transform="translate(25.396 26.525)">
            <g id="Grupo_55017" data-name="Grupo 55017">
              <path id="Trazado_118551" data-name="Trazado 118551" d="M889.01,1635.112c-.572-.431-1.5.105-2.074,1.2-.246.47-.246,1,0,1.188a.391.391,0,0,0,.446-.01,1.24,1.24,0,0,0,.445-.5c.08-.153.211-.229.291-.168.246.186.645-.044.891-.515S889.256,1635.3,889.01,1635.112Z" transform="translate(-886.752 -1634.963)" fill="#fff"/>
            </g>
          </g>
        </g>
      </g>
    </g>
    <g id="freepik--Flag--inject-50" transform="translate(683 11673.002)">
      <g id="freepik--flag--inject-50-2" data-name="freepik--flag--inject-50">
        <path id="Trazado_115964" data-name="Trazado 115964" d="M885.359,3032.953c-7.34-4.244-19.234-4.244-26.573,0-3.666,2.114-5.494,4.891-5.486,7.667v2.911c0,2.776,1.82,5.544,5.486,7.667,7.34,4.194,19.234,4.194,26.573,0,3.666-2.122,5.494-4.89,5.486-7.667v-2.877C890.879,3037.844,889.025,3035.067,885.359,3032.953Z" transform="translate(-853.281 -2776.344)" fill="#36c"/>
        <path id="Trazado_115965" data-name="Trazado 115965" d="M885.359,3032.953c-7.34-4.244-19.234-4.244-26.573,0-3.666,2.114-5.494,4.891-5.486,7.667v2.911c0,2.776,1.82,5.544,5.486,7.667,7.34,4.194,19.234,4.194,26.573,0,3.666-2.122,5.494-4.89,5.486-7.667v-2.877C890.879,3037.844,889.025,3035.067,885.359,3032.953Z" transform="translate(-853.281 -2776.344)" opacity="0.35" style="isolation: isolate"/>
        <path id="Trazado_115966" data-name="Trazado 115966" d="M858.782,3032.954c-7.34,4.236-7.34,11.1,0,15.333s19.234,4.244,26.573,0,7.34-11.1,0-15.333S866.122,3028.709,858.782,3032.954Z" transform="translate(-853.278 -2776.345)" fill="#36c"/>
        <path id="Trazado_115967" data-name="Trazado 115967" d="M858.782,3032.954c-7.34,4.236-7.34,11.1,0,15.333s19.234,4.244,26.573,0,7.34-11.1,0-15.333S866.122,3028.709,858.782,3032.954Z" transform="translate(-853.278 -2776.345)" opacity="0.1" style="isolation: isolate"/>
        <path id="Trazado_115968" data-name="Trazado 115968" d="M884.376,3029.747c-6.593-3.8-17.279-3.8-23.872,0-3.3,1.9-4.932,4.4-4.924,6.9v1.887c0,2.517,1.627,5.033,4.924,6.887,6.593,3.808,17.279,3.808,23.872,0,3.3-1.9,4.932-4.4,4.924-6.887v-1.887C889.309,3034.151,887.673,3031.651,884.376,3029.747Z" transform="translate(-853.649 -2775.882)" fill="#36c"/>
        <path id="Trazado_115969" data-name="Trazado 115969" d="M884.376,3029.747c-6.593-3.8-17.279-3.8-23.872,0-3.3,1.9-4.932,4.4-4.924,6.9v1.887c0,2.517,1.627,5.033,4.924,6.887,6.593,3.808,17.279,3.808,23.872,0,3.3-1.9,4.932-4.4,4.924-6.887v-1.887C889.309,3034.151,887.673,3031.651,884.376,3029.747Z" transform="translate(-853.649 -2775.882)" opacity="0.2" style="isolation: isolate"/>
        <ellipse id="Elipse_5323" data-name="Elipse 5323" cx="16.877" cy="9.747" rx="16.877" ry="9.747" transform="translate(1.914 251.014)" fill="#36c"/>
        <path id="Trazado_115970" data-name="Trazado 115970" d="M877.005,2754.742a1.678,1.678,0,0,0-1.678-1.677h0a1.677,1.677,0,0,0-1.678,1.677v237.8h0a.838.838,0,0,0,.486.679,2.6,2.6,0,0,0,2.332,0,.841.841,0,0,0,.487-.679h0Z" transform="translate(-856.561 -2731.742)" fill="#36c"/>
        <path id="Trazado_115971" data-name="Trazado 115971" d="M877.005,2754.742a1.678,1.678,0,0,0-1.678-1.677h0a1.677,1.677,0,0,0-1.678,1.677v237.8h0a.838.838,0,0,0,.486.679,2.6,2.6,0,0,0,2.332,0,.841.841,0,0,0,.487-.679h0Z" transform="translate(-856.561 -2731.742)" opacity="0.2" style="isolation: isolate"/>
        <path id="Trazado_115972" data-name="Trazado 115972" d="M875.358,2753.095h0a1.677,1.677,0,0,0-1.678,1.677v1.963a4.678,4.678,0,0,0,1.678.31,4.51,4.51,0,0,0,1.678-.319v-1.98A1.678,1.678,0,0,0,875.358,2753.095Z" transform="translate(-856.566 -2731.747)" opacity="0.2" style="isolation: isolate"/>
        <path id="Trazado_115973" data-name="Trazado 115973" d="M879.4,2750.22a4.605,4.605,0,1,1-4.605-4.605h0A4.605,4.605,0,0,1,879.4,2750.22Z" transform="translate(-856.004 -2730.542)" fill="#36c"/>
        <path id="Trazado_115974" data-name="Trazado 115974" d="M857.961,2928.678c-1.082,12.1,16.558,20.232,30.2,17.162l-3.942-58.306-22.145,2.995Z" transform="translate(-854.025 -2753.418)" fill="red"/>
        <path id="Trazado_115975" data-name="Trazado 115975" d="M858.691,2920.525a17.039,17.039,0,0,0-.721,3.011l7.138-64.781c12.129,3.767,21.868,13.581,23.646,27.8C890.684,2901.828,864.035,2904.059,858.691,2920.525Z" transform="translate(-854.034 -2748.779)" fill="#2e62b6"/>
        <path id="Trazado_115976" data-name="Trazado 115976" d="M877.31,2746.127a4.385,4.385,0,0,0-4.11,0,2.9,2.9,0,0,0,4.093.018Z" transform="translate(-856.489 -2730.542)" opacity="0.2" style="isolation: isolate"/>
        <path id="Trazado_115977" data-name="Trazado 115977" d="M878.709,2738.893c0,2.072-1.678,4.538-3.75,4.538s-3.749-2.466-3.749-4.538,3.749-11.248,3.749-11.248S878.709,2736.822,878.709,2738.893Z" transform="translate(-856.168 -2727.645)" fill="#36c"/>
        <path id="Trazado_115978" data-name="Trazado 115978" d="M874.81,2762.075l-14.78,84.443s10.812,3.942,17.221,8.2c10.519,7,11.844,16.483,11.844,16.483Z" transform="translate(-854.366 -2733.195)" fill="#ffdf00"/>
      </g>
    </g>
  </g>
</svg>
