<svg xmlns="http://www.w3.org/2000/svg" width="457.792" height="356.531" viewBox="0 0 457.792 356.531">
  <g id="Grupo_54888" data-name="Grupo 54888" transform="translate(-261.679 -1571.854)">
    <g id="freepik--Shadows--inject-338">
      <path id="freepik--Shadow--inject-338" d="M307.541,1927.817l-20.82-12a1.37,1.37,0,0,1,0-2.6l160-92.31a5,5,0,0,1,4.5,0l20.8,12c1.24.72,1.25,1.88,0,2.6l-160,92.37A4.941,4.941,0,0,1,307.541,1927.817Z" fill="#e0e0e0"/>
      <ellipse id="freepik--shadow--inject-338-2" data-name="freepik--shadow--inject-338" cx="54.6" cy="31.52" rx="54.6" ry="31.52" transform="translate(462.911 1832.577)" fill="#e0e0e0"/>
      <ellipse id="freepik--shadow--inject-338-3" data-name="freepik--shadow--inject-338" cx="51.51" cy="29.74" rx="51.51" ry="29.74" transform="translate(559.001 1825.687)" fill="#e0e0e0"/>
      <ellipse id="freepik--shadow--inject-338-4" data-name="freepik--shadow--inject-338" cx="41.93" cy="24.21" rx="41.93" ry="24.21" transform="translate(635.611 1852.967)" fill="#e0e0e0"/>
    </g>
    <g id="freepik--Plant--inject-338">
      <g id="freepik--Plants--inject-338">
        <path id="Trazado_118207" data-name="Trazado 118207" d="M307.321,1906.8c4.58-26.12-3.53-43.84-9.92-54.78s-19.86-21.86-29-20.15c-8.55,1.59-9.23,12.4-.39,20.93s27.82,24.61,30.38,37.47l1.47,11.33Z" fill="#69f"/>
        <path id="Trazado_118208" data-name="Trazado 118208" d="M307.321,1906.8c4.58-26.12-3.53-43.84-9.92-54.78s-19.86-21.86-29-20.15c-8.55,1.59-9.23,12.4-.39,20.93s27.82,24.61,30.38,37.47l1.47,11.33Z" opacity="0.15" style="isolation: isolate"/>
        <path id="Trazado_118209" data-name="Trazado 118209" d="M303.321,1895.047a.54.54,0,0,1-.44-.5c-1.81-26.46-20-50.08-32-56.29a.56.56,0,0,1-.24-.75.569.569,0,0,1,.76-.24c12.14,6.33,30.72,30.34,32.56,57.2a.551.551,0,0,1-.508.589h-.012A.4.4,0,0,1,303.321,1895.047Z" fill="#fff"/>
        <path id="Trazado_118210" data-name="Trazado 118210" d="M302.9,1915.917c-.59-4.42-4.74-10.46-12.27-17.46-8.33-7.75-19.63-12.41-21.6-17.78-2.37-6.45,3.49-11.36,12.84-8.79,8.18,2.25,24,12.9,26.73,38.94A22.456,22.456,0,0,1,302.9,1915.917Z" fill="#69f"/>
        <path id="Trazado_118211" data-name="Trazado 118211" d="M305.4,1913.457a.561.561,0,0,1-.42-.44c-4.66-23.21-20.37-33.42-28.01-35.61a.56.56,0,0,1-.39-.69h0a.55.55,0,0,1,.707-.324l.033.014c8.45,2.38,24,12.73,28.8,36.42a.571.571,0,0,1-.44.66A.6.6,0,0,1,305.4,1913.457Z" fill="#fff"/>
      </g>
    </g>
    <g id="freepik--Clipboard--inject-338">
      <g id="freepik--clip-board--inject-338">
        <g id="freepik--Board--inject-338">
          <path id="Trazado_118212" data-name="Trazado 118212" d="M307.841,1922.407l-3.2-1.85a4,4,0,0,1-1.83-3.15v-256.85a4.07,4.07,0,0,1,1.83-3.15l147.39-85.11a4,4,0,0,1,3.66,0l3.21,1.85a4,4,0,0,1,1.83,3.17v256.87a4.075,4.075,0,0,1-1.83,3.17l-147.4,85.05A4.006,4.006,0,0,1,307.841,1922.407Z" fill="#69f"/>
          <path id="Trazado_118213" data-name="Trazado 118213" d="M307.841,1922.407l-3.2-1.85a4,4,0,0,1-1.83-3.15v-256.85a4.07,4.07,0,0,1,1.83-3.15l147.39-85.11a4,4,0,0,1,3.66,0l3.21,1.85a4,4,0,0,1,1.83,3.17v256.87a4.075,4.075,0,0,1-1.83,3.17l-147.4,85.05A4.006,4.006,0,0,1,307.841,1922.407Z" opacity="0.3" style="isolation: isolate"/>
          <path id="Trazado_118214" data-name="Trazado 118214" d="M460.7,1577.017c-.12-.94-.89-1.29-1.8-.76l-147.4,85.15a3.756,3.756,0,0,0-1.29,1.36l-6.87-4a3.873,3.873,0,0,1,1.29-1.36l147.39-85.11a4,4,0,0,1,3.66,0l3.22,1.85A4.05,4.05,0,0,1,460.7,1577.017Z" fill="#fff" opacity="0.4" style="isolation: isolate"/>
          <path id="Trazado_118215" data-name="Trazado 118215" d="M311.181,1922.6h-.11l-.18.07h-.08c-.112.035-.225.066-.34.09h0a4.211,4.211,0,0,1-2.18-.18,3.047,3.047,0,0,1-.41-.19l-3.21-1.85a4.069,4.069,0,0,1-1.86-3.13v-256.85a3.726,3.726,0,0,1,.53-1.8l6.87,4a3.643,3.643,0,0,0-.54,1.81v256.84a1.5,1.5,0,0,0,.28,1,.94.94,0,0,0,1,.31A1.226,1.226,0,0,0,311.181,1922.6Z" opacity="0.15" style="isolation: isolate"/>
        </g>
        <g id="freepik--Clip--inject-338">
          <path id="Trazado_118216" data-name="Trazado 118216" d="M414.691,1609.227l-.27-.16-3-1.75a11.545,11.545,0,0,0-3.55-1.26c-.52-.11-1-.25-1.41-.38a12.9,12.9,0,0,1-1.34-.55l.23-.28h0l-3.44-2h0a3.365,3.365,0,0,0-.91-.36c-1.29-.31-3.23.44-5.16.22a4.871,4.871,0,0,1-3.52-2.08c-1.17-1.58-1.88-4.35-2.92-6.64l.9-1.34a1.9,1.9,0,0,0-.29-.16l-3.15-1.82a3.37,3.37,0,0,0-1.76-.48,6.646,6.646,0,0,0-3.3,1.08c-7.55,4.36-7.8,14.71-10.52,21.51s-6.57,8.94-8.66,11.88-2.24,5.09-6.88,11.49-4.83,8-4.83,9.17v9.53l3.43,2,61.77-35.67Zm-56.64,36.74c-.81.46-1.47-.16-1.47-1.4a3.847,3.847,0,0,1,1.47-3.09c.8-.47,1.45.16,1.45,1.41A3.854,3.854,0,0,1,358.051,1645.967Zm27.13-26.75a3.109,3.109,0,0,1-4.76-1.45c-2.39.46-4.17-1.85-4.17-5.82,0-4.69,2.47-9.9,5.51-11.66a3.11,3.11,0,0,1,4.75,1.46c2.4-.48,4.17,1.83,4.17,5.82C390.681,1612.247,388.231,1617.467,385.181,1619.217Zm20.51-.81c-.8.47-1.45-.16-1.45-1.39a3.868,3.868,0,0,1,1.45-3.09c.82-.46,1.47.17,1.47,1.41A3.79,3.79,0,0,1,405.691,1618.407Z" fill="#455a64"/>
          <path id="Trazado_118217" data-name="Trazado 118217" d="M357.731,1647.677l-6.64-3.84a4.525,4.525,0,0,0-.22,1.48v9.53l3.43,2,3.43-2Z" fill="#0a4b6e" opacity="0.5" style="isolation: isolate"/>
          <path id="Trazado_118218" data-name="Trazado 118218" d="M364.6,1635.787l3.43-7.93-5.45-3.2h0c-1.61,2.21-2.07,4-4.22,7.52Z" fill="#0a4b6e" opacity="0.5" style="isolation: isolate"/>
          <path id="Trazado_118219" data-name="Trazado 118219" d="M378.321,1619.927l.45-2.31c-1.52-.64-2.53-2.69-2.53-5.67a15.766,15.766,0,0,1,4.18-10.63l-4.76-2.75c-2,4.62-2.78,10.07-4.43,14.21a25.142,25.142,0,0,1-1.11,2.42Z" fill="#0a4b6e" opacity="0.5" style="isolation: isolate"/>
          <path id="Trazado_118220" data-name="Trazado 118220" d="M414.691,1609.227l-.27-.16a13.73,13.73,0,0,0-3.17-1,9.935,9.935,0,0,1-4.84-2.36,6.8,6.8,0,0,0-1.11-.83,3.171,3.171,0,0,0-.92-.37c-2.08-.5-5.87,1.76-8.59-1.76l-.09-.11c-1.9-2.56-2.59-8.28-5.44-10a1.9,1.9,0,0,0-.29-.16c-1.17-.55-2.7-.45-4.79.75-7.54,4.36-7.8,14.72-10.52,21.52s-6.57,8.94-8.66,11.88-2.23,5.09-6.88,11.49-4.82,8-4.82,9.17v9.53l61.77-35.67v-9.52A2.4,2.4,0,0,0,414.691,1609.227Zm-53.22,38.72c-.8.46-1.46-.16-1.46-1.4a3.9,3.9,0,0,1,1.46-3.1c.81-.46,1.45.17,1.45,1.41A3.843,3.843,0,0,1,361.471,1647.947Zm23.71-28.73a3.109,3.109,0,0,1-4.76-1.45,8.821,8.821,0,0,1-.75-3.85c0-4.68,2.47-9.89,5.51-11.65a4.42,4.42,0,0,1,1.33-.52c2.4-.48,4.17,1.83,4.17,5.82C390.681,1612.247,388.231,1617.467,385.181,1619.217Zm23.95,1.19c-.82.47-1.47-.16-1.47-1.39a3.827,3.827,0,0,1,1.47-3.09c.8-.46,1.45.16,1.45,1.41A3.833,3.833,0,0,1,409.131,1620.407Z" fill="#0a4b6e"/>
          <path id="Trazado_118221" data-name="Trazado 118221" d="M390.681,1607.567c0,4.68-2.45,9.9-5.5,11.65a3.109,3.109,0,0,1-4.76-1.45,4.1,4.1,0,0,0,1.34-.52c3-1.76,5.5-7,5.5-11.66a8.8,8.8,0,0,0-.75-3.84C388.911,1601.267,390.681,1603.577,390.681,1607.567Z" fill="#263238"/>
          <path id="Trazado_118222" data-name="Trazado 118222" d="M361.471,1647.947c-.8.46-1.46-.16-1.46-1.4a3.858,3.858,0,0,1,1.46-3.09c.81-.47,1.46.17,1.46,1.4a3.852,3.852,0,0,1-1.46,3.09" fill="#263238"/>
          <path id="Trazado_118223" data-name="Trazado 118223" d="M409.121,1620.407c-.8.46-1.46-.16-1.46-1.4a3.858,3.858,0,0,1,1.46-3.09c.81-.47,1.46.17,1.46,1.41a3.844,3.844,0,0,1-1.46,3.08" fill="#263238"/>
        </g>
        <g id="freepik--Papet--inject-338">
          <path id="Trazado_118224" data-name="Trazado 118224" d="M321.071,1676.767l128.25-74.05a2.414,2.414,0,0,1,2.19,0l1.24.72a2.439,2.439,0,0,1,1.1,1.9V1827.1a2.442,2.442,0,0,1-1.1,1.9l-128.25,74.05a2.421,2.421,0,0,1-2.19,0l-1.24-.71a2.42,2.42,0,0,1-1.1-1.9v-221.76A2.429,2.429,0,0,1,321.071,1676.767Z" fill="#f5f5f5"/>
          <path id="Trazado_118225" data-name="Trazado 118225" d="M453.821,1605.007c-.14-.45-.56-.59-1.06-.31l-128.26,74.05a2.357,2.357,0,0,0-.78.82l-3.43-2a2.2,2.2,0,0,1,.78-.82l128.25-74.02a2.355,2.355,0,0,1,2.19,0l1.24.71A2.4,2.4,0,0,1,453.821,1605.007Z" fill="#fafafa"/>
          <path id="Trazado_118226" data-name="Trazado 118226" d="M324.241,1903.167a2.536,2.536,0,0,1-.41.11h-.21a2.911,2.911,0,0,1-.66,0,2.51,2.51,0,0,1-.41-.11l-.25-.12-1.23-.71a2.42,2.42,0,0,1-1.1-1.9v-221.76a2.149,2.149,0,0,1,.32-1.08l3.43,2a2.378,2.378,0,0,0-.32,1.09v221.72C323.4,1903.017,323.761,1903.307,324.241,1903.167Z" fill="#e0e0e0"/>
        </g>
        <g id="freepik--clip--inject-338-2" data-name="freepik--clip--inject-338">
          <path id="Trazado_118227" data-name="Trazado 118227" d="M424.961,1630.407l-3.41-2a3.716,3.716,0,0,0-3.43.1c-4,1.76-5.72,2.55-7.78,3.42l-1.48.6c-.81.32-2.42,0-1.92-2.77l5.3-14.27h-.08l-3.36-2a1.425,1.425,0,0,0-.55-.19,2.016,2.016,0,0,0-.38,0c-2.17,0-2.78-14-2.8-14.47h0l-.15-.09-3.32-1.91a3.74,3.74,0,0,0-1.9-.48,6.927,6.927,0,0,0-3.14.89c-5.24,2.75-10.48,10.86-11.77,18.17-.81,4.59-5.43,11.67-8.1,14.27s-2.86,4.73-2.86,4.73l-2.08,11.79-.66,3.76c-.49,2.82-3.38,5.54-3.38,5.54l-10.75,8.06c-6.74,5.6-8.64,11.24-9.94,18.23v.05c0,.25,0,.42.11.48a.113.113,0,0,0,.12,0h0l1.38-.78,74-42.69a1.612,1.612,0,0,0,.68-1h0c.42-2.55,1.65-7.33,1.65-7.33Zm-21.4-21.6c-.79,4.48-4,9.48-7.23,11.16-2.21,1.15-3.83.44-4.37-1.6a2.53,2.53,0,0,1-2.42-.31c-1-.81,8.4-17,9.16-16.64a2.71,2.71,0,0,1,1.42,1.93C402.771,1602.547,404.321,1604.787,403.561,1608.807Z" fill="#455a64"/>
          <path id="Trazado_118228" data-name="Trazado 118228" d="M357.731,1671.457l-5.41-3.11c-3.13,4.12-4.39,8.45-5.32,13.47v.05c0,.25,0,.42.11.48a.113.113,0,0,0,.12,0h0l4.25-3.37Z" fill="#0a4b6e" opacity="0.5" style="isolation: isolate"/>
          <path id="Trazado_118229" data-name="Trazado 118229" d="M370.731,1651.217l7.6,4.39,3.43-19.83-6.85-4a6.386,6.386,0,0,0-1.08,2.63l-2.08,11.79-.66,3.76A6.762,6.762,0,0,1,370.731,1651.217Z" fill="#0a4b6e" opacity="0.5" style="isolation: isolate"/>
          <path id="Trazado_118230" data-name="Trazado 118230" d="M388.4,1605.917a29.6,29.6,0,0,0-3.61,9.49,23.431,23.431,0,0,1-2.68,6.72l6.52,3.76,3.24-7.48a2.5,2.5,0,0,1-2.33-.33c-.54-.42,1.7-4.9,4.1-9.11Z" fill="#0a4b6e" opacity="0.5" style="isolation: isolate"/>
          <path id="Trazado_118231" data-name="Trazado 118231" d="M425.011,1630.457h-.05a3.7,3.7,0,0,0-3.41.11c-4.89,2.15-6.37,2.86-9.27,4-.78.32-2.34.06-1.94-2.58a1.081,1.081,0,0,1,0-.18l.67-3.77,1.85-10.27s.42-1.61-.65-2.22h-.08a2,2,0,0,0-.85-.19,4.16,4.16,0,0,1-3.06-2,7.731,7.731,0,0,1-1.15-5.88c.77-4.4-.08-7.48-2-8.63l-.15-.1c-1.26-.66-2.95-.55-4.93.49-5.21,2.73-10.48,10.85-11.76,18.13-.82,4.6-5.44,11.67-8.11,14.28s-2.86,4.76-2.86,4.76l-2.08,11.8-.66,3.77c-.49,2.82-3.38,5.54-3.38,5.54l-10.75,8.06a25.853,25.853,0,0,0-8.85,13.39s-4,3.13-4.29,3.38h0l1.38-.78,74.23-42.67s.85-.47,1-.59,3.23-2.9,3.23-2.9C426.971,1632.937,426.261,1631.207,425.011,1630.457Zm-21.45-21.65c-.79,4.48-4,9.48-7.23,11.16-2.21,1.15-3.83.44-4.37-1.6a8.521,8.521,0,0,1,0-3.47c.8-4.48,4-9.48,7.25-11.15a5.325,5.325,0,0,1,.92-.4C402.771,1602.547,404.321,1604.787,403.561,1608.807Z" fill="#0a4b6e"/>
          <path id="Trazado_118232" data-name="Trazado 118232" d="M403.561,1608.807c-.79,4.48-4,9.48-7.23,11.16-2.21,1.15-3.83.44-4.37-1.6a5.627,5.627,0,0,0,.94-.39c3.21-1.68,6.45-6.68,7.23-11.16a8.185,8.185,0,0,0,0-3.47C402.771,1602.547,404.321,1604.787,403.561,1608.807Z" fill="#263238"/>
          <path id="Trazado_118233" data-name="Trazado 118233" d="M400.471,1603.537h0a1.759,1.759,0,0,1,1.54.75c1.34,1.89.06,6.71-.49,8.25-.77,2.15-5.74,7.18-7.12,7.18a3.359,3.359,0,0,1-2.24-1.44,8.324,8.324,0,0,1,0-3.35c.78-4.42,4-9.35,7.13-11a5.234,5.234,0,0,1,.88-.38h.3m0-.21h-.35a5.282,5.282,0,0,0-.92.4c-3.22,1.67-6.45,6.67-7.25,11.15a8.523,8.523,0,0,0,0,3.47,3.59,3.59,0,0,0,2.43,1.56h0c1.49,0,6.5-5.07,7.3-7.32s2.53-9.28-1.25-9.28Z" fill="#263238"/>
          <path id="Trazado_118234" data-name="Trazado 118234" d="M347.261,1682.407l75.61-43.46,1-.58c.19-.11,3.18-3,3.18-3l-75.55,43.61S346.961,1682.517,347.261,1682.407Z" fill="#263238"/>
        </g>
        <path id="Trazado_118235" data-name="Trazado 118235" d="M336.471,1853.837l20.14-11.79-.01,23.41-20.13,11.79Z" fill="#fafafa"/>
        <path id="Trazado_118236" data-name="Trazado 118236" d="M337.321,1854.317v21.48l18.46-10.81V1843.5Zm-.84,23.76a.775.775,0,0,1-.41-.11.83.83,0,0,1-.42-.72v-23.41a.837.837,0,0,1,.41-.72l20.14-11.79a.84.84,0,0,1,1.25.72v23.41a.832.832,0,0,1-.42.72l-20.14,11.79a.883.883,0,0,1-.42.11Z" fill="#455a64"/>
        <path id="Trazado_118237" data-name="Trazado 118237" d="M366.741,1837.017v1.69c0,.92.65,1.3,1.44.84l71.46-41.25a3.184,3.184,0,0,0,1.44-2.5v-1.7c0-.92-.64-1.29-1.44-.83l-71.46,41.26A3.189,3.189,0,0,0,366.741,1837.017Z" fill="#e0e0e0"/>
        <path id="Trazado_118238" data-name="Trazado 118238" d="M366.741,1847.247v1.69c0,.92.65,1.29,1.44.83l71.46-41.25a3.161,3.161,0,0,0,1.44-2.49v-1.7c0-.92-.64-1.29-1.44-.83l-71.46,41.25A3.206,3.206,0,0,0,366.741,1847.247Z" fill="#e0e0e0"/>
        <path id="Trazado_118239" data-name="Trazado 118239" d="M366.741,1857.407v1.69c0,.92.65,1.29,1.44.83l71.46-41.25a3.182,3.182,0,0,0,1.44-2.49v-1.7c0-.92-.64-1.29-1.44-.84l-71.46,41.26A3.206,3.206,0,0,0,366.741,1857.407Z" fill="#e0e0e0"/>
        <path id="Trazado_118240" data-name="Trazado 118240" d="M346.881,1865.807l-4.68-4.51,2.01-4.27,2.67,2.57,11.09-23.48,2.01,1.94Z" fill="#69f"/>
        <path id="Trazado_118241" data-name="Trazado 118241" d="M336.471,1813.317l20.14-11.79-.01,23.41-20.13,11.79Z" fill="#fafafa"/>
        <path id="Trazado_118242" data-name="Trazado 118242" d="M337.321,1813.8v21.48l18.46-10.81v-21.49Zm-.84,23.76a.775.775,0,0,1-.41-.11.819.819,0,0,1-.42-.72v-23.41a.846.846,0,0,1,.41-.72l20.14-11.79a.84.84,0,0,1,1.25.72v23.41a.832.832,0,0,1-.42.72l-20.14,11.75a.79.79,0,0,1-.42.15Z" fill="#455a64"/>
        <path id="Trazado_118243" data-name="Trazado 118243" d="M366.741,1796.5v1.7c0,.91.65,1.29,1.44.83l71.46-41.25a3.184,3.184,0,0,0,1.44-2.5v-1.7c0-.92-.64-1.29-1.44-.83l-71.46,41.26A3.189,3.189,0,0,0,366.741,1796.5Z" fill="#e0e0e0"/>
        <path id="Trazado_118244" data-name="Trazado 118244" d="M366.741,1806.727v1.68c0,.92.65,1.29,1.44.83l71.46-41.25a3.161,3.161,0,0,0,1.44-2.49v-1.7c0-.92-.64-1.29-1.44-.83l-71.46,41.25A3.206,3.206,0,0,0,366.741,1806.727Z" fill="#e0e0e0"/>
        <path id="Trazado_118245" data-name="Trazado 118245" d="M366.741,1816.9v1.69c0,.92.65,1.29,1.44.83l71.46-41.25a3.161,3.161,0,0,0,1.44-2.49v-1.7c0-.92-.64-1.29-1.44-.83l-71.46,41.26A3.207,3.207,0,0,0,366.741,1816.9Z" fill="#e0e0e0"/>
        <path id="Trazado_118246" data-name="Trazado 118246" d="M346.881,1825.287l-4.68-4.51,2.01-4.27,2.67,2.57,11.09-23.48,2.01,1.95Z" fill="#69f"/>
        <path id="Trazado_118247" data-name="Trazado 118247" d="M336.471,1772.8l20.14-11.79-.01,23.41-20.13,11.79Z" fill="#fafafa"/>
        <path id="Trazado_118248" data-name="Trazado 118248" d="M337.321,1773.277v21.48l18.46-10.81v-21.49Zm-.84,23.77a.877.877,0,0,1-.41-.11.84.84,0,0,1-.42-.73V1772.8a.819.819,0,0,1,.41-.71l20.14-11.79a.817.817,0,0,1,.83,0,.84.84,0,0,1,.42.72v23.39a.821.821,0,0,1-.42.71l-20.14,11.81a.8.8,0,0,1-.42.12Z" fill="#455a64"/>
        <path id="Trazado_118249" data-name="Trazado 118249" d="M366.741,1755.977v1.7c0,.92.65,1.29,1.44.83l71.46-41.25a3.184,3.184,0,0,0,1.44-2.5v-1.7c0-.91-.64-1.29-1.44-.83l-71.46,41.26A3.2,3.2,0,0,0,366.741,1755.977Z" fill="#e0e0e0"/>
        <path id="Trazado_118250" data-name="Trazado 118250" d="M366.741,1766.207v1.69c0,.92.65,1.29,1.44.83l71.46-41.25a3.152,3.152,0,0,0,1.44-2.49v-1.7c0-.92-.64-1.29-1.44-.83l-71.46,41.25A3.206,3.206,0,0,0,366.741,1766.207Z" fill="#e0e0e0"/>
        <path id="Trazado_118251" data-name="Trazado 118251" d="M366.741,1776.407v1.69c0,.92.65,1.29,1.44.83l71.46-41.25a3.161,3.161,0,0,0,1.44-2.49v-1.7c0-.92-.64-1.29-1.44-.83l-71.46,41.25A3.206,3.206,0,0,0,366.741,1776.407Z" fill="#e0e0e0"/>
        <path id="Trazado_118252" data-name="Trazado 118252" d="M346.881,1784.767l-4.68-4.51,2.01-4.26,2.67,2.56,11.09-23.47,2.01,1.94Z" fill="#69f"/>
        <path id="Trazado_118253" data-name="Trazado 118253" d="M335.641,1708.807v42.6c0,2.54,1.79,3.57,4,2.3l36.84-21.3a8.8,8.8,0,0,0,4-6.9v-42.57c0-2.54-1.78-3.57-4-2.3l-36.86,21.28A8.778,8.778,0,0,0,335.641,1708.807Z" fill="#69f"/>
        <path id="Trazado_118254" data-name="Trazado 118254" d="M335.641,1708.807v42.6c0,2.54,1.79,3.57,4,2.3l36.84-21.3a8.8,8.8,0,0,0,4-6.9v-42.57c0-2.54-1.78-3.57-4-2.3l-36.86,21.28A8.778,8.778,0,0,0,335.641,1708.807Z" fill="#fff" opacity="0.7" style="isolation: isolate"/>
        <path id="Trazado_118255" data-name="Trazado 118255" d="M358.051,1697.577c4.25-2.45,7.69-.46,7.69,4.44a17,17,0,0,1-7.69,13.31c-4.24,2.45-7.68.47-7.68-4.43A17,17,0,0,1,358.051,1697.577Z" fill="#fafafa"/>
        <path id="Trazado_118256" data-name="Trazado 118256" d="M371.391,1716.347c-.68-3.55-4.32-3.65-8.13-1.45l-10.42,6c-3.81,2.2-7.45,6.5-8.13,10.84l-1.99,13.67,30.67-17.71Z" fill="#fafafa"/>
        <path id="Trazado_118257" data-name="Trazado 118257" d="M385.031,1695.877v-14.47a2.638,2.638,0,0,1,1.19-2.07l53.67-31c.66-.38,1.19-.07,1.19.69v14.49a2.64,2.64,0,0,1-1.19,2.07l-53.64,31C385.561,1696.947,385.031,1696.637,385.031,1695.877Z" fill="#a22f5f"/>
        <path id="Trazado_118258" data-name="Trazado 118258" d="M386.221,1701.8l45.78-26.45c.66-.38,1.19-.07,1.19.69v1.55a2.622,2.622,0,0,1-1.19,2.07l-45.78,26.45c-.66.38-1.19.07-1.19-.69v-1.55A2.638,2.638,0,0,1,386.221,1701.8Z" fill="#69f"/>
        <path id="Trazado_118259" data-name="Trazado 118259" d="M386.221,1710.407l40.85-23.6c.66-.38,1.19-.07,1.19.69v1.55a2.622,2.622,0,0,1-1.19,2.07l-40.85,23.62c-.66.38-1.19.07-1.19-.69v-1.56A2.645,2.645,0,0,1,386.221,1710.407Z" fill="#69f"/>
        <path id="Trazado_118260" data-name="Trazado 118260" d="M386.221,1719.047l32.42-18.72c.66-.38,1.2-.07,1.2.69v1.56a2.662,2.662,0,0,1-1.2,2.07l-32.42,18.76c-.66.38-1.19.08-1.19-.69v-1.55A2.637,2.637,0,0,1,386.221,1719.047Z" fill="#69f"/>
        <g id="Grupo_54887" data-name="Grupo 54887">
          <path id="Trazado_118261" data-name="Trazado 118261" d="M391.414,1687.076l1.7-8.509,1.722-.994-2.614,11.517-1.614.931-2.6-8.505,1.716-.991Z" fill="#fff"/>
          <path id="Trazado_118262" data-name="Trazado 118262" d="M398.441,1685.5a1.828,1.828,0,0,1-.149-.58,3.6,3.6,0,0,1-1.408,1.616,1.3,1.3,0,0,1-1.358.152,1.372,1.372,0,0,1-.539-1.283,3.95,3.95,0,0,1,.657-2.194,5.518,5.518,0,0,1,1.9-1.736l.686-.4v-.427a.989.989,0,0,0-.2-.71q-.2-.2-.626.053a1.592,1.592,0,0,0-.591.581,1.525,1.525,0,0,0-.213.783l-1.49.86a3.573,3.573,0,0,1,.3-1.368,4.915,4.915,0,0,1,.845-1.351,4.815,4.815,0,0,1,1.227-1.021,1.661,1.661,0,0,1,1.637-.254q.606.341.605,1.592v3.224a3.562,3.562,0,0,0,.222,1.473v.117Zm-1.232-.67a2.134,2.134,0,0,0,.608-.547,2.527,2.527,0,0,0,.413-.764v-1.279l-.557.322a2.111,2.111,0,0,0-1.191,1.718l-.005.12a.552.552,0,0,0,.2.5C396.8,1684.984,396.982,1684.961,397.209,1684.83Z" fill="#fff"/>
          <path id="Trazado_118263" data-name="Trazado 118263" d="M402.441,1683.191l-1.495.863V1673.5l1.495-.863Z" fill="#fff"/>
          <path id="Trazado_118264" data-name="Trazado 118264" d="M403.436,1678.828a7.378,7.378,0,0,1,.32-2.157,6.2,6.2,0,0,1,.92-1.871,4.545,4.545,0,0,1,1.4-1.28,1.637,1.637,0,0,1,1.843-.143,2.561,2.561,0,0,1,.8,2.043l.01.5a7.035,7.035,0,0,1-.716,3.16,4.891,4.891,0,0,1-1.923,2.144q-1.206.7-1.925.081a3.078,3.078,0,0,1-.72-2.389Zm1.49-.719a2.51,2.51,0,0,0,.3,1.449q.3.389.856.067a2.057,2.057,0,0,0,.845-1.042,5.154,5.154,0,0,0,.3-1.948,2.464,2.464,0,0,0-.3-1.436c-.2-.263-.487-.29-.855-.077a2.042,2.042,0,0,0-.846,1.056A5.243,5.243,0,0,0,404.926,1678.109Z" fill="#fff"/>
          <path id="Trazado_118265" data-name="Trazado 118265" d="M412.772,1671.651a4.288,4.288,0,0,0-.536.255,2.3,2.3,0,0,0-1.108,1.4v4.866l-1.49.86V1671.6l1.407-.812.042.862a3.073,3.073,0,0,1,1.242-1.741,1.383,1.383,0,0,1,.464-.178Z" fill="#fff"/>
          <path id="Trazado_118266" data-name="Trazado 118266" d="M416.567,1675.035a1.853,1.853,0,0,1-.15-.58,3.614,3.614,0,0,1-1.407,1.617,1.308,1.308,0,0,1-1.359.151,1.372,1.372,0,0,1-.538-1.283,3.951,3.951,0,0,1,.657-2.194,5.511,5.511,0,0,1,1.9-1.736l.685-.4v-.426a.991.991,0,0,0-.2-.711c-.133-.129-.341-.112-.627.053a1.6,1.6,0,0,0-.59.581,1.518,1.518,0,0,0-.214.783l-1.49.861a3.592,3.592,0,0,1,.3-1.369,4.942,4.942,0,0,1,.846-1.351,4.8,4.8,0,0,1,1.227-1.021,1.661,1.661,0,0,1,1.636-.254q.606.341.606,1.592v3.224a3.555,3.555,0,0,0,.222,1.473v.117Zm-1.233-.67a2.136,2.136,0,0,0,.609-.547,2.527,2.527,0,0,0,.412-.764v-1.278l-.556.321a2.112,2.112,0,0,0-1.191,1.718l-.005.12a.554.554,0,0,0,.2.5Q414.994,1674.562,415.334,1674.365Z" fill="#fff"/>
          <path id="Trazado_118267" data-name="Trazado 118267" d="M421.314,1670.83a1.814,1.814,0,0,0,.671-.689,2,2,0,0,0,.268-.959l1.4-.807a4.51,4.51,0,0,1-.31,1.564,5.217,5.217,0,0,1-.832,1.456,4.25,4.25,0,0,1-1.168,1.022q-1.2.69-1.887.075a3.185,3.185,0,0,1-.69-2.4v-.131a7.124,7.124,0,0,1,.685-3.138,4.708,4.708,0,0,1,1.882-2.11q1.046-.6,1.678-.175a2,2,0,0,1,.642,1.743l-1.4.806a1.014,1.014,0,0,0-.268-.788q-.258-.214-.681.03a1.859,1.859,0,0,0-.786.96,4.925,4.925,0,0,0-.265,1.8v.206a2.812,2.812,0,0,0,.262,1.5Q420.779,1671.14,421.314,1670.83Z" fill="#fff"/>
          <path id="Trazado_118268" data-name="Trazado 118268" d="M424.49,1661.1a1.814,1.814,0,0,1,.224-.865,1.581,1.581,0,0,1,.611-.641c.255-.147.457-.168.608-.063a.688.688,0,0,1,.227.6,1.8,1.8,0,0,1-.229.875,1.6,1.6,0,0,1-.606.639.554.554,0,0,1-.606.061A.7.7,0,0,1,424.49,1661.1Zm1.583,8.448-1.495.863v-7.437l1.495-.863Z" fill="#fff"/>
          <path id="Trazado_118269" data-name="Trazado 118269" d="M427.068,1665.185a7.37,7.37,0,0,1,.319-2.157,6.208,6.208,0,0,1,.921-1.872,4.54,4.54,0,0,1,1.394-1.279,1.636,1.636,0,0,1,1.843-.143,2.559,2.559,0,0,1,.8,2.042l.011.5a7.018,7.018,0,0,1-.717,3.159,4.886,4.886,0,0,1-1.922,2.145q-1.208.7-1.926.08a3.081,3.081,0,0,1-.719-2.389Zm1.49-.719a2.5,2.5,0,0,0,.3,1.448q.3.389.856.067a2.063,2.063,0,0,0,.845-1.042,5.151,5.151,0,0,0,.3-1.948,2.457,2.457,0,0,0-.3-1.435q-.3-.4-.856-.078a2.048,2.048,0,0,0-.845,1.056A5.223,5.223,0,0,0,428.558,1664.466Zm1.438-7.742,1.624-.937-1.428,2.955-1.212.7Z" fill="#fff"/>
          <path id="Trazado_118270" data-name="Trazado 118270" d="M434.641,1657.163l.046.832a4,4,0,0,1,1.6-1.922q.885-.511,1.319-.068a2.744,2.744,0,0,1,.444,1.82v4.805l-1.49.86v-4.757q0-.632-.207-.8c-.137-.111-.366-.074-.685.111a2.222,2.222,0,0,0-.943,1.259v5.244l-1.49.861v-7.438Z" fill="#fff"/>
        </g>
      </g>
    </g>
    <g id="freepik--character-1--inject-338">
      <g id="freepik--Character--inject-338">
        <g id="freepik--Bottom--inject-338">
          <path id="Trazado_118271" data-name="Trazado 118271" d="M488.6,1849.657a9.32,9.32,0,0,0-1,4.79c.07,1.45.94,3.32.55,6.59s-1.14,4.29-1.49,6.6a8.1,8.1,0,0,0,1.28,6.13c1.35,2.2,4.33,3.94,10.22,3.73,4.75-.17,6.67-2.61,6.77-5.41Z" fill="#263238"/>
          <path id="Trazado_118272" data-name="Trazado 118272" d="M489.981,1842.887a12.7,12.7,0,0,0-.28,1.85c-.18,1.1-.51,2.15-.77,3.23-.07.29-.14.58-.2.86-.46,2.19,0,4.45,0,6.67a37.7,37.7,0,0,1-1.37,7.78c-1.07,4.62-1.24,7.71,2.8,10.92,2.13,1.68,4.47,1.74,7.17,1.82a11.377,11.377,0,0,0,6-1.45c1.73-1.27,1.71-2.34,1.72-2.75.16-4.92-1.61-10.63-2-15.53a24.076,24.076,0,0,1-.09-4c.17-1.62.73-3.23.91-4.88a2.748,2.748,0,0,0-.23-1.79,2.878,2.878,0,0,0-2.18-1q-3.231-.42-6.47-.65a1.939,1.939,0,0,0-1.47.29,2.7,2.7,0,0,0-.55,1.57c-.11.56-.52,1.18-1.07,1.08a.94.94,0,0,1-.66-.82c-.06-.36-.21-3.2-.2-3.58C491,1842.537,490.241,1842.407,489.981,1842.887Z" fill="#263238"/>
          <path id="Trazado_118273" data-name="Trazado 118273" d="M561.471,1859.177a3.629,3.629,0,0,1,0,2.71c-.34.8-4.37,3.29-9.94,3.14a23.143,23.143,0,0,1-11.65-3.55c-2.17-1.32-4.39-1.49-7.14-1.54s-6-1-6.92-2.29a6.491,6.491,0,0,1,0-3.71Z" fill="#263238"/>
          <path id="Trazado_118274" data-name="Trazado 118274" d="M541.321,1842.737a9.08,9.08,0,0,1,.58,1.22,9.9,9.9,0,0,0,3.06,3.82,32.588,32.588,0,0,0,6.15,3.32c1.37.6,2.8.78,4.19,1.26a23.933,23.933,0,0,1,4.5,2c2.24,1.38,2.67,5.06.25,6.62-2.09,1.35-7.67,2.94-13.65,1.5-3.26-.78-7-4.08-11.22-4.24-2.7-.1-7.81-.65-9.62-2.62-.67-2.94.06-3.78.66-6.29a20.252,20.252,0,0,0,.51-4.31c0-.76-.51-2.95,1.09-3.22l.17,1.64s.3.56,2,.85c.54.1,1,.8,1.26,1.45s.46,1.14,1,1.12a1,1,0,0,0,.84-.65,9.543,9.543,0,0,0,.31-1.07,4.238,4.238,0,0,1,2.52-2.5,12.337,12.337,0,0,1,2.95-.61c.77-.12,1.4-.45,2.08.2A2.163,2.163,0,0,1,541.321,1842.737Z" fill="#263238"/>
          <path id="Trazado_118275" data-name="Trazado 118275" d="M499.031,1716.877c-2.05,20.11-2.87,29.66-5.51,69.77a115.6,115.6,0,0,0-4,23.06c-.57,9.74-2,39.09-2,39.09s7.85,6.45,16.94,3.46c0,0,8.22-43.12,11.09-56.58,2.75-12.91,5.53-29.15,5.53-29.15l1.3,20.12s-.37,8-.12,20c.14,6.41,3.22,41,3.22,41s11,5,18.45-1.42c0,0,.54-56.17.65-62,.13-6.61-1-73.08-1-73.08Z" fill="#12263f"/>
          <path id="Trazado_118276" data-name="Trazado 118276" d="M521.1,1766.527l5-27.38s8.7-.76,13.51-5.61c0,0-.86,4.76-11.79,7.61l-4.5,22.85-.93,22.65Z" fill="#263238"/>
          <path id="Trazado_118277" data-name="Trazado 118277" d="M487.791,1843.5a17.924,17.924,0,0,0,12.08,4.35s-7.5-1.11-12-6.07Z" fill="#263238"/>
          <path id="Trazado_118278" data-name="Trazado 118278" d="M525.141,1843.587s7.67,2.67,14.15.63c0,0-5,3.36-14,.6Z" fill="#263238"/>
        </g>
        <g id="freepik--Top--inject-338">
          <path id="Trazado_118279" data-name="Trazado 118279" d="M599.391,1665.167a4.131,4.131,0,0,0,.31-1.18c0-.31-.22-.46-.31-.75-.21-.67.2-1.48-.26-2.09-.15-.2-.38-.34-.53-.54s-.22-.58-.4-.84a1.4,1.4,0,0,0-1.48-.43,4.991,4.991,0,0,0-2.09,1.3c-2.15,1.89-4.28,4.27-6.79,5.66a6.623,6.623,0,0,1-1.19.52c-.27.09-.93.36-1,0a4.333,4.333,0,0,1,.23-1.21,18.662,18.662,0,0,0,.23-2c.06-1.12.11-2.74-.79-3.57-1.51-1.41-1.12,1.82-3.47,4.88s-2.71,7.66-4.5,9.73h0l-12.37,11.28s-9.69-13.76-14.94-21.48c-5.59-8.21-8.57-7.68-15.44-8.82-2.72,9,6.43,26.49,6.43,26.49s13.07,14.34,17.1,18.07c3.39,3.13,7,3.55,10.24.48,2.16-2,10.93-12.56,13.38-15.61a24.468,24.468,0,0,1,6.18-5.9,54.087,54.087,0,0,0,5.55-3.5,25.33,25.33,0,0,0,3.85-3.45,15.724,15.724,0,0,0,1.63-2.07,11.689,11.689,0,0,0,.72-1.83,4.722,4.722,0,0,0,.41-1.68,1.777,1.777,0,0,0-.7-1.51Z" fill="#b16668"/>
          <path id="Trazado_118280" data-name="Trazado 118280" d="M570.641,1680.347l4.8-3.88s2.19,5.83,6.3,8.68l-4.17,5.85Z" fill="#455a64"/>
          <path id="Trazado_118281" data-name="Trazado 118281" d="M532.911,1655.237c3.57.32,9.22.73,12,3s5.35,5,10.41,12.49,9.79,14.1,9.79,14.1l8.15-7.49s1.09,7.29,6,12.41c0,0-8.66,10.33-11.08,12.35s-5.76,3.39-10.61-1-18.34-19.69-18.34-19.69Z" fill="#e6e6e6"/>
          <path id="Trazado_118282" data-name="Trazado 118282" d="M511.831,1654.647c-1.74.42-9.26,2.55-13.75,4.13a12.5,12.5,0,0,0-5.67,4.34c-3.26,4.76,1.67,14.69,4.07,34.62-.19,12.86-.56,28.86-.56,28.86,5.92,4.31,34.56,6.68,47-2.41,0,0-.63-47.73-1.45-54-1.57-12-6.28-15.23-16-15.8Z" fill="#7cc5ff"/>
          <path id="Trazado_118283" data-name="Trazado 118283" d="M540.631,1616.517a8.53,8.53,0,0,0,.19-1.33,5.441,5.441,0,0,0-1.66-4.36,3.73,3.73,0,0,0-4.46-.43c0-2.63-2-5.34-4.61-5.47-1.8-.09-3.43.95-5,1.75a62.757,62.757,0,0,1-7.77,2.78,20.243,20.243,0,0,0-7.2,3.8,8.858,8.858,0,0,0-3.18,7.24c-2.14.92-3.31,3.35-3.41,5.68-.16,3.53,1.49,6.85,2.82,10,0,0,3.37,8.06,4.18,9.65.93,1.84,1.62,3.38,1.62,3.38l-.3-5.8a24.513,24.513,0,0,0,6.79-1.2,43.317,43.317,0,0,0,6.3-3,76.1,76.1,0,0,0,11.27-8.09c1.83-1.54,3.7-3.25,4.36-5.54a6.431,6.431,0,0,0-1.25-5.85A11.893,11.893,0,0,0,540.631,1616.517Z" fill="#0f2771"/>
          <path id="Trazado_118284" data-name="Trazado 118284" d="M516.751,1620.747a11.322,11.322,0,0,1-3.9,8.15,20.917,20.917,0,0,1,.16,7.05,3.778,3.778,0,0,1-.53,1.42,1.692,1.692,0,0,1-1.24.78,1.079,1.079,0,0,1-1.17-.89,17.281,17.281,0,0,0-1-2,4.093,4.093,0,0,0-.6-.76c-1-1-4.11-2.13-5.53,1.14s1.25,7.81,3.71,8.54c3.48,1,4.49-1.7,4.49-1.7l.82,15.2c2.31,2.42,11.78,5.73,14.3,8.59,1.13-2,4.37-6.73.1-9.45l-.1-4.89a35.034,35.034,0,0,0,6.88-.34c2.2-.43,4.24-2.34,4.77-5.78a59.906,59.906,0,0,0,0-19.5c-.81-4-3-6.62-4.16-7.22.05.86-.66,3-5,3.54A23.14,23.14,0,0,1,516.751,1620.747Z" fill="#b16668"/>
          <path id="Trazado_118285" data-name="Trazado 118285" d="M526.221,1651.937c-3.94-.36-6.75-.9-9-2.07a8.325,8.325,0,0,1-3.45-3.2,10.99,10.99,0,0,0,2,3.85c1.85,2.2,10.43,3.42,10.43,3.42Z" fill="#9a4a4d"/>
          <path id="Trazado_118286" data-name="Trazado 118286" d="M524.4,1634.687a1.52,1.52,0,0,1-1.436,1.6h0a1.54,1.54,0,0,1-1.55-1.51,1.5,1.5,0,0,1,3-.09Z" fill="#263238"/>
          <path id="Trazado_118287" data-name="Trazado 118287" d="M523.251,1629.107l-3.45,1.87a2.049,2.049,0,0,1,.82-2.73,1.918,1.918,0,0,1,2.6.794C523.229,1629.062,523.24,1629.084,523.251,1629.107Z" fill="#263238"/>
          <path id="Trazado_118288" data-name="Trazado 118288" d="M537.321,1630.707l-3.66-1.42a2.069,2.069,0,0,1,2.62-1.14,1.909,1.909,0,0,1,1.074,2.478C537.344,1630.652,537.333,1630.68,537.321,1630.707Z" fill="#263238"/>
          <path id="Trazado_118289" data-name="Trazado 118289" d="M523.661,1642.607l4.77,1.62a2.48,2.48,0,0,1-3.079,1.679l-.031-.009A2.64,2.64,0,0,1,523.661,1642.607Z" fill="#9a4a4d"/>
          <path id="Trazado_118290" data-name="Trazado 118290" d="M536.321,1633.937a1.51,1.51,0,1,1-1.56-1.53A1.549,1.549,0,0,1,536.321,1633.937Z" fill="#263238"/>
          <path id="Trazado_118291" data-name="Trazado 118291" d="M529.2,1641.517l5-1a14.748,14.748,0,0,0-5.9-8.84Z" fill="#9a4a4d"/>
          <path id="Trazado_118292" data-name="Trazado 118292" d="M528.791,1668.747c.88,3,6,24.13,5.31,31.57a45.915,45.915,0,0,1-3.07,11.1c-2.24,5.3-3.73.56-5-2.57a39.812,39.812,0,0,1-2.1-9c-.41-4,1.19-16.12.58-30.34a3.059,3.059,0,0,1,4.257-.776Z" fill="#69f"/>
          <path id="Trazado_118293" data-name="Trazado 118293" d="M528.791,1668.747c.88,3,6,24.13,5.31,31.57a45.915,45.915,0,0,1-3.07,11.1c-2.24,5.3-3.73.56-5-2.57a39.812,39.812,0,0,1-2.1-9c-.41-4,1.19-16.12.58-30.34a3.059,3.059,0,0,1,4.257-.776Z" opacity="0.2" style="isolation: isolate"/>
          <path id="Trazado_118294" data-name="Trazado 118294" d="M528.981,1661.967c2,1.75-.19,6.78-.19,6.78a5.788,5.788,0,0,0-4.26.73s-4.08-1.74-4.09-4.76c0-2.75,2.92-1.87,5-2.23S528.741,1660.5,528.981,1661.967Z" fill="#69f"/>
          <path id="Trazado_118295" data-name="Trazado 118295" d="M528.981,1661.967c2,1.75-.19,6.78-.19,6.78a5.788,5.788,0,0,0-4.26.73s-4.08-1.74-4.09-4.76c0-2.75,2.92-1.87,5-2.23S528.741,1660.5,528.981,1661.967Z" opacity="0.2" style="isolation: isolate"/>
          <path id="Trazado_118296" data-name="Trazado 118296" d="M528.791,1668.747c-.33-1.18-1.94-1.07-3.22-1.47a3.491,3.491,0,0,1-1.73-1.49c-.66-1.14,0-3,.93-3.22h0c-2,.14-4.33-.31-4.33,2.15,0,3,4.09,4.76,4.09,4.76A5.788,5.788,0,0,1,528.791,1668.747Z" opacity="0.2" style="isolation: isolate"/>
          <path id="Trazado_118297" data-name="Trazado 118297" d="M525.751,1662.407c-4-.84-13.22-4.65-14.13-9.23l-.11-2.51c-1.54,0-2.25,1.71-3,4.17-.32,6.48,6.51,12.39,13.37,14a11.978,11.978,0,0,1,1.51-4.25A4.862,4.862,0,0,1,525.751,1662.407Z" fill="#b0dcff"/>
          <path id="Trazado_118298" data-name="Trazado 118298" d="M511.671,1653.957s2.92,14.69,4.19,24.62,1,38,.34,55.76c-.49,13-2.42,36.91-2.42,36.91s-3.2.65-10.92-.63c-6.58-1.08-12.87-2.14-14.28-3,0,0,3.45-35.42,4.37-48.13a122.737,122.737,0,0,0,0-19.74l-4.36-25.94s-3.25-13.07,7.14-16.36A137.464,137.464,0,0,1,511.671,1653.957Z" fill="#f5f5f5"/>
          <path id="Trazado_118299" data-name="Trazado 118299" d="M506.671,1678.047c0-.62-.06-1.95-.16-3.63-.53-8.2.22-20.07,3-20.66l.25,1.13c-2,.43-2.34,15.47-2.09,19.46.11,1.71.19,3.07.17,3.75Z" fill="#69f"/>
          <path id="Trazado_118300" data-name="Trazado 118300" d="M511.461,1649.177c-.82-.17-1.56.26-2.22,1.39s-2.47,4.52-2.47,4.52-.41,6.87.34,8.83c.65,1.7,5,9.72,5,9.72s-.28,7.8-.35,10.12,4.44,12,4.94,16.56c0,0,.23-18.34-.44-23.43-1.17-8.87-2.64-20-4.6-23.59Z" fill="#e6e6e6"/>
          <path id="Trazado_118301" data-name="Trazado 118301" d="M505.011,1705.247h-.1v-.81a5.3,5.3,0,0,0,2.66-1,10.088,10.088,0,0,1-2.21-2c-1.3-1.68-4.16-13.73-3.28-16.53.74-2.36,3-7.54,5.11-7.63h.13c2.05,0,4.76,4.9,5.68,7.16,1.12,2.73-.7,15-1.86,16.76a9.778,9.778,0,0,1-2,2.18,5.094,5.094,0,0,0,2.73.76l.1.8a6.275,6.275,0,0,1-3.54-1A6.411,6.411,0,0,1,505.011,1705.247Zm2.31-27.15h0c-1.21.05-3.38,3.9-4.37,7.06-.8,2.58,1.94,14.23,3.15,15.8a9.659,9.659,0,0,0,2.28,2,9.348,9.348,0,0,0,2.1-2.18c1.07-1.66,2.82-13.51,1.79-16C510.961,1681.717,508.5,1678.1,507.321,1678.1Z" fill="#455a64"/>
          <path id="Trazado_118302" data-name="Trazado 118302" d="M513.031,1704.5a1.19,1.19,0,1,1-1.24-1.14,1.19,1.19,0,0,1,1.24,1.14Z" fill="#263238"/>
          <path id="Trazado_118303" data-name="Trazado 118303" d="M506.121,1704.787a1.19,1.19,0,1,1-1.238-1.138A1.2,1.2,0,0,1,506.121,1704.787Z" fill="#263238"/>
          <path id="Trazado_118304" data-name="Trazado 118304" d="M513.161,1689.757h-.69a.27.27,0,0,1-.24-.29,13.747,13.747,0,0,0-.21-4.59c-1.2-2.92-3.68-6.59-4.76-6.54s-3.24,3.91-4.18,6.92a13.538,13.538,0,0,0,.18,4.59.27.27,0,0,1-.22.31l-.68.1a.27.27,0,0,1-.3-.23,13.614,13.614,0,0,1-.14-5.14c.5-1.61,2.89-7.66,5.29-7.76s5.29,5.72,5.93,7.29a13.577,13.577,0,0,1,.3,5.13A.27.27,0,0,1,513.161,1689.757Z" fill="#69f"/>
          <path id="Trazado_118305" data-name="Trazado 118305" d="M526.221,1652.047c1.16.71,3.62,2.33,3.62,2.33,4.59,1.36,7.53,1.9,9.39,4.38,3.07,4.11,5.37,8.73,6.14,29.53s2.24,78.49,2.24,78.49-5.05,2.92-10.48,1.72c0,0,.19-65.38-.25-80.08s-2.67-21.88-5.85-26.72a16.384,16.384,0,0,0-4.78-8.28Z" fill="#f5f5f5"/>
          <path id="Trazado_118306" data-name="Trazado 118306" d="M531.171,1662.077c3.19,4.85,5.13,11.44,5.57,26.14.05,1.75.24,5.38.28,8.33,0,0,.47-2.26.9-4.55s2.1-9.75,1.63-12.58-3.53-8.69-3.53-8.69a26.271,26.271,0,0,0-2.6-13.73,9.272,9.272,0,0,0-1.62-2.11,14.988,14.988,0,0,0-2-1.35c-1.92-1.17-2.53-1.4-3.6-1.49v1.37A17.861,17.861,0,0,1,531.171,1662.077Z" fill="#e6e6e6"/>
          <path id="Trazado_118307" data-name="Trazado 118307" d="M526.251,1653.407a10.116,10.116,0,0,1,3.43,2.63c4.15,6.12,1.29,11.4,1.29,11.4a9.666,9.666,0,0,0-2-3.45,5.257,5.257,0,0,0-3.18-1.57c1.26-1.35,1.25-3.52.57-5.6Z" fill="#b0dcff"/>
          <path id="Trazado_118308" data-name="Trazado 118308" d="M495.531,1658.837a12.848,12.848,0,0,0-11.62,9.06c-1.69,4.92-3.87,16.83-6.39,24.6-4.41-2.14-15.1-7.31-17.23-9.18-2.6-2.18-4.36-5.09-5.37-6.33a24.392,24.392,0,0,1-2.56-3.91,19.845,19.845,0,0,1-1.88-4.74c-.57-1.64-3-.08-3,2.86a14.577,14.577,0,0,0,.56,4.39c-1.06-.09-3.77-.11-4.25-.14-1.67-.14-6.77-.05-6.26,2.65.12.61.53,1.17.47,1.78a4.27,4.27,0,0,1-.25.84,3.12,3.12,0,0,0,.74,3.08,2.388,2.388,0,0,1,.74,1.26,3.982,3.982,0,0,0,.48,1.48,6.035,6.035,0,0,0,1,.84,4.953,4.953,0,0,1,.94,1.36,5.839,5.839,0,0,0,.91,1.39c.91.94,2.37.69,3.56.68a50.216,50.216,0,0,1,5.29-.22c3.13.72,14.56,10.82,24.35,16.14,3.35,1.82,6.08,2.73,8.21,1.6h0c1.8-.71,2.68-2.67,3.82-5.48,2.6-6.57,9.31-24.1,9.31-24.1C499.631,1671.457,497.441,1662.407,495.531,1658.837Z" fill="#b16668"/>
          <path id="Trazado_118309" data-name="Trazado 118309" d="M465.791,1686.187l-5.5-2.87a13.531,13.531,0,0,1-4.81,9.58l5.45,4.51C464.4,1694.407,466.321,1690.767,465.791,1686.187Z" fill="#455a64"/>
          <path id="Trazado_118310" data-name="Trazado 118310" d="M495.731,1657.467c1.37,1.45,5.37,13.22,3.24,19.34s-10.22,26.9-11.5,29.62-3.43,4.7-9.54,2.4-19.74-12.42-19.74-12.42a26.019,26.019,0,0,0,5.27-11.93l13.48,6s3.7-16,5.41-21.68S487.611,1658.5,495.731,1657.467Z" fill="#e6e6e6"/>
          <path id="Trazado_118311" data-name="Trazado 118311" d="M447.181,1676.807c1.58,0,2.29.79,2.94,2.86.38,1.23,1.5,3.36,3.12,3.82a3.3,3.3,0,0,1-2-.18c-.85-.43-1-.44-1.26,0a2.5,2.5,0,0,1-.74.83,1.661,1.661,0,0,1,.77,1.84c-.28,1.26-3.13,2.24-5.87,1.81,0,0,4.19-.09,4.67-1.59s-2-2.34-3.67-2.25c0,0,4-.35,4.11-1.74s-1.66-1.79-4-1.62c0,0,3.21-.46,3.39-1.66C448.881,1677.5,447.721,1677.087,447.181,1676.807Z" fill="#9a4a4d"/>
        </g>
      </g>
    </g>
    <g id="freepik--characters-2-and-3--inject-338">
      <g id="freepik--Characters--inject-338">
        <path id="Trazado_118312" data-name="Trazado 118312" d="M641.081,1835.537c1.72,0,1.11,6.55,1.56,10.84.47,4.6,1.46,8.1,1.89,11.87a15.289,15.289,0,0,1-1.44,9.65c-1.2,2.75-7.24,6.52-9.53,2.59s-2.78-8.44-2.52-12.73a78.807,78.807,0,0,0-.12-10.8c-.2-3.36-1.46-10.2.77-10.62l.11,1.16c.8,1.6,8.45,2.7,9.35-.38Z" fill="#0a4b6e"/>
        <path id="Trazado_118313" data-name="Trazado 118313" d="M606.321,1842.1c.52,2.16,0,8.05,0,8.05s-.94,2-4.25,3.39l-1.49-8.2Z" fill="#263238"/>
        <path id="Trazado_118314" data-name="Trazado 118314" d="M602.081,1853.537l-7.31-2.4-1.77-6.49,8.23,4.16Z"/>
        <path id="Trazado_118315" data-name="Trazado 118315" d="M594.481,1834.587v-1.53c-1,.48-3.18,8.49-6.14,14-2.7,5-8.05,7.8-9.79,10-2.33,2.91,2.19,6.68,9.44,5.12,3.6-.77,9.05-3.07,10.53-5.5s2-6.89,3.19-8.67,4.08-3.84,4.69-5.88a11.108,11.108,0,0,0,0-5.61c-.57-1.85-1.06-4.08-1.7-3.88v1.4c-.48,1-2.23,2.15-5.9,2.34C596.961,1836.407,595.321,1836.177,594.481,1834.587Z" fill="#0a4b6e"/>
        <path id="Trazado_118316" data-name="Trazado 118316" d="M593.251,1709.787c-1.71,11.28-3.88,43.86-3.62,66.48.28,24.26,0,64.67,0,64.67a21.339,21.339,0,0,0,9,2.52,24.24,24.24,0,0,0,9.49-1.62s4.62-33.65,5.37-42.05a79.283,79.283,0,0,0-1.1-18.92l2.78-20.21s2.66,19.63,3.32,23.22,10.07,62.93,10.07,62.93,2.69,1.51,7.79,1.38a13.607,13.607,0,0,0,8.12-2.95s-.15-45.6-1.15-52.83-2.67-13.39-3-18.14-1.41-32.37-1.76-42.68c-.39-11.41-.82-16.82-4.67-28.17C633.911,1703.407,594.4,1702.237,593.251,1709.787Z" fill="#455a64"/>
        <path id="Trazado_118317" data-name="Trazado 118317" d="M615.151,1760.657l-3.91-27.71s-8.19-3-11.29-7.11a16.61,16.61,0,0,0,8.94,9l5,26.37-.75,14.35Z" fill="#0a4b6e"/>
        <path id="Trazado_118318" data-name="Trazado 118318" d="M597.551,1704c5.4-29.53,8-37.67,8.75-44.2-9-.32-14.12,3.46-16.69,13.26-1.19,4.52-3.41,19.6-5.11,26.91-3.84,8.16-5,17.57-9.19,23.09a4.8,4.8,0,0,1-2.81,1.81c-2.55.88-3.32,2.29-5.41,3.66-1.63,1.07-2.83,1.16-2.76,1.64a2.221,2.221,0,0,0,2.55,1.62,11.154,11.154,0,0,0,3.05-.85,22.9,22.9,0,0,1-4.48,4.51c-4,3.12-3.82,6.25,2.49,7.76,3.95.95,7.64-1.49,13.6-8.84a63.422,63.422,0,0,0,6.26-10C592.761,1714.907,595.971,1710.017,597.551,1704Z" fill="#ffa8a7"/>
        <g id="freepik--Chest--inject-338">
          <path id="Trazado_118319" data-name="Trazado 118319" d="M616.181,1658.917l14.31,1.29a17.5,17.5,0,0,1,2.76,1.51c2.84,2.3,3.05,6.78,3.53,10.09.73,5-2.85,20.1-4.12,24.82,0,0,4.66,12,5.1,21.28-12.28,7.2-34.39,9.75-45.92.27.57-6.65,3-17,2.93-17.22-.23-5-.43-9.33-.43-9.33-6.28-6.15-4-12.88-1.84-17.3,4.4-8.82,12.11-13.77,13.8-14.53Z" fill="#fcebd5"/>
          <path id="Trazado_118320" data-name="Trazado 118320" d="M605.791,1692.287s3.71,3.7,10.5,1.85a12.622,12.622,0,0,0,8.69-8.09s.82,7.43-8.41,9.84C608.661,1697.947,605.791,1692.287,605.791,1692.287Z" opacity="0.1" style="isolation: isolate"/>
        </g>
        <g id="freepik--Arms--inject-338">
          <g id="freepik--Arm--inject-338">
            <path id="Trazado_118321" data-name="Trazado 118321" d="M672.251,1733a13,13,0,0,0-9.95,4c-3.5,3.33-7.17,6.81-12.12,11.74l-10-17.12-8,6.29a148.756,148.756,0,0,0,8.7,18.31c1.56,2.61,4.31,8.57,9.08,7,4.5-1.52,17.24-12.14,17.24-12.14Z" fill="#f28f8f"/>
            <path id="Trazado_118322" data-name="Trazado 118322" d="M640.171,1731.607l3.17,5.42a8.751,8.751,0,0,1-10.34,2.88l-.81-2Z" fill="#b16668"/>
            <path id="Trazado_118323" data-name="Trazado 118323" d="M674.411,1732.407c-5.55-.18-8.47.78-12.51,4.47-4.64,4.22-10.53,10.13-10.53,10.13a26.007,26.007,0,0,0,6.89,11.4l14.58-10.92Z" fill="#455a64"/>
          </g>
          <path id="Trazado_118324" data-name="Trazado 118324" d="M655.691,1693.157c-11.45-24.72-14-29.63-18.7-31.67a22.15,22.15,0,0,0-6.5-1.28c-1.62,3-5.22,13.89,1.57,20.5,0,0,7.71,11.55,11.19,17.72-.71,6.38-1.8,15.82-3.85,20.24a5.335,5.335,0,0,1-2.46,2.3c-2.42,1.22-2.62,2.41-4.62,3.8-1.56,1.08-2.79,1.19-2.66,1.66a2.581,2.581,0,0,0,2.83,1.53,11.365,11.365,0,0,0,3.05-.9,19.6,19.6,0,0,1-4.09,4.5c-3.78,3.14-4.21,5.42,2.49,6.76,4.2.84,7.85-.92,12.05-8.88a66.259,66.259,0,0,0,4.13-9.03c1.93-5.85,4.87-13.24,6.33-19.93A9.987,9.987,0,0,0,655.691,1693.157Z" fill="#ffa8a7"/>
          <path id="Trazado_118325" data-name="Trazado 118325" d="M637.961,1724.407c3.66.92,4.77,4.77,1.77,6.83s-9.08,1-9.08,1l-1.33,1.45c-.67-.57.2-3.57,1.51-5.47C632.321,1726.037,634.691,1723.577,637.961,1724.407Z" fill="#f28f8f"/>
        </g>
        <path id="Trazado_118326" data-name="Trazado 118326" d="M623.721,1652.527c2.53-2.27,6.23-4.82,8.6-8.53,4.18-6.56,3.73-16-1.84-19.86,0-4.41-5-12.21-17-11.65a33.177,33.177,0,0,0-5.63.77,38.757,38.757,0,0,0-5.13,1.64,18.5,18.5,0,0,1-6.77.94c-1.13,0-2.39-.13-3.27.59a3.256,3.256,0,0,0-.94,2.82,6.839,6.839,0,0,0,3.58,5.48,2.994,2.994,0,0,0-1.13,2.07,6.155,6.155,0,0,0,.46,3.69,7.655,7.655,0,0,0,3.61,3.1c3.08,1.65,6.47,2.07,9.9,2.36,1.44.13,2.89.23,4.33.31a7.324,7.324,0,0,1,1.78.08Z" fill="#a22f5f"/>
        <path id="Trazado_118327" data-name="Trazado 118327" d="M629.881,1636.177c-1.92-2.15-5.13-2-7.41.84-3,1.13-5.88-2.6-5-11.81-6.43,3.32-17,2.82-17.63-1.69-1.85,3.58-3.06,8.52-3,16.89,0,10.36,3.52,12.23,5.2,13s5,1,8.12.49l-.09,6.26s-6.58,5.47-.58,6.32c7.51,1.08,14-6.13,14-6.13l.45-14.68a4.543,4.543,0,0,0,5.11-.88C631.431,1642.287,631.7,1638.207,629.881,1636.177Z" fill="#ffa8a7"/>
        <circle id="Elipse_5397" data-name="Elipse 5397" cx="1.22" cy="1.22" r="1.22" transform="translate(624.961 1642.097)" fill="#69f"/>
        <circle id="Elipse_5398" data-name="Elipse 5398" cx="1.22" cy="1.22" r="1.22" transform="translate(624.961 1642.097)" opacity="0.4" style="isolation: isolate"/>
        <path id="Trazado_118328" data-name="Trazado 118328" d="M603.081,1631.107l-3.37,1.46a1.76,1.76,0,0,1,.78-2.364c.033-.017.066-.032.1-.046A1.929,1.929,0,0,1,603.081,1631.107Z" fill="#263238"/>
        <path id="Trazado_118329" data-name="Trazado 118329" d="M615.421,1633.117l-3.34-1.52a1.76,1.76,0,0,1,2.259-1.046c.037.014.074.029.111.046A1.93,1.93,0,0,1,615.421,1633.117Z" fill="#263238"/>
        <path id="Trazado_118330" data-name="Trazado 118330" d="M610.931,1636.6a1.54,1.54,0,0,0,1.32,1.73,1.57,1.57,0,0,0,1.69-1.4,1.52,1.52,0,1,0-2.96-.693,1.482,1.482,0,0,0-.04.363Z" fill="#263238"/>
        <path id="Trazado_118331" data-name="Trazado 118331" d="M600.091,1635.817a1.41,1.41,0,1,0,1.57-1.3,1.439,1.439,0,0,0-1.57,1.3Z" fill="#263238"/>
        <path id="Trazado_118332" data-name="Trazado 118332" d="M607.251,1635.047l-.2,8.56-5.06-1.13Z" fill="#f28f8f"/>
        <path id="Trazado_118333" data-name="Trazado 118333" d="M611.991,1645.047l-4.24,1.06a2.14,2.14,0,0,0,2.524,1.669l.046-.009A2.281,2.281,0,0,0,611.991,1645.047Z" fill="#f28f8f"/>
        <path id="Trazado_118334" data-name="Trazado 118334" d="M610.131,1653.877c3-.39,9.28-2.16,10.26-4.62a6.409,6.409,0,0,1-2.19,3.14c-1.88,1.59-8.05,3.39-8.05,3.39Z" fill="#f28f8f"/>
        <g id="freepik--character--inject-338-2" data-name="freepik--character--inject-338">
          <path id="Trazado_118335" data-name="Trazado 118335" d="M703.461,1872.6c-2.69,1.32-5.79,1.1-8.89-.32l-1.92-17.09,11.79-4.7Z" fill="#f28f8f"/>
          <path id="Trazado_118336" data-name="Trazado 118336" d="M683.411,1888.407a4,4,0,0,0,0,2.65c.33.55,2.24,2.31,5.8,2.69,3.41.37,6.47,0,8.52-1.19a5.91,5.91,0,0,0,3.33-4.5c.25-1.94.1-3.82,1.09-5.29s2.32-2.86,2.64-3.59a7.54,7.54,0,0,0,.17-4Z" fill="#263238"/>
          <path id="Trazado_118337" data-name="Trazado 118337" d="M693.381,1871.747a9.258,9.258,0,0,1-.5,2.14,19.566,19.566,0,0,1-2.24,4.2,17.807,17.807,0,0,1-1.49,2c-1.08,1.19-2.4,2.15-3.53,3.29a7,7,0,0,0-2.26,4.12c-.24,2.67,2.63,3.68,4.86,4.16a16.427,16.427,0,0,0,7.28-.11,6.652,6.652,0,0,0,5.08-5.16c.15-.73.13-1.5.25-2.24a10.462,10.462,0,0,1,2.25-4.61,14.329,14.329,0,0,0,1.68-2.49c.76-1.63.27-3.52-.12-5.18-.33-1.44-.32-2.69-1-2.67v.78c-.18.3-.47.3-.7.72s-.29.64-.48,1a2.89,2.89,0,0,1-1.23,1.26v-3a1.412,1.412,0,0,0-.21-.9,1.392,1.392,0,0,0-.84-.4,19.076,19.076,0,0,0-5.71-.68,1.1,1.1,0,0,0-.78.31,1.117,1.117,0,0,0-.15.68A24.6,24.6,0,0,1,693.381,1871.747Z" fill="#455a64"/>
          <path id="Trazado_118338" data-name="Trazado 118338" d="M690.261,1878.637c1-.71,3.26-.64,4.47-.46a7.208,7.208,0,0,1,3.43,1.34.8.8,0,0,0,1-.05h0a.74.74,0,0,0,.1-1.042.751.751,0,0,0-.1-.1,7.544,7.544,0,0,0-3.85-1.58c-3-.32-3.9.16-3.9.16S690,1877.737,690.261,1878.637Z" fill="#f5f5f5"/>
          <path id="Trazado_118339" data-name="Trazado 118339" d="M687.871,1881.3c1.28-.69,3.73-.5,4.95-.32a7,7,0,0,1,3.33,1.4.792.792,0,0,0,1,0h0a.751.751,0,0,0,.093-1.057.683.683,0,0,0-.093-.093,7.873,7.873,0,0,0-3.94-1.7c-3-.32-3.8.27-3.8.27A2.478,2.478,0,0,0,687.871,1881.3Z" fill="#f5f5f5"/>
          <path id="Trazado_118340" data-name="Trazado 118340" d="M696.6,1873.907a7.4,7.4,0,0,0-3.79.19c-.54.27-.92,1.1-.59,1.32a6.887,6.887,0,0,1,3.37-.34,9.955,9.955,0,0,1,3.21,1,8.167,8.167,0,0,1,.82.45.719.719,0,0,0,.987-.249l.013-.021h0a.68.68,0,0,0-.23-.87A9.663,9.663,0,0,0,696.6,1873.907Z" fill="#f5f5f5"/>
          <path id="Trazado_118341" data-name="Trazado 118341" d="M676.141,1861.647c-1.38,2.54-7.6,3.12-9.38-.21l-.75-16.84,11.44.25Z" fill="#f28f8f"/>
          <path id="Trazado_118342" data-name="Trazado 118342" d="M647.641,1872.057a3.178,3.178,0,0,0,.08,2.38c.32.71,3.92,2.84,8.84,2.61a20.387,20.387,0,0,0,10.23-3.33c1.9-1.2,3.86-1.39,6.29-1.47s5.18-1.24,5.74-2.37a5.382,5.382,0,0,0,0-3.1Z" fill="#263238"/>
          <path id="Trazado_118343" data-name="Trazado 118343" d="M667.711,1857.407l-1.27-.49a1.076,1.076,0,0,0-.72-.1c-.32.11-.45.48-.54.8a13.807,13.807,0,0,1-.58,2.13,5.431,5.431,0,0,1-1.41,1.41,21.883,21.883,0,0,1-4,2.45c-1.62.83-3.21,1.47-4.88,2.18s-4,1.14-5.3,2a3.518,3.518,0,0,0-.11,5.85c1.87,1.16,6.83,2.47,12.09,1.1,2.87-.75,6.09-3.72,9.84-3.93,2.38-.14,6.41-.72,8-2.49.59-.79-.11-3.34-.69-5.55-.62-2.41-.8-6.15-1.6-6-.07.8-.77,1.24-1.2,1.9a15.3,15.3,0,0,0-.9,1.88c-.29.63-.2,1.27-.79,1.62a1.6,1.6,0,0,1-1.93-.15c-.68-.74-.24-2-.73-2.88a3,3,0,0,0-1.67-1.13Z" fill="#455a64"/>
          <path id="Trazado_118344" data-name="Trazado 118344" d="M661.451,1862.327a2.2,2.2,0,0,1,1.78-1.14c1.09-.18,3,.66,4.15,1.66a.9.9,0,0,1,.089,1.269.912.912,0,0,1-.249.2h0a.881.881,0,0,1-1-.14A6.816,6.816,0,0,0,661.451,1862.327Z" fill="#f5f5f5"/>
          <path id="Trazado_118345" data-name="Trazado 118345" d="M658.061,1864.127c0-.29.7-1.1,2.1-1a7.916,7.916,0,0,1,4.54,1.81.87.87,0,0,1,.075,1.228.9.9,0,0,1-.225.182h0a.861.861,0,0,1-1-.13A6.789,6.789,0,0,0,658.061,1864.127Z" fill="#f5f5f5"/>
          <path id="Trazado_118346" data-name="Trazado 118346" d="M654.321,1865.747a2.837,2.837,0,0,1,2.18-.93,7.6,7.6,0,0,1,4.34,1.83.859.859,0,0,1,.094,1.212.868.868,0,0,1-.244.2h0a.852.852,0,0,1-1-.13A6.5,6.5,0,0,0,654.321,1865.747Z" fill="#f5f5f5"/>
          <path id="Trazado_118347" data-name="Trazado 118347" d="M701.651,1775.247s.75,10,1,15.85.81,26.72,1.51,29.14c2.82,9.75.91,24.86.56,43.71,0,0-6.49,2.76-12.07.23,0,0-6-36.4-7.16-42.68s-3.18-18-3.18-18-1.74,15.36-1.91,17.87c1.21,11.78-.42,16.52-2.8,31.11,0,0-2,1.38-6.94.8s-5.72-2.4-5.72-2.4-.93-31.92-1.27-38.2-.83-29.25,0-37.43Z" fill="#455a64"/>
          <path id="Trazado_118348" data-name="Trazado 118348" d="M682.321,1803.5l-1-6.27s-8.35-.68-12-4.85c0,0,1.22,5.48,10,6.34l1.1,6.05v16.6Z" fill="#0a4b6e"/>
          <path id="Trazado_118349" data-name="Trazado 118349" d="M697.541,1734.037c.61,2.62,4.34,12.51,4.35,12.37l-.69,20.79,1.44,15.76c-5.19,6.14-27.5,8.64-39.73.47,0,0-.18-30.43.46-36.44,1.1-10.44,4.72-14,11-14.6l14.36.66Z" fill="#69f"/>
          <path id="Trazado_118350" data-name="Trazado 118350" d="M715.951,1765.087c-7.53-26.67-12.12-28.75-17.38-30.32-1.06,2.69-3,5.66-1.76,13.42,1.4,3.75,6.79,14.81,8.66,21,.57,1.87,1.05,12.54.39,18.41a7.178,7.178,0,0,1-1.78,3.38c-1.49,1.75-1.42,3.33-2.55,5.12s-1.22,2.08-1,2.4,1.13.6,2.4-.12a6.6,6.6,0,0,0,2.47-2.5,37.449,37.449,0,0,1-1.76,6.06c-1.59,4,.31,6.85,5.08,4.1,3.4-2,5.55-3.81,6.74-11.81.47-3.16,1-7.26,1.11-10.21C717.221,1772.237,717.4,1770.217,715.951,1765.087Z" fill="#f28f8f"/>
          <path id="Trazado_118351" data-name="Trazado 118351" d="M697.541,1734.037s6,.11,8.8,4.47c3.48,5.49,8.05,19.29,8.05,19.29a15.308,15.308,0,0,1-5.43,3.67,16.3,16.3,0,0,1-6.55,1.3l-5.21-12.06A16.557,16.557,0,0,1,697.541,1734.037Z" fill="#455a64"/>
          <path id="Trazado_118352" data-name="Trazado 118352" d="M664.231,1706.887a5.4,5.4,0,1,0,5.4-5.4h-.01a5.39,5.39,0,0,0-5.39,5.39Z" fill="#263238"/>
          <path id="Trazado_118353" data-name="Trazado 118353" d="M695.031,1715.267s-1.75,8.19-2.44,9.54a3.7,3.7,0,0,1-2.15,1.73l.55-6.65Z" fill="#263238"/>
          <path id="Trazado_118354" data-name="Trazado 118354" d="M692.741,1702.867a3.5,3.5,0,0,1,3.48,1.42c1.29,1.59.6,6.48-1.19,11l-3.29.38Z" fill="#263238"/>
          <path id="Trazado_118355" data-name="Trazado 118355" d="M665.811,1715.037a28.233,28.233,0,0,0-.19,4.09,10.7,10.7,0,0,0,2.93,7.7c2.16,2.23,5.18,2.94,8.17,2.92h.71l-.25,4c-6.14,6.38,9.64,7.13,13.26.35l.55-14.15a3,3,0,0,0,3.61.78c1.61-.6,4-3.4,2.7-6.37a2.889,2.889,0,0,0-3.46-1.42c-1.44.39-2.27,2.31-4,2.07s1.12-3.55.62-4.61c-.85-1.84-2.8-9.89-20.08-8.07-2.11,1.44-2.38,1.55-3.53,6.38A43.423,43.423,0,0,0,665.811,1715.037Z" fill="#f28f8f"/>
          <path id="Trazado_118356" data-name="Trazado 118356" d="M681.011,1694.957a2.359,2.359,0,0,0-.91-1.68,4.341,4.341,0,0,0-6.109.6,4.257,4.257,0,0,0-.291.4,4.379,4.379,0,0,0-5,.21,3.5,3.5,0,0,0-1.24,4c-1.68-.26-2.83,1.22-3.25,2.38a4.44,4.44,0,0,0,2.52,5.38c1.42.64,3.77,0,4.12-1a3.4,3.4,0,0,0,3.68,2.58,3.3,3.3,0,0,0,2.88-1.76c.91,2,3.71,1.75,4.37,1.61a4,4,0,0,0,3-2.35,6.628,6.628,0,0,0,.92,4.14,4.641,4.641,0,0,0,3.64,2,11.262,11.262,0,0,0-.46,4.08,1.781,1.781,0,0,0,.72,1.55c.65.33,1.26-.27,1.68-.86s.71-2.15,2.05-3.18c.9-.7.31-1.51.28-2.37a28.389,28.389,0,0,1,.49-4.85c.25-1.89.95-3,.25-5.27a4.327,4.327,0,0,0-2.25-2.71,4.935,4.935,0,0,0-3.47,0,4.42,4.42,0,0,0-4.713-4.107,4.32,4.32,0,0,0-.707.107A4.5,4.5,0,0,0,681.011,1694.957Z" fill="#263238"/>
          <path id="Trazado_118357" data-name="Trazado 118357" d="M677.431,1729.727s5.24-.47,8.38-2.69a13.519,13.519,0,0,0,3.34-4,11.363,11.363,0,0,1-1.8,4.43c-2.85,3.36-10,4.13-10,4.13Z" fill="#b16668"/>
          <path id="Trazado_118358" data-name="Trazado 118358" d="M679.161,1715.157a1.36,1.36,0,1,0,1.4-1.38,1.389,1.389,0,0,0-1.4,1.38Z" fill="#263238"/>
          <path id="Trazado_118359" data-name="Trazado 118359" d="M682.711,1712.217l-2.72-1a1.46,1.46,0,1,1,2.72,1Z" fill="#263238"/>
          <path id="Trazado_118360" data-name="Trazado 118360" d="M670.561,1710.407l-2.72,1.16a1.48,1.48,0,0,1,2.72-1.16Z" fill="#263238"/>
          <path id="Trazado_118361" data-name="Trazado 118361" d="M668.571,1714.337a1.37,1.37,0,0,0,1.3,1.439h.023a1.39,1.39,0,0,0,1.429-1.35v-.02a1.36,1.36,0,1,0-2.72-.06h0Z" fill="#263238"/>
          <path id="Trazado_118362" data-name="Trazado 118362" d="M675,1714.047l-.1,6.13-3.8-.83Z" fill="#b16668"/>
          <path id="Trazado_118363" data-name="Trazado 118363" d="M679.631,1721.507l-3.63,1.36a1.92,1.92,0,0,0,2.422,1.226l.048-.016A2,2,0,0,0,679.631,1721.507Z" fill="#b16668"/>
        </g>
      </g>
    </g>
  </g>
</svg>
