<svg xmlns="http://www.w3.org/2000/svg" width="344" height="329.904" viewBox="0 0 344 329.904">
  <g id="Grupo_52928" data-name="Grupo 52928" transform="translate(-102.635 -92.301)">
    <g id="freepik--background-complete--inject-92" transform="translate(109.01 92.301)">
      <path id="Trazado_114457" data-name="Trazado 114457" d="M492.038,160.259c-1.991-6.833-8.255-12.021-15.219-13.481s-14.419.546-20.23,4.612c-2.552,1.8-4.973,4.058-8.032,4.612-2.475.461-5.011-.246-7.525-.138-6.541.284-11.744,6.2-13.4,12.536s-.576,13.066.523,19.492l11.606,1.66c-1.883-2.467-.3-6.31,2.383-7.878s5.972-1.491,9.07-1.368l18.124.676c5.342.208,11,.331,15.649-2.306C491.177,175.247,494.028,167.092,492.038,160.259Z" transform="translate(-184.012 -104.796)" fill="#dee7f3"/>
      <path id="Trazado_114458" data-name="Trazado 114458" d="M522.559,128.555c-1.6-2.306-5.611-3.843-8.362-1.653a6.073,6.073,0,0,0-.592,7.686,5.756,5.756,0,0,0,7.479,1.353A5.441,5.441,0,0,0,522.559,128.555Z" transform="translate(-203.849 -100.063)" fill="#7cc5ff"/>
      <path id="Trazado_114459" data-name="Trazado 114459" d="M472.891,417.5c-13.159-8.724-16.5-25.426-16.348-40.521,0-2.521-.323-5.165.822-7.4s3.9-3.843,6.149-2.805c1.891.83,2.759,2.982,3.843,4.758a14.673,14.673,0,0,0,6.041,5.5c1.622.769,3.612,1.253,5.18.346,2.137-1.253,2.306-4.258,2.244-6.764q-.208-6.994-.423-14a23.25,23.25,0,0,1,.576-7.448,7.876,7.876,0,0,1,4.75-5.38c2.367-.769,5.342.576,5.9,3.021a22.053,22.053,0,0,1,.146,3.113,2.628,2.628,0,0,0,1.606,2.436c1,.261,1.991-.461,2.721-1.214,2.521-2.59,4.2-5.888,5.757-9.162s3.074-6.633,5.38-9.446,5.465-5.081,9.047-5.38,7.456,1.829,8.455,5.326-.984,7.14-3.151,10.046a55.947,55.947,0,0,1-11.352,11.4,4.612,4.612,0,0,0-1.9,2.137c-.5,1.683,1.122,3.305,2.782,3.843,1.883.576,3.9.331,5.857.515s4.1.991,4.881,2.821c1.084,2.536-.992,5.265-3.074,7.071a47.89,47.89,0,0,1-13.927,8.493,16.269,16.269,0,0,0-5.2,2.69c-1.453,1.33-2.306,3.6-1.353,5.342s3.259,2.252,5.18,1.845,3.62-1.491,5.442-2.229c3.4-1.384,7.855-1.253,10.13,1.668a7.9,7.9,0,0,1,1.015,6.987,18.263,18.263,0,0,1-3.643,6.272,48.174,48.174,0,0,1-20.207,14.942c-7.917,2.967-15.288,3.889-23.289,1.184" transform="translate(-190.89 -146.636)" fill="#0a4b6e"/>
      <path id="Trazado_114460" data-name="Trazado 114460" d="M482.585,408.569a224.337,224.337,0,0,1,8.324-24.365l2.506-6.28c.83-2.052,1.653-4.1,2.575-6.041A113.27,113.27,0,0,1,501.954,361c2.068-3.367,4.151-6.487,6.149-9.392s3.843-5.565,5.7-7.924a88.965,88.965,0,0,1,9.392-10.484c1.207-1.145,2.175-2.006,2.836-2.575l.769-.646a2.139,2.139,0,0,1,.269-.208,1.662,1.662,0,0,1-.238.238l-.723.684c-.646.592-1.591,1.476-2.775,2.636a93.089,93.089,0,0,0-9.316,10.553c-1.806,2.367-3.674,5.042-5.634,7.947s-4.02,6.034-6.072,9.4a113.348,113.348,0,0,0-5.918,10.845c-.915,1.937-1.729,3.966-2.56,6.026l-2.506,6.272a230.506,230.506,0,0,0-8.339,24.3" transform="translate(-196.926 -147.249)" fill="#dfdfdf"/>
      <path id="Trazado_114461" data-name="Trazado 114461" d="M498.9,376.266a5.086,5.086,0,0,1-.269-1.061c-.146-.692-.331-1.691-.538-2.936-.407-2.483-.869-5.9-1.33-9.738s-.991-7.24-1.445-9.715c-.215-1.23-.407-2.229-.546-2.921a5.059,5.059,0,0,1-.169-1.084,4.641,4.641,0,0,1,.338,1.045c.2.676.438,1.668.7,2.9.53,2.467,1.091,5.9,1.576,9.715s.9,7.156,1.222,9.754c.154,1.168.284,2.16.392,2.951A4.813,4.813,0,0,1,498.9,376.266Z" transform="translate(-199.707 -151.654)" fill="#dfdfdf"/>
      <path id="Trazado_114462" data-name="Trazado 114462" d="M532.238,375.653a6.637,6.637,0,0,1-1.284.184c-.822.092-2.014.223-3.482.43-2.944.392-6.987,1.068-11.414,2.014s-8.393,1.991-11.245,2.821c-1.43.407-2.575.769-3.367,1.007a6.676,6.676,0,0,1-1.253.338,7.29,7.29,0,0,1,1.191-.507c.769-.3,1.914-.707,3.336-1.153,2.836-.915,6.8-2.006,11.245-2.959a112.788,112.788,0,0,1,11.468-1.891c1.476-.161,2.675-.238,3.513-.277A6.711,6.711,0,0,1,532.238,375.653Z" transform="translate(-201 -157.859)" fill="#dfdfdf"/>
      <path id="Trazado_114463" data-name="Trazado 114463" d="M477.907,419.251a1.524,1.524,0,0,1-.231-.384l-.576-1.153c-.5-1-1.184-2.467-2.006-4.3-1.637-3.643-3.751-8.762-6-14.435s-4.312-10.8-5.872-14.473l-1.868-4.335-.5-1.184a1.768,1.768,0,0,1-.146-.43,1.732,1.732,0,0,1,.231.392l.576,1.145c.5,1.007,1.184,2.475,2.006,4.3,1.637,3.651,3.751,8.762,6,14.442s4.312,10.8,5.872,14.473l1.868,4.35.5,1.191A1.768,1.768,0,0,1,477.907,419.251Z" transform="translate(-191.863 -158.538)" fill="#dfdfdf"/>
      <path id="Trazado_114464" data-name="Trazado 114464" d="M525.513,412.221a1.482,1.482,0,0,1-.423.192l-1.23.446-4.542,1.591c-3.843,1.345-9.116,3.274-14.942,5.38s-11.137,4-15,5.273c-1.929.638-3.5,1.138-4.612,1.46l-1.26.361a1.612,1.612,0,0,1-.446.092,1.67,1.67,0,0,1,.423-.185l1.23-.446,4.543-1.591c3.843-1.345,9.116-3.274,14.942-5.38s11.13-4.012,15-5.28c1.937-.63,3.5-1.13,4.612-1.453l1.26-.361A1.835,1.835,0,0,1,525.513,412.221Z" transform="translate(-197.034 -166.327)" fill="#dfdfdf"/>
      <path id="Trazado_114465" data-name="Trazado 114465" d="M112.963,337.464s-5.649,2.736,1.883,14.6a169.714,169.714,0,0,0,12.505,17.678s1.4,2.79-.992,3.466-7.84.323-8.647,3.4,1.676,5.9,6.472,8.04,15.126,7.194,16.056,7.686,1.914,1.722.354,2.444-13.512,3.113-12.036,8.716,15.795,9.285,17.332,9.738,2.006,1.084,1.96,1.852-4.135,1.26-7.509,2.075-7.14,2.36-6.018,5.526,9.992,9.223,30.091,9.293l9.323-.569,4.327-8.332c8.17-18.385,6.295-28.931,3.843-31.244s-5.38.484-7.5,3.22-4.2,6.295-4.981,6-1.161-.93-.922-2.536,2.7-16.21-1.806-19.853-11.583,6.31-12.859,7.432-2.045-.3-2.075-1.322-.415-12.536-.392-17.786-1.414-8.655-4.681-9.223c-3.144-.53-5.05,4.612-6.648,6.487s-3.574-.515-3.574-.515A162.446,162.446,0,0,0,125.514,345.1c-7.74-11.729-12.674-7.571-12.674-7.571" transform="translate(-110.929 -148.877)" fill="#6c93a8"/>
      <path id="Trazado_114466" data-name="Trazado 114466" d="M177.056,437c-5.649-8.647-15.464-24.181-23.919-37.47s-16.141-25.3-21.752-33.98c-2.805-4.32-5.073-7.824-6.648-10.261-.769-1.2-1.391-2.137-1.806-2.79l-.469-.73c-.1-.161-.146-.254-.146-.254l.177.238.484.715,1.852,2.759c1.606,2.406,3.9,5.9,6.733,10.215,5.649,8.639,13.351,20.645,21.821,33.934s18.231,28.838,23.827,37.508" transform="translate(-113.564 -152.279)" fill="#dfdfdf"/>
      <path id="Trazado_114467" data-name="Trazado 114467" d="M129.635,389.661a2.82,2.82,0,0,1,.669.115c.423.092,1.03.246,1.783.446,1.537.4,3.559,1,5.818,1.7l5.78,1.829,1.752.538a3.82,3.82,0,0,1,.638.223,2.42,2.42,0,0,1-.669-.115c-.423-.092-1.03-.246-1.776-.453-1.537-.407-3.551-1.038-5.811-1.737l-5.788-1.775-1.76-.538A3.311,3.311,0,0,1,129.635,389.661Z" transform="translate(-115.257 -161.107)" fill="#dfdfdf"/>
      <path id="Trazado_114468" data-name="Trazado 114468" d="M151.784,389.322c-.077,0,.968-4.32,2.306-9.6s2.559-9.546,2.636-9.531-.976,4.32-2.352,9.608S151.861,389.345,151.784,389.322Z" transform="translate(-120.381 -156.601)" fill="#dfdfdf"/>
      <path id="Trazado_114469" data-name="Trazado 114469" d="M167.505,417.769a3.169,3.169,0,0,1,.323-.615c.261-.43.584-.968.961-1.606.815-1.36,1.922-3.244,3.074-5.38s2.129-4.081,2.828-5.5c.331-.669.607-1.23.822-1.683a2.915,2.915,0,0,1,.338-.6,3.754,3.754,0,0,1-.231.646c-.169.415-.415,1.007-.769,1.729-.646,1.445-1.6,3.42-2.752,5.549s-2.306,4-3.151,5.334c-.43.669-.769,1.2-1.038,1.537A3.186,3.186,0,0,1,167.505,417.769Z" transform="translate(-124.02 -164.05)" fill="#dfdfdf"/>
      <path id="Trazado_114470" data-name="Trazado 114470" d="M146.415,421.846a2.4,2.4,0,0,1,.638-.046h7.456c2.237,0,4.25.069,5.711.115l1.737.069a2.322,2.322,0,0,1,.63.069,3.461,3.461,0,0,1-.63.046H154.5c-2.237,0-4.25-.069-5.718-.115l-1.729-.069A3.3,3.3,0,0,1,146.415,421.846Z" transform="translate(-119.14 -168.542)" fill="#dfdfdf"/>
      <path id="Trazado_114471" data-name="Trazado 114471" d="M157.205,447.7a5.063,5.063,0,0,1,.815-.054l2.221-.038h7.333c2.867,0,5.449,0,7.325.061l2.221.054a4.322,4.322,0,0,1,.815.062,4.817,4.817,0,0,1-.815.054h-9.546c-2.859,0-5.457,0-7.333-.061l-2.221-.054A3.61,3.61,0,0,1,157.205,447.7Z" transform="translate(-121.637 -174.515)" fill="#dfdfdf"/>
      <path id="Trazado_114472" data-name="Trazado 114472" d="M183.535,441.714a5.472,5.472,0,0,1,.392-.769c.292-.538.676-1.245,1.145-2.091.961-1.76,2.306-4.2,3.666-6.918s2.583-5.234,3.436-7.048l1.007-2.16a5.208,5.208,0,0,1,.4-.769,5.875,5.875,0,0,1-.3.822c-.208.523-.523,1.276-.922,2.2-.769,1.837-1.968,4.366-3.359,7.1s-2.744,5.157-3.751,6.917c-.507.861-.93,1.537-1.23,2.037A4.39,4.39,0,0,1,183.535,441.714Z" transform="translate(-127.729 -168.58)" fill="#dfdfdf"/>
      <path id="Trazado_114473" data-name="Trazado 114473" d="M237.512,276.019a17.24,17.24,0,0,1-7.855-6.456,7.781,7.781,0,0,1-1.284-5.111,4.054,4.054,0,0,1,3.513-3.52,4.259,4.259,0,0,1,3.228,1.537,12.724,12.724,0,0,1,1.922,3.121,5.382,5.382,0,0,1,2.951-4.273,3.952,3.952,0,0,1,4.781,1.345,5.112,5.112,0,0,1-.177,5.227,23.846,23.846,0,0,1-3.39,3.843c-1.537,1.537-3.689,2.805-3.689,4.327" transform="translate(-138.095 -131.32)" fill="#7cc5ff"/>
      <path id="Trazado_114474" data-name="Trazado 114474" d="M523.673,250.13a11.911,11.911,0,0,1-5.434-4.473,5.383,5.383,0,0,1-.892-3.536,2.806,2.806,0,0,1,2.429-2.46,2.943,2.943,0,0,1,2.237,1.045,8.8,8.8,0,0,1,1.337,2.167,3.729,3.729,0,0,1,2.037-2.967,2.745,2.745,0,0,1,3.313.938,3.551,3.551,0,0,1-.123,3.62,17.34,17.34,0,0,1-2.344,2.644c-1.076,1.084-2.559,1.945-2.559,3" transform="translate(-204.963 -126.398)" fill="#f4f4f4"/>
      <path id="Trazado_114475" data-name="Trazado 114475" d="M347.071,224.966a10.759,10.759,0,0,1-4.9-4.035,4.831,4.831,0,0,1-.769-3.19,2.537,2.537,0,0,1,2.191-2.191,2.662,2.662,0,0,1,2.014.945,7.9,7.9,0,0,1,1.2,1.945,3.361,3.361,0,0,1,1.837-2.667,2.468,2.468,0,0,1,2.982.845,3.174,3.174,0,0,1-.108,3.259,14.727,14.727,0,0,1-2.114,2.383c-.968.976-2.306,1.752-2.306,2.706" transform="translate(-164.252 -120.82)" fill="#ea3065"/>
      <path id="Trazado_114476" data-name="Trazado 114476" d="M127.917,245.2a19.293,19.293,0,0,1-8.77-7.217,8.687,8.687,0,0,1-1.445-5.718,4.55,4.55,0,0,1,3.928-3.935,4.8,4.8,0,0,1,3.612,1.7,14.378,14.378,0,0,1,2.152,3.49,5.989,5.989,0,0,1,3.29-4.781,4.42,4.42,0,0,1,5.38,1.537,5.754,5.754,0,0,1-.2,5.841,26.979,26.979,0,0,1-3.789,4.25c-1.737,1.737-4.127,3.128-4.127,4.835" transform="translate(-112.486 -123.777)" fill="#e36099"/>
      <path id="Trazado_114477" data-name="Trazado 114477" d="M431.066,288.989a16.511,16.511,0,0,1-7.494-6.149,7.425,7.425,0,0,1-1.237-4.881,3.889,3.889,0,0,1,3.359-3.359,4.105,4.105,0,0,1,3.074,1.445,12.221,12.221,0,0,1,1.837,2.982,5.13,5.13,0,0,1,2.813-4.081,3.782,3.782,0,0,1,4.573,1.237,4.889,4.889,0,0,1-.169,5,23.089,23.089,0,0,1-3.236,3.651c-1.483,1.491-3.52,2.675-3.52,4.135" transform="translate(-182.976 -134.483)" fill="#7cc5ff"/>
      <path id="Trazado_114478" data-name="Trazado 114478" d="M136.7,168.941l.769,1.407a9.424,9.424,0,0,0,3.743,3.759l1.407.769-1.407.769a9.333,9.333,0,0,0-3.743,3.743l-.769,1.407-.769-1.407a9.43,9.43,0,0,0-3.743-3.743l-1.407-.769,1.407-.769a9.528,9.528,0,0,0,3.743-3.743Z" transform="translate(-115.523 -110.035)" fill="#7cc5ff"/>
      <path id="Trazado_114479" data-name="Trazado 114479" d="M442.286,105.141l.769,1.407a9.358,9.358,0,0,0,3.735,3.743l1.407.769-1.407.769a9.464,9.464,0,0,0-3.735,3.743l-.769,1.407-.769-1.407a9.464,9.464,0,0,0-3.735-3.743l-1.407-.769,1.407-.769a9.358,9.358,0,0,0,3.735-3.743Z" transform="translate(-186.233 -95.272)" fill="#7cc5ff"/>
      <path id="Trazado_114480" data-name="Trazado 114480" d="M184.43,180.481l1.114,2.037a13.62,13.62,0,0,0,5.38,5.38l2.037,1.114-2.037,1.115a13.63,13.63,0,0,0-5.38,5.38l-1.114,2.037-1.107-2.037a13.593,13.593,0,0,0-5.419-5.38l-2.029-1.053,2.029-1.114a13.593,13.593,0,0,0,5.419-5.38Z" transform="translate(-125.957 -112.705)" fill="#7cc5ff"/>
      <path id="Trazado_114481" data-name="Trazado 114481" d="M178.439,119.661l.415.769a5.1,5.1,0,0,0,2.052,2.045l.769.423-.769.423a5.2,5.2,0,0,0-2.052,2.045l-.415.769-.423-.769a5.2,5.2,0,0,0-2.052-2.045l-.769-.423.769-.423a5.1,5.1,0,0,0,2.075-2.045Z" transform="translate(-125.799 -98.632)" fill="#f4f4f4"/>
      <path id="Trazado_114482" data-name="Trazado 114482" d="M468.659,92.3l.423.769a5.15,5.15,0,0,0,2.045,2.052l.769.415-.769.423a5.15,5.15,0,0,0-2.045,2.052l-.423.769-.423-.769a5.154,5.154,0,0,0-2.052-2.052l-.769-.423.769-.415a5.15,5.15,0,0,0,2.045-2.052Z" transform="translate(-192.953 -92.301)" fill="#f4f4f4"/>
    </g>
    <g id="freepik--Floor--inject-92" transform="translate(102.635 377.848)">
      <path id="Trazado_114483" data-name="Trazado 114483" d="M446.635,464.011c0,.108-77.015.2-171.992.2s-172.008-.092-172.008-.2,76.992-.2,172.008-.2S446.635,463.9,446.635,464.011Z" transform="translate(-102.635 -463.811)" fill="#12263f"/>
    </g>
    <g id="freepik--House--inject-92" transform="translate(134.955 133.506)">
      <path id="Trazado_114484" data-name="Trazado 114484" d="M418.355,221.923V198.641h29.361v49.107Z" transform="translate(-208.009 -158.112)" fill="#6698ff"/>
      <rect id="Rectángulo_28692" data-name="Rectángulo 28692" width="34.395" height="10.123" transform="translate(207.425 39.153)" fill="#6698ff"/>
      <path id="Trazado_114485" data-name="Trazado 114485" d="M448.907,209.961c0,.115-7.686.2-17.14.2s-17.132-.085-17.132-.2,7.686-.2,17.132-.2S448.907,209.853,448.907,209.961Z" transform="translate(-207.148 -160.685)" fill="#12263f"/>
      <path id="Trazado_114486" data-name="Trazado 114486" d="M144.685,260.089,277.947,145.911,431.078,260.527l-12.836,11.007L278.377,169.6,158.159,271.395Z" transform="translate(-144.685 -145.911)" fill="#0a4b6e"/>
      <g id="Grupo_52914" data-name="Grupo 52914" transform="translate(133.262 0)" opacity="0.3">
        <path id="Trazado_114487" data-name="Trazado 114487" d="M318.5,169.6l-.43-23.689L471.2,260.527,458.36,271.533Z" transform="translate(-318.065 -145.911)"/>
      </g>
      <path id="Trazado_114488" data-name="Trazado 114488" d="M318.458,169.6a4.545,4.545,0,0,1-.077-.93c0-.684-.054-1.537-.085-2.536-.069-2.229-.154-5.15-.254-8.37s-.146-6.233-.138-8.378c0-1.068,0-1.937.046-2.536a4.045,4.045,0,0,1,.077-.938,4.68,4.68,0,0,1,.077.938c0,.676.054,1.537.085,2.536.069,2.229.154,5.142.254,8.37s.146,6.226.138,8.37c0,1.076,0,1.945-.046,2.544A3.934,3.934,0,0,1,318.458,169.6Z" transform="translate(-184.766 -145.911)" fill="#12263f"/>
    </g>
    <g id="freepik--Characters--inject-92" transform="translate(126.953 177.198)">
      <path id="Trazado_114489" data-name="Trazado 114489" d="M272.866,237.324a37.415,37.415,0,0,1-2.921-7.886,12.629,12.629,0,0,1,.769-8.24,44.674,44.674,0,0,0,2.46-4.266c.822-2.106.623-4.612,2.029-6.41,2.183-2.782,6.579-1.929,9.838-3.3,2.544-1.061,4.389-3.5,7.04-4.243,2.306-.638,4.781.169,6.918,1.207s4.281,2.306,6.648,2.744a47.332,47.332,0,0,0,5.134.231,6.766,6.766,0,0,1,4.665,1.829c1.153,1.268,1.314,3.52,0,4.573,3.021-.377,5.719,2.729,5.549,5.765s-2.56,5.619-5.38,6.764a18.534,18.534,0,0,1-8.993.769c-8.547-1.022-17.032-4.612-22.613-11.2" transform="translate(-165.583 -202.756)" fill="#12263f"/>
      <path id="Trazado_114490" data-name="Trazado 114490" d="M274.441,228.527l-7.609,42.228c-1.291,7.179.907,18.447,8.977,19.384h0c8.624.953,14.673-1.537,15.88-8.255.569-3.182,1.322-12.452,1.407-12.774,0,0,10.93.922,13.62-9.577,1.307-5.073,3.136-15.741,4.673-25.418a20.192,20.192,0,0,0-15.172-22.789l-1.015-.246C284.11,209.058,276.162,217.359,274.441,228.527Z" transform="translate(-164.867 -204.612)" fill="#ffbd9c"/>
      <path id="Trazado_114491" data-name="Trazado 114491" d="M297.273,284.435a26.227,26.227,0,0,1-12.728-7.394s1.668,8.985,12.405,10.592Z" transform="translate(-169.045 -219.945)" fill="#ea986e"/>
      <path id="Trazado_114492" data-name="Trazado 114492" d="M315.691,250.238a1.537,1.537,0,0,1-1.822,1.161,1.483,1.483,0,0,1-1.227-1.7l0-.028a1.538,1.538,0,0,1,1.822-1.168,1.492,1.492,0,0,1,1.226,1.716Z" transform="translate(-175.542 -213.333)" fill="#12263f"/>
      <path id="Trazado_114493" data-name="Trazado 114493" d="M318.543,246.424c-.231.154-1.168-.968-2.782-1.36s-3.005.131-3.128-.108c-.069-.108.208-.415.815-.669a4.333,4.333,0,0,1,2.567-.154,4.111,4.111,0,0,1,2.16,1.33C318.612,245.962,318.658,246.362,318.543,246.424Z" transform="translate(-175.542 -212.301)" fill="#12263f"/>
      <path id="Trazado_114494" data-name="Trazado 114494" d="M295.9,245.95a1.536,1.536,0,0,1-1.814,1.168,1.483,1.483,0,0,1-1.228-1.7l.006-.037a1.537,1.537,0,0,1,1.822-1.161,1.468,1.468,0,0,1,1.224,1.678Z" transform="translate(-170.965 -212.343)" fill="#12263f"/>
      <path id="Trazado_114495" data-name="Trazado 114495" d="M297.751,241.782c-.231.146-1.168-.968-2.79-1.36s-3,.131-3.128-.108c-.061-.115.208-.423.822-.669a4.19,4.19,0,0,1,2.559-.154,4.033,4.033,0,0,1,2.16,1.322C297.781,241.321,297.866,241.713,297.751,241.782Z" transform="translate(-170.729 -211.226)" fill="#12263f"/>
      <path id="Trazado_114496" data-name="Trazado 114496" d="M303.415,255.867a11.02,11.02,0,0,1,2.744.169c.423.054.838.069.976-.192a2.177,2.177,0,0,0,0-1.3l-.461-3.443c-.607-4.888-.938-8.877-.769-8.9s.845,3.928,1.453,8.824c.146,1.207.277,2.352.4,3.451a2.443,2.443,0,0,1-.177,1.676,1.084,1.084,0,0,1-.83.438,2.823,2.823,0,0,1-.723-.077A10.714,10.714,0,0,1,303.415,255.867Z" transform="translate(-173.411 -211.883)" fill="#12263f"/>
      <path id="Trazado_114497" data-name="Trazado 114497" d="M296.657,259.93c.269.046-.154,1.806,1.045,3.42s3.074,1.875,3.074,2.121c0,.115-.5.238-1.291.069a4.489,4.489,0,0,1-2.59-1.676,3.911,3.911,0,0,1-.769-2.836C296.242,260.276,296.542,259.892,296.657,259.93Z" transform="translate(-171.718 -215.985)" fill="#12263f"/>
      <path id="Trazado_114498" data-name="Trazado 114498" d="M299.808,233.741c-.261.4-1.829-.2-3.782-.438s-3.62-.085-3.774-.546c-.069-.215.3-.561,1.022-.838a6.621,6.621,0,0,1,5.757.769C299.662,233.118,299.931,233.548,299.808,233.741Z" transform="translate(-170.827 -209.426)" fill="#12263f"/>
      <path id="Trazado_114499" data-name="Trazado 114499" d="M319.4,240.124c-.369.3-1.391-.354-2.729-.7s-2.536-.354-2.706-.807c-.069-.208.2-.538.769-.769a4.082,4.082,0,0,1,4.373,1.207C319.5,239.555,319.565,239.962,319.4,240.124Z" transform="translate(-175.849 -210.828)" fill="#12263f"/>
      <path id="Trazado_114500" data-name="Trazado 114500" d="M272.946,243.962c-.161-.123-6.71-3.9-8.232,3.351s6.072,7.286,6.149,7.079S272.946,243.962,272.946,243.962Z" transform="translate(-164.41 -212.038)" fill="#ffbd9c"/>
      <path id="Trazado_114501" data-name="Trazado 114501" d="M269.782,251.845a2.575,2.575,0,0,1-.377.115,1.281,1.281,0,0,1-.953-.177,3.19,3.19,0,0,1-.853-3.113,4.138,4.138,0,0,1,.73-1.729,1.54,1.54,0,0,1,1.153-.769.661.661,0,0,1,.676.507.754.754,0,0,1,0,.377c0,.023.177-.092.184-.4a.843.843,0,0,0-.192-.515.961.961,0,0,0-.661-.331,1.815,1.815,0,0,0-1.537.845,4.449,4.449,0,0,0-.869,1.929c-.254,1.476.208,3,1.191,3.52a1.358,1.358,0,0,0,1.191.054C269.736,252.037,269.805,251.883,269.782,251.845Z" transform="translate(-164.989 -212.719)" fill="#ea986e"/>
      <path id="Trazado_114502" data-name="Trazado 114502" d="M315.771,223.9c-1.36,2.652-7.855,3.428-12.521,1.806-4.3-1.537-5.765-4.327-8.455-6.856-1.691-1.6-1.691-1.6-4.535-2.014-2.306-.331-4.258,1.891-6.072,3.351.73,5.849-2.091,11.491-4.827,16.71a2.89,2.89,0,0,1-1.245,1.453c-1.007.453-2.16-.369-2.713-1.33a8.857,8.857,0,0,1-.769-5.173,30.461,30.461,0,0,1,2.89-11.66,20.664,20.664,0,0,1,8.017-8.824,19.615,19.615,0,0,1,14.6-1.806,24.131,24.131,0,0,1,12.421,8.178,14.03,14.03,0,0,1,3.182,6.149" transform="translate(-166.737 -204.176)" fill="#12263f"/>
      <path id="Trazado_114503" data-name="Trazado 114503" d="M307.876,248.491c.061,0,.069-.63.4-1.683a7.109,7.109,0,0,1,2.744-3.651,6.919,6.919,0,0,1,6.51-.661,6.8,6.8,0,0,1-.5,12.767,6.916,6.916,0,0,1-6.433-1.2,7.046,7.046,0,0,1-2.429-3.843c-.246-1.084-.2-1.714-.261-1.714s-.038.154-.054.453a5.392,5.392,0,0,0,.092,1.307,7.039,7.039,0,0,0,2.39,4.135,7.262,7.262,0,0,0,6.856,1.4,7.187,7.187,0,0,0,3.528-2.406,7.31,7.31,0,0,0-9.754-10.667c-.051.035-.1.07-.154.106a7.075,7.075,0,0,0-2.721,3.92,5.346,5.346,0,0,0-.2,1.3C307.853,248.337,307.853,248.491,307.876,248.491Z" transform="translate(-174.437 -211.717)" fill="#12263f"/>
      <path id="Trazado_114504" data-name="Trazado 114504" d="M285.485,243.622c.061,0,.061-.63.4-1.691a7.062,7.062,0,0,1,2.744-3.643,6.918,6.918,0,0,1,6.5-.661,6.791,6.791,0,0,1,2.713,10.522,6.73,6.73,0,0,1-3.244,2.244,6.862,6.862,0,0,1-6.426-1.2,7.085,7.085,0,0,1-2.429-3.843c-.254-1.076-.2-1.706-.261-1.706s-.038.154-.061.453a5.751,5.751,0,0,0,.092,1.3,7.034,7.034,0,0,0,2.39,4.143,7.3,7.3,0,0,0,10.289-.882c.035-.042.069-.083.1-.125a7.313,7.313,0,0,0-9.752-10.675c-.052.035-.1.071-.155.107a7.067,7.067,0,0,0-2.729,3.928,5.694,5.694,0,0,0-.2,1.291C285.454,243.46,285.462,243.622,285.485,243.622Z" transform="translate(-169.247 -210.591)" fill="#12263f"/>
      <path id="Trazado_114505" data-name="Trazado 114505" d="M304.064,246.645c.069.146,1.015-.246,2.083.131s1.537,1.261,1.714,1.184.046-.307-.184-.684a2.591,2.591,0,0,0-3.074-1.061C304.217,246.368,304.025,246.576,304.064,246.645Z" transform="translate(-173.56 -212.776)" fill="#12263f"/>
      <path id="Trazado_114506" data-name="Trazado 114506" d="M272.825,242.705a23.065,23.065,0,0,0,5.2.438,23.893,23.893,0,0,0,5.211-.154,45.917,45.917,0,0,0-10.407-.284Z" transform="translate(-166.333 -211.957)" fill="#12263f"/>
      <path id="Trazado_114507" data-name="Trazado 114507" d="M166.86,319.531l14.212,16.141,17.494-16.141,14.2,16.579s-16.026,16.64-24.534,20.291c-7.994,3.428-11.79.354-14.534-.338s-17.278-26.817-17.278-26.817Z" transform="translate(-139.397 -229.777)" fill="#ffbd9c"/>
      <path id="Trazado_114508" data-name="Trazado 114508" d="M170.63,294.609s-.769,1.13-2.767,4.7-1.8,7.84-2.89,11.206c-1.307,4.058-2.575,4.819-2.575,4.819l-11.106,7.54s-5.38-3.313-7.194-6.333-4.742-13.4-4.742-13.4l-5.065-9.093a1.542,1.542,0,0,1,.085-.769,2.46,2.46,0,0,1,4.2-.177h0s1.722-1.537,4.612.207a3.81,3.81,0,0,1,2.16,3.482c1.414.669,8.209,11.329,9.907,8.57a11.3,11.3,0,0,1,2.959-3.413c5.38-2.844,4.389-2.852,6.695-5.88S170.123,292.334,170.63,294.609Z" transform="translate(-134.274 -223.408)" fill="#ffbd9c"/>
      <path id="Trazado_114509" data-name="Trazado 114509" d="M143.7,308.292a1.882,1.882,0,0,1-.069-.453c0-.346-.069-.769-.115-1.314-.092-1.191-.208-2.821-.354-4.819-.069-1.022-.138-2.137-.223-3.328,0-.6-.077-1.222-.115-1.86a5.375,5.375,0,0,1,.092-2.021,1.626,1.626,0,0,1,.692-.892,1.861,1.861,0,0,1,1.122-.246,2.585,2.585,0,0,1,1.922,1.184,6.422,6.422,0,0,1,.769,2.152c.161.769.331,1.491.492,2.252.876,4.028,1.691,7.8,2.383,11.014l-.177-.131a10.475,10.475,0,0,1,4.612.769,10.818,10.818,0,0,1,3.074,1.868,10.3,10.3,0,0,1,1.537,1.7c.154.215.254.4.323.515s.108.177.1.184a14.887,14.887,0,0,0-2.106-2.244,10.932,10.932,0,0,0-3.028-1.76,10.357,10.357,0,0,0-4.458-.684h-.154v-.146c-.707-3.213-1.537-6.987-2.429-11.007-.169-.769-.33-1.537-.5-2.252a6,6,0,0,0-.769-2.021,2.16,2.16,0,0,0-1.622-1.015,1.3,1.3,0,0,0-1.437.884,5.3,5.3,0,0,0-.092,1.883c0,.638.069,1.253.1,1.852.061,1.2.123,2.306.177,3.336.092,2,.169,3.636.223,4.827v1.314A2.653,2.653,0,0,1,143.7,308.292Z" transform="translate(-136.241 -223.718)" fill="#ea986e"/>
      <path id="Trazado_114510" data-name="Trazado 114510" d="M165.826,303.881a9.209,9.209,0,0,1-1.176.861,10.3,10.3,0,0,0-2.421,2.429,7.106,7.106,0,0,0-1.184,3.182,12.432,12.432,0,0,1-.1,1.445,3.579,3.579,0,0,1-.184-1.468,6.469,6.469,0,0,1,1.138-3.382,8.7,8.7,0,0,1,2.6-2.467A3.79,3.79,0,0,1,165.826,303.881Z" transform="translate(-140.4 -226.155)" fill="#ea986e"/>
      <path id="Trazado_114511" data-name="Trazado 114511" d="M142.408,298.84a27.463,27.463,0,0,1-1.476-2.79,15.137,15.137,0,0,1-1.337-2.859,10.86,10.86,0,0,1,1.7,2.667A8.6,8.6,0,0,1,142.408,298.84Z" transform="translate(-135.505 -223.682)" fill="#ea986e"/>
      <path id="Trazado_114512" data-name="Trazado 114512" d="M197.041,350.54a34.259,34.259,0,0,0-3.474-5.557,35.054,35.054,0,0,0-4.742-4.512,6.857,6.857,0,0,1,1.66,1.015,19.316,19.316,0,0,1,3.4,3.244,19.045,19.045,0,0,1,2.5,3.981A6.472,6.472,0,0,1,197.041,350.54Z" transform="translate(-146.897 -234.622)" fill="#ea986e"/>
      <path id="Trazado_114513" data-name="Trazado 114513" d="M253.262,282.181s-20.568,5.488-29.553,11.591c-4.489,3.074-19.984,21.375-19.984,21.375l15.48,22.935L235.2,322.395Z" transform="translate(-150.344 -221.134)" fill="#dfdfdf"/>
      <path id="Trazado_114514" data-name="Trazado 114514" d="M232.885,324.927l5.3,61.673,12.6.876H312.19l-.161-63.457L309.323,296.1l-23.65-9.016c-8.4,8.17-21.882,6.11-25.718-4.758Z" transform="translate(-157.092 -221.169)" fill="#dfdfdf"/>
      <path id="Trazado_114515" data-name="Trazado 114515" d="M230.831,312.751c.108,0,.9,8.455,1.76,18.892s1.476,18.923,1.368,18.939-.9-8.455-1.768-18.9S230.724,312.759,230.831,312.751Z" transform="translate(-156.613 -228.208)" fill="#12263f"/>
      <g id="Grupo_52915" data-name="Grupo 52915" transform="translate(99.889 140.867)" opacity="0.3">
        <path id="Trazado_114516" data-name="Trazado 114516" d="M265.565,399.3l-1.33.5a34.241,34.241,0,0,0,25.456-13.773C282,391.127,274.219,396.184,265.565,399.3Z" transform="translate(-264.235 -386.031)"/>
      </g>
      <path id="Trazado_114517" data-name="Trazado 114517" d="M290.014,360.811a1.331,1.331,0,0,1-.146.377c-.138.277-.3.623-.507,1.045s-.492,1-.853,1.614-.769,1.337-1.222,2.1a57.61,57.61,0,0,1-3.589,5.2,62.637,62.637,0,0,1-5.119,5.788,63.4,63.4,0,0,1-5.834,5.081,56.635,56.635,0,0,1-5.219,3.551c-.769.484-1.483.861-2.106,1.207s-1.168.623-1.622.838l-1.045.5a1.331,1.331,0,0,1-.377.146,1.726,1.726,0,0,1,.338-.215l1.007-.569c.446-.231.984-.523,1.591-.9s1.322-.769,2.068-1.245a60.915,60.915,0,0,0,5.142-3.6,66.488,66.488,0,0,0,5.772-5.073,69.76,69.76,0,0,0,5.119-5.734c1.453-1.868,2.682-3.6,3.636-5.119.5-.769.9-1.445,1.268-2.052s.669-1.145.907-1.583l.569-1.007A3.083,3.083,0,0,1,290.014,360.811Z" transform="translate(-163.915 -239.328)" fill="#12263f"/>
      <path id="Trazado_114518" data-name="Trazado 114518" d="M174.792,465.84l4.858,22.136s-21.1,10.745-20.637,14.926l43.526-6.257-6.149-34.8Z" transform="translate(-139.997 -262.708)" fill="#0a4b6e"/>
      <g id="Grupo_52916" data-name="Grupo 52916" transform="translate(50.836 220.957)" opacity="0.6">
        <path id="Trazado_114519" data-name="Trazado 114519" d="M202.267,490.231a1.791,1.791,0,0,1,1.583,1.8,1.737,1.737,0,0,1-1.76,1.591,1.9,1.9,0,0,1-1.676-1.914,1.8,1.8,0,0,1,2.021-1.453" transform="translate(-200.415 -490.231)" fill="#fff"/>
      </g>
      <g id="Grupo_52917" data-name="Grupo 52917" transform="translate(18.829 230.434)" opacity="0.6">
        <path id="Trazado_114520" data-name="Trazado 114520" d="M202.485,506.066l-.623-3.5-41.828,7.5a3.074,3.074,0,0,0-1.261,2.606Z" transform="translate(-158.772 -502.561)" fill="#fff"/>
      </g>
      <path id="Trazado_114521" data-name="Trazado 114521" d="M184.894,495.612c.046.208,1.122.115,2.306.607s1.883,1.276,2.06,1.153-.361-1.284-1.775-1.852S184.817,495.427,184.894,495.612Z" transform="translate(-145.986 -270.436)" fill="#12263f"/>
      <path id="Trazado_114522" data-name="Trazado 114522" d="M179.415,499.2c0,.208.968.4,1.845,1.168s1.261,1.668,1.468,1.622.131-1.268-.984-2.2S179.415,498.988,179.415,499.2Z" transform="translate(-144.719 -271.314)" fill="#12263f"/>
      <path id="Trazado_114523" data-name="Trazado 114523" d="M176.7,505.905c.2,0,.3-1.1-.453-2.152s-1.852-1.345-1.914-1.114.669.7,1.276,1.583S176.455,505.921,176.7,505.905Z" transform="translate(-143.543 -272.128)" fill="#12263f"/>
      <path id="Trazado_114524" data-name="Trazado 114524" d="M184.181,488.641c.123.177,1.038-.292,2.252-.43s2.206.069,2.306-.131-.953-.769-2.375-.607S184.051,488.495,184.181,488.641Z" transform="translate(-145.819 -268.63)" fill="#12263f"/>
      <g id="Grupo_52918" data-name="Grupo 52918" transform="translate(35.764 203.817)" opacity="0.3">
        <path id="Trazado_114525" data-name="Trazado 114525" d="M180.805,471.628l.861,3.951,21.221-4.066-.623-3.582Z" transform="translate(-180.805 -467.931)"/>
      </g>
      <path id="Trazado_114526" data-name="Trazado 114526" d="M183.015,481.807a4.079,4.079,0,0,0,2.167-.4,9.88,9.88,0,0,0,2.137-1.114,10.364,10.364,0,0,0,1.13-.884,2.725,2.725,0,0,0,.561-.63.937.937,0,0,0-.108-1.138,1.169,1.169,0,0,0-1.015-.315,2.591,2.591,0,0,0-.769.261,7.655,7.655,0,0,0-3.021,2.383c-.838,1.107-1.038,1.96-.953,1.991s.477-.7,1.353-1.652a8.745,8.745,0,0,1,1.737-1.445,8.472,8.472,0,0,1,1.176-.607c.43-.2.822-.277.976-.092s.069.1,0,.246a2.175,2.175,0,0,1-.415.461,10.308,10.308,0,0,1-1.03.861A11.867,11.867,0,0,1,185,480.915,17.83,17.83,0,0,0,183.015,481.807Z" transform="translate(-145.552 -266.284)" fill="#12263f"/>
      <path id="Trazado_114527" data-name="Trazado 114527" d="M182.278,481.513a3.532,3.532,0,0,0,.192-2.2,7.268,7.268,0,0,0-1.537-3.528,1.831,1.831,0,0,0-1.583-.845,1.038,1.038,0,0,0-.769.769,3.337,3.337,0,0,0-.077.838,4.923,4.923,0,0,0,.269,1.46,5.018,5.018,0,0,0,1.33,2.068c1.053.968,1.975,1.061,1.983.984a9.108,9.108,0,0,1-1.606-1.353,5.069,5.069,0,0,1-1.053-1.906,4.543,4.543,0,0,1-.184-1.261c0-.477.085-.876.269-.861a1.6,1.6,0,0,1,.884.569,8.549,8.549,0,0,1,.769,1.076,7.9,7.9,0,0,1,.769,2.091C182.278,480.675,182.186,481.5,182.278,481.513Z" transform="translate(-144.508 -265.736)" fill="#12263f"/>
      <path id="Trazado_114528" data-name="Trazado 114528" d="M173.02,448.017s-14.926-61.1-15.1-69.467c-.177-8.877,7.97-16.341,13.443-17.617s17.617,2.936,24.334,11.329,28.1,24.327,28.1,24.327c8.839,6.633,21.936,9.454,33.819,3.236,0,0,17.478,27.186,18.616,26.5,2.052-1.245.715,2.175-.922,6.4-3.236,8.347-9.646,15.464-17.086,15.641l-42.719,1.914-16.617-18.593,1.537,12.859Z" transform="translate(-139.746 -239.305)" fill="#0a4b6e"/>
      <path id="Trazado_114529" data-name="Trazado 114529" d="M209.965,445.77a3.717,3.717,0,0,1-.154-.653c-.085-.423-.223-1.053-.346-1.875a69.261,69.261,0,0,1-.769-6.979,101.237,101.237,0,0,1-.108-10.415c.061-1.96.169-4.012.3-6.149a63.552,63.552,0,0,0,.192-6.572,80.21,80.21,0,0,0-1.407-12.621,71.012,71.012,0,0,0-2.613-10.038,37.5,37.5,0,0,0-2.821-6.387,18.546,18.546,0,0,0-1-1.614,4.6,4.6,0,0,1-.346-.576,4.171,4.171,0,0,1,.415.523A15.6,15.6,0,0,1,202.371,384a34.135,34.135,0,0,1,2.951,6.372,67.368,67.368,0,0,1,2.713,10.061,78.92,78.92,0,0,1,1.445,12.674,64.306,64.306,0,0,1-.2,6.61q-.208,3.194-.323,6.149c-.161,3.9-.146,7.432,0,10.384s.438,5.334.661,6.971c.1.822.215,1.453.269,1.891A4.163,4.163,0,0,1,209.965,445.77Z" transform="translate(-149.689 -244.206)" fill="#0a4b6e"/>
      <path id="Trazado_114530" data-name="Trazado 114530" d="M247.086,421.4c-.123,0,0-2.621-.477-5.8s-1.253-5.672-1.138-5.711a6.093,6.093,0,0,1,.638,1.606,26.753,26.753,0,0,1,.9,4.051,25.754,25.754,0,0,1,.246,4.143A6.126,6.126,0,0,1,247.086,421.4Z" transform="translate(-160.001 -250.685)" fill="#0a4b6e"/>
      <path id="Trazado_114531" data-name="Trazado 114531" d="M224.651,471.943l-21.337,7.632s2.121,23.619-1.683,25.41l-17.816-40.2,32.743-13.266Z" transform="translate(-145.737 -260.317)" fill="#0a4b6e"/>
      <g id="Grupo_52919" data-name="Grupo 52919" transform="translate(51.264 205.246)" opacity="0.6">
        <path id="Trazado_114532" data-name="Trazado 114532" d="M204.018,470.46a1.8,1.8,0,0,0-2.36-.392,1.722,1.722,0,0,0-.415,2.306,1.9,1.9,0,0,0,2.506.407,1.791,1.791,0,0,0,.161-2.483" transform="translate(-200.971 -469.79)" fill="#fff"/>
      </g>
      <g id="Grupo_52920" data-name="Grupo 52920" transform="translate(38.078 203.132)" opacity="0.6">
        <path id="Trazado_114533" data-name="Trazado 114533" d="M183.815,468.378l3.305-1.337,15.841,39.414a3.073,3.073,0,0,1-1.537,2.46Z" transform="translate(-183.815 -467.041)" fill="#fff"/>
      </g>
      <path id="Trazado_114534" data-name="Trazado 114534" d="M208.662,487.9c-.2.077-.692-.884-1.722-1.614s-2.083-.907-2.075-1.122,1.276-.384,2.513.523S208.862,487.865,208.662,487.9Z" transform="translate(-150.608 -268.062)" fill="#12263f"/>
      <path id="Trazado_114535" data-name="Trazado 114535" d="M208.481,494.723c-.177.123-.861-.607-1.975-.953s-2.083-.177-2.152-.377,1.007-.769,2.383-.33S208.666,494.638,208.481,494.723Z" transform="translate(-150.489 -269.892)" fill="#12263f"/>
      <path id="Trazado_114536" data-name="Trazado 114536" d="M204.312,500.858c-.115-.161.769-.838,2.068-.769s2.1.838,1.968.984-.945-.192-2.014-.238S204.389,501.05,204.312,500.858Z" transform="translate(-150.478 -271.554)" fill="#12263f"/>
      <path id="Trazado_114537" data-name="Trazado 114537" d="M215.289,484.554c-.215,0-.3-1.038-.83-2.137s-1.23-1.829-1.1-2.006,1.176.392,1.775,1.691S215.489,484.585,215.289,484.554Z" transform="translate(-152.57 -266.995)" fill="#12263f"/>
      <g id="Grupo_52921" data-name="Grupo 52921" transform="translate(63.065 192.979)" opacity="0.3">
        <path id="Trazado_114538" data-name="Trazado 114538" d="M227.947,473.984l-3.8,1.36L216.325,455.2l3.367-1.368Z" transform="translate(-216.325 -453.831)"/>
      </g>
      <path id="Trazado_114539" data-name="Trazado 114539" d="M221.11,481.488a4.3,4.3,0,0,1-.807-2.052,10.248,10.248,0,0,1-.2-2.4,10.523,10.523,0,0,1,.161-1.422,2.814,2.814,0,0,1,.231-.815.945.945,0,0,1,1.022-.515,1.178,1.178,0,0,1,.807.692,2.788,2.788,0,0,1,.2.815,7.7,7.7,0,0,1,.069,1.445,7.546,7.546,0,0,1-.484,2.375c-.5,1.3-1.114,1.922-1.184,1.868s.338-.769.684-2.029a8.9,8.9,0,0,0,.3-2.229,7.861,7.861,0,0,0-.108-1.322c-.061-.477-.208-.845-.438-.884-.092,0-.123,0-.215.138a2.323,2.323,0,0,0-.169.6,10.638,10.638,0,0,0-.184,1.322,12.29,12.29,0,0,0,0,2.306A16.1,16.1,0,0,1,221.11,481.488Z" transform="translate(-154.133 -265.581)" fill="#12263f"/>
      <path id="Trazado_114540" data-name="Trazado 114540" d="M220.934,482.914c-.061-.061.5-.769,1.76-1.33a7.388,7.388,0,0,1,2.352-.615,7.092,7.092,0,0,1,1.445,0,1.808,1.808,0,0,1,1.537.892,1.029,1.029,0,0,1-.223,1.084,3.138,3.138,0,0,1-.669.507,5.052,5.052,0,0,1-1.376.553,5.139,5.139,0,0,1-2.46,0c-1.383-.377-1.952-1.115-1.891-1.161a17.7,17.7,0,0,0,2,.638,5,5,0,0,0,2.183-.115,4.646,4.646,0,0,0,1.161-.507c.415-.238.7-.546.584-.684a1.646,1.646,0,0,0-.953-.453,7.651,7.651,0,0,0-1.307-.061,7.94,7.94,0,0,0-2.2.415C221.671,482.5,221.01,483.03,220.934,482.914Z" transform="translate(-154.325 -267.123)" fill="#12263f"/>
      <path id="Trazado_114541" data-name="Trazado 114541" d="M229.264,433.733s42.858-40.083,56.923-37.946,17.486,8.954,18.762,14.488.853,22.174-18.331,31.982-60.129,20.468-60.129,20.468l-8.524-23.881Z" transform="translate(-153.639 -247.402)" fill="#3b6f8b"/>
      <path id="Trazado_114542" data-name="Trazado 114542" d="M229.252,433.676s-.246.131-.73.361l-2.167,1-8.37,3.843.046-.115c2.121,5.9,5.057,14.043,8.585,23.865l-.177-.1c10.061-2.7,21.859-6.1,34.7-10.407,6.41-2.175,13.066-4.566,19.815-7.494,1.691-.7,3.343-1.537,5.019-2.306.845-.384,1.629-.9,2.452-1.345l1.222-.692c.415-.223.769-.523,1.176-.769a33.216,33.216,0,0,0,8.37-7.686,28.2,28.2,0,0,0,5.964-16.564,19.637,19.637,0,0,0-.576-5.7,16.713,16.713,0,0,0-2.221-5.15,15.318,15.318,0,0,0-3.8-3.966,19.994,19.994,0,0,0-4.765-2.567,33.948,33.948,0,0,0-5.1-1.537l-2.575-.461-1.268-.077-1.268.115a21.574,21.574,0,0,0-4.835,1.36,59.8,59.8,0,0,0-8.631,4.389,164.018,164.018,0,0,0-14.373,9.854c-8.455,6.441-15.042,12.083-19.546,15.987-2.244,1.96-3.974,3.5-5.142,4.55l-1.337,1.214c-.3.269-.461.4-.461.4l.43-.43,1.307-1.222c1.153-1.061,2.859-2.629,5.1-4.612,4.473-3.943,10.991-9.615,19.477-16.095a162.917,162.917,0,0,1,14.365-9.915,60.086,60.086,0,0,1,8.678-4.427,21.918,21.918,0,0,1,4.919-1.391c.43-.038.869-.1,1.307-.123l1.33.077,2.6.461a33.217,33.217,0,0,1,5.157,1.537,20.462,20.462,0,0,1,4.858,2.606,15.57,15.57,0,0,1,3.9,4.058,17.4,17.4,0,0,1,2.306,5.265,20.159,20.159,0,0,1,.584,5.811c0,.984-.138,1.968-.231,2.951a15.859,15.859,0,0,1-.584,2.921,28.833,28.833,0,0,1-5.219,10.86,33.407,33.407,0,0,1-8.455,7.8,11.622,11.622,0,0,1-1.191.769l-1.23.7c-.83.453-1.622.968-2.475,1.353-1.683.807-3.343,1.637-5.042,2.344-6.741,2.936-13.428,5.319-19.846,7.486-12.859,4.3-24.665,7.686-34.741,10.338l-.131.038-.046-.131c-3.489-9.831-6.379-17.993-8.455-23.9v-.077h.077l8.393-3.759,2.191-.968A5.893,5.893,0,0,1,229.252,433.676Z" transform="translate(-153.628 -247.346)" fill="#0a4b6e"/>
      <path id="Trazado_114543" data-name="Trazado 114543" d="M258.324,404.113c-.661-1.2.7-3.305-.592-3.759-4.95-1.745-1.153-9.569-6.218-8.2l-6.779,12.006c2.959,1.814,1.7,6.918,4.281,9.223,1.537,1.345,3.774,1.268,5.734.822,7.456-1.668,13.75-5.6,15.672-13C270.737,399.854,258.954,405.319,258.324,404.113Z" transform="translate(-159.833 -246.543)" fill="#dfdfdf"/>
      <path id="Trazado_114544" data-name="Trazado 114544" d="M350.938,235.661c-4.212.569-8.893,3.22-10.507,7.163-1.253,3.074.177,7.64.231,10.96,0,2.675.085,5.38.238,8.04a6.356,6.356,0,0,1-.092.769,72.238,72.238,0,0,0-.769,10.714,23.889,23.889,0,0,0,.231,2.882c.069.469.131.938.231,1.4s.169.93.292,1.368a27.967,27.967,0,0,0,1.745,5,41.518,41.518,0,0,0,4.519,7.571,52.06,52.06,0,0,0,3.743,4.535l.284.3,3.128,8.024a27.323,27.323,0,0,0,3.958,7.617c1.837,2.237,4.612,3.843,7.44,3.566a8.307,8.307,0,0,0,6.149-4.358,15.925,15.925,0,0,0,1.783-7.594Zm-2.606,55a51.133,51.133,0,0,1-3.951-7.494,27.53,27.53,0,0,1-2.152-9.907V271.64a106.682,106.682,0,0,0,4.927,14.711l2.49,6.387c-.415-.676-.853-1.368-1.314-2.114Z" transform="translate(-181.858 -210.37)" fill="#a22f5f"/>
      <path id="Trazado_114545" data-name="Trazado 114545" d="M394.473,302.721l-30.468,12.252s11.252,25.087,20.914,22.835,14.358-25.249,14.358-25.249Z" transform="translate(-187.431 -225.887)" fill="#ffbd9c"/>
      <path id="Trazado_114546" data-name="Trazado 114546" d="M392.479,302.764s3.351,22.92-6.333,24.772c-6.787,1.291-22.559-15.049-22.559-15.049a27.719,27.719,0,0,0-6.971,3.582,16.633,16.633,0,0,0-6.326,20.753c3.367,7.778,7.786,17.9,10.284,23.135,4.4,9.223,14.719,14.988,14.719,14.988l-.845,19.615s26.6-5.58,40.859-4.151,23.7-1.683,23.7-1.683l-18.946-32.966-14.481-54.448S398.966,301.772,392.479,302.764Z" transform="translate(-183.931 -225.561)" fill="#e980ad"/>
      <path id="Trazado_114547" data-name="Trazado 114547" d="M422.08,302.121s8.647-.077,13.674,10.307c2.59,5.342,13.374,23.312,13.374,22.858l16.248-24.134,14.173,7.886s-13.212,27.954-15.311,32.151-4.827,10.069-12.8,10.907-15.726-5.872-17.4-9.854S420.2,327.493,420.2,326.878,422.08,302.121,422.08,302.121Z" transform="translate(-200.435 -225.748)" fill="#e980ad"/>
      <path id="Trazado_114548" data-name="Trazado 114548" d="M450.255,385.732a2.683,2.683,0,0,1-.292-.43c-.192-.315-.438-.769-.769-1.253-.669-1.138-1.606-2.729-2.775-4.7-2.344-4.043-5.588-9.638-9.277-15.987v-.092c-.077-1.737-.169-3.543-.315-5.38a53.429,53.429,0,0,0-2.183-11.929,29.509,29.509,0,0,0-4.366-8.831,22.069,22.069,0,0,0-4.689-4.719c-.646-.453-1.153-.769-1.537-1a3.609,3.609,0,0,1-.538-.354,4.425,4.425,0,0,1,.576.277,17.009,17.009,0,0,1,1.537.953,21.039,21.039,0,0,1,4.819,4.673,29.075,29.075,0,0,1,4.519,8.885,52.683,52.683,0,0,1,2.229,12.006c.146,1.852.231,3.666.307,5.38v-.092c3.636,6.38,6.841,12,9.162,16.056,1.114,2,2.021,3.6,2.667,4.758l.707,1.291A3.128,3.128,0,0,1,450.255,385.732Z" transform="translate(-201.201 -232.444)" fill="#12263f"/>
      <path id="Trazado_114549" data-name="Trazado 114549" d="M458.486,355.816a18.824,18.824,0,0,1-.807-5.081,30.2,30.2,0,0,1,0-3.636,5.073,5.073,0,0,1,.208-1.5c.115,0,0,2.306.2,5.111S458.6,355.793,458.486,355.816Z" transform="translate(-209.093 -235.809)" fill="#12263f"/>
      <path id="Trazado_114550" data-name="Trazado 114550" d="M409.364,350.661a4.313,4.313,0,0,1,.377.945,10.816,10.816,0,0,1,.338,1.145c.108.446.261.961.346,1.537a17.764,17.764,0,0,1,.269,1.9c.092.684.1,1.422.131,2.2a24.773,24.773,0,0,1-1.975,9.846,21.578,21.578,0,0,1-.968,1.983,15.878,15.878,0,0,1-.976,1.645c-.307.5-.638.915-.915,1.291a11.312,11.312,0,0,1-.769.922,4.853,4.853,0,0,1-.707.73c-.061-.054.922-1.122,2.144-3.074a17.806,17.806,0,0,0,.922-1.653c.331-.592.607-1.268.922-1.968a27.683,27.683,0,0,0,1.437-4.75,28.235,28.235,0,0,0,.507-4.95,16.329,16.329,0,0,0-.092-2.168c-.092-.676-.131-1.307-.215-1.883C409.818,352.075,409.287,350.715,409.364,350.661Z" transform="translate(-196.804 -236.98)" fill="#12263f"/>
      <path id="Trazado_114551" data-name="Trazado 114551" d="M379.281,247.159A17.847,17.847,0,0,0,357.275,234.8c-.221.061-.441.128-.659.2a18.44,18.44,0,0,0-12.075,22.036c2.029,8.132,4.25,16.272,5.457,19.062,3.643,8.409,9.992,9.6,12.452,9.731a11.845,11.845,0,0,0,2.483-.392h0a.069.069,0,0,1,.077.046l2.152,10.507c1.8,6.718,7.748,10.876,14.55,9.108s9.823-8.785,8.147-15.557Z" transform="translate(-182.801 -210.016)" fill="#ffbd9c"/>
      <path id="Trazado_114552" data-name="Trazado 114552" d="M352.278,268.91a1.453,1.453,0,0,0,1.737,1.068,1.421,1.421,0,0,0,1.147-1.652l0-.008a1.453,1.453,0,0,0-1.737-1.068,1.423,1.423,0,0,0-1.147,1.652Z" transform="translate(-184.712 -217.671)" fill="#12263f"/>
      <path id="Trazado_114553" data-name="Trazado 114553" d="M348.514,265.125c.223.138,1.1-.93,2.636-1.33s2.852.069,2.967-.154-.208-.392-.769-.615a4.005,4.005,0,0,0-2.437-.108,3.912,3.912,0,0,0-2.037,1.291C348.476,264.694,348.43,265.071,348.514,265.125Z" transform="translate(-183.839 -216.645)" fill="#12263f"/>
      <path id="Trazado_114554" data-name="Trazado 114554" d="M370.977,264.43a1.445,1.445,0,0,0,1.737,1.061,1.414,1.414,0,0,0,1.148-1.638l0-.015a1.461,1.461,0,0,0-1.737-1.068,1.415,1.415,0,0,0-1.15,1.637Z" transform="translate(-189.038 -216.634)" fill="#12263f"/>
      <path id="Trazado_114555" data-name="Trazado 114555" d="M368.212,260.385c.223.138,1.107-.938,2.636-1.33s2.852.069,2.975-.161c.054-.1-.208-.384-.769-.615a4.088,4.088,0,0,0-2.436-.1,3.977,3.977,0,0,0-2.045,1.291C368.181,259.947,368.1,260.323,368.212,260.385Z" transform="translate(-188.394 -215.548)" fill="#12263f"/>
      <path id="Trazado_114556" data-name="Trazado 114556" d="M363.447,273.794a10.627,10.627,0,0,0-2.606.2c-.4.069-.769.085-.922-.161a2.034,2.034,0,0,1,0-1.222c.131-1.03.261-2.114.407-3.251.538-4.612.822-8.393.63-8.409s-.769,3.72-1.314,8.339c-.123,1.138-.238,2.229-.354,3.267a2.344,2.344,0,0,0,.185,1.537,1.015,1.015,0,0,0,.769.4,2.958,2.958,0,0,0,.692-.085A10.6,10.6,0,0,0,363.447,273.794Z" transform="translate(-186.327 -216.222)" fill="#12263f"/>
      <path id="Trazado_114557" data-name="Trazado 114557" d="M371.315,298.633s6.041-1.061,12.3-7.4c0,0-.369,8.363-11.752,10.23Z" transform="translate(-189.123 -223.228)" fill="#ea986e"/>
      <path id="Trazado_114558" data-name="Trazado 114558" d="M366.749,281.67a2.892,2.892,0,0,1,2.214-1.66,2.6,2.6,0,0,1,1.983.477,1.614,1.614,0,0,1,.576,1.775,1.92,1.92,0,0,1-1.875,1.03,5.955,5.955,0,0,1-2.26-.653,1.67,1.67,0,0,1-.553-.331.523.523,0,0,1-.138-.569" transform="translate(-188.046 -220.623)" fill="#ea986e"/>
      <path id="Trazado_114559" data-name="Trazado 114559" d="M369.773,277.48c-.254.046.161,1.7-.961,3.244s-2.944,1.822-2.9,2.052c0,.108.477.215,1.23.046a4.364,4.364,0,0,0,2.444-1.629,3.7,3.7,0,0,0,.7-2.69C370.142,277.8,369.888,277.442,369.773,277.48Z" transform="translate(-187.873 -220.046)" fill="#12263f"/>
      <path id="Trazado_114560" data-name="Trazado 114560" d="M365.687,254.105c.261.377,1.737-.215,3.6-.469s3.428-.154,3.574-.584c.062-.208-.292-.53-.976-.769a6.352,6.352,0,0,0-5.465.807C365.825,253.513,365.572,253.929,365.687,254.105Z" transform="translate(-187.814 -214.149)" fill="#12263f"/>
      <path id="Trazado_114561" data-name="Trazado 114561" d="M347.3,259.61c.354.277,1.322-.361,2.583-.707s2.406-.377,2.567-.807c.061-.2-.2-.507-.769-.707a3.921,3.921,0,0,0-4.143,1.214C347.19,259.1,347.129,259.472,347.3,259.61Z" transform="translate(-183.544 -215.358)" fill="#12263f"/>
      <path id="Trazado_114562" data-name="Trazado 114562" d="M403.767,284.329q-3.712-13.443-8.455-26.571a77.986,77.986,0,0,0-6.918-15.28c-2.982-4.742-6.917-8.985-11.937-11.475a20.249,20.249,0,0,0-11.491-2.052,14.71,14.71,0,0,0-10.538,3.074c-1.453,1.23-2.682,3.236-1.9,4.981.623,1.383,2.221,1.975,3.659,2.429l11.875,3.766.092.092.692.73a19.279,19.279,0,0,1,3.436,5.273,31.16,31.16,0,0,1,2.39,9.062c.423,3.536.377,7.525.53,11.775a41.968,41.968,0,0,0,1.852,12,36.726,36.726,0,0,0,4.466,8.824,46.777,46.777,0,0,0,3.912,4.965,11.97,11.97,0,0,1,.254,1.883c.108,1.852-.246,3.7-.231,5.557a6.573,6.573,0,0,0,1.914,5.042,5.2,5.2,0,0,0,5.273.592,9,9,0,0,0,4.012-3.751,19.745,19.745,0,0,0,2.406-11.8c-.038-.507-.092-1.007-.154-1.537a9.85,9.85,0,0,0,2.075-.6,5.2,5.2,0,0,0,3.19-3.574A7.69,7.69,0,0,0,403.767,284.329Zm-20.929,5.8a41.049,41.049,0,0,1-3.882-8.616,44.321,44.321,0,0,1-1.583-11.452c-.1-2.659-.138-5.273-.3-7.778.215,1.022.407,2.052.592,3.074,1.414,7.9,2.237,16,5.18,23.466.523,1.322,1.114,2.644,1.629,3.974C383.96,291.992,383.414,291.108,382.838,290.124Z" transform="translate(-184.72 -208.786)" fill="#a22f5f"/>
      <path id="Trazado_114563" data-name="Trazado 114563" d="M389.766,244.609l-.354-.054-1.03-.1c-.454-.046-1-.1-1.629-.177s-1.36-.146-2.152-.269c-1.6-.208-3.49-.523-5.572-.93s-4.358-.961-6.725-1.622-4.612-1.414-6.579-2.137-3.766-1.468-5.242-2.121c-.769-.315-1.4-.63-1.975-.9s-1.084-.5-1.483-.7l-.938-.453-.33-.146a1.733,1.733,0,0,0,.307.184l.922.492c.4.208.892.461,1.468.769s1.23.607,1.968.93c1.468.676,3.244,1.414,5.234,2.167s4.227,1.483,6.595,2.16,4.65,1.191,6.741,1.606,3.989.692,5.588.884c.769.115,1.537.177,2.16.238s1.184.108,1.637.138l1.03.061A1.778,1.778,0,0,0,389.766,244.609Z" transform="translate(-185.522 -210.217)" fill="#0a4b6e"/>
      <path id="Trazado_114564" data-name="Trazado 114564" d="M390.168,246.889a1.965,1.965,0,0,0-.369,0l-1.053.069-.769.054h-.907c-.646,0-1.391.061-2.206.038h-1.291c-.446,0-.907-.046-1.391-.069-.961,0-1.983-.154-3.074-.254a53.2,53.2,0,0,1-13.643-3.413c-1-.423-1.952-.807-2.821-1.23-.438-.208-.869-.392-1.26-.6l-1.145-.6c-.769-.361-1.368-.769-1.937-1.076l-.769-.453-.646-.407-.9-.561a1.9,1.9,0,0,0-.323-.177l.3.215.876.592.638.43.769.469c.561.33,1.191.769,1.922,1.114l1.145.607c.392.208.822.4,1.261.615.861.43,1.822.822,2.828,1.245a50.912,50.912,0,0,0,13.689,3.443c1.084.1,2.106.215,3.074.238.484,0,.953.054,1.4.054h1.291c.822,0,1.537,0,2.214-.061l.907-.054.769-.069,1.053-.108Z" transform="translate(-185.501 -210.96)" fill="#fff"/>
      <path id="Trazado_114565" data-name="Trazado 114565" d="M403.093,305.791v-.584a16.249,16.249,0,0,0-.138-1.66,56.49,56.49,0,0,0-.984-6.072c-.538-2.536-1.345-5.526-2.383-8.8s-2.26-6.833-3.528-10.584l-6.549-19.215c-.845-2.436-1.537-4.419-2.006-5.8l-.553-1.576-.154-.407a1.173,1.173,0,0,0-.054-.138.425.425,0,0,0,.038.146l.123.415.523,1.591,1.937,5.826c1.66,4.927,3.951,11.714,6.487,19.215,1.26,3.751,2.506,7.31,3.543,10.576s1.868,6.241,2.421,8.778a59.6,59.6,0,0,1,1.053,6.041c.092.715.138,1.284.177,1.66l.046.43Z" transform="translate(-192.693 -213.908)" fill="#0a4b6e"/>
      <path id="Trazado_114566" data-name="Trazado 114566" d="M392.082,283.3a2.381,2.381,0,0,0-.038-.354c-.038-.254-.092-.592-.154-1.022-.138-.884-.354-2.16-.638-3.735-.561-3.144-1.414-7.479-2.513-12.236s-2.229-9.031-3.074-12.106c-.438-1.537-.769-2.782-1.068-3.636l-.307-.984a1.836,1.836,0,0,0-.123-.338,2.408,2.408,0,0,0,.085.354c.061.246.154.576.261.992.246.884.584,2.121,1,3.651.838,3.074,1.945,7.363,3.074,12.113s1.975,9.085,2.575,12.221c.292,1.537.53,2.821.707,3.72.077.423.146.769.192,1.015A1.854,1.854,0,0,0,392.082,283.3Z" transform="translate(-192.096 -213.431)" fill="#0a4b6e"/>
      <path id="Trazado_114567" data-name="Trazado 114567" d="M482.521,305.178a31.861,31.861,0,0,0,1.36-6.387c.423-3.728.43-3.92-.392-5.565s-2.306-2.306-2.967-3.121,1.9-1.814,4.135-.284a18.876,18.876,0,0,1,4.443,5.119c2.367,3.466,4.42,3.559,4.42,3.559l8.97-2.306s1.868-2.713,3.52-2.352l.723.131.292-.169a1.153,1.153,0,0,1,1.737.907,1.632,1.632,0,0,1-.192.769c-.638,1.291-6.356,6.364-6.648,7.732s0,3.536-2.513,5.949a14.412,14.412,0,0,1-8.616,3.735l-.484,1.314-9.585-5.326Z" transform="translate(-214.367 -222.718)" fill="#ffbd9c"/>
      <path id="Trazado_114568" data-name="Trazado 114568" d="M504.63,308.3a3.863,3.863,0,0,1,.092-.845c.108-.63.238-1.4.4-2.306s.4-2.144.638-3.4a2.921,2.921,0,0,0,0-1.868,1.007,1.007,0,0,0-.676-.553,1.124,1.124,0,0,0-.869.277,4.438,4.438,0,0,0-1.015,2.168c-.246.761-.477,1.537-.692,2.221-.438,1.353-.822,2.552-1.145,3.536v.077h-.077a2.986,2.986,0,0,0-1.491.584c-.307.231-.438.4-.461.384s.085-.208.377-.484a2.986,2.986,0,0,1,1.537-.769l-.108.092c.292-1,.638-2.206,1.03-3.566q.323-1.061.669-2.237c.123-.392.231-.769.377-1.207a2.662,2.662,0,0,1,.769-1.161,1.539,1.539,0,0,1,1.2-.354,1.393,1.393,0,0,1,.945.769,3.2,3.2,0,0,1,.054,2.121c-.269,1.253-.515,2.39-.722,3.382s-.384,1.653-.523,2.306A3.112,3.112,0,0,1,504.63,308.3Z" transform="translate(-218.744 -224.999)" fill="#ea986e"/>
      <path id="Trazado_114569" data-name="Trazado 114569" d="M513.4,295.551a32.5,32.5,0,0,1-2.444,4.473,31.775,31.775,0,0,1-2.79,4.273,65.134,65.134,0,0,1,5.234-8.747Z" transform="translate(-220.788 -224.228)" fill="#ea986e"/>
      <path id="Trazado_114570" data-name="Trazado 114570" d="M507.883,300.185a3.032,3.032,0,0,1,.576-2.006c.607-1.015,1.422-1.537,1.483-1.46s-.576.723-1.138,1.668S508,300.208,507.883,300.185Z" transform="translate(-220.721 -224.496)" fill="#ea986e"/>
      <path id="Trazado_114571" data-name="Trazado 114571" d="M492.474,298.571a3.651,3.651,0,0,1,1.053,1.184,8.277,8.277,0,0,1,.838,7.433,3.767,3.767,0,0,1-.769,1.391c-.061,0,.223-.561.492-1.483a9.148,9.148,0,0,0-.807-7.194A14.29,14.29,0,0,1,492.474,298.571Z" transform="translate(-217.156 -224.927)" fill="#ea986e"/>
      <path id="Trazado_114572" data-name="Trazado 114572" d="M499.838,306.706c-.115,0-.231-1.176-.869-2.46s-1.491-2.114-1.407-2.206a5.165,5.165,0,0,1,2.306,4.665Z" transform="translate(-218.334 -225.73)" fill="#ea986e"/>
      <path id="Trazado_114573" data-name="Trazado 114573" d="M502.6,303.071a4.07,4.07,0,0,1-1.537.769,3.913,3.913,0,0,1-1.676.4,4.051,4.051,0,0,1,1.537-.769A3.668,3.668,0,0,1,502.6,303.071Z" transform="translate(-218.756 -225.968)" fill="#ea986e"/>
      <path id="Trazado_114574" data-name="Trazado 114574" d="M470.875,465.372l20.253,5.8S490.59,493.2,494.2,494.64l14.1-38.377-31.19-10.322Z" transform="translate(-212.16 -259.026)" fill="#7cc5ff"/>
      <g id="Grupo_52922" data-name="Grupo 52922" transform="translate(280.947 198.862)" opacity="0.6">
        <path id="Trazado_114575" data-name="Trazado 114575" d="M500.05,462.2a1.668,1.668,0,0,1,2.167-.507,1.6,1.6,0,0,1,.523,2.144,1.759,1.759,0,0,1-2.306.523,1.66,1.66,0,0,1-.3-2.306" transform="translate(-499.799 -461.484)" fill="#fff"/>
      </g>
      <g id="Grupo_52923" data-name="Grupo 52923" transform="translate(280.728 196.2)" opacity="0.6">
        <path id="Trazado_114576" data-name="Trazado 114576" d="M514.956,459.059l-3.144-1.038-12.3,37.531a2.8,2.8,0,0,0,1.576,2.183Z" transform="translate(-499.515 -458.021)" fill="#fff"/>
      </g>
      <path id="Trazado_114577" data-name="Trazado 114577" d="M496.679,478.62c.192.061.584-.861,1.5-1.6s1.875-.969,1.852-1.168-1.207-.277-2.306.63S496.456,478.6,496.679,478.62Z" transform="translate(-218.111 -265.918)" fill="#12263f"/>
      <path id="Trazado_114578" data-name="Trazado 114578" d="M497.154,484.95c.177.108.769-.607,1.775-.991s1.922-.3,1.975-.484-.984-.669-2.229-.161S496.977,484.889,497.154,484.95Z" transform="translate(-218.232 -267.622)" fill="#12263f"/>
      <path id="Trazado_114579" data-name="Trazado 114579" d="M501.408,490.408c.1-.154-.769-.73-1.96-.584s-1.906.907-1.768,1.038.861-.238,1.852-.346S501.315,490.593,501.408,490.408Z" transform="translate(-218.358 -269.175)" fill="#12263f"/>
      <path id="Trazado_114580" data-name="Trazado 114580" d="M490.81,475.912c.2,0,.223-.976.646-2.029s1.03-1.775.9-1.929-1.068.43-1.537,1.676S490.633,475.958,490.81,475.912Z" transform="translate(-216.715 -265.04)" fill="#12263f"/>
      <path id="Trazado_114581" data-name="Trazado 114581" d="M432.5,460.7l-19.1,8.893s3.981,21.683.607,23.673l-19.922-35.7,29.207-15.073Z" transform="translate(-194.391 -258.228)" fill="#7cc5ff"/>
      <g id="Grupo_52924" data-name="Grupo 52924" transform="translate(212.091 198.787)" opacity="0.6">
        <path id="Trazado_114582" data-name="Trazado 114582" d="M412.967,461.9a1.669,1.669,0,0,0-2.221-.161,1.607,1.607,0,0,0-.177,2.2,1.745,1.745,0,0,0,2.352.161,1.652,1.652,0,0,0-.069-2.306" transform="translate(-410.215 -461.388)" fill="#fff"/>
      </g>
      <g id="Grupo_52925" data-name="Grupo 52925" transform="translate(199.694 197.798)" opacity="0.6">
        <path id="Trazado_114583" data-name="Trazado 114583" d="M394.085,461.638l2.944-1.537,18.062,35.164a2.827,2.827,0,0,1-1.214,2.4Z" transform="translate(-394.085 -460.101)" fill="#fff"/>
      </g>
      <path id="Trazado_114584" data-name="Trazado 114584" d="M418.726,477.669c-.184.085-.715-.769-1.737-1.353s-2.006-.669-2.014-.869,1.145-.453,2.367.277S418.9,477.623,418.726,477.669Z" transform="translate(-199.225 -265.805)" fill="#12263f"/>
      <path id="Trazado_114585" data-name="Trazado 114585" d="M419.141,483.971c-.146.131-.845-.484-1.906-.707s-1.945,0-2.021-.169.861-.807,2.175-.507S419.31,483.886,419.141,483.971Z" transform="translate(-199.279 -267.487)" fill="#12263f"/>
      <path id="Trazado_114586" data-name="Trazado 114586" d="M415.821,490c-.123-.146.638-.845,1.845-.884s2.021.592,1.906.769-.892-.1-1.883-.054S415.929,490.173,415.821,490Z" transform="translate(-199.418 -269.017)" fill="#12263f"/>
      <path id="Trazado_114587" data-name="Trazado 114587" d="M424.576,474.017c-.2,0-.377-.93-.953-1.906s-1.3-1.591-1.191-1.76,1.122.261,1.791,1.414S424.761,474.032,424.576,474.017Z" transform="translate(-200.948 -264.666)" fill="#12263f"/>
      <path id="Trazado_114588" data-name="Trazado 114588" d="M451.77,408.639s29.315-7.471,36.709-5.9,16.571,2.706,17.916,8.186.9,14.442-4.481,19.369-71,25.979-71,25.979l-6.495-17.678L407.8,408.377C422.286,409.1,438.25,410.4,451.77,408.639Z" transform="translate(-197.566 -248.979)" fill="#0e1d2f"/>
      <path id="Trazado_114589" data-name="Trazado 114589" d="M435.415,442.641a2.686,2.686,0,0,1,.538-.231l1.537-.576c1.36-.507,3.313-1.276,5.688-2.306a95.676,95.676,0,0,0,17.5-10.061c3.19-2.306,6.149-4.7,8.947-6.687a45.693,45.693,0,0,1,7.878-4.612,23.039,23.039,0,0,1,5.9-1.745,14.278,14.278,0,0,1,1.668-.177,3,3,0,0,1,.576,0c0,.046-.769.092-2.221.346a24.487,24.487,0,0,0-5.811,1.852,46,46,0,0,0-7.786,4.65c-2.782,1.983-5.718,4.358-8.916,6.7a90.036,90.036,0,0,1-17.632,9.992c-2.39,1.015-4.366,1.745-5.742,2.206-.684.238-1.222.392-1.591.507A3.588,3.588,0,0,1,435.415,442.641Z" transform="translate(-203.955 -252.152)" fill="#0a4b6e"/>
      <path id="Trazado_114590" data-name="Trazado 114590" d="M390.6,407.891s-8.893,2.782-11.276,15.1,4.028,26.21,5.634,28.223,32.743,3.359,32.743,3.359l43.68,6.718s4.812-3.8,5.772-12.044c.769-6.249.054-8.117.054-8.117l-46.885-22.39S398.427,406.346,390.6,407.891Z" transform="translate(-190.855 -250.191)" fill="#12263f"/>
      <path id="Trazado_114591" data-name="Trazado 114591" d="M403.3,410.121c.112.041.223.087.33.138l.984.446,3.759,1.76,13.95,6.595L469.5,441.5l.092.046v.1a28.96,28.96,0,0,1,.169,7.4,22.738,22.738,0,0,1-2.091,7.34,20.365,20.365,0,0,1-1.76,3.028,15.8,15.8,0,0,1-2.191,2.613l-.069.054h-.092l-31.59-4.881c-2.413-.377-4.765-.769-7.056-1.061a56.588,56.588,0,0,1-6.549-1.537,70.011,70.011,0,0,1-11.153-4.481,77.389,77.389,0,0,1-8.524-5c-1.176-.845-2.306-1.606-3.259-2.39s-1.852-1.483-2.621-2.152-1.422-1.3-1.991-1.829-1.03-1.015-1.391-1.407-.638-.676-.83-.892-.269-.307-.269-.307l.3.284.853.861c.369.384.83.853,1.414,1.376s1.222,1.161,2.014,1.8,1.637,1.384,2.636,2.121,2.083,1.537,3.267,2.36a79.667,79.667,0,0,0,8.524,4.934,70.694,70.694,0,0,0,11.122,4.412,56.288,56.288,0,0,0,6.51,1.537c2.306.3,4.612.676,7.048,1.038l31.605,4.842-.161.046a18.471,18.471,0,0,0,3.843-5.472,22.525,22.525,0,0,0,2.06-7.21,28.856,28.856,0,0,0-.169-7.294l.108.146-47.085-22.643-13.9-6.7-3.728-1.814-.968-.484C403.4,410.182,403.3,410.121,403.3,410.121Z" transform="translate(-193.058 -250.738)" fill="#0a4b6e"/>
      <path id="Trazado_114592" data-name="Trazado 114592" d="M384.493,452.418a1.713,1.713,0,0,1-.223-.384c-.131-.261-.323-.653-.553-1.153-.469-1.007-1.122-2.483-1.829-4.343a47.663,47.663,0,0,1-3.282-15.149,33.344,33.344,0,0,1,.73-8.539,25.83,25.83,0,0,1,1.107-3.582,21.712,21.712,0,0,1,1.46-2.928,19.854,19.854,0,0,1,2.875-3.735c.384-.4.723-.676.938-.876a1.763,1.763,0,0,1,.354-.277l-1.176,1.261a21.7,21.7,0,0,0-4.135,6.679,25.309,25.309,0,0,0-1.061,3.543,34.015,34.015,0,0,0-.692,8.455,49.953,49.953,0,0,0,3.151,15.065c.669,1.868,1.276,3.351,1.7,4.381l.492,1.176A1.921,1.921,0,0,1,384.493,452.418Z" transform="translate(-190.802 -251.046)" fill="#0a4b6e"/>
      <path id="Trazado_114593" data-name="Trazado 114593" d="M324.145,300.672c-1.768-5.857-4.55-11.445-5.457-17.5l-5.557.769A15.926,15.926,0,0,0,301.6,302.087c.615,3.49,2.375,6.687,3.213,10.138s.469,7.609-2.306,9.784a5.647,5.647,0,0,0,3.712-1.13,5.254,5.254,0,0,1-1,3.666,10.181,10.181,0,0,0,7.033-1.583,3.075,3.075,0,0,1-1.107,2.506,14.765,14.765,0,0,0,12.367-7C326.573,313.224,325.912,306.529,324.145,300.672Z" transform="translate(-172.935 -221.363)" fill="#12263f"/>
      <path id="Trazado_114594" data-name="Trazado 114594" d="M308.945,300.859c-.876-5.941,4.2-13.136,10.169-13.758l14.25.469a5.258,5.258,0,0,1,4.558,2.982h0l6.879,39.33h0s2.813,12.221-7.971,13.758c-9.685,1.383-11.306-8.824-11.306-8.824l-1.276-7.425s-7.778,1.33-11.406-8.117C311.036,314.571,309.921,307.462,308.945,300.859Z" transform="translate(-174.668 -222.273)" fill="#ffbd9c"/>
      <path id="Trazado_114595" data-name="Trazado 114595" d="M316.491,313.692a1.283,1.283,0,0,0,1.476,1.007,1.23,1.23,0,0,0,1.057-1.381l0-.025a1.284,1.284,0,0,0-1.476-1.007,1.231,1.231,0,0,0-1.057,1.382Z" transform="translate(-176.434 -228.096)" fill="#12263f"/>
      <path id="Trazado_114596" data-name="Trazado 114596" d="M312.644,310.718c.192.131.992-.769,2.306-1.061s2.483.184,2.6,0-.169-.346-.669-.569a3.478,3.478,0,0,0-2.114-.192,3.417,3.417,0,0,0-1.822,1.045C312.629,310.333,312.552,310.656,312.644,310.718Z" transform="translate(-175.538 -227.296)" fill="#12263f"/>
      <path id="Trazado_114597" data-name="Trazado 114597" d="M331.291,310.532a1.276,1.276,0,0,0,1.476,1.007,1.222,1.222,0,0,0,1.058-1.367l0-.032a1.284,1.284,0,0,0-1.476-1.015,1.231,1.231,0,0,0-1.057,1.382Z" transform="translate(-179.858 -227.364)" fill="#12263f"/>
      <path id="Trazado_114598" data-name="Trazado 114598" d="M328.845,307.559c.192.131.991-.769,2.344-1.053s2.475.177,2.59,0-.161-.354-.661-.576a3.574,3.574,0,0,0-2.121-.192,3.393,3.393,0,0,0-1.814,1.045C328.837,307.2,328.752,307.5,328.845,307.559Z" transform="translate(-179.287 -226.566)" fill="#12263f"/>
      <path id="Trazado_114599" data-name="Trazado 114599" d="M325.183,319.092a10.924,10.924,0,0,0-2.306.123c-.346.038-.684.046-.769-.138a1.355,1.355,0,0,1,.038-.915c.169-.769.346-1.576.53-2.429a63.3,63.3,0,0,0,1.007-6.272,36.822,36.822,0,0,0-1.591,6.218l-.484,2.429a1.49,1.49,0,0,0,.077,1.184.844.844,0,0,0,.661.307,2.8,2.8,0,0,0,.6-.046A10.247,10.247,0,0,0,325.183,319.092Z" transform="translate(-177.601 -227.446)" fill="#12263f"/>
      <path id="Trazado_114600" data-name="Trazado 114600" d="M328.825,337.713a25.438,25.438,0,0,0,12.344-6.272s-1.9,7.532-11.89,8.7Z" transform="translate(-179.291 -232.532)" fill="#ea986e"/>
      <path id="Trazado_114601" data-name="Trazado 114601" d="M330.52,321.031c-.223.038.085,1.5-.945,2.805s-2.629,1.476-2.59,1.683.407.215,1.068.092a3.757,3.757,0,0,0,2.183-1.322,3.289,3.289,0,0,0,.7-2.306C330.859,321.33,330.62,321.008,330.52,321.031Z" transform="translate(-178.865 -230.123)" fill="#12263f"/>
      <path id="Trazado_114602" data-name="Trazado 114602" d="M328.185,301.556c.246.384,1.337-.169,2.767-.377s2.675-.046,2.736-.477c0-.208-.284-.538-.853-.769a3.959,3.959,0,0,0-2.237-.307,3.6,3.6,0,0,0-1.96.961C328.223,300.972,328.077,301.372,328.185,301.556Z" transform="translate(-179.135 -225.16)" fill="#12263f"/>
      <path id="Trazado_114603" data-name="Trazado 114603" d="M311.3,304.655c.3.331,1.237-.184,2.421-.361s2.229-.054,2.413-.469c.069-.208-.138-.553-.623-.838a3.236,3.236,0,0,0-3.9.669C311.25,304.094,311.158,304.494,311.3,304.655Z" transform="translate(-175.221 -225.861)" fill="#12263f"/>
      <path id="Trazado_114604" data-name="Trazado 114604" d="M315.418,283.276c-2.306,6.11,3.6,7.31,6.795,9.108a43.3,43.3,0,0,0,10.307,3.751,3.689,3.689,0,0,1,3.4,3.136q.983,3.167,1.968,6.333a17.81,17.81,0,0,1,.984,4.612,5.969,5.969,0,0,1-1.422,4.35,3.35,3.35,0,0,0,2.306-1.307,12.86,12.86,0,0,1-1.437,6.625,7.685,7.685,0,0,0,6.779-4.443,4.028,4.028,0,0,0,1.653,2.567c.354.307,1.007.5.845.062a30.2,30.2,0,0,1-.769-3.074c1.414.576,1.775,1.022,4.773.1a7.059,7.059,0,0,1-2.875-3.912s.815,1.66,3.4.845a10.546,10.546,0,0,1-3.6-7.1c-.215-3.843-.069-8.455-.861-12.252a17.213,17.213,0,0,0-5.642-9.915,19.028,19.028,0,0,0-8.724-3.651,29.915,29.915,0,0,0-10.169,0c-2.121.354-6.748,1.114-7.74,4.189" transform="translate(-176.068 -220.323)" fill="#12263f"/>
      <path id="Trazado_114605" data-name="Trazado 114605" d="M342.819,319.837a18.331,18.331,0,0,0,2.183-.515,7.674,7.674,0,0,0,2.306-1.23,6.828,6.828,0,0,0,2.144-2.736L349.6,315l.092.377a4.613,4.613,0,0,0,.769,1.714,2.6,2.6,0,0,0,1.676,1.068l-.161.184c-.261-1.061-.538-2.183-.83-3.343l-.092-.384.338.2a5.018,5.018,0,0,0,4.612.077v.307a7.072,7.072,0,0,1-2.959-4.012l-.277-.968.607.807a2.727,2.727,0,0,0,3.174.769l-.046.331a10.994,10.994,0,0,1-3.612-6.864,43.91,43.91,0,0,1-.331-7.586,21.7,21.7,0,0,0-.861-6.918,17.026,17.026,0,0,0-7.056-9.223,17.474,17.474,0,0,0-7.5-2.575,20.964,20.964,0,0,0-2.175-.092H334.2a12.3,12.3,0,0,1,2.959-.069,17,17,0,0,1,14.888,11.867,22.093,22.093,0,0,1,.9,7.017,44.441,44.441,0,0,0,.331,7.525,10.692,10.692,0,0,0,3.466,6.625l.254.2-.292.131a3.074,3.074,0,0,1-3.636-.907l.331-.169a6.8,6.8,0,0,0,2.79,3.843l.269.177-.284.131a5.38,5.38,0,0,1-4.942-.108l.238-.184.807,3.351.054.215h-.208a2.836,2.836,0,0,1-1.875-1.191,4.929,4.929,0,0,1-.807-1.829h.246a6.851,6.851,0,0,1-2.267,2.813A7.545,7.545,0,0,1,345,319.5a8.53,8.53,0,0,1-1.645.346A2.927,2.927,0,0,1,342.819,319.837Z" transform="translate(-180.533 -220.337)" fill="#0a4b6e"/>
      <path id="Trazado_114606" data-name="Trazado 114606" d="M345.812,310.428a1.545,1.545,0,0,1,0-.446c0-.338.046-.769.077-1.284a35.349,35.349,0,0,0,0-4.689,16.079,16.079,0,0,0-1.806-6.618,10.657,10.657,0,0,0-2.552-3.121,12.533,12.533,0,0,0-3.8-2.083,35.146,35.146,0,0,0-8.355-1.483,36.654,36.654,0,0,1-6.918-1.13,13.717,13.717,0,0,1-4.273-2.006,9.917,9.917,0,0,1-.984-.838c-.208-.208-.315-.315-.3-.331s.461.415,1.376,1.038a14.234,14.234,0,0,0,4.258,1.86,38.369,38.369,0,0,0,6.871,1.045,34.147,34.147,0,0,1,8.455,1.468,12.8,12.8,0,0,1,3.92,2.16,10.856,10.856,0,0,1,2.621,3.243,16.146,16.146,0,0,1,1.768,6.779,30.918,30.918,0,0,1-.154,4.719c-.054.553-.108.984-.154,1.276A1.53,1.53,0,0,1,345.812,310.428Z" transform="translate(-176.532 -222.111)" fill="#0a4b6e"/>
      <path id="Trazado_114607" data-name="Trazado 114607" d="M303.548,386.981l-.523,6.149a27.892,27.892,0,0,1,12.951,3.72l-.354-9.869Z" transform="translate(-173.321 -245.384)" fill="#ffbd9c"/>
      <path id="Trazado_114608" data-name="Trazado 114608" d="M313.065,434.788s-6.1,16.909-1.345,25.172,6.449,9.515,12.475,9.162,10.084-4.934,11.314-6.695,3.843-26.079,3.843-26.079l-1.061-22.828-18.139.807Z" transform="translate(-174.914 -251.525)" fill="#12263f"/>
      <path id="Trazado_114609" data-name="Trazado 114609" d="M370.58,411.6a154.141,154.141,0,0,1,1.96,23.827c-.177,11.129-4.181,24.726-8.455,30.291-2.052,2.644-7.371,3.359-11.1,3.074-3.459-.292-6.787-3.074-6.964-8.386s.838-26.025.769-25.672-4.9-15.472-4.9-15.472l2.959-6.149Z" transform="translate(-182.315 -251.08)" fill="#12263f"/>
      <path id="Trazado_114610" data-name="Trazado 114610" d="M349.024,436.281a30.773,30.773,0,0,1-.453,4.934,31.721,31.721,0,0,1-.845,4.888,29.931,29.931,0,0,1,.453-4.935A30.634,30.634,0,0,1,349.024,436.281Z" transform="translate(-183.664 -256.791)" fill="#0a4b6e"/>
      <path id="Trazado_114611" data-name="Trazado 114611" d="M311.7,462.927a1.593,1.593,0,0,1-.246-.3,4.419,4.419,0,0,1-.561-.961,12.721,12.721,0,0,1-.945-3.981,46.7,46.7,0,0,1,1.176-13.4,80.053,80.053,0,0,1,3.843-12.89c.646-1.6,1.222-2.867,1.637-3.735q.323-.661.507-.992c.115-.223.185-.338.2-.331a1.237,1.237,0,0,1-.131.369l-.43,1.015c-.377.884-.915,2.168-1.537,3.774a89.6,89.6,0,0,0-3.751,12.874,50.542,50.542,0,0,0-1.284,13.282,13.407,13.407,0,0,0,.807,3.951C311.395,462.489,311.741,462.9,311.7,462.927Z" transform="translate(-174.896 -254.491)" fill="#0a4b6e"/>
      <g id="Grupo_52926" data-name="Grupo 52926" transform="translate(142.494 168.499)" opacity="0.3">
        <path id="Trazado_114612" data-name="Trazado 114612" d="M319.911,424.725l-.246,1.007c9.946,5.1,21.79,5.826,32.7,3.39,4.973-1.107,10.1-3.074,13.151-7.14A277.53,277.53,0,0,1,319.911,424.725Z" transform="translate(-319.665 -421.981)"/>
      </g>
      <path id="Trazado_114613" data-name="Trazado 114613" d="M318.859,343.791s-9.223,1.222-12.121,14.8c-2.729,12.836-3.843,18.4-3.843,18.4H320.2Z" transform="translate(-173.291 -235.39)" fill="#6698ff"/>
      <path id="Trazado_114614" data-name="Trazado 114614" d="M354.515,334.95s12.5-2.552,19.354,4.712c5.657,6,10.361,15.826,10.361,15.826l-13.835,7.048Z" transform="translate(-185.235 -233.244)" fill="#6698ff"/>
      <path id="Trazado_114615" data-name="Trazado 114615" d="M322.554,341.773l4.158-1.291s5.742,2.452,10.922.976c6.472-1.852,8.455-6.387,8.455-6.387l10.445.638,6.756,32.5,3.928,33.6c-17.056,6.049-33.458,8.632-48.346,3.213l1.314-4.443-1.322-38.154Z" transform="translate(-176.986 -233.372)" fill="#6698ff"/>
      <path id="Trazado_114616" data-name="Trazado 114616" d="M319.012,400.848a1.73,1.73,0,0,1-.054-.43l-.085-1.23c-.054-1.13-.123-2.667-.215-4.542s-.177-4.22-.277-6.741c-.046-1.268-.1-2.6-.146-3.981s-.085-2.805-.223-4.258a147.917,147.917,0,0,0-2.444-14.773c-.361-1.891-.623-3.42-.769-4.481-.069-.5-.131-.9-.177-1.222a2.329,2.329,0,0,1-.038-.438,1.757,1.757,0,0,1,.115.423c.069.315.154.723.254,1.207l.93,4.45a127.351,127.351,0,0,1,2.552,14.8c.146,1.46.177,2.9.223,4.273s.085,2.713.123,3.981c.069,2.529.131,4.8.192,6.741s.069,3.42.092,4.55v1.237A1.534,1.534,0,0,1,319.012,400.848Z" transform="translate(-175.996 -238.852)" fill="#12263f"/>
      <path id="Trazado_114617" data-name="Trazado 114617" d="M358.259,406.661a7.209,7.209,0,0,1-1.015.561c-.661.346-1.645.807-2.859,1.353a88.31,88.31,0,0,1-9.792,3.589,100.567,100.567,0,0,1-10.13,2.5c-1.307.261-2.375.43-3.074.538a7.354,7.354,0,0,1-1.153.131,5.549,5.549,0,0,1,1.122-.284l3.074-.661c2.6-.569,6.149-1.43,10.061-2.606s7.34-2.46,9.8-3.466c1.23-.507,2.229-.93,2.905-1.23A6.128,6.128,0,0,1,358.259,406.661Z" transform="translate(-179.617 -249.937)" fill="#12263f"/>
      <g id="Grupo_52927" data-name="Grupo 52927" transform="translate(138.197 123.197)" opacity="0.3">
        <path id="Trazado_114618" data-name="Trazado 114618" d="M315.028,363.041l-.192.354a15.687,15.687,0,0,0,2.944,14.949A96.606,96.606,0,0,0,315.028,363.041Z" transform="translate(-314.075 -363.041)"/>
      </g>
      <path id="Trazado_114619" data-name="Trazado 114619" d="M359.3,402.871a12.241,12.241,0,0,1-1.968,1.33,46.716,46.716,0,0,1-5.088,2.606,45.921,45.921,0,0,1-5.38,1.952,11.306,11.306,0,0,1-2.306.53,18.123,18.123,0,0,1,2.229-.769c1.376-.477,3.267-1.168,5.3-2.052s3.843-1.8,5.111-2.49A17.022,17.022,0,0,1,359.3,402.871Z" transform="translate(-182.931 -249.06)" fill="#12263f"/>
      <path id="Trazado_114620" data-name="Trazado 114620" d="M387.043,358.491s2.306,5.788,4.1,10.761c1.937,5.288,5.565,17.048-2.121,19.83-5.841,2.106-8.747-4.558-8.747-4.558l-4.7-16.541,4.343-2.306-1.391-4.1Z" transform="translate(-190.108 -238.791)" fill="#ffbd9c"/>
      <path id="Trazado_114621" data-name="Trazado 114621" d="M378.646,358.629s-3.382-3.49-3.843-4.719l-1.768-7.479s.638-1.045,1.837,0a8.894,8.894,0,0,1,1.437,1.906l.984,2.091.461-1.337-.769-5.127s-.646-3.674.161-3.528,1.414,1.076,1.7,2.667l.63,3.6s.154.607.438-.592-.692-5.572-.653-6.218-.477-2.152.607-2.406,1.253,1.822,1.253,1.822l1.537,6.433v-3.251c0-.484-.246-1.914-.2-2.759s.423-1.391.907-1.491a.885.885,0,0,1,1.114.43l.615,5.726a23.7,23.7,0,0,0,.246,2.79c.115.131.769-1.36.769-1.36l.131-1.96s-.3-2.629.477-2.951,1.007.154,1.007.154l.507,4.812-.361,5.742-1.161,5.28-2.675.769Z" transform="translate(-189.521 -233.926)" fill="#ffbd9c"/>
      <path id="Trazado_114622" data-name="Trazado 114622" d="M384.065,386.178s-.077,0-.184-.123a2.83,2.83,0,0,1-.453-.461,6.191,6.191,0,0,1-1.068-2.121,23.321,23.321,0,0,1-.63-7.725,26.875,26.875,0,0,0-.607-7.632c-.446-1.914-.9-3.074-.838-3.074a3.273,3.273,0,0,1,.377.769,20.4,20.4,0,0,1,.769,2.229,24.435,24.435,0,0,1,.73,7.686,35.253,35.253,0,0,0,0,4.227,18.451,18.451,0,0,0,.515,3.4,6.911,6.911,0,0,0,.915,2.106C383.857,385.947,384.088,386.155,384.065,386.178Z" transform="translate(-191.196 -240.307)" fill="#ea986e"/>
      <path id="Trazado_114623" data-name="Trazado 114623" d="M383.629,357.649c-.062,0-.238-.492-.769-1.153a5.067,5.067,0,0,0-2.682-1.768,7.308,7.308,0,0,0-.922-.146,2.673,2.673,0,0,1-.484-.108.575.575,0,0,1-.254-.123.755.755,0,0,1-.184-.208,9.929,9.929,0,0,1-.684-1.391,6.793,6.793,0,0,1-.484-1.322,4.039,4.039,0,0,1,.769,1.2,14.261,14.261,0,0,0,.769,1.307c.092.123.085.131.246.177a2.172,2.172,0,0,0,.415.077,5.9,5.9,0,0,1,.976.154,4.888,4.888,0,0,1,2.813,1.983A2.516,2.516,0,0,1,383.629,357.649Z" transform="translate(-190.476 -237.158)" fill="#ea986e"/>
      <path id="Trazado_114624" data-name="Trazado 114624" d="M307.83,394.326a1.947,1.947,0,0,0-1.576-.853,8.225,8.225,0,0,1-1.852-.231c-.469-.177-.868-.5-1.322-.715a3.075,3.075,0,0,0-3.513.692l-.354-.223a1.853,1.853,0,0,0-1.891-.177,4.184,4.184,0,0,0-1.537,1.268,11.236,11.236,0,0,0-2.306,5.326c-.115.769-.077,1.668.569,2.068a1.437,1.437,0,0,0,1.491-.108,3.644,3.644,0,0,0,1.038-1.176,19.387,19.387,0,0,0,2.091-4.489,37.274,37.274,0,0,0-1,5.734,3.466,3.466,0,0,0,.138,1.46,1.214,1.214,0,0,0,2.144.446,3.732,3.732,0,0,0,.623-1.038,37.3,37.3,0,0,0,1.922-5.119,31.869,31.869,0,0,0-.615,5.48,1.9,1.9,0,0,0,.569,1.714,1.252,1.252,0,0,0,1.307-.061,2.614,2.614,0,0,0,.869-1.045c.976-1.9.922-4.25,2.129-6.011a15.957,15.957,0,0,0,.968-1.353A1.705,1.705,0,0,0,307.83,394.326Z" transform="translate(-171.101 -246.603)" fill="#ffbd9c"/>
      <path id="Trazado_114625" data-name="Trazado 114625" d="M307.759,394.286a.836.836,0,0,1,.154.346,1.88,1.88,0,0,1-.138,1.084,7.733,7.733,0,0,1-.976,1.46,6.948,6.948,0,0,0-.93,2.106c-.246.838-.415,1.8-.73,2.813a7.293,7.293,0,0,1-.661,1.537,1.912,1.912,0,0,1-1.537,1.03,1.167,1.167,0,0,1-.938-.384,1.751,1.751,0,0,1-.384-.953,14.451,14.451,0,0,1,0-2,30.985,30.985,0,0,1,.553-4.2l.354.085c-.284.976-.615,1.968-1,2.967-.192.5-.4,1.007-.615,1.537a9.8,9.8,0,0,1-.769,1.537,1.6,1.6,0,0,1-1.629.769,1.706,1.706,0,0,1-1.168-1.414,6.925,6.925,0,0,1,0-1.783c.062-.592.146-1.176.246-1.76.192-1.145.453-2.306.707-3.367l.384.108a18.428,18.428,0,0,1-2.613,5.219,2.214,2.214,0,0,1-1.184.73,1.367,1.367,0,0,1-1.407-.484,2.177,2.177,0,0,1-.346-1.384,7.244,7.244,0,0,1,.2-1.314,11.382,11.382,0,0,1,2.091-4.427,4.715,4.715,0,0,1,1.7-1.491,2.022,2.022,0,0,1,2.083.192h0l.354.215h-.169a3.229,3.229,0,0,1,3.636-.7c.523.254.922.592,1.353.769a4.425,4.425,0,0,0,1.268.169,3.03,3.03,0,0,1,1.737.477.985.985,0,0,1,.384.492,1.615,1.615,0,0,0-.43-.43,3.073,3.073,0,0,0-1.7-.384,4.941,4.941,0,0,1-1.307-.177,14.612,14.612,0,0,1-1.383-.715,2.983,2.983,0,0,0-3.343.692l-.077.077-.092-.054-.361-.215h0a1.73,1.73,0,0,0-1.783-.131,4.452,4.452,0,0,0-1.537,1.414,11.074,11.074,0,0,0-2.006,4.3,7.826,7.826,0,0,0-.184,1.253,1.866,1.866,0,0,0,.284,1.145.983.983,0,0,0,1.03.338,1.859,1.859,0,0,0,1.03-.684,18.138,18.138,0,0,0,2.521-5.1l.384.108c-.246,1.1-.507,2.206-.7,3.343-.1.576-.184,1.153-.238,1.729a6.789,6.789,0,0,0,0,1.676,1.328,1.328,0,0,0,.869,1.1,1.23,1.23,0,0,0,1.222-.607,10.3,10.3,0,0,0,.715-1.437c.215-.5.423-.992.615-1.483.384-.991.715-1.975,1.007-2.936l.354.085a31.715,31.715,0,0,0-.569,4.158,12.734,12.734,0,0,0-.046,1.937,1.539,1.539,0,0,0,.292.769.853.853,0,0,0,.7.284,1.59,1.59,0,0,0,1.268-.876,6.818,6.818,0,0,0,.653-1.46c.323-.984.507-1.945.769-2.79a7.043,7.043,0,0,1,1.007-2.144,8.525,8.525,0,0,0,1.007-1.407A1.7,1.7,0,0,0,307.759,394.286Z" transform="translate(-171.03 -246.562)" fill="#ea986e"/>
    </g>
  </g>
</svg>
